<?xml version="1.0" standalone="no"?>
<!DOCTYPE svg PUBLIC "-//W3C//DTD SVG 1.1//EN" "http://www.w3.org/Graphics/SVG/1.1/DTD/svg11.dtd">
<svg version="1.1" width="1200" height="342" onload="init(evt)" viewBox="0 0 1200 342" xmlns="http://www.w3.org/2000/svg" xmlns:xlink="http://www.w3.org/1999/xlink">
<!-- Flame graph stack visualization. See https://github.com/brendangregg/FlameGraph for latest version, and http://www.brendangregg.com/flamegraphs.html for examples. -->
<!-- NOTES:  -->
<defs>
	<linearGradient id="background" y1="0" y2="1" x1="0" x2="0" >
		<stop stop-color="#eeeeee" offset="5%" />
		<stop stop-color="#eeeeb0" offset="95%" />
	</linearGradient>
</defs>
<style type="text/css">
	text { font-family:Verdana; font-size:12px; fill:rgb(0,0,0); }
	#search, #ignorecase { opacity:0.1; cursor:pointer; }
	#search:hover, #search.show, #ignorecase:hover, #ignorecase.show { opacity:1; }
	#subtitle { text-anchor:middle; font-color:rgb(160,160,160); }
	#title { text-anchor:middle; font-size:17px}
	#unzoom { cursor:pointer; }
	#frames > *:hover { stroke:black; stroke-width:0.5; cursor:pointer; }
	.hide { display:none; }
	.parent { opacity:0.5; }
</style>
<script type="text/ecmascript">
<![CDATA[
	"use strict";
	var details, searchbtn, unzoombtn, matchedtxt, svg, searching, currentSearchTerm, ignorecase, ignorecaseBtn;
	function init(evt) {
		details = document.getElementById("details").firstChild;
		searchbtn = document.getElementById("search");
		ignorecaseBtn = document.getElementById("ignorecase");
		unzoombtn = document.getElementById("unzoom");
		matchedtxt = document.getElementById("matched");
		svg = document.getElementsByTagName("svg")[0];
		searching = 0;
		currentSearchTerm = null;

		// use GET parameters to restore a flamegraphs state.
		var params = get_params();
		if (params.x && params.y)
			zoom(find_group(document.querySelector('[x="' + params.x + '"][y="' + params.y + '"]')));
                if (params.s) search(params.s);
	}

	// event listeners
	window.addEventListener("click", function(e) {
		var target = find_group(e.target);
		if (target) {
			if (target.nodeName == "a") {
				if (e.ctrlKey === false) return;
				e.preventDefault();
			}
			if (target.classList.contains("parent")) unzoom(true);
			zoom(target);
			if (!document.querySelector('.parent')) {
				// we have basically done a clearzoom so clear the url
				var params = get_params();
				if (params.x) delete params.x;
				if (params.y) delete params.y;
				history.replaceState(null, null, parse_params(params));
				unzoombtn.classList.add("hide");
				return;
			}

			// set parameters for zoom state
			var el = target.querySelector("rect");
			if (el && el.attributes && el.attributes.y && el.attributes._orig_x) {
				var params = get_params()
				params.x = el.attributes._orig_x.value;
				params.y = el.attributes.y.value;
				history.replaceState(null, null, parse_params(params));
			}
		}
		else if (e.target.id == "unzoom") clearzoom();
		else if (e.target.id == "search") search_prompt();
		else if (e.target.id == "ignorecase") toggle_ignorecase();
	}, false)

	// mouse-over for info
	// show
	window.addEventListener("mouseover", function(e) {
		var target = find_group(e.target);
		if (target) details.nodeValue = "Function: " + g_to_text(target);
	}, false)

	// clear
	window.addEventListener("mouseout", function(e) {
		var target = find_group(e.target);
		if (target) details.nodeValue = ' ';
	}, false)

	// ctrl-F for search
	// ctrl-I to toggle case-sensitive search
	window.addEventListener("keydown",function (e) {
		if (e.keyCode === 114 || (e.ctrlKey && e.keyCode === 70)) {
			e.preventDefault();
			search_prompt();
		}
		else if (e.ctrlKey && e.keyCode === 73) {
			e.preventDefault();
			toggle_ignorecase();
		}
	}, false)

	// functions
	function get_params() {
		var params = {};
		var paramsarr = window.location.search.substr(1).split('&');
		for (var i = 0; i < paramsarr.length; ++i) {
			var tmp = paramsarr[i].split("=");
			if (!tmp[0] || !tmp[1]) continue;
			params[tmp[0]]  = decodeURIComponent(tmp[1]);
		}
		return params;
	}
	function parse_params(params) {
		var uri = "?";
		for (var key in params) {
			uri += key + '=' + encodeURIComponent(params[key]) + '&';
		}
		if (uri.slice(-1) == "&")
			uri = uri.substring(0, uri.length - 1);
		if (uri == '?')
			uri = window.location.href.split('?')[0];
		return uri;
	}
	function find_child(node, selector) {
		var children = node.querySelectorAll(selector);
		if (children.length) return children[0];
	}
	function find_group(node) {
		var parent = node.parentElement;
		if (!parent) return;
		if (parent.id == "frames") return node;
		return find_group(parent);
	}
	function orig_save(e, attr, val) {
		if (e.attributes["_orig_" + attr] != undefined) return;
		if (e.attributes[attr] == undefined) return;
		if (val == undefined) val = e.attributes[attr].value;
		e.setAttribute("_orig_" + attr, val);
	}
	function orig_load(e, attr) {
		if (e.attributes["_orig_"+attr] == undefined) return;
		e.attributes[attr].value = e.attributes["_orig_" + attr].value;
		e.removeAttribute("_orig_"+attr);
	}
	function g_to_text(e) {
		var text = find_child(e, "title").firstChild.nodeValue;
		return (text)
	}
	function g_to_func(e) {
		var func = g_to_text(e);
		// if there's any manipulation we want to do to the function
		// name before it's searched, do it here before returning.
		return (func);
	}
	function update_text(e) {
		var r = find_child(e, "rect");
		var t = find_child(e, "text");
		var w = parseFloat(r.attributes.width.value) -3;
		var txt = find_child(e, "title").textContent.replace(/\([^(]*\)$/,"");
		t.attributes.x.value = parseFloat(r.attributes.x.value) + 3;

		// Smaller than this size won't fit anything
		if (w < 2 * 12 * 0.59) {
			t.textContent = "";
			return;
		}

		t.textContent = txt;
		var sl = t.getSubStringLength(0, txt.length);
		// check if only whitespace or if we can fit the entire string into width w
		if (/^ *$/.test(txt) || sl < w)
			return;

		// this isn't perfect, but gives a good starting point
		// and avoids calling getSubStringLength too often
		var start = Math.floor((w/sl) * txt.length);
		for (var x = start; x > 0; x = x-2) {
			if (t.getSubStringLength(0, x + 2) <= w) {
				t.textContent = txt.substring(0, x) + "..";
				return;
			}
		}
		t.textContent = "";
	}

	// zoom
	function zoom_reset(e) {
		if (e.attributes != undefined) {
			orig_load(e, "x");
			orig_load(e, "width");
		}
		if (e.childNodes == undefined) return;
		for (var i = 0, c = e.childNodes; i < c.length; i++) {
			zoom_reset(c[i]);
		}
	}
	function zoom_child(e, x, ratio) {
		if (e.attributes != undefined) {
			if (e.attributes.x != undefined) {
				orig_save(e, "x");
				e.attributes.x.value = (parseFloat(e.attributes.x.value) - x - 10) * ratio + 10;
				if (e.tagName == "text")
					e.attributes.x.value = find_child(e.parentNode, "rect[x]").attributes.x.value + 3;
			}
			if (e.attributes.width != undefined) {
				orig_save(e, "width");
				e.attributes.width.value = parseFloat(e.attributes.width.value) * ratio;
			}
		}

		if (e.childNodes == undefined) return;
		for (var i = 0, c = e.childNodes; i < c.length; i++) {
			zoom_child(c[i], x - 10, ratio);
		}
	}
	function zoom_parent(e) {
		if (e.attributes) {
			if (e.attributes.x != undefined) {
				orig_save(e, "x");
				e.attributes.x.value = 10;
			}
			if (e.attributes.width != undefined) {
				orig_save(e, "width");
				e.attributes.width.value = parseInt(svg.width.baseVal.value) - (10 * 2);
			}
		}
		if (e.childNodes == undefined) return;
		for (var i = 0, c = e.childNodes; i < c.length; i++) {
			zoom_parent(c[i]);
		}
	}
	function zoom(node) {
		var attr = find_child(node, "rect").attributes;
		var width = parseFloat(attr.width.value);
		var xmin = parseFloat(attr.x.value);
		var xmax = parseFloat(xmin + width);
		var ymin = parseFloat(attr.y.value);
		var ratio = (svg.width.baseVal.value - 2 * 10) / width;

		// XXX: Workaround for JavaScript float issues (fix me)
		var fudge = 0.0001;

		unzoombtn.classList.remove("hide");

		var el = document.getElementById("frames").children;
		for (var i = 0; i < el.length; i++) {
			var e = el[i];
			var a = find_child(e, "rect").attributes;
			var ex = parseFloat(a.x.value);
			var ew = parseFloat(a.width.value);
			var upstack;
			// Is it an ancestor
			if (0 == 0) {
				upstack = parseFloat(a.y.value) > ymin;
			} else {
				upstack = parseFloat(a.y.value) < ymin;
			}
			if (upstack) {
				// Direct ancestor
				if (ex <= xmin && (ex+ew+fudge) >= xmax) {
					e.classList.add("parent");
					zoom_parent(e);
					update_text(e);
				}
				// not in current path
				else
					e.classList.add("hide");
			}
			// Children maybe
			else {
				// no common path
				if (ex < xmin || ex + fudge >= xmax) {
					e.classList.add("hide");
				}
				else {
					zoom_child(e, xmin, ratio);
					update_text(e);
				}
			}
		}
		search();
	}
	function unzoom(dont_update_text) {
		unzoombtn.classList.add("hide");
		var el = document.getElementById("frames").children;
		for(var i = 0; i < el.length; i++) {
			el[i].classList.remove("parent");
			el[i].classList.remove("hide");
			zoom_reset(el[i]);
			if(!dont_update_text) update_text(el[i]);
		}
		search();
	}
	function clearzoom() {
		unzoom();

		// remove zoom state
		var params = get_params();
		if (params.x) delete params.x;
		if (params.y) delete params.y;
		history.replaceState(null, null, parse_params(params));
	}

	// search
	function toggle_ignorecase() {
		ignorecase = !ignorecase;
		if (ignorecase) {
			ignorecaseBtn.classList.add("show");
		} else {
			ignorecaseBtn.classList.remove("show");
		}
		reset_search();
		search();
	}
	function reset_search() {
		var el = document.querySelectorAll("#frames rect");
		for (var i = 0; i < el.length; i++) {
			orig_load(el[i], "fill")
		}
		var params = get_params();
		delete params.s;
		history.replaceState(null, null, parse_params(params));
	}
	function search_prompt() {
		if (!searching) {
			var term = prompt("Enter a search term (regexp " +
			    "allowed, eg: ^ext4_)"
			    + (ignorecase ? ", ignoring case" : "")
			    + "\nPress Ctrl-i to toggle case sensitivity", "");
			if (term != null) search(term);
		} else {
			reset_search();
			searching = 0;
			currentSearchTerm = null;
			searchbtn.classList.remove("show");
			searchbtn.firstChild.nodeValue = "Search"
			matchedtxt.classList.add("hide");
			matchedtxt.firstChild.nodeValue = ""
		}
	}
	function search(term) {
		if (term) currentSearchTerm = term;

		var re = new RegExp(currentSearchTerm, ignorecase ? 'i' : '');
		var el = document.getElementById("frames").children;
		var matches = new Object();
		var maxwidth = 0;
		for (var i = 0; i < el.length; i++) {
			var e = el[i];
			var func = g_to_func(e);
			var rect = find_child(e, "rect");
			if (func == null || rect == null)
				continue;

			// Save max width. Only works as we have a root frame
			var w = parseFloat(rect.attributes.width.value);
			if (w > maxwidth)
				maxwidth = w;

			if (func.match(re)) {
				// highlight
				var x = parseFloat(rect.attributes.x.value);
				orig_save(rect, "fill");
				rect.attributes.fill.value = "rgb(230,0,230)";

				// remember matches
				if (matches[x] == undefined) {
					matches[x] = w;
				} else {
					if (w > matches[x]) {
						// overwrite with parent
						matches[x] = w;
					}
				}
				searching = 1;
			}
		}
		if (!searching)
			return;
		var params = get_params();
		params.s = currentSearchTerm;
		history.replaceState(null, null, parse_params(params));

		searchbtn.classList.add("show");
		searchbtn.firstChild.nodeValue = "Reset Search";

		// calculate percent matched, excluding vertical overlap
		var count = 0;
		var lastx = -1;
		var lastw = 0;
		var keys = Array();
		for (k in matches) {
			if (matches.hasOwnProperty(k))
				keys.push(k);
		}
		// sort the matched frames by their x location
		// ascending, then width descending
		keys.sort(function(a, b){
			return a - b;
		});
		// Step through frames saving only the biggest bottom-up frames
		// thanks to the sort order. This relies on the tree property
		// where children are always smaller than their parents.
		var fudge = 0.0001;	// JavaScript floating point
		for (var k in keys) {
			var x = parseFloat(keys[k]);
			var w = matches[keys[k]];
			if (x >= lastx + lastw - fudge) {
				count += w;
				lastx = x;
				lastw = w;
			}
		}
		// display matched percent
		matchedtxt.classList.remove("hide");
		var pct = 100 * count / maxwidth;
		if (pct != 100) pct = pct.toFixed(1)
		matchedtxt.firstChild.nodeValue = "Matched: " + pct + "%";
	}
]]>
</script>
<rect x="0.0" y="0" width="1200.0" height="342.0" fill="url(#background)"  />
<text id="title" x="600.00" y="24" >Flame Graph</text>
<text id="details" x="10.00" y="325" > </text>
<text id="unzoom" x="10.00" y="24" class="hide">Reset Zoom</text>
<text id="search" x="1090.00" y="24" >Search</text>
<text id="ignorecase" x="1174.00" y="24" >ic</text>
<text id="matched" x="1090.00" y="325" > </text>
<g id="frames">
<g >
<title>[[kernel.kallsyms]] (10,101,010 samples, 0.15%)</title><rect x="607.1" y="37" width="1.7" height="15.0" fill="rgb(232,145,37)" rx="2" ry="2" />
<text  x="610.07" y="47.5" ></text>
</g>
<g >
<title>[[kernel.kallsyms]] (313,131,310 samples, 4.64%)</title><rect x="1135.2" y="181" width="54.8" height="15.0" fill="rgb(251,54,7)" rx="2" ry="2" />
<text  x="1138.24" y="191.5" >[[ker..</text>
</g>
<g >
<title>[[kernel.kallsyms]] (313,131,310 samples, 4.64%)</title><rect x="1135.2" y="101" width="54.8" height="15.0" fill="rgb(216,9,5)" rx="2" ry="2" />
<text  x="1138.24" y="111.5" >[[ker..</text>
</g>
<g >
<title>gmain (10,101,010 samples, 0.15%)</title><rect x="603.5" y="277" width="1.8" height="15.0" fill="rgb(231,15,1)" rx="2" ry="2" />
<text  x="606.53" y="287.5" ></text>
</g>
<g >
<title>[[kernel.kallsyms]] (10,101,010 samples, 0.15%)</title><rect x="605.3" y="261" width="1.8" height="15.0" fill="rgb(213,166,22)" rx="2" ry="2" />
<text  x="608.30" y="271.5" ></text>
</g>
<g >
<title>[unknown] (10,101,010 samples, 0.15%)</title><rect x="603.5" y="261" width="1.8" height="15.0" fill="rgb(250,134,50)" rx="2" ry="2" />
<text  x="606.53" y="271.5" ></text>
</g>
<g >
<title>all (6,747,474,680 samples, 100%)</title><rect x="10.0" y="293" width="1180.0" height="15.0" fill="rgb(224,117,9)" rx="2" ry="2" />
<text  x="13.00" y="303.5" ></text>
</g>
<g >
<title>[[kernel.kallsyms]] (10,101,010 samples, 0.15%)</title><rect x="607.1" y="69" width="1.7" height="15.0" fill="rgb(205,131,32)" rx="2" ry="2" />
<text  x="610.07" y="79.5" ></text>
</g>
<g >
<title>__pthread_getspecific (10,101,010 samples, 0.15%)</title><rect x="603.5" y="245" width="1.8" height="15.0" fill="rgb(241,12,25)" rx="2" ry="2" />
<text  x="606.53" y="255.5" ></text>
</g>
<g >
<title>makeleaf (20,202,020 samples, 0.30%)</title><rect x="582.3" y="261" width="3.6" height="15.0" fill="rgb(208,179,20)" rx="2" ry="2" />
<text  x="585.34" y="271.5" ></text>
</g>
<g >
<title>[[kernel.kallsyms]] (10,101,010 samples, 0.15%)</title><rect x="592.9" y="213" width="1.8" height="15.0" fill="rgb(254,184,25)" rx="2" ry="2" />
<text  x="595.93" y="223.5" ></text>
</g>
<g >
<title>[[kernel.kallsyms]] (10,101,010 samples, 0.15%)</title><rect x="592.9" y="165" width="1.8" height="15.0" fill="rgb(236,66,49)" rx="2" ry="2" />
<text  x="595.93" y="175.5" ></text>
</g>
<g >
<title>[[kernel.kallsyms]] (3,010,100,980 samples, 44.61%)</title><rect x="608.8" y="213" width="526.4" height="15.0" fill="rgb(254,21,31)" rx="2" ry="2" />
<text  x="611.83" y="223.5" >[[kernel.kallsyms]]</text>
</g>
<g >
<title>[[kernel.kallsyms]] (10,101,010 samples, 0.15%)</title><rect x="607.1" y="181" width="1.7" height="15.0" fill="rgb(222,58,20)" rx="2" ry="2" />
<text  x="610.07" y="191.5" ></text>
</g>
<g >
<title>[[kernel.kallsyms]] (10,101,010 samples, 0.15%)</title><rect x="592.9" y="197" width="1.8" height="15.0" fill="rgb(208,74,2)" rx="2" ry="2" />
<text  x="595.93" y="207.5" ></text>
</g>
<g >
<title>[[kernel.kallsyms]] (10,101,010 samples, 0.15%)</title><rect x="594.7" y="165" width="1.8" height="15.0" fill="rgb(212,220,27)" rx="2" ry="2" />
<text  x="597.70" y="175.5" ></text>
</g>
<g >
<title>[[kernel.kallsyms]] (10,101,010 samples, 0.15%)</title><rect x="596.5" y="149" width="1.7" height="15.0" fill="rgb(234,132,0)" rx="2" ry="2" />
<text  x="599.47" y="159.5" ></text>
</g>
<g >
<title>[[kernel.kallsyms]] (10,101,010 samples, 0.15%)</title><rect x="607.1" y="101" width="1.7" height="15.0" fill="rgb(224,213,3)" rx="2" ry="2" />
<text  x="610.07" y="111.5" ></text>
</g>
<g >
<title>kworker/1:1-eve (10,101,010 samples, 0.15%)</title><rect x="605.3" y="277" width="1.8" height="15.0" fill="rgb(215,81,26)" rx="2" ry="2" />
<text  x="608.30" y="287.5" ></text>
</g>
<g >
<title>[[kernel.kallsyms]] (20,202,020 samples, 0.30%)</title><rect x="582.3" y="181" width="3.6" height="15.0" fill="rgb(220,71,25)" rx="2" ry="2" />
<text  x="585.34" y="191.5" ></text>
</g>
<g >
<title>[[kernel.kallsyms]] (10,101,010 samples, 0.15%)</title><rect x="596.5" y="85" width="1.7" height="15.0" fill="rgb(220,160,42)" rx="2" ry="2" />
<text  x="599.47" y="95.5" ></text>
</g>
<g >
<title>[[kernel.kallsyms]] (3,010,100,980 samples, 44.61%)</title><rect x="608.8" y="197" width="526.4" height="15.0" fill="rgb(247,199,0)" rx="2" ry="2" />
<text  x="611.83" y="207.5" >[[kernel.kallsyms]]</text>
</g>
<g >
<title>__libc_read (10,101,010 samples, 0.15%)</title><rect x="607.1" y="261" width="1.7" height="15.0" fill="rgb(234,96,44)" rx="2" ry="2" />
<text  x="610.07" y="271.5" ></text>
</g>
<g >
<title>barnes (3,343,434,310 samples, 49.55%)</title><rect x="10.0" y="277" width="584.7" height="15.0" fill="rgb(242,202,48)" rx="2" ry="2" />
<text  x="13.00" y="287.5" >barnes</text>
</g>
<g >
<title>[[kernel.kallsyms]] (20,202,020 samples, 0.30%)</title><rect x="582.3" y="85" width="3.6" height="15.0" fill="rgb(213,123,14)" rx="2" ry="2" />
<text  x="585.34" y="95.5" ></text>
</g>
<g >
<title>[[kernel.kallsyms]] (10,101,010 samples, 0.15%)</title><rect x="607.1" y="165" width="1.7" height="15.0" fill="rgb(247,135,44)" rx="2" ry="2" />
<text  x="610.07" y="175.5" ></text>
</g>
<g >
<title>[[kernel.kallsyms]] (10,101,010 samples, 0.15%)</title><rect x="594.7" y="149" width="1.8" height="15.0" fill="rgb(208,120,18)" rx="2" ry="2" />
<text  x="597.70" y="159.5" ></text>
</g>
<g >
<title>[[kernel.kallsyms]] (10,101,010 samples, 0.15%)</title><rect x="592.9" y="101" width="1.8" height="15.0" fill="rgb(247,46,11)" rx="2" ry="2" />
<text  x="595.93" y="111.5" ></text>
</g>
<g >
<title>[[kernel.kallsyms]] (10,101,010 samples, 0.15%)</title><rect x="596.5" y="197" width="1.7" height="15.0" fill="rgb(234,86,12)" rx="2" ry="2" />
<text  x="599.47" y="207.5" ></text>
</g>
<g >
<title>[[kernel.kallsyms]] (10,101,010 samples, 0.15%)</title><rect x="607.1" y="149" width="1.7" height="15.0" fill="rgb(223,147,16)" rx="2" ry="2" />
<text  x="610.07" y="159.5" ></text>
</g>
<g >
<title>__ieee754_pow_fma (10,101,010 samples, 0.15%)</title><rect x="566.4" y="261" width="1.8" height="15.0" fill="rgb(224,92,28)" rx="2" ry="2" />
<text  x="569.44" y="271.5" ></text>
</g>
<g >
<title>[unknown] (3,181,818,150 samples, 47.16%)</title><rect x="10.0" y="261" width="556.4" height="15.0" fill="rgb(227,145,44)" rx="2" ry="2" />
<text  x="13.00" y="271.5" >[unknown]</text>
</g>
<g >
<title>[[kernel.kallsyms]] (10,101,010 samples, 0.15%)</title><rect x="596.5" y="133" width="1.7" height="15.0" fill="rgb(235,0,9)" rx="2" ry="2" />
<text  x="599.47" y="143.5" ></text>
</g>
<g >
<title>find_my_bodies (10,101,010 samples, 0.15%)</title><rect x="10.0" y="245" width="1.8" height="15.0" fill="rgb(212,12,4)" rx="2" ry="2" />
<text  x="13.00" y="255.5" ></text>
</g>
<g >
<title>swapper (3,323,232,290 samples, 49.25%)</title><rect x="608.8" y="277" width="581.2" height="15.0" fill="rgb(216,137,35)" rx="2" ry="2" />
<text  x="611.83" y="287.5" >swapper</text>
</g>
<g >
<title>[[kernel.kallsyms]] (10,101,010 samples, 0.15%)</title><rect x="605.3" y="245" width="1.8" height="15.0" fill="rgb(237,103,17)" rx="2" ry="2" />
<text  x="608.30" y="255.5" ></text>
</g>
<g >
<title>walksub (909,090,900 samples, 13.47%)</title><rect x="407.5" y="245" width="158.9" height="15.0" fill="rgb(217,154,9)" rx="2" ry="2" />
<text  x="410.46" y="255.5" >walksub</text>
</g>
<g >
<title>maketree (20,202,020 samples, 0.30%)</title><rect x="403.9" y="245" width="3.6" height="15.0" fill="rgb(230,114,25)" rx="2" ry="2" />
<text  x="406.92" y="255.5" ></text>
</g>
<g >
<title>[[kernel.kallsyms]] (10,101,010 samples, 0.15%)</title><rect x="594.7" y="245" width="1.8" height="15.0" fill="rgb(232,63,46)" rx="2" ry="2" />
<text  x="597.70" y="255.5" ></text>
</g>
<g >
<title>[[kernel.kallsyms]] (3,010,100,980 samples, 44.61%)</title><rect x="608.8" y="181" width="526.4" height="15.0" fill="rgb(249,198,32)" rx="2" ry="2" />
<text  x="611.83" y="191.5" >[[kernel.kallsyms]]</text>
</g>
<g >
<title>redis-server (10,101,010 samples, 0.15%)</title><rect x="607.1" y="277" width="1.7" height="15.0" fill="rgb(221,117,52)" rx="2" ry="2" />
<text  x="610.07" y="287.5" ></text>
</g>
<g >
<title>[unknown] (313,131,310 samples, 4.64%)</title><rect x="1135.2" y="245" width="54.8" height="15.0" fill="rgb(228,225,29)" rx="2" ry="2" />
<text  x="1138.24" y="255.5" >[unkn..</text>
</g>
<g >
<title>[[kernel.kallsyms]] (10,101,010 samples, 0.15%)</title><rect x="596.5" y="181" width="1.7" height="15.0" fill="rgb(213,195,45)" rx="2" ry="2" />
<text  x="599.47" y="191.5" ></text>
</g>
<g >
<title>[[kernel.kallsyms]] (10,101,010 samples, 0.15%)</title><rect x="607.1" y="85" width="1.7" height="15.0" fill="rgb(210,38,9)" rx="2" ry="2" />
<text  x="610.07" y="95.5" ></text>
</g>
<g >
<title>hackcofm (20,202,020 samples, 0.30%)</title><rect x="568.2" y="261" width="3.5" height="15.0" fill="rgb(234,175,3)" rx="2" ry="2" />
<text  x="571.20" y="271.5" ></text>
</g>
<g >
<title>[[kernel.kallsyms]] (10,101,010 samples, 0.15%)</title><rect x="592.9" y="117" width="1.8" height="15.0" fill="rgb(224,63,51)" rx="2" ry="2" />
<text  x="595.93" y="127.5" ></text>
</g>
<g >
<title>[[kernel.kallsyms]] (10,101,010 samples, 0.15%)</title><rect x="594.7" y="117" width="1.8" height="15.0" fill="rgb(217,66,14)" rx="2" ry="2" />
<text  x="597.70" y="127.5" ></text>
</g>
<g >
<title>[[kernel.kallsyms]] (20,202,020 samples, 0.30%)</title><rect x="582.3" y="229" width="3.6" height="15.0" fill="rgb(226,165,40)" rx="2" ry="2" />
<text  x="585.34" y="239.5" ></text>
</g>
<g >
<title>[[kernel.kallsyms]] (20,202,020 samples, 0.30%)</title><rect x="582.3" y="245" width="3.6" height="15.0" fill="rgb(243,159,49)" rx="2" ry="2" />
<text  x="585.34" y="255.5" ></text>
</g>
<g >
<title>[[kernel.kallsyms]] (313,131,310 samples, 4.64%)</title><rect x="1135.2" y="117" width="54.8" height="15.0" fill="rgb(246,23,16)" rx="2" ry="2" />
<text  x="1138.24" y="127.5" >[[ker..</text>
</g>
<g >
<title>[[kernel.kallsyms]] (10,101,010 samples, 0.15%)</title><rect x="607.1" y="229" width="1.7" height="15.0" fill="rgb(222,23,14)" rx="2" ry="2" />
<text  x="610.07" y="239.5" ></text>
</g>
<g >
<title>[bash] (10,101,010 samples, 0.15%)</title><rect x="594.7" y="261" width="1.8" height="15.0" fill="rgb(224,151,19)" rx="2" ry="2" />
<text  x="597.70" y="271.5" ></text>
</g>
<g >
<title>[[kernel.kallsyms]] (10,101,010 samples, 0.15%)</title><rect x="605.3" y="213" width="1.8" height="15.0" fill="rgb(231,214,45)" rx="2" ry="2" />
<text  x="608.30" y="223.5" ></text>
</g>
<g >
<title>testdata (20,202,020 samples, 0.30%)</title><rect x="591.2" y="261" width="3.5" height="15.0" fill="rgb(250,190,26)" rx="2" ry="2" />
<text  x="594.17" y="271.5" ></text>
</g>
<g >
<title>[[kernel.kallsyms]] (3,010,100,980 samples, 44.61%)</title><rect x="608.8" y="165" width="526.4" height="15.0" fill="rgb(240,138,8)" rx="2" ry="2" />
<text  x="611.83" y="175.5" >[[kernel.kallsyms]]</text>
</g>
<g >
<title>[[kernel.kallsyms]] (10,101,010 samples, 0.15%)</title><rect x="605.3" y="197" width="1.8" height="15.0" fill="rgb(211,33,24)" rx="2" ry="2" />
<text  x="608.30" y="207.5" ></text>
</g>
<g >
<title>[[kernel.kallsyms]] (10,101,010 samples, 0.15%)</title><rect x="592.9" y="229" width="1.8" height="15.0" fill="rgb(230,116,30)" rx="2" ry="2" />
<text  x="595.93" y="239.5" ></text>
</g>
<g >
<title>[[kernel.kallsyms]] (10,101,010 samples, 0.15%)</title><rect x="607.1" y="133" width="1.7" height="15.0" fill="rgb(249,115,42)" rx="2" ry="2" />
<text  x="610.07" y="143.5" ></text>
</g>
<g >
<title>[[kernel.kallsyms]] (3,323,232,290 samples, 49.25%)</title><rect x="608.8" y="261" width="581.2" height="15.0" fill="rgb(211,112,45)" rx="2" ry="2" />
<text  x="611.83" y="271.5" >[[kernel.kallsyms]]</text>
</g>
<g >
<title>[[kernel.kallsyms]] (10,101,010 samples, 0.15%)</title><rect x="594.7" y="229" width="1.8" height="15.0" fill="rgb(242,175,21)" rx="2" ry="2" />
<text  x="597.70" y="239.5" ></text>
</g>
<g >
<title>[[kernel.kallsyms]] (10,101,010 samples, 0.15%)</title><rect x="607.1" y="213" width="1.7" height="15.0" fill="rgb(245,30,38)" rx="2" ry="2" />
<text  x="610.07" y="223.5" ></text>
</g>
<g >
<title>[[kernel.kallsyms]] (10,101,010 samples, 0.15%)</title><rect x="596.5" y="101" width="1.7" height="15.0" fill="rgb(233,118,24)" rx="2" ry="2" />
<text  x="599.47" y="111.5" ></text>
</g>
<g >
<title>__strcmp_avx2 (10,101,010 samples, 0.15%)</title><rect x="601.8" y="245" width="1.7" height="15.0" fill="rgb(248,130,44)" rx="2" ry="2" />
<text  x="604.77" y="255.5" ></text>
</g>
<g >
<title>[[kernel.kallsyms]] (10,101,010 samples, 0.15%)</title><rect x="607.1" y="117" width="1.7" height="15.0" fill="rgb(231,62,10)" rx="2" ry="2" />
<text  x="610.07" y="127.5" ></text>
</g>
<g >
<title>[[kernel.kallsyms]] (20,202,020 samples, 0.30%)</title><rect x="582.3" y="197" width="3.6" height="15.0" fill="rgb(233,102,40)" rx="2" ry="2" />
<text  x="585.34" y="207.5" ></text>
</g>
<g >
<title>[[kernel.kallsyms]] (20,202,020 samples, 0.30%)</title><rect x="582.3" y="165" width="3.6" height="15.0" fill="rgb(249,39,3)" rx="2" ry="2" />
<text  x="585.34" y="175.5" ></text>
</g>
<g >
<title>[[kernel.kallsyms]] (10,101,010 samples, 0.15%)</title><rect x="596.5" y="117" width="1.7" height="15.0" fill="rgb(214,15,19)" rx="2" ry="2" />
<text  x="599.47" y="127.5" ></text>
</g>
<g >
<title>[unknown] (313,131,310 samples, 4.64%)</title><rect x="1135.2" y="197" width="54.8" height="15.0" fill="rgb(227,146,9)" rx="2" ry="2" />
<text  x="1138.24" y="207.5" >[unkn..</text>
</g>
<g >
<title>_int_malloc (10,101,010 samples, 0.15%)</title><rect x="600.0" y="261" width="1.8" height="15.0" fill="rgb(216,120,35)" rx="2" ry="2" />
<text  x="603.00" y="271.5" ></text>
</g>
<g >
<title>[[kernel.kallsyms]] (10,101,010 samples, 0.15%)</title><rect x="592.9" y="85" width="1.8" height="15.0" fill="rgb(236,138,1)" rx="2" ry="2" />
<text  x="595.93" y="95.5" ></text>
</g>
<g >
<title>[unknown] (313,131,310 samples, 4.64%)</title><rect x="1135.2" y="213" width="54.8" height="15.0" fill="rgb(207,55,54)" rx="2" ry="2" />
<text  x="1138.24" y="223.5" >[unkn..</text>
</g>
<g >
<title>[[kernel.kallsyms]] (20,202,020 samples, 0.30%)</title><rect x="582.3" y="101" width="3.6" height="15.0" fill="rgb(228,96,44)" rx="2" ry="2" />
<text  x="585.34" y="111.5" ></text>
</g>
<g >
<title>[[kernel.kallsyms]] (10,101,010 samples, 0.15%)</title><rect x="592.9" y="245" width="1.8" height="15.0" fill="rgb(227,54,32)" rx="2" ry="2" />
<text  x="595.93" y="255.5" ></text>
</g>
<g >
<title>_int_free (10,101,010 samples, 0.15%)</title><rect x="598.2" y="245" width="1.8" height="15.0" fill="rgb(209,105,49)" rx="2" ry="2" />
<text  x="601.23" y="255.5" ></text>
</g>
<g >
<title>[unknown] (313,131,310 samples, 4.64%)</title><rect x="1135.2" y="229" width="54.8" height="15.0" fill="rgb(206,170,13)" rx="2" ry="2" />
<text  x="1138.24" y="239.5" >[unkn..</text>
</g>
<g >
<title>[[kernel.kallsyms]] (10,101,010 samples, 0.15%)</title><rect x="605.3" y="229" width="1.8" height="15.0" fill="rgb(253,139,30)" rx="2" ry="2" />
<text  x="608.30" y="239.5" ></text>
</g>
<g >
<title>[[kernel.kallsyms]] (20,202,020 samples, 0.30%)</title><rect x="582.3" y="213" width="3.6" height="15.0" fill="rgb(248,188,32)" rx="2" ry="2" />
<text  x="585.34" y="223.5" ></text>
</g>
<g >
<title>[[kernel.kallsyms]] (10,101,010 samples, 0.15%)</title><rect x="594.7" y="197" width="1.8" height="15.0" fill="rgb(218,187,20)" rx="2" ry="2" />
<text  x="597.70" y="207.5" ></text>
</g>
<g >
<title>[unknown] (10,101,010 samples, 0.15%)</title><rect x="601.8" y="261" width="1.7" height="15.0" fill="rgb(237,183,3)" rx="2" ry="2" />
<text  x="604.77" y="271.5" ></text>
</g>
<g >
<title>[[kernel.kallsyms]] (20,202,020 samples, 0.30%)</title><rect x="582.3" y="133" width="3.6" height="15.0" fill="rgb(249,4,14)" rx="2" ry="2" />
<text  x="585.34" y="143.5" ></text>
</g>
<g >
<title>[[kernel.kallsyms]] (313,131,310 samples, 4.64%)</title><rect x="1135.2" y="149" width="54.8" height="15.0" fill="rgb(213,153,22)" rx="2" ry="2" />
<text  x="1138.24" y="159.5" >[[ker..</text>
</g>
<g >
<title>[[kernel.kallsyms]] (313,131,310 samples, 4.64%)</title><rect x="1135.2" y="133" width="54.8" height="15.0" fill="rgb(231,50,0)" rx="2" ry="2" />
<text  x="1138.24" y="143.5" >[[ker..</text>
</g>
<g >
<title>stepsystem (30,303,030 samples, 0.45%)</title><rect x="585.9" y="261" width="5.3" height="15.0" fill="rgb(230,70,41)" rx="2" ry="2" />
<text  x="588.87" y="271.5" ></text>
</g>
<g >
<title>loadtree (60,606,060 samples, 0.90%)</title><rect x="571.7" y="261" width="10.6" height="15.0" fill="rgb(240,153,22)" rx="2" ry="2" />
<text  x="574.74" y="271.5" ></text>
</g>
<g >
<title>[[kernel.kallsyms]] (20,202,020 samples, 0.30%)</title><rect x="582.3" y="149" width="3.6" height="15.0" fill="rgb(245,12,41)" rx="2" ry="2" />
<text  x="585.34" y="159.5" ></text>
</g>
<g >
<title>[[kernel.kallsyms]] (10,101,010 samples, 0.15%)</title><rect x="596.5" y="229" width="1.7" height="15.0" fill="rgb(224,81,24)" rx="2" ry="2" />
<text  x="599.47" y="239.5" ></text>
</g>
<g >
<title>gravsub (2,242,424,220 samples, 33.23%)</title><rect x="11.8" y="245" width="392.1" height="15.0" fill="rgb(237,91,33)" rx="2" ry="2" />
<text  x="14.77" y="255.5" >gravsub</text>
</g>
<g >
<title>[unknown] (20,202,020 samples, 0.30%)</title><rect x="596.5" y="261" width="3.5" height="15.0" fill="rgb(249,203,40)" rx="2" ry="2" />
<text  x="599.47" y="271.5" ></text>
</g>
<g >
<title>[[kernel.kallsyms]] (10,101,010 samples, 0.15%)</title><rect x="607.1" y="245" width="1.7" height="15.0" fill="rgb(220,175,37)" rx="2" ry="2" />
<text  x="610.07" y="255.5" ></text>
</g>
<g >
<title>[[kernel.kallsyms]] (313,131,310 samples, 4.64%)</title><rect x="1135.2" y="165" width="54.8" height="15.0" fill="rgb(241,100,23)" rx="2" ry="2" />
<text  x="1138.24" y="175.5" >[[ker..</text>
</g>
<g >
<title>[[kernel.kallsyms]] (3,010,100,980 samples, 44.61%)</title><rect x="608.8" y="245" width="526.4" height="15.0" fill="rgb(221,52,46)" rx="2" ry="2" />
<text  x="611.83" y="255.5" >[[kernel.kallsyms]]</text>
</g>
<g >
<title>[[kernel.kallsyms]] (10,101,010 samples, 0.15%)</title><rect x="596.5" y="213" width="1.7" height="15.0" fill="rgb(244,188,1)" rx="2" ry="2" />
<text  x="599.47" y="223.5" ></text>
</g>
<g >
<title>[[kernel.kallsyms]] (10,101,010 samples, 0.15%)</title><rect x="594.7" y="181" width="1.8" height="15.0" fill="rgb(219,181,22)" rx="2" ry="2" />
<text  x="597.70" y="191.5" ></text>
</g>
<g >
<title>[[kernel.kallsyms]] (20,202,020 samples, 0.30%)</title><rect x="582.3" y="117" width="3.6" height="15.0" fill="rgb(210,169,46)" rx="2" ry="2" />
<text  x="585.34" y="127.5" ></text>
</g>
<g >
<title>[[kernel.kallsyms]] (10,101,010 samples, 0.15%)</title><rect x="594.7" y="133" width="1.8" height="15.0" fill="rgb(208,2,43)" rx="2" ry="2" />
<text  x="597.70" y="143.5" ></text>
</g>
<g >
<title>bench.sh (40,404,040 samples, 0.60%)</title><rect x="594.7" y="277" width="7.1" height="15.0" fill="rgb(221,185,30)" rx="2" ry="2" />
<text  x="597.70" y="287.5" ></text>
</g>
<g >
<title>[[kernel.kallsyms]] (10,101,010 samples, 0.15%)</title><rect x="607.1" y="197" width="1.7" height="15.0" fill="rgb(205,26,32)" rx="2" ry="2" />
<text  x="610.07" y="207.5" ></text>
</g>
<g >
<title>[[kernel.kallsyms]] (3,010,100,980 samples, 44.61%)</title><rect x="608.8" y="229" width="526.4" height="15.0" fill="rgb(251,117,18)" rx="2" ry="2" />
<text  x="611.83" y="239.5" >[[kernel.kallsyms]]</text>
</g>
<g >
<title>[[kernel.kallsyms]] (10,101,010 samples, 0.15%)</title><rect x="596.5" y="165" width="1.7" height="15.0" fill="rgb(232,218,34)" rx="2" ry="2" />
<text  x="599.47" y="175.5" ></text>
</g>
<g >
<title>[[kernel.kallsyms]] (10,101,010 samples, 0.15%)</title><rect x="592.9" y="133" width="1.8" height="15.0" fill="rgb(205,226,5)" rx="2" ry="2" />
<text  x="595.93" y="143.5" ></text>
</g>
<g >
<title>dirname (10,101,010 samples, 0.15%)</title><rect x="601.8" y="277" width="1.7" height="15.0" fill="rgb(228,219,15)" rx="2" ry="2" />
<text  x="604.77" y="287.5" ></text>
</g>
<g >
<title>[[kernel.kallsyms]] (10,101,010 samples, 0.15%)</title><rect x="594.7" y="213" width="1.8" height="15.0" fill="rgb(224,218,49)" rx="2" ry="2" />
<text  x="597.70" y="223.5" ></text>
</g>
<g >
<title>__GI___execve (10,101,010 samples, 0.15%)</title><rect x="596.5" y="245" width="1.7" height="15.0" fill="rgb(236,121,39)" rx="2" ry="2" />
<text  x="599.47" y="255.5" ></text>
</g>
<g >
<title>[[kernel.kallsyms]] (10,101,010 samples, 0.15%)</title><rect x="592.9" y="149" width="1.8" height="15.0" fill="rgb(210,61,28)" rx="2" ry="2" />
<text  x="595.93" y="159.5" ></text>
</g>
<g >
<title>[[kernel.kallsyms]] (10,101,010 samples, 0.15%)</title><rect x="607.1" y="53" width="1.7" height="15.0" fill="rgb(223,7,40)" rx="2" ry="2" />
<text  x="610.07" y="63.5" ></text>
</g>
<g >
<title>[[kernel.kallsyms]] (10,101,010 samples, 0.15%)</title><rect x="592.9" y="181" width="1.8" height="15.0" fill="rgb(223,136,53)" rx="2" ry="2" />
<text  x="595.93" y="191.5" ></text>
</g>
</g>
</svg>
