<?xml version="1.0" standalone="no"?>
<!DOCTYPE svg PUBLIC "-//W3C//DTD SVG 1.1//EN" "http://www.w3.org/Graphics/SVG/1.1/DTD/svg11.dtd">
<svg version="1.1" width="1200" height="310" onload="init(evt)" viewBox="0 0 1200 310" xmlns="http://www.w3.org/2000/svg" xmlns:xlink="http://www.w3.org/1999/xlink">
<!-- Flame graph stack visualization. See https://github.com/brendangregg/FlameGraph for latest version, and http://www.brendangregg.com/flamegraphs.html for examples. -->
<!-- NOTES:  -->
<defs>
	<linearGradient id="background" y1="0" y2="1" x1="0" x2="0" >
		<stop stop-color="#eeeeee" offset="5%" />
		<stop stop-color="#eeeeb0" offset="95%" />
	</linearGradient>
</defs>
<style type="text/css">
	text { font-family:Verdana; font-size:12px; fill:rgb(0,0,0); }
	#search, #ignorecase { opacity:0.1; cursor:pointer; }
	#search:hover, #search.show, #ignorecase:hover, #ignorecase.show { opacity:1; }
	#subtitle { text-anchor:middle; font-color:rgb(160,160,160); }
	#title { text-anchor:middle; font-size:17px}
	#unzoom { cursor:pointer; }
	#frames > *:hover { stroke:black; stroke-width:0.5; cursor:pointer; }
	.hide { display:none; }
	.parent { opacity:0.5; }
</style>
<script type="text/ecmascript">
<![CDATA[
	"use strict";
	var details, searchbtn, unzoombtn, matchedtxt, svg, searching, currentSearchTerm, ignorecase, ignorecaseBtn;
	function init(evt) {
		details = document.getElementById("details").firstChild;
		searchbtn = document.getElementById("search");
		ignorecaseBtn = document.getElementById("ignorecase");
		unzoombtn = document.getElementById("unzoom");
		matchedtxt = document.getElementById("matched");
		svg = document.getElementsByTagName("svg")[0];
		searching = 0;
		currentSearchTerm = null;

		// use GET parameters to restore a flamegraphs state.
		var params = get_params();
		if (params.x && params.y)
			zoom(find_group(document.querySelector('[x="' + params.x + '"][y="' + params.y + '"]')));
                if (params.s) search(params.s);
	}

	// event listeners
	window.addEventListener("click", function(e) {
		var target = find_group(e.target);
		if (target) {
			if (target.nodeName == "a") {
				if (e.ctrlKey === false) return;
				e.preventDefault();
			}
			if (target.classList.contains("parent")) unzoom(true);
			zoom(target);
			if (!document.querySelector('.parent')) {
				// we have basically done a clearzoom so clear the url
				var params = get_params();
				if (params.x) delete params.x;
				if (params.y) delete params.y;
				history.replaceState(null, null, parse_params(params));
				unzoombtn.classList.add("hide");
				return;
			}

			// set parameters for zoom state
			var el = target.querySelector("rect");
			if (el && el.attributes && el.attributes.y && el.attributes._orig_x) {
				var params = get_params()
				params.x = el.attributes._orig_x.value;
				params.y = el.attributes.y.value;
				history.replaceState(null, null, parse_params(params));
			}
		}
		else if (e.target.id == "unzoom") clearzoom();
		else if (e.target.id == "search") search_prompt();
		else if (e.target.id == "ignorecase") toggle_ignorecase();
	}, false)

	// mouse-over for info
	// show
	window.addEventListener("mouseover", function(e) {
		var target = find_group(e.target);
		if (target) details.nodeValue = "Function: " + g_to_text(target);
	}, false)

	// clear
	window.addEventListener("mouseout", function(e) {
		var target = find_group(e.target);
		if (target) details.nodeValue = ' ';
	}, false)

	// ctrl-F for search
	// ctrl-I to toggle case-sensitive search
	window.addEventListener("keydown",function (e) {
		if (e.keyCode === 114 || (e.ctrlKey && e.keyCode === 70)) {
			e.preventDefault();
			search_prompt();
		}
		else if (e.ctrlKey && e.keyCode === 73) {
			e.preventDefault();
			toggle_ignorecase();
		}
	}, false)

	// functions
	function get_params() {
		var params = {};
		var paramsarr = window.location.search.substr(1).split('&');
		for (var i = 0; i < paramsarr.length; ++i) {
			var tmp = paramsarr[i].split("=");
			if (!tmp[0] || !tmp[1]) continue;
			params[tmp[0]]  = decodeURIComponent(tmp[1]);
		}
		return params;
	}
	function parse_params(params) {
		var uri = "?";
		for (var key in params) {
			uri += key + '=' + encodeURIComponent(params[key]) + '&';
		}
		if (uri.slice(-1) == "&")
			uri = uri.substring(0, uri.length - 1);
		if (uri == '?')
			uri = window.location.href.split('?')[0];
		return uri;
	}
	function find_child(node, selector) {
		var children = node.querySelectorAll(selector);
		if (children.length) return children[0];
	}
	function find_group(node) {
		var parent = node.parentElement;
		if (!parent) return;
		if (parent.id == "frames") return node;
		return find_group(parent);
	}
	function orig_save(e, attr, val) {
		if (e.attributes["_orig_" + attr] != undefined) return;
		if (e.attributes[attr] == undefined) return;
		if (val == undefined) val = e.attributes[attr].value;
		e.setAttribute("_orig_" + attr, val);
	}
	function orig_load(e, attr) {
		if (e.attributes["_orig_"+attr] == undefined) return;
		e.attributes[attr].value = e.attributes["_orig_" + attr].value;
		e.removeAttribute("_orig_"+attr);
	}
	function g_to_text(e) {
		var text = find_child(e, "title").firstChild.nodeValue;
		return (text)
	}
	function g_to_func(e) {
		var func = g_to_text(e);
		// if there's any manipulation we want to do to the function
		// name before it's searched, do it here before returning.
		return (func);
	}
	function update_text(e) {
		var r = find_child(e, "rect");
		var t = find_child(e, "text");
		var w = parseFloat(r.attributes.width.value) -3;
		var txt = find_child(e, "title").textContent.replace(/\([^(]*\)$/,"");
		t.attributes.x.value = parseFloat(r.attributes.x.value) + 3;

		// Smaller than this size won't fit anything
		if (w < 2 * 12 * 0.59) {
			t.textContent = "";
			return;
		}

		t.textContent = txt;
		var sl = t.getSubStringLength(0, txt.length);
		// check if only whitespace or if we can fit the entire string into width w
		if (/^ *$/.test(txt) || sl < w)
			return;

		// this isn't perfect, but gives a good starting point
		// and avoids calling getSubStringLength too often
		var start = Math.floor((w/sl) * txt.length);
		for (var x = start; x > 0; x = x-2) {
			if (t.getSubStringLength(0, x + 2) <= w) {
				t.textContent = txt.substring(0, x) + "..";
				return;
			}
		}
		t.textContent = "";
	}

	// zoom
	function zoom_reset(e) {
		if (e.attributes != undefined) {
			orig_load(e, "x");
			orig_load(e, "width");
		}
		if (e.childNodes == undefined) return;
		for (var i = 0, c = e.childNodes; i < c.length; i++) {
			zoom_reset(c[i]);
		}
	}
	function zoom_child(e, x, ratio) {
		if (e.attributes != undefined) {
			if (e.attributes.x != undefined) {
				orig_save(e, "x");
				e.attributes.x.value = (parseFloat(e.attributes.x.value) - x - 10) * ratio + 10;
				if (e.tagName == "text")
					e.attributes.x.value = find_child(e.parentNode, "rect[x]").attributes.x.value + 3;
			}
			if (e.attributes.width != undefined) {
				orig_save(e, "width");
				e.attributes.width.value = parseFloat(e.attributes.width.value) * ratio;
			}
		}

		if (e.childNodes == undefined) return;
		for (var i = 0, c = e.childNodes; i < c.length; i++) {
			zoom_child(c[i], x - 10, ratio);
		}
	}
	function zoom_parent(e) {
		if (e.attributes) {
			if (e.attributes.x != undefined) {
				orig_save(e, "x");
				e.attributes.x.value = 10;
			}
			if (e.attributes.width != undefined) {
				orig_save(e, "width");
				e.attributes.width.value = parseInt(svg.width.baseVal.value) - (10 * 2);
			}
		}
		if (e.childNodes == undefined) return;
		for (var i = 0, c = e.childNodes; i < c.length; i++) {
			zoom_parent(c[i]);
		}
	}
	function zoom(node) {
		var attr = find_child(node, "rect").attributes;
		var width = parseFloat(attr.width.value);
		var xmin = parseFloat(attr.x.value);
		var xmax = parseFloat(xmin + width);
		var ymin = parseFloat(attr.y.value);
		var ratio = (svg.width.baseVal.value - 2 * 10) / width;

		// XXX: Workaround for JavaScript float issues (fix me)
		var fudge = 0.0001;

		unzoombtn.classList.remove("hide");

		var el = document.getElementById("frames").children;
		for (var i = 0; i < el.length; i++) {
			var e = el[i];
			var a = find_child(e, "rect").attributes;
			var ex = parseFloat(a.x.value);
			var ew = parseFloat(a.width.value);
			var upstack;
			// Is it an ancestor
			if (0 == 0) {
				upstack = parseFloat(a.y.value) > ymin;
			} else {
				upstack = parseFloat(a.y.value) < ymin;
			}
			if (upstack) {
				// Direct ancestor
				if (ex <= xmin && (ex+ew+fudge) >= xmax) {
					e.classList.add("parent");
					zoom_parent(e);
					update_text(e);
				}
				// not in current path
				else
					e.classList.add("hide");
			}
			// Children maybe
			else {
				// no common path
				if (ex < xmin || ex + fudge >= xmax) {
					e.classList.add("hide");
				}
				else {
					zoom_child(e, xmin, ratio);
					update_text(e);
				}
			}
		}
		search();
	}
	function unzoom(dont_update_text) {
		unzoombtn.classList.add("hide");
		var el = document.getElementById("frames").children;
		for(var i = 0; i < el.length; i++) {
			el[i].classList.remove("parent");
			el[i].classList.remove("hide");
			zoom_reset(el[i]);
			if(!dont_update_text) update_text(el[i]);
		}
		search();
	}
	function clearzoom() {
		unzoom();

		// remove zoom state
		var params = get_params();
		if (params.x) delete params.x;
		if (params.y) delete params.y;
		history.replaceState(null, null, parse_params(params));
	}

	// search
	function toggle_ignorecase() {
		ignorecase = !ignorecase;
		if (ignorecase) {
			ignorecaseBtn.classList.add("show");
		} else {
			ignorecaseBtn.classList.remove("show");
		}
		reset_search();
		search();
	}
	function reset_search() {
		var el = document.querySelectorAll("#frames rect");
		for (var i = 0; i < el.length; i++) {
			orig_load(el[i], "fill")
		}
		var params = get_params();
		delete params.s;
		history.replaceState(null, null, parse_params(params));
	}
	function search_prompt() {
		if (!searching) {
			var term = prompt("Enter a search term (regexp " +
			    "allowed, eg: ^ext4_)"
			    + (ignorecase ? ", ignoring case" : "")
			    + "\nPress Ctrl-i to toggle case sensitivity", "");
			if (term != null) search(term);
		} else {
			reset_search();
			searching = 0;
			currentSearchTerm = null;
			searchbtn.classList.remove("show");
			searchbtn.firstChild.nodeValue = "Search"
			matchedtxt.classList.add("hide");
			matchedtxt.firstChild.nodeValue = ""
		}
	}
	function search(term) {
		if (term) currentSearchTerm = term;

		var re = new RegExp(currentSearchTerm, ignorecase ? 'i' : '');
		var el = document.getElementById("frames").children;
		var matches = new Object();
		var maxwidth = 0;
		for (var i = 0; i < el.length; i++) {
			var e = el[i];
			var func = g_to_func(e);
			var rect = find_child(e, "rect");
			if (func == null || rect == null)
				continue;

			// Save max width. Only works as we have a root frame
			var w = parseFloat(rect.attributes.width.value);
			if (w > maxwidth)
				maxwidth = w;

			if (func.match(re)) {
				// highlight
				var x = parseFloat(rect.attributes.x.value);
				orig_save(rect, "fill");
				rect.attributes.fill.value = "rgb(230,0,230)";

				// remember matches
				if (matches[x] == undefined) {
					matches[x] = w;
				} else {
					if (w > matches[x]) {
						// overwrite with parent
						matches[x] = w;
					}
				}
				searching = 1;
			}
		}
		if (!searching)
			return;
		var params = get_params();
		params.s = currentSearchTerm;
		history.replaceState(null, null, parse_params(params));

		searchbtn.classList.add("show");
		searchbtn.firstChild.nodeValue = "Reset Search";

		// calculate percent matched, excluding vertical overlap
		var count = 0;
		var lastx = -1;
		var lastw = 0;
		var keys = Array();
		for (k in matches) {
			if (matches.hasOwnProperty(k))
				keys.push(k);
		}
		// sort the matched frames by their x location
		// ascending, then width descending
		keys.sort(function(a, b){
			return a - b;
		});
		// Step through frames saving only the biggest bottom-up frames
		// thanks to the sort order. This relies on the tree property
		// where children are always smaller than their parents.
		var fudge = 0.0001;	// JavaScript floating point
		for (var k in keys) {
			var x = parseFloat(keys[k]);
			var w = matches[keys[k]];
			if (x >= lastx + lastw - fudge) {
				count += w;
				lastx = x;
				lastw = w;
			}
		}
		// display matched percent
		matchedtxt.classList.remove("hide");
		var pct = 100 * count / maxwidth;
		if (pct != 100) pct = pct.toFixed(1)
		matchedtxt.firstChild.nodeValue = "Matched: " + pct + "%";
	}
]]>
</script>
<rect x="0.0" y="0" width="1200.0" height="310.0" fill="url(#background)"  />
<text id="title" x="600.00" y="24" >Flame Graph</text>
<text id="details" x="10.00" y="293" > </text>
<text id="unzoom" x="10.00" y="24" class="hide">Reset Zoom</text>
<text id="search" x="1090.00" y="24" >Search</text>
<text id="ignorecase" x="1174.00" y="24" >ic</text>
<text id="matched" x="1090.00" y="293" > </text>
<g id="frames">
<g >
<title>[[kernel.kallsyms]] (10,101,010 samples, 0.15%)</title><rect x="596.4" y="181" width="1.8" height="15.0" fill="rgb(209,114,35)" rx="2" ry="2" />
<text  x="599.41" y="191.5" ></text>
</g>
<g >
<title>[[kernel.kallsyms]] (525,252,520 samples, 7.90%)</title><rect x="1096.7" y="117" width="93.3" height="15.0" fill="rgb(246,168,40)" rx="2" ry="2" />
<text  x="1099.75" y="127.5" >[[kernel.ka..</text>
</g>
<g >
<title>[[kernel.kallsyms]] (525,252,520 samples, 7.90%)</title><rect x="1096.7" y="149" width="93.3" height="15.0" fill="rgb(234,114,10)" rx="2" ry="2" />
<text  x="1099.75" y="159.5" >[[kernel.ka..</text>
</g>
<g >
<title>[[kernel.kallsyms]] (10,101,010 samples, 0.15%)</title><rect x="598.2" y="149" width="1.8" height="15.0" fill="rgb(234,57,42)" rx="2" ry="2" />
<text  x="601.21" y="159.5" ></text>
</g>
<g >
<title>[[kernel.kallsyms]] (10,101,010 samples, 0.15%)</title><rect x="594.6" y="197" width="1.8" height="15.0" fill="rgb(213,81,43)" rx="2" ry="2" />
<text  x="597.62" y="207.5" ></text>
</g>
<g >
<title>[[kernel.kallsyms]] (10,101,010 samples, 0.15%)</title><rect x="585.7" y="213" width="1.7" height="15.0" fill="rgb(221,114,7)" rx="2" ry="2" />
<text  x="588.65" y="223.5" ></text>
</g>
<g >
<title>[[kernel.kallsyms]] (10,101,010 samples, 0.15%)</title><rect x="596.4" y="149" width="1.8" height="15.0" fill="rgb(223,91,48)" rx="2" ry="2" />
<text  x="599.41" y="159.5" ></text>
</g>
<g >
<title>[[kernel.kallsyms]] (2,777,777,750 samples, 41.79%)</title><rect x="603.6" y="165" width="493.1" height="15.0" fill="rgb(208,106,28)" rx="2" ry="2" />
<text  x="606.59" y="175.5" >[[kernel.kallsyms]]</text>
</g>
<g >
<title>_PyEval_EvalFrameDefault (10,101,010 samples, 0.15%)</title><rect x="600.0" y="213" width="1.8" height="15.0" fill="rgb(252,24,50)" rx="2" ry="2" />
<text  x="603.00" y="223.5" ></text>
</g>
<g >
<title>_int_malloc (10,101,010 samples, 0.15%)</title><rect x="596.4" y="229" width="1.8" height="15.0" fill="rgb(214,213,24)" rx="2" ry="2" />
<text  x="599.41" y="239.5" ></text>
</g>
<g >
<title>[[kernel.kallsyms]] (10,101,010 samples, 0.15%)</title><rect x="400.9" y="165" width="1.8" height="15.0" fill="rgb(232,122,25)" rx="2" ry="2" />
<text  x="403.94" y="175.5" ></text>
</g>
<g >
<title>[[kernel.kallsyms]] (525,252,520 samples, 7.90%)</title><rect x="1096.7" y="85" width="93.3" height="15.0" fill="rgb(213,122,49)" rx="2" ry="2" />
<text  x="1099.75" y="95.5" >[[kernel.ka..</text>
</g>
<g >
<title>makeleaf (10,101,010 samples, 0.15%)</title><rect x="585.7" y="229" width="1.7" height="15.0" fill="rgb(209,44,0)" rx="2" ry="2" />
<text  x="588.65" y="239.5" ></text>
</g>
<g >
<title>[unknown] (525,252,520 samples, 7.90%)</title><rect x="1096.7" y="181" width="93.3" height="15.0" fill="rgb(215,44,37)" rx="2" ry="2" />
<text  x="1099.75" y="191.5" >[unknown]</text>
</g>
<g >
<title>[[kernel.kallsyms]] (10,101,010 samples, 0.15%)</title><rect x="594.6" y="165" width="1.8" height="15.0" fill="rgb(231,96,5)" rx="2" ry="2" />
<text  x="597.62" y="175.5" ></text>
</g>
<g >
<title>rm (10,101,010 samples, 0.15%)</title><rect x="601.8" y="245" width="1.8" height="15.0" fill="rgb(223,209,34)" rx="2" ry="2" />
<text  x="604.79" y="255.5" ></text>
</g>
<g >
<title>[[kernel.kallsyms]] (10,101,010 samples, 0.15%)</title><rect x="598.2" y="85" width="1.8" height="15.0" fill="rgb(233,72,27)" rx="2" ry="2" />
<text  x="601.21" y="95.5" ></text>
</g>
<g >
<title>testdata (20,202,020 samples, 0.30%)</title><rect x="591.0" y="229" width="3.6" height="15.0" fill="rgb(220,185,40)" rx="2" ry="2" />
<text  x="594.03" y="239.5" ></text>
</g>
<g >
<title>loadtree (20,202,020 samples, 0.30%)</title><rect x="582.1" y="229" width="3.6" height="15.0" fill="rgb(215,90,33)" rx="2" ry="2" />
<text  x="585.07" y="239.5" ></text>
</g>
<g >
<title>[[kernel.kallsyms]] (10,101,010 samples, 0.15%)</title><rect x="596.4" y="85" width="1.8" height="15.0" fill="rgb(220,188,41)" rx="2" ry="2" />
<text  x="599.41" y="95.5" ></text>
</g>
<g >
<title>[[kernel.kallsyms]] (10,101,010 samples, 0.15%)</title><rect x="601.8" y="197" width="1.8" height="15.0" fill="rgb(252,102,29)" rx="2" ry="2" />
<text  x="604.79" y="207.5" ></text>
</g>
<g >
<title>[[kernel.kallsyms]] (10,101,010 samples, 0.15%)</title><rect x="585.7" y="53" width="1.7" height="15.0" fill="rgb(210,45,4)" rx="2" ry="2" />
<text  x="588.65" y="63.5" ></text>
</g>
<g >
<title>[[kernel.kallsyms]] (10,101,010 samples, 0.15%)</title><rect x="601.8" y="101" width="1.8" height="15.0" fill="rgb(246,75,0)" rx="2" ry="2" />
<text  x="604.79" y="111.5" ></text>
</g>
<g >
<title>[[kernel.kallsyms]] (10,101,010 samples, 0.15%)</title><rect x="1095.0" y="69" width="1.7" height="15.0" fill="rgb(225,105,48)" rx="2" ry="2" />
<text  x="1097.95" y="79.5" ></text>
</g>
<g >
<title>[[kernel.kallsyms]] (10,101,010 samples, 0.15%)</title><rect x="594.6" y="69" width="1.8" height="15.0" fill="rgb(235,202,33)" rx="2" ry="2" />
<text  x="597.62" y="79.5" ></text>
</g>
<g >
<title>[[kernel.kallsyms]] (10,101,010 samples, 0.15%)</title><rect x="601.8" y="181" width="1.8" height="15.0" fill="rgb(252,70,18)" rx="2" ry="2" />
<text  x="604.79" y="191.5" ></text>
</g>
<g >
<title>[[kernel.kallsyms]] (2,777,777,750 samples, 41.79%)</title><rect x="603.6" y="181" width="493.1" height="15.0" fill="rgb(205,75,46)" rx="2" ry="2" />
<text  x="606.59" y="191.5" >[[kernel.kallsyms]]</text>
</g>
<g >
<title>[unknown] (525,252,520 samples, 7.90%)</title><rect x="1096.7" y="197" width="93.3" height="15.0" fill="rgb(214,100,29)" rx="2" ry="2" />
<text  x="1099.75" y="207.5" >[unknown]</text>
</g>
<g >
<title>bench.sh (20,202,020 samples, 0.30%)</title><rect x="594.6" y="245" width="3.6" height="15.0" fill="rgb(241,48,22)" rx="2" ry="2" />
<text  x="597.62" y="255.5" ></text>
</g>
<g >
<title>stepsystem (20,202,020 samples, 0.30%)</title><rect x="587.4" y="229" width="3.6" height="15.0" fill="rgb(254,71,30)" rx="2" ry="2" />
<text  x="590.45" y="239.5" ></text>
</g>
<g >
<title>[[kernel.kallsyms]] (10,101,010 samples, 0.15%)</title><rect x="601.8" y="133" width="1.8" height="15.0" fill="rgb(252,176,25)" rx="2" ry="2" />
<text  x="604.79" y="143.5" ></text>
</g>
<g >
<title>swapper (3,303,030,270 samples, 49.70%)</title><rect x="603.6" y="245" width="586.4" height="15.0" fill="rgb(214,84,30)" rx="2" ry="2" />
<text  x="606.59" y="255.5" >swapper</text>
</g>
<g >
<title>[unknown] (10,101,010 samples, 0.15%)</title><rect x="598.2" y="229" width="1.8" height="15.0" fill="rgb(222,55,14)" rx="2" ry="2" />
<text  x="601.21" y="239.5" ></text>
</g>
<g >
<title>[[kernel.kallsyms]] (10,101,010 samples, 0.15%)</title><rect x="594.6" y="149" width="1.8" height="15.0" fill="rgb(228,187,22)" rx="2" ry="2" />
<text  x="597.62" y="159.5" ></text>
</g>
<g >
<title>[[kernel.kallsyms]] (10,101,010 samples, 0.15%)</title><rect x="598.2" y="101" width="1.8" height="15.0" fill="rgb(215,117,31)" rx="2" ry="2" />
<text  x="601.21" y="111.5" ></text>
</g>
<g >
<title>find_my_bodies (20,202,020 samples, 0.30%)</title><rect x="17.2" y="213" width="3.6" height="15.0" fill="rgb(230,191,52)" rx="2" ry="2" />
<text  x="20.17" y="223.5" ></text>
</g>
<g >
<title>[[kernel.kallsyms]] (10,101,010 samples, 0.15%)</title><rect x="594.6" y="181" width="1.8" height="15.0" fill="rgb(251,213,13)" rx="2" ry="2" />
<text  x="597.62" y="191.5" ></text>
</g>
<g >
<title>[[kernel.kallsyms]] (10,101,010 samples, 0.15%)</title><rect x="594.6" y="117" width="1.8" height="15.0" fill="rgb(236,212,19)" rx="2" ry="2" />
<text  x="597.62" y="127.5" ></text>
</g>
<g >
<title>[[kernel.kallsyms]] (10,101,010 samples, 0.15%)</title><rect x="596.4" y="101" width="1.8" height="15.0" fill="rgb(232,93,7)" rx="2" ry="2" />
<text  x="599.41" y="111.5" ></text>
</g>
<g >
<title>[[kernel.kallsyms]] (10,101,010 samples, 0.15%)</title><rect x="585.7" y="101" width="1.7" height="15.0" fill="rgb(214,1,14)" rx="2" ry="2" />
<text  x="588.65" y="111.5" ></text>
</g>
<g >
<title>[[kernel.kallsyms]] (10,101,010 samples, 0.15%)</title><rect x="598.2" y="69" width="1.8" height="15.0" fill="rgb(220,224,52)" rx="2" ry="2" />
<text  x="601.21" y="79.5" ></text>
</g>
<g >
<title>[[kernel.kallsyms]] (10,101,010 samples, 0.15%)</title><rect x="601.8" y="165" width="1.8" height="15.0" fill="rgb(215,154,36)" rx="2" ry="2" />
<text  x="604.79" y="175.5" ></text>
</g>
<g >
<title>[[kernel.kallsyms]] (10,101,010 samples, 0.15%)</title><rect x="601.8" y="213" width="1.8" height="15.0" fill="rgb(230,54,34)" rx="2" ry="2" />
<text  x="604.79" y="223.5" ></text>
</g>
<g >
<title>[[kernel.kallsyms]] (10,101,010 samples, 0.15%)</title><rect x="1095.0" y="101" width="1.7" height="15.0" fill="rgb(231,179,31)" rx="2" ry="2" />
<text  x="1097.95" y="111.5" ></text>
</g>
<g >
<title>[[kernel.kallsyms]] (10,101,010 samples, 0.15%)</title><rect x="585.7" y="181" width="1.7" height="15.0" fill="rgb(236,186,37)" rx="2" ry="2" />
<text  x="588.65" y="191.5" ></text>
</g>
<g >
<title>[[kernel.kallsyms]] (10,101,010 samples, 0.15%)</title><rect x="596.4" y="213" width="1.8" height="15.0" fill="rgb(205,131,52)" rx="2" ry="2" />
<text  x="599.41" y="223.5" ></text>
</g>
<g >
<title>__ieee754_pow_fma (20,202,020 samples, 0.30%)</title><rect x="13.6" y="213" width="3.6" height="15.0" fill="rgb(237,34,21)" rx="2" ry="2" />
<text  x="16.59" y="223.5" ></text>
</g>
<g >
<title>[[kernel.kallsyms]] (10,101,010 samples, 0.15%)</title><rect x="598.2" y="181" width="1.8" height="15.0" fill="rgb(252,166,27)" rx="2" ry="2" />
<text  x="601.21" y="191.5" ></text>
</g>
<g >
<title>[[kernel.kallsyms]] (2,777,777,750 samples, 41.79%)</title><rect x="603.6" y="197" width="493.1" height="15.0" fill="rgb(240,170,20)" rx="2" ry="2" />
<text  x="606.59" y="207.5" >[[kernel.kallsyms]]</text>
</g>
<g >
<title>[[kernel.kallsyms]] (525,252,520 samples, 7.90%)</title><rect x="1096.7" y="101" width="93.3" height="15.0" fill="rgb(205,2,18)" rx="2" ry="2" />
<text  x="1099.75" y="111.5" >[[kernel.ka..</text>
</g>
<g >
<title>[[kernel.kallsyms]] (10,101,010 samples, 0.15%)</title><rect x="585.7" y="117" width="1.7" height="15.0" fill="rgb(205,140,42)" rx="2" ry="2" />
<text  x="588.65" y="127.5" ></text>
</g>
<g >
<title>[[kernel.kallsyms]] (10,101,010 samples, 0.15%)</title><rect x="596.4" y="197" width="1.8" height="15.0" fill="rgb(218,86,19)" rx="2" ry="2" />
<text  x="599.41" y="207.5" ></text>
</g>
<g >
<title>[[kernel.kallsyms]] (2,777,777,750 samples, 41.79%)</title><rect x="603.6" y="133" width="493.1" height="15.0" fill="rgb(244,75,9)" rx="2" ry="2" />
<text  x="606.59" y="143.5" >[[kernel.kallsyms]]</text>
</g>
<g >
<title>[[kernel.kallsyms]] (10,101,010 samples, 0.15%)</title><rect x="594.6" y="213" width="1.8" height="15.0" fill="rgb(232,193,26)" rx="2" ry="2" />
<text  x="597.62" y="223.5" ></text>
</g>
<g >
<title>[[kernel.kallsyms]] (10,101,010 samples, 0.15%)</title><rect x="400.9" y="197" width="1.8" height="15.0" fill="rgb(213,165,22)" rx="2" ry="2" />
<text  x="403.94" y="207.5" ></text>
</g>
<g >
<title>[[kernel.kallsyms]] (10,101,010 samples, 0.15%)</title><rect x="1095.0" y="117" width="1.7" height="15.0" fill="rgb(220,77,20)" rx="2" ry="2" />
<text  x="1097.95" y="127.5" ></text>
</g>
<g >
<title>hackcofm (10,101,010 samples, 0.15%)</title><rect x="402.7" y="213" width="1.8" height="15.0" fill="rgb(218,54,6)" rx="2" ry="2" />
<text  x="405.74" y="223.5" ></text>
</g>
<g >
<title>[[kernel.kallsyms]] (10,101,010 samples, 0.15%)</title><rect x="596.4" y="165" width="1.8" height="15.0" fill="rgb(243,132,48)" rx="2" ry="2" />
<text  x="599.41" y="175.5" ></text>
</g>
<g >
<title>[[kernel.kallsyms]] (10,101,010 samples, 0.15%)</title><rect x="598.2" y="117" width="1.8" height="15.0" fill="rgb(222,218,53)" rx="2" ry="2" />
<text  x="601.21" y="127.5" ></text>
</g>
<g >
<title>__libc_fork (10,101,010 samples, 0.15%)</title><rect x="594.6" y="229" width="1.8" height="15.0" fill="rgb(252,78,5)" rx="2" ry="2" />
<text  x="597.62" y="239.5" ></text>
</g>
<g >
<title>gravsub (2,151,515,130 samples, 32.37%)</title><rect x="20.8" y="213" width="381.9" height="15.0" fill="rgb(240,71,8)" rx="2" ry="2" />
<text  x="23.76" y="223.5" >gravsub</text>
</g>
<g >
<title>[[kernel.kallsyms]] (10,101,010 samples, 0.15%)</title><rect x="594.6" y="53" width="1.8" height="15.0" fill="rgb(219,46,40)" rx="2" ry="2" />
<text  x="597.62" y="63.5" ></text>
</g>
<g >
<title>[[kernel.kallsyms]] (10,101,010 samples, 0.15%)</title><rect x="585.7" y="133" width="1.7" height="15.0" fill="rgb(233,71,41)" rx="2" ry="2" />
<text  x="588.65" y="143.5" ></text>
</g>
<g >
<title>[[kernel.kallsyms]] (10,101,010 samples, 0.15%)</title><rect x="601.8" y="149" width="1.8" height="15.0" fill="rgb(215,51,36)" rx="2" ry="2" />
<text  x="604.79" y="159.5" ></text>
</g>
<g >
<title>[unknown] (3,202,020,170 samples, 48.18%)</title><rect x="11.8" y="229" width="568.5" height="15.0" fill="rgb(209,161,31)" rx="2" ry="2" />
<text  x="14.79" y="239.5" >[unknown]</text>
</g>
<g >
<title>[[kernel.kallsyms]] (10,101,010 samples, 0.15%)</title><rect x="594.6" y="101" width="1.8" height="15.0" fill="rgb(236,86,3)" rx="2" ry="2" />
<text  x="597.62" y="111.5" ></text>
</g>
<g >
<title>[unknown] (525,252,520 samples, 7.90%)</title><rect x="1096.7" y="165" width="93.3" height="15.0" fill="rgb(249,122,15)" rx="2" ry="2" />
<text  x="1099.75" y="175.5" >[unknown]</text>
</g>
<g >
<title>[[kernel.kallsyms]] (10,101,010 samples, 0.15%)</title><rect x="400.9" y="181" width="1.8" height="15.0" fill="rgb(232,57,24)" rx="2" ry="2" />
<text  x="403.94" y="191.5" ></text>
</g>
<g >
<title>[[kernel.kallsyms]] (10,101,010 samples, 0.15%)</title><rect x="400.9" y="149" width="1.8" height="15.0" fill="rgb(242,107,11)" rx="2" ry="2" />
<text  x="403.94" y="159.5" ></text>
</g>
<g >
<title>dirname (10,101,010 samples, 0.15%)</title><rect x="598.2" y="245" width="1.8" height="15.0" fill="rgb(212,53,36)" rx="2" ry="2" />
<text  x="601.21" y="255.5" ></text>
</g>
<g >
<title>[[kernel.kallsyms]] (10,101,010 samples, 0.15%)</title><rect x="585.7" y="69" width="1.7" height="15.0" fill="rgb(210,1,0)" rx="2" ry="2" />
<text  x="588.65" y="79.5" ></text>
</g>
<g >
<title>[[kernel.kallsyms]] (10,101,010 samples, 0.15%)</title><rect x="598.2" y="133" width="1.8" height="15.0" fill="rgb(230,126,13)" rx="2" ry="2" />
<text  x="601.21" y="143.5" ></text>
</g>
<g >
<title>[[kernel.kallsyms]] (525,252,520 samples, 7.90%)</title><rect x="1096.7" y="133" width="93.3" height="15.0" fill="rgb(220,81,26)" rx="2" ry="2" />
<text  x="1099.75" y="143.5" >[[kernel.ka..</text>
</g>
<g >
<title>[[kernel.kallsyms]] (525,252,520 samples, 7.90%)</title><rect x="1096.7" y="69" width="93.3" height="15.0" fill="rgb(254,160,36)" rx="2" ry="2" />
<text  x="1099.75" y="79.5" >[[kernel.ka..</text>
</g>
<g >
<title>[[kernel.kallsyms]] (10,101,010 samples, 0.15%)</title><rect x="598.2" y="165" width="1.8" height="15.0" fill="rgb(230,42,13)" rx="2" ry="2" />
<text  x="601.21" y="175.5" ></text>
</g>
<g >
<title>[[kernel.kallsyms]] (10,101,010 samples, 0.15%)</title><rect x="601.8" y="229" width="1.8" height="15.0" fill="rgb(207,82,10)" rx="2" ry="2" />
<text  x="604.79" y="239.5" ></text>
</g>
<g >
<title>[[kernel.kallsyms]] (10,101,010 samples, 0.15%)</title><rect x="596.4" y="133" width="1.8" height="15.0" fill="rgb(248,61,19)" rx="2" ry="2" />
<text  x="599.41" y="143.5" ></text>
</g>
<g >
<title>[[kernel.kallsyms]] (10,101,010 samples, 0.15%)</title><rect x="585.7" y="149" width="1.7" height="15.0" fill="rgb(219,116,16)" rx="2" ry="2" />
<text  x="588.65" y="159.5" ></text>
</g>
<g >
<title>[[kernel.kallsyms]] (10,101,010 samples, 0.15%)</title><rect x="1095.0" y="85" width="1.7" height="15.0" fill="rgb(225,129,30)" rx="2" ry="2" />
<text  x="1097.95" y="95.5" ></text>
</g>
<g >
<title>munmap (10,101,010 samples, 0.15%)</title><rect x="598.2" y="197" width="1.8" height="15.0" fill="rgb(253,197,20)" rx="2" ry="2" />
<text  x="601.21" y="207.5" ></text>
</g>
<g >
<title>[[kernel.kallsyms]] (2,777,777,750 samples, 41.79%)</title><rect x="603.6" y="149" width="493.1" height="15.0" fill="rgb(252,117,37)" rx="2" ry="2" />
<text  x="606.59" y="159.5" >[[kernel.kallsyms]]</text>
</g>
<g >
<title>walksub (919,191,910 samples, 13.83%)</title><rect x="417.1" y="213" width="163.2" height="15.0" fill="rgb(238,82,36)" rx="2" ry="2" />
<text  x="420.08" y="223.5" >walksub</text>
</g>
<g >
<title>[[kernel.kallsyms]] (10,101,010 samples, 0.15%)</title><rect x="1095.0" y="53" width="1.7" height="15.0" fill="rgb(246,101,24)" rx="2" ry="2" />
<text  x="1097.95" y="63.5" ></text>
</g>
<g >
<title>loadtree (40,404,040 samples, 0.61%)</title><rect x="404.5" y="213" width="7.2" height="15.0" fill="rgb(241,121,44)" rx="2" ry="2" />
<text  x="407.53" y="223.5" ></text>
</g>
<g >
<title>[[kernel.kallsyms]] (3,303,030,270 samples, 49.70%)</title><rect x="603.6" y="229" width="586.4" height="15.0" fill="rgb(246,167,8)" rx="2" ry="2" />
<text  x="606.59" y="239.5" >[[kernel.kallsyms]]</text>
</g>
<g >
<title>[[kernel.kallsyms]] (10,101,010 samples, 0.15%)</title><rect x="601.8" y="85" width="1.8" height="15.0" fill="rgb(215,98,47)" rx="2" ry="2" />
<text  x="604.79" y="95.5" ></text>
</g>
<g >
<title>[[kernel.kallsyms]] (10,101,010 samples, 0.15%)</title><rect x="601.8" y="117" width="1.8" height="15.0" fill="rgb(238,45,11)" rx="2" ry="2" />
<text  x="604.79" y="127.5" ></text>
</g>
<g >
<title>barnes (3,292,929,260 samples, 49.54%)</title><rect x="10.0" y="245" width="584.6" height="15.0" fill="rgb(225,130,50)" rx="2" ry="2" />
<text  x="13.00" y="255.5" >barnes</text>
</g>
<g >
<title>maketree (30,303,030 samples, 0.46%)</title><rect x="411.7" y="213" width="5.4" height="15.0" fill="rgb(218,118,35)" rx="2" ry="2" />
<text  x="414.70" y="223.5" ></text>
</g>
<g >
<title>[unknown] (10,101,010 samples, 0.15%)</title><rect x="600.0" y="229" width="1.8" height="15.0" fill="rgb(206,200,16)" rx="2" ry="2" />
<text  x="603.00" y="239.5" ></text>
</g>
<g >
<title>[[kernel.kallsyms]] (10,101,010 samples, 0.15%)</title><rect x="596.4" y="117" width="1.8" height="15.0" fill="rgb(211,223,20)" rx="2" ry="2" />
<text  x="599.41" y="127.5" ></text>
</g>
<g >
<title>_dl_sysdep_start (10,101,010 samples, 0.15%)</title><rect x="598.2" y="213" width="1.8" height="15.0" fill="rgb(254,119,45)" rx="2" ry="2" />
<text  x="601.21" y="223.5" ></text>
</g>
<g >
<title>[[kernel.kallsyms]] (10,101,010 samples, 0.15%)</title><rect x="1095.0" y="37" width="1.7" height="15.0" fill="rgb(236,29,38)" rx="2" ry="2" />
<text  x="1097.95" y="47.5" ></text>
</g>
<g >
<title>[unknown] (525,252,520 samples, 7.90%)</title><rect x="1096.7" y="213" width="93.3" height="15.0" fill="rgb(221,92,16)" rx="2" ry="2" />
<text  x="1099.75" y="223.5" >[unknown]</text>
</g>
<g >
<title>[[kernel.kallsyms]] (10,101,010 samples, 0.15%)</title><rect x="598.2" y="53" width="1.8" height="15.0" fill="rgb(252,179,8)" rx="2" ry="2" />
<text  x="601.21" y="63.5" ></text>
</g>
<g >
<title>ComputeForces (10,101,010 samples, 0.15%)</title><rect x="11.8" y="213" width="1.8" height="15.0" fill="rgb(214,61,53)" rx="2" ry="2" />
<text  x="14.79" y="223.5" ></text>
</g>
<g >
<title>python3 (10,101,010 samples, 0.15%)</title><rect x="600.0" y="245" width="1.8" height="15.0" fill="rgb(245,73,48)" rx="2" ry="2" />
<text  x="603.00" y="255.5" ></text>
</g>
<g >
<title>[[kernel.kallsyms]] (10,101,010 samples, 0.15%)</title><rect x="594.6" y="133" width="1.8" height="15.0" fill="rgb(240,192,33)" rx="2" ry="2" />
<text  x="597.62" y="143.5" ></text>
</g>
<g >
<title>[[kernel.kallsyms]] (10,101,010 samples, 0.15%)</title><rect x="585.7" y="197" width="1.7" height="15.0" fill="rgb(228,6,52)" rx="2" ry="2" />
<text  x="588.65" y="207.5" ></text>
</g>
<g >
<title>[[kernel.kallsyms]] (2,777,777,750 samples, 41.79%)</title><rect x="603.6" y="213" width="493.1" height="15.0" fill="rgb(252,89,2)" rx="2" ry="2" />
<text  x="606.59" y="223.5" >[[kernel.kallsyms]]</text>
</g>
<g >
<title>[[kernel.kallsyms]] (10,101,010 samples, 0.15%)</title><rect x="594.6" y="85" width="1.8" height="15.0" fill="rgb(243,198,41)" rx="2" ry="2" />
<text  x="597.62" y="95.5" ></text>
</g>
<g >
<title>all (6,646,464,580 samples, 100%)</title><rect x="10.0" y="261" width="1180.0" height="15.0" fill="rgb(251,189,39)" rx="2" ry="2" />
<text  x="13.00" y="271.5" ></text>
</g>
<g >
<title>[[kernel.kallsyms]] (10,101,010 samples, 0.15%)</title><rect x="585.7" y="85" width="1.7" height="15.0" fill="rgb(230,191,22)" rx="2" ry="2" />
<text  x="588.65" y="95.5" ></text>
</g>
<g >
<title>[[kernel.kallsyms]] (10,101,010 samples, 0.15%)</title><rect x="585.7" y="165" width="1.7" height="15.0" fill="rgb(250,144,16)" rx="2" ry="2" />
<text  x="588.65" y="175.5" ></text>
</g>
<g >
<title>hackcofm (10,101,010 samples, 0.15%)</title><rect x="580.3" y="229" width="1.8" height="15.0" fill="rgb(210,100,11)" rx="2" ry="2" />
<text  x="583.27" y="239.5" ></text>
</g>
<g >
<title>SubdivideLeaf (10,101,010 samples, 0.15%)</title><rect x="10.0" y="229" width="1.8" height="15.0" fill="rgb(226,196,12)" rx="2" ry="2" />
<text  x="13.00" y="239.5" ></text>
</g>
</g>
</svg>
