<?xml version="1.0" standalone="no"?>
<!DOCTYPE svg PUBLIC "-//W3C//DTD SVG 1.1//EN" "http://www.w3.org/Graphics/SVG/1.1/DTD/svg11.dtd">
<svg version="1.1" width="1200" height="278" onload="init(evt)" viewBox="0 0 1200 278" xmlns="http://www.w3.org/2000/svg" xmlns:xlink="http://www.w3.org/1999/xlink">
<!-- Flame graph stack visualization. See https://github.com/brendangregg/FlameGraph for latest version, and http://www.brendangregg.com/flamegraphs.html for examples. -->
<!-- NOTES:  -->
<defs>
	<linearGradient id="background" y1="0" y2="1" x1="0" x2="0" >
		<stop stop-color="#eeeeee" offset="5%" />
		<stop stop-color="#eeeeb0" offset="95%" />
	</linearGradient>
</defs>
<style type="text/css">
	text { font-family:Verdana; font-size:12px; fill:rgb(0,0,0); }
	#search, #ignorecase { opacity:0.1; cursor:pointer; }
	#search:hover, #search.show, #ignorecase:hover, #ignorecase.show { opacity:1; }
	#subtitle { text-anchor:middle; font-color:rgb(160,160,160); }
	#title { text-anchor:middle; font-size:17px}
	#unzoom { cursor:pointer; }
	#frames > *:hover { stroke:black; stroke-width:0.5; cursor:pointer; }
	.hide { display:none; }
	.parent { opacity:0.5; }
</style>
<script type="text/ecmascript">
<![CDATA[
	"use strict";
	var details, searchbtn, unzoombtn, matchedtxt, svg, searching, currentSearchTerm, ignorecase, ignorecaseBtn;
	function init(evt) {
		details = document.getElementById("details").firstChild;
		searchbtn = document.getElementById("search");
		ignorecaseBtn = document.getElementById("ignorecase");
		unzoombtn = document.getElementById("unzoom");
		matchedtxt = document.getElementById("matched");
		svg = document.getElementsByTagName("svg")[0];
		searching = 0;
		currentSearchTerm = null;

		// use GET parameters to restore a flamegraphs state.
		var params = get_params();
		if (params.x && params.y)
			zoom(find_group(document.querySelector('[x="' + params.x + '"][y="' + params.y + '"]')));
                if (params.s) search(params.s);
	}

	// event listeners
	window.addEventListener("click", function(e) {
		var target = find_group(e.target);
		if (target) {
			if (target.nodeName == "a") {
				if (e.ctrlKey === false) return;
				e.preventDefault();
			}
			if (target.classList.contains("parent")) unzoom(true);
			zoom(target);
			if (!document.querySelector('.parent')) {
				// we have basically done a clearzoom so clear the url
				var params = get_params();
				if (params.x) delete params.x;
				if (params.y) delete params.y;
				history.replaceState(null, null, parse_params(params));
				unzoombtn.classList.add("hide");
				return;
			}

			// set parameters for zoom state
			var el = target.querySelector("rect");
			if (el && el.attributes && el.attributes.y && el.attributes._orig_x) {
				var params = get_params()
				params.x = el.attributes._orig_x.value;
				params.y = el.attributes.y.value;
				history.replaceState(null, null, parse_params(params));
			}
		}
		else if (e.target.id == "unzoom") clearzoom();
		else if (e.target.id == "search") search_prompt();
		else if (e.target.id == "ignorecase") toggle_ignorecase();
	}, false)

	// mouse-over for info
	// show
	window.addEventListener("mouseover", function(e) {
		var target = find_group(e.target);
		if (target) details.nodeValue = "Function: " + g_to_text(target);
	}, false)

	// clear
	window.addEventListener("mouseout", function(e) {
		var target = find_group(e.target);
		if (target) details.nodeValue = ' ';
	}, false)

	// ctrl-F for search
	// ctrl-I to toggle case-sensitive search
	window.addEventListener("keydown",function (e) {
		if (e.keyCode === 114 || (e.ctrlKey && e.keyCode === 70)) {
			e.preventDefault();
			search_prompt();
		}
		else if (e.ctrlKey && e.keyCode === 73) {
			e.preventDefault();
			toggle_ignorecase();
		}
	}, false)

	// functions
	function get_params() {
		var params = {};
		var paramsarr = window.location.search.substr(1).split('&');
		for (var i = 0; i < paramsarr.length; ++i) {
			var tmp = paramsarr[i].split("=");
			if (!tmp[0] || !tmp[1]) continue;
			params[tmp[0]]  = decodeURIComponent(tmp[1]);
		}
		return params;
	}
	function parse_params(params) {
		var uri = "?";
		for (var key in params) {
			uri += key + '=' + encodeURIComponent(params[key]) + '&';
		}
		if (uri.slice(-1) == "&")
			uri = uri.substring(0, uri.length - 1);
		if (uri == '?')
			uri = window.location.href.split('?')[0];
		return uri;
	}
	function find_child(node, selector) {
		var children = node.querySelectorAll(selector);
		if (children.length) return children[0];
	}
	function find_group(node) {
		var parent = node.parentElement;
		if (!parent) return;
		if (parent.id == "frames") return node;
		return find_group(parent);
	}
	function orig_save(e, attr, val) {
		if (e.attributes["_orig_" + attr] != undefined) return;
		if (e.attributes[attr] == undefined) return;
		if (val == undefined) val = e.attributes[attr].value;
		e.setAttribute("_orig_" + attr, val);
	}
	function orig_load(e, attr) {
		if (e.attributes["_orig_"+attr] == undefined) return;
		e.attributes[attr].value = e.attributes["_orig_" + attr].value;
		e.removeAttribute("_orig_"+attr);
	}
	function g_to_text(e) {
		var text = find_child(e, "title").firstChild.nodeValue;
		return (text)
	}
	function g_to_func(e) {
		var func = g_to_text(e);
		// if there's any manipulation we want to do to the function
		// name before it's searched, do it here before returning.
		return (func);
	}
	function update_text(e) {
		var r = find_child(e, "rect");
		var t = find_child(e, "text");
		var w = parseFloat(r.attributes.width.value) -3;
		var txt = find_child(e, "title").textContent.replace(/\([^(]*\)$/,"");
		t.attributes.x.value = parseFloat(r.attributes.x.value) + 3;

		// Smaller than this size won't fit anything
		if (w < 2 * 12 * 0.59) {
			t.textContent = "";
			return;
		}

		t.textContent = txt;
		var sl = t.getSubStringLength(0, txt.length);
		// check if only whitespace or if we can fit the entire string into width w
		if (/^ *$/.test(txt) || sl < w)
			return;

		// this isn't perfect, but gives a good starting point
		// and avoids calling getSubStringLength too often
		var start = Math.floor((w/sl) * txt.length);
		for (var x = start; x > 0; x = x-2) {
			if (t.getSubStringLength(0, x + 2) <= w) {
				t.textContent = txt.substring(0, x) + "..";
				return;
			}
		}
		t.textContent = "";
	}

	// zoom
	function zoom_reset(e) {
		if (e.attributes != undefined) {
			orig_load(e, "x");
			orig_load(e, "width");
		}
		if (e.childNodes == undefined) return;
		for (var i = 0, c = e.childNodes; i < c.length; i++) {
			zoom_reset(c[i]);
		}
	}
	function zoom_child(e, x, ratio) {
		if (e.attributes != undefined) {
			if (e.attributes.x != undefined) {
				orig_save(e, "x");
				e.attributes.x.value = (parseFloat(e.attributes.x.value) - x - 10) * ratio + 10;
				if (e.tagName == "text")
					e.attributes.x.value = find_child(e.parentNode, "rect[x]").attributes.x.value + 3;
			}
			if (e.attributes.width != undefined) {
				orig_save(e, "width");
				e.attributes.width.value = parseFloat(e.attributes.width.value) * ratio;
			}
		}

		if (e.childNodes == undefined) return;
		for (var i = 0, c = e.childNodes; i < c.length; i++) {
			zoom_child(c[i], x - 10, ratio);
		}
	}
	function zoom_parent(e) {
		if (e.attributes) {
			if (e.attributes.x != undefined) {
				orig_save(e, "x");
				e.attributes.x.value = 10;
			}
			if (e.attributes.width != undefined) {
				orig_save(e, "width");
				e.attributes.width.value = parseInt(svg.width.baseVal.value) - (10 * 2);
			}
		}
		if (e.childNodes == undefined) return;
		for (var i = 0, c = e.childNodes; i < c.length; i++) {
			zoom_parent(c[i]);
		}
	}
	function zoom(node) {
		var attr = find_child(node, "rect").attributes;
		var width = parseFloat(attr.width.value);
		var xmin = parseFloat(attr.x.value);
		var xmax = parseFloat(xmin + width);
		var ymin = parseFloat(attr.y.value);
		var ratio = (svg.width.baseVal.value - 2 * 10) / width;

		// XXX: Workaround for JavaScript float issues (fix me)
		var fudge = 0.0001;

		unzoombtn.classList.remove("hide");

		var el = document.getElementById("frames").children;
		for (var i = 0; i < el.length; i++) {
			var e = el[i];
			var a = find_child(e, "rect").attributes;
			var ex = parseFloat(a.x.value);
			var ew = parseFloat(a.width.value);
			var upstack;
			// Is it an ancestor
			if (0 == 0) {
				upstack = parseFloat(a.y.value) > ymin;
			} else {
				upstack = parseFloat(a.y.value) < ymin;
			}
			if (upstack) {
				// Direct ancestor
				if (ex <= xmin && (ex+ew+fudge) >= xmax) {
					e.classList.add("parent");
					zoom_parent(e);
					update_text(e);
				}
				// not in current path
				else
					e.classList.add("hide");
			}
			// Children maybe
			else {
				// no common path
				if (ex < xmin || ex + fudge >= xmax) {
					e.classList.add("hide");
				}
				else {
					zoom_child(e, xmin, ratio);
					update_text(e);
				}
			}
		}
		search();
	}
	function unzoom(dont_update_text) {
		unzoombtn.classList.add("hide");
		var el = document.getElementById("frames").children;
		for(var i = 0; i < el.length; i++) {
			el[i].classList.remove("parent");
			el[i].classList.remove("hide");
			zoom_reset(el[i]);
			if(!dont_update_text) update_text(el[i]);
		}
		search();
	}
	function clearzoom() {
		unzoom();

		// remove zoom state
		var params = get_params();
		if (params.x) delete params.x;
		if (params.y) delete params.y;
		history.replaceState(null, null, parse_params(params));
	}

	// search
	function toggle_ignorecase() {
		ignorecase = !ignorecase;
		if (ignorecase) {
			ignorecaseBtn.classList.add("show");
		} else {
			ignorecaseBtn.classList.remove("show");
		}
		reset_search();
		search();
	}
	function reset_search() {
		var el = document.querySelectorAll("#frames rect");
		for (var i = 0; i < el.length; i++) {
			orig_load(el[i], "fill")
		}
		var params = get_params();
		delete params.s;
		history.replaceState(null, null, parse_params(params));
	}
	function search_prompt() {
		if (!searching) {
			var term = prompt("Enter a search term (regexp " +
			    "allowed, eg: ^ext4_)"
			    + (ignorecase ? ", ignoring case" : "")
			    + "\nPress Ctrl-i to toggle case sensitivity", "");
			if (term != null) search(term);
		} else {
			reset_search();
			searching = 0;
			currentSearchTerm = null;
			searchbtn.classList.remove("show");
			searchbtn.firstChild.nodeValue = "Search"
			matchedtxt.classList.add("hide");
			matchedtxt.firstChild.nodeValue = ""
		}
	}
	function search(term) {
		if (term) currentSearchTerm = term;

		var re = new RegExp(currentSearchTerm, ignorecase ? 'i' : '');
		var el = document.getElementById("frames").children;
		var matches = new Object();
		var maxwidth = 0;
		for (var i = 0; i < el.length; i++) {
			var e = el[i];
			var func = g_to_func(e);
			var rect = find_child(e, "rect");
			if (func == null || rect == null)
				continue;

			// Save max width. Only works as we have a root frame
			var w = parseFloat(rect.attributes.width.value);
			if (w > maxwidth)
				maxwidth = w;

			if (func.match(re)) {
				// highlight
				var x = parseFloat(rect.attributes.x.value);
				orig_save(rect, "fill");
				rect.attributes.fill.value = "rgb(230,0,230)";

				// remember matches
				if (matches[x] == undefined) {
					matches[x] = w;
				} else {
					if (w > matches[x]) {
						// overwrite with parent
						matches[x] = w;
					}
				}
				searching = 1;
			}
		}
		if (!searching)
			return;
		var params = get_params();
		params.s = currentSearchTerm;
		history.replaceState(null, null, parse_params(params));

		searchbtn.classList.add("show");
		searchbtn.firstChild.nodeValue = "Reset Search";

		// calculate percent matched, excluding vertical overlap
		var count = 0;
		var lastx = -1;
		var lastw = 0;
		var keys = Array();
		for (k in matches) {
			if (matches.hasOwnProperty(k))
				keys.push(k);
		}
		// sort the matched frames by their x location
		// ascending, then width descending
		keys.sort(function(a, b){
			return a - b;
		});
		// Step through frames saving only the biggest bottom-up frames
		// thanks to the sort order. This relies on the tree property
		// where children are always smaller than their parents.
		var fudge = 0.0001;	// JavaScript floating point
		for (var k in keys) {
			var x = parseFloat(keys[k]);
			var w = matches[keys[k]];
			if (x >= lastx + lastw - fudge) {
				count += w;
				lastx = x;
				lastw = w;
			}
		}
		// display matched percent
		matchedtxt.classList.remove("hide");
		var pct = 100 * count / maxwidth;
		if (pct != 100) pct = pct.toFixed(1)
		matchedtxt.firstChild.nodeValue = "Matched: " + pct + "%";
	}
]]>
</script>
<rect x="0.0" y="0" width="1200.0" height="278.0" fill="url(#background)"  />
<text id="title" x="600.00" y="24" >Flame Graph</text>
<text id="details" x="10.00" y="261" > </text>
<text id="unzoom" x="10.00" y="24" class="hide">Reset Zoom</text>
<text id="search" x="1090.00" y="24" >Search</text>
<text id="ignorecase" x="1174.00" y="24" >ic</text>
<text id="matched" x="1090.00" y="261" > </text>
<g id="frames">
<g >
<title>[[kernel.kallsyms]] (10,101,010 samples, 0.08%)</title><rect x="451.3" y="133" width="1.0" height="15.0" fill="rgb(210,106,36)" rx="2" ry="2" />
<text  x="454.31" y="143.5" ></text>
</g>
<g >
<title>_dl_sysdep_start (10,101,010 samples, 0.08%)</title><rect x="600.0" y="181" width="1.0" height="15.0" fill="rgb(244,98,50)" rx="2" ry="2" />
<text  x="603.00" y="191.5" ></text>
</g>
<g >
<title>[unknown] (2,020,202,000 samples, 16.16%)</title><rect x="999.4" y="181" width="190.6" height="15.0" fill="rgb(230,211,25)" rx="2" ry="2" />
<text  x="1002.37" y="191.5" >[unknown]</text>
</g>
<g >
<title>[[kernel.kallsyms]] (10,101,010 samples, 0.08%)</title><rect x="11.9" y="117" width="1.0" height="15.0" fill="rgb(211,52,4)" rx="2" ry="2" />
<text  x="14.91" y="127.5" ></text>
</g>
<g >
<title>malloc (454,545,450 samples, 3.63%)</title><rect x="452.3" y="197" width="42.9" height="15.0" fill="rgb(245,19,5)" rx="2" ry="2" />
<text  x="455.26" y="207.5" >malloc</text>
</g>
<g >
<title>[[kernel.kallsyms]] (2,020,202,000 samples, 16.16%)</title><rect x="999.4" y="85" width="190.6" height="15.0" fill="rgb(234,147,52)" rx="2" ry="2" />
<text  x="1002.37" y="95.5" >[[kernel.kallsyms]]</text>
</g>
<g >
<title>_PyObject_GetMethod (10,101,010 samples, 0.08%)</title><rect x="601.0" y="181" width="0.9" height="15.0" fill="rgb(213,63,20)" rx="2" ry="2" />
<text  x="603.95" y="191.5" ></text>
</g>
<g >
<title>pcfrac (131,313,130 samples, 1.05%)</title><rect x="83.4" y="181" width="12.4" height="15.0" fill="rgb(236,27,7)" rx="2" ry="2" />
<text  x="86.39" y="191.5" ></text>
</g>
<g >
<title>[[kernel.kallsyms]] (10,101,010 samples, 0.08%)</title><rect x="173.9" y="165" width="1.0" height="15.0" fill="rgb(219,149,4)" rx="2" ry="2" />
<text  x="176.94" y="175.5" ></text>
</g>
<g >
<title>pfree (50,505,050 samples, 0.40%)</title><rect x="594.3" y="197" width="4.7" height="15.0" fill="rgb(231,85,0)" rx="2" ry="2" />
<text  x="597.28" y="207.5" ></text>
</g>
<g >
<title>[[kernel.kallsyms]] (20,202,020 samples, 0.16%)</title><rect x="997.5" y="69" width="1.9" height="15.0" fill="rgb(227,164,9)" rx="2" ry="2" />
<text  x="1000.46" y="79.5" ></text>
</g>
<g >
<title>dirname (10,101,010 samples, 0.08%)</title><rect x="600.0" y="213" width="1.0" height="15.0" fill="rgb(214,102,47)" rx="2" ry="2" />
<text  x="603.00" y="223.5" ></text>
</g>
<g >
<title>python3 (10,101,010 samples, 0.08%)</title><rect x="601.0" y="213" width="0.9" height="15.0" fill="rgb(222,182,27)" rx="2" ry="2" />
<text  x="603.95" y="223.5" ></text>
</g>
<g >
<title>pmul (303,030,300 samples, 2.42%)</title><rect x="390.3" y="181" width="28.6" height="15.0" fill="rgb(221,68,23)" rx="2" ry="2" />
<text  x="393.31" y="191.5" >pmul</text>
</g>
<g >
<title>[[kernel.kallsyms]] (10,101,010 samples, 0.08%)</title><rect x="11.0" y="101" width="0.9" height="15.0" fill="rgb(248,109,1)" rx="2" ry="2" />
<text  x="13.95" y="111.5" ></text>
</g>
<g >
<title>[[kernel.kallsyms]] (10,101,010 samples, 0.08%)</title><rect x="451.3" y="101" width="1.0" height="15.0" fill="rgb(247,193,4)" rx="2" ry="2" />
<text  x="454.31" y="111.5" ></text>
</g>
<g >
<title>[[kernel.kallsyms]] (4,212,121,170 samples, 33.68%)</title><rect x="601.9" y="133" width="397.5" height="15.0" fill="rgb(231,208,41)" rx="2" ry="2" />
<text  x="604.91" y="143.5" >[[kernel.kallsyms]]</text>
</g>
<g >
<title>[[kernel.kallsyms]] (4,212,121,170 samples, 33.68%)</title><rect x="601.9" y="181" width="397.5" height="15.0" fill="rgb(236,94,16)" rx="2" ry="2" />
<text  x="604.91" y="191.5" >[[kernel.kallsyms]]</text>
</g>
<g >
<title>pdivmod (353,535,350 samples, 2.83%)</title><rect x="122.5" y="181" width="33.3" height="15.0" fill="rgb(221,107,34)" rx="2" ry="2" />
<text  x="125.47" y="191.5" >pd..</text>
</g>
<g >
<title>[[kernel.kallsyms]] (10,101,010 samples, 0.08%)</title><rect x="173.9" y="117" width="1.0" height="15.0" fill="rgb(221,48,29)" rx="2" ry="2" />
<text  x="176.94" y="127.5" ></text>
</g>
<g >
<title>[[kernel.kallsyms]] (10,101,010 samples, 0.08%)</title><rect x="451.3" y="149" width="1.0" height="15.0" fill="rgb(208,165,9)" rx="2" ry="2" />
<text  x="454.31" y="159.5" ></text>
</g>
<g >
<title>[[kernel.kallsyms]] (4,212,121,170 samples, 33.68%)</title><rect x="601.9" y="149" width="397.5" height="15.0" fill="rgb(228,15,15)" rx="2" ry="2" />
<text  x="604.91" y="159.5" >[[kernel.kallsyms]]</text>
</g>
<g >
<title>[[kernel.kallsyms]] (10,101,010 samples, 0.08%)</title><rect x="11.0" y="149" width="0.9" height="15.0" fill="rgb(231,47,40)" rx="2" ry="2" />
<text  x="13.95" y="159.5" ></text>
</g>
<g >
<title>pfree (10,101,010 samples, 0.08%)</title><rect x="174.9" y="181" width="0.9" height="15.0" fill="rgb(215,34,32)" rx="2" ry="2" />
<text  x="177.89" y="191.5" ></text>
</g>
<g >
<title>[[kernel.kallsyms]] (10,101,010 samples, 0.08%)</title><rect x="11.9" y="133" width="1.0" height="15.0" fill="rgb(247,17,29)" rx="2" ry="2" />
<text  x="14.91" y="143.5" ></text>
</g>
<g >
<title>[[kernel.kallsyms]] (10,101,010 samples, 0.08%)</title><rect x="173.9" y="149" width="1.0" height="15.0" fill="rgb(213,162,0)" rx="2" ry="2" />
<text  x="176.94" y="159.5" ></text>
</g>
<g >
<title>[unknown] (10,101,010 samples, 0.08%)</title><rect x="11.0" y="197" width="0.9" height="15.0" fill="rgb(214,27,5)" rx="2" ry="2" />
<text  x="13.95" y="207.5" ></text>
</g>
<g >
<title>[[kernel.kallsyms]] (10,101,010 samples, 0.08%)</title><rect x="11.0" y="133" width="0.9" height="15.0" fill="rgb(223,190,45)" rx="2" ry="2" />
<text  x="13.95" y="143.5" ></text>
</g>
<g >
<title>cfree@GLIBC_2.2.5 (60,606,060 samples, 0.48%)</title><rect x="57.7" y="181" width="5.7" height="15.0" fill="rgb(235,88,16)" rx="2" ry="2" />
<text  x="60.66" y="191.5" ></text>
</g>
<g >
<title>all (12,505,050,380 samples, 100%)</title><rect x="10.0" y="229" width="1180.0" height="15.0" fill="rgb(222,197,20)" rx="2" ry="2" />
<text  x="13.00" y="239.5" ></text>
</g>
<g >
<title>[unknown] (2,020,202,000 samples, 16.16%)</title><rect x="999.4" y="149" width="190.6" height="15.0" fill="rgb(210,145,12)" rx="2" ry="2" />
<text  x="1002.37" y="159.5" >[unknown]</text>
</g>
<g >
<title>__libc_fork (10,101,010 samples, 0.08%)</title><rect x="11.9" y="197" width="1.0" height="15.0" fill="rgb(230,61,49)" rx="2" ry="2" />
<text  x="14.91" y="207.5" ></text>
</g>
<g >
<title>[[kernel.kallsyms]] (10,101,010 samples, 0.08%)</title><rect x="11.9" y="149" width="1.0" height="15.0" fill="rgb(248,117,3)" rx="2" ry="2" />
<text  x="14.91" y="159.5" ></text>
</g>
<g >
<title>[[kernel.kallsyms]] (10,101,010 samples, 0.08%)</title><rect x="11.9" y="165" width="1.0" height="15.0" fill="rgb(250,32,0)" rx="2" ry="2" />
<text  x="14.91" y="175.5" ></text>
</g>
<g >
<title>padd (121,212,120 samples, 0.97%)</title><rect x="63.4" y="181" width="11.4" height="15.0" fill="rgb(231,40,46)" rx="2" ry="2" />
<text  x="66.38" y="191.5" ></text>
</g>
<g >
<title>[[kernel.kallsyms]] (10,101,010 samples, 0.08%)</title><rect x="11.0" y="85" width="0.9" height="15.0" fill="rgb(229,23,49)" rx="2" ry="2" />
<text  x="13.95" y="95.5" ></text>
</g>
<g >
<title>[[kernel.kallsyms]] (10,101,010 samples, 0.08%)</title><rect x="600.0" y="133" width="1.0" height="15.0" fill="rgb(207,188,52)" rx="2" ry="2" />
<text  x="603.00" y="143.5" ></text>
</g>
<g >
<title>[[kernel.kallsyms]] (10,101,010 samples, 0.08%)</title><rect x="600.0" y="101" width="1.0" height="15.0" fill="rgb(213,33,14)" rx="2" ry="2" />
<text  x="603.00" y="111.5" ></text>
</g>
<g >
<title>[[kernel.kallsyms]] (10,101,010 samples, 0.08%)</title><rect x="600.0" y="117" width="1.0" height="15.0" fill="rgb(247,70,26)" rx="2" ry="2" />
<text  x="603.00" y="127.5" ></text>
</g>
<g >
<title>[[kernel.kallsyms]] (2,020,202,000 samples, 16.16%)</title><rect x="999.4" y="101" width="190.6" height="15.0" fill="rgb(223,25,52)" rx="2" ry="2" />
<text  x="1002.37" y="111.5" >[[kernel.kallsyms]]</text>
</g>
<g >
<title>[[kernel.kallsyms]] (4,212,121,170 samples, 33.68%)</title><rect x="601.9" y="165" width="397.5" height="15.0" fill="rgb(219,174,18)" rx="2" ry="2" />
<text  x="604.91" y="175.5" >[[kernel.kallsyms]]</text>
</g>
<g >
<title>_int_free (343,434,340 samples, 2.75%)</title><rect x="25.3" y="181" width="32.4" height="15.0" fill="rgb(245,13,30)" rx="2" ry="2" />
<text  x="28.25" y="191.5" >_i..</text>
</g>
<g >
<title>[[kernel.kallsyms]] (6,232,323,170 samples, 49.84%)</title><rect x="601.9" y="197" width="588.1" height="15.0" fill="rgb(251,91,31)" rx="2" ry="2" />
<text  x="604.91" y="207.5" >[[kernel.kallsyms]]</text>
</g>
<g >
<title>picmp (30,303,030 samples, 0.24%)</title><rect x="176.8" y="181" width="2.9" height="15.0" fill="rgb(207,59,37)" rx="2" ry="2" />
<text  x="179.80" y="191.5" ></text>
</g>
<g >
<title>[unknown] (10,101,010 samples, 0.08%)</title><rect x="600.0" y="197" width="1.0" height="15.0" fill="rgb(210,73,2)" rx="2" ry="2" />
<text  x="603.00" y="207.5" ></text>
</g>
<g >
<title>[[kernel.kallsyms]] (20,202,020 samples, 0.16%)</title><rect x="997.5" y="85" width="1.9" height="15.0" fill="rgb(248,79,12)" rx="2" ry="2" />
<text  x="1000.46" y="95.5" ></text>
</g>
<g >
<title>pcmp (242,424,240 samples, 1.94%)</title><rect x="95.8" y="181" width="22.9" height="15.0" fill="rgb(247,1,22)" rx="2" ry="2" />
<text  x="98.78" y="191.5" >p..</text>
</g>
<g >
<title>[[kernel.kallsyms]] (20,202,020 samples, 0.16%)</title><rect x="997.5" y="53" width="1.9" height="15.0" fill="rgb(223,118,54)" rx="2" ry="2" />
<text  x="1000.46" y="63.5" ></text>
</g>
<g >
<title>_int_malloc (10,101,010 samples, 0.08%)</title><rect x="451.3" y="197" width="1.0" height="15.0" fill="rgb(207,218,42)" rx="2" ry="2" />
<text  x="454.31" y="207.5" ></text>
</g>
<g >
<title>_int_free (10,101,010 samples, 0.08%)</title><rect x="11.0" y="181" width="0.9" height="15.0" fill="rgb(231,115,54)" rx="2" ry="2" />
<text  x="13.95" y="191.5" ></text>
</g>
<g >
<title>[[kernel.kallsyms]] (2,020,202,000 samples, 16.16%)</title><rect x="999.4" y="37" width="190.6" height="15.0" fill="rgb(213,62,3)" rx="2" ry="2" />
<text  x="1002.37" y="47.5" >[[kernel.kallsyms]]</text>
</g>
<g >
<title>[[kernel.kallsyms]] (10,101,010 samples, 0.08%)</title><rect x="11.9" y="101" width="1.0" height="15.0" fill="rgb(211,215,24)" rx="2" ry="2" />
<text  x="14.91" y="111.5" ></text>
</g>
<g >
<title>phalf (10,101,010 samples, 0.08%)</title><rect x="175.8" y="181" width="1.0" height="15.0" fill="rgb(212,122,9)" rx="2" ry="2" />
<text  x="178.85" y="191.5" ></text>
</g>
<g >
<title>pnorm (10,101,010 samples, 0.08%)</title><rect x="599.0" y="197" width="1.0" height="15.0" fill="rgb(206,180,31)" rx="2" ry="2" />
<text  x="602.05" y="207.5" ></text>
</g>
<g >
<title>psub (292,929,290 samples, 2.34%)</title><rect x="419.9" y="181" width="27.6" height="15.0" fill="rgb(246,52,45)" rx="2" ry="2" />
<text  x="422.85" y="191.5" >p..</text>
</g>
<g >
<title>[[kernel.kallsyms]] (20,202,020 samples, 0.16%)</title><rect x="997.5" y="37" width="1.9" height="15.0" fill="rgb(212,77,28)" rx="2" ry="2" />
<text  x="1000.46" y="47.5" ></text>
</g>
<g >
<title>[[kernel.kallsyms]] (10,101,010 samples, 0.08%)</title><rect x="451.3" y="69" width="1.0" height="15.0" fill="rgb(226,112,19)" rx="2" ry="2" />
<text  x="454.31" y="79.5" ></text>
</g>
<g >
<title>[[kernel.kallsyms]] (4,212,121,170 samples, 33.68%)</title><rect x="601.9" y="117" width="397.5" height="15.0" fill="rgb(226,166,40)" rx="2" ry="2" />
<text  x="604.91" y="127.5" >[[kernel.kallsyms]]</text>
</g>
<g >
<title>[unknown] (10,101,010 samples, 0.08%)</title><rect x="18.6" y="181" width="0.9" height="15.0" fill="rgb(248,100,12)" rx="2" ry="2" />
<text  x="21.58" y="191.5" ></text>
</g>
<g >
<title>podd (10,101,010 samples, 0.08%)</title><rect x="418.9" y="181" width="1.0" height="15.0" fill="rgb(219,170,42)" rx="2" ry="2" />
<text  x="421.90" y="191.5" ></text>
</g>
<g >
<title>_int_free (10,101,010 samples, 0.08%)</title><rect x="18.6" y="149" width="0.9" height="15.0" fill="rgb(216,86,39)" rx="2" ry="2" />
<text  x="21.58" y="159.5" ></text>
</g>
<g >
<title>[[kernel.kallsyms]] (10,101,010 samples, 0.08%)</title><rect x="11.0" y="69" width="0.9" height="15.0" fill="rgb(211,188,49)" rx="2" ry="2" />
<text  x="13.95" y="79.5" ></text>
</g>
<g >
<title>__memset_avx2_unaligned_erms (60,606,060 samples, 0.48%)</title><rect x="19.5" y="181" width="5.8" height="15.0" fill="rgb(229,226,14)" rx="2" ry="2" />
<text  x="22.53" y="191.5" ></text>
</g>
<g >
<title>palloc (70,707,070 samples, 0.57%)</title><rect x="495.2" y="197" width="6.6" height="15.0" fill="rgb(209,97,54)" rx="2" ry="2" />
<text  x="498.15" y="207.5" ></text>
</g>
<g >
<title>[unknown] (2,020,202,000 samples, 16.16%)</title><rect x="999.4" y="165" width="190.6" height="15.0" fill="rgb(214,114,13)" rx="2" ry="2" />
<text  x="1002.37" y="175.5" >[unknown]</text>
</g>
<g >
<title>[unknown] (4,585,858,540 samples, 36.67%)</title><rect x="14.8" y="197" width="432.7" height="15.0" fill="rgb(216,173,24)" rx="2" ry="2" />
<text  x="17.77" y="207.5" >[unknown]</text>
</g>
<g >
<title>pimod (2,010,100,990 samples, 16.07%)</title><rect x="200.6" y="181" width="189.7" height="15.0" fill="rgb(225,164,32)" rx="2" ry="2" />
<text  x="203.63" y="191.5" >pimod</text>
</g>
<g >
<title>[bash] (10,101,010 samples, 0.08%)</title><rect x="10.0" y="197" width="1.0" height="15.0" fill="rgb(248,219,5)" rx="2" ry="2" />
<text  x="13.00" y="207.5" ></text>
</g>
<g >
<title>[[kernel.kallsyms]] (2,020,202,000 samples, 16.16%)</title><rect x="999.4" y="53" width="190.6" height="15.0" fill="rgb(206,153,27)" rx="2" ry="2" />
<text  x="1002.37" y="63.5" >[[kernel.kallsyms]]</text>
</g>
<g >
<title>pfactorQ (202,020,200 samples, 1.62%)</title><rect x="155.8" y="181" width="19.1" height="15.0" fill="rgb(253,142,2)" rx="2" ry="2" />
<text  x="158.83" y="191.5" ></text>
</g>
<g >
<title>[[kernel.kallsyms]] (2,020,202,000 samples, 16.16%)</title><rect x="999.4" y="69" width="190.6" height="15.0" fill="rgb(226,141,52)" rx="2" ry="2" />
<text  x="1002.37" y="79.5" >[[kernel.kallsyms]]</text>
</g>
<g >
<title>swapper (6,232,323,170 samples, 49.84%)</title><rect x="601.9" y="213" width="588.1" height="15.0" fill="rgb(238,216,47)" rx="2" ry="2" />
<text  x="604.91" y="223.5" >swapper</text>
</g>
<g >
<title>[[kernel.kallsyms]] (10,101,010 samples, 0.08%)</title><rect x="11.9" y="181" width="1.0" height="15.0" fill="rgb(210,110,21)" rx="2" ry="2" />
<text  x="14.91" y="191.5" ></text>
</g>
<g >
<title>[cfrac] (40,404,040 samples, 0.32%)</title><rect x="14.8" y="181" width="3.8" height="15.0" fill="rgb(209,144,29)" rx="2" ry="2" />
<text  x="17.77" y="191.5" ></text>
</g>
<g >
<title>[[kernel.kallsyms]] (4,212,121,170 samples, 33.68%)</title><rect x="601.9" y="101" width="397.5" height="15.0" fill="rgb(234,45,45)" rx="2" ry="2" />
<text  x="604.91" y="111.5" >[[kernel.kallsyms]]</text>
</g>
<g >
<title>[[kernel.kallsyms]] (10,101,010 samples, 0.08%)</title><rect x="11.0" y="117" width="0.9" height="15.0" fill="rgb(212,23,0)" rx="2" ry="2" />
<text  x="13.95" y="127.5" ></text>
</g>
<g >
<title>[[kernel.kallsyms]] (10,101,010 samples, 0.08%)</title><rect x="11.0" y="165" width="0.9" height="15.0" fill="rgb(231,74,35)" rx="2" ry="2" />
<text  x="13.95" y="175.5" ></text>
</g>
<g >
<title>pdivmod (979,797,970 samples, 7.84%)</title><rect x="501.8" y="197" width="92.5" height="15.0" fill="rgb(240,199,36)" rx="2" ry="2" />
<text  x="504.83" y="207.5" >pdivmod</text>
</g>
<g >
<title>_int_free (40,404,040 samples, 0.32%)</title><rect x="447.5" y="197" width="3.8" height="15.0" fill="rgb(207,54,21)" rx="2" ry="2" />
<text  x="450.50" y="207.5" ></text>
</g>
<g >
<title>[[kernel.kallsyms]] (10,101,010 samples, 0.08%)</title><rect x="11.0" y="53" width="0.9" height="15.0" fill="rgb(245,82,54)" rx="2" ry="2" />
<text  x="13.95" y="63.5" ></text>
</g>
<g >
<title>[[kernel.kallsyms]] (10,101,010 samples, 0.08%)</title><rect x="451.3" y="85" width="1.0" height="15.0" fill="rgb(221,203,26)" rx="2" ry="2" />
<text  x="454.31" y="95.5" ></text>
</g>
<g >
<title>[[kernel.kallsyms]] (2,020,202,000 samples, 16.16%)</title><rect x="999.4" y="117" width="190.6" height="15.0" fill="rgb(239,5,2)" rx="2" ry="2" />
<text  x="1002.37" y="127.5" >[[kernel.kallsyms]]</text>
</g>
<g >
<title>pcmpz (40,404,040 samples, 0.32%)</title><rect x="118.7" y="181" width="3.8" height="15.0" fill="rgb(215,48,37)" rx="2" ry="2" />
<text  x="121.66" y="191.5" ></text>
</g>
<g >
<title>cfrac (6,222,222,160 samples, 49.76%)</title><rect x="12.9" y="213" width="587.1" height="15.0" fill="rgb(243,204,48)" rx="2" ry="2" />
<text  x="15.86" y="223.5" >cfrac</text>
</g>
<g >
<title>dl_main (10,101,010 samples, 0.08%)</title><rect x="600.0" y="165" width="1.0" height="15.0" fill="rgb(243,170,30)" rx="2" ry="2" />
<text  x="603.00" y="175.5" ></text>
</g>
<g >
<title>[[kernel.kallsyms]] (10,101,010 samples, 0.08%)</title><rect x="173.9" y="133" width="1.0" height="15.0" fill="rgb(225,148,23)" rx="2" ry="2" />
<text  x="176.94" y="143.5" ></text>
</g>
<g >
<title>[[kernel.kallsyms]] (10,101,010 samples, 0.08%)</title><rect x="11.9" y="85" width="1.0" height="15.0" fill="rgb(243,93,43)" rx="2" ry="2" />
<text  x="14.91" y="95.5" ></text>
</g>
<g >
<title>[[kernel.kallsyms]] (10,101,010 samples, 0.08%)</title><rect x="451.3" y="165" width="1.0" height="15.0" fill="rgb(250,123,8)" rx="2" ry="2" />
<text  x="454.31" y="175.5" ></text>
</g>
<g >
<title>[[kernel.kallsyms]] (10,101,010 samples, 0.08%)</title><rect x="11.9" y="69" width="1.0" height="15.0" fill="rgb(225,173,53)" rx="2" ry="2" />
<text  x="14.91" y="79.5" ></text>
</g>
<g >
<title>_dl_relocate_object (10,101,010 samples, 0.08%)</title><rect x="600.0" y="149" width="1.0" height="15.0" fill="rgb(251,30,49)" rx="2" ry="2" />
<text  x="603.00" y="159.5" ></text>
</g>
<g >
<title>bench.sh (30,303,030 samples, 0.24%)</title><rect x="10.0" y="213" width="2.9" height="15.0" fill="rgb(218,168,14)" rx="2" ry="2" />
<text  x="13.00" y="223.5" ></text>
</g>
<g >
<title>[[kernel.kallsyms]] (10,101,010 samples, 0.08%)</title><rect x="451.3" y="181" width="1.0" height="15.0" fill="rgb(211,165,33)" rx="2" ry="2" />
<text  x="454.31" y="191.5" ></text>
</g>
<g >
<title>[cfrac] (20,202,020 samples, 0.16%)</title><rect x="12.9" y="197" width="1.9" height="15.0" fill="rgb(208,77,0)" rx="2" ry="2" />
<text  x="15.86" y="207.5" ></text>
</g>
<g >
<title>[unknown] (2,020,202,000 samples, 16.16%)</title><rect x="999.4" y="133" width="190.6" height="15.0" fill="rgb(249,206,34)" rx="2" ry="2" />
<text  x="1002.37" y="143.5" >[unknown]</text>
</g>
<g >
<title>[[kernel.kallsyms]] (10,101,010 samples, 0.08%)</title><rect x="451.3" y="117" width="1.0" height="15.0" fill="rgb(218,109,15)" rx="2" ry="2" />
<text  x="454.31" y="127.5" ></text>
</g>
<g >
<title>[unknown] (10,101,010 samples, 0.08%)</title><rect x="18.6" y="165" width="0.9" height="15.0" fill="rgb(226,207,6)" rx="2" ry="2" />
<text  x="21.58" y="175.5" ></text>
</g>
<g >
<title>[unknown] (10,101,010 samples, 0.08%)</title><rect x="601.0" y="197" width="0.9" height="15.0" fill="rgb(212,63,13)" rx="2" ry="2" />
<text  x="603.95" y="207.5" ></text>
</g>
<g >
<title>palloc (90,909,090 samples, 0.73%)</title><rect x="74.8" y="181" width="8.6" height="15.0" fill="rgb(208,228,37)" rx="2" ry="2" />
<text  x="77.81" y="191.5" ></text>
</g>
<g >
<title>pidiv (222,222,220 samples, 1.78%)</title><rect x="179.7" y="181" width="20.9" height="15.0" fill="rgb(205,33,24)" rx="2" ry="2" />
<text  x="182.66" y="191.5" ></text>
</g>
</g>
</svg>
