<?xml version="1.0" standalone="no"?>
<!DOCTYPE svg PUBLIC "-//W3C//DTD SVG 1.1//EN" "http://www.w3.org/Graphics/SVG/1.1/DTD/svg11.dtd">
<svg version="1.1" width="1200" height="342" onload="init(evt)" viewBox="0 0 1200 342" xmlns="http://www.w3.org/2000/svg" xmlns:xlink="http://www.w3.org/1999/xlink">
<!-- Flame graph stack visualization. See https://github.com/brendangregg/FlameGraph for latest version, and http://www.brendangregg.com/flamegraphs.html for examples. -->
<!-- NOTES:  -->
<defs>
	<linearGradient id="background" y1="0" y2="1" x1="0" x2="0" >
		<stop stop-color="#eeeeee" offset="5%" />
		<stop stop-color="#eeeeb0" offset="95%" />
	</linearGradient>
</defs>
<style type="text/css">
	text { font-family:Verdana; font-size:12px; fill:rgb(0,0,0); }
	#search, #ignorecase { opacity:0.1; cursor:pointer; }
	#search:hover, #search.show, #ignorecase:hover, #ignorecase.show { opacity:1; }
	#subtitle { text-anchor:middle; font-color:rgb(160,160,160); }
	#title { text-anchor:middle; font-size:17px}
	#unzoom { cursor:pointer; }
	#frames > *:hover { stroke:black; stroke-width:0.5; cursor:pointer; }
	.hide { display:none; }
	.parent { opacity:0.5; }
</style>
<script type="text/ecmascript">
<![CDATA[
	"use strict";
	var details, searchbtn, unzoombtn, matchedtxt, svg, searching, currentSearchTerm, ignorecase, ignorecaseBtn;
	function init(evt) {
		details = document.getElementById("details").firstChild;
		searchbtn = document.getElementById("search");
		ignorecaseBtn = document.getElementById("ignorecase");
		unzoombtn = document.getElementById("unzoom");
		matchedtxt = document.getElementById("matched");
		svg = document.getElementsByTagName("svg")[0];
		searching = 0;
		currentSearchTerm = null;

		// use GET parameters to restore a flamegraphs state.
		var params = get_params();
		if (params.x && params.y)
			zoom(find_group(document.querySelector('[x="' + params.x + '"][y="' + params.y + '"]')));
                if (params.s) search(params.s);
	}

	// event listeners
	window.addEventListener("click", function(e) {
		var target = find_group(e.target);
		if (target) {
			if (target.nodeName == "a") {
				if (e.ctrlKey === false) return;
				e.preventDefault();
			}
			if (target.classList.contains("parent")) unzoom(true);
			zoom(target);
			if (!document.querySelector('.parent')) {
				// we have basically done a clearzoom so clear the url
				var params = get_params();
				if (params.x) delete params.x;
				if (params.y) delete params.y;
				history.replaceState(null, null, parse_params(params));
				unzoombtn.classList.add("hide");
				return;
			}

			// set parameters for zoom state
			var el = target.querySelector("rect");
			if (el && el.attributes && el.attributes.y && el.attributes._orig_x) {
				var params = get_params()
				params.x = el.attributes._orig_x.value;
				params.y = el.attributes.y.value;
				history.replaceState(null, null, parse_params(params));
			}
		}
		else if (e.target.id == "unzoom") clearzoom();
		else if (e.target.id == "search") search_prompt();
		else if (e.target.id == "ignorecase") toggle_ignorecase();
	}, false)

	// mouse-over for info
	// show
	window.addEventListener("mouseover", function(e) {
		var target = find_group(e.target);
		if (target) details.nodeValue = "Function: " + g_to_text(target);
	}, false)

	// clear
	window.addEventListener("mouseout", function(e) {
		var target = find_group(e.target);
		if (target) details.nodeValue = ' ';
	}, false)

	// ctrl-F for search
	// ctrl-I to toggle case-sensitive search
	window.addEventListener("keydown",function (e) {
		if (e.keyCode === 114 || (e.ctrlKey && e.keyCode === 70)) {
			e.preventDefault();
			search_prompt();
		}
		else if (e.ctrlKey && e.keyCode === 73) {
			e.preventDefault();
			toggle_ignorecase();
		}
	}, false)

	// functions
	function get_params() {
		var params = {};
		var paramsarr = window.location.search.substr(1).split('&');
		for (var i = 0; i < paramsarr.length; ++i) {
			var tmp = paramsarr[i].split("=");
			if (!tmp[0] || !tmp[1]) continue;
			params[tmp[0]]  = decodeURIComponent(tmp[1]);
		}
		return params;
	}
	function parse_params(params) {
		var uri = "?";
		for (var key in params) {
			uri += key + '=' + encodeURIComponent(params[key]) + '&';
		}
		if (uri.slice(-1) == "&")
			uri = uri.substring(0, uri.length - 1);
		if (uri == '?')
			uri = window.location.href.split('?')[0];
		return uri;
	}
	function find_child(node, selector) {
		var children = node.querySelectorAll(selector);
		if (children.length) return children[0];
	}
	function find_group(node) {
		var parent = node.parentElement;
		if (!parent) return;
		if (parent.id == "frames") return node;
		return find_group(parent);
	}
	function orig_save(e, attr, val) {
		if (e.attributes["_orig_" + attr] != undefined) return;
		if (e.attributes[attr] == undefined) return;
		if (val == undefined) val = e.attributes[attr].value;
		e.setAttribute("_orig_" + attr, val);
	}
	function orig_load(e, attr) {
		if (e.attributes["_orig_"+attr] == undefined) return;
		e.attributes[attr].value = e.attributes["_orig_" + attr].value;
		e.removeAttribute("_orig_"+attr);
	}
	function g_to_text(e) {
		var text = find_child(e, "title").firstChild.nodeValue;
		return (text)
	}
	function g_to_func(e) {
		var func = g_to_text(e);
		// if there's any manipulation we want to do to the function
		// name before it's searched, do it here before returning.
		return (func);
	}
	function update_text(e) {
		var r = find_child(e, "rect");
		var t = find_child(e, "text");
		var w = parseFloat(r.attributes.width.value) -3;
		var txt = find_child(e, "title").textContent.replace(/\([^(]*\)$/,"");
		t.attributes.x.value = parseFloat(r.attributes.x.value) + 3;

		// Smaller than this size won't fit anything
		if (w < 2 * 12 * 0.59) {
			t.textContent = "";
			return;
		}

		t.textContent = txt;
		var sl = t.getSubStringLength(0, txt.length);
		// check if only whitespace or if we can fit the entire string into width w
		if (/^ *$/.test(txt) || sl < w)
			return;

		// this isn't perfect, but gives a good starting point
		// and avoids calling getSubStringLength too often
		var start = Math.floor((w/sl) * txt.length);
		for (var x = start; x > 0; x = x-2) {
			if (t.getSubStringLength(0, x + 2) <= w) {
				t.textContent = txt.substring(0, x) + "..";
				return;
			}
		}
		t.textContent = "";
	}

	// zoom
	function zoom_reset(e) {
		if (e.attributes != undefined) {
			orig_load(e, "x");
			orig_load(e, "width");
		}
		if (e.childNodes == undefined) return;
		for (var i = 0, c = e.childNodes; i < c.length; i++) {
			zoom_reset(c[i]);
		}
	}
	function zoom_child(e, x, ratio) {
		if (e.attributes != undefined) {
			if (e.attributes.x != undefined) {
				orig_save(e, "x");
				e.attributes.x.value = (parseFloat(e.attributes.x.value) - x - 10) * ratio + 10;
				if (e.tagName == "text")
					e.attributes.x.value = find_child(e.parentNode, "rect[x]").attributes.x.value + 3;
			}
			if (e.attributes.width != undefined) {
				orig_save(e, "width");
				e.attributes.width.value = parseFloat(e.attributes.width.value) * ratio;
			}
		}

		if (e.childNodes == undefined) return;
		for (var i = 0, c = e.childNodes; i < c.length; i++) {
			zoom_child(c[i], x - 10, ratio);
		}
	}
	function zoom_parent(e) {
		if (e.attributes) {
			if (e.attributes.x != undefined) {
				orig_save(e, "x");
				e.attributes.x.value = 10;
			}
			if (e.attributes.width != undefined) {
				orig_save(e, "width");
				e.attributes.width.value = parseInt(svg.width.baseVal.value) - (10 * 2);
			}
		}
		if (e.childNodes == undefined) return;
		for (var i = 0, c = e.childNodes; i < c.length; i++) {
			zoom_parent(c[i]);
		}
	}
	function zoom(node) {
		var attr = find_child(node, "rect").attributes;
		var width = parseFloat(attr.width.value);
		var xmin = parseFloat(attr.x.value);
		var xmax = parseFloat(xmin + width);
		var ymin = parseFloat(attr.y.value);
		var ratio = (svg.width.baseVal.value - 2 * 10) / width;

		// XXX: Workaround for JavaScript float issues (fix me)
		var fudge = 0.0001;

		unzoombtn.classList.remove("hide");

		var el = document.getElementById("frames").children;
		for (var i = 0; i < el.length; i++) {
			var e = el[i];
			var a = find_child(e, "rect").attributes;
			var ex = parseFloat(a.x.value);
			var ew = parseFloat(a.width.value);
			var upstack;
			// Is it an ancestor
			if (0 == 0) {
				upstack = parseFloat(a.y.value) > ymin;
			} else {
				upstack = parseFloat(a.y.value) < ymin;
			}
			if (upstack) {
				// Direct ancestor
				if (ex <= xmin && (ex+ew+fudge) >= xmax) {
					e.classList.add("parent");
					zoom_parent(e);
					update_text(e);
				}
				// not in current path
				else
					e.classList.add("hide");
			}
			// Children maybe
			else {
				// no common path
				if (ex < xmin || ex + fudge >= xmax) {
					e.classList.add("hide");
				}
				else {
					zoom_child(e, xmin, ratio);
					update_text(e);
				}
			}
		}
		search();
	}
	function unzoom(dont_update_text) {
		unzoombtn.classList.add("hide");
		var el = document.getElementById("frames").children;
		for(var i = 0; i < el.length; i++) {
			el[i].classList.remove("parent");
			el[i].classList.remove("hide");
			zoom_reset(el[i]);
			if(!dont_update_text) update_text(el[i]);
		}
		search();
	}
	function clearzoom() {
		unzoom();

		// remove zoom state
		var params = get_params();
		if (params.x) delete params.x;
		if (params.y) delete params.y;
		history.replaceState(null, null, parse_params(params));
	}

	// search
	function toggle_ignorecase() {
		ignorecase = !ignorecase;
		if (ignorecase) {
			ignorecaseBtn.classList.add("show");
		} else {
			ignorecaseBtn.classList.remove("show");
		}
		reset_search();
		search();
	}
	function reset_search() {
		var el = document.querySelectorAll("#frames rect");
		for (var i = 0; i < el.length; i++) {
			orig_load(el[i], "fill")
		}
		var params = get_params();
		delete params.s;
		history.replaceState(null, null, parse_params(params));
	}
	function search_prompt() {
		if (!searching) {
			var term = prompt("Enter a search term (regexp " +
			    "allowed, eg: ^ext4_)"
			    + (ignorecase ? ", ignoring case" : "")
			    + "\nPress Ctrl-i to toggle case sensitivity", "");
			if (term != null) search(term);
		} else {
			reset_search();
			searching = 0;
			currentSearchTerm = null;
			searchbtn.classList.remove("show");
			searchbtn.firstChild.nodeValue = "Search"
			matchedtxt.classList.add("hide");
			matchedtxt.firstChild.nodeValue = ""
		}
	}
	function search(term) {
		if (term) currentSearchTerm = term;

		var re = new RegExp(currentSearchTerm, ignorecase ? 'i' : '');
		var el = document.getElementById("frames").children;
		var matches = new Object();
		var maxwidth = 0;
		for (var i = 0; i < el.length; i++) {
			var e = el[i];
			var func = g_to_func(e);
			var rect = find_child(e, "rect");
			if (func == null || rect == null)
				continue;

			// Save max width. Only works as we have a root frame
			var w = parseFloat(rect.attributes.width.value);
			if (w > maxwidth)
				maxwidth = w;

			if (func.match(re)) {
				// highlight
				var x = parseFloat(rect.attributes.x.value);
				orig_save(rect, "fill");
				rect.attributes.fill.value = "rgb(230,0,230)";

				// remember matches
				if (matches[x] == undefined) {
					matches[x] = w;
				} else {
					if (w > matches[x]) {
						// overwrite with parent
						matches[x] = w;
					}
				}
				searching = 1;
			}
		}
		if (!searching)
			return;
		var params = get_params();
		params.s = currentSearchTerm;
		history.replaceState(null, null, parse_params(params));

		searchbtn.classList.add("show");
		searchbtn.firstChild.nodeValue = "Reset Search";

		// calculate percent matched, excluding vertical overlap
		var count = 0;
		var lastx = -1;
		var lastw = 0;
		var keys = Array();
		for (k in matches) {
			if (matches.hasOwnProperty(k))
				keys.push(k);
		}
		// sort the matched frames by their x location
		// ascending, then width descending
		keys.sort(function(a, b){
			return a - b;
		});
		// Step through frames saving only the biggest bottom-up frames
		// thanks to the sort order. This relies on the tree property
		// where children are always smaller than their parents.
		var fudge = 0.0001;	// JavaScript floating point
		for (var k in keys) {
			var x = parseFloat(keys[k]);
			var w = matches[keys[k]];
			if (x >= lastx + lastw - fudge) {
				count += w;
				lastx = x;
				lastw = w;
			}
		}
		// display matched percent
		matchedtxt.classList.remove("hide");
		var pct = 100 * count / maxwidth;
		if (pct != 100) pct = pct.toFixed(1)
		matchedtxt.firstChild.nodeValue = "Matched: " + pct + "%";
	}
]]>
</script>
<rect x="0.0" y="0" width="1200.0" height="342.0" fill="url(#background)"  />
<text id="title" x="600.00" y="24" >Flame Graph</text>
<text id="details" x="10.00" y="325" > </text>
<text id="unzoom" x="10.00" y="24" class="hide">Reset Zoom</text>
<text id="search" x="1090.00" y="24" >Search</text>
<text id="ignorecase" x="1174.00" y="24" >ic</text>
<text id="matched" x="1090.00" y="325" > </text>
<g id="frames">
<g >
<title>[[kernel.kallsyms]] (20,202,020 samples, 0.13%)</title><rect x="600.8" y="229" width="1.5" height="15.0" fill="rgb(239,23,2)" rx="2" ry="2" />
<text  x="603.78" y="239.5" ></text>
</g>
<g >
<title>__close (10,101,010 samples, 0.07%)</title><rect x="602.3" y="261" width="0.8" height="15.0" fill="rgb(251,131,36)" rx="2" ry="2" />
<text  x="605.33" y="271.5" ></text>
</g>
<g >
<title>[[kernel.kallsyms]] (7,040,403,970 samples, 45.92%)</title><rect x="603.1" y="229" width="541.8" height="15.0" fill="rgb(236,103,20)" rx="2" ry="2" />
<text  x="606.11" y="239.5" >[[kernel.kallsyms]]</text>
</g>
<g >
<title>[[kernel.kallsyms]] (7,626,262,550 samples, 49.74%)</title><rect x="603.1" y="261" width="586.9" height="15.0" fill="rgb(208,40,16)" rx="2" ry="2" />
<text  x="606.11" y="271.5" >[[kernel.kallsyms]]</text>
</g>
<g >
<title>[[kernel.kallsyms]] (10,101,010 samples, 0.07%)</title><rect x="601.6" y="101" width="0.7" height="15.0" fill="rgb(217,159,51)" rx="2" ry="2" />
<text  x="604.55" y="111.5" ></text>
</g>
<g >
<title>__TBB_malloc_safer_free (40,404,040 samples, 0.26%)</title><rect x="45.0" y="213" width="3.1" height="15.0" fill="rgb(216,201,19)" rx="2" ry="2" />
<text  x="47.98" y="223.5" ></text>
</g>
<g >
<title>[[kernel.kallsyms]] (10,101,010 samples, 0.07%)</title><rect x="599.2" y="181" width="0.8" height="15.0" fill="rgb(248,79,0)" rx="2" ry="2" />
<text  x="602.22" y="191.5" ></text>
</g>
<g >
<title>[[kernel.kallsyms]] (7,040,403,970 samples, 45.92%)</title><rect x="603.1" y="181" width="541.8" height="15.0" fill="rgb(250,25,10)" rx="2" ry="2" />
<text  x="606.11" y="191.5" >[[kernel.kallsyms]]</text>
</g>
<g >
<title>bench.sh (10,101,010 samples, 0.07%)</title><rect x="10.0" y="277" width="0.8" height="15.0" fill="rgb(239,58,14)" rx="2" ry="2" />
<text  x="13.00" y="287.5" ></text>
</g>
<g >
<title>[[kernel.kallsyms]] (10,101,010 samples, 0.07%)</title><rect x="599.2" y="165" width="0.8" height="15.0" fill="rgb(205,57,35)" rx="2" ry="2" />
<text  x="602.22" y="175.5" ></text>
</g>
<g >
<title>__pthread_getspecific (151,515,150 samples, 0.99%)</title><rect x="102.5" y="245" width="11.7" height="15.0" fill="rgb(237,108,16)" rx="2" ry="2" />
<text  x="105.50" y="255.5" ></text>
</g>
<g >
<title>[[kernel.kallsyms]] (10,101,010 samples, 0.07%)</title><rect x="600.0" y="229" width="0.8" height="15.0" fill="rgb(238,170,47)" rx="2" ry="2" />
<text  x="603.00" y="239.5" ></text>
</g>
<g >
<title>palloc (10,101,010 samples, 0.07%)</title><rect x="509.1" y="261" width="0.7" height="15.0" fill="rgb(235,108,1)" rx="2" ry="2" />
<text  x="512.05" y="271.5" ></text>
</g>
<g >
<title>[[kernel.kallsyms]] (585,858,580 samples, 3.82%)</title><rect x="1144.9" y="117" width="45.1" height="15.0" fill="rgb(241,90,24)" rx="2" ry="2" />
<text  x="1147.91" y="127.5" >[[ke..</text>
</g>
<g >
<title>[[kernel.kallsyms]] (10,101,010 samples, 0.07%)</title><rect x="602.3" y="213" width="0.8" height="15.0" fill="rgb(231,173,32)" rx="2" ry="2" />
<text  x="605.33" y="223.5" ></text>
</g>
<g >
<title>redis-server (30,303,030 samples, 0.20%)</title><rect x="600.8" y="277" width="2.3" height="15.0" fill="rgb(233,30,28)" rx="2" ry="2" />
<text  x="603.78" y="287.5" ></text>
</g>
<g >
<title>[[kernel.kallsyms]] (585,858,580 samples, 3.82%)</title><rect x="1144.9" y="181" width="45.1" height="15.0" fill="rgb(214,197,31)" rx="2" ry="2" />
<text  x="1147.91" y="191.5" >[[ke..</text>
</g>
<g >
<title>[[kernel.kallsyms]] (10,101,010 samples, 0.07%)</title><rect x="602.3" y="197" width="0.8" height="15.0" fill="rgb(222,122,37)" rx="2" ry="2" />
<text  x="605.33" y="207.5" ></text>
</g>
<g >
<title>palloc (30,303,030 samples, 0.20%)</title><rect x="127.4" y="245" width="2.3" height="15.0" fill="rgb(230,28,38)" rx="2" ry="2" />
<text  x="130.38" y="255.5" ></text>
</g>
<g >
<title>[[kernel.kallsyms]] (10,101,010 samples, 0.07%)</title><rect x="599.2" y="149" width="0.8" height="15.0" fill="rgb(230,171,19)" rx="2" ry="2" />
<text  x="602.22" y="159.5" ></text>
</g>
<g >
<title>pfree (70,707,070 samples, 0.46%)</title><rect x="223.8" y="245" width="5.4" height="15.0" fill="rgb(230,59,15)" rx="2" ry="2" />
<text  x="226.77" y="255.5" ></text>
</g>
<g >
<title>[unknown] (10,101,010 samples, 0.07%)</title><rect x="41.9" y="181" width="0.7" height="15.0" fill="rgb(250,131,5)" rx="2" ry="2" />
<text  x="44.87" y="191.5" ></text>
</g>
<g >
<title>__TBB_malloc_safer_free (10,101,010 samples, 0.07%)</title><rect x="41.9" y="133" width="0.7" height="15.0" fill="rgb(239,62,10)" rx="2" ry="2" />
<text  x="44.87" y="143.5" ></text>
</g>
<g >
<title>podd (30,303,030 samples, 0.20%)</title><rect x="416.5" y="245" width="2.4" height="15.0" fill="rgb(227,61,28)" rx="2" ry="2" />
<text  x="419.55" y="255.5" ></text>
</g>
<g >
<title>[[kernel.kallsyms]] (10,101,010 samples, 0.07%)</title><rect x="1144.1" y="133" width="0.8" height="15.0" fill="rgb(220,15,30)" rx="2" ry="2" />
<text  x="1147.14" y="143.5" ></text>
</g>
<g >
<title>[[kernel.kallsyms]] (10,101,010 samples, 0.07%)</title><rect x="600.0" y="213" width="0.8" height="15.0" fill="rgb(222,216,27)" rx="2" ry="2" />
<text  x="603.00" y="223.5" ></text>
</g>
<g >
<title>swapper (7,626,262,550 samples, 49.74%)</title><rect x="603.1" y="277" width="586.9" height="15.0" fill="rgb(248,143,6)" rx="2" ry="2" />
<text  x="606.11" y="287.5" >swapper</text>
</g>
<g >
<title>_start (10,101,010 samples, 0.07%)</title><rect x="599.2" y="261" width="0.8" height="15.0" fill="rgb(239,120,10)" rx="2" ry="2" />
<text  x="602.22" y="271.5" ></text>
</g>
<g >
<title>[[kernel.kallsyms]] (7,040,403,970 samples, 45.92%)</title><rect x="603.1" y="197" width="541.8" height="15.0" fill="rgb(249,196,47)" rx="2" ry="2" />
<text  x="606.11" y="207.5" >[[kernel.kallsyms]]</text>
</g>
<g >
<title>__memset_avx2_unaligned_erms (20,202,020 samples, 0.13%)</title><rect x="100.9" y="245" width="1.6" height="15.0" fill="rgb(242,98,9)" rx="2" ry="2" />
<text  x="103.95" y="255.5" ></text>
</g>
<g >
<title>drm_atomic_helper_dirtyfb (10,101,010 samples, 0.07%)</title><rect x="600.0" y="181" width="0.8" height="15.0" fill="rgb(241,34,5)" rx="2" ry="2" />
<text  x="603.00" y="191.5" ></text>
</g>
<g >
<title>pfactorQ (171,717,170 samples, 1.12%)</title><rect x="210.6" y="245" width="13.2" height="15.0" fill="rgb(252,1,33)" rx="2" ry="2" />
<text  x="213.55" y="255.5" ></text>
</g>
<g >
<title>[unknown] (10,101,010 samples, 0.07%)</title><rect x="41.9" y="149" width="0.7" height="15.0" fill="rgb(222,73,54)" rx="2" ry="2" />
<text  x="44.87" y="159.5" ></text>
</g>
<g >
<title>padd (40,404,040 samples, 0.26%)</title><rect x="48.9" y="213" width="3.1" height="15.0" fill="rgb(225,69,26)" rx="2" ry="2" />
<text  x="51.87" y="223.5" ></text>
</g>
<g >
<title>pdivmod (939,393,930 samples, 6.13%)</title><rect x="509.8" y="261" width="72.3" height="15.0" fill="rgb(231,49,11)" rx="2" ry="2" />
<text  x="512.83" y="271.5" >pdivmod</text>
</g>
<g >
<title>pmul (171,717,170 samples, 1.12%)</title><rect x="403.3" y="245" width="13.2" height="15.0" fill="rgb(208,184,40)" rx="2" ry="2" />
<text  x="406.33" y="255.5" ></text>
</g>
<g >
<title>[[kernel.kallsyms]] (10,101,010 samples, 0.07%)</title><rect x="601.6" y="53" width="0.7" height="15.0" fill="rgb(207,62,18)" rx="2" ry="2" />
<text  x="604.55" y="63.5" ></text>
</g>
<g >
<title>[[kernel.kallsyms]] (10,101,010 samples, 0.07%)</title><rect x="601.6" y="149" width="0.7" height="15.0" fill="rgb(205,53,22)" rx="2" ry="2" />
<text  x="604.55" y="159.5" ></text>
</g>
<g >
<title>padd (141,414,140 samples, 0.92%)</title><rect x="116.5" y="245" width="10.9" height="15.0" fill="rgb(218,198,44)" rx="2" ry="2" />
<text  x="119.50" y="255.5" ></text>
</g>
<g >
<title>[unknown] (10,101,010 samples, 0.07%)</title><rect x="41.9" y="165" width="0.7" height="15.0" fill="rgb(212,164,4)" rx="2" ry="2" />
<text  x="44.87" y="175.5" ></text>
</g>
<g >
<title>[cfrac] (70,707,070 samples, 0.46%)</title><rect x="10.8" y="261" width="5.4" height="15.0" fill="rgb(229,72,21)" rx="2" ry="2" />
<text  x="13.78" y="271.5" ></text>
</g>
<g >
<title>[unknown] (40,404,040 samples, 0.26%)</title><rect x="41.9" y="213" width="3.1" height="15.0" fill="rgb(228,128,52)" rx="2" ry="2" />
<text  x="44.87" y="223.5" ></text>
</g>
<g >
<title>[[kernel.kallsyms]] (10,101,010 samples, 0.07%)</title><rect x="599.2" y="133" width="0.8" height="15.0" fill="rgb(247,0,23)" rx="2" ry="2" />
<text  x="602.22" y="143.5" ></text>
</g>
<g >
<title>[[kernel.kallsyms]] (10,101,010 samples, 0.07%)</title><rect x="600.0" y="149" width="0.8" height="15.0" fill="rgb(242,20,3)" rx="2" ry="2" />
<text  x="603.00" y="159.5" ></text>
</g>
<g >
<title>phalf (20,202,020 samples, 0.13%)</title><rect x="229.2" y="245" width="1.6" height="15.0" fill="rgb(236,129,13)" rx="2" ry="2" />
<text  x="232.21" y="255.5" ></text>
</g>
<g >
<title>[[kernel.kallsyms]] (7,040,403,970 samples, 45.92%)</title><rect x="603.1" y="245" width="541.8" height="15.0" fill="rgb(205,165,34)" rx="2" ry="2" />
<text  x="606.11" y="255.5" >[[kernel.kallsyms]]</text>
</g>
<g >
<title>[[kernel.kallsyms]] (10,101,010 samples, 0.07%)</title><rect x="601.6" y="165" width="0.7" height="15.0" fill="rgb(212,198,27)" rx="2" ry="2" />
<text  x="604.55" y="175.5" ></text>
</g>
<g >
<title>__TBB_malloc_safer_free (626,262,620 samples, 4.08%)</title><rect x="52.8" y="245" width="48.1" height="15.0" fill="rgb(214,18,35)" rx="2" ry="2" />
<text  x="55.75" y="255.5" >__TB..</text>
</g>
<g >
<title>[[kernel.kallsyms]] (10,101,010 samples, 0.07%)</title><rect x="602.3" y="229" width="0.8" height="15.0" fill="rgb(208,38,25)" rx="2" ry="2" />
<text  x="605.33" y="239.5" ></text>
</g>
<g >
<title>kworker/1:1-eve (10,101,010 samples, 0.07%)</title><rect x="600.0" y="277" width="0.8" height="15.0" fill="rgb(220,140,2)" rx="2" ry="2" />
<text  x="603.00" y="287.5" ></text>
</g>
<g >
<title>scalable_malloc (10,101,010 samples, 0.07%)</title><rect x="505.2" y="245" width="0.7" height="15.0" fill="rgb(212,14,32)" rx="2" ry="2" />
<text  x="508.16" y="255.5" ></text>
</g>
<g >
<title>[[kernel.kallsyms]] (10,101,010 samples, 0.07%)</title><rect x="601.6" y="85" width="0.7" height="15.0" fill="rgb(236,141,25)" rx="2" ry="2" />
<text  x="604.55" y="95.5" ></text>
</g>
<g >
<title>[[kernel.kallsyms]] (20,202,020 samples, 0.13%)</title><rect x="600.8" y="213" width="1.5" height="15.0" fill="rgb(240,89,9)" rx="2" ry="2" />
<text  x="603.78" y="223.5" ></text>
</g>
<g >
<title>pfree (10,101,010 samples, 0.07%)</title><rect x="52.0" y="213" width="0.8" height="15.0" fill="rgb(205,82,48)" rx="2" ry="2" />
<text  x="54.98" y="223.5" ></text>
</g>
<g >
<title>[[kernel.kallsyms]] (10,101,010 samples, 0.07%)</title><rect x="599.2" y="117" width="0.8" height="15.0" fill="rgb(223,101,42)" rx="2" ry="2" />
<text  x="602.22" y="127.5" ></text>
</g>
<g >
<title>[[kernel.kallsyms]] (585,858,580 samples, 3.82%)</title><rect x="1144.9" y="101" width="45.1" height="15.0" fill="rgb(214,206,7)" rx="2" ry="2" />
<text  x="1147.91" y="111.5" >[[ke..</text>
</g>
<g >
<title>dirname (10,101,010 samples, 0.07%)</title><rect x="599.2" y="277" width="0.8" height="15.0" fill="rgb(243,77,16)" rx="2" ry="2" />
<text  x="602.22" y="287.5" ></text>
</g>
<g >
<title>[[kernel.kallsyms]] (10,101,010 samples, 0.07%)</title><rect x="600.0" y="261" width="0.8" height="15.0" fill="rgb(243,200,49)" rx="2" ry="2" />
<text  x="603.00" y="271.5" ></text>
</g>
<g >
<title>[unknown] (585,858,580 samples, 3.82%)</title><rect x="1144.9" y="245" width="45.1" height="15.0" fill="rgb(209,4,8)" rx="2" ry="2" />
<text  x="1147.91" y="255.5" >[unk..</text>
</g>
<g >
<title>pnorm (20,202,020 samples, 0.13%)</title><rect x="585.2" y="261" width="1.6" height="15.0" fill="rgb(245,76,38)" rx="2" ry="2" />
<text  x="588.23" y="271.5" ></text>
</g>
<g >
<title>[[kernel.kallsyms]] (20,202,020 samples, 0.13%)</title><rect x="600.8" y="197" width="1.5" height="15.0" fill="rgb(228,221,34)" rx="2" ry="2" />
<text  x="603.78" y="207.5" ></text>
</g>
<g >
<title>[[kernel.kallsyms]] (7,040,403,970 samples, 45.92%)</title><rect x="603.1" y="213" width="541.8" height="15.0" fill="rgb(226,77,48)" rx="2" ry="2" />
<text  x="606.11" y="223.5" >[[kernel.kallsyms]]</text>
</g>
<g >
<title>[[kernel.kallsyms]] (10,101,010 samples, 0.07%)</title><rect x="1144.1" y="117" width="0.8" height="15.0" fill="rgb(242,98,24)" rx="2" ry="2" />
<text  x="1147.14" y="127.5" ></text>
</g>
<g >
<title>rml::internal::internalPoolMalloc (707,070,700 samples, 4.61%)</title><rect x="450.8" y="245" width="54.4" height="15.0" fill="rgb(221,60,18)" rx="2" ry="2" />
<text  x="453.75" y="255.5" >rml::..</text>
</g>
<g >
<title>[[kernel.kallsyms]] (10,101,010 samples, 0.07%)</title><rect x="601.6" y="37" width="0.7" height="15.0" fill="rgb(205,197,23)" rx="2" ry="2" />
<text  x="604.55" y="47.5" ></text>
</g>
<g >
<title>pdivmod (454,545,450 samples, 2.96%)</title><rect x="175.6" y="245" width="35.0" height="15.0" fill="rgb(209,102,9)" rx="2" ry="2" />
<text  x="178.57" y="255.5" >pd..</text>
</g>
<g >
<title>[unknown] (10,101,010 samples, 0.07%)</title><rect x="10.0" y="261" width="0.8" height="15.0" fill="rgb(247,159,31)" rx="2" ry="2" />
<text  x="13.00" y="271.5" ></text>
</g>
<g >
<title>rml::internal::internalMalloc (121,212,120 samples, 0.79%)</title><rect x="441.4" y="245" width="9.4" height="15.0" fill="rgb(250,135,30)" rx="2" ry="2" />
<text  x="444.42" y="255.5" ></text>
</g>
<g >
<title>[[kernel.kallsyms]] (7,040,403,970 samples, 45.92%)</title><rect x="603.1" y="165" width="541.8" height="15.0" fill="rgb(220,45,38)" rx="2" ry="2" />
<text  x="606.11" y="175.5" >[[kernel.kallsyms]]</text>
</g>
<g >
<title>[[kernel.kallsyms]] (10,101,010 samples, 0.07%)</title><rect x="599.2" y="197" width="0.8" height="15.0" fill="rgb(240,151,47)" rx="2" ry="2" />
<text  x="602.22" y="207.5" ></text>
</g>
<g >
<title>rml::internal::internalMalloc (60,606,060 samples, 0.40%)</title><rect x="586.8" y="261" width="4.6" height="15.0" fill="rgb(208,93,13)" rx="2" ry="2" />
<text  x="589.79" y="271.5" ></text>
</g>
<g >
<title>[[kernel.kallsyms]] (585,858,580 samples, 3.82%)</title><rect x="1144.9" y="133" width="45.1" height="15.0" fill="rgb(205,135,34)" rx="2" ry="2" />
<text  x="1147.91" y="143.5" >[[ke..</text>
</g>
<g >
<title>[[kernel.kallsyms]] (10,101,010 samples, 0.07%)</title><rect x="602.3" y="149" width="0.8" height="15.0" fill="rgb(229,60,14)" rx="2" ry="2" />
<text  x="605.33" y="159.5" ></text>
</g>
<g >
<title>pimod (2,060,606,040 samples, 13.44%)</title><rect x="244.8" y="245" width="158.5" height="15.0" fill="rgb(211,94,45)" rx="2" ry="2" />
<text  x="247.76" y="255.5" >pimod</text>
</g>
<g >
<title>[[kernel.kallsyms]] (10,101,010 samples, 0.07%)</title><rect x="601.6" y="181" width="0.7" height="15.0" fill="rgb(234,83,14)" rx="2" ry="2" />
<text  x="604.55" y="191.5" ></text>
</g>
<g >
<title>malloc (40,404,040 samples, 0.26%)</title><rect x="505.9" y="261" width="3.2" height="15.0" fill="rgb(244,34,24)" rx="2" ry="2" />
<text  x="508.94" y="271.5" ></text>
</g>
<g >
<title>scalable_malloc (20,202,020 samples, 0.13%)</title><rect x="597.7" y="261" width="1.5" height="15.0" fill="rgb(212,212,46)" rx="2" ry="2" />
<text  x="600.67" y="271.5" ></text>
</g>
<g >
<title>__TBB_malloc_safer_free (10,101,010 samples, 0.07%)</title><rect x="42.6" y="181" width="0.8" height="15.0" fill="rgb(217,149,15)" rx="2" ry="2" />
<text  x="45.65" y="191.5" ></text>
</g>
<g >
<title>[[kernel.kallsyms]] (585,858,580 samples, 3.82%)</title><rect x="1144.9" y="149" width="45.1" height="15.0" fill="rgb(220,4,13)" rx="2" ry="2" />
<text  x="1147.91" y="159.5" >[[ke..</text>
</g>
<g >
<title>[[kernel.kallsyms]] (10,101,010 samples, 0.07%)</title><rect x="599.2" y="229" width="0.8" height="15.0" fill="rgb(227,184,33)" rx="2" ry="2" />
<text  x="602.22" y="239.5" ></text>
</g>
<g >
<title>drm_atomic_state_alloc (10,101,010 samples, 0.07%)</title><rect x="600.0" y="165" width="0.8" height="15.0" fill="rgb(248,213,37)" rx="2" ry="2" />
<text  x="603.00" y="175.5" ></text>
</g>
<g >
<title>unquoted_glob_pattern_p (10,101,010 samples, 0.07%)</title><rect x="10.0" y="245" width="0.8" height="15.0" fill="rgb(219,7,9)" rx="2" ry="2" />
<text  x="13.00" y="255.5" ></text>
</g>
<g >
<title>all (15,333,333,180 samples, 100%)</title><rect x="10.0" y="293" width="1180.0" height="15.0" fill="rgb(217,77,7)" rx="2" ry="2" />
<text  x="13.00" y="303.5" ></text>
</g>
<g >
<title>[libtbbmalloc_proxy.so.2.9] (80,808,080 samples, 0.53%)</title><rect x="35.7" y="245" width="6.2" height="15.0" fill="rgb(210,14,53)" rx="2" ry="2" />
<text  x="38.65" y="255.5" ></text>
</g>
<g >
<title>drm_fb_helper_damage_work (10,101,010 samples, 0.07%)</title><rect x="600.0" y="197" width="0.8" height="15.0" fill="rgb(221,178,51)" rx="2" ry="2" />
<text  x="603.00" y="207.5" ></text>
</g>
<g >
<title>[[kernel.kallsyms]] (585,858,580 samples, 3.82%)</title><rect x="1144.9" y="165" width="45.1" height="15.0" fill="rgb(230,46,46)" rx="2" ry="2" />
<text  x="1147.91" y="175.5" >[[ke..</text>
</g>
<g >
<title>psub (282,828,280 samples, 1.84%)</title><rect x="418.9" y="245" width="21.7" height="15.0" fill="rgb(209,11,3)" rx="2" ry="2" />
<text  x="421.88" y="255.5" >p..</text>
</g>
<g >
<title>pcmp (303,030,300 samples, 1.98%)</title><rect x="147.6" y="245" width="23.3" height="15.0" fill="rgb(239,29,5)" rx="2" ry="2" />
<text  x="150.59" y="255.5" >p..</text>
</g>
<g >
<title>[[kernel.kallsyms]] (10,101,010 samples, 0.07%)</title><rect x="599.2" y="245" width="0.8" height="15.0" fill="rgb(238,220,47)" rx="2" ry="2" />
<text  x="602.22" y="255.5" ></text>
</g>
<g >
<title>[unknown] (141,414,140 samples, 0.92%)</title><rect x="41.9" y="245" width="10.9" height="15.0" fill="rgb(217,171,28)" rx="2" ry="2" />
<text  x="44.87" y="255.5" ></text>
</g>
<g >
<title>[unknown] (585,858,580 samples, 3.82%)</title><rect x="1144.9" y="213" width="45.1" height="15.0" fill="rgb(234,123,21)" rx="2" ry="2" />
<text  x="1147.91" y="223.5" >[unk..</text>
</g>
<g >
<title>[unknown] (20,202,020 samples, 0.13%)</title><rect x="41.9" y="197" width="1.5" height="15.0" fill="rgb(219,152,3)" rx="2" ry="2" />
<text  x="44.87" y="207.5" ></text>
</g>
<g >
<title>pfree (40,404,040 samples, 0.26%)</title><rect x="582.1" y="261" width="3.1" height="15.0" fill="rgb(226,174,9)" rx="2" ry="2" />
<text  x="585.12" y="271.5" ></text>
</g>
<g >
<title>[unknown] (6,343,434,280 samples, 41.37%)</title><rect x="17.8" y="261" width="488.1" height="15.0" fill="rgb(242,14,21)" rx="2" ry="2" />
<text  x="20.77" y="271.5" >[unknown]</text>
</g>
<g >
<title>pcmpz (60,606,060 samples, 0.40%)</title><rect x="170.9" y="245" width="4.7" height="15.0" fill="rgb(214,151,3)" rx="2" ry="2" />
<text  x="173.91" y="255.5" ></text>
</g>
<g >
<title>[[kernel.kallsyms]] (10,101,010 samples, 0.07%)</title><rect x="1144.1" y="149" width="0.8" height="15.0" fill="rgb(223,107,31)" rx="2" ry="2" />
<text  x="1147.14" y="159.5" ></text>
</g>
<g >
<title>cfrac (7,646,464,570 samples, 49.87%)</title><rect x="10.8" y="277" width="588.4" height="15.0" fill="rgb(233,119,54)" rx="2" ry="2" />
<text  x="13.78" y="287.5" >cfrac</text>
</g>
<g >
<title>pthread_self (10,101,010 samples, 0.07%)</title><rect x="440.6" y="245" width="0.8" height="15.0" fill="rgb(254,3,2)" rx="2" ry="2" />
<text  x="443.65" y="255.5" ></text>
</g>
<g >
<title>rml::internal::internalPoolMalloc (80,808,080 samples, 0.53%)</title><rect x="591.4" y="261" width="6.3" height="15.0" fill="rgb(225,199,40)" rx="2" ry="2" />
<text  x="594.45" y="271.5" ></text>
</g>
<g >
<title>[[kernel.kallsyms]] (10,101,010 samples, 0.07%)</title><rect x="602.3" y="245" width="0.8" height="15.0" fill="rgb(237,93,41)" rx="2" ry="2" />
<text  x="605.33" y="255.5" ></text>
</g>
<g >
<title>[libtbbmalloc_proxy.so.2.9] (20,202,020 samples, 0.13%)</title><rect x="16.2" y="261" width="1.6" height="15.0" fill="rgb(245,161,32)" rx="2" ry="2" />
<text  x="19.22" y="271.5" ></text>
</g>
<g >
<title>[cfrac] (131,313,130 samples, 0.86%)</title><rect x="17.8" y="245" width="10.1" height="15.0" fill="rgb(229,163,33)" rx="2" ry="2" />
<text  x="20.77" y="255.5" ></text>
</g>
<g >
<title>[unknown] (20,202,020 samples, 0.13%)</title><rect x="600.8" y="261" width="1.5" height="15.0" fill="rgb(232,42,46)" rx="2" ry="2" />
<text  x="603.78" y="271.5" ></text>
</g>
<g >
<title>pcfrac (232,323,230 samples, 1.52%)</title><rect x="129.7" y="245" width="17.9" height="15.0" fill="rgb(231,32,46)" rx="2" ry="2" />
<text  x="132.71" y="255.5" ></text>
</g>
<g >
<title>[unknown] (141,414,140 samples, 0.92%)</title><rect x="41.9" y="229" width="10.9" height="15.0" fill="rgb(215,58,19)" rx="2" ry="2" />
<text  x="44.87" y="239.5" ></text>
</g>
<g >
<title>[[kernel.kallsyms]] (10,101,010 samples, 0.07%)</title><rect x="602.3" y="165" width="0.8" height="15.0" fill="rgb(237,119,43)" rx="2" ry="2" />
<text  x="605.33" y="175.5" ></text>
</g>
<g >
<title>[libtbbmalloc.so.2.9] (101,010,100 samples, 0.66%)</title><rect x="27.9" y="245" width="7.8" height="15.0" fill="rgb(217,3,48)" rx="2" ry="2" />
<text  x="30.88" y="255.5" ></text>
</g>
<g >
<title>[[kernel.kallsyms]] (10,101,010 samples, 0.07%)</title><rect x="601.6" y="69" width="0.7" height="15.0" fill="rgb(219,169,39)" rx="2" ry="2" />
<text  x="604.55" y="79.5" ></text>
</g>
<g >
<title>__open64 (20,202,020 samples, 0.13%)</title><rect x="600.8" y="245" width="1.5" height="15.0" fill="rgb(212,156,27)" rx="2" ry="2" />
<text  x="603.78" y="255.5" ></text>
</g>
<g >
<title>[[kernel.kallsyms]] (10,101,010 samples, 0.07%)</title><rect x="602.3" y="181" width="0.8" height="15.0" fill="rgb(228,131,50)" rx="2" ry="2" />
<text  x="605.33" y="191.5" ></text>
</g>
<g >
<title>[unknown] (585,858,580 samples, 3.82%)</title><rect x="1144.9" y="229" width="45.1" height="15.0" fill="rgb(235,153,11)" rx="2" ry="2" />
<text  x="1147.91" y="239.5" >[unk..</text>
</g>
<g >
<title>free (10,101,010 samples, 0.07%)</title><rect x="48.1" y="213" width="0.8" height="15.0" fill="rgb(225,225,44)" rx="2" ry="2" />
<text  x="51.09" y="223.5" ></text>
</g>
<g >
<title>free (30,303,030 samples, 0.20%)</title><rect x="114.2" y="245" width="2.3" height="15.0" fill="rgb(233,164,31)" rx="2" ry="2" />
<text  x="117.16" y="255.5" ></text>
</g>
<g >
<title>[[kernel.kallsyms]] (10,101,010 samples, 0.07%)</title><rect x="600.0" y="245" width="0.8" height="15.0" fill="rgb(238,129,32)" rx="2" ry="2" />
<text  x="603.00" y="255.5" ></text>
</g>
<g >
<title>[[kernel.kallsyms]] (10,101,010 samples, 0.07%)</title><rect x="599.2" y="213" width="0.8" height="15.0" fill="rgb(234,97,10)" rx="2" ry="2" />
<text  x="602.22" y="223.5" ></text>
</g>
<g >
<title>[[kernel.kallsyms]] (10,101,010 samples, 0.07%)</title><rect x="1144.1" y="101" width="0.8" height="15.0" fill="rgb(250,93,10)" rx="2" ry="2" />
<text  x="1147.14" y="111.5" ></text>
</g>
<g >
<title>[[kernel.kallsyms]] (10,101,010 samples, 0.07%)</title><rect x="601.6" y="133" width="0.7" height="15.0" fill="rgb(219,8,32)" rx="2" ry="2" />
<text  x="604.55" y="143.5" ></text>
</g>
<g >
<title>[[kernel.kallsyms]] (10,101,010 samples, 0.07%)</title><rect x="601.6" y="117" width="0.7" height="15.0" fill="rgb(232,179,31)" rx="2" ry="2" />
<text  x="604.55" y="127.5" ></text>
</g>
<g >
<title>__TBB_malloc_safer_free (20,202,020 samples, 0.13%)</title><rect x="43.4" y="197" width="1.6" height="15.0" fill="rgb(225,30,32)" rx="2" ry="2" />
<text  x="46.43" y="207.5" ></text>
</g>
<g >
<title>[unknown] (585,858,580 samples, 3.82%)</title><rect x="1144.9" y="197" width="45.1" height="15.0" fill="rgb(209,73,37)" rx="2" ry="2" />
<text  x="1147.91" y="207.5" >[unk..</text>
</g>
<g >
<title>pidiv (181,818,180 samples, 1.19%)</title><rect x="230.8" y="245" width="14.0" height="15.0" fill="rgb(221,207,0)" rx="2" ry="2" />
<text  x="233.76" y="255.5" ></text>
</g>
</g>
</svg>
