<?xml version="1.0" standalone="no"?>
<!DOCTYPE svg PUBLIC "-//W3C//DTD SVG 1.1//EN" "http://www.w3.org/Graphics/SVG/1.1/DTD/svg11.dtd">
<svg version="1.1" width="1200" height="630" onload="init(evt)" viewBox="0 0 1200 630" xmlns="http://www.w3.org/2000/svg" xmlns:xlink="http://www.w3.org/1999/xlink">
<!-- Flame graph stack visualization. See https://github.com/brendangregg/FlameGraph for latest version, and http://www.brendangregg.com/flamegraphs.html for examples. -->
<!-- NOTES:  -->
<defs>
	<linearGradient id="background" y1="0" y2="1" x1="0" x2="0" >
		<stop stop-color="#eeeeee" offset="5%" />
		<stop stop-color="#eeeeb0" offset="95%" />
	</linearGradient>
</defs>
<style type="text/css">
	text { font-family:Verdana; font-size:12px; fill:rgb(0,0,0); }
	#search, #ignorecase { opacity:0.1; cursor:pointer; }
	#search:hover, #search.show, #ignorecase:hover, #ignorecase.show { opacity:1; }
	#subtitle { text-anchor:middle; font-color:rgb(160,160,160); }
	#title { text-anchor:middle; font-size:17px}
	#unzoom { cursor:pointer; }
	#frames > *:hover { stroke:black; stroke-width:0.5; cursor:pointer; }
	.hide { display:none; }
	.parent { opacity:0.5; }
</style>
<script type="text/ecmascript">
<![CDATA[
	"use strict";
	var details, searchbtn, unzoombtn, matchedtxt, svg, searching, currentSearchTerm, ignorecase, ignorecaseBtn;
	function init(evt) {
		details = document.getElementById("details").firstChild;
		searchbtn = document.getElementById("search");
		ignorecaseBtn = document.getElementById("ignorecase");
		unzoombtn = document.getElementById("unzoom");
		matchedtxt = document.getElementById("matched");
		svg = document.getElementsByTagName("svg")[0];
		searching = 0;
		currentSearchTerm = null;

		// use GET parameters to restore a flamegraphs state.
		var params = get_params();
		if (params.x && params.y)
			zoom(find_group(document.querySelector('[x="' + params.x + '"][y="' + params.y + '"]')));
                if (params.s) search(params.s);
	}

	// event listeners
	window.addEventListener("click", function(e) {
		var target = find_group(e.target);
		if (target) {
			if (target.nodeName == "a") {
				if (e.ctrlKey === false) return;
				e.preventDefault();
			}
			if (target.classList.contains("parent")) unzoom(true);
			zoom(target);
			if (!document.querySelector('.parent')) {
				// we have basically done a clearzoom so clear the url
				var params = get_params();
				if (params.x) delete params.x;
				if (params.y) delete params.y;
				history.replaceState(null, null, parse_params(params));
				unzoombtn.classList.add("hide");
				return;
			}

			// set parameters for zoom state
			var el = target.querySelector("rect");
			if (el && el.attributes && el.attributes.y && el.attributes._orig_x) {
				var params = get_params()
				params.x = el.attributes._orig_x.value;
				params.y = el.attributes.y.value;
				history.replaceState(null, null, parse_params(params));
			}
		}
		else if (e.target.id == "unzoom") clearzoom();
		else if (e.target.id == "search") search_prompt();
		else if (e.target.id == "ignorecase") toggle_ignorecase();
	}, false)

	// mouse-over for info
	// show
	window.addEventListener("mouseover", function(e) {
		var target = find_group(e.target);
		if (target) details.nodeValue = "Function: " + g_to_text(target);
	}, false)

	// clear
	window.addEventListener("mouseout", function(e) {
		var target = find_group(e.target);
		if (target) details.nodeValue = ' ';
	}, false)

	// ctrl-F for search
	// ctrl-I to toggle case-sensitive search
	window.addEventListener("keydown",function (e) {
		if (e.keyCode === 114 || (e.ctrlKey && e.keyCode === 70)) {
			e.preventDefault();
			search_prompt();
		}
		else if (e.ctrlKey && e.keyCode === 73) {
			e.preventDefault();
			toggle_ignorecase();
		}
	}, false)

	// functions
	function get_params() {
		var params = {};
		var paramsarr = window.location.search.substr(1).split('&');
		for (var i = 0; i < paramsarr.length; ++i) {
			var tmp = paramsarr[i].split("=");
			if (!tmp[0] || !tmp[1]) continue;
			params[tmp[0]]  = decodeURIComponent(tmp[1]);
		}
		return params;
	}
	function parse_params(params) {
		var uri = "?";
		for (var key in params) {
			uri += key + '=' + encodeURIComponent(params[key]) + '&';
		}
		if (uri.slice(-1) == "&")
			uri = uri.substring(0, uri.length - 1);
		if (uri == '?')
			uri = window.location.href.split('?')[0];
		return uri;
	}
	function find_child(node, selector) {
		var children = node.querySelectorAll(selector);
		if (children.length) return children[0];
	}
	function find_group(node) {
		var parent = node.parentElement;
		if (!parent) return;
		if (parent.id == "frames") return node;
		return find_group(parent);
	}
	function orig_save(e, attr, val) {
		if (e.attributes["_orig_" + attr] != undefined) return;
		if (e.attributes[attr] == undefined) return;
		if (val == undefined) val = e.attributes[attr].value;
		e.setAttribute("_orig_" + attr, val);
	}
	function orig_load(e, attr) {
		if (e.attributes["_orig_"+attr] == undefined) return;
		e.attributes[attr].value = e.attributes["_orig_" + attr].value;
		e.removeAttribute("_orig_"+attr);
	}
	function g_to_text(e) {
		var text = find_child(e, "title").firstChild.nodeValue;
		return (text)
	}
	function g_to_func(e) {
		var func = g_to_text(e);
		// if there's any manipulation we want to do to the function
		// name before it's searched, do it here before returning.
		return (func);
	}
	function update_text(e) {
		var r = find_child(e, "rect");
		var t = find_child(e, "text");
		var w = parseFloat(r.attributes.width.value) -3;
		var txt = find_child(e, "title").textContent.replace(/\([^(]*\)$/,"");
		t.attributes.x.value = parseFloat(r.attributes.x.value) + 3;

		// Smaller than this size won't fit anything
		if (w < 2 * 12 * 0.59) {
			t.textContent = "";
			return;
		}

		t.textContent = txt;
		var sl = t.getSubStringLength(0, txt.length);
		// check if only whitespace or if we can fit the entire string into width w
		if (/^ *$/.test(txt) || sl < w)
			return;

		// this isn't perfect, but gives a good starting point
		// and avoids calling getSubStringLength too often
		var start = Math.floor((w/sl) * txt.length);
		for (var x = start; x > 0; x = x-2) {
			if (t.getSubStringLength(0, x + 2) <= w) {
				t.textContent = txt.substring(0, x) + "..";
				return;
			}
		}
		t.textContent = "";
	}

	// zoom
	function zoom_reset(e) {
		if (e.attributes != undefined) {
			orig_load(e, "x");
			orig_load(e, "width");
		}
		if (e.childNodes == undefined) return;
		for (var i = 0, c = e.childNodes; i < c.length; i++) {
			zoom_reset(c[i]);
		}
	}
	function zoom_child(e, x, ratio) {
		if (e.attributes != undefined) {
			if (e.attributes.x != undefined) {
				orig_save(e, "x");
				e.attributes.x.value = (parseFloat(e.attributes.x.value) - x - 10) * ratio + 10;
				if (e.tagName == "text")
					e.attributes.x.value = find_child(e.parentNode, "rect[x]").attributes.x.value + 3;
			}
			if (e.attributes.width != undefined) {
				orig_save(e, "width");
				e.attributes.width.value = parseFloat(e.attributes.width.value) * ratio;
			}
		}

		if (e.childNodes == undefined) return;
		for (var i = 0, c = e.childNodes; i < c.length; i++) {
			zoom_child(c[i], x - 10, ratio);
		}
	}
	function zoom_parent(e) {
		if (e.attributes) {
			if (e.attributes.x != undefined) {
				orig_save(e, "x");
				e.attributes.x.value = 10;
			}
			if (e.attributes.width != undefined) {
				orig_save(e, "width");
				e.attributes.width.value = parseInt(svg.width.baseVal.value) - (10 * 2);
			}
		}
		if (e.childNodes == undefined) return;
		for (var i = 0, c = e.childNodes; i < c.length; i++) {
			zoom_parent(c[i]);
		}
	}
	function zoom(node) {
		var attr = find_child(node, "rect").attributes;
		var width = parseFloat(attr.width.value);
		var xmin = parseFloat(attr.x.value);
		var xmax = parseFloat(xmin + width);
		var ymin = parseFloat(attr.y.value);
		var ratio = (svg.width.baseVal.value - 2 * 10) / width;

		// XXX: Workaround for JavaScript float issues (fix me)
		var fudge = 0.0001;

		unzoombtn.classList.remove("hide");

		var el = document.getElementById("frames").children;
		for (var i = 0; i < el.length; i++) {
			var e = el[i];
			var a = find_child(e, "rect").attributes;
			var ex = parseFloat(a.x.value);
			var ew = parseFloat(a.width.value);
			var upstack;
			// Is it an ancestor
			if (0 == 0) {
				upstack = parseFloat(a.y.value) > ymin;
			} else {
				upstack = parseFloat(a.y.value) < ymin;
			}
			if (upstack) {
				// Direct ancestor
				if (ex <= xmin && (ex+ew+fudge) >= xmax) {
					e.classList.add("parent");
					zoom_parent(e);
					update_text(e);
				}
				// not in current path
				else
					e.classList.add("hide");
			}
			// Children maybe
			else {
				// no common path
				if (ex < xmin || ex + fudge >= xmax) {
					e.classList.add("hide");
				}
				else {
					zoom_child(e, xmin, ratio);
					update_text(e);
				}
			}
		}
		search();
	}
	function unzoom(dont_update_text) {
		unzoombtn.classList.add("hide");
		var el = document.getElementById("frames").children;
		for(var i = 0; i < el.length; i++) {
			el[i].classList.remove("parent");
			el[i].classList.remove("hide");
			zoom_reset(el[i]);
			if(!dont_update_text) update_text(el[i]);
		}
		search();
	}
	function clearzoom() {
		unzoom();

		// remove zoom state
		var params = get_params();
		if (params.x) delete params.x;
		if (params.y) delete params.y;
		history.replaceState(null, null, parse_params(params));
	}

	// search
	function toggle_ignorecase() {
		ignorecase = !ignorecase;
		if (ignorecase) {
			ignorecaseBtn.classList.add("show");
		} else {
			ignorecaseBtn.classList.remove("show");
		}
		reset_search();
		search();
	}
	function reset_search() {
		var el = document.querySelectorAll("#frames rect");
		for (var i = 0; i < el.length; i++) {
			orig_load(el[i], "fill")
		}
		var params = get_params();
		delete params.s;
		history.replaceState(null, null, parse_params(params));
	}
	function search_prompt() {
		if (!searching) {
			var term = prompt("Enter a search term (regexp " +
			    "allowed, eg: ^ext4_)"
			    + (ignorecase ? ", ignoring case" : "")
			    + "\nPress Ctrl-i to toggle case sensitivity", "");
			if (term != null) search(term);
		} else {
			reset_search();
			searching = 0;
			currentSearchTerm = null;
			searchbtn.classList.remove("show");
			searchbtn.firstChild.nodeValue = "Search"
			matchedtxt.classList.add("hide");
			matchedtxt.firstChild.nodeValue = ""
		}
	}
	function search(term) {
		if (term) currentSearchTerm = term;

		var re = new RegExp(currentSearchTerm, ignorecase ? 'i' : '');
		var el = document.getElementById("frames").children;
		var matches = new Object();
		var maxwidth = 0;
		for (var i = 0; i < el.length; i++) {
			var e = el[i];
			var func = g_to_func(e);
			var rect = find_child(e, "rect");
			if (func == null || rect == null)
				continue;

			// Save max width. Only works as we have a root frame
			var w = parseFloat(rect.attributes.width.value);
			if (w > maxwidth)
				maxwidth = w;

			if (func.match(re)) {
				// highlight
				var x = parseFloat(rect.attributes.x.value);
				orig_save(rect, "fill");
				rect.attributes.fill.value = "rgb(230,0,230)";

				// remember matches
				if (matches[x] == undefined) {
					matches[x] = w;
				} else {
					if (w > matches[x]) {
						// overwrite with parent
						matches[x] = w;
					}
				}
				searching = 1;
			}
		}
		if (!searching)
			return;
		var params = get_params();
		params.s = currentSearchTerm;
		history.replaceState(null, null, parse_params(params));

		searchbtn.classList.add("show");
		searchbtn.firstChild.nodeValue = "Reset Search";

		// calculate percent matched, excluding vertical overlap
		var count = 0;
		var lastx = -1;
		var lastw = 0;
		var keys = Array();
		for (k in matches) {
			if (matches.hasOwnProperty(k))
				keys.push(k);
		}
		// sort the matched frames by their x location
		// ascending, then width descending
		keys.sort(function(a, b){
			return a - b;
		});
		// Step through frames saving only the biggest bottom-up frames
		// thanks to the sort order. This relies on the tree property
		// where children are always smaller than their parents.
		var fudge = 0.0001;	// JavaScript floating point
		for (var k in keys) {
			var x = parseFloat(keys[k]);
			var w = matches[keys[k]];
			if (x >= lastx + lastw - fudge) {
				count += w;
				lastx = x;
				lastw = w;
			}
		}
		// display matched percent
		matchedtxt.classList.remove("hide");
		var pct = 100 * count / maxwidth;
		if (pct != 100) pct = pct.toFixed(1)
		matchedtxt.firstChild.nodeValue = "Matched: " + pct + "%";
	}
]]>
</script>
<rect x="0.0" y="0" width="1200.0" height="630.0" fill="url(#background)"  />
<text id="title" x="600.00" y="24" >Flame Graph</text>
<text id="details" x="10.00" y="613" > </text>
<text id="unzoom" x="10.00" y="24" class="hide">Reset Zoom</text>
<text id="search" x="1090.00" y="24" >Search</text>
<text id="ignorecase" x="1174.00" y="24" >ic</text>
<text id="matched" x="1090.00" y="613" > </text>
<g id="frames">
<g >
<title>operator delete[] (10,101,010 samples, 0.09%)</title><rect x="26.5" y="37" width="1.0" height="15.0" fill="rgb(217,27,33)" rx="2" ry="2" />
<text  x="29.50" y="47.5" ></text>
</g>
<g >
<title>__memset_avx2_unaligned_erms (40,404,040 samples, 0.35%)</title><rect x="29.6" y="533" width="4.1" height="15.0" fill="rgb(244,93,22)" rx="2" ry="2" />
<text  x="32.60" y="543.5" ></text>
</g>
<g >
<title>[[kernel.kallsyms]] (10,101,010 samples, 0.09%)</title><rect x="10.0" y="325" width="1.0" height="15.0" fill="rgb(225,177,49)" rx="2" ry="2" />
<text  x="13.00" y="335.5" ></text>
</g>
<g >
<title>[[kernel.kallsyms]] (2,565,656,540 samples, 22.20%)</title><rect x="928.0" y="421" width="262.0" height="15.0" fill="rgb(213,154,12)" rx="2" ry="2" />
<text  x="931.01" y="431.5" >[[kernel.kallsyms]]</text>
</g>
<g >
<title>[[kernel.kallsyms]] (10,101,010 samples, 0.09%)</title><rect x="578.3" y="213" width="1.1" height="15.0" fill="rgb(223,200,22)" rx="2" ry="2" />
<text  x="581.34" y="223.5" ></text>
</g>
<g >
<title>[[kernel.kallsyms]] (3,202,020,170 samples, 27.71%)</title><rect x="601.0" y="533" width="327.0" height="15.0" fill="rgb(234,136,20)" rx="2" ry="2" />
<text  x="604.03" y="543.5" >[[kernel.kallsyms]]</text>
</g>
<g >
<title>[unknown] (2,565,656,540 samples, 22.20%)</title><rect x="928.0" y="533" width="262.0" height="15.0" fill="rgb(224,224,42)" rx="2" ry="2" />
<text  x="931.01" y="543.5" >[unknown]</text>
</g>
<g >
<title>[[kernel.kallsyms]] (10,101,010 samples, 0.09%)</title><rect x="75.0" y="485" width="1.0" height="15.0" fill="rgb(221,195,5)" rx="2" ry="2" />
<text  x="77.98" y="495.5" ></text>
</g>
<g >
<title>[[kernel.kallsyms]] (10,101,010 samples, 0.09%)</title><rect x="10.0" y="485" width="1.0" height="15.0" fill="rgb(217,158,6)" rx="2" ry="2" />
<text  x="13.00" y="495.5" ></text>
</g>
<g >
<title>pdivmod (313,131,310 samples, 2.71%)</title><rect x="115.2" y="533" width="32.0" height="15.0" fill="rgb(247,15,2)" rx="2" ry="2" />
<text  x="118.21" y="543.5" >pd..</text>
</g>
<g >
<title>[unknown] (2,565,656,540 samples, 22.20%)</title><rect x="928.0" y="485" width="262.0" height="15.0" fill="rgb(238,19,14)" rx="2" ry="2" />
<text  x="931.01" y="495.5" >[unknown]</text>
</g>
<g >
<title>[[kernel.kallsyms]] (10,101,010 samples, 0.09%)</title><rect x="599.0" y="357" width="1.0" height="15.0" fill="rgb(219,49,29)" rx="2" ry="2" />
<text  x="601.97" y="367.5" ></text>
</g>
<g >
<title>[[kernel.kallsyms]] (2,565,656,540 samples, 22.20%)</title><rect x="928.0" y="469" width="262.0" height="15.0" fill="rgb(236,101,29)" rx="2" ry="2" />
<text  x="931.01" y="479.5" >[[kernel.kallsyms]]</text>
</g>
<g >
<title>[[kernel.kallsyms]] (10,101,010 samples, 0.09%)</title><rect x="75.0" y="517" width="1.0" height="15.0" fill="rgb(242,103,32)" rx="2" ry="2" />
<text  x="77.98" y="527.5" ></text>
</g>
<g >
<title>[[kernel.kallsyms]] (10,101,010 samples, 0.09%)</title><rect x="578.3" y="453" width="1.1" height="15.0" fill="rgb(242,216,36)" rx="2" ry="2" />
<text  x="581.34" y="463.5" ></text>
</g>
<g >
<title>[[kernel.kallsyms]] (10,101,010 samples, 0.09%)</title><rect x="10.0" y="549" width="1.0" height="15.0" fill="rgb(242,172,44)" rx="2" ry="2" />
<text  x="13.00" y="559.5" ></text>
</g>
<g >
<title>[[kernel.kallsyms]] (10,101,010 samples, 0.09%)</title><rect x="11.0" y="533" width="1.1" height="15.0" fill="rgb(232,10,11)" rx="2" ry="2" />
<text  x="14.03" y="543.5" ></text>
</g>
<g >
<title>operator delete[] (10,101,010 samples, 0.09%)</title><rect x="28.6" y="373" width="1.0" height="15.0" fill="rgb(205,175,28)" rx="2" ry="2" />
<text  x="31.57" y="383.5" ></text>
</g>
<g >
<title>pfactorQ (232,323,230 samples, 2.01%)</title><rect x="147.2" y="533" width="23.7" height="15.0" fill="rgb(254,205,10)" rx="2" ry="2" />
<text  x="150.19" y="543.5" >p..</text>
</g>
<g >
<title>[[kernel.kallsyms]] (10,101,010 samples, 0.09%)</title><rect x="599.0" y="485" width="1.0" height="15.0" fill="rgb(254,14,53)" rx="2" ry="2" />
<text  x="601.97" y="495.5" ></text>
</g>
<g >
<title>[[kernel.kallsyms]] (10,101,010 samples, 0.09%)</title><rect x="599.0" y="421" width="1.0" height="15.0" fill="rgb(211,188,38)" rx="2" ry="2" />
<text  x="601.97" y="431.5" ></text>
</g>
<g >
<title>[[kernel.kallsyms]] (10,101,010 samples, 0.09%)</title><rect x="578.3" y="357" width="1.1" height="15.0" fill="rgb(246,189,7)" rx="2" ry="2" />
<text  x="581.34" y="367.5" ></text>
</g>
<g >
<title>[unknown] (10,101,010 samples, 0.09%)</title><rect x="26.5" y="85" width="1.0" height="15.0" fill="rgb(234,128,14)" rx="2" ry="2" />
<text  x="29.50" y="95.5" ></text>
</g>
<g >
<title>[[kernel.kallsyms]] (10,101,010 samples, 0.09%)</title><rect x="10.0" y="421" width="1.0" height="15.0" fill="rgb(207,111,11)" rx="2" ry="2" />
<text  x="13.00" y="431.5" ></text>
</g>
<g >
<title>[[kernel.kallsyms]] (10,101,010 samples, 0.09%)</title><rect x="578.3" y="485" width="1.1" height="15.0" fill="rgb(211,140,11)" rx="2" ry="2" />
<text  x="581.34" y="495.5" ></text>
</g>
<g >
<title>pfree (20,202,020 samples, 0.17%)</title><rect x="170.9" y="533" width="2.1" height="15.0" fill="rgb(206,95,5)" rx="2" ry="2" />
<text  x="173.91" y="543.5" ></text>
</g>
<g >
<title>[unknown] (10,101,010 samples, 0.09%)</title><rect x="26.5" y="229" width="1.0" height="15.0" fill="rgb(246,125,11)" rx="2" ry="2" />
<text  x="29.50" y="239.5" ></text>
</g>
<g >
<title>[unknown] (10,101,010 samples, 0.09%)</title><rect x="26.5" y="165" width="1.0" height="15.0" fill="rgb(228,160,36)" rx="2" ry="2" />
<text  x="29.50" y="175.5" ></text>
</g>
<g >
<title>clock_gettime@GLIBC_2.2.5 (10,101,010 samples, 0.09%)</title><rect x="600.0" y="549" width="1.0" height="15.0" fill="rgb(219,52,49)" rx="2" ry="2" />
<text  x="603.00" y="559.5" ></text>
</g>
<g >
<title>cfrac (5,747,474,690 samples, 49.74%)</title><rect x="12.1" y="565" width="586.9" height="15.0" fill="rgb(243,204,41)" rx="2" ry="2" />
<text  x="15.06" y="575.5" >cfrac</text>
</g>
<g >
<title>all (11,555,555,440 samples, 100%)</title><rect x="10.0" y="581" width="1180.0" height="15.0" fill="rgb(254,138,4)" rx="2" ry="2" />
<text  x="13.00" y="591.5" ></text>
</g>
<g >
<title>[unknown] (20,202,020 samples, 0.17%)</title><rect x="26.5" y="373" width="2.1" height="15.0" fill="rgb(207,214,19)" rx="2" ry="2" />
<text  x="29.50" y="383.5" ></text>
</g>
<g >
<title>[[kernel.kallsyms]] (10,101,010 samples, 0.09%)</title><rect x="578.3" y="149" width="1.1" height="15.0" fill="rgb(211,225,34)" rx="2" ry="2" />
<text  x="581.34" y="159.5" ></text>
</g>
<g >
<title>[unknown] (2,565,656,540 samples, 22.20%)</title><rect x="928.0" y="501" width="262.0" height="15.0" fill="rgb(251,198,51)" rx="2" ry="2" />
<text  x="931.01" y="511.5" >[unknown]</text>
</g>
<g >
<title>[[kernel.kallsyms]] (10,101,010 samples, 0.09%)</title><rect x="10.0" y="501" width="1.0" height="15.0" fill="rgb(254,67,7)" rx="2" ry="2" />
<text  x="13.00" y="511.5" ></text>
</g>
<g >
<title>[unknown] (30,303,030 samples, 0.26%)</title><rect x="26.5" y="469" width="3.1" height="15.0" fill="rgb(243,169,3)" rx="2" ry="2" />
<text  x="29.50" y="479.5" ></text>
</g>
<g >
<title>operator delete[] (70,707,070 samples, 0.61%)</title><rect x="466.9" y="549" width="7.3" height="15.0" fill="rgb(231,215,42)" rx="2" ry="2" />
<text  x="469.94" y="559.5" ></text>
</g>
<g >
<title>[[kernel.kallsyms]] (10,101,010 samples, 0.09%)</title><rect x="11.0" y="469" width="1.1" height="15.0" fill="rgb(220,218,8)" rx="2" ry="2" />
<text  x="14.03" y="479.5" ></text>
</g>
<g >
<title>palloc (70,707,070 samples, 0.61%)</title><rect x="68.8" y="533" width="7.2" height="15.0" fill="rgb(210,104,34)" rx="2" ry="2" />
<text  x="71.79" y="543.5" ></text>
</g>
<g >
<title>pmul (303,030,300 samples, 2.62%)</title><rect x="394.7" y="533" width="31.0" height="15.0" fill="rgb(217,151,54)" rx="2" ry="2" />
<text  x="397.74" y="543.5" >pmul</text>
</g>
<g >
<title>[unknown] (30,303,030 samples, 0.26%)</title><rect x="26.5" y="533" width="3.1" height="15.0" fill="rgb(225,86,23)" rx="2" ry="2" />
<text  x="29.50" y="543.5" ></text>
</g>
<g >
<title>[[kernel.kallsyms]] (10,101,010 samples, 0.09%)</title><rect x="578.3" y="165" width="1.1" height="15.0" fill="rgb(213,80,34)" rx="2" ry="2" />
<text  x="581.34" y="175.5" ></text>
</g>
<g >
<title>[[kernel.kallsyms]] (10,101,010 samples, 0.09%)</title><rect x="11.0" y="453" width="1.1" height="15.0" fill="rgb(253,174,16)" rx="2" ry="2" />
<text  x="14.03" y="463.5" ></text>
</g>
<g >
<title>[unknown] (10,101,010 samples, 0.09%)</title><rect x="26.5" y="117" width="1.0" height="15.0" fill="rgb(219,134,10)" rx="2" ry="2" />
<text  x="29.50" y="127.5" ></text>
</g>
<g >
<title>[[kernel.kallsyms]] (10,101,010 samples, 0.09%)</title><rect x="75.0" y="389" width="1.0" height="15.0" fill="rgb(219,175,16)" rx="2" ry="2" />
<text  x="77.98" y="399.5" ></text>
</g>
<g >
<title>[unknown] (10,101,010 samples, 0.09%)</title><rect x="26.5" y="197" width="1.0" height="15.0" fill="rgb(230,135,33)" rx="2" ry="2" />
<text  x="29.50" y="207.5" ></text>
</g>
<g >
<title>[[kernel.kallsyms]] (10,101,010 samples, 0.09%)</title><rect x="578.3" y="501" width="1.1" height="15.0" fill="rgb(230,161,41)" rx="2" ry="2" />
<text  x="581.34" y="511.5" ></text>
</g>
<g >
<title>[unknown] (10,101,010 samples, 0.09%)</title><rect x="26.5" y="181" width="1.0" height="15.0" fill="rgb(237,211,37)" rx="2" ry="2" />
<text  x="29.50" y="191.5" ></text>
</g>
<g >
<title>bench.sh (20,202,020 samples, 0.17%)</title><rect x="10.0" y="565" width="2.1" height="15.0" fill="rgb(210,173,48)" rx="2" ry="2" />
<text  x="13.00" y="575.5" ></text>
</g>
<g >
<title>[[kernel.kallsyms]] (10,101,010 samples, 0.09%)</title><rect x="10.0" y="373" width="1.0" height="15.0" fill="rgb(249,118,37)" rx="2" ry="2" />
<text  x="13.00" y="383.5" ></text>
</g>
<g >
<title>[[kernel.kallsyms]] (3,202,020,170 samples, 27.71%)</title><rect x="601.0" y="485" width="327.0" height="15.0" fill="rgb(205,29,52)" rx="2" ry="2" />
<text  x="604.03" y="495.5" >[[kernel.kallsyms]]</text>
</g>
<g >
<title>[[kernel.kallsyms]] (10,101,010 samples, 0.09%)</title><rect x="578.3" y="469" width="1.1" height="15.0" fill="rgb(210,50,48)" rx="2" ry="2" />
<text  x="581.34" y="479.5" ></text>
</g>
<g >
<title>[unknown] (10,101,010 samples, 0.09%)</title><rect x="26.5" y="133" width="1.0" height="15.0" fill="rgb(242,214,22)" rx="2" ry="2" />
<text  x="29.50" y="143.5" ></text>
</g>
<g >
<title>[unknown] (10,101,010 samples, 0.09%)</title><rect x="26.5" y="245" width="1.0" height="15.0" fill="rgb(231,79,7)" rx="2" ry="2" />
<text  x="29.50" y="255.5" ></text>
</g>
<g >
<title>[unknown] (30,303,030 samples, 0.26%)</title><rect x="26.5" y="437" width="3.1" height="15.0" fill="rgb(237,87,22)" rx="2" ry="2" />
<text  x="29.50" y="447.5" ></text>
</g>
<g >
<title>[[kernel.kallsyms]] (10,101,010 samples, 0.09%)</title><rect x="599.0" y="453" width="1.0" height="15.0" fill="rgb(236,113,32)" rx="2" ry="2" />
<text  x="601.97" y="463.5" ></text>
</g>
<g >
<title>[[kernel.kallsyms]] (10,101,010 samples, 0.09%)</title><rect x="578.3" y="245" width="1.1" height="15.0" fill="rgb(249,59,25)" rx="2" ry="2" />
<text  x="581.34" y="255.5" ></text>
</g>
<g >
<title>[unknown] (10,101,010 samples, 0.09%)</title><rect x="26.5" y="149" width="1.0" height="15.0" fill="rgb(239,148,9)" rx="2" ry="2" />
<text  x="29.50" y="159.5" ></text>
</g>
<g >
<title>[unknown] (30,303,030 samples, 0.26%)</title><rect x="26.5" y="485" width="3.1" height="15.0" fill="rgb(216,79,1)" rx="2" ry="2" />
<text  x="29.50" y="495.5" ></text>
</g>
<g >
<title>mlx5e_napi_poll (10,101,010 samples, 0.09%)</title><rect x="578.3" y="437" width="1.1" height="15.0" fill="rgb(230,102,25)" rx="2" ry="2" />
<text  x="581.34" y="447.5" ></text>
</g>
<g >
<title>[[kernel.kallsyms]] (5,767,676,710 samples, 49.91%)</title><rect x="601.0" y="549" width="589.0" height="15.0" fill="rgb(239,161,47)" rx="2" ry="2" />
<text  x="604.03" y="559.5" >[[kernel.kallsyms]]</text>
</g>
<g >
<title>[unknown] (30,303,030 samples, 0.26%)</title><rect x="26.5" y="501" width="3.1" height="15.0" fill="rgb(230,144,23)" rx="2" ry="2" />
<text  x="29.50" y="511.5" ></text>
</g>
<g >
<title>[[kernel.kallsyms]] (3,202,020,170 samples, 27.71%)</title><rect x="601.0" y="517" width="327.0" height="15.0" fill="rgb(206,118,12)" rx="2" ry="2" />
<text  x="604.03" y="527.5" >[[kernel.kallsyms]]</text>
</g>
<g >
<title>[[kernel.kallsyms]] (10,101,010 samples, 0.09%)</title><rect x="599.0" y="405" width="1.0" height="15.0" fill="rgb(224,92,0)" rx="2" ry="2" />
<text  x="601.97" y="415.5" ></text>
</g>
<g >
<title>pnorm (10,101,010 samples, 0.09%)</title><rect x="579.4" y="549" width="1.0" height="15.0" fill="rgb(227,96,13)" rx="2" ry="2" />
<text  x="582.37" y="559.5" ></text>
</g>
<g >
<title>[[kernel.kallsyms]] (2,565,656,540 samples, 22.20%)</title><rect x="928.0" y="453" width="262.0" height="15.0" fill="rgb(210,5,39)" rx="2" ry="2" />
<text  x="931.01" y="463.5" >[[kernel.kallsyms]]</text>
</g>
<g >
<title>[[kernel.kallsyms]] (10,101,010 samples, 0.09%)</title><rect x="578.3" y="293" width="1.1" height="15.0" fill="rgb(229,205,19)" rx="2" ry="2" />
<text  x="581.34" y="303.5" ></text>
</g>
<g >
<title>[unknown] (10,101,010 samples, 0.09%)</title><rect x="26.5" y="69" width="1.0" height="15.0" fill="rgb(251,89,7)" rx="2" ry="2" />
<text  x="29.50" y="79.5" ></text>
</g>
<g >
<title>[unknown] (30,303,030 samples, 0.26%)</title><rect x="26.5" y="421" width="3.1" height="15.0" fill="rgb(205,183,29)" rx="2" ry="2" />
<text  x="29.50" y="431.5" ></text>
</g>
<g >
<title>__open64_nocancel (10,101,010 samples, 0.09%)</title><rect x="599.0" y="517" width="1.0" height="15.0" fill="rgb(244,50,31)" rx="2" ry="2" />
<text  x="601.97" y="527.5" ></text>
</g>
<g >
<title>[[kernel.kallsyms]] (2,565,656,540 samples, 22.20%)</title><rect x="928.0" y="405" width="262.0" height="15.0" fill="rgb(245,158,12)" rx="2" ry="2" />
<text  x="931.01" y="415.5" >[[kernel.kallsyms]]</text>
</g>
<g >
<title>pcmpz (20,202,020 samples, 0.17%)</title><rect x="113.1" y="533" width="2.1" height="15.0" fill="rgb(208,2,54)" rx="2" ry="2" />
<text  x="116.15" y="543.5" ></text>
</g>
<g >
<title>gmain (10,101,010 samples, 0.09%)</title><rect x="600.0" y="565" width="1.0" height="15.0" fill="rgb(208,128,8)" rx="2" ry="2" />
<text  x="603.00" y="575.5" ></text>
</g>
<g >
<title>malloc (10,101,010 samples, 0.09%)</title><rect x="11.0" y="549" width="1.1" height="15.0" fill="rgb(219,197,41)" rx="2" ry="2" />
<text  x="14.03" y="559.5" ></text>
</g>
<g >
<title>[[kernel.kallsyms]] (3,202,020,170 samples, 27.71%)</title><rect x="601.0" y="501" width="327.0" height="15.0" fill="rgb(239,143,4)" rx="2" ry="2" />
<text  x="604.03" y="511.5" >[[kernel.kallsyms]]</text>
</g>
<g >
<title>[[kernel.kallsyms]] (10,101,010 samples, 0.09%)</title><rect x="11.0" y="517" width="1.1" height="15.0" fill="rgb(253,183,51)" rx="2" ry="2" />
<text  x="14.03" y="527.5" ></text>
</g>
<g >
<title>[[kernel.kallsyms]] (10,101,010 samples, 0.09%)</title><rect x="578.3" y="197" width="1.1" height="15.0" fill="rgb(221,71,10)" rx="2" ry="2" />
<text  x="581.34" y="207.5" ></text>
</g>
<g >
<title>[[kernel.kallsyms]] (10,101,010 samples, 0.09%)</title><rect x="578.3" y="341" width="1.1" height="15.0" fill="rgb(240,170,23)" rx="2" ry="2" />
<text  x="581.34" y="351.5" ></text>
</g>
<g >
<title>[[kernel.kallsyms]] (10,101,010 samples, 0.09%)</title><rect x="578.3" y="309" width="1.1" height="15.0" fill="rgb(230,53,6)" rx="2" ry="2" />
<text  x="581.34" y="319.5" ></text>
</g>
<g >
<title>pcmp (262,626,260 samples, 2.27%)</title><rect x="86.3" y="533" width="26.8" height="15.0" fill="rgb(244,166,37)" rx="2" ry="2" />
<text  x="89.33" y="543.5" >p..</text>
</g>
<g >
<title>[[kernel.kallsyms]] (10,101,010 samples, 0.09%)</title><rect x="10.0" y="453" width="1.0" height="15.0" fill="rgb(235,25,44)" rx="2" ry="2" />
<text  x="13.00" y="463.5" ></text>
</g>
<g >
<title>dirname (10,101,010 samples, 0.09%)</title><rect x="599.0" y="565" width="1.0" height="15.0" fill="rgb(253,162,5)" rx="2" ry="2" />
<text  x="601.97" y="575.5" ></text>
</g>
<g >
<title>pcfrac (101,010,100 samples, 0.87%)</title><rect x="76.0" y="533" width="10.3" height="15.0" fill="rgb(214,108,7)" rx="2" ry="2" />
<text  x="79.01" y="543.5" ></text>
</g>
<g >
<title>[unknown] (20,202,020 samples, 0.17%)</title><rect x="26.5" y="341" width="2.1" height="15.0" fill="rgb(234,169,12)" rx="2" ry="2" />
<text  x="29.50" y="351.5" ></text>
</g>
<g >
<title>[unknown] (20,202,020 samples, 0.17%)</title><rect x="26.5" y="357" width="2.1" height="15.0" fill="rgb(226,197,5)" rx="2" ry="2" />
<text  x="29.50" y="367.5" ></text>
</g>
<g >
<title>[[kernel.kallsyms]] (10,101,010 samples, 0.09%)</title><rect x="75.0" y="373" width="1.0" height="15.0" fill="rgb(249,63,27)" rx="2" ry="2" />
<text  x="77.98" y="383.5" ></text>
</g>
<g >
<title>palloc (20,202,020 samples, 0.17%)</title><rect x="474.2" y="549" width="2.0" height="15.0" fill="rgb(252,148,29)" rx="2" ry="2" />
<text  x="477.16" y="559.5" ></text>
</g>
<g >
<title>[[kernel.kallsyms]] (10,101,010 samples, 0.09%)</title><rect x="599.0" y="341" width="1.0" height="15.0" fill="rgb(227,198,22)" rx="2" ry="2" />
<text  x="601.97" y="351.5" ></text>
</g>
<g >
<title>[[kernel.kallsyms]] (10,101,010 samples, 0.09%)</title><rect x="11.0" y="437" width="1.1" height="15.0" fill="rgb(221,4,8)" rx="2" ry="2" />
<text  x="14.03" y="447.5" ></text>
</g>
<g >
<title>tc_malloc (181,818,180 samples, 1.57%)</title><rect x="580.4" y="549" width="18.6" height="15.0" fill="rgb(246,19,1)" rx="2" ry="2" />
<text  x="583.40" y="559.5" ></text>
</g>
<g >
<title>[[kernel.kallsyms]] (10,101,010 samples, 0.09%)</title><rect x="75.0" y="453" width="1.0" height="15.0" fill="rgb(240,144,24)" rx="2" ry="2" />
<text  x="77.98" y="463.5" ></text>
</g>
<g >
<title>psub (181,818,180 samples, 1.57%)</title><rect x="425.7" y="533" width="18.5" height="15.0" fill="rgb(210,194,2)" rx="2" ry="2" />
<text  x="428.68" y="543.5" ></text>
</g>
<g >
<title>[unknown] (4,404,040,360 samples, 38.11%)</title><rect x="17.2" y="549" width="449.7" height="15.0" fill="rgb(215,201,50)" rx="2" ry="2" />
<text  x="20.22" y="559.5" >[unknown]</text>
</g>
<g >
<title>[[kernel.kallsyms]] (10,101,010 samples, 0.09%)</title><rect x="578.3" y="373" width="1.1" height="15.0" fill="rgb(249,139,17)" rx="2" ry="2" />
<text  x="581.34" y="383.5" ></text>
</g>
<g >
<title>pdivmod (1,010,101,000 samples, 8.74%)</title><rect x="476.2" y="549" width="103.2" height="15.0" fill="rgb(216,160,54)" rx="2" ry="2" />
<text  x="479.22" y="559.5" >pdivmod</text>
</g>
<g >
<title>[[kernel.kallsyms]] (10,101,010 samples, 0.09%)</title><rect x="75.0" y="437" width="1.0" height="15.0" fill="rgb(213,129,36)" rx="2" ry="2" />
<text  x="77.98" y="447.5" ></text>
</g>
<g >
<title>[[kernel.kallsyms]] (10,101,010 samples, 0.09%)</title><rect x="578.3" y="405" width="1.1" height="15.0" fill="rgb(224,5,28)" rx="2" ry="2" />
<text  x="581.34" y="415.5" ></text>
</g>
<g >
<title>[[kernel.kallsyms]] (10,101,010 samples, 0.09%)</title><rect x="578.3" y="277" width="1.1" height="15.0" fill="rgb(225,124,38)" rx="2" ry="2" />
<text  x="581.34" y="287.5" ></text>
</g>
<g >
<title>[[kernel.kallsyms]] (10,101,010 samples, 0.09%)</title><rect x="10.0" y="357" width="1.0" height="15.0" fill="rgb(207,8,1)" rx="2" ry="2" />
<text  x="13.00" y="367.5" ></text>
</g>
<g >
<title>[[kernel.kallsyms]] (10,101,010 samples, 0.09%)</title><rect x="75.0" y="501" width="1.0" height="15.0" fill="rgb(215,228,50)" rx="2" ry="2" />
<text  x="77.98" y="511.5" ></text>
</g>
<g >
<title>[[kernel.kallsyms]] (2,565,656,540 samples, 22.20%)</title><rect x="928.0" y="437" width="262.0" height="15.0" fill="rgb(243,69,51)" rx="2" ry="2" />
<text  x="931.01" y="447.5" >[[kernel.kallsyms]]</text>
</g>
<g >
<title>[unknown] (30,303,030 samples, 0.26%)</title><rect x="26.5" y="405" width="3.1" height="15.0" fill="rgb(245,114,13)" rx="2" ry="2" />
<text  x="29.50" y="415.5" ></text>
</g>
<g >
<title>[unknown] (10,101,010 samples, 0.09%)</title><rect x="26.5" y="261" width="1.0" height="15.0" fill="rgb(223,134,23)" rx="2" ry="2" />
<text  x="29.50" y="271.5" ></text>
</g>
<g >
<title>[[kernel.kallsyms]] (10,101,010 samples, 0.09%)</title><rect x="10.0" y="405" width="1.0" height="15.0" fill="rgb(242,130,0)" rx="2" ry="2" />
<text  x="13.00" y="415.5" ></text>
</g>
<g >
<title>[unknown] (10,101,010 samples, 0.09%)</title><rect x="26.5" y="53" width="1.0" height="15.0" fill="rgb(240,135,25)" rx="2" ry="2" />
<text  x="29.50" y="63.5" ></text>
</g>
<g >
<title>[[kernel.kallsyms]] (10,101,010 samples, 0.09%)</title><rect x="10.0" y="517" width="1.0" height="15.0" fill="rgb(242,113,27)" rx="2" ry="2" />
<text  x="13.00" y="527.5" ></text>
</g>
<g >
<title>[unknown] (10,101,010 samples, 0.09%)</title><rect x="26.5" y="325" width="1.0" height="15.0" fill="rgb(250,181,52)" rx="2" ry="2" />
<text  x="29.50" y="335.5" ></text>
</g>
<g >
<title>[[kernel.kallsyms]] (10,101,010 samples, 0.09%)</title><rect x="578.3" y="533" width="1.1" height="15.0" fill="rgb(247,103,35)" rx="2" ry="2" />
<text  x="581.34" y="543.5" ></text>
</g>
<g >
<title>[[kernel.kallsyms]] (3,202,020,170 samples, 27.71%)</title><rect x="601.0" y="453" width="327.0" height="15.0" fill="rgb(209,166,18)" rx="2" ry="2" />
<text  x="604.03" y="463.5" >[[kernel.kallsyms]]</text>
</g>
<g >
<title>[[kernel.kallsyms]] (10,101,010 samples, 0.09%)</title><rect x="599.0" y="469" width="1.0" height="15.0" fill="rgb(216,197,37)" rx="2" ry="2" />
<text  x="601.97" y="479.5" ></text>
</g>
<g >
<title>tc_malloc (222,222,220 samples, 1.92%)</title><rect x="444.2" y="533" width="22.7" height="15.0" fill="rgb(246,73,54)" rx="2" ry="2" />
<text  x="447.25" y="543.5" >t..</text>
</g>
<g >
<title>[[kernel.kallsyms]] (10,101,010 samples, 0.09%)</title><rect x="578.3" y="389" width="1.1" height="15.0" fill="rgb(208,201,15)" rx="2" ry="2" />
<text  x="581.34" y="399.5" ></text>
</g>
<g >
<title>[unknown] (2,565,656,540 samples, 22.20%)</title><rect x="928.0" y="517" width="262.0" height="15.0" fill="rgb(234,66,16)" rx="2" ry="2" />
<text  x="931.01" y="527.5" >[unknown]</text>
</g>
<g >
<title>[[kernel.kallsyms]] (10,101,010 samples, 0.09%)</title><rect x="75.0" y="469" width="1.0" height="15.0" fill="rgb(222,185,40)" rx="2" ry="2" />
<text  x="77.98" y="479.5" ></text>
</g>
<g >
<title>swapper (5,767,676,710 samples, 49.91%)</title><rect x="601.0" y="565" width="589.0" height="15.0" fill="rgb(225,47,49)" rx="2" ry="2" />
<text  x="604.03" y="575.5" >swapper</text>
</g>
<g >
<title>[[kernel.kallsyms]] (10,101,010 samples, 0.09%)</title><rect x="10.0" y="341" width="1.0" height="15.0" fill="rgb(248,227,3)" rx="2" ry="2" />
<text  x="13.00" y="351.5" ></text>
</g>
<g >
<title>[[kernel.kallsyms]] (10,101,010 samples, 0.09%)</title><rect x="599.0" y="373" width="1.0" height="15.0" fill="rgb(234,147,54)" rx="2" ry="2" />
<text  x="601.97" y="383.5" ></text>
</g>
<g >
<title>[[kernel.kallsyms]] (10,101,010 samples, 0.09%)</title><rect x="599.0" y="501" width="1.0" height="15.0" fill="rgb(216,204,15)" rx="2" ry="2" />
<text  x="601.97" y="511.5" ></text>
</g>
<g >
<title>[[kernel.kallsyms]] (2,565,656,540 samples, 22.20%)</title><rect x="928.0" y="389" width="262.0" height="15.0" fill="rgb(224,87,30)" rx="2" ry="2" />
<text  x="931.01" y="399.5" >[[kernel.kallsyms]]</text>
</g>
<g >
<title>[[kernel.kallsyms]] (10,101,010 samples, 0.09%)</title><rect x="11.0" y="501" width="1.1" height="15.0" fill="rgb(233,178,7)" rx="2" ry="2" />
<text  x="14.03" y="511.5" ></text>
</g>
<g >
<title>[unknown] (10,101,010 samples, 0.09%)</title><rect x="26.5" y="277" width="1.0" height="15.0" fill="rgb(252,197,17)" rx="2" ry="2" />
<text  x="29.50" y="287.5" ></text>
</g>
<g >
<title>[[kernel.kallsyms]] (10,101,010 samples, 0.09%)</title><rect x="10.0" y="469" width="1.0" height="15.0" fill="rgb(254,111,6)" rx="2" ry="2" />
<text  x="13.00" y="479.5" ></text>
</g>
<g >
<title>_nl_find_locale (10,101,010 samples, 0.09%)</title><rect x="599.0" y="533" width="1.0" height="15.0" fill="rgb(212,23,51)" rx="2" ry="2" />
<text  x="601.97" y="543.5" ></text>
</g>
<g >
<title>[cfrac] (50,505,050 samples, 0.44%)</title><rect x="12.1" y="549" width="5.1" height="15.0" fill="rgb(244,97,35)" rx="2" ry="2" />
<text  x="15.06" y="559.5" ></text>
</g>
<g >
<title>[[kernel.kallsyms]] (10,101,010 samples, 0.09%)</title><rect x="599.0" y="325" width="1.0" height="15.0" fill="rgb(249,195,18)" rx="2" ry="2" />
<text  x="601.97" y="335.5" ></text>
</g>
<g >
<title>picmp (10,101,010 samples, 0.09%)</title><rect x="173.0" y="533" width="1.0" height="15.0" fill="rgb(242,182,16)" rx="2" ry="2" />
<text  x="175.97" y="543.5" ></text>
</g>
<g >
<title>[unknown] (10,101,010 samples, 0.09%)</title><rect x="26.5" y="309" width="1.0" height="15.0" fill="rgb(206,78,49)" rx="2" ry="2" />
<text  x="29.50" y="319.5" ></text>
</g>
<g >
<title>[[kernel.kallsyms]] (10,101,010 samples, 0.09%)</title><rect x="10.0" y="533" width="1.0" height="15.0" fill="rgb(250,151,22)" rx="2" ry="2" />
<text  x="13.00" y="543.5" ></text>
</g>
<g >
<title>padd (161,616,160 samples, 1.40%)</title><rect x="52.3" y="533" width="16.5" height="15.0" fill="rgb(242,139,50)" rx="2" ry="2" />
<text  x="55.29" y="543.5" ></text>
</g>
<g >
<title>operator delete[] (181,818,180 samples, 1.57%)</title><rect x="33.7" y="533" width="18.6" height="15.0" fill="rgb(205,120,22)" rx="2" ry="2" />
<text  x="36.72" y="543.5" ></text>
</g>
<g >
<title>[unknown] (10,101,010 samples, 0.09%)</title><rect x="26.5" y="293" width="1.0" height="15.0" fill="rgb(254,176,13)" rx="2" ry="2" />
<text  x="29.50" y="303.5" ></text>
</g>
<g >
<title>[[kernel.kallsyms]] (3,202,020,170 samples, 27.71%)</title><rect x="601.0" y="469" width="327.0" height="15.0" fill="rgb(220,210,7)" rx="2" ry="2" />
<text  x="604.03" y="479.5" >[[kernel.kallsyms]]</text>
</g>
<g >
<title>[[kernel.kallsyms]] (10,101,010 samples, 0.09%)</title><rect x="578.3" y="421" width="1.1" height="15.0" fill="rgb(226,214,53)" rx="2" ry="2" />
<text  x="581.34" y="431.5" ></text>
</g>
<g >
<title>[[kernel.kallsyms]] (10,101,010 samples, 0.09%)</title><rect x="599.0" y="437" width="1.0" height="15.0" fill="rgb(239,45,3)" rx="2" ry="2" />
<text  x="601.97" y="447.5" ></text>
</g>
<g >
<title>[[kernel.kallsyms]] (10,101,010 samples, 0.09%)</title><rect x="75.0" y="405" width="1.0" height="15.0" fill="rgb(230,19,12)" rx="2" ry="2" />
<text  x="77.98" y="415.5" ></text>
</g>
<g >
<title>pimod (1,979,797,960 samples, 17.13%)</title><rect x="192.6" y="533" width="202.1" height="15.0" fill="rgb(241,54,0)" rx="2" ry="2" />
<text  x="195.57" y="543.5" >pimod</text>
</g>
<g >
<title>[cfrac] (90,909,090 samples, 0.79%)</title><rect x="17.2" y="533" width="9.3" height="15.0" fill="rgb(248,161,11)" rx="2" ry="2" />
<text  x="20.22" y="543.5" ></text>
</g>
<g >
<title>[[kernel.kallsyms]] (10,101,010 samples, 0.09%)</title><rect x="578.3" y="181" width="1.1" height="15.0" fill="rgb(214,132,26)" rx="2" ry="2" />
<text  x="581.34" y="191.5" ></text>
</g>
<g >
<title>pidiv (181,818,180 samples, 1.57%)</title><rect x="174.0" y="533" width="18.6" height="15.0" fill="rgb(240,205,35)" rx="2" ry="2" />
<text  x="177.00" y="543.5" ></text>
</g>
<g >
<title>[unknown] (10,101,010 samples, 0.09%)</title><rect x="26.5" y="213" width="1.0" height="15.0" fill="rgb(237,74,4)" rx="2" ry="2" />
<text  x="29.50" y="223.5" ></text>
</g>
<g >
<title>[[kernel.kallsyms]] (10,101,010 samples, 0.09%)</title><rect x="10.0" y="389" width="1.0" height="15.0" fill="rgb(208,155,12)" rx="2" ry="2" />
<text  x="13.00" y="399.5" ></text>
</g>
<g >
<title>[[kernel.kallsyms]] (10,101,010 samples, 0.09%)</title><rect x="75.0" y="421" width="1.0" height="15.0" fill="rgb(209,219,40)" rx="2" ry="2" />
<text  x="77.98" y="431.5" ></text>
</g>
<g >
<title>[unknown] (30,303,030 samples, 0.26%)</title><rect x="26.5" y="389" width="3.1" height="15.0" fill="rgb(242,182,23)" rx="2" ry="2" />
<text  x="29.50" y="399.5" ></text>
</g>
<g >
<title>[unknown] (10,101,010 samples, 0.09%)</title><rect x="26.5" y="101" width="1.0" height="15.0" fill="rgb(234,76,8)" rx="2" ry="2" />
<text  x="29.50" y="111.5" ></text>
</g>
<g >
<title>[[kernel.kallsyms]] (10,101,010 samples, 0.09%)</title><rect x="10.0" y="437" width="1.0" height="15.0" fill="rgb(205,194,32)" rx="2" ry="2" />
<text  x="13.00" y="447.5" ></text>
</g>
<g >
<title>[unknown] (30,303,030 samples, 0.26%)</title><rect x="26.5" y="517" width="3.1" height="15.0" fill="rgb(215,24,21)" rx="2" ry="2" />
<text  x="29.50" y="527.5" ></text>
</g>
<g >
<title>[[kernel.kallsyms]] (10,101,010 samples, 0.09%)</title><rect x="599.0" y="389" width="1.0" height="15.0" fill="rgb(209,177,35)" rx="2" ry="2" />
<text  x="601.97" y="399.5" ></text>
</g>
<g >
<title>[[kernel.kallsyms]] (10,101,010 samples, 0.09%)</title><rect x="578.3" y="517" width="1.1" height="15.0" fill="rgb(239,68,43)" rx="2" ry="2" />
<text  x="581.34" y="527.5" ></text>
</g>
<g >
<title>[[kernel.kallsyms]] (10,101,010 samples, 0.09%)</title><rect x="578.3" y="229" width="1.1" height="15.0" fill="rgb(234,152,2)" rx="2" ry="2" />
<text  x="581.34" y="239.5" ></text>
</g>
<g >
<title>[[kernel.kallsyms]] (10,101,010 samples, 0.09%)</title><rect x="578.3" y="325" width="1.1" height="15.0" fill="rgb(205,215,38)" rx="2" ry="2" />
<text  x="581.34" y="335.5" ></text>
</g>
<g >
<title>[[kernel.kallsyms]] (10,101,010 samples, 0.09%)</title><rect x="11.0" y="485" width="1.1" height="15.0" fill="rgb(207,153,25)" rx="2" ry="2" />
<text  x="14.03" y="495.5" ></text>
</g>
<g >
<title>setlocale (10,101,010 samples, 0.09%)</title><rect x="599.0" y="549" width="1.0" height="15.0" fill="rgb(212,85,38)" rx="2" ry="2" />
<text  x="601.97" y="559.5" ></text>
</g>
<g >
<title>operator delete[] (10,101,010 samples, 0.09%)</title><rect x="27.5" y="325" width="1.1" height="15.0" fill="rgb(235,218,31)" rx="2" ry="2" />
<text  x="30.53" y="335.5" ></text>
</g>
<g >
<title>[[kernel.kallsyms]] (10,101,010 samples, 0.09%)</title><rect x="578.3" y="261" width="1.1" height="15.0" fill="rgb(245,77,46)" rx="2" ry="2" />
<text  x="581.34" y="271.5" ></text>
</g>
<g >
<title>[unknown] (30,303,030 samples, 0.26%)</title><rect x="26.5" y="453" width="3.1" height="15.0" fill="rgb(233,109,33)" rx="2" ry="2" />
<text  x="29.50" y="463.5" ></text>
</g>
</g>
</svg>
