<?xml version="1.0" standalone="no"?>
<!DOCTYPE svg PUBLIC "-//W3C//DTD SVG 1.1//EN" "http://www.w3.org/Graphics/SVG/1.1/DTD/svg11.dtd">
<svg version="1.1" width="1200" height="822" onload="init(evt)" viewBox="0 0 1200 822" xmlns="http://www.w3.org/2000/svg" xmlns:xlink="http://www.w3.org/1999/xlink">
<!-- Flame graph stack visualization. See https://github.com/brendangregg/FlameGraph for latest version, and http://www.brendangregg.com/flamegraphs.html for examples. -->
<!-- NOTES:  -->
<defs>
	<linearGradient id="background" y1="0" y2="1" x1="0" x2="0" >
		<stop stop-color="#eeeeee" offset="5%" />
		<stop stop-color="#eeeeb0" offset="95%" />
	</linearGradient>
</defs>
<style type="text/css">
	text { font-family:Verdana; font-size:12px; fill:rgb(0,0,0); }
	#search, #ignorecase { opacity:0.1; cursor:pointer; }
	#search:hover, #search.show, #ignorecase:hover, #ignorecase.show { opacity:1; }
	#subtitle { text-anchor:middle; font-color:rgb(160,160,160); }
	#title { text-anchor:middle; font-size:17px}
	#unzoom { cursor:pointer; }
	#frames > *:hover { stroke:black; stroke-width:0.5; cursor:pointer; }
	.hide { display:none; }
	.parent { opacity:0.5; }
</style>
<script type="text/ecmascript">
<![CDATA[
	"use strict";
	var details, searchbtn, unzoombtn, matchedtxt, svg, searching, currentSearchTerm, ignorecase, ignorecaseBtn;
	function init(evt) {
		details = document.getElementById("details").firstChild;
		searchbtn = document.getElementById("search");
		ignorecaseBtn = document.getElementById("ignorecase");
		unzoombtn = document.getElementById("unzoom");
		matchedtxt = document.getElementById("matched");
		svg = document.getElementsByTagName("svg")[0];
		searching = 0;
		currentSearchTerm = null;

		// use GET parameters to restore a flamegraphs state.
		var params = get_params();
		if (params.x && params.y)
			zoom(find_group(document.querySelector('[x="' + params.x + '"][y="' + params.y + '"]')));
                if (params.s) search(params.s);
	}

	// event listeners
	window.addEventListener("click", function(e) {
		var target = find_group(e.target);
		if (target) {
			if (target.nodeName == "a") {
				if (e.ctrlKey === false) return;
				e.preventDefault();
			}
			if (target.classList.contains("parent")) unzoom(true);
			zoom(target);
			if (!document.querySelector('.parent')) {
				// we have basically done a clearzoom so clear the url
				var params = get_params();
				if (params.x) delete params.x;
				if (params.y) delete params.y;
				history.replaceState(null, null, parse_params(params));
				unzoombtn.classList.add("hide");
				return;
			}

			// set parameters for zoom state
			var el = target.querySelector("rect");
			if (el && el.attributes && el.attributes.y && el.attributes._orig_x) {
				var params = get_params()
				params.x = el.attributes._orig_x.value;
				params.y = el.attributes.y.value;
				history.replaceState(null, null, parse_params(params));
			}
		}
		else if (e.target.id == "unzoom") clearzoom();
		else if (e.target.id == "search") search_prompt();
		else if (e.target.id == "ignorecase") toggle_ignorecase();
	}, false)

	// mouse-over for info
	// show
	window.addEventListener("mouseover", function(e) {
		var target = find_group(e.target);
		if (target) details.nodeValue = "Function: " + g_to_text(target);
	}, false)

	// clear
	window.addEventListener("mouseout", function(e) {
		var target = find_group(e.target);
		if (target) details.nodeValue = ' ';
	}, false)

	// ctrl-F for search
	// ctrl-I to toggle case-sensitive search
	window.addEventListener("keydown",function (e) {
		if (e.keyCode === 114 || (e.ctrlKey && e.keyCode === 70)) {
			e.preventDefault();
			search_prompt();
		}
		else if (e.ctrlKey && e.keyCode === 73) {
			e.preventDefault();
			toggle_ignorecase();
		}
	}, false)

	// functions
	function get_params() {
		var params = {};
		var paramsarr = window.location.search.substr(1).split('&');
		for (var i = 0; i < paramsarr.length; ++i) {
			var tmp = paramsarr[i].split("=");
			if (!tmp[0] || !tmp[1]) continue;
			params[tmp[0]]  = decodeURIComponent(tmp[1]);
		}
		return params;
	}
	function parse_params(params) {
		var uri = "?";
		for (var key in params) {
			uri += key + '=' + encodeURIComponent(params[key]) + '&';
		}
		if (uri.slice(-1) == "&")
			uri = uri.substring(0, uri.length - 1);
		if (uri == '?')
			uri = window.location.href.split('?')[0];
		return uri;
	}
	function find_child(node, selector) {
		var children = node.querySelectorAll(selector);
		if (children.length) return children[0];
	}
	function find_group(node) {
		var parent = node.parentElement;
		if (!parent) return;
		if (parent.id == "frames") return node;
		return find_group(parent);
	}
	function orig_save(e, attr, val) {
		if (e.attributes["_orig_" + attr] != undefined) return;
		if (e.attributes[attr] == undefined) return;
		if (val == undefined) val = e.attributes[attr].value;
		e.setAttribute("_orig_" + attr, val);
	}
	function orig_load(e, attr) {
		if (e.attributes["_orig_"+attr] == undefined) return;
		e.attributes[attr].value = e.attributes["_orig_" + attr].value;
		e.removeAttribute("_orig_"+attr);
	}
	function g_to_text(e) {
		var text = find_child(e, "title").firstChild.nodeValue;
		return (text)
	}
	function g_to_func(e) {
		var func = g_to_text(e);
		// if there's any manipulation we want to do to the function
		// name before it's searched, do it here before returning.
		return (func);
	}
	function update_text(e) {
		var r = find_child(e, "rect");
		var t = find_child(e, "text");
		var w = parseFloat(r.attributes.width.value) -3;
		var txt = find_child(e, "title").textContent.replace(/\([^(]*\)$/,"");
		t.attributes.x.value = parseFloat(r.attributes.x.value) + 3;

		// Smaller than this size won't fit anything
		if (w < 2 * 12 * 0.59) {
			t.textContent = "";
			return;
		}

		t.textContent = txt;
		var sl = t.getSubStringLength(0, txt.length);
		// check if only whitespace or if we can fit the entire string into width w
		if (/^ *$/.test(txt) || sl < w)
			return;

		// this isn't perfect, but gives a good starting point
		// and avoids calling getSubStringLength too often
		var start = Math.floor((w/sl) * txt.length);
		for (var x = start; x > 0; x = x-2) {
			if (t.getSubStringLength(0, x + 2) <= w) {
				t.textContent = txt.substring(0, x) + "..";
				return;
			}
		}
		t.textContent = "";
	}

	// zoom
	function zoom_reset(e) {
		if (e.attributes != undefined) {
			orig_load(e, "x");
			orig_load(e, "width");
		}
		if (e.childNodes == undefined) return;
		for (var i = 0, c = e.childNodes; i < c.length; i++) {
			zoom_reset(c[i]);
		}
	}
	function zoom_child(e, x, ratio) {
		if (e.attributes != undefined) {
			if (e.attributes.x != undefined) {
				orig_save(e, "x");
				e.attributes.x.value = (parseFloat(e.attributes.x.value) - x - 10) * ratio + 10;
				if (e.tagName == "text")
					e.attributes.x.value = find_child(e.parentNode, "rect[x]").attributes.x.value + 3;
			}
			if (e.attributes.width != undefined) {
				orig_save(e, "width");
				e.attributes.width.value = parseFloat(e.attributes.width.value) * ratio;
			}
		}

		if (e.childNodes == undefined) return;
		for (var i = 0, c = e.childNodes; i < c.length; i++) {
			zoom_child(c[i], x - 10, ratio);
		}
	}
	function zoom_parent(e) {
		if (e.attributes) {
			if (e.attributes.x != undefined) {
				orig_save(e, "x");
				e.attributes.x.value = 10;
			}
			if (e.attributes.width != undefined) {
				orig_save(e, "width");
				e.attributes.width.value = parseInt(svg.width.baseVal.value) - (10 * 2);
			}
		}
		if (e.childNodes == undefined) return;
		for (var i = 0, c = e.childNodes; i < c.length; i++) {
			zoom_parent(c[i]);
		}
	}
	function zoom(node) {
		var attr = find_child(node, "rect").attributes;
		var width = parseFloat(attr.width.value);
		var xmin = parseFloat(attr.x.value);
		var xmax = parseFloat(xmin + width);
		var ymin = parseFloat(attr.y.value);
		var ratio = (svg.width.baseVal.value - 2 * 10) / width;

		// XXX: Workaround for JavaScript float issues (fix me)
		var fudge = 0.0001;

		unzoombtn.classList.remove("hide");

		var el = document.getElementById("frames").children;
		for (var i = 0; i < el.length; i++) {
			var e = el[i];
			var a = find_child(e, "rect").attributes;
			var ex = parseFloat(a.x.value);
			var ew = parseFloat(a.width.value);
			var upstack;
			// Is it an ancestor
			if (0 == 0) {
				upstack = parseFloat(a.y.value) > ymin;
			} else {
				upstack = parseFloat(a.y.value) < ymin;
			}
			if (upstack) {
				// Direct ancestor
				if (ex <= xmin && (ex+ew+fudge) >= xmax) {
					e.classList.add("parent");
					zoom_parent(e);
					update_text(e);
				}
				// not in current path
				else
					e.classList.add("hide");
			}
			// Children maybe
			else {
				// no common path
				if (ex < xmin || ex + fudge >= xmax) {
					e.classList.add("hide");
				}
				else {
					zoom_child(e, xmin, ratio);
					update_text(e);
				}
			}
		}
		search();
	}
	function unzoom(dont_update_text) {
		unzoombtn.classList.add("hide");
		var el = document.getElementById("frames").children;
		for(var i = 0; i < el.length; i++) {
			el[i].classList.remove("parent");
			el[i].classList.remove("hide");
			zoom_reset(el[i]);
			if(!dont_update_text) update_text(el[i]);
		}
		search();
	}
	function clearzoom() {
		unzoom();

		// remove zoom state
		var params = get_params();
		if (params.x) delete params.x;
		if (params.y) delete params.y;
		history.replaceState(null, null, parse_params(params));
	}

	// search
	function toggle_ignorecase() {
		ignorecase = !ignorecase;
		if (ignorecase) {
			ignorecaseBtn.classList.add("show");
		} else {
			ignorecaseBtn.classList.remove("show");
		}
		reset_search();
		search();
	}
	function reset_search() {
		var el = document.querySelectorAll("#frames rect");
		for (var i = 0; i < el.length; i++) {
			orig_load(el[i], "fill")
		}
		var params = get_params();
		delete params.s;
		history.replaceState(null, null, parse_params(params));
	}
	function search_prompt() {
		if (!searching) {
			var term = prompt("Enter a search term (regexp " +
			    "allowed, eg: ^ext4_)"
			    + (ignorecase ? ", ignoring case" : "")
			    + "\nPress Ctrl-i to toggle case sensitivity", "");
			if (term != null) search(term);
		} else {
			reset_search();
			searching = 0;
			currentSearchTerm = null;
			searchbtn.classList.remove("show");
			searchbtn.firstChild.nodeValue = "Search"
			matchedtxt.classList.add("hide");
			matchedtxt.firstChild.nodeValue = ""
		}
	}
	function search(term) {
		if (term) currentSearchTerm = term;

		var re = new RegExp(currentSearchTerm, ignorecase ? 'i' : '');
		var el = document.getElementById("frames").children;
		var matches = new Object();
		var maxwidth = 0;
		for (var i = 0; i < el.length; i++) {
			var e = el[i];
			var func = g_to_func(e);
			var rect = find_child(e, "rect");
			if (func == null || rect == null)
				continue;

			// Save max width. Only works as we have a root frame
			var w = parseFloat(rect.attributes.width.value);
			if (w > maxwidth)
				maxwidth = w;

			if (func.match(re)) {
				// highlight
				var x = parseFloat(rect.attributes.x.value);
				orig_save(rect, "fill");
				rect.attributes.fill.value = "rgb(230,0,230)";

				// remember matches
				if (matches[x] == undefined) {
					matches[x] = w;
				} else {
					if (w > matches[x]) {
						// overwrite with parent
						matches[x] = w;
					}
				}
				searching = 1;
			}
		}
		if (!searching)
			return;
		var params = get_params();
		params.s = currentSearchTerm;
		history.replaceState(null, null, parse_params(params));

		searchbtn.classList.add("show");
		searchbtn.firstChild.nodeValue = "Reset Search";

		// calculate percent matched, excluding vertical overlap
		var count = 0;
		var lastx = -1;
		var lastw = 0;
		var keys = Array();
		for (k in matches) {
			if (matches.hasOwnProperty(k))
				keys.push(k);
		}
		// sort the matched frames by their x location
		// ascending, then width descending
		keys.sort(function(a, b){
			return a - b;
		});
		// Step through frames saving only the biggest bottom-up frames
		// thanks to the sort order. This relies on the tree property
		// where children are always smaller than their parents.
		var fudge = 0.0001;	// JavaScript floating point
		for (var k in keys) {
			var x = parseFloat(keys[k]);
			var w = matches[keys[k]];
			if (x >= lastx + lastw - fudge) {
				count += w;
				lastx = x;
				lastw = w;
			}
		}
		// display matched percent
		matchedtxt.classList.remove("hide");
		var pct = 100 * count / maxwidth;
		if (pct != 100) pct = pct.toFixed(1)
		matchedtxt.firstChild.nodeValue = "Matched: " + pct + "%";
	}
]]>
</script>
<rect x="0.0" y="0" width="1200.0" height="822.0" fill="url(#background)"  />
<text id="title" x="600.00" y="24" >Flame Graph</text>
<text id="details" x="10.00" y="805" > </text>
<text id="unzoom" x="10.00" y="24" class="hide">Reset Zoom</text>
<text id="search" x="1090.00" y="24" >Search</text>
<text id="ignorecase" x="1174.00" y="24" >ic</text>
<text id="matched" x="1090.00" y="805" > </text>
<g id="frames">
<g >
<title>__GI___setsockopt (10,101,010 samples, 0.08%)</title><rect x="603.8" y="725" width="0.9" height="15.0" fill="rgb(211,153,22)" rx="2" ry="2" />
<text  x="606.75" y="735.5" ></text>
</g>
<g >
<title>tcmalloc::tcmalloc_internal::(anonymous namespace)::do_free_pages (10,101,010 samples, 0.08%)</title><rect x="192.0" y="693" width="0.9" height="15.0" fill="rgb(242,108,0)" rx="2" ry="2" />
<text  x="194.97" y="703.5" ></text>
</g>
<g >
<title>pcmpz (30,303,030 samples, 0.24%)</title><rect x="116.0" y="725" width="2.8" height="15.0" fill="rgb(241,192,39)" rx="2" ry="2" />
<text  x="118.99" y="735.5" ></text>
</g>
<g >
<title>tcmalloc::tcmalloc_internal::HugeCache::DecUsage (10,101,010 samples, 0.08%)</title><rect x="192.0" y="645" width="0.9" height="15.0" fill="rgb(223,181,39)" rx="2" ry="2" />
<text  x="194.97" y="655.5" ></text>
</g>
<g >
<title>[[kernel.kallsyms]] (10,101,010 samples, 0.08%)</title><rect x="74.7" y="293" width="1.0" height="15.0" fill="rgb(209,133,29)" rx="2" ry="2" />
<text  x="77.72" y="303.5" ></text>
</g>
<g >
<title>[[kernel.kallsyms]] (1,424,242,410 samples, 11.21%)</title><rect x="1057.7" y="645" width="132.3" height="15.0" fill="rgb(232,40,43)" rx="2" ry="2" />
<text  x="1060.74" y="655.5" >[[kernel.kallsym..</text>
</g>
<g >
<title>TCMallocInternalDeleteArrayAlignedNothrow (50,505,050 samples, 0.40%)</title><rect x="11.9" y="741" width="4.7" height="15.0" fill="rgb(220,146,28)" rx="2" ry="2" />
<text  x="14.88" y="751.5" ></text>
</g>
<g >
<title>[[kernel.kallsyms]] (10,101,010 samples, 0.08%)</title><rect x="74.7" y="213" width="1.0" height="15.0" fill="rgb(241,68,33)" rx="2" ry="2" />
<text  x="77.72" y="223.5" ></text>
</g>
<g >
<title>TCMallocInternalDeleteArrayAlignedNothrow (151,515,150 samples, 1.19%)</title><rect x="584.1" y="725" width="14.0" height="15.0" fill="rgb(229,136,45)" rx="2" ry="2" />
<text  x="587.05" y="735.5" ></text>
</g>
<g >
<title>[[kernel.kallsyms]] (10,101,010 samples, 0.08%)</title><rect x="10.9" y="629" width="1.0" height="15.0" fill="rgb(217,10,14)" rx="2" ry="2" />
<text  x="13.94" y="639.5" ></text>
</g>
<g >
<title>[[kernel.kallsyms]] (10,101,010 samples, 0.08%)</title><rect x="74.7" y="69" width="1.0" height="15.0" fill="rgb(250,45,1)" rx="2" ry="2" />
<text  x="77.72" y="79.5" ></text>
</g>
<g >
<title>pfactorQ (151,515,150 samples, 1.19%)</title><rect x="144.1" y="725" width="14.1" height="15.0" fill="rgb(233,147,39)" rx="2" ry="2" />
<text  x="147.13" y="735.5" ></text>
</g>
<g >
<title>TCMallocInternalDeleteArrayAlignedNothrow (323,232,320 samples, 2.54%)</title><rect x="162.9" y="709" width="30.0" height="15.0" fill="rgb(251,176,1)" rx="2" ry="2" />
<text  x="165.89" y="719.5" >TC..</text>
</g>
<g >
<title>[[kernel.kallsyms]] (4,868,686,820 samples, 38.31%)</title><rect x="605.6" y="645" width="452.1" height="15.0" fill="rgb(240,80,35)" rx="2" ry="2" />
<text  x="608.63" y="655.5" >[[kernel.kallsyms]]</text>
</g>
<g >
<title>epoll_wait (10,101,010 samples, 0.08%)</title><rect x="604.7" y="741" width="0.9" height="15.0" fill="rgb(232,45,5)" rx="2" ry="2" />
<text  x="607.69" y="751.5" ></text>
</g>
<g >
<title>pcmp (333,333,330 samples, 2.62%)</title><rect x="85.0" y="725" width="31.0" height="15.0" fill="rgb(244,6,48)" rx="2" ry="2" />
<text  x="88.04" y="735.5" >pcmp</text>
</g>
<g >
<title>psub (171,717,170 samples, 1.35%)</title><rect x="429.3" y="725" width="15.9" height="15.0" fill="rgb(211,173,1)" rx="2" ry="2" />
<text  x="432.28" y="735.5" ></text>
</g>
<g >
<title>[unknown] (1,424,242,410 samples, 11.21%)</title><rect x="1057.7" y="725" width="132.3" height="15.0" fill="rgb(206,115,33)" rx="2" ry="2" />
<text  x="1060.74" y="735.5" >[unknown]</text>
</g>
<g >
<title>[[kernel.kallsyms]] (4,868,686,820 samples, 38.31%)</title><rect x="605.6" y="661" width="452.1" height="15.0" fill="rgb(240,106,26)" rx="2" ry="2" />
<text  x="608.63" y="671.5" >[[kernel.kallsyms]]</text>
</g>
<g >
<title>dirname (10,101,010 samples, 0.08%)</title><rect x="600.0" y="757" width="0.9" height="15.0" fill="rgb(236,193,44)" rx="2" ry="2" />
<text  x="603.00" y="767.5" ></text>
</g>
<g >
<title>[[kernel.kallsyms]] (10,101,010 samples, 0.08%)</title><rect x="74.7" y="389" width="1.0" height="15.0" fill="rgb(249,212,50)" rx="2" ry="2" />
<text  x="77.72" y="399.5" ></text>
</g>
<g >
<title>[[kernel.kallsyms]] (10,101,010 samples, 0.08%)</title><rect x="74.7" y="405" width="1.0" height="15.0" fill="rgb(210,37,48)" rx="2" ry="2" />
<text  x="77.72" y="415.5" ></text>
</g>
<g >
<title>[[kernel.kallsyms]] (10,101,010 samples, 0.08%)</title><rect x="74.7" y="165" width="1.0" height="15.0" fill="rgb(227,223,44)" rx="2" ry="2" />
<text  x="77.72" y="175.5" ></text>
</g>
<g >
<title>podd (20,202,020 samples, 0.16%)</title><rect x="427.4" y="725" width="1.9" height="15.0" fill="rgb(251,79,49)" rx="2" ry="2" />
<text  x="430.41" y="735.5" ></text>
</g>
<g >
<title>[[kernel.kallsyms]] (10,101,010 samples, 0.08%)</title><rect x="604.7" y="581" width="0.9" height="15.0" fill="rgb(215,26,39)" rx="2" ry="2" />
<text  x="607.69" y="591.5" ></text>
</g>
<g >
<title>[[kernel.kallsyms]] (10,101,010 samples, 0.08%)</title><rect x="604.7" y="725" width="0.9" height="15.0" fill="rgb(228,62,35)" rx="2" ry="2" />
<text  x="607.69" y="735.5" ></text>
</g>
<g >
<title>__poll (10,101,010 samples, 0.08%)</title><rect x="600.9" y="709" width="1.0" height="15.0" fill="rgb(211,98,54)" rx="2" ry="2" />
<text  x="603.94" y="719.5" ></text>
</g>
<g >
<title>[unknown] (10,101,010 samples, 0.08%)</title><rect x="601.9" y="725" width="0.9" height="15.0" fill="rgb(240,220,12)" rx="2" ry="2" />
<text  x="604.88" y="735.5" ></text>
</g>
<g >
<title>tcmalloc::tcmalloc_internal::huge_page_allocator_internal::HugePageAwareAllocator&lt;tcmalloc::tcmalloc_internal::huge_page_allocator_internal::StaticForwarder&gt;::Delete (10,101,010 samples, 0.08%)</title><rect x="192.0" y="677" width="0.9" height="15.0" fill="rgb(217,173,29)" rx="2" ry="2" />
<text  x="194.97" y="687.5" ></text>
</g>
<g >
<title>__memset_avx2_unaligned_erms (30,303,030 samples, 0.24%)</title><rect x="29.7" y="725" width="2.8" height="15.0" fill="rgb(223,212,8)" rx="2" ry="2" />
<text  x="32.70" y="735.5" ></text>
</g>
<g >
<title>[[kernel.kallsyms]] (10,101,010 samples, 0.08%)</title><rect x="74.7" y="485" width="1.0" height="15.0" fill="rgb(209,86,23)" rx="2" ry="2" />
<text  x="77.72" y="495.5" ></text>
</g>
<g >
<title>pidiv (262,626,260 samples, 2.07%)</title><rect x="198.5" y="725" width="24.4" height="15.0" fill="rgb(228,174,45)" rx="2" ry="2" />
<text  x="201.54" y="735.5" >p..</text>
</g>
<g >
<title>phalf (30,303,030 samples, 0.24%)</title><rect x="192.9" y="725" width="2.8" height="15.0" fill="rgb(254,12,45)" rx="2" ry="2" />
<text  x="195.91" y="735.5" ></text>
</g>
<g >
<title>start_thread (10,101,010 samples, 0.08%)</title><rect x="600.9" y="741" width="1.0" height="15.0" fill="rgb(220,37,47)" rx="2" ry="2" />
<text  x="603.94" y="751.5" ></text>
</g>
<g >
<title>[[kernel.kallsyms]] (10,101,010 samples, 0.08%)</title><rect x="74.7" y="661" width="1.0" height="15.0" fill="rgb(229,128,2)" rx="2" ry="2" />
<text  x="77.72" y="671.5" ></text>
</g>
<g >
<title>[[kernel.kallsyms]] (10,101,010 samples, 0.08%)</title><rect x="74.7" y="261" width="1.0" height="15.0" fill="rgb(250,43,2)" rx="2" ry="2" />
<text  x="77.72" y="271.5" ></text>
</g>
<g >
<title>[[kernel.kallsyms]] (10,101,010 samples, 0.08%)</title><rect x="74.7" y="501" width="1.0" height="15.0" fill="rgb(209,20,18)" rx="2" ry="2" />
<text  x="77.72" y="511.5" ></text>
</g>
<g >
<title>[[kernel.kallsyms]] (10,101,010 samples, 0.08%)</title><rect x="604.7" y="661" width="0.9" height="15.0" fill="rgb(237,208,23)" rx="2" ry="2" />
<text  x="607.69" y="671.5" ></text>
</g>
<g >
<title>[[kernel.kallsyms]] (10,101,010 samples, 0.08%)</title><rect x="74.7" y="693" width="1.0" height="15.0" fill="rgb(238,65,20)" rx="2" ry="2" />
<text  x="77.72" y="703.5" ></text>
</g>
<g >
<title>[unknown] (1,424,242,410 samples, 11.21%)</title><rect x="1057.7" y="709" width="132.3" height="15.0" fill="rgb(230,1,53)" rx="2" ry="2" />
<text  x="1060.74" y="719.5" >[unknown]</text>
</g>
<g >
<title>[[kernel.kallsyms]] (4,868,686,820 samples, 38.31%)</title><rect x="605.6" y="709" width="452.1" height="15.0" fill="rgb(220,46,28)" rx="2" ry="2" />
<text  x="608.63" y="719.5" >[[kernel.kallsyms]]</text>
</g>
<g >
<title>[[kernel.kallsyms]] (10,101,010 samples, 0.08%)</title><rect x="604.7" y="677" width="0.9" height="15.0" fill="rgb(208,19,38)" rx="2" ry="2" />
<text  x="607.69" y="687.5" ></text>
</g>
<g >
<title>[[kernel.kallsyms]] (10,101,010 samples, 0.08%)</title><rect x="74.7" y="437" width="1.0" height="15.0" fill="rgb(224,179,48)" rx="2" ry="2" />
<text  x="77.72" y="447.5" ></text>
</g>
<g >
<title>python3 (30,303,030 samples, 0.24%)</title><rect x="601.9" y="757" width="2.8" height="15.0" fill="rgb(218,11,39)" rx="2" ry="2" />
<text  x="604.88" y="767.5" ></text>
</g>
<g >
<title>absl::FDivDuration (10,101,010 samples, 0.08%)</title><rect x="192.0" y="629" width="0.9" height="15.0" fill="rgb(250,39,5)" rx="2" ry="2" />
<text  x="194.97" y="639.5" ></text>
</g>
<g >
<title>pdivmod (969,696,960 samples, 7.63%)</title><rect x="490.3" y="741" width="90.0" height="15.0" fill="rgb(228,158,34)" rx="2" ry="2" />
<text  x="493.25" y="751.5" >pdivmod</text>
</g>
<g >
<title>pmul (282,828,280 samples, 2.23%)</title><rect x="401.1" y="725" width="26.3" height="15.0" fill="rgb(236,69,36)" rx="2" ry="2" />
<text  x="404.14" y="735.5" >p..</text>
</g>
<g >
<title>[[kernel.kallsyms]] (10,101,010 samples, 0.08%)</title><rect x="74.7" y="181" width="1.0" height="15.0" fill="rgb(219,210,48)" rx="2" ry="2" />
<text  x="77.72" y="191.5" ></text>
</g>
<g >
<title>[[kernel.kallsyms]] (10,101,010 samples, 0.08%)</title><rect x="74.7" y="85" width="1.0" height="15.0" fill="rgb(220,159,25)" rx="2" ry="2" />
<text  x="77.72" y="95.5" ></text>
</g>
<g >
<title>[unknown] (10,101,010 samples, 0.08%)</title><rect x="10.0" y="741" width="0.9" height="15.0" fill="rgb(231,20,18)" rx="2" ry="2" />
<text  x="13.00" y="751.5" ></text>
</g>
<g >
<title>[[kernel.kallsyms]] (1,424,242,410 samples, 11.21%)</title><rect x="1057.7" y="597" width="132.3" height="15.0" fill="rgb(210,174,26)" rx="2" ry="2" />
<text  x="1060.74" y="607.5" >[[kernel.kallsym..</text>
</g>
<g >
<title>palloc (484,848,480 samples, 3.82%)</title><rect x="445.2" y="741" width="45.1" height="15.0" fill="rgb(232,189,34)" rx="2" ry="2" />
<text  x="448.23" y="751.5" >palloc</text>
</g>
<g >
<title>picmp (30,303,030 samples, 0.24%)</title><rect x="195.7" y="725" width="2.8" height="15.0" fill="rgb(233,228,52)" rx="2" ry="2" />
<text  x="198.72" y="735.5" ></text>
</g>
<g >
<title>pdivmod (272,727,270 samples, 2.15%)</title><rect x="118.8" y="725" width="25.3" height="15.0" fill="rgb(220,168,15)" rx="2" ry="2" />
<text  x="121.81" y="735.5" >p..</text>
</g>
<g >
<title>[unknown] (10,101,010 samples, 0.08%)</title><rect x="601.9" y="709" width="0.9" height="15.0" fill="rgb(208,108,18)" rx="2" ry="2" />
<text  x="604.88" y="719.5" ></text>
</g>
<g >
<title>[[kernel.kallsyms]] (4,868,686,820 samples, 38.31%)</title><rect x="605.6" y="677" width="452.1" height="15.0" fill="rgb(209,189,39)" rx="2" ry="2" />
<text  x="608.63" y="687.5" >[[kernel.kallsyms]]</text>
</g>
<g >
<title>[[kernel.kallsyms]] (10,101,010 samples, 0.08%)</title><rect x="74.7" y="549" width="1.0" height="15.0" fill="rgb(215,114,0)" rx="2" ry="2" />
<text  x="77.72" y="559.5" ></text>
</g>
<g >
<title>[[kernel.kallsyms]] (10,101,010 samples, 0.08%)</title><rect x="604.7" y="597" width="0.9" height="15.0" fill="rgb(218,99,12)" rx="2" ry="2" />
<text  x="607.69" y="607.5" ></text>
</g>
<g >
<title>[unknown] (4,575,757,530 samples, 36.01%)</title><rect x="20.3" y="741" width="424.9" height="15.0" fill="rgb(254,205,45)" rx="2" ry="2" />
<text  x="23.32" y="751.5" >[unknown]</text>
</g>
<g >
<title>[[kernel.kallsyms]] (10,101,010 samples, 0.08%)</title><rect x="74.7" y="101" width="1.0" height="15.0" fill="rgb(233,77,35)" rx="2" ry="2" />
<text  x="77.72" y="111.5" ></text>
</g>
<g >
<title>TCMallocInternalMalloc (414,141,410 samples, 3.26%)</title><rect x="451.8" y="725" width="38.5" height="15.0" fill="rgb(219,51,17)" rx="2" ry="2" />
<text  x="454.80" y="735.5" >TCM..</text>
</g>
<g >
<title>TCMallocInternalMalloc (20,202,020 samples, 0.16%)</title><rect x="23.1" y="725" width="1.9" height="15.0" fill="rgb(226,219,50)" rx="2" ry="2" />
<text  x="26.13" y="735.5" ></text>
</g>
<g >
<title>[[kernel.kallsyms]] (10,101,010 samples, 0.08%)</title><rect x="74.7" y="341" width="1.0" height="15.0" fill="rgb(220,227,11)" rx="2" ry="2" />
<text  x="77.72" y="351.5" ></text>
</g>
<g >
<title>[[kernel.kallsyms]] (10,101,010 samples, 0.08%)</title><rect x="74.7" y="517" width="1.0" height="15.0" fill="rgb(240,152,52)" rx="2" ry="2" />
<text  x="77.72" y="527.5" ></text>
</g>
<g >
<title>[[kernel.kallsyms]] (1,424,242,410 samples, 11.21%)</title><rect x="1057.7" y="661" width="132.3" height="15.0" fill="rgb(224,54,29)" rx="2" ry="2" />
<text  x="1060.74" y="671.5" >[[kernel.kallsym..</text>
</g>
<g >
<title>__errno_location (10,101,010 samples, 0.08%)</title><rect x="601.9" y="645" width="0.9" height="15.0" fill="rgb(241,102,51)" rx="2" ry="2" />
<text  x="604.88" y="655.5" ></text>
</g>
<g >
<title>[[kernel.kallsyms]] (10,101,010 samples, 0.08%)</title><rect x="74.7" y="453" width="1.0" height="15.0" fill="rgb(205,153,16)" rx="2" ry="2" />
<text  x="77.72" y="463.5" ></text>
</g>
<g >
<title>pnorm (20,202,020 samples, 0.16%)</title><rect x="598.1" y="741" width="1.9" height="15.0" fill="rgb(214,151,17)" rx="2" ry="2" />
<text  x="601.12" y="751.5" ></text>
</g>
<g >
<title>[[kernel.kallsyms]] (4,868,686,820 samples, 38.31%)</title><rect x="605.6" y="693" width="452.1" height="15.0" fill="rgb(206,136,5)" rx="2" ry="2" />
<text  x="608.63" y="703.5" >[[kernel.kallsyms]]</text>
</g>
<g >
<title>[[kernel.kallsyms]] (10,101,010 samples, 0.08%)</title><rect x="74.7" y="277" width="1.0" height="15.0" fill="rgb(226,155,51)" rx="2" ry="2" />
<text  x="77.72" y="287.5" ></text>
</g>
<g >
<title>[[kernel.kallsyms]] (10,101,010 samples, 0.08%)</title><rect x="10.9" y="709" width="1.0" height="15.0" fill="rgb(246,167,39)" rx="2" ry="2" />
<text  x="13.94" y="719.5" ></text>
</g>
<g >
<title>_dl_addr (10,101,010 samples, 0.08%)</title><rect x="600.0" y="741" width="0.9" height="15.0" fill="rgb(213,32,13)" rx="2" ry="2" />
<text  x="603.00" y="751.5" ></text>
</g>
<g >
<title>pfree (191,919,190 samples, 1.51%)</title><rect x="580.3" y="741" width="17.8" height="15.0" fill="rgb(209,229,23)" rx="2" ry="2" />
<text  x="583.30" y="751.5" ></text>
</g>
<g >
<title>[[kernel.kallsyms]] (10,101,010 samples, 0.08%)</title><rect x="604.7" y="709" width="0.9" height="15.0" fill="rgb(220,171,51)" rx="2" ry="2" />
<text  x="607.69" y="719.5" ></text>
</g>
<g >
<title>padd (90,909,090 samples, 0.72%)</title><rect x="32.5" y="725" width="8.5" height="15.0" fill="rgb(250,187,46)" rx="2" ry="2" />
<text  x="35.51" y="735.5" ></text>
</g>
<g >
<title>[[kernel.kallsyms]] (10,101,010 samples, 0.08%)</title><rect x="74.7" y="533" width="1.0" height="15.0" fill="rgb(238,89,5)" rx="2" ry="2" />
<text  x="77.72" y="543.5" ></text>
</g>
<g >
<title>TCMallocInternalDeleteArrayAlignedNothrow (30,303,030 samples, 0.24%)</title><rect x="20.3" y="725" width="2.8" height="15.0" fill="rgb(236,141,51)" rx="2" ry="2" />
<text  x="23.32" y="735.5" ></text>
</g>
<g >
<title>[cfrac] (40,404,040 samples, 0.32%)</title><rect x="16.6" y="741" width="3.7" height="15.0" fill="rgb(217,46,47)" rx="2" ry="2" />
<text  x="19.57" y="751.5" ></text>
</g>
<g >
<title>[[kernel.kallsyms]] (10,101,010 samples, 0.08%)</title><rect x="10.9" y="725" width="1.0" height="15.0" fill="rgb(248,32,51)" rx="2" ry="2" />
<text  x="13.94" y="735.5" ></text>
</g>
<g >
<title>mlx5e_napi_poll (10,101,010 samples, 0.08%)</title><rect x="74.7" y="597" width="1.0" height="15.0" fill="rgb(216,74,26)" rx="2" ry="2" />
<text  x="77.72" y="607.5" ></text>
</g>
<g >
<title>pcfrac (101,010,100 samples, 0.79%)</title><rect x="75.7" y="725" width="9.3" height="15.0" fill="rgb(218,175,22)" rx="2" ry="2" />
<text  x="78.66" y="735.5" ></text>
</g>
<g >
<title>[unknown] (30,303,030 samples, 0.24%)</title><rect x="601.9" y="741" width="2.8" height="15.0" fill="rgb(226,166,17)" rx="2" ry="2" />
<text  x="604.88" y="751.5" ></text>
</g>
<g >
<title>[[kernel.kallsyms]] (10,101,010 samples, 0.08%)</title><rect x="74.7" y="421" width="1.0" height="15.0" fill="rgb(245,23,19)" rx="2" ry="2" />
<text  x="77.72" y="431.5" ></text>
</g>
<g >
<title>netvsc_start_xmit (10,101,010 samples, 0.08%)</title><rect x="74.7" y="133" width="1.0" height="15.0" fill="rgb(212,14,8)" rx="2" ry="2" />
<text  x="77.72" y="143.5" ></text>
</g>
<g >
<title>[[kernel.kallsyms]] (10,101,010 samples, 0.08%)</title><rect x="74.7" y="357" width="1.0" height="15.0" fill="rgb(228,45,19)" rx="2" ry="2" />
<text  x="77.72" y="367.5" ></text>
</g>
<g >
<title>[[kernel.kallsyms]] (10,101,010 samples, 0.08%)</title><rect x="74.7" y="677" width="1.0" height="15.0" fill="rgb(234,91,42)" rx="2" ry="2" />
<text  x="77.72" y="687.5" ></text>
</g>
<g >
<title>_PyEval_EvalFrameDefault (10,101,010 samples, 0.08%)</title><rect x="602.8" y="725" width="1.0" height="15.0" fill="rgb(217,21,22)" rx="2" ry="2" />
<text  x="605.81" y="735.5" ></text>
</g>
<g >
<title>[unknown] (1,424,242,410 samples, 11.21%)</title><rect x="1057.7" y="677" width="132.3" height="15.0" fill="rgb(220,19,27)" rx="2" ry="2" />
<text  x="1060.74" y="687.5" >[unknown]</text>
</g>
<g >
<title>cfree@GLIBC_2.2.5 (10,101,010 samples, 0.08%)</title><rect x="10.0" y="709" width="0.9" height="15.0" fill="rgb(218,164,23)" rx="2" ry="2" />
<text  x="13.00" y="719.5" ></text>
</g>
<g >
<title>[[kernel.kallsyms]] (10,101,010 samples, 0.08%)</title><rect x="74.7" y="469" width="1.0" height="15.0" fill="rgb(238,211,52)" rx="2" ry="2" />
<text  x="77.72" y="479.5" ></text>
</g>
<g >
<title>[[kernel.kallsyms]] (10,101,010 samples, 0.08%)</title><rect x="604.7" y="645" width="0.9" height="15.0" fill="rgb(222,70,2)" rx="2" ry="2" />
<text  x="607.69" y="655.5" ></text>
</g>
<g >
<title>[[kernel.kallsyms]] (10,101,010 samples, 0.08%)</title><rect x="74.7" y="245" width="1.0" height="15.0" fill="rgb(249,212,37)" rx="2" ry="2" />
<text  x="77.72" y="255.5" ></text>
</g>
<g >
<title>[unknown] (10,101,010 samples, 0.08%)</title><rect x="601.9" y="661" width="0.9" height="15.0" fill="rgb(240,51,33)" rx="2" ry="2" />
<text  x="604.88" y="671.5" ></text>
</g>
<g >
<title>[unknown] (10,101,010 samples, 0.08%)</title><rect x="601.9" y="677" width="0.9" height="15.0" fill="rgb(208,132,8)" rx="2" ry="2" />
<text  x="604.88" y="687.5" ></text>
</g>
<g >
<title>[[kernel.kallsyms]] (10,101,010 samples, 0.08%)</title><rect x="74.7" y="197" width="1.0" height="15.0" fill="rgb(245,41,19)" rx="2" ry="2" />
<text  x="77.72" y="207.5" ></text>
</g>
<g >
<title>cfrac (6,333,333,270 samples, 49.84%)</title><rect x="11.9" y="757" width="588.1" height="15.0" fill="rgb(246,82,19)" rx="2" ry="2" />
<text  x="14.88" y="767.5" >cfrac</text>
</g>
<g >
<title>[[kernel.kallsyms]] (10,101,010 samples, 0.08%)</title><rect x="74.7" y="373" width="1.0" height="15.0" fill="rgb(239,29,31)" rx="2" ry="2" />
<text  x="77.72" y="383.5" ></text>
</g>
<g >
<title>[cfrac] (50,505,050 samples, 0.40%)</title><rect x="25.0" y="725" width="4.7" height="15.0" fill="rgb(225,148,41)" rx="2" ry="2" />
<text  x="28.01" y="735.5" ></text>
</g>
<g >
<title>[[kernel.kallsyms]] (4,868,686,820 samples, 38.31%)</title><rect x="605.6" y="725" width="452.1" height="15.0" fill="rgb(219,69,51)" rx="2" ry="2" />
<text  x="608.63" y="735.5" >[[kernel.kallsyms]]</text>
</g>
<g >
<title>tcmalloc::tcmalloc_internal::HugeCache::Release (10,101,010 samples, 0.08%)</title><rect x="192.0" y="661" width="0.9" height="15.0" fill="rgb(247,172,17)" rx="2" ry="2" />
<text  x="194.97" y="671.5" ></text>
</g>
<g >
<title>[[kernel.kallsyms]] (10,101,010 samples, 0.08%)</title><rect x="74.7" y="229" width="1.0" height="15.0" fill="rgb(251,53,44)" rx="2" ry="2" />
<text  x="77.72" y="239.5" ></text>
</g>
<g >
<title>bench.sh (20,202,020 samples, 0.16%)</title><rect x="10.0" y="757" width="1.9" height="15.0" fill="rgb(230,45,43)" rx="2" ry="2" />
<text  x="13.00" y="767.5" ></text>
</g>
<g >
<title>pfree (373,737,370 samples, 2.94%)</title><rect x="158.2" y="725" width="34.7" height="15.0" fill="rgb(216,190,15)" rx="2" ry="2" />
<text  x="161.20" y="735.5" >pf..</text>
</g>
<g >
<title>[[kernel.kallsyms]] (10,101,010 samples, 0.08%)</title><rect x="604.7" y="629" width="0.9" height="15.0" fill="rgb(223,12,15)" rx="2" ry="2" />
<text  x="607.69" y="639.5" ></text>
</g>
<g >
<title>[[kernel.kallsyms]] (10,101,010 samples, 0.08%)</title><rect x="10.9" y="661" width="1.0" height="15.0" fill="rgb(223,160,45)" rx="2" ry="2" />
<text  x="13.94" y="671.5" ></text>
</g>
<g >
<title>[[kernel.kallsyms]] (1,424,242,410 samples, 11.21%)</title><rect x="1057.7" y="581" width="132.3" height="15.0" fill="rgb(238,24,18)" rx="2" ry="2" />
<text  x="1060.74" y="591.5" >[[kernel.kallsym..</text>
</g>
<g >
<title>[[kernel.kallsyms]] (10,101,010 samples, 0.08%)</title><rect x="74.7" y="629" width="1.0" height="15.0" fill="rgb(252,172,30)" rx="2" ry="2" />
<text  x="77.72" y="639.5" ></text>
</g>
<g >
<title>[[kernel.kallsyms]] (10,101,010 samples, 0.08%)</title><rect x="74.7" y="149" width="1.0" height="15.0" fill="rgb(217,10,24)" rx="2" ry="2" />
<text  x="77.72" y="159.5" ></text>
</g>
<g >
<title>swapper (6,292,929,230 samples, 49.52%)</title><rect x="605.6" y="757" width="584.4" height="15.0" fill="rgb(237,76,43)" rx="2" ry="2" />
<text  x="608.63" y="767.5" >swapper</text>
</g>
<g >
<title>perf_evlist__poll_thread (10,101,010 samples, 0.08%)</title><rect x="600.9" y="725" width="1.0" height="15.0" fill="rgb(254,44,48)" rx="2" ry="2" />
<text  x="603.94" y="735.5" ></text>
</g>
<g >
<title>[[kernel.kallsyms]] (10,101,010 samples, 0.08%)</title><rect x="74.7" y="53" width="1.0" height="15.0" fill="rgb(241,86,27)" rx="2" ry="2" />
<text  x="77.72" y="63.5" ></text>
</g>
<g >
<title>[[kernel.kallsyms]] (10,101,010 samples, 0.08%)</title><rect x="74.7" y="565" width="1.0" height="15.0" fill="rgb(229,120,41)" rx="2" ry="2" />
<text  x="77.72" y="575.5" ></text>
</g>
<g >
<title>mlx5e_xmit (10,101,010 samples, 0.08%)</title><rect x="74.7" y="37" width="1.0" height="15.0" fill="rgb(208,14,50)" rx="2" ry="2" />
<text  x="77.72" y="47.5" ></text>
</g>
<g >
<title>[[kernel.kallsyms]] (10,101,010 samples, 0.08%)</title><rect x="10.9" y="677" width="1.0" height="15.0" fill="rgb(220,6,6)" rx="2" ry="2" />
<text  x="13.94" y="687.5" ></text>
</g>
<g >
<title>[[kernel.kallsyms]] (10,101,010 samples, 0.08%)</title><rect x="74.7" y="309" width="1.0" height="15.0" fill="rgb(209,65,14)" rx="2" ry="2" />
<text  x="77.72" y="319.5" ></text>
</g>
<g >
<title>[[kernel.kallsyms]] (1,424,242,410 samples, 11.21%)</title><rect x="1057.7" y="613" width="132.3" height="15.0" fill="rgb(225,196,6)" rx="2" ry="2" />
<text  x="1060.74" y="623.5" >[[kernel.kallsym..</text>
</g>
<g >
<title>[unknown] (10,101,010 samples, 0.08%)</title><rect x="601.9" y="693" width="0.9" height="15.0" fill="rgb(253,222,18)" rx="2" ry="2" />
<text  x="604.88" y="703.5" ></text>
</g>
<g >
<title>netvsc_xmit (10,101,010 samples, 0.08%)</title><rect x="74.7" y="117" width="1.0" height="15.0" fill="rgb(247,5,48)" rx="2" ry="2" />
<text  x="77.72" y="127.5" ></text>
</g>
<g >
<title>TCMallocInternalMalloc (323,232,320 samples, 2.54%)</title><rect x="45.6" y="709" width="30.1" height="15.0" fill="rgb(232,36,15)" rx="2" ry="2" />
<text  x="48.64" y="719.5" >TC..</text>
</g>
<g >
<title>[[kernel.kallsyms]] (10,101,010 samples, 0.08%)</title><rect x="604.7" y="613" width="0.9" height="15.0" fill="rgb(222,52,32)" rx="2" ry="2" />
<text  x="607.69" y="623.5" ></text>
</g>
<g >
<title>[[kernel.kallsyms]] (6,292,929,230 samples, 49.52%)</title><rect x="605.6" y="741" width="584.4" height="15.0" fill="rgb(222,163,43)" rx="2" ry="2" />
<text  x="608.63" y="751.5" >[[kernel.kallsyms]]</text>
</g>
<g >
<title>__GI___libc_sigaction (10,101,010 samples, 0.08%)</title><rect x="10.9" y="741" width="1.0" height="15.0" fill="rgb(235,29,40)" rx="2" ry="2" />
<text  x="13.94" y="751.5" ></text>
</g>
<g >
<title>[unknown] (1,424,242,410 samples, 11.21%)</title><rect x="1057.7" y="693" width="132.3" height="15.0" fill="rgb(209,131,18)" rx="2" ry="2" />
<text  x="1060.74" y="703.5" >[unknown]</text>
</g>
<g >
<title>[[kernel.kallsyms]] (1,424,242,410 samples, 11.21%)</title><rect x="1057.7" y="629" width="132.3" height="15.0" fill="rgb(236,175,33)" rx="2" ry="2" />
<text  x="1060.74" y="639.5" >[[kernel.kallsym..</text>
</g>
<g >
<title>[[kernel.kallsyms]] (10,101,010 samples, 0.08%)</title><rect x="74.7" y="645" width="1.0" height="15.0" fill="rgb(235,126,54)" rx="2" ry="2" />
<text  x="77.72" y="655.5" ></text>
</g>
<g >
<title>[[kernel.kallsyms]] (10,101,010 samples, 0.08%)</title><rect x="74.7" y="325" width="1.0" height="15.0" fill="rgb(246,15,12)" rx="2" ry="2" />
<text  x="77.72" y="335.5" ></text>
</g>
<g >
<title>[unknown] (10,101,010 samples, 0.08%)</title><rect x="10.0" y="725" width="0.9" height="15.0" fill="rgb(226,83,10)" rx="2" ry="2" />
<text  x="13.00" y="735.5" ></text>
</g>
<g >
<title>[[kernel.kallsyms]] (10,101,010 samples, 0.08%)</title><rect x="604.7" y="693" width="0.9" height="15.0" fill="rgb(218,202,34)" rx="2" ry="2" />
<text  x="607.69" y="703.5" ></text>
</g>
<g >
<title>palloc (373,737,370 samples, 2.94%)</title><rect x="41.0" y="725" width="34.7" height="15.0" fill="rgb(229,14,47)" rx="2" ry="2" />
<text  x="43.95" y="735.5" >pa..</text>
</g>
<g >
<title>[[kernel.kallsyms]] (10,101,010 samples, 0.08%)</title><rect x="10.9" y="693" width="1.0" height="15.0" fill="rgb(216,115,30)" rx="2" ry="2" />
<text  x="13.94" y="703.5" ></text>
</g>
<g >
<title>[[kernel.kallsyms]] (10,101,010 samples, 0.08%)</title><rect x="74.7" y="613" width="1.0" height="15.0" fill="rgb(239,197,4)" rx="2" ry="2" />
<text  x="77.72" y="623.5" ></text>
</g>
<g >
<title>[[kernel.kallsyms]] (10,101,010 samples, 0.08%)</title><rect x="74.7" y="581" width="1.0" height="15.0" fill="rgb(230,107,41)" rx="2" ry="2" />
<text  x="77.72" y="591.5" ></text>
</g>
<g >
<title>redis-server (10,101,010 samples, 0.08%)</title><rect x="604.7" y="757" width="0.9" height="15.0" fill="rgb(212,223,36)" rx="2" ry="2" />
<text  x="607.69" y="767.5" ></text>
</g>
<g >
<title>pimod (1,919,191,900 samples, 15.10%)</title><rect x="222.9" y="725" width="178.2" height="15.0" fill="rgb(234,100,49)" rx="2" ry="2" />
<text  x="225.93" y="735.5" >pimod</text>
</g>
<g >
<title>[[kernel.kallsyms]] (10,101,010 samples, 0.08%)</title><rect x="10.9" y="645" width="1.0" height="15.0" fill="rgb(221,35,45)" rx="2" ry="2" />
<text  x="13.94" y="655.5" ></text>
</g>
<g >
<title>all (12,707,070,580 samples, 100%)</title><rect x="10.0" y="773" width="1180.0" height="15.0" fill="rgb(214,179,39)" rx="2" ry="2" />
<text  x="13.00" y="783.5" ></text>
</g>
<g >
<title>perf (10,101,010 samples, 0.08%)</title><rect x="600.9" y="757" width="1.0" height="15.0" fill="rgb(227,27,6)" rx="2" ry="2" />
<text  x="603.94" y="767.5" ></text>
</g>
</g>
</svg>
