<?xml version="1.0" standalone="no"?>
<!DOCTYPE svg PUBLIC "-//W3C//DTD SVG 1.1//EN" "http://www.w3.org/Graphics/SVG/1.1/DTD/svg11.dtd">
<svg version="1.1" width="1200" height="358" onload="init(evt)" viewBox="0 0 1200 358" xmlns="http://www.w3.org/2000/svg" xmlns:xlink="http://www.w3.org/1999/xlink">
<!-- Flame graph stack visualization. See https://github.com/brendangregg/FlameGraph for latest version, and http://www.brendangregg.com/flamegraphs.html for examples. -->
<!-- NOTES:  -->
<defs>
	<linearGradient id="background" y1="0" y2="1" x1="0" x2="0" >
		<stop stop-color="#eeeeee" offset="5%" />
		<stop stop-color="#eeeeb0" offset="95%" />
	</linearGradient>
</defs>
<style type="text/css">
	text { font-family:Verdana; font-size:12px; fill:rgb(0,0,0); }
	#search, #ignorecase { opacity:0.1; cursor:pointer; }
	#search:hover, #search.show, #ignorecase:hover, #ignorecase.show { opacity:1; }
	#subtitle { text-anchor:middle; font-color:rgb(160,160,160); }
	#title { text-anchor:middle; font-size:17px}
	#unzoom { cursor:pointer; }
	#frames > *:hover { stroke:black; stroke-width:0.5; cursor:pointer; }
	.hide { display:none; }
	.parent { opacity:0.5; }
</style>
<script type="text/ecmascript">
<![CDATA[
	"use strict";
	var details, searchbtn, unzoombtn, matchedtxt, svg, searching, currentSearchTerm, ignorecase, ignorecaseBtn;
	function init(evt) {
		details = document.getElementById("details").firstChild;
		searchbtn = document.getElementById("search");
		ignorecaseBtn = document.getElementById("ignorecase");
		unzoombtn = document.getElementById("unzoom");
		matchedtxt = document.getElementById("matched");
		svg = document.getElementsByTagName("svg")[0];
		searching = 0;
		currentSearchTerm = null;

		// use GET parameters to restore a flamegraphs state.
		var params = get_params();
		if (params.x && params.y)
			zoom(find_group(document.querySelector('[x="' + params.x + '"][y="' + params.y + '"]')));
                if (params.s) search(params.s);
	}

	// event listeners
	window.addEventListener("click", function(e) {
		var target = find_group(e.target);
		if (target) {
			if (target.nodeName == "a") {
				if (e.ctrlKey === false) return;
				e.preventDefault();
			}
			if (target.classList.contains("parent")) unzoom(true);
			zoom(target);
			if (!document.querySelector('.parent')) {
				// we have basically done a clearzoom so clear the url
				var params = get_params();
				if (params.x) delete params.x;
				if (params.y) delete params.y;
				history.replaceState(null, null, parse_params(params));
				unzoombtn.classList.add("hide");
				return;
			}

			// set parameters for zoom state
			var el = target.querySelector("rect");
			if (el && el.attributes && el.attributes.y && el.attributes._orig_x) {
				var params = get_params()
				params.x = el.attributes._orig_x.value;
				params.y = el.attributes.y.value;
				history.replaceState(null, null, parse_params(params));
			}
		}
		else if (e.target.id == "unzoom") clearzoom();
		else if (e.target.id == "search") search_prompt();
		else if (e.target.id == "ignorecase") toggle_ignorecase();
	}, false)

	// mouse-over for info
	// show
	window.addEventListener("mouseover", function(e) {
		var target = find_group(e.target);
		if (target) details.nodeValue = "Function: " + g_to_text(target);
	}, false)

	// clear
	window.addEventListener("mouseout", function(e) {
		var target = find_group(e.target);
		if (target) details.nodeValue = ' ';
	}, false)

	// ctrl-F for search
	// ctrl-I to toggle case-sensitive search
	window.addEventListener("keydown",function (e) {
		if (e.keyCode === 114 || (e.ctrlKey && e.keyCode === 70)) {
			e.preventDefault();
			search_prompt();
		}
		else if (e.ctrlKey && e.keyCode === 73) {
			e.preventDefault();
			toggle_ignorecase();
		}
	}, false)

	// functions
	function get_params() {
		var params = {};
		var paramsarr = window.location.search.substr(1).split('&');
		for (var i = 0; i < paramsarr.length; ++i) {
			var tmp = paramsarr[i].split("=");
			if (!tmp[0] || !tmp[1]) continue;
			params[tmp[0]]  = decodeURIComponent(tmp[1]);
		}
		return params;
	}
	function parse_params(params) {
		var uri = "?";
		for (var key in params) {
			uri += key + '=' + encodeURIComponent(params[key]) + '&';
		}
		if (uri.slice(-1) == "&")
			uri = uri.substring(0, uri.length - 1);
		if (uri == '?')
			uri = window.location.href.split('?')[0];
		return uri;
	}
	function find_child(node, selector) {
		var children = node.querySelectorAll(selector);
		if (children.length) return children[0];
	}
	function find_group(node) {
		var parent = node.parentElement;
		if (!parent) return;
		if (parent.id == "frames") return node;
		return find_group(parent);
	}
	function orig_save(e, attr, val) {
		if (e.attributes["_orig_" + attr] != undefined) return;
		if (e.attributes[attr] == undefined) return;
		if (val == undefined) val = e.attributes[attr].value;
		e.setAttribute("_orig_" + attr, val);
	}
	function orig_load(e, attr) {
		if (e.attributes["_orig_"+attr] == undefined) return;
		e.attributes[attr].value = e.attributes["_orig_" + attr].value;
		e.removeAttribute("_orig_"+attr);
	}
	function g_to_text(e) {
		var text = find_child(e, "title").firstChild.nodeValue;
		return (text)
	}
	function g_to_func(e) {
		var func = g_to_text(e);
		// if there's any manipulation we want to do to the function
		// name before it's searched, do it here before returning.
		return (func);
	}
	function update_text(e) {
		var r = find_child(e, "rect");
		var t = find_child(e, "text");
		var w = parseFloat(r.attributes.width.value) -3;
		var txt = find_child(e, "title").textContent.replace(/\([^(]*\)$/,"");
		t.attributes.x.value = parseFloat(r.attributes.x.value) + 3;

		// Smaller than this size won't fit anything
		if (w < 2 * 12 * 0.59) {
			t.textContent = "";
			return;
		}

		t.textContent = txt;
		var sl = t.getSubStringLength(0, txt.length);
		// check if only whitespace or if we can fit the entire string into width w
		if (/^ *$/.test(txt) || sl < w)
			return;

		// this isn't perfect, but gives a good starting point
		// and avoids calling getSubStringLength too often
		var start = Math.floor((w/sl) * txt.length);
		for (var x = start; x > 0; x = x-2) {
			if (t.getSubStringLength(0, x + 2) <= w) {
				t.textContent = txt.substring(0, x) + "..";
				return;
			}
		}
		t.textContent = "";
	}

	// zoom
	function zoom_reset(e) {
		if (e.attributes != undefined) {
			orig_load(e, "x");
			orig_load(e, "width");
		}
		if (e.childNodes == undefined) return;
		for (var i = 0, c = e.childNodes; i < c.length; i++) {
			zoom_reset(c[i]);
		}
	}
	function zoom_child(e, x, ratio) {
		if (e.attributes != undefined) {
			if (e.attributes.x != undefined) {
				orig_save(e, "x");
				e.attributes.x.value = (parseFloat(e.attributes.x.value) - x - 10) * ratio + 10;
				if (e.tagName == "text")
					e.attributes.x.value = find_child(e.parentNode, "rect[x]").attributes.x.value + 3;
			}
			if (e.attributes.width != undefined) {
				orig_save(e, "width");
				e.attributes.width.value = parseFloat(e.attributes.width.value) * ratio;
			}
		}

		if (e.childNodes == undefined) return;
		for (var i = 0, c = e.childNodes; i < c.length; i++) {
			zoom_child(c[i], x - 10, ratio);
		}
	}
	function zoom_parent(e) {
		if (e.attributes) {
			if (e.attributes.x != undefined) {
				orig_save(e, "x");
				e.attributes.x.value = 10;
			}
			if (e.attributes.width != undefined) {
				orig_save(e, "width");
				e.attributes.width.value = parseInt(svg.width.baseVal.value) - (10 * 2);
			}
		}
		if (e.childNodes == undefined) return;
		for (var i = 0, c = e.childNodes; i < c.length; i++) {
			zoom_parent(c[i]);
		}
	}
	function zoom(node) {
		var attr = find_child(node, "rect").attributes;
		var width = parseFloat(attr.width.value);
		var xmin = parseFloat(attr.x.value);
		var xmax = parseFloat(xmin + width);
		var ymin = parseFloat(attr.y.value);
		var ratio = (svg.width.baseVal.value - 2 * 10) / width;

		// XXX: Workaround for JavaScript float issues (fix me)
		var fudge = 0.0001;

		unzoombtn.classList.remove("hide");

		var el = document.getElementById("frames").children;
		for (var i = 0; i < el.length; i++) {
			var e = el[i];
			var a = find_child(e, "rect").attributes;
			var ex = parseFloat(a.x.value);
			var ew = parseFloat(a.width.value);
			var upstack;
			// Is it an ancestor
			if (0 == 0) {
				upstack = parseFloat(a.y.value) > ymin;
			} else {
				upstack = parseFloat(a.y.value) < ymin;
			}
			if (upstack) {
				// Direct ancestor
				if (ex <= xmin && (ex+ew+fudge) >= xmax) {
					e.classList.add("parent");
					zoom_parent(e);
					update_text(e);
				}
				// not in current path
				else
					e.classList.add("hide");
			}
			// Children maybe
			else {
				// no common path
				if (ex < xmin || ex + fudge >= xmax) {
					e.classList.add("hide");
				}
				else {
					zoom_child(e, xmin, ratio);
					update_text(e);
				}
			}
		}
		search();
	}
	function unzoom(dont_update_text) {
		unzoombtn.classList.add("hide");
		var el = document.getElementById("frames").children;
		for(var i = 0; i < el.length; i++) {
			el[i].classList.remove("parent");
			el[i].classList.remove("hide");
			zoom_reset(el[i]);
			if(!dont_update_text) update_text(el[i]);
		}
		search();
	}
	function clearzoom() {
		unzoom();

		// remove zoom state
		var params = get_params();
		if (params.x) delete params.x;
		if (params.y) delete params.y;
		history.replaceState(null, null, parse_params(params));
	}

	// search
	function toggle_ignorecase() {
		ignorecase = !ignorecase;
		if (ignorecase) {
			ignorecaseBtn.classList.add("show");
		} else {
			ignorecaseBtn.classList.remove("show");
		}
		reset_search();
		search();
	}
	function reset_search() {
		var el = document.querySelectorAll("#frames rect");
		for (var i = 0; i < el.length; i++) {
			orig_load(el[i], "fill")
		}
		var params = get_params();
		delete params.s;
		history.replaceState(null, null, parse_params(params));
	}
	function search_prompt() {
		if (!searching) {
			var term = prompt("Enter a search term (regexp " +
			    "allowed, eg: ^ext4_)"
			    + (ignorecase ? ", ignoring case" : "")
			    + "\nPress Ctrl-i to toggle case sensitivity", "");
			if (term != null) search(term);
		} else {
			reset_search();
			searching = 0;
			currentSearchTerm = null;
			searchbtn.classList.remove("show");
			searchbtn.firstChild.nodeValue = "Search"
			matchedtxt.classList.add("hide");
			matchedtxt.firstChild.nodeValue = ""
		}
	}
	function search(term) {
		if (term) currentSearchTerm = term;

		var re = new RegExp(currentSearchTerm, ignorecase ? 'i' : '');
		var el = document.getElementById("frames").children;
		var matches = new Object();
		var maxwidth = 0;
		for (var i = 0; i < el.length; i++) {
			var e = el[i];
			var func = g_to_func(e);
			var rect = find_child(e, "rect");
			if (func == null || rect == null)
				continue;

			// Save max width. Only works as we have a root frame
			var w = parseFloat(rect.attributes.width.value);
			if (w > maxwidth)
				maxwidth = w;

			if (func.match(re)) {
				// highlight
				var x = parseFloat(rect.attributes.x.value);
				orig_save(rect, "fill");
				rect.attributes.fill.value = "rgb(230,0,230)";

				// remember matches
				if (matches[x] == undefined) {
					matches[x] = w;
				} else {
					if (w > matches[x]) {
						// overwrite with parent
						matches[x] = w;
					}
				}
				searching = 1;
			}
		}
		if (!searching)
			return;
		var params = get_params();
		params.s = currentSearchTerm;
		history.replaceState(null, null, parse_params(params));

		searchbtn.classList.add("show");
		searchbtn.firstChild.nodeValue = "Reset Search";

		// calculate percent matched, excluding vertical overlap
		var count = 0;
		var lastx = -1;
		var lastw = 0;
		var keys = Array();
		for (k in matches) {
			if (matches.hasOwnProperty(k))
				keys.push(k);
		}
		// sort the matched frames by their x location
		// ascending, then width descending
		keys.sort(function(a, b){
			return a - b;
		});
		// Step through frames saving only the biggest bottom-up frames
		// thanks to the sort order. This relies on the tree property
		// where children are always smaller than their parents.
		var fudge = 0.0001;	// JavaScript floating point
		for (var k in keys) {
			var x = parseFloat(keys[k]);
			var w = matches[keys[k]];
			if (x >= lastx + lastw - fudge) {
				count += w;
				lastx = x;
				lastw = w;
			}
		}
		// display matched percent
		matchedtxt.classList.remove("hide");
		var pct = 100 * count / maxwidth;
		if (pct != 100) pct = pct.toFixed(1)
		matchedtxt.firstChild.nodeValue = "Matched: " + pct + "%";
	}
]]>
</script>
<rect x="0.0" y="0" width="1200.0" height="358.0" fill="url(#background)"  />
<text id="title" x="600.00" y="24" >Flame Graph</text>
<text id="details" x="10.00" y="341" > </text>
<text id="unzoom" x="10.00" y="24" class="hide">Reset Zoom</text>
<text id="search" x="1090.00" y="24" >Search</text>
<text id="ignorecase" x="1174.00" y="24" >ic</text>
<text id="matched" x="1090.00" y="341" > </text>
<g id="frames">
<g >
<title>[[kernel.kallsyms]] (10,101,010 samples, 0.08%)</title><rect x="10.0" y="245" width="1.0" height="15.0" fill="rgb(215,212,41)" rx="2" ry="2" />
<text  x="13.00" y="255.5" ></text>
</g>
<g >
<title>bench.sh (20,202,020 samples, 0.16%)</title><rect x="10.0" y="293" width="1.9" height="15.0" fill="rgb(215,6,43)" rx="2" ry="2" />
<text  x="13.00" y="303.5" ></text>
</g>
<g >
<title>[[kernel.kallsyms]] (4,363,636,320 samples, 34.95%)</title><rect x="602.9" y="245" width="412.4" height="15.0" fill="rgb(242,89,32)" rx="2" ry="2" />
<text  x="605.86" y="255.5" >[[kernel.kallsyms]]</text>
</g>
<g >
<title>hyperv_blit_to_vram_rect.isra.0 (10,101,010 samples, 0.08%)</title><rect x="600.0" y="69" width="1.0" height="15.0" fill="rgb(230,37,47)" rx="2" ry="2" />
<text  x="603.00" y="79.5" ></text>
</g>
<g >
<title>drm_fb_helper_damage_work (10,101,010 samples, 0.08%)</title><rect x="600.0" y="213" width="1.0" height="15.0" fill="rgb(228,82,24)" rx="2" ry="2" />
<text  x="603.00" y="223.5" ></text>
</g>
<g >
<title>_int_free (10,101,010 samples, 0.08%)</title><rect x="23.4" y="197" width="0.9" height="15.0" fill="rgb(228,211,32)" rx="2" ry="2" />
<text  x="26.37" y="207.5" ></text>
</g>
<g >
<title>drm_atomic_helper_commit_planes (10,101,010 samples, 0.08%)</title><rect x="600.0" y="117" width="1.0" height="15.0" fill="rgb(206,39,45)" rx="2" ry="2" />
<text  x="603.00" y="127.5" ></text>
</g>
<g >
<title>[[kernel.kallsyms]] (1,848,484,830 samples, 14.81%)</title><rect x="1015.3" y="117" width="174.7" height="15.0" fill="rgb(236,157,27)" rx="2" ry="2" />
<text  x="1018.29" y="127.5" >[[kernel.kallsyms]]</text>
</g>
<g >
<title>cfree@GLIBC_2.2.5 (40,404,040 samples, 0.32%)</title><rect x="67.3" y="261" width="3.8" height="15.0" fill="rgb(222,84,7)" rx="2" ry="2" />
<text  x="70.28" y="271.5" ></text>
</g>
<g >
<title>[unknown] (1,848,484,830 samples, 14.81%)</title><rect x="1015.3" y="261" width="174.7" height="15.0" fill="rgb(248,23,10)" rx="2" ry="2" />
<text  x="1018.29" y="271.5" >[unknown]</text>
</g>
<g >
<title>[[kernel.kallsyms]] (4,363,636,320 samples, 34.95%)</title><rect x="602.9" y="261" width="412.4" height="15.0" fill="rgb(219,76,35)" rx="2" ry="2" />
<text  x="605.86" y="271.5" >[[kernel.kallsyms]]</text>
</g>
<g >
<title>pcmpz (60,606,060 samples, 0.49%)</title><rect x="135.1" y="261" width="5.7" height="15.0" fill="rgb(229,44,1)" rx="2" ry="2" />
<text  x="138.06" y="271.5" ></text>
</g>
<g >
<title>swapper (6,212,121,150 samples, 49.76%)</title><rect x="602.9" y="293" width="587.1" height="15.0" fill="rgb(253,164,20)" rx="2" ry="2" />
<text  x="605.86" y="303.5" >swapper</text>
</g>
<g >
<title>[unknown] (10,101,010 samples, 0.08%)</title><rect x="23.4" y="213" width="0.9" height="15.0" fill="rgb(232,79,43)" rx="2" ry="2" />
<text  x="26.37" y="223.5" ></text>
</g>
<g >
<title>[unknown] (1,848,484,830 samples, 14.81%)</title><rect x="1015.3" y="229" width="174.7" height="15.0" fill="rgb(225,67,10)" rx="2" ry="2" />
<text  x="1018.29" y="239.5" >[unknown]</text>
</g>
<g >
<title>[[kernel.kallsyms]] (10,101,010 samples, 0.08%)</title><rect x="10.0" y="261" width="1.0" height="15.0" fill="rgb(212,48,18)" rx="2" ry="2" />
<text  x="13.00" y="271.5" ></text>
</g>
<g >
<title>[unknown] (4,606,060,560 samples, 36.89%)</title><rect x="18.6" y="277" width="435.3" height="15.0" fill="rgb(206,224,42)" rx="2" ry="2" />
<text  x="21.59" y="287.5" >[unknown]</text>
</g>
<g >
<title>[[kernel.kallsyms]] (10,101,010 samples, 0.08%)</title><rect x="600.0" y="37" width="1.0" height="15.0" fill="rgb(233,225,1)" rx="2" ry="2" />
<text  x="603.00" y="47.5" ></text>
</g>
<g >
<title>[[kernel.kallsyms]] (10,101,010 samples, 0.08%)</title><rect x="11.0" y="181" width="0.9" height="15.0" fill="rgb(206,126,26)" rx="2" ry="2" />
<text  x="13.95" y="191.5" ></text>
</g>
<g >
<title>[[kernel.kallsyms]] (1,848,484,830 samples, 14.81%)</title><rect x="1015.3" y="133" width="174.7" height="15.0" fill="rgb(231,115,15)" rx="2" ry="2" />
<text  x="1018.29" y="143.5" >[[kernel.kallsyms]]</text>
</g>
<g >
<title>pfree (30,303,030 samples, 0.24%)</title><rect x="200.9" y="261" width="2.9" height="15.0" fill="rgb(223,71,17)" rx="2" ry="2" />
<text  x="203.94" y="271.5" ></text>
</g>
<g >
<title>[[kernel.kallsyms]] (1,848,484,830 samples, 14.81%)</title><rect x="1015.3" y="181" width="174.7" height="15.0" fill="rgb(214,202,5)" rx="2" ry="2" />
<text  x="1018.29" y="191.5" >[[kernel.kallsyms]]</text>
</g>
<g >
<title>[[kernel.kallsyms]] (10,101,010 samples, 0.08%)</title><rect x="601.0" y="149" width="0.9" height="15.0" fill="rgb(208,204,47)" rx="2" ry="2" />
<text  x="603.95" y="159.5" ></text>
</g>
<g >
<title>all (12,484,848,360 samples, 100%)</title><rect x="10.0" y="309" width="1180.0" height="15.0" fill="rgb(221,102,48)" rx="2" ry="2" />
<text  x="13.00" y="319.5" ></text>
</g>
<g >
<title>drm_atomic_helper_dirtyfb (10,101,010 samples, 0.08%)</title><rect x="600.0" y="197" width="1.0" height="15.0" fill="rgb(229,188,38)" rx="2" ry="2" />
<text  x="603.00" y="207.5" ></text>
</g>
<g >
<title>pmul (272,727,270 samples, 2.18%)</title><rect x="412.9" y="261" width="25.8" height="15.0" fill="rgb(244,217,0)" rx="2" ry="2" />
<text  x="415.88" y="271.5" >p..</text>
</g>
<g >
<title>pidiv (212,121,210 samples, 1.70%)</title><rect x="207.6" y="261" width="20.1" height="15.0" fill="rgb(215,32,34)" rx="2" ry="2" />
<text  x="210.62" y="271.5" ></text>
</g>
<g >
<title>__strchr_avx2 (10,101,010 samples, 0.08%)</title><rect x="601.9" y="261" width="1.0" height="15.0" fill="rgb(221,30,12)" rx="2" ry="2" />
<text  x="604.91" y="271.5" ></text>
</g>
<g >
<title>__libc_fork (10,101,010 samples, 0.08%)</title><rect x="11.0" y="277" width="0.9" height="15.0" fill="rgb(244,55,20)" rx="2" ry="2" />
<text  x="13.95" y="287.5" ></text>
</g>
<g >
<title>[[kernel.kallsyms]] (1,848,484,830 samples, 14.81%)</title><rect x="1015.3" y="197" width="174.7" height="15.0" fill="rgb(253,59,8)" rx="2" ry="2" />
<text  x="1018.29" y="207.5" >[[kernel.kallsyms]]</text>
</g>
<g >
<title>[[kernel.kallsyms]] (6,212,121,150 samples, 49.76%)</title><rect x="602.9" y="277" width="587.1" height="15.0" fill="rgb(240,171,18)" rx="2" ry="2" />
<text  x="605.86" y="287.5" >[[kernel.kallsyms]]</text>
</g>
<g >
<title>palloc (60,606,060 samples, 0.49%)</title><rect x="85.4" y="261" width="5.7" height="15.0" fill="rgb(241,23,47)" rx="2" ry="2" />
<text  x="88.42" y="271.5" ></text>
</g>
<g >
<title>[[kernel.kallsyms]] (10,101,010 samples, 0.08%)</title><rect x="601.0" y="133" width="0.9" height="15.0" fill="rgb(253,53,28)" rx="2" ry="2" />
<text  x="603.95" y="143.5" ></text>
</g>
<g >
<title>commit_tail (10,101,010 samples, 0.08%)</title><rect x="600.0" y="149" width="1.0" height="15.0" fill="rgb(239,37,17)" rx="2" ry="2" />
<text  x="603.00" y="159.5" ></text>
</g>
<g >
<title>pnorm (20,202,020 samples, 0.16%)</title><rect x="597.1" y="277" width="1.9" height="15.0" fill="rgb(233,227,38)" rx="2" ry="2" />
<text  x="600.14" y="287.5" ></text>
</g>
<g >
<title>[[kernel.kallsyms]] (10,101,010 samples, 0.08%)</title><rect x="10.0" y="133" width="1.0" height="15.0" fill="rgb(231,224,15)" rx="2" ry="2" />
<text  x="13.00" y="143.5" ></text>
</g>
<g >
<title>[[kernel.kallsyms]] (10,101,010 samples, 0.08%)</title><rect x="601.0" y="213" width="0.9" height="15.0" fill="rgb(242,2,25)" rx="2" ry="2" />
<text  x="603.95" y="223.5" ></text>
</g>
<g >
<title>[[kernel.kallsyms]] (4,363,636,320 samples, 34.95%)</title><rect x="602.9" y="197" width="412.4" height="15.0" fill="rgb(205,176,5)" rx="2" ry="2" />
<text  x="605.86" y="207.5" >[[kernel.kallsyms]]</text>
</g>
<g >
<title>_int_free (373,737,370 samples, 2.99%)</title><rect x="32.0" y="261" width="35.3" height="15.0" fill="rgb(209,10,23)" rx="2" ry="2" />
<text  x="34.96" y="271.5" >_i..</text>
</g>
<g >
<title>picmp (20,202,020 samples, 0.16%)</title><rect x="205.7" y="261" width="1.9" height="15.0" fill="rgb(223,51,9)" rx="2" ry="2" />
<text  x="208.71" y="271.5" ></text>
</g>
<g >
<title>drm_simple_kms_plane_atomic_update (10,101,010 samples, 0.08%)</title><rect x="600.0" y="101" width="1.0" height="15.0" fill="rgb(217,66,51)" rx="2" ry="2" />
<text  x="603.00" y="111.5" ></text>
</g>
<g >
<title>cfree@GLIBC_2.2.5 (40,404,040 samples, 0.32%)</title><rect x="458.7" y="277" width="3.8" height="15.0" fill="rgb(240,56,42)" rx="2" ry="2" />
<text  x="461.71" y="287.5" ></text>
</g>
<g >
<title>[[kernel.kallsyms]] (10,101,010 samples, 0.08%)</title><rect x="601.0" y="197" width="0.9" height="15.0" fill="rgb(245,216,43)" rx="2" ry="2" />
<text  x="603.95" y="207.5" ></text>
</g>
<g >
<title>pfactorQ (252,525,250 samples, 2.02%)</title><rect x="177.1" y="261" width="23.8" height="15.0" fill="rgb(243,222,4)" rx="2" ry="2" />
<text  x="180.07" y="271.5" >p..</text>
</g>
<g >
<title>[unknown] (10,101,010 samples, 0.08%)</title><rect x="599.0" y="277" width="1.0" height="15.0" fill="rgb(210,228,35)" rx="2" ry="2" />
<text  x="602.05" y="287.5" ></text>
</g>
<g >
<title>[[kernel.kallsyms]] (10,101,010 samples, 0.08%)</title><rect x="601.0" y="181" width="0.9" height="15.0" fill="rgb(225,188,0)" rx="2" ry="2" />
<text  x="603.95" y="191.5" ></text>
</g>
<g >
<title>[[kernel.kallsyms]] (10,101,010 samples, 0.08%)</title><rect x="601.0" y="117" width="0.9" height="15.0" fill="rgb(227,121,1)" rx="2" ry="2" />
<text  x="603.95" y="127.5" ></text>
</g>
<g >
<title>[unknown] (1,848,484,830 samples, 14.81%)</title><rect x="1015.3" y="245" width="174.7" height="15.0" fill="rgb(222,14,21)" rx="2" ry="2" />
<text  x="1018.29" y="255.5" >[unknown]</text>
</g>
<g >
<title>[[kernel.kallsyms]] (10,101,010 samples, 0.08%)</title><rect x="600.0" y="229" width="1.0" height="15.0" fill="rgb(215,168,35)" rx="2" ry="2" />
<text  x="603.00" y="239.5" ></text>
</g>
<g >
<title>_int_free (20,202,020 samples, 0.16%)</title><rect x="24.3" y="229" width="1.9" height="15.0" fill="rgb(253,12,47)" rx="2" ry="2" />
<text  x="27.32" y="239.5" ></text>
</g>
<g >
<title>malloc (434,343,430 samples, 3.48%)</title><rect x="462.5" y="277" width="41.1" height="15.0" fill="rgb(238,110,43)" rx="2" ry="2" />
<text  x="465.52" y="287.5" >mal..</text>
</g>
<g >
<title>[unknown] (30,303,030 samples, 0.24%)</title><rect x="23.4" y="245" width="2.8" height="15.0" fill="rgb(205,18,54)" rx="2" ry="2" />
<text  x="26.37" y="255.5" ></text>
</g>
<g >
<title>[unknown] (10,101,010 samples, 0.08%)</title><rect x="23.4" y="229" width="0.9" height="15.0" fill="rgb(232,212,8)" rx="2" ry="2" />
<text  x="26.37" y="239.5" ></text>
</g>
<g >
<title>[[kernel.kallsyms]] (10,101,010 samples, 0.08%)</title><rect x="11.0" y="213" width="0.9" height="15.0" fill="rgb(221,193,7)" rx="2" ry="2" />
<text  x="13.95" y="223.5" ></text>
</g>
<g >
<title>[unknown] (1,848,484,830 samples, 14.81%)</title><rect x="1015.3" y="213" width="174.7" height="15.0" fill="rgb(252,25,21)" rx="2" ry="2" />
<text  x="1018.29" y="223.5" >[unknown]</text>
</g>
<g >
<title>pdivmod (878,787,870 samples, 7.04%)</title><rect x="512.2" y="277" width="83.0" height="15.0" fill="rgb(205,125,31)" rx="2" ry="2" />
<text  x="515.17" y="287.5" >pdivmod</text>
</g>
<g >
<title>drm_atomic_commit (10,101,010 samples, 0.08%)</title><rect x="600.0" y="181" width="1.0" height="15.0" fill="rgb(230,216,50)" rx="2" ry="2" />
<text  x="603.00" y="191.5" ></text>
</g>
<g >
<title>[cfrac] (70,707,070 samples, 0.57%)</title><rect x="11.9" y="277" width="6.7" height="15.0" fill="rgb(252,121,20)" rx="2" ry="2" />
<text  x="14.91" y="287.5" ></text>
</g>
<g >
<title>[[kernel.kallsyms]] (10,101,010 samples, 0.08%)</title><rect x="10.0" y="229" width="1.0" height="15.0" fill="rgb(253,39,47)" rx="2" ry="2" />
<text  x="13.00" y="239.5" ></text>
</g>
<g >
<title>[[kernel.kallsyms]] (10,101,010 samples, 0.08%)</title><rect x="11.0" y="117" width="0.9" height="15.0" fill="rgb(244,148,30)" rx="2" ry="2" />
<text  x="13.95" y="127.5" ></text>
</g>
<g >
<title>[[kernel.kallsyms]] (4,363,636,320 samples, 34.95%)</title><rect x="602.9" y="181" width="412.4" height="15.0" fill="rgb(247,225,18)" rx="2" ry="2" />
<text  x="605.86" y="191.5" >[[kernel.kallsyms]]</text>
</g>
<g >
<title>drm_fb_memcpy_dstclip (10,101,010 samples, 0.08%)</title><rect x="600.0" y="53" width="1.0" height="15.0" fill="rgb(221,25,2)" rx="2" ry="2" />
<text  x="603.00" y="63.5" ></text>
</g>
<g >
<title>phalf (20,202,020 samples, 0.16%)</title><rect x="203.8" y="261" width="1.9" height="15.0" fill="rgb(229,119,31)" rx="2" ry="2" />
<text  x="206.80" y="271.5" ></text>
</g>
<g >
<title>[[kernel.kallsyms]] (1,848,484,830 samples, 14.81%)</title><rect x="1015.3" y="165" width="174.7" height="15.0" fill="rgb(240,88,18)" rx="2" ry="2" />
<text  x="1018.29" y="175.5" >[[kernel.kallsyms]]</text>
</g>
<g >
<title>cfrac (6,212,121,150 samples, 49.76%)</title><rect x="11.9" y="293" width="587.1" height="15.0" fill="rgb(233,99,30)" rx="2" ry="2" />
<text  x="14.91" y="303.5" >cfrac</text>
</g>
<g >
<title>padd (131,313,130 samples, 1.05%)</title><rect x="73.0" y="261" width="12.4" height="15.0" fill="rgb(229,81,24)" rx="2" ry="2" />
<text  x="76.01" y="271.5" ></text>
</g>
<g >
<title>[[kernel.kallsyms]] (10,101,010 samples, 0.08%)</title><rect x="601.0" y="229" width="0.9" height="15.0" fill="rgb(250,84,9)" rx="2" ry="2" />
<text  x="603.95" y="239.5" ></text>
</g>
<g >
<title>[[kernel.kallsyms]] (10,101,010 samples, 0.08%)</title><rect x="11.0" y="101" width="0.9" height="15.0" fill="rgb(252,125,29)" rx="2" ry="2" />
<text  x="13.95" y="111.5" ></text>
</g>
<g >
<title>[[kernel.kallsyms]] (10,101,010 samples, 0.08%)</title><rect x="11.0" y="133" width="0.9" height="15.0" fill="rgb(242,72,48)" rx="2" ry="2" />
<text  x="13.95" y="143.5" ></text>
</g>
<g >
<title>[[kernel.kallsyms]] (10,101,010 samples, 0.08%)</title><rect x="11.0" y="165" width="0.9" height="15.0" fill="rgb(232,228,54)" rx="2" ry="2" />
<text  x="13.95" y="175.5" ></text>
</g>
<g >
<title>intel_check_word.isra.0 (10,101,010 samples, 0.08%)</title><rect x="599.0" y="261" width="1.0" height="15.0" fill="rgb(242,163,8)" rx="2" ry="2" />
<text  x="602.05" y="271.5" ></text>
</g>
<g >
<title>pdivmod (383,838,380 samples, 3.07%)</title><rect x="140.8" y="261" width="36.3" height="15.0" fill="rgb(244,68,9)" rx="2" ry="2" />
<text  x="143.79" y="271.5" >pdi..</text>
</g>
<g >
<title>[[kernel.kallsyms]] (4,363,636,320 samples, 34.95%)</title><rect x="602.9" y="229" width="412.4" height="15.0" fill="rgb(214,66,22)" rx="2" ry="2" />
<text  x="605.86" y="239.5" >[[kernel.kallsyms]]</text>
</g>
<g >
<title>pcfrac (10,101,010 samples, 0.08%)</title><rect x="27.2" y="245" width="0.9" height="15.0" fill="rgb(252,219,22)" rx="2" ry="2" />
<text  x="30.18" y="255.5" ></text>
</g>
<g >
<title>__GI___wait4 (10,101,010 samples, 0.08%)</title><rect x="10.0" y="277" width="1.0" height="15.0" fill="rgb(241,186,18)" rx="2" ry="2" />
<text  x="13.00" y="287.5" ></text>
</g>
<g >
<title>[[kernel.kallsyms]] (10,101,010 samples, 0.08%)</title><rect x="10.0" y="213" width="1.0" height="15.0" fill="rgb(242,17,6)" rx="2" ry="2" />
<text  x="13.00" y="223.5" ></text>
</g>
<g >
<title>[[kernel.kallsyms]] (10,101,010 samples, 0.08%)</title><rect x="10.0" y="197" width="1.0" height="15.0" fill="rgb(225,217,10)" rx="2" ry="2" />
<text  x="13.00" y="207.5" ></text>
</g>
<g >
<title>[[kernel.kallsyms]] (4,363,636,320 samples, 34.95%)</title><rect x="602.9" y="213" width="412.4" height="15.0" fill="rgb(210,183,52)" rx="2" ry="2" />
<text  x="605.86" y="223.5" >[[kernel.kallsyms]]</text>
</g>
<g >
<title>malloc (20,202,020 samples, 0.16%)</title><rect x="71.1" y="261" width="1.9" height="15.0" fill="rgb(254,153,54)" rx="2" ry="2" />
<text  x="74.10" y="271.5" ></text>
</g>
<g >
<title>[[kernel.kallsyms]] (10,101,010 samples, 0.08%)</title><rect x="11.0" y="261" width="0.9" height="15.0" fill="rgb(225,136,44)" rx="2" ry="2" />
<text  x="13.95" y="271.5" ></text>
</g>
<g >
<title>hyperv_pipe_update (10,101,010 samples, 0.08%)</title><rect x="600.0" y="85" width="1.0" height="15.0" fill="rgb(223,67,11)" rx="2" ry="2" />
<text  x="603.00" y="95.5" ></text>
</g>
<g >
<title>__memset_avx2_unaligned_erms (40,404,040 samples, 0.32%)</title><rect x="28.1" y="261" width="3.9" height="15.0" fill="rgb(219,172,45)" rx="2" ry="2" />
<text  x="31.14" y="271.5" ></text>
</g>
<g >
<title>palloc (90,909,090 samples, 0.73%)</title><rect x="503.6" y="277" width="8.6" height="15.0" fill="rgb(209,188,1)" rx="2" ry="2" />
<text  x="506.58" y="287.5" ></text>
</g>
<g >
<title>[[kernel.kallsyms]] (1,848,484,830 samples, 14.81%)</title><rect x="1015.3" y="149" width="174.7" height="15.0" fill="rgb(215,194,33)" rx="2" ry="2" />
<text  x="1018.29" y="159.5" >[[kernel.kallsyms]]</text>
</g>
<g >
<title>[[kernel.kallsyms]] (10,101,010 samples, 0.08%)</title><rect x="11.0" y="149" width="0.9" height="15.0" fill="rgb(237,119,23)" rx="2" ry="2" />
<text  x="13.95" y="159.5" ></text>
</g>
<g >
<title>[[kernel.kallsyms]] (10,101,010 samples, 0.08%)</title><rect x="600.0" y="261" width="1.0" height="15.0" fill="rgb(212,149,37)" rx="2" ry="2" />
<text  x="603.00" y="271.5" ></text>
</g>
<g >
<title>pcfrac (181,818,180 samples, 1.46%)</title><rect x="91.1" y="261" width="17.2" height="15.0" fill="rgb(205,37,42)" rx="2" ry="2" />
<text  x="94.15" y="271.5" ></text>
</g>
<g >
<title>[[kernel.kallsyms]] (10,101,010 samples, 0.08%)</title><rect x="11.0" y="197" width="0.9" height="15.0" fill="rgb(242,158,25)" rx="2" ry="2" />
<text  x="13.95" y="207.5" ></text>
</g>
<g >
<title>[[kernel.kallsyms]] (10,101,010 samples, 0.08%)</title><rect x="601.0" y="245" width="0.9" height="15.0" fill="rgb(243,193,52)" rx="2" ry="2" />
<text  x="603.95" y="255.5" ></text>
</g>
<g >
<title>[[kernel.kallsyms]] (10,101,010 samples, 0.08%)</title><rect x="601.0" y="85" width="0.9" height="15.0" fill="rgb(222,75,35)" rx="2" ry="2" />
<text  x="603.95" y="95.5" ></text>
</g>
<g >
<title>pfree (20,202,020 samples, 0.16%)</title><rect x="595.2" y="277" width="1.9" height="15.0" fill="rgb(245,150,40)" rx="2" ry="2" />
<text  x="598.23" y="287.5" ></text>
</g>
<g >
<title>[unknown] (50,505,050 samples, 0.40%)</title><rect x="23.4" y="261" width="4.7" height="15.0" fill="rgb(254,22,34)" rx="2" ry="2" />
<text  x="26.37" y="271.5" ></text>
</g>
<g >
<title>pimod (1,959,595,940 samples, 15.70%)</title><rect x="227.7" y="261" width="185.2" height="15.0" fill="rgb(221,8,26)" rx="2" ry="2" />
<text  x="230.67" y="271.5" >pimod</text>
</g>
<g >
<title>drm_atomic_helper_commit_tail (10,101,010 samples, 0.08%)</title><rect x="600.0" y="133" width="1.0" height="15.0" fill="rgb(228,146,13)" rx="2" ry="2" />
<text  x="603.00" y="143.5" ></text>
</g>
<g >
<title>[[kernel.kallsyms]] (10,101,010 samples, 0.08%)</title><rect x="601.0" y="165" width="0.9" height="15.0" fill="rgb(238,223,4)" rx="2" ry="2" />
<text  x="603.95" y="175.5" ></text>
</g>
<g >
<title>[cfrac] (50,505,050 samples, 0.40%)</title><rect x="18.6" y="261" width="4.8" height="15.0" fill="rgb(230,85,22)" rx="2" ry="2" />
<text  x="21.59" y="271.5" ></text>
</g>
<g >
<title>drm_atomic_helper_commit (10,101,010 samples, 0.08%)</title><rect x="600.0" y="165" width="1.0" height="15.0" fill="rgb(233,122,25)" rx="2" ry="2" />
<text  x="603.00" y="175.5" ></text>
</g>
<g >
<title>[[kernel.kallsyms]] (10,101,010 samples, 0.08%)</title><rect x="11.0" y="245" width="0.9" height="15.0" fill="rgb(220,193,37)" rx="2" ry="2" />
<text  x="13.95" y="255.5" ></text>
</g>
<g >
<title>kworker/1:1-eve (10,101,010 samples, 0.08%)</title><rect x="600.0" y="293" width="1.0" height="15.0" fill="rgb(213,8,22)" rx="2" ry="2" />
<text  x="603.00" y="303.5" ></text>
</g>
<g >
<title>redis-server (20,202,020 samples, 0.16%)</title><rect x="601.0" y="293" width="1.9" height="15.0" fill="rgb(249,19,25)" rx="2" ry="2" />
<text  x="603.95" y="303.5" ></text>
</g>
<g >
<title>combineSoln (10,101,010 samples, 0.08%)</title><rect x="26.2" y="245" width="1.0" height="15.0" fill="rgb(240,165,6)" rx="2" ry="2" />
<text  x="29.23" y="255.5" ></text>
</g>
<g >
<title>[[kernel.kallsyms]] (10,101,010 samples, 0.08%)</title><rect x="601.0" y="101" width="0.9" height="15.0" fill="rgb(228,185,25)" rx="2" ry="2" />
<text  x="603.95" y="111.5" ></text>
</g>
<g >
<title>__open64 (10,101,010 samples, 0.08%)</title><rect x="601.0" y="261" width="0.9" height="15.0" fill="rgb(207,200,44)" rx="2" ry="2" />
<text  x="603.95" y="271.5" ></text>
</g>
<g >
<title>_int_free (50,505,050 samples, 0.40%)</title><rect x="453.9" y="277" width="4.8" height="15.0" fill="rgb(234,171,21)" rx="2" ry="2" />
<text  x="456.93" y="287.5" ></text>
</g>
<g >
<title>[[kernel.kallsyms]] (10,101,010 samples, 0.08%)</title><rect x="10.0" y="149" width="1.0" height="15.0" fill="rgb(221,28,29)" rx="2" ry="2" />
<text  x="13.00" y="159.5" ></text>
</g>
<g >
<title>[[kernel.kallsyms]] (10,101,010 samples, 0.08%)</title><rect x="10.0" y="165" width="1.0" height="15.0" fill="rgb(244,205,24)" rx="2" ry="2" />
<text  x="13.00" y="175.5" ></text>
</g>
<g >
<title>[[kernel.kallsyms]] (10,101,010 samples, 0.08%)</title><rect x="600.0" y="245" width="1.0" height="15.0" fill="rgb(250,51,29)" rx="2" ry="2" />
<text  x="603.00" y="255.5" ></text>
</g>
<g >
<title>pcmp (282,828,280 samples, 2.27%)</title><rect x="108.3" y="261" width="26.8" height="15.0" fill="rgb(210,171,13)" rx="2" ry="2" />
<text  x="111.33" y="271.5" >p..</text>
</g>
<g >
<title>[[kernel.kallsyms]] (10,101,010 samples, 0.08%)</title><rect x="600.0" y="277" width="1.0" height="15.0" fill="rgb(209,11,45)" rx="2" ry="2" />
<text  x="603.00" y="287.5" ></text>
</g>
<g >
<title>psub (161,616,160 samples, 1.29%)</title><rect x="438.7" y="261" width="15.2" height="15.0" fill="rgb(229,176,44)" rx="2" ry="2" />
<text  x="441.66" y="271.5" ></text>
</g>
<g >
<title>[[kernel.kallsyms]] (10,101,010 samples, 0.08%)</title><rect x="11.0" y="229" width="0.9" height="15.0" fill="rgb(208,150,19)" rx="2" ry="2" />
<text  x="13.95" y="239.5" ></text>
</g>
<g >
<title>[unknown] (20,202,020 samples, 0.16%)</title><rect x="601.0" y="277" width="1.9" height="15.0" fill="rgb(254,173,7)" rx="2" ry="2" />
<text  x="603.95" y="287.5" ></text>
</g>
<g >
<title>dirname (10,101,010 samples, 0.08%)</title><rect x="599.0" y="293" width="1.0" height="15.0" fill="rgb(236,167,23)" rx="2" ry="2" />
<text  x="602.05" y="303.5" ></text>
</g>
<g >
<title>[[kernel.kallsyms]] (10,101,010 samples, 0.08%)</title><rect x="10.0" y="181" width="1.0" height="15.0" fill="rgb(247,225,22)" rx="2" ry="2" />
<text  x="13.00" y="191.5" ></text>
</g>
</g>
</svg>
