<?xml version="1.0" standalone="no"?>
<!DOCTYPE svg PUBLIC "-//W3C//DTD SVG 1.1//EN" "http://www.w3.org/Graphics/SVG/1.1/DTD/svg11.dtd">
<svg version="1.1" width="1200" height="342" onload="init(evt)" viewBox="0 0 1200 342" xmlns="http://www.w3.org/2000/svg" xmlns:xlink="http://www.w3.org/1999/xlink">
<!-- Flame graph stack visualization. See https://github.com/brendangregg/FlameGraph for latest version, and http://www.brendangregg.com/flamegraphs.html for examples. -->
<!-- NOTES:  -->
<defs>
	<linearGradient id="background" y1="0" y2="1" x1="0" x2="0" >
		<stop stop-color="#eeeeee" offset="5%" />
		<stop stop-color="#eeeeb0" offset="95%" />
	</linearGradient>
</defs>
<style type="text/css">
	text { font-family:Verdana; font-size:12px; fill:rgb(0,0,0); }
	#search, #ignorecase { opacity:0.1; cursor:pointer; }
	#search:hover, #search.show, #ignorecase:hover, #ignorecase.show { opacity:1; }
	#subtitle { text-anchor:middle; font-color:rgb(160,160,160); }
	#title { text-anchor:middle; font-size:17px}
	#unzoom { cursor:pointer; }
	#frames > *:hover { stroke:black; stroke-width:0.5; cursor:pointer; }
	.hide { display:none; }
	.parent { opacity:0.5; }
</style>
<script type="text/ecmascript">
<![CDATA[
	"use strict";
	var details, searchbtn, unzoombtn, matchedtxt, svg, searching, currentSearchTerm, ignorecase, ignorecaseBtn;
	function init(evt) {
		details = document.getElementById("details").firstChild;
		searchbtn = document.getElementById("search");
		ignorecaseBtn = document.getElementById("ignorecase");
		unzoombtn = document.getElementById("unzoom");
		matchedtxt = document.getElementById("matched");
		svg = document.getElementsByTagName("svg")[0];
		searching = 0;
		currentSearchTerm = null;

		// use GET parameters to restore a flamegraphs state.
		var params = get_params();
		if (params.x && params.y)
			zoom(find_group(document.querySelector('[x="' + params.x + '"][y="' + params.y + '"]')));
                if (params.s) search(params.s);
	}

	// event listeners
	window.addEventListener("click", function(e) {
		var target = find_group(e.target);
		if (target) {
			if (target.nodeName == "a") {
				if (e.ctrlKey === false) return;
				e.preventDefault();
			}
			if (target.classList.contains("parent")) unzoom(true);
			zoom(target);
			if (!document.querySelector('.parent')) {
				// we have basically done a clearzoom so clear the url
				var params = get_params();
				if (params.x) delete params.x;
				if (params.y) delete params.y;
				history.replaceState(null, null, parse_params(params));
				unzoombtn.classList.add("hide");
				return;
			}

			// set parameters for zoom state
			var el = target.querySelector("rect");
			if (el && el.attributes && el.attributes.y && el.attributes._orig_x) {
				var params = get_params()
				params.x = el.attributes._orig_x.value;
				params.y = el.attributes.y.value;
				history.replaceState(null, null, parse_params(params));
			}
		}
		else if (e.target.id == "unzoom") clearzoom();
		else if (e.target.id == "search") search_prompt();
		else if (e.target.id == "ignorecase") toggle_ignorecase();
	}, false)

	// mouse-over for info
	// show
	window.addEventListener("mouseover", function(e) {
		var target = find_group(e.target);
		if (target) details.nodeValue = "Function: " + g_to_text(target);
	}, false)

	// clear
	window.addEventListener("mouseout", function(e) {
		var target = find_group(e.target);
		if (target) details.nodeValue = ' ';
	}, false)

	// ctrl-F for search
	// ctrl-I to toggle case-sensitive search
	window.addEventListener("keydown",function (e) {
		if (e.keyCode === 114 || (e.ctrlKey && e.keyCode === 70)) {
			e.preventDefault();
			search_prompt();
		}
		else if (e.ctrlKey && e.keyCode === 73) {
			e.preventDefault();
			toggle_ignorecase();
		}
	}, false)

	// functions
	function get_params() {
		var params = {};
		var paramsarr = window.location.search.substr(1).split('&');
		for (var i = 0; i < paramsarr.length; ++i) {
			var tmp = paramsarr[i].split("=");
			if (!tmp[0] || !tmp[1]) continue;
			params[tmp[0]]  = decodeURIComponent(tmp[1]);
		}
		return params;
	}
	function parse_params(params) {
		var uri = "?";
		for (var key in params) {
			uri += key + '=' + encodeURIComponent(params[key]) + '&';
		}
		if (uri.slice(-1) == "&")
			uri = uri.substring(0, uri.length - 1);
		if (uri == '?')
			uri = window.location.href.split('?')[0];
		return uri;
	}
	function find_child(node, selector) {
		var children = node.querySelectorAll(selector);
		if (children.length) return children[0];
	}
	function find_group(node) {
		var parent = node.parentElement;
		if (!parent) return;
		if (parent.id == "frames") return node;
		return find_group(parent);
	}
	function orig_save(e, attr, val) {
		if (e.attributes["_orig_" + attr] != undefined) return;
		if (e.attributes[attr] == undefined) return;
		if (val == undefined) val = e.attributes[attr].value;
		e.setAttribute("_orig_" + attr, val);
	}
	function orig_load(e, attr) {
		if (e.attributes["_orig_"+attr] == undefined) return;
		e.attributes[attr].value = e.attributes["_orig_" + attr].value;
		e.removeAttribute("_orig_"+attr);
	}
	function g_to_text(e) {
		var text = find_child(e, "title").firstChild.nodeValue;
		return (text)
	}
	function g_to_func(e) {
		var func = g_to_text(e);
		// if there's any manipulation we want to do to the function
		// name before it's searched, do it here before returning.
		return (func);
	}
	function update_text(e) {
		var r = find_child(e, "rect");
		var t = find_child(e, "text");
		var w = parseFloat(r.attributes.width.value) -3;
		var txt = find_child(e, "title").textContent.replace(/\([^(]*\)$/,"");
		t.attributes.x.value = parseFloat(r.attributes.x.value) + 3;

		// Smaller than this size won't fit anything
		if (w < 2 * 12 * 0.59) {
			t.textContent = "";
			return;
		}

		t.textContent = txt;
		var sl = t.getSubStringLength(0, txt.length);
		// check if only whitespace or if we can fit the entire string into width w
		if (/^ *$/.test(txt) || sl < w)
			return;

		// this isn't perfect, but gives a good starting point
		// and avoids calling getSubStringLength too often
		var start = Math.floor((w/sl) * txt.length);
		for (var x = start; x > 0; x = x-2) {
			if (t.getSubStringLength(0, x + 2) <= w) {
				t.textContent = txt.substring(0, x) + "..";
				return;
			}
		}
		t.textContent = "";
	}

	// zoom
	function zoom_reset(e) {
		if (e.attributes != undefined) {
			orig_load(e, "x");
			orig_load(e, "width");
		}
		if (e.childNodes == undefined) return;
		for (var i = 0, c = e.childNodes; i < c.length; i++) {
			zoom_reset(c[i]);
		}
	}
	function zoom_child(e, x, ratio) {
		if (e.attributes != undefined) {
			if (e.attributes.x != undefined) {
				orig_save(e, "x");
				e.attributes.x.value = (parseFloat(e.attributes.x.value) - x - 10) * ratio + 10;
				if (e.tagName == "text")
					e.attributes.x.value = find_child(e.parentNode, "rect[x]").attributes.x.value + 3;
			}
			if (e.attributes.width != undefined) {
				orig_save(e, "width");
				e.attributes.width.value = parseFloat(e.attributes.width.value) * ratio;
			}
		}

		if (e.childNodes == undefined) return;
		for (var i = 0, c = e.childNodes; i < c.length; i++) {
			zoom_child(c[i], x - 10, ratio);
		}
	}
	function zoom_parent(e) {
		if (e.attributes) {
			if (e.attributes.x != undefined) {
				orig_save(e, "x");
				e.attributes.x.value = 10;
			}
			if (e.attributes.width != undefined) {
				orig_save(e, "width");
				e.attributes.width.value = parseInt(svg.width.baseVal.value) - (10 * 2);
			}
		}
		if (e.childNodes == undefined) return;
		for (var i = 0, c = e.childNodes; i < c.length; i++) {
			zoom_parent(c[i]);
		}
	}
	function zoom(node) {
		var attr = find_child(node, "rect").attributes;
		var width = parseFloat(attr.width.value);
		var xmin = parseFloat(attr.x.value);
		var xmax = parseFloat(xmin + width);
		var ymin = parseFloat(attr.y.value);
		var ratio = (svg.width.baseVal.value - 2 * 10) / width;

		// XXX: Workaround for JavaScript float issues (fix me)
		var fudge = 0.0001;

		unzoombtn.classList.remove("hide");

		var el = document.getElementById("frames").children;
		for (var i = 0; i < el.length; i++) {
			var e = el[i];
			var a = find_child(e, "rect").attributes;
			var ex = parseFloat(a.x.value);
			var ew = parseFloat(a.width.value);
			var upstack;
			// Is it an ancestor
			if (0 == 0) {
				upstack = parseFloat(a.y.value) > ymin;
			} else {
				upstack = parseFloat(a.y.value) < ymin;
			}
			if (upstack) {
				// Direct ancestor
				if (ex <= xmin && (ex+ew+fudge) >= xmax) {
					e.classList.add("parent");
					zoom_parent(e);
					update_text(e);
				}
				// not in current path
				else
					e.classList.add("hide");
			}
			// Children maybe
			else {
				// no common path
				if (ex < xmin || ex + fudge >= xmax) {
					e.classList.add("hide");
				}
				else {
					zoom_child(e, xmin, ratio);
					update_text(e);
				}
			}
		}
		search();
	}
	function unzoom(dont_update_text) {
		unzoombtn.classList.add("hide");
		var el = document.getElementById("frames").children;
		for(var i = 0; i < el.length; i++) {
			el[i].classList.remove("parent");
			el[i].classList.remove("hide");
			zoom_reset(el[i]);
			if(!dont_update_text) update_text(el[i]);
		}
		search();
	}
	function clearzoom() {
		unzoom();

		// remove zoom state
		var params = get_params();
		if (params.x) delete params.x;
		if (params.y) delete params.y;
		history.replaceState(null, null, parse_params(params));
	}

	// search
	function toggle_ignorecase() {
		ignorecase = !ignorecase;
		if (ignorecase) {
			ignorecaseBtn.classList.add("show");
		} else {
			ignorecaseBtn.classList.remove("show");
		}
		reset_search();
		search();
	}
	function reset_search() {
		var el = document.querySelectorAll("#frames rect");
		for (var i = 0; i < el.length; i++) {
			orig_load(el[i], "fill")
		}
		var params = get_params();
		delete params.s;
		history.replaceState(null, null, parse_params(params));
	}
	function search_prompt() {
		if (!searching) {
			var term = prompt("Enter a search term (regexp " +
			    "allowed, eg: ^ext4_)"
			    + (ignorecase ? ", ignoring case" : "")
			    + "\nPress Ctrl-i to toggle case sensitivity", "");
			if (term != null) search(term);
		} else {
			reset_search();
			searching = 0;
			currentSearchTerm = null;
			searchbtn.classList.remove("show");
			searchbtn.firstChild.nodeValue = "Search"
			matchedtxt.classList.add("hide");
			matchedtxt.firstChild.nodeValue = ""
		}
	}
	function search(term) {
		if (term) currentSearchTerm = term;

		var re = new RegExp(currentSearchTerm, ignorecase ? 'i' : '');
		var el = document.getElementById("frames").children;
		var matches = new Object();
		var maxwidth = 0;
		for (var i = 0; i < el.length; i++) {
			var e = el[i];
			var func = g_to_func(e);
			var rect = find_child(e, "rect");
			if (func == null || rect == null)
				continue;

			// Save max width. Only works as we have a root frame
			var w = parseFloat(rect.attributes.width.value);
			if (w > maxwidth)
				maxwidth = w;

			if (func.match(re)) {
				// highlight
				var x = parseFloat(rect.attributes.x.value);
				orig_save(rect, "fill");
				rect.attributes.fill.value = "rgb(230,0,230)";

				// remember matches
				if (matches[x] == undefined) {
					matches[x] = w;
				} else {
					if (w > matches[x]) {
						// overwrite with parent
						matches[x] = w;
					}
				}
				searching = 1;
			}
		}
		if (!searching)
			return;
		var params = get_params();
		params.s = currentSearchTerm;
		history.replaceState(null, null, parse_params(params));

		searchbtn.classList.add("show");
		searchbtn.firstChild.nodeValue = "Reset Search";

		// calculate percent matched, excluding vertical overlap
		var count = 0;
		var lastx = -1;
		var lastw = 0;
		var keys = Array();
		for (k in matches) {
			if (matches.hasOwnProperty(k))
				keys.push(k);
		}
		// sort the matched frames by their x location
		// ascending, then width descending
		keys.sort(function(a, b){
			return a - b;
		});
		// Step through frames saving only the biggest bottom-up frames
		// thanks to the sort order. This relies on the tree property
		// where children are always smaller than their parents.
		var fudge = 0.0001;	// JavaScript floating point
		for (var k in keys) {
			var x = parseFloat(keys[k]);
			var w = matches[keys[k]];
			if (x >= lastx + lastw - fudge) {
				count += w;
				lastx = x;
				lastw = w;
			}
		}
		// display matched percent
		matchedtxt.classList.remove("hide");
		var pct = 100 * count / maxwidth;
		if (pct != 100) pct = pct.toFixed(1)
		matchedtxt.firstChild.nodeValue = "Matched: " + pct + "%";
	}
]]>
</script>
<rect x="0.0" y="0" width="1200.0" height="342.0" fill="url(#background)"  />
<text id="title" x="600.00" y="24" >Flame Graph</text>
<text id="details" x="10.00" y="325" > </text>
<text id="unzoom" x="10.00" y="24" class="hide">Reset Zoom</text>
<text id="search" x="1090.00" y="24" >Search</text>
<text id="ignorecase" x="1174.00" y="24" >ic</text>
<text id="matched" x="1090.00" y="325" > </text>
<g id="frames">
<g >
<title>[[kernel.kallsyms]] (10,101,010 samples, 0.04%)</title><rect x="601.3" y="197" width="0.4" height="15.0" fill="rgb(214,175,12)" rx="2" ry="2" />
<text  x="604.27" y="207.5" ></text>
</g>
<g >
<title>__pthread_mutex_unlock (686,868,680 samples, 2.43%)</title><rect x="523.2" y="261" width="28.7" height="15.0" fill="rgb(209,81,35)" rx="2" ry="2" />
<text  x="526.25" y="271.5" >__..</text>
</g>
<g >
<title>[libisoalloc.so] (3,414,141,380 samples, 12.08%)</title><rect x="11.7" y="261" width="142.5" height="15.0" fill="rgb(205,141,40)" rx="2" ry="2" />
<text  x="14.69" y="271.5" >[libisoalloc.so]</text>
</g>
<g >
<title>pfree (10,101,010 samples, 0.04%)</title><rect x="590.7" y="261" width="0.4" height="15.0" fill="rgb(221,127,1)" rx="2" ry="2" />
<text  x="593.72" y="271.5" ></text>
</g>
<g >
<title>[[kernel.kallsyms]] (80,808,080 samples, 0.29%)</title><rect x="227.6" y="229" width="3.4" height="15.0" fill="rgb(220,140,5)" rx="2" ry="2" />
<text  x="230.61" y="239.5" ></text>
</g>
<g >
<title>[unknown] (20,202,020 samples, 0.07%)</title><rect x="600.0" y="261" width="0.8" height="15.0" fill="rgb(208,224,9)" rx="2" ry="2" />
<text  x="603.00" y="271.5" ></text>
</g>
<g >
<title>[[kernel.kallsyms]] (10,101,010 samples, 0.04%)</title><rect x="1189.6" y="37" width="0.4" height="15.0" fill="rgb(222,119,30)" rx="2" ry="2" />
<text  x="1192.58" y="47.5" ></text>
</g>
<g >
<title>[[kernel.kallsyms]] (10,101,010 samples, 0.04%)</title><rect x="600.8" y="261" width="0.5" height="15.0" fill="rgb(208,121,23)" rx="2" ry="2" />
<text  x="603.84" y="271.5" ></text>
</g>
<g >
<title>pfree (40,404,040 samples, 0.14%)</title><rect x="354.1" y="245" width="1.7" height="15.0" fill="rgb(237,161,16)" rx="2" ry="2" />
<text  x="357.13" y="255.5" ></text>
</g>
<g >
<title>[[kernel.kallsyms]] (10,101,010 samples, 0.04%)</title><rect x="220.9" y="117" width="0.4" height="15.0" fill="rgb(246,17,7)" rx="2" ry="2" />
<text  x="223.86" y="127.5" ></text>
</g>
<g >
<title>drm_client_buffer_vmap (10,101,010 samples, 0.04%)</title><rect x="600.8" y="181" width="0.5" height="15.0" fill="rgb(209,70,25)" rx="2" ry="2" />
<text  x="603.84" y="191.5" ></text>
</g>
<g >
<title>[[kernel.kallsyms]] (10,101,010 samples, 0.04%)</title><rect x="601.3" y="229" width="0.4" height="15.0" fill="rgb(240,157,22)" rx="2" ry="2" />
<text  x="604.27" y="239.5" ></text>
</g>
<g >
<title>[[kernel.kallsyms]] (20,202,020 samples, 0.07%)</title><rect x="600.0" y="149" width="0.8" height="15.0" fill="rgb(243,121,13)" rx="2" ry="2" />
<text  x="603.00" y="159.5" ></text>
</g>
<g >
<title>__close (10,101,010 samples, 0.04%)</title><rect x="603.4" y="261" width="0.4" height="15.0" fill="rgb(213,145,44)" rx="2" ry="2" />
<text  x="606.37" y="271.5" ></text>
</g>
<g >
<title>[[kernel.kallsyms]] (20,202,020 samples, 0.07%)</title><rect x="600.0" y="133" width="0.8" height="15.0" fill="rgb(238,43,14)" rx="2" ry="2" />
<text  x="603.00" y="143.5" ></text>
</g>
<g >
<title>[[kernel.kallsyms]] (20,202,020 samples, 0.07%)</title><rect x="474.3" y="165" width="0.9" height="15.0" fill="rgb(243,218,1)" rx="2" ry="2" />
<text  x="477.32" y="175.5" ></text>
</g>
<g >
<title>[libisoalloc.so] (1,555,555,540 samples, 5.50%)</title><rect x="156.3" y="245" width="65.0" height="15.0" fill="rgb(206,90,42)" rx="2" ry="2" />
<text  x="159.34" y="255.5" >[libiso..</text>
</g>
<g >
<title>__GI___getrandom (232,323,230 samples, 0.82%)</title><rect x="221.3" y="245" width="9.7" height="15.0" fill="rgb(215,170,25)" rx="2" ry="2" />
<text  x="224.29" y="255.5" ></text>
</g>
<g >
<title>[unknown] (7,464,646,390 samples, 26.41%)</title><rect x="154.2" y="261" width="311.7" height="15.0" fill="rgb(234,122,1)" rx="2" ry="2" />
<text  x="157.23" y="271.5" >[unknown]</text>
</g>
<g >
<title>__memset_avx2_unaligned_erms (40,404,040 samples, 0.14%)</title><rect x="231.0" y="245" width="1.7" height="15.0" fill="rgb(245,74,14)" rx="2" ry="2" />
<text  x="233.99" y="255.5" ></text>
</g>
<g >
<title>__tls_get_addr@plt (40,404,040 samples, 0.14%)</title><rect x="287.5" y="245" width="1.7" height="15.0" fill="rgb(232,78,46)" rx="2" ry="2" />
<text  x="290.50" y="255.5" ></text>
</g>
<g >
<title>__pthread_mutex_unlock (828,282,820 samples, 2.93%)</title><rect x="252.5" y="245" width="34.6" height="15.0" fill="rgb(253,145,51)" rx="2" ry="2" />
<text  x="255.49" y="255.5" >__..</text>
</g>
<g >
<title>_init (10,101,010 samples, 0.04%)</title><rect x="599.6" y="261" width="0.4" height="15.0" fill="rgb(237,28,51)" rx="2" ry="2" />
<text  x="602.58" y="271.5" ></text>
</g>
<g >
<title>[[kernel.kallsyms]] (20,202,020 samples, 0.07%)</title><rect x="600.0" y="229" width="0.8" height="15.0" fill="rgb(234,95,26)" rx="2" ry="2" />
<text  x="603.00" y="239.5" ></text>
</g>
<g >
<title>[[kernel.kallsyms]] (10,101,010 samples, 0.04%)</title><rect x="599.6" y="213" width="0.4" height="15.0" fill="rgb(254,31,7)" rx="2" ry="2" />
<text  x="602.58" y="223.5" ></text>
</g>
<g >
<title>__memset_avx2_unaligned_erms (10,101,010 samples, 0.04%)</title><rect x="475.2" y="261" width="0.4" height="15.0" fill="rgb(240,41,7)" rx="2" ry="2" />
<text  x="478.17" y="271.5" ></text>
</g>
<g >
<title>dirname (10,101,010 samples, 0.04%)</title><rect x="599.6" y="277" width="0.4" height="15.0" fill="rgb(232,123,0)" rx="2" ry="2" />
<text  x="602.58" y="287.5" ></text>
</g>
<g >
<title>[[kernel.kallsyms]] (10,101,010 samples, 0.04%)</title><rect x="600.8" y="229" width="0.5" height="15.0" fill="rgb(228,4,0)" rx="2" ry="2" />
<text  x="603.84" y="239.5" ></text>
</g>
<g >
<title>[[kernel.kallsyms]] (10,101,010 samples, 0.04%)</title><rect x="603.4" y="117" width="0.4" height="15.0" fill="rgb(207,162,46)" rx="2" ry="2" />
<text  x="606.37" y="127.5" ></text>
</g>
<g >
<title>[[kernel.kallsyms]] (10,101,010 samples, 0.04%)</title><rect x="603.4" y="165" width="0.4" height="15.0" fill="rgb(213,83,29)" rx="2" ry="2" />
<text  x="606.37" y="175.5" ></text>
</g>
<g >
<title>__pthread_mutex_lock (1,141,414,130 samples, 4.04%)</title><rect x="475.6" y="261" width="47.6" height="15.0" fill="rgb(237,107,0)" rx="2" ry="2" />
<text  x="478.59" y="271.5" >__pt..</text>
</g>
<g >
<title>iso_alloc (50,505,050 samples, 0.18%)</title><rect x="556.6" y="261" width="2.1" height="15.0" fill="rgb(244,221,19)" rx="2" ry="2" />
<text  x="559.56" y="271.5" ></text>
</g>
<g >
<title>pthread_mutex_lock (10,101,010 samples, 0.04%)</title><rect x="460.0" y="245" width="0.4" height="15.0" fill="rgb(224,205,35)" rx="2" ry="2" />
<text  x="462.99" y="255.5" ></text>
</g>
<g >
<title>pthread_mutex_unlock@plt (30,303,030 samples, 0.11%)</title><rect x="598.3" y="261" width="1.3" height="15.0" fill="rgb(236,217,50)" rx="2" ry="2" />
<text  x="601.31" y="271.5" ></text>
</g>
<g >
<title>__tls_get_addr (40,404,040 samples, 0.14%)</title><rect x="551.9" y="261" width="1.7" height="15.0" fill="rgb(234,134,34)" rx="2" ry="2" />
<text  x="554.92" y="271.5" ></text>
</g>
<g >
<title>all (28,262,625,980 samples, 100%)</title><rect x="10.0" y="293" width="1180.0" height="15.0" fill="rgb(220,94,4)" rx="2" ry="2" />
<text  x="13.00" y="303.5" ></text>
</g>
<g >
<title>[[kernel.kallsyms]] (11,020,201,910 samples, 38.99%)</title><rect x="604.2" y="165" width="460.1" height="15.0" fill="rgb(212,228,43)" rx="2" ry="2" />
<text  x="607.22" y="175.5" >[[kernel.kallsyms]]</text>
</g>
<g >
<title>[unknown] (10,101,010 samples, 0.04%)</title><rect x="10.0" y="261" width="0.4" height="15.0" fill="rgb(239,10,32)" rx="2" ry="2" />
<text  x="13.00" y="271.5" ></text>
</g>
<g >
<title>[[kernel.kallsyms]] (10,101,010 samples, 0.04%)</title><rect x="603.4" y="197" width="0.4" height="15.0" fill="rgb(225,132,23)" rx="2" ry="2" />
<text  x="606.37" y="207.5" ></text>
</g>
<g >
<title>[[kernel.kallsyms]] (3,010,100,980 samples, 10.65%)</title><rect x="1064.3" y="181" width="125.7" height="15.0" fill="rgb(231,23,47)" rx="2" ry="2" />
<text  x="1067.32" y="191.5" >[[kernel.kallsy..</text>
</g>
<g >
<title>[[kernel.kallsyms]] (10,101,010 samples, 0.04%)</title><rect x="220.9" y="85" width="0.4" height="15.0" fill="rgb(231,108,27)" rx="2" ry="2" />
<text  x="223.86" y="95.5" ></text>
</g>
<g >
<title>[[kernel.kallsyms]] (10,101,010 samples, 0.04%)</title><rect x="603.4" y="149" width="0.4" height="15.0" fill="rgb(227,25,2)" rx="2" ry="2" />
<text  x="606.37" y="159.5" ></text>
</g>
<g >
<title>pdivmod (686,868,680 samples, 2.43%)</title><rect x="562.0" y="261" width="28.7" height="15.0" fill="rgb(239,49,36)" rx="2" ry="2" />
<text  x="565.04" y="271.5" >pd..</text>
</g>
<g >
<title>[[kernel.kallsyms]] (20,202,020 samples, 0.07%)</title><rect x="600.0" y="181" width="0.8" height="15.0" fill="rgb(226,128,40)" rx="2" ry="2" />
<text  x="603.00" y="191.5" ></text>
</g>
<g >
<title>[unknown] (3,010,100,980 samples, 10.65%)</title><rect x="1064.3" y="213" width="125.7" height="15.0" fill="rgb(242,48,34)" rx="2" ry="2" />
<text  x="1067.32" y="223.5" >[unknown]</text>
</g>
<g >
<title>swapper (14,030,302,890 samples, 49.64%)</title><rect x="604.2" y="277" width="585.8" height="15.0" fill="rgb(253,64,53)" rx="2" ry="2" />
<text  x="607.22" y="287.5" >swapper</text>
</g>
<g >
<title>[[kernel.kallsyms]] (10,101,010 samples, 0.04%)</title><rect x="220.9" y="181" width="0.4" height="15.0" fill="rgb(222,14,37)" rx="2" ry="2" />
<text  x="223.86" y="191.5" ></text>
</g>
<g >
<title>podd (10,101,010 samples, 0.04%)</title><rect x="452.4" y="245" width="0.4" height="15.0" fill="rgb(253,126,22)" rx="2" ry="2" />
<text  x="455.39" y="255.5" ></text>
</g>
<g >
<title>__pthread_mutex_lock (474,747,470 samples, 1.68%)</title><rect x="232.7" y="245" width="19.8" height="15.0" fill="rgb(211,146,46)" rx="2" ry="2" />
<text  x="235.67" y="255.5" ></text>
</g>
<g >
<title>pcfrac (131,313,130 samples, 0.46%)</title><rect x="300.2" y="245" width="5.4" height="15.0" fill="rgb(237,198,33)" rx="2" ry="2" />
<text  x="303.15" y="255.5" ></text>
</g>
<g >
<title>[[kernel.kallsyms]] (10,101,010 samples, 0.04%)</title><rect x="601.3" y="261" width="0.4" height="15.0" fill="rgb(248,120,49)" rx="2" ry="2" />
<text  x="604.27" y="271.5" ></text>
</g>
<g >
<title>[[kernel.kallsyms]] (10,101,010 samples, 0.04%)</title><rect x="230.6" y="181" width="0.4" height="15.0" fill="rgb(252,142,16)" rx="2" ry="2" />
<text  x="233.56" y="191.5" ></text>
</g>
<g >
<title>[unknown] (3,010,100,980 samples, 10.65%)</title><rect x="1064.3" y="229" width="125.7" height="15.0" fill="rgb(222,102,30)" rx="2" ry="2" />
<text  x="1067.32" y="239.5" >[unknown]</text>
</g>
<g >
<title>[[kernel.kallsyms]] (10,101,010 samples, 0.04%)</title><rect x="1189.6" y="69" width="0.4" height="15.0" fill="rgb(206,116,6)" rx="2" ry="2" />
<text  x="1192.58" y="79.5" ></text>
</g>
<g >
<title>[[kernel.kallsyms]] (10,101,010 samples, 0.04%)</title><rect x="601.3" y="149" width="0.4" height="15.0" fill="rgb(233,158,40)" rx="2" ry="2" />
<text  x="604.27" y="159.5" ></text>
</g>
<g >
<title>iso_free (10,101,010 samples, 0.04%)</title><rect x="290.5" y="245" width="0.4" height="15.0" fill="rgb(229,29,2)" rx="2" ry="2" />
<text  x="293.45" y="255.5" ></text>
</g>
<g >
<title>[[kernel.kallsyms]] (10,101,010 samples, 0.04%)</title><rect x="601.3" y="181" width="0.4" height="15.0" fill="rgb(243,183,3)" rx="2" ry="2" />
<text  x="604.27" y="191.5" ></text>
</g>
<g >
<title>malloc (10,101,010 samples, 0.04%)</title><rect x="290.9" y="245" width="0.4" height="15.0" fill="rgb(215,133,9)" rx="2" ry="2" />
<text  x="293.87" y="255.5" ></text>
</g>
<g >
<title>[[kernel.kallsyms]] (3,010,100,980 samples, 10.65%)</title><rect x="1064.3" y="149" width="125.7" height="15.0" fill="rgb(228,146,52)" rx="2" ry="2" />
<text  x="1067.32" y="159.5" >[[kernel.kallsy..</text>
</g>
<g >
<title>[[kernel.kallsyms]] (50,505,050 samples, 0.18%)</title><rect x="473.1" y="197" width="2.1" height="15.0" fill="rgb(215,54,3)" rx="2" ry="2" />
<text  x="476.06" y="207.5" ></text>
</g>
<g >
<title>[[kernel.kallsyms]] (10,101,010 samples, 0.04%)</title><rect x="220.9" y="149" width="0.4" height="15.0" fill="rgb(247,86,22)" rx="2" ry="2" />
<text  x="223.86" y="159.5" ></text>
</g>
<g >
<title>[[kernel.kallsyms]] (11,020,201,910 samples, 38.99%)</title><rect x="604.2" y="245" width="460.1" height="15.0" fill="rgb(229,187,33)" rx="2" ry="2" />
<text  x="607.22" y="255.5" >[[kernel.kallsyms]]</text>
</g>
<g >
<title>pidiv (181,818,180 samples, 0.64%)</title><rect x="357.1" y="245" width="7.6" height="15.0" fill="rgb(230,199,49)" rx="2" ry="2" />
<text  x="360.08" y="255.5" ></text>
</g>
<g >
<title>[[kernel.kallsyms]] (10,101,010 samples, 0.04%)</title><rect x="599.6" y="165" width="0.4" height="15.0" fill="rgb(205,170,28)" rx="2" ry="2" />
<text  x="602.58" y="175.5" ></text>
</g>
<g >
<title>[[kernel.kallsyms]] (10,101,010 samples, 0.04%)</title><rect x="600.8" y="245" width="0.5" height="15.0" fill="rgb(216,161,45)" rx="2" ry="2" />
<text  x="603.84" y="255.5" ></text>
</g>
<g >
<title>[[kernel.kallsyms]] (10,101,010 samples, 0.04%)</title><rect x="1063.9" y="149" width="0.4" height="15.0" fill="rgb(213,60,18)" rx="2" ry="2" />
<text  x="1066.90" y="159.5" ></text>
</g>
<g >
<title>psub (171,717,170 samples, 0.61%)</title><rect x="452.8" y="245" width="7.2" height="15.0" fill="rgb(211,9,7)" rx="2" ry="2" />
<text  x="455.82" y="255.5" ></text>
</g>
<g >
<title>[[kernel.kallsyms]] (10,101,010 samples, 0.04%)</title><rect x="599.6" y="197" width="0.4" height="15.0" fill="rgb(234,104,53)" rx="2" ry="2" />
<text  x="602.58" y="207.5" ></text>
</g>
<g >
<title>[[kernel.kallsyms]] (10,101,010 samples, 0.04%)</title><rect x="10.4" y="245" width="0.4" height="15.0" fill="rgb(232,185,42)" rx="2" ry="2" />
<text  x="13.42" y="255.5" ></text>
</g>
<g >
<title>[[kernel.kallsyms]] (10,101,010 samples, 0.04%)</title><rect x="601.3" y="213" width="0.4" height="15.0" fill="rgb(253,165,1)" rx="2" ry="2" />
<text  x="604.27" y="223.5" ></text>
</g>
<g >
<title>[[kernel.kallsyms]] (10,101,010 samples, 0.04%)</title><rect x="230.6" y="165" width="0.4" height="15.0" fill="rgb(232,91,10)" rx="2" ry="2" />
<text  x="233.56" y="175.5" ></text>
</g>
<g >
<title>pthread_mutex_lock@plt (90,909,090 samples, 0.32%)</title><rect x="593.7" y="261" width="3.8" height="15.0" fill="rgb(251,225,13)" rx="2" ry="2" />
<text  x="596.67" y="271.5" ></text>
</g>
<g >
<title>[[kernel.kallsyms]] (11,020,201,910 samples, 38.99%)</title><rect x="604.2" y="197" width="460.1" height="15.0" fill="rgb(252,134,12)" rx="2" ry="2" />
<text  x="607.22" y="207.5" >[[kernel.kallsyms]]</text>
</g>
<g >
<title>[[kernel.kallsyms]] (10,101,010 samples, 0.04%)</title><rect x="220.9" y="165" width="0.4" height="15.0" fill="rgb(230,187,25)" rx="2" ry="2" />
<text  x="223.86" y="175.5" ></text>
</g>
<g >
<title>pimod (1,898,989,880 samples, 6.72%)</title><rect x="364.7" y="245" width="79.3" height="15.0" fill="rgb(240,55,22)" rx="2" ry="2" />
<text  x="367.67" y="255.5" >pimod</text>
</g>
<g >
<title>[[kernel.kallsyms]] (14,030,302,890 samples, 49.64%)</title><rect x="604.2" y="261" width="585.8" height="15.0" fill="rgb(230,149,22)" rx="2" ry="2" />
<text  x="607.22" y="271.5" >[[kernel.kallsyms]]</text>
</g>
<g >
<title>[[kernel.kallsyms]] (10,101,010 samples, 0.04%)</title><rect x="603.4" y="245" width="0.4" height="15.0" fill="rgb(212,218,40)" rx="2" ry="2" />
<text  x="606.37" y="255.5" ></text>
</g>
<g >
<title>pcmpz (70,707,070 samples, 0.25%)</title><rect x="326.3" y="245" width="2.9" height="15.0" fill="rgb(206,3,25)" rx="2" ry="2" />
<text  x="329.30" y="255.5" ></text>
</g>
<g >
<title>[[kernel.kallsyms]] (10,101,010 samples, 0.04%)</title><rect x="220.9" y="133" width="0.4" height="15.0" fill="rgb(235,20,22)" rx="2" ry="2" />
<text  x="223.86" y="143.5" ></text>
</g>
<g >
<title>redis-server (60,606,060 samples, 0.21%)</title><rect x="601.7" y="277" width="2.5" height="15.0" fill="rgb(225,144,41)" rx="2" ry="2" />
<text  x="604.69" y="287.5" ></text>
</g>
<g >
<title>[[kernel.kallsyms]] (10,101,010 samples, 0.04%)</title><rect x="599.6" y="229" width="0.4" height="15.0" fill="rgb(213,111,44)" rx="2" ry="2" />
<text  x="602.58" y="239.5" ></text>
</g>
<g >
<title>free (10,101,010 samples, 0.04%)</title><rect x="289.2" y="245" width="0.4" height="15.0" fill="rgb(243,10,7)" rx="2" ry="2" />
<text  x="292.19" y="255.5" ></text>
</g>
<g >
<title>[unknown] (10,101,010 samples, 0.04%)</title><rect x="10.0" y="245" width="0.4" height="15.0" fill="rgb(221,118,51)" rx="2" ry="2" />
<text  x="13.00" y="255.5" ></text>
</g>
<g >
<title>[[kernel.kallsyms]] (10,101,010 samples, 0.04%)</title><rect x="10.4" y="213" width="0.4" height="15.0" fill="rgb(252,30,26)" rx="2" ry="2" />
<text  x="13.42" y="223.5" ></text>
</g>
<g >
<title>[[kernel.kallsyms]] (10,101,010 samples, 0.04%)</title><rect x="603.4" y="213" width="0.4" height="15.0" fill="rgb(209,43,44)" rx="2" ry="2" />
<text  x="606.37" y="223.5" ></text>
</g>
<g >
<title>[unknown] (3,010,100,980 samples, 10.65%)</title><rect x="1064.3" y="245" width="125.7" height="15.0" fill="rgb(223,42,48)" rx="2" ry="2" />
<text  x="1067.32" y="255.5" >[unknown]</text>
</g>
<g >
<title>cfree@GLIBC_2.2.5 (10,101,010 samples, 0.04%)</title><rect x="10.0" y="229" width="0.4" height="15.0" fill="rgb(242,195,24)" rx="2" ry="2" />
<text  x="13.00" y="239.5" ></text>
</g>
<g >
<title>pthread_mutex_unlock (20,202,020 samples, 0.07%)</title><rect x="597.5" y="261" width="0.8" height="15.0" fill="rgb(240,124,25)" rx="2" ry="2" />
<text  x="600.47" y="271.5" ></text>
</g>
<g >
<title>[[kernel.kallsyms]] (20,202,020 samples, 0.07%)</title><rect x="600.0" y="117" width="0.8" height="15.0" fill="rgb(213,200,31)" rx="2" ry="2" />
<text  x="603.00" y="127.5" ></text>
</g>
<g >
<title>[[kernel.kallsyms]] (10,101,010 samples, 0.04%)</title><rect x="599.6" y="133" width="0.4" height="15.0" fill="rgb(206,25,21)" rx="2" ry="2" />
<text  x="602.58" y="143.5" ></text>
</g>
<g >
<title>[[kernel.kallsyms]] (90,909,090 samples, 0.32%)</title><rect x="471.4" y="213" width="3.8" height="15.0" fill="rgb(219,91,22)" rx="2" ry="2" />
<text  x="474.37" y="223.5" ></text>
</g>
<g >
<title>[[kernel.kallsyms]] (90,909,090 samples, 0.32%)</title><rect x="471.4" y="229" width="3.8" height="15.0" fill="rgb(212,127,35)" rx="2" ry="2" />
<text  x="474.37" y="239.5" ></text>
</g>
<g >
<title>[[kernel.kallsyms]] (10,101,010 samples, 0.04%)</title><rect x="601.3" y="165" width="0.4" height="15.0" fill="rgb(229,57,15)" rx="2" ry="2" />
<text  x="604.27" y="175.5" ></text>
</g>
<g >
<title>[[kernel.kallsyms]] (20,202,020 samples, 0.07%)</title><rect x="600.0" y="101" width="0.8" height="15.0" fill="rgb(213,125,20)" rx="2" ry="2" />
<text  x="603.00" y="111.5" ></text>
</g>
<g >
<title>[[kernel.kallsyms]] (10,101,010 samples, 0.04%)</title><rect x="10.4" y="197" width="0.4" height="15.0" fill="rgb(233,168,33)" rx="2" ry="2" />
<text  x="13.42" y="207.5" ></text>
</g>
<g >
<title>[[kernel.kallsyms]] (10,101,010 samples, 0.04%)</title><rect x="599.6" y="149" width="0.4" height="15.0" fill="rgb(216,187,19)" rx="2" ry="2" />
<text  x="602.58" y="159.5" ></text>
</g>
<g >
<title>[[kernel.kallsyms]] (20,202,020 samples, 0.07%)</title><rect x="600.0" y="213" width="0.8" height="15.0" fill="rgb(232,100,35)" rx="2" ry="2" />
<text  x="603.00" y="223.5" ></text>
</g>
<g >
<title>[[kernel.kallsyms]] (10,101,010 samples, 0.04%)</title><rect x="220.9" y="197" width="0.4" height="15.0" fill="rgb(251,155,29)" rx="2" ry="2" />
<text  x="223.86" y="207.5" ></text>
</g>
<g >
<title>[[kernel.kallsyms]] (10,101,010 samples, 0.04%)</title><rect x="1063.9" y="133" width="0.4" height="15.0" fill="rgb(212,166,40)" rx="2" ry="2" />
<text  x="1066.90" y="143.5" ></text>
</g>
<g >
<title>[[kernel.kallsyms]] (10,101,010 samples, 0.04%)</title><rect x="1189.6" y="85" width="0.4" height="15.0" fill="rgb(223,219,52)" rx="2" ry="2" />
<text  x="1192.58" y="95.5" ></text>
</g>
<g >
<title>pthread_mutex_unlock (30,303,030 samples, 0.11%)</title><rect x="462.1" y="245" width="1.3" height="15.0" fill="rgb(234,227,16)" rx="2" ry="2" />
<text  x="465.09" y="255.5" ></text>
</g>
<g >
<title>clientsCron (10,101,010 samples, 0.04%)</title><rect x="603.8" y="261" width="0.4" height="15.0" fill="rgb(210,176,42)" rx="2" ry="2" />
<text  x="606.80" y="271.5" ></text>
</g>
<g >
<title>cfrac (14,101,009,960 samples, 49.89%)</title><rect x="10.8" y="277" width="588.8" height="15.0" fill="rgb(240,59,44)" rx="2" ry="2" />
<text  x="13.84" y="287.5" >cfrac</text>
</g>
<g >
<title>[[kernel.kallsyms]] (11,020,201,910 samples, 38.99%)</title><rect x="604.2" y="181" width="460.1" height="15.0" fill="rgb(206,25,54)" rx="2" ry="2" />
<text  x="607.22" y="191.5" >[[kernel.kallsyms]]</text>
</g>
<g >
<title>[[kernel.kallsyms]] (10,101,010 samples, 0.04%)</title><rect x="601.3" y="245" width="0.4" height="15.0" fill="rgb(246,175,6)" rx="2" ry="2" />
<text  x="604.27" y="255.5" ></text>
</g>
<g >
<title>[[kernel.kallsyms]] (10,101,010 samples, 0.04%)</title><rect x="220.9" y="229" width="0.4" height="15.0" fill="rgb(236,18,0)" rx="2" ry="2" />
<text  x="223.86" y="239.5" ></text>
</g>
<g >
<title>[cfrac] (50,505,050 samples, 0.18%)</title><rect x="154.2" y="245" width="2.1" height="15.0" fill="rgb(246,190,29)" rx="2" ry="2" />
<text  x="157.23" y="255.5" ></text>
</g>
<g >
<title>[[kernel.kallsyms]] (11,020,201,910 samples, 38.99%)</title><rect x="604.2" y="213" width="460.1" height="15.0" fill="rgb(249,136,22)" rx="2" ry="2" />
<text  x="607.22" y="223.5" >[[kernel.kallsyms]]</text>
</g>
<g >
<title>[[kernel.kallsyms]] (10,101,010 samples, 0.04%)</title><rect x="599.6" y="117" width="0.4" height="15.0" fill="rgb(205,213,5)" rx="2" ry="2" />
<text  x="602.58" y="127.5" ></text>
</g>
<g >
<title>[[kernel.kallsyms]] (10,101,010 samples, 0.04%)</title><rect x="1063.9" y="101" width="0.4" height="15.0" fill="rgb(222,109,12)" rx="2" ry="2" />
<text  x="1066.90" y="111.5" ></text>
</g>
<g >
<title>pmul (202,020,200 samples, 0.71%)</title><rect x="444.0" y="245" width="8.4" height="15.0" fill="rgb(234,60,1)" rx="2" ry="2" />
<text  x="446.96" y="255.5" ></text>
</g>
<g >
<title>[[kernel.kallsyms]] (3,010,100,980 samples, 10.65%)</title><rect x="1064.3" y="101" width="125.7" height="15.0" fill="rgb(224,18,3)" rx="2" ry="2" />
<text  x="1067.32" y="111.5" >[[kernel.kallsy..</text>
</g>
<g >
<title>padd (121,212,120 samples, 0.43%)</title><rect x="291.3" y="245" width="5.1" height="15.0" fill="rgb(228,158,34)" rx="2" ry="2" />
<text  x="294.29" y="255.5" ></text>
</g>
<g >
<title>[cfrac] (20,202,020 samples, 0.07%)</title><rect x="10.8" y="261" width="0.9" height="15.0" fill="rgb(211,120,2)" rx="2" ry="2" />
<text  x="13.84" y="271.5" ></text>
</g>
<g >
<title>[[kernel.kallsyms]] (10,101,010 samples, 0.04%)</title><rect x="599.6" y="181" width="0.4" height="15.0" fill="rgb(210,162,45)" rx="2" ry="2" />
<text  x="602.58" y="191.5" ></text>
</g>
<g >
<title>bench.sh (20,202,020 samples, 0.07%)</title><rect x="10.0" y="277" width="0.8" height="15.0" fill="rgb(254,213,41)" rx="2" ry="2" />
<text  x="13.00" y="287.5" ></text>
</g>
<g >
<title>kworker/1:1-eve (10,101,010 samples, 0.04%)</title><rect x="600.8" y="277" width="0.5" height="15.0" fill="rgb(254,25,8)" rx="2" ry="2" />
<text  x="603.84" y="287.5" ></text>
</g>
<g >
<title>pdivmod (323,232,320 samples, 1.14%)</title><rect x="329.2" y="245" width="13.5" height="15.0" fill="rgb(233,33,47)" rx="2" ry="2" />
<text  x="332.25" y="255.5" ></text>
</g>
<g >
<title>[[kernel.kallsyms]] (20,202,020 samples, 0.07%)</title><rect x="600.0" y="165" width="0.8" height="15.0" fill="rgb(235,38,5)" rx="2" ry="2" />
<text  x="603.00" y="175.5" ></text>
</g>
<g >
<title>[[kernel.kallsyms]] (10,101,010 samples, 0.04%)</title><rect x="600.4" y="69" width="0.4" height="15.0" fill="rgb(239,93,21)" rx="2" ry="2" />
<text  x="603.42" y="79.5" ></text>
</g>
<g >
<title>[[kernel.kallsyms]] (10,101,010 samples, 0.04%)</title><rect x="601.3" y="133" width="0.4" height="15.0" fill="rgb(224,142,53)" rx="2" ry="2" />
<text  x="604.27" y="143.5" ></text>
</g>
<g >
<title>[[kernel.kallsyms]] (80,808,080 samples, 0.29%)</title><rect x="227.6" y="213" width="3.4" height="15.0" fill="rgb(208,130,10)" rx="2" ry="2" />
<text  x="230.61" y="223.5" ></text>
</g>
<g >
<title>[[kernel.kallsyms]] (10,101,010 samples, 0.04%)</title><rect x="603.4" y="181" width="0.4" height="15.0" fill="rgb(227,123,49)" rx="2" ry="2" />
<text  x="606.37" y="191.5" ></text>
</g>
<g >
<title>[[kernel.kallsyms]] (20,202,020 samples, 0.07%)</title><rect x="600.0" y="85" width="0.8" height="15.0" fill="rgb(218,74,16)" rx="2" ry="2" />
<text  x="603.00" y="95.5" ></text>
</g>
<g >
<title>pthread_mutex_unlock@plt (60,606,060 samples, 0.21%)</title><rect x="463.4" y="245" width="2.5" height="15.0" fill="rgb(223,84,23)" rx="2" ry="2" />
<text  x="466.36" y="255.5" ></text>
</g>
<g >
<title>read (20,202,020 samples, 0.07%)</title><rect x="600.0" y="245" width="0.8" height="15.0" fill="rgb(249,169,50)" rx="2" ry="2" />
<text  x="603.00" y="255.5" ></text>
</g>
<g >
<title>drm_fb_helper_damage_work (10,101,010 samples, 0.04%)</title><rect x="600.8" y="197" width="0.5" height="15.0" fill="rgb(237,140,2)" rx="2" ry="2" />
<text  x="603.84" y="207.5" ></text>
</g>
<g >
<title>pfactorQ (272,727,270 samples, 0.96%)</title><rect x="342.7" y="245" width="11.4" height="15.0" fill="rgb(250,207,9)" rx="2" ry="2" />
<text  x="345.74" y="255.5" ></text>
</g>
<g >
<title>iso_alloc (20,202,020 samples, 0.07%)</title><rect x="289.6" y="245" width="0.9" height="15.0" fill="rgb(209,95,2)" rx="2" ry="2" />
<text  x="292.61" y="255.5" ></text>
</g>
<g >
<title>[[kernel.kallsyms]] (10,101,010 samples, 0.04%)</title><rect x="600.8" y="213" width="0.5" height="15.0" fill="rgb(250,21,23)" rx="2" ry="2" />
<text  x="603.84" y="223.5" ></text>
</g>
<g >
<title>pthread_mutex_lock@plt (40,404,040 samples, 0.14%)</title><rect x="460.4" y="245" width="1.7" height="15.0" fill="rgb(214,59,31)" rx="2" ry="2" />
<text  x="463.41" y="255.5" ></text>
</g>
<g >
<title>__tls_get_addr (10,101,010 samples, 0.04%)</title><rect x="287.1" y="245" width="0.4" height="15.0" fill="rgb(208,172,43)" rx="2" ry="2" />
<text  x="290.08" y="255.5" ></text>
</g>
<g >
<title>[[kernel.kallsyms]] (50,505,050 samples, 0.18%)</title><rect x="473.1" y="181" width="2.1" height="15.0" fill="rgb(222,211,50)" rx="2" ry="2" />
<text  x="476.06" y="191.5" ></text>
</g>
<g >
<title>[[kernel.kallsyms]] (10,101,010 samples, 0.04%)</title><rect x="10.4" y="229" width="0.4" height="15.0" fill="rgb(226,76,6)" rx="2" ry="2" />
<text  x="13.42" y="239.5" ></text>
</g>
<g >
<title>[[kernel.kallsyms]] (20,202,020 samples, 0.07%)</title><rect x="600.0" y="197" width="0.8" height="15.0" fill="rgb(229,182,21)" rx="2" ry="2" />
<text  x="603.00" y="207.5" ></text>
</g>
<g >
<title>[[kernel.kallsyms]] (80,808,080 samples, 0.29%)</title><rect x="227.6" y="197" width="3.4" height="15.0" fill="rgb(218,58,49)" rx="2" ry="2" />
<text  x="230.61" y="207.5" ></text>
</g>
<g >
<title>[[kernel.kallsyms]] (3,010,100,980 samples, 10.65%)</title><rect x="1064.3" y="165" width="125.7" height="15.0" fill="rgb(231,101,5)" rx="2" ry="2" />
<text  x="1067.32" y="175.5" >[[kernel.kallsy..</text>
</g>
<g >
<title>drm_gem_vmap (10,101,010 samples, 0.04%)</title><rect x="600.8" y="165" width="0.5" height="15.0" fill="rgb(207,66,37)" rx="2" ry="2" />
<text  x="603.84" y="175.5" ></text>
</g>
<g >
<title>picmp (10,101,010 samples, 0.04%)</title><rect x="356.7" y="245" width="0.4" height="15.0" fill="rgb(235,67,19)" rx="2" ry="2" />
<text  x="359.66" y="255.5" ></text>
</g>
<g >
<title>__GI___getrandom (222,222,220 samples, 0.79%)</title><rect x="465.9" y="261" width="9.3" height="15.0" fill="rgb(245,179,48)" rx="2" ry="2" />
<text  x="468.89" y="271.5" ></text>
</g>
<g >
<title>malloc (10,101,010 samples, 0.04%)</title><rect x="10.4" y="261" width="0.4" height="15.0" fill="rgb(247,39,8)" rx="2" ry="2" />
<text  x="13.42" y="271.5" ></text>
</g>
<g >
<title>phalf (20,202,020 samples, 0.07%)</title><rect x="355.8" y="245" width="0.9" height="15.0" fill="rgb(236,99,42)" rx="2" ry="2" />
<text  x="358.82" y="255.5" ></text>
</g>
<g >
<title>__tls_get_addr@plt (70,707,070 samples, 0.25%)</title><rect x="553.6" y="261" width="3.0" height="15.0" fill="rgb(223,210,0)" rx="2" ry="2" />
<text  x="556.61" y="271.5" ></text>
</g>
<g >
<title>[[kernel.kallsyms]] (10,101,010 samples, 0.04%)</title><rect x="220.9" y="69" width="0.4" height="15.0" fill="rgb(224,136,48)" rx="2" ry="2" />
<text  x="223.86" y="79.5" ></text>
</g>
<g >
<title>kworker/u4:0-ex (10,101,010 samples, 0.04%)</title><rect x="601.3" y="277" width="0.4" height="15.0" fill="rgb(212,46,37)" rx="2" ry="2" />
<text  x="604.27" y="287.5" ></text>
</g>
<g >
<title>[[kernel.kallsyms]] (11,020,201,910 samples, 38.99%)</title><rect x="604.2" y="229" width="460.1" height="15.0" fill="rgb(252,92,52)" rx="2" ry="2" />
<text  x="607.22" y="239.5" >[[kernel.kallsyms]]</text>
</g>
<g >
<title>pthread_mutex_lock (60,606,060 samples, 0.21%)</title><rect x="591.1" y="261" width="2.6" height="15.0" fill="rgb(244,179,31)" rx="2" ry="2" />
<text  x="594.14" y="271.5" ></text>
</g>
<g >
<title>[unknown] (3,010,100,980 samples, 10.65%)</title><rect x="1064.3" y="197" width="125.7" height="15.0" fill="rgb(232,130,43)" rx="2" ry="2" />
<text  x="1067.32" y="207.5" >[unknown]</text>
</g>
<g >
<title>[[kernel.kallsyms]] (3,010,100,980 samples, 10.65%)</title><rect x="1064.3" y="133" width="125.7" height="15.0" fill="rgb(230,207,17)" rx="2" ry="2" />
<text  x="1067.32" y="143.5" >[[kernel.kallsy..</text>
</g>
<g >
<title>[[kernel.kallsyms]] (10,101,010 samples, 0.04%)</title><rect x="220.9" y="213" width="0.4" height="15.0" fill="rgb(249,94,33)" rx="2" ry="2" />
<text  x="223.86" y="223.5" ></text>
</g>
<g >
<title>palloc (80,808,080 samples, 0.29%)</title><rect x="558.7" y="261" width="3.3" height="15.0" fill="rgb(228,129,46)" rx="2" ry="2" />
<text  x="561.67" y="271.5" ></text>
</g>
<g >
<title>__GI_strtoll (10,101,010 samples, 0.04%)</title><rect x="603.0" y="261" width="0.4" height="15.0" fill="rgb(205,225,11)" rx="2" ry="2" />
<text  x="605.95" y="271.5" ></text>
</g>
<g >
<title>[[kernel.kallsyms]] (10,101,010 samples, 0.04%)</title><rect x="599.6" y="245" width="0.4" height="15.0" fill="rgb(214,69,40)" rx="2" ry="2" />
<text  x="602.58" y="255.5" ></text>
</g>
<g >
<title>palloc (90,909,090 samples, 0.32%)</title><rect x="296.4" y="245" width="3.8" height="15.0" fill="rgb(250,119,41)" rx="2" ry="2" />
<text  x="299.35" y="255.5" ></text>
</g>
<g >
<title>mallctl (10,101,010 samples, 0.04%)</title><rect x="602.5" y="245" width="0.5" height="15.0" fill="rgb(217,18,35)" rx="2" ry="2" />
<text  x="605.53" y="255.5" ></text>
</g>
<g >
<title>[[kernel.kallsyms]] (10,101,010 samples, 0.04%)</title><rect x="603.4" y="229" width="0.4" height="15.0" fill="rgb(229,19,43)" rx="2" ry="2" />
<text  x="606.37" y="239.5" ></text>
</g>
<g >
<title>[[kernel.kallsyms]] (10,101,010 samples, 0.04%)</title><rect x="1189.6" y="53" width="0.4" height="15.0" fill="rgb(224,72,42)" rx="2" ry="2" />
<text  x="1192.58" y="63.5" ></text>
</g>
<g >
<title>drm_gem_shmem_object_vmap (10,101,010 samples, 0.04%)</title><rect x="600.8" y="149" width="0.5" height="15.0" fill="rgb(237,102,32)" rx="2" ry="2" />
<text  x="603.84" y="159.5" ></text>
</g>
<g >
<title>pcmp (494,949,490 samples, 1.75%)</title><rect x="305.6" y="245" width="20.7" height="15.0" fill="rgb(213,147,34)" rx="2" ry="2" />
<text  x="308.63" y="255.5" ></text>
</g>
<g >
<title>[unknown] (30,303,030 samples, 0.11%)</title><rect x="601.7" y="261" width="1.3" height="15.0" fill="rgb(213,39,20)" rx="2" ry="2" />
<text  x="604.69" y="271.5" ></text>
</g>
<g >
<title>hv_kvp_daemon (20,202,020 samples, 0.07%)</title><rect x="600.0" y="277" width="0.8" height="15.0" fill="rgb(229,188,14)" rx="2" ry="2" />
<text  x="603.00" y="287.5" ></text>
</g>
<g >
<title>[[kernel.kallsyms]] (10,101,010 samples, 0.04%)</title><rect x="1063.9" y="117" width="0.4" height="15.0" fill="rgb(245,215,9)" rx="2" ry="2" />
<text  x="1066.90" y="127.5" ></text>
</g>
<g >
<title>[[kernel.kallsyms]] (10,101,010 samples, 0.04%)</title><rect x="220.9" y="101" width="0.4" height="15.0" fill="rgb(241,97,13)" rx="2" ry="2" />
<text  x="223.86" y="111.5" ></text>
</g>
<g >
<title>[[kernel.kallsyms]] (90,909,090 samples, 0.32%)</title><rect x="471.4" y="245" width="3.8" height="15.0" fill="rgb(229,31,9)" rx="2" ry="2" />
<text  x="474.37" y="255.5" ></text>
</g>
<g >
<title>[libjemalloc.so.2] (20,202,020 samples, 0.07%)</title><rect x="601.7" y="245" width="0.8" height="15.0" fill="rgb(246,64,30)" rx="2" ry="2" />
<text  x="604.69" y="255.5" ></text>
</g>
<g >
<title>[[kernel.kallsyms]] (10,101,010 samples, 0.04%)</title><rect x="603.4" y="133" width="0.4" height="15.0" fill="rgb(212,28,5)" rx="2" ry="2" />
<text  x="606.37" y="143.5" ></text>
</g>
<g >
<title>[[kernel.kallsyms]] (10,101,010 samples, 0.04%)</title><rect x="600.8" y="133" width="0.5" height="15.0" fill="rgb(221,14,49)" rx="2" ry="2" />
<text  x="603.84" y="143.5" ></text>
</g>
<g >
<title>[[kernel.kallsyms]] (3,010,100,980 samples, 10.65%)</title><rect x="1064.3" y="117" width="125.7" height="15.0" fill="rgb(249,132,38)" rx="2" ry="2" />
<text  x="1067.32" y="127.5" >[[kernel.kallsy..</text>
</g>
</g>
</svg>
