<?xml version="1.0" standalone="no"?>
<!DOCTYPE svg PUBLIC "-//W3C//DTD SVG 1.1//EN" "http://www.w3.org/Graphics/SVG/1.1/DTD/svg11.dtd">
<svg version="1.1" width="1200" height="358" onload="init(evt)" viewBox="0 0 1200 358" xmlns="http://www.w3.org/2000/svg" xmlns:xlink="http://www.w3.org/1999/xlink">
<!-- Flame graph stack visualization. See https://github.com/brendangregg/FlameGraph for latest version, and http://www.brendangregg.com/flamegraphs.html for examples. -->
<!-- NOTES:  -->
<defs>
	<linearGradient id="background" y1="0" y2="1" x1="0" x2="0" >
		<stop stop-color="#eeeeee" offset="5%" />
		<stop stop-color="#eeeeb0" offset="95%" />
	</linearGradient>
</defs>
<style type="text/css">
	text { font-family:Verdana; font-size:12px; fill:rgb(0,0,0); }
	#search, #ignorecase { opacity:0.1; cursor:pointer; }
	#search:hover, #search.show, #ignorecase:hover, #ignorecase.show { opacity:1; }
	#subtitle { text-anchor:middle; font-color:rgb(160,160,160); }
	#title { text-anchor:middle; font-size:17px}
	#unzoom { cursor:pointer; }
	#frames > *:hover { stroke:black; stroke-width:0.5; cursor:pointer; }
	.hide { display:none; }
	.parent { opacity:0.5; }
</style>
<script type="text/ecmascript">
<![CDATA[
	"use strict";
	var details, searchbtn, unzoombtn, matchedtxt, svg, searching, currentSearchTerm, ignorecase, ignorecaseBtn;
	function init(evt) {
		details = document.getElementById("details").firstChild;
		searchbtn = document.getElementById("search");
		ignorecaseBtn = document.getElementById("ignorecase");
		unzoombtn = document.getElementById("unzoom");
		matchedtxt = document.getElementById("matched");
		svg = document.getElementsByTagName("svg")[0];
		searching = 0;
		currentSearchTerm = null;

		// use GET parameters to restore a flamegraphs state.
		var params = get_params();
		if (params.x && params.y)
			zoom(find_group(document.querySelector('[x="' + params.x + '"][y="' + params.y + '"]')));
                if (params.s) search(params.s);
	}

	// event listeners
	window.addEventListener("click", function(e) {
		var target = find_group(e.target);
		if (target) {
			if (target.nodeName == "a") {
				if (e.ctrlKey === false) return;
				e.preventDefault();
			}
			if (target.classList.contains("parent")) unzoom(true);
			zoom(target);
			if (!document.querySelector('.parent')) {
				// we have basically done a clearzoom so clear the url
				var params = get_params();
				if (params.x) delete params.x;
				if (params.y) delete params.y;
				history.replaceState(null, null, parse_params(params));
				unzoombtn.classList.add("hide");
				return;
			}

			// set parameters for zoom state
			var el = target.querySelector("rect");
			if (el && el.attributes && el.attributes.y && el.attributes._orig_x) {
				var params = get_params()
				params.x = el.attributes._orig_x.value;
				params.y = el.attributes.y.value;
				history.replaceState(null, null, parse_params(params));
			}
		}
		else if (e.target.id == "unzoom") clearzoom();
		else if (e.target.id == "search") search_prompt();
		else if (e.target.id == "ignorecase") toggle_ignorecase();
	}, false)

	// mouse-over for info
	// show
	window.addEventListener("mouseover", function(e) {
		var target = find_group(e.target);
		if (target) details.nodeValue = "Function: " + g_to_text(target);
	}, false)

	// clear
	window.addEventListener("mouseout", function(e) {
		var target = find_group(e.target);
		if (target) details.nodeValue = ' ';
	}, false)

	// ctrl-F for search
	// ctrl-I to toggle case-sensitive search
	window.addEventListener("keydown",function (e) {
		if (e.keyCode === 114 || (e.ctrlKey && e.keyCode === 70)) {
			e.preventDefault();
			search_prompt();
		}
		else if (e.ctrlKey && e.keyCode === 73) {
			e.preventDefault();
			toggle_ignorecase();
		}
	}, false)

	// functions
	function get_params() {
		var params = {};
		var paramsarr = window.location.search.substr(1).split('&');
		for (var i = 0; i < paramsarr.length; ++i) {
			var tmp = paramsarr[i].split("=");
			if (!tmp[0] || !tmp[1]) continue;
			params[tmp[0]]  = decodeURIComponent(tmp[1]);
		}
		return params;
	}
	function parse_params(params) {
		var uri = "?";
		for (var key in params) {
			uri += key + '=' + encodeURIComponent(params[key]) + '&';
		}
		if (uri.slice(-1) == "&")
			uri = uri.substring(0, uri.length - 1);
		if (uri == '?')
			uri = window.location.href.split('?')[0];
		return uri;
	}
	function find_child(node, selector) {
		var children = node.querySelectorAll(selector);
		if (children.length) return children[0];
	}
	function find_group(node) {
		var parent = node.parentElement;
		if (!parent) return;
		if (parent.id == "frames") return node;
		return find_group(parent);
	}
	function orig_save(e, attr, val) {
		if (e.attributes["_orig_" + attr] != undefined) return;
		if (e.attributes[attr] == undefined) return;
		if (val == undefined) val = e.attributes[attr].value;
		e.setAttribute("_orig_" + attr, val);
	}
	function orig_load(e, attr) {
		if (e.attributes["_orig_"+attr] == undefined) return;
		e.attributes[attr].value = e.attributes["_orig_" + attr].value;
		e.removeAttribute("_orig_"+attr);
	}
	function g_to_text(e) {
		var text = find_child(e, "title").firstChild.nodeValue;
		return (text)
	}
	function g_to_func(e) {
		var func = g_to_text(e);
		// if there's any manipulation we want to do to the function
		// name before it's searched, do it here before returning.
		return (func);
	}
	function update_text(e) {
		var r = find_child(e, "rect");
		var t = find_child(e, "text");
		var w = parseFloat(r.attributes.width.value) -3;
		var txt = find_child(e, "title").textContent.replace(/\([^(]*\)$/,"");
		t.attributes.x.value = parseFloat(r.attributes.x.value) + 3;

		// Smaller than this size won't fit anything
		if (w < 2 * 12 * 0.59) {
			t.textContent = "";
			return;
		}

		t.textContent = txt;
		var sl = t.getSubStringLength(0, txt.length);
		// check if only whitespace or if we can fit the entire string into width w
		if (/^ *$/.test(txt) || sl < w)
			return;

		// this isn't perfect, but gives a good starting point
		// and avoids calling getSubStringLength too often
		var start = Math.floor((w/sl) * txt.length);
		for (var x = start; x > 0; x = x-2) {
			if (t.getSubStringLength(0, x + 2) <= w) {
				t.textContent = txt.substring(0, x) + "..";
				return;
			}
		}
		t.textContent = "";
	}

	// zoom
	function zoom_reset(e) {
		if (e.attributes != undefined) {
			orig_load(e, "x");
			orig_load(e, "width");
		}
		if (e.childNodes == undefined) return;
		for (var i = 0, c = e.childNodes; i < c.length; i++) {
			zoom_reset(c[i]);
		}
	}
	function zoom_child(e, x, ratio) {
		if (e.attributes != undefined) {
			if (e.attributes.x != undefined) {
				orig_save(e, "x");
				e.attributes.x.value = (parseFloat(e.attributes.x.value) - x - 10) * ratio + 10;
				if (e.tagName == "text")
					e.attributes.x.value = find_child(e.parentNode, "rect[x]").attributes.x.value + 3;
			}
			if (e.attributes.width != undefined) {
				orig_save(e, "width");
				e.attributes.width.value = parseFloat(e.attributes.width.value) * ratio;
			}
		}

		if (e.childNodes == undefined) return;
		for (var i = 0, c = e.childNodes; i < c.length; i++) {
			zoom_child(c[i], x - 10, ratio);
		}
	}
	function zoom_parent(e) {
		if (e.attributes) {
			if (e.attributes.x != undefined) {
				orig_save(e, "x");
				e.attributes.x.value = 10;
			}
			if (e.attributes.width != undefined) {
				orig_save(e, "width");
				e.attributes.width.value = parseInt(svg.width.baseVal.value) - (10 * 2);
			}
		}
		if (e.childNodes == undefined) return;
		for (var i = 0, c = e.childNodes; i < c.length; i++) {
			zoom_parent(c[i]);
		}
	}
	function zoom(node) {
		var attr = find_child(node, "rect").attributes;
		var width = parseFloat(attr.width.value);
		var xmin = parseFloat(attr.x.value);
		var xmax = parseFloat(xmin + width);
		var ymin = parseFloat(attr.y.value);
		var ratio = (svg.width.baseVal.value - 2 * 10) / width;

		// XXX: Workaround for JavaScript float issues (fix me)
		var fudge = 0.0001;

		unzoombtn.classList.remove("hide");

		var el = document.getElementById("frames").children;
		for (var i = 0; i < el.length; i++) {
			var e = el[i];
			var a = find_child(e, "rect").attributes;
			var ex = parseFloat(a.x.value);
			var ew = parseFloat(a.width.value);
			var upstack;
			// Is it an ancestor
			if (0 == 0) {
				upstack = parseFloat(a.y.value) > ymin;
			} else {
				upstack = parseFloat(a.y.value) < ymin;
			}
			if (upstack) {
				// Direct ancestor
				if (ex <= xmin && (ex+ew+fudge) >= xmax) {
					e.classList.add("parent");
					zoom_parent(e);
					update_text(e);
				}
				// not in current path
				else
					e.classList.add("hide");
			}
			// Children maybe
			else {
				// no common path
				if (ex < xmin || ex + fudge >= xmax) {
					e.classList.add("hide");
				}
				else {
					zoom_child(e, xmin, ratio);
					update_text(e);
				}
			}
		}
		search();
	}
	function unzoom(dont_update_text) {
		unzoombtn.classList.add("hide");
		var el = document.getElementById("frames").children;
		for(var i = 0; i < el.length; i++) {
			el[i].classList.remove("parent");
			el[i].classList.remove("hide");
			zoom_reset(el[i]);
			if(!dont_update_text) update_text(el[i]);
		}
		search();
	}
	function clearzoom() {
		unzoom();

		// remove zoom state
		var params = get_params();
		if (params.x) delete params.x;
		if (params.y) delete params.y;
		history.replaceState(null, null, parse_params(params));
	}

	// search
	function toggle_ignorecase() {
		ignorecase = !ignorecase;
		if (ignorecase) {
			ignorecaseBtn.classList.add("show");
		} else {
			ignorecaseBtn.classList.remove("show");
		}
		reset_search();
		search();
	}
	function reset_search() {
		var el = document.querySelectorAll("#frames rect");
		for (var i = 0; i < el.length; i++) {
			orig_load(el[i], "fill")
		}
		var params = get_params();
		delete params.s;
		history.replaceState(null, null, parse_params(params));
	}
	function search_prompt() {
		if (!searching) {
			var term = prompt("Enter a search term (regexp " +
			    "allowed, eg: ^ext4_)"
			    + (ignorecase ? ", ignoring case" : "")
			    + "\nPress Ctrl-i to toggle case sensitivity", "");
			if (term != null) search(term);
		} else {
			reset_search();
			searching = 0;
			currentSearchTerm = null;
			searchbtn.classList.remove("show");
			searchbtn.firstChild.nodeValue = "Search"
			matchedtxt.classList.add("hide");
			matchedtxt.firstChild.nodeValue = ""
		}
	}
	function search(term) {
		if (term) currentSearchTerm = term;

		var re = new RegExp(currentSearchTerm, ignorecase ? 'i' : '');
		var el = document.getElementById("frames").children;
		var matches = new Object();
		var maxwidth = 0;
		for (var i = 0; i < el.length; i++) {
			var e = el[i];
			var func = g_to_func(e);
			var rect = find_child(e, "rect");
			if (func == null || rect == null)
				continue;

			// Save max width. Only works as we have a root frame
			var w = parseFloat(rect.attributes.width.value);
			if (w > maxwidth)
				maxwidth = w;

			if (func.match(re)) {
				// highlight
				var x = parseFloat(rect.attributes.x.value);
				orig_save(rect, "fill");
				rect.attributes.fill.value = "rgb(230,0,230)";

				// remember matches
				if (matches[x] == undefined) {
					matches[x] = w;
				} else {
					if (w > matches[x]) {
						// overwrite with parent
						matches[x] = w;
					}
				}
				searching = 1;
			}
		}
		if (!searching)
			return;
		var params = get_params();
		params.s = currentSearchTerm;
		history.replaceState(null, null, parse_params(params));

		searchbtn.classList.add("show");
		searchbtn.firstChild.nodeValue = "Reset Search";

		// calculate percent matched, excluding vertical overlap
		var count = 0;
		var lastx = -1;
		var lastw = 0;
		var keys = Array();
		for (k in matches) {
			if (matches.hasOwnProperty(k))
				keys.push(k);
		}
		// sort the matched frames by their x location
		// ascending, then width descending
		keys.sort(function(a, b){
			return a - b;
		});
		// Step through frames saving only the biggest bottom-up frames
		// thanks to the sort order. This relies on the tree property
		// where children are always smaller than their parents.
		var fudge = 0.0001;	// JavaScript floating point
		for (var k in keys) {
			var x = parseFloat(keys[k]);
			var w = matches[keys[k]];
			if (x >= lastx + lastw - fudge) {
				count += w;
				lastx = x;
				lastw = w;
			}
		}
		// display matched percent
		matchedtxt.classList.remove("hide");
		var pct = 100 * count / maxwidth;
		if (pct != 100) pct = pct.toFixed(1)
		matchedtxt.firstChild.nodeValue = "Matched: " + pct + "%";
	}
]]>
</script>
<rect x="0.0" y="0" width="1200.0" height="358.0" fill="url(#background)"  />
<text id="title" x="600.00" y="24" >Flame Graph</text>
<text id="details" x="10.00" y="341" > </text>
<text id="unzoom" x="10.00" y="24" class="hide">Reset Zoom</text>
<text id="search" x="1090.00" y="24" >Search</text>
<text id="ignorecase" x="1174.00" y="24" >ic</text>
<text id="matched" x="1090.00" y="341" > </text>
<g id="frames">
<g >
<title>[libjemalloc.so.2] (10,101,010 samples, 0.08%)</title><rect x="599.0" y="261" width="1.0" height="15.0" fill="rgb(226,185,43)" rx="2" ry="2" />
<text  x="602.05" y="271.5" ></text>
</g>
<g >
<title>_int_free (363,636,360 samples, 2.91%)</title><rect x="28.1" y="261" width="34.3" height="15.0" fill="rgb(224,214,1)" rx="2" ry="2" />
<text  x="31.11" y="271.5" >_i..</text>
</g>
<g >
<title>[[kernel.kallsyms]] (10,101,010 samples, 0.08%)</title><rect x="601.0" y="261" width="0.9" height="15.0" fill="rgb(225,144,20)" rx="2" ry="2" />
<text  x="603.95" y="271.5" ></text>
</g>
<g >
<title>[[kernel.kallsyms]] (10,101,010 samples, 0.08%)</title><rect x="108.2" y="197" width="0.9" height="15.0" fill="rgb(249,67,30)" rx="2" ry="2" />
<text  x="111.17" y="207.5" ></text>
</g>
<g >
<title>[[kernel.kallsyms]] (10,101,010 samples, 0.08%)</title><rect x="600.0" y="261" width="1.0" height="15.0" fill="rgb(234,184,50)" rx="2" ry="2" />
<text  x="603.00" y="271.5" ></text>
</g>
<g >
<title>[[kernel.kallsyms]] (5,222,222,170 samples, 41.76%)</title><rect x="601.9" y="181" width="492.8" height="15.0" fill="rgb(227,203,50)" rx="2" ry="2" />
<text  x="604.91" y="191.5" >[[kernel.kallsyms]]</text>
</g>
<g >
<title>redis-server (20,202,020 samples, 0.16%)</title><rect x="599.0" y="293" width="2.0" height="15.0" fill="rgb(234,0,12)" rx="2" ry="2" />
<text  x="602.05" y="303.5" ></text>
</g>
<g >
<title>[[kernel.kallsyms]] (10,101,010 samples, 0.08%)</title><rect x="10.0" y="181" width="1.0" height="15.0" fill="rgb(238,42,10)" rx="2" ry="2" />
<text  x="13.00" y="191.5" ></text>
</g>
<g >
<title>[[kernel.kallsyms]] (10,101,010 samples, 0.08%)</title><rect x="600.0" y="117" width="1.0" height="15.0" fill="rgb(234,97,14)" rx="2" ry="2" />
<text  x="603.00" y="127.5" ></text>
</g>
<g >
<title>__GI___execve (10,101,010 samples, 0.08%)</title><rect x="601.0" y="277" width="0.9" height="15.0" fill="rgb(206,226,11)" rx="2" ry="2" />
<text  x="603.95" y="287.5" ></text>
</g>
<g >
<title>[[kernel.kallsyms]] (1,010,101,000 samples, 8.08%)</title><rect x="1094.7" y="117" width="95.3" height="15.0" fill="rgb(246,8,12)" rx="2" ry="2" />
<text  x="1097.68" y="127.5" >[[kernel.ka..</text>
</g>
<g >
<title>padd (171,717,170 samples, 1.37%)</title><rect x="69.1" y="261" width="16.2" height="15.0" fill="rgb(209,71,38)" rx="2" ry="2" />
<text  x="72.10" y="271.5" ></text>
</g>
<g >
<title>pdivmod (1,020,202,010 samples, 8.16%)</title><rect x="498.0" y="277" width="96.3" height="15.0" fill="rgb(249,174,44)" rx="2" ry="2" />
<text  x="501.01" y="287.5" >pdivmod</text>
</g>
<g >
<title>[[kernel.kallsyms]] (10,101,010 samples, 0.08%)</title><rect x="601.0" y="53" width="0.9" height="15.0" fill="rgb(239,159,13)" rx="2" ry="2" />
<text  x="603.95" y="63.5" ></text>
</g>
<g >
<title>[[kernel.kallsyms]] (10,101,010 samples, 0.08%)</title><rect x="10.0" y="149" width="1.0" height="15.0" fill="rgb(237,165,7)" rx="2" ry="2" />
<text  x="13.00" y="159.5" ></text>
</g>
<g >
<title>[[kernel.kallsyms]] (10,101,010 samples, 0.08%)</title><rect x="601.0" y="85" width="0.9" height="15.0" fill="rgb(219,42,7)" rx="2" ry="2" />
<text  x="603.95" y="95.5" ></text>
</g>
<g >
<title>[[kernel.kallsyms]] (10,101,010 samples, 0.08%)</title><rect x="601.0" y="101" width="0.9" height="15.0" fill="rgb(221,136,11)" rx="2" ry="2" />
<text  x="603.95" y="111.5" ></text>
</g>
<g >
<title>[[kernel.kallsyms]] (6,232,323,170 samples, 49.84%)</title><rect x="601.9" y="277" width="588.1" height="15.0" fill="rgb(245,122,8)" rx="2" ry="2" />
<text  x="604.91" y="287.5" >[[kernel.kallsyms]]</text>
</g>
<g >
<title>cfree@GLIBC_2.2.5 (50,505,050 samples, 0.40%)</title><rect x="62.4" y="261" width="4.8" height="15.0" fill="rgb(239,77,30)" rx="2" ry="2" />
<text  x="65.42" y="271.5" ></text>
</g>
<g >
<title>[[kernel.kallsyms]] (10,101,010 samples, 0.08%)</title><rect x="108.2" y="229" width="0.9" height="15.0" fill="rgb(205,194,36)" rx="2" ry="2" />
<text  x="111.17" y="239.5" ></text>
</g>
<g >
<title>pidiv (232,323,230 samples, 1.86%)</title><rect x="215.9" y="261" width="21.9" height="15.0" fill="rgb(252,135,45)" rx="2" ry="2" />
<text  x="218.88" y="271.5" >p..</text>
</g>
<g >
<title>[[kernel.kallsyms]] (10,101,010 samples, 0.08%)</title><rect x="600.0" y="149" width="1.0" height="15.0" fill="rgb(225,168,47)" rx="2" ry="2" />
<text  x="603.00" y="159.5" ></text>
</g>
<g >
<title>[unknown] (1,010,101,000 samples, 8.08%)</title><rect x="1094.7" y="213" width="95.3" height="15.0" fill="rgb(227,99,13)" rx="2" ry="2" />
<text  x="1097.68" y="223.5" >[unknown]</text>
</g>
<g >
<title>[[kernel.kallsyms]] (10,101,010 samples, 0.08%)</title><rect x="600.0" y="229" width="1.0" height="15.0" fill="rgb(205,52,48)" rx="2" ry="2" />
<text  x="603.00" y="239.5" ></text>
</g>
<g >
<title>[unknown] (4,545,454,500 samples, 36.35%)</title><rect x="17.6" y="277" width="428.9" height="15.0" fill="rgb(218,157,41)" rx="2" ry="2" />
<text  x="20.63" y="287.5" >[unknown]</text>
</g>
<g >
<title>swapper (6,232,323,170 samples, 49.84%)</title><rect x="601.9" y="293" width="588.1" height="15.0" fill="rgb(244,56,47)" rx="2" ry="2" />
<text  x="604.91" y="303.5" >swapper</text>
</g>
<g >
<title>__GI___execve (10,101,010 samples, 0.08%)</title><rect x="10.0" y="277" width="1.0" height="15.0" fill="rgb(208,159,27)" rx="2" ry="2" />
<text  x="13.00" y="287.5" ></text>
</g>
<g >
<title>malloc (10,101,010 samples, 0.08%)</title><rect x="67.2" y="261" width="0.9" height="15.0" fill="rgb(228,208,22)" rx="2" ry="2" />
<text  x="70.19" y="271.5" ></text>
</g>
<g >
<title>[[kernel.kallsyms]] (10,101,010 samples, 0.08%)</title><rect x="10.0" y="53" width="1.0" height="15.0" fill="rgb(241,135,48)" rx="2" ry="2" />
<text  x="13.00" y="63.5" ></text>
</g>
<g >
<title>palloc (131,313,130 samples, 1.05%)</title><rect x="85.3" y="261" width="12.4" height="15.0" fill="rgb(226,154,29)" rx="2" ry="2" />
<text  x="88.30" y="271.5" ></text>
</g>
<g >
<title>cfree@GLIBC_2.2.5 (20,202,020 samples, 0.16%)</title><rect x="450.4" y="277" width="1.9" height="15.0" fill="rgb(240,107,21)" rx="2" ry="2" />
<text  x="453.36" y="287.5" ></text>
</g>
<g >
<title>[[kernel.kallsyms]] (10,101,010 samples, 0.08%)</title><rect x="601.0" y="133" width="0.9" height="15.0" fill="rgb(242,10,3)" rx="2" ry="2" />
<text  x="603.95" y="143.5" ></text>
</g>
<g >
<title>[unknown] (1,010,101,000 samples, 8.08%)</title><rect x="1094.7" y="245" width="95.3" height="15.0" fill="rgb(241,144,38)" rx="2" ry="2" />
<text  x="1097.68" y="255.5" >[unknown]</text>
</g>
<g >
<title>picmp (10,101,010 samples, 0.08%)</title><rect x="214.9" y="261" width="1.0" height="15.0" fill="rgb(239,141,32)" rx="2" ry="2" />
<text  x="217.93" y="271.5" ></text>
</g>
<g >
<title>pfactorQ (242,424,240 samples, 1.94%)</title><rect x="187.3" y="261" width="22.9" height="15.0" fill="rgb(207,110,45)" rx="2" ry="2" />
<text  x="190.29" y="271.5" >p..</text>
</g>
<g >
<title>[[kernel.kallsyms]] (5,222,222,170 samples, 41.76%)</title><rect x="601.9" y="261" width="492.8" height="15.0" fill="rgb(222,109,34)" rx="2" ry="2" />
<text  x="604.91" y="271.5" >[[kernel.kallsyms]]</text>
</g>
<g >
<title>pmul (131,313,130 samples, 1.05%)</title><rect x="416.0" y="261" width="12.4" height="15.0" fill="rgb(235,195,23)" rx="2" ry="2" />
<text  x="419.04" y="271.5" ></text>
</g>
<g >
<title>[[kernel.kallsyms]] (10,101,010 samples, 0.08%)</title><rect x="601.0" y="69" width="0.9" height="15.0" fill="rgb(206,72,7)" rx="2" ry="2" />
<text  x="603.95" y="79.5" ></text>
</g>
<g >
<title>[cfrac] (70,707,070 samples, 0.57%)</title><rect x="11.0" y="277" width="6.6" height="15.0" fill="rgb(253,67,41)" rx="2" ry="2" />
<text  x="13.95" y="287.5" ></text>
</g>
<g >
<title>[[kernel.kallsyms]] (10,101,010 samples, 0.08%)</title><rect x="600.0" y="133" width="1.0" height="15.0" fill="rgb(220,20,41)" rx="2" ry="2" />
<text  x="603.00" y="143.5" ></text>
</g>
<g >
<title>[[kernel.kallsyms]] (10,101,010 samples, 0.08%)</title><rect x="600.0" y="245" width="1.0" height="15.0" fill="rgb(252,65,18)" rx="2" ry="2" />
<text  x="603.00" y="255.5" ></text>
</g>
<g >
<title>[[kernel.kallsyms]] (10,101,010 samples, 0.08%)</title><rect x="601.0" y="181" width="0.9" height="15.0" fill="rgb(217,56,6)" rx="2" ry="2" />
<text  x="603.95" y="191.5" ></text>
</g>
<g >
<title>[unknown] (20,202,020 samples, 0.16%)</title><rect x="25.3" y="261" width="1.9" height="15.0" fill="rgb(219,70,37)" rx="2" ry="2" />
<text  x="28.25" y="271.5" ></text>
</g>
<g >
<title>[unknown] (1,010,101,000 samples, 8.08%)</title><rect x="1094.7" y="229" width="95.3" height="15.0" fill="rgb(239,40,53)" rx="2" ry="2" />
<text  x="1097.68" y="239.5" >[unknown]</text>
</g>
<g >
<title>newSoln (10,101,010 samples, 0.08%)</title><rect x="68.1" y="261" width="1.0" height="15.0" fill="rgb(218,0,0)" rx="2" ry="2" />
<text  x="71.14" y="271.5" ></text>
</g>
<g >
<title>[[kernel.kallsyms]] (10,101,010 samples, 0.08%)</title><rect x="601.0" y="197" width="0.9" height="15.0" fill="rgb(205,191,9)" rx="2" ry="2" />
<text  x="603.95" y="207.5" ></text>
</g>
<g >
<title>bench.sh (10,101,010 samples, 0.08%)</title><rect x="10.0" y="293" width="1.0" height="15.0" fill="rgb(229,207,51)" rx="2" ry="2" />
<text  x="13.00" y="303.5" ></text>
</g>
<g >
<title>[[kernel.kallsyms]] (10,101,010 samples, 0.08%)</title><rect x="600.0" y="197" width="1.0" height="15.0" fill="rgb(244,178,14)" rx="2" ry="2" />
<text  x="603.00" y="207.5" ></text>
</g>
<g >
<title>_int_free (10,101,010 samples, 0.08%)</title><rect x="25.3" y="229" width="0.9" height="15.0" fill="rgb(211,224,16)" rx="2" ry="2" />
<text  x="28.25" y="239.5" ></text>
</g>
<g >
<title>psub (181,818,180 samples, 1.45%)</title><rect x="429.4" y="261" width="17.1" height="15.0" fill="rgb(216,59,21)" rx="2" ry="2" />
<text  x="432.39" y="271.5" ></text>
</g>
<g >
<title>pfree (40,404,040 samples, 0.32%)</title><rect x="210.2" y="261" width="3.8" height="15.0" fill="rgb(207,60,9)" rx="2" ry="2" />
<text  x="213.16" y="271.5" ></text>
</g>
<g >
<title>[[kernel.kallsyms]] (10,101,010 samples, 0.08%)</title><rect x="10.0" y="117" width="1.0" height="15.0" fill="rgb(237,119,20)" rx="2" ry="2" />
<text  x="13.00" y="127.5" ></text>
</g>
<g >
<title>malloc (434,343,430 samples, 3.47%)</title><rect x="452.3" y="277" width="40.9" height="15.0" fill="rgb(212,155,1)" rx="2" ry="2" />
<text  x="455.26" y="287.5" >mal..</text>
</g>
<g >
<title>[[kernel.kallsyms]] (10,101,010 samples, 0.08%)</title><rect x="10.0" y="245" width="1.0" height="15.0" fill="rgb(221,18,22)" rx="2" ry="2" />
<text  x="13.00" y="255.5" ></text>
</g>
<g >
<title>[[kernel.kallsyms]] (10,101,010 samples, 0.08%)</title><rect x="10.0" y="197" width="1.0" height="15.0" fill="rgb(252,82,12)" rx="2" ry="2" />
<text  x="13.00" y="207.5" ></text>
</g>
<g >
<title>cfrac (6,232,323,170 samples, 49.84%)</title><rect x="11.0" y="293" width="588.0" height="15.0" fill="rgb(234,11,0)" rx="2" ry="2" />
<text  x="13.95" y="303.5" >cfrac</text>
</g>
<g >
<title>[[kernel.kallsyms]] (10,101,010 samples, 0.08%)</title><rect x="10.0" y="133" width="1.0" height="15.0" fill="rgb(221,199,44)" rx="2" ry="2" />
<text  x="13.00" y="143.5" ></text>
</g>
<g >
<title>all (12,505,050,380 samples, 100%)</title><rect x="10.0" y="309" width="1180.0" height="15.0" fill="rgb(228,84,42)" rx="2" ry="2" />
<text  x="13.00" y="319.5" ></text>
</g>
<g >
<title>[unknown] (10,101,010 samples, 0.08%)</title><rect x="25.3" y="245" width="0.9" height="15.0" fill="rgb(244,150,36)" rx="2" ry="2" />
<text  x="28.25" y="255.5" ></text>
</g>
<g >
<title>[cfrac] (80,808,080 samples, 0.65%)</title><rect x="17.6" y="261" width="7.7" height="15.0" fill="rgb(235,38,48)" rx="2" ry="2" />
<text  x="20.63" y="271.5" ></text>
</g>
<g >
<title>[[kernel.kallsyms]] (1,010,101,000 samples, 8.08%)</title><rect x="1094.7" y="149" width="95.3" height="15.0" fill="rgb(212,83,21)" rx="2" ry="2" />
<text  x="1097.68" y="159.5" >[[kernel.ka..</text>
</g>
<g >
<title>[[kernel.kallsyms]] (5,222,222,170 samples, 41.76%)</title><rect x="601.9" y="213" width="492.8" height="15.0" fill="rgb(239,138,39)" rx="2" ry="2" />
<text  x="604.91" y="223.5" >[[kernel.kallsyms]]</text>
</g>
<g >
<title>pcmp (434,343,430 samples, 3.47%)</title><rect x="109.1" y="261" width="41.0" height="15.0" fill="rgb(217,31,47)" rx="2" ry="2" />
<text  x="112.13" y="271.5" >pcmp</text>
</g>
<g >
<title>_int_free (40,404,040 samples, 0.32%)</title><rect x="446.5" y="277" width="3.9" height="15.0" fill="rgb(227,79,22)" rx="2" ry="2" />
<text  x="449.54" y="287.5" ></text>
</g>
<g >
<title>pdivmod (363,636,360 samples, 2.91%)</title><rect x="153.0" y="261" width="34.3" height="15.0" fill="rgb(222,131,13)" rx="2" ry="2" />
<text  x="155.97" y="271.5" >pd..</text>
</g>
<g >
<title>phalf (10,101,010 samples, 0.08%)</title><rect x="214.0" y="261" width="0.9" height="15.0" fill="rgb(206,135,17)" rx="2" ry="2" />
<text  x="216.97" y="271.5" ></text>
</g>
<g >
<title>__memset_avx2_unaligned_erms (10,101,010 samples, 0.08%)</title><rect x="27.2" y="261" width="0.9" height="15.0" fill="rgb(248,187,10)" rx="2" ry="2" />
<text  x="30.16" y="271.5" ></text>
</g>
<g >
<title>podd (10,101,010 samples, 0.08%)</title><rect x="428.4" y="261" width="1.0" height="15.0" fill="rgb(245,205,47)" rx="2" ry="2" />
<text  x="431.43" y="271.5" ></text>
</g>
<g >
<title>[unknown] (10,101,010 samples, 0.08%)</title><rect x="599.0" y="277" width="1.0" height="15.0" fill="rgb(252,104,54)" rx="2" ry="2" />
<text  x="602.05" y="287.5" ></text>
</g>
<g >
<title>pimod (1,888,888,870 samples, 15.11%)</title><rect x="237.8" y="261" width="178.2" height="15.0" fill="rgb(233,171,13)" rx="2" ry="2" />
<text  x="240.80" y="271.5" >pimod</text>
</g>
<g >
<title>[[kernel.kallsyms]] (10,101,010 samples, 0.08%)</title><rect x="10.0" y="213" width="1.0" height="15.0" fill="rgb(223,224,14)" rx="2" ry="2" />
<text  x="13.00" y="223.5" ></text>
</g>
<g >
<title>palloc (50,505,050 samples, 0.40%)</title><rect x="493.2" y="277" width="4.8" height="15.0" fill="rgb(240,92,43)" rx="2" ry="2" />
<text  x="496.25" y="287.5" ></text>
</g>
<g >
<title>[[kernel.kallsyms]] (1,010,101,000 samples, 8.08%)</title><rect x="1094.7" y="181" width="95.3" height="15.0" fill="rgb(207,112,40)" rx="2" ry="2" />
<text  x="1097.68" y="191.5" >[[kernel.ka..</text>
</g>
<g >
<title>[[kernel.kallsyms]] (10,101,010 samples, 0.08%)</title><rect x="108.2" y="245" width="0.9" height="15.0" fill="rgb(212,13,31)" rx="2" ry="2" />
<text  x="111.17" y="255.5" ></text>
</g>
<g >
<title>[[kernel.kallsyms]] (1,010,101,000 samples, 8.08%)</title><rect x="1094.7" y="133" width="95.3" height="15.0" fill="rgb(226,117,22)" rx="2" ry="2" />
<text  x="1097.68" y="143.5" >[[kernel.ka..</text>
</g>
<g >
<title>[[kernel.kallsyms]] (5,222,222,170 samples, 41.76%)</title><rect x="601.9" y="197" width="492.8" height="15.0" fill="rgb(245,200,14)" rx="2" ry="2" />
<text  x="604.91" y="207.5" >[[kernel.kallsyms]]</text>
</g>
<g >
<title>[[kernel.kallsyms]] (10,101,010 samples, 0.08%)</title><rect x="10.0" y="165" width="1.0" height="15.0" fill="rgb(225,88,13)" rx="2" ry="2" />
<text  x="13.00" y="175.5" ></text>
</g>
<g >
<title>[unknown] (1,010,101,000 samples, 8.08%)</title><rect x="1094.7" y="261" width="95.3" height="15.0" fill="rgb(229,54,35)" rx="2" ry="2" />
<text  x="1097.68" y="271.5" >[unknown]</text>
</g>
<g >
<title>[[kernel.kallsyms]] (10,101,010 samples, 0.08%)</title><rect x="10.0" y="229" width="1.0" height="15.0" fill="rgb(233,205,6)" rx="2" ry="2" />
<text  x="13.00" y="239.5" ></text>
</g>
<g >
<title>epoll_wait (10,101,010 samples, 0.08%)</title><rect x="600.0" y="277" width="1.0" height="15.0" fill="rgb(248,50,3)" rx="2" ry="2" />
<text  x="603.00" y="287.5" ></text>
</g>
<g >
<title>[[kernel.kallsyms]] (10,101,010 samples, 0.08%)</title><rect x="600.0" y="165" width="1.0" height="15.0" fill="rgb(236,126,3)" rx="2" ry="2" />
<text  x="603.00" y="175.5" ></text>
</g>
<g >
<title>[[kernel.kallsyms]] (10,101,010 samples, 0.08%)</title><rect x="601.0" y="245" width="0.9" height="15.0" fill="rgb(253,178,25)" rx="2" ry="2" />
<text  x="603.95" y="255.5" ></text>
</g>
<g >
<title>[[kernel.kallsyms]] (10,101,010 samples, 0.08%)</title><rect x="601.0" y="229" width="0.9" height="15.0" fill="rgb(230,159,14)" rx="2" ry="2" />
<text  x="603.95" y="239.5" ></text>
</g>
<g >
<title>[[kernel.kallsyms]] (10,101,010 samples, 0.08%)</title><rect x="10.0" y="85" width="1.0" height="15.0" fill="rgb(227,195,49)" rx="2" ry="2" />
<text  x="13.00" y="95.5" ></text>
</g>
<g >
<title>[[kernel.kallsyms]] (10,101,010 samples, 0.08%)</title><rect x="601.0" y="149" width="0.9" height="15.0" fill="rgb(239,94,52)" rx="2" ry="2" />
<text  x="603.95" y="159.5" ></text>
</g>
<g >
<title>[[kernel.kallsyms]] (10,101,010 samples, 0.08%)</title><rect x="600.0" y="213" width="1.0" height="15.0" fill="rgb(228,97,23)" rx="2" ry="2" />
<text  x="603.00" y="223.5" ></text>
</g>
<g >
<title>[[kernel.kallsyms]] (10,101,010 samples, 0.08%)</title><rect x="601.0" y="213" width="0.9" height="15.0" fill="rgb(240,198,50)" rx="2" ry="2" />
<text  x="603.95" y="223.5" ></text>
</g>
<g >
<title>[[kernel.kallsyms]] (5,222,222,170 samples, 41.76%)</title><rect x="601.9" y="245" width="492.8" height="15.0" fill="rgb(237,151,0)" rx="2" ry="2" />
<text  x="604.91" y="255.5" >[[kernel.kallsyms]]</text>
</g>
<g >
<title>[[kernel.kallsyms]] (10,101,010 samples, 0.08%)</title><rect x="601.0" y="165" width="0.9" height="15.0" fill="rgb(219,122,43)" rx="2" ry="2" />
<text  x="603.95" y="175.5" ></text>
</g>
<g >
<title>[[kernel.kallsyms]] (10,101,010 samples, 0.08%)</title><rect x="10.0" y="261" width="1.0" height="15.0" fill="rgb(206,24,49)" rx="2" ry="2" />
<text  x="13.00" y="271.5" ></text>
</g>
<g >
<title>[[kernel.kallsyms]] (10,101,010 samples, 0.08%)</title><rect x="600.0" y="181" width="1.0" height="15.0" fill="rgb(230,48,35)" rx="2" ry="2" />
<text  x="603.00" y="191.5" ></text>
</g>
<g >
<title>[[kernel.kallsyms]] (1,010,101,000 samples, 8.08%)</title><rect x="1094.7" y="197" width="95.3" height="15.0" fill="rgb(223,95,7)" rx="2" ry="2" />
<text  x="1097.68" y="207.5" >[[kernel.ka..</text>
</g>
<g >
<title>[[kernel.kallsyms]] (1,010,101,000 samples, 8.08%)</title><rect x="1094.7" y="165" width="95.3" height="15.0" fill="rgb(217,20,50)" rx="2" ry="2" />
<text  x="1097.68" y="175.5" >[[kernel.ka..</text>
</g>
<g >
<title>[[kernel.kallsyms]] (10,101,010 samples, 0.08%)</title><rect x="10.0" y="37" width="1.0" height="15.0" fill="rgb(251,137,13)" rx="2" ry="2" />
<text  x="13.00" y="47.5" ></text>
</g>
<g >
<title>[[kernel.kallsyms]] (10,101,010 samples, 0.08%)</title><rect x="601.0" y="117" width="0.9" height="15.0" fill="rgb(243,172,47)" rx="2" ry="2" />
<text  x="603.95" y="127.5" ></text>
</g>
<g >
<title>[[kernel.kallsyms]] (5,222,222,170 samples, 41.76%)</title><rect x="601.9" y="229" width="492.8" height="15.0" fill="rgb(248,129,41)" rx="2" ry="2" />
<text  x="604.91" y="239.5" >[[kernel.kallsyms]]</text>
</g>
<g >
<title>[[kernel.kallsyms]] (10,101,010 samples, 0.08%)</title><rect x="108.2" y="213" width="0.9" height="15.0" fill="rgb(206,174,10)" rx="2" ry="2" />
<text  x="111.17" y="223.5" ></text>
</g>
<g >
<title>pcfrac (121,212,120 samples, 0.97%)</title><rect x="97.7" y="261" width="11.4" height="15.0" fill="rgb(208,44,28)" rx="2" ry="2" />
<text  x="100.69" y="271.5" ></text>
</g>
<g >
<title>[[kernel.kallsyms]] (10,101,010 samples, 0.08%)</title><rect x="10.0" y="101" width="1.0" height="15.0" fill="rgb(249,81,45)" rx="2" ry="2" />
<text  x="13.00" y="111.5" ></text>
</g>
<g >
<title>pfree (50,505,050 samples, 0.40%)</title><rect x="594.3" y="277" width="4.7" height="15.0" fill="rgb(242,24,23)" rx="2" ry="2" />
<text  x="597.28" y="287.5" ></text>
</g>
<g >
<title>rm (10,101,010 samples, 0.08%)</title><rect x="601.0" y="293" width="0.9" height="15.0" fill="rgb(226,146,21)" rx="2" ry="2" />
<text  x="603.95" y="303.5" ></text>
</g>
<g >
<title>pcmpz (30,303,030 samples, 0.24%)</title><rect x="150.1" y="261" width="2.9" height="15.0" fill="rgb(228,211,5)" rx="2" ry="2" />
<text  x="153.11" y="271.5" ></text>
</g>
<g >
<title>[[kernel.kallsyms]] (10,101,010 samples, 0.08%)</title><rect x="10.0" y="69" width="1.0" height="15.0" fill="rgb(238,170,44)" rx="2" ry="2" />
<text  x="13.00" y="79.5" ></text>
</g>
<g >
<title>padd (10,101,010 samples, 0.08%)</title><rect x="26.2" y="245" width="1.0" height="15.0" fill="rgb(214,70,35)" rx="2" ry="2" />
<text  x="29.20" y="255.5" ></text>
</g>
</g>
</svg>
