<?xml version="1.0" standalone="no"?>
<!DOCTYPE svg PUBLIC "-//W3C//DTD SVG 1.1//EN" "http://www.w3.org/Graphics/SVG/1.1/DTD/svg11.dtd">
<svg version="1.1" width="1200" height="390" onload="init(evt)" viewBox="0 0 1200 390" xmlns="http://www.w3.org/2000/svg" xmlns:xlink="http://www.w3.org/1999/xlink">
<!-- Flame graph stack visualization. See https://github.com/brendangregg/FlameGraph for latest version, and http://www.brendangregg.com/flamegraphs.html for examples. -->
<!-- NOTES:  -->
<defs>
	<linearGradient id="background" y1="0" y2="1" x1="0" x2="0" >
		<stop stop-color="#eeeeee" offset="5%" />
		<stop stop-color="#eeeeb0" offset="95%" />
	</linearGradient>
</defs>
<style type="text/css">
	text { font-family:Verdana; font-size:12px; fill:rgb(0,0,0); }
	#search, #ignorecase { opacity:0.1; cursor:pointer; }
	#search:hover, #search.show, #ignorecase:hover, #ignorecase.show { opacity:1; }
	#subtitle { text-anchor:middle; font-color:rgb(160,160,160); }
	#title { text-anchor:middle; font-size:17px}
	#unzoom { cursor:pointer; }
	#frames > *:hover { stroke:black; stroke-width:0.5; cursor:pointer; }
	.hide { display:none; }
	.parent { opacity:0.5; }
</style>
<script type="text/ecmascript">
<![CDATA[
	"use strict";
	var details, searchbtn, unzoombtn, matchedtxt, svg, searching, currentSearchTerm, ignorecase, ignorecaseBtn;
	function init(evt) {
		details = document.getElementById("details").firstChild;
		searchbtn = document.getElementById("search");
		ignorecaseBtn = document.getElementById("ignorecase");
		unzoombtn = document.getElementById("unzoom");
		matchedtxt = document.getElementById("matched");
		svg = document.getElementsByTagName("svg")[0];
		searching = 0;
		currentSearchTerm = null;

		// use GET parameters to restore a flamegraphs state.
		var params = get_params();
		if (params.x && params.y)
			zoom(find_group(document.querySelector('[x="' + params.x + '"][y="' + params.y + '"]')));
                if (params.s) search(params.s);
	}

	// event listeners
	window.addEventListener("click", function(e) {
		var target = find_group(e.target);
		if (target) {
			if (target.nodeName == "a") {
				if (e.ctrlKey === false) return;
				e.preventDefault();
			}
			if (target.classList.contains("parent")) unzoom(true);
			zoom(target);
			if (!document.querySelector('.parent')) {
				// we have basically done a clearzoom so clear the url
				var params = get_params();
				if (params.x) delete params.x;
				if (params.y) delete params.y;
				history.replaceState(null, null, parse_params(params));
				unzoombtn.classList.add("hide");
				return;
			}

			// set parameters for zoom state
			var el = target.querySelector("rect");
			if (el && el.attributes && el.attributes.y && el.attributes._orig_x) {
				var params = get_params()
				params.x = el.attributes._orig_x.value;
				params.y = el.attributes.y.value;
				history.replaceState(null, null, parse_params(params));
			}
		}
		else if (e.target.id == "unzoom") clearzoom();
		else if (e.target.id == "search") search_prompt();
		else if (e.target.id == "ignorecase") toggle_ignorecase();
	}, false)

	// mouse-over for info
	// show
	window.addEventListener("mouseover", function(e) {
		var target = find_group(e.target);
		if (target) details.nodeValue = "Function: " + g_to_text(target);
	}, false)

	// clear
	window.addEventListener("mouseout", function(e) {
		var target = find_group(e.target);
		if (target) details.nodeValue = ' ';
	}, false)

	// ctrl-F for search
	// ctrl-I to toggle case-sensitive search
	window.addEventListener("keydown",function (e) {
		if (e.keyCode === 114 || (e.ctrlKey && e.keyCode === 70)) {
			e.preventDefault();
			search_prompt();
		}
		else if (e.ctrlKey && e.keyCode === 73) {
			e.preventDefault();
			toggle_ignorecase();
		}
	}, false)

	// functions
	function get_params() {
		var params = {};
		var paramsarr = window.location.search.substr(1).split('&');
		for (var i = 0; i < paramsarr.length; ++i) {
			var tmp = paramsarr[i].split("=");
			if (!tmp[0] || !tmp[1]) continue;
			params[tmp[0]]  = decodeURIComponent(tmp[1]);
		}
		return params;
	}
	function parse_params(params) {
		var uri = "?";
		for (var key in params) {
			uri += key + '=' + encodeURIComponent(params[key]) + '&';
		}
		if (uri.slice(-1) == "&")
			uri = uri.substring(0, uri.length - 1);
		if (uri == '?')
			uri = window.location.href.split('?')[0];
		return uri;
	}
	function find_child(node, selector) {
		var children = node.querySelectorAll(selector);
		if (children.length) return children[0];
	}
	function find_group(node) {
		var parent = node.parentElement;
		if (!parent) return;
		if (parent.id == "frames") return node;
		return find_group(parent);
	}
	function orig_save(e, attr, val) {
		if (e.attributes["_orig_" + attr] != undefined) return;
		if (e.attributes[attr] == undefined) return;
		if (val == undefined) val = e.attributes[attr].value;
		e.setAttribute("_orig_" + attr, val);
	}
	function orig_load(e, attr) {
		if (e.attributes["_orig_"+attr] == undefined) return;
		e.attributes[attr].value = e.attributes["_orig_" + attr].value;
		e.removeAttribute("_orig_"+attr);
	}
	function g_to_text(e) {
		var text = find_child(e, "title").firstChild.nodeValue;
		return (text)
	}
	function g_to_func(e) {
		var func = g_to_text(e);
		// if there's any manipulation we want to do to the function
		// name before it's searched, do it here before returning.
		return (func);
	}
	function update_text(e) {
		var r = find_child(e, "rect");
		var t = find_child(e, "text");
		var w = parseFloat(r.attributes.width.value) -3;
		var txt = find_child(e, "title").textContent.replace(/\([^(]*\)$/,"");
		t.attributes.x.value = parseFloat(r.attributes.x.value) + 3;

		// Smaller than this size won't fit anything
		if (w < 2 * 12 * 0.59) {
			t.textContent = "";
			return;
		}

		t.textContent = txt;
		var sl = t.getSubStringLength(0, txt.length);
		// check if only whitespace or if we can fit the entire string into width w
		if (/^ *$/.test(txt) || sl < w)
			return;

		// this isn't perfect, but gives a good starting point
		// and avoids calling getSubStringLength too often
		var start = Math.floor((w/sl) * txt.length);
		for (var x = start; x > 0; x = x-2) {
			if (t.getSubStringLength(0, x + 2) <= w) {
				t.textContent = txt.substring(0, x) + "..";
				return;
			}
		}
		t.textContent = "";
	}

	// zoom
	function zoom_reset(e) {
		if (e.attributes != undefined) {
			orig_load(e, "x");
			orig_load(e, "width");
		}
		if (e.childNodes == undefined) return;
		for (var i = 0, c = e.childNodes; i < c.length; i++) {
			zoom_reset(c[i]);
		}
	}
	function zoom_child(e, x, ratio) {
		if (e.attributes != undefined) {
			if (e.attributes.x != undefined) {
				orig_save(e, "x");
				e.attributes.x.value = (parseFloat(e.attributes.x.value) - x - 10) * ratio + 10;
				if (e.tagName == "text")
					e.attributes.x.value = find_child(e.parentNode, "rect[x]").attributes.x.value + 3;
			}
			if (e.attributes.width != undefined) {
				orig_save(e, "width");
				e.attributes.width.value = parseFloat(e.attributes.width.value) * ratio;
			}
		}

		if (e.childNodes == undefined) return;
		for (var i = 0, c = e.childNodes; i < c.length; i++) {
			zoom_child(c[i], x - 10, ratio);
		}
	}
	function zoom_parent(e) {
		if (e.attributes) {
			if (e.attributes.x != undefined) {
				orig_save(e, "x");
				e.attributes.x.value = 10;
			}
			if (e.attributes.width != undefined) {
				orig_save(e, "width");
				e.attributes.width.value = parseInt(svg.width.baseVal.value) - (10 * 2);
			}
		}
		if (e.childNodes == undefined) return;
		for (var i = 0, c = e.childNodes; i < c.length; i++) {
			zoom_parent(c[i]);
		}
	}
	function zoom(node) {
		var attr = find_child(node, "rect").attributes;
		var width = parseFloat(attr.width.value);
		var xmin = parseFloat(attr.x.value);
		var xmax = parseFloat(xmin + width);
		var ymin = parseFloat(attr.y.value);
		var ratio = (svg.width.baseVal.value - 2 * 10) / width;

		// XXX: Workaround for JavaScript float issues (fix me)
		var fudge = 0.0001;

		unzoombtn.classList.remove("hide");

		var el = document.getElementById("frames").children;
		for (var i = 0; i < el.length; i++) {
			var e = el[i];
			var a = find_child(e, "rect").attributes;
			var ex = parseFloat(a.x.value);
			var ew = parseFloat(a.width.value);
			var upstack;
			// Is it an ancestor
			if (0 == 0) {
				upstack = parseFloat(a.y.value) > ymin;
			} else {
				upstack = parseFloat(a.y.value) < ymin;
			}
			if (upstack) {
				// Direct ancestor
				if (ex <= xmin && (ex+ew+fudge) >= xmax) {
					e.classList.add("parent");
					zoom_parent(e);
					update_text(e);
				}
				// not in current path
				else
					e.classList.add("hide");
			}
			// Children maybe
			else {
				// no common path
				if (ex < xmin || ex + fudge >= xmax) {
					e.classList.add("hide");
				}
				else {
					zoom_child(e, xmin, ratio);
					update_text(e);
				}
			}
		}
		search();
	}
	function unzoom(dont_update_text) {
		unzoombtn.classList.add("hide");
		var el = document.getElementById("frames").children;
		for(var i = 0; i < el.length; i++) {
			el[i].classList.remove("parent");
			el[i].classList.remove("hide");
			zoom_reset(el[i]);
			if(!dont_update_text) update_text(el[i]);
		}
		search();
	}
	function clearzoom() {
		unzoom();

		// remove zoom state
		var params = get_params();
		if (params.x) delete params.x;
		if (params.y) delete params.y;
		history.replaceState(null, null, parse_params(params));
	}

	// search
	function toggle_ignorecase() {
		ignorecase = !ignorecase;
		if (ignorecase) {
			ignorecaseBtn.classList.add("show");
		} else {
			ignorecaseBtn.classList.remove("show");
		}
		reset_search();
		search();
	}
	function reset_search() {
		var el = document.querySelectorAll("#frames rect");
		for (var i = 0; i < el.length; i++) {
			orig_load(el[i], "fill")
		}
		var params = get_params();
		delete params.s;
		history.replaceState(null, null, parse_params(params));
	}
	function search_prompt() {
		if (!searching) {
			var term = prompt("Enter a search term (regexp " +
			    "allowed, eg: ^ext4_)"
			    + (ignorecase ? ", ignoring case" : "")
			    + "\nPress Ctrl-i to toggle case sensitivity", "");
			if (term != null) search(term);
		} else {
			reset_search();
			searching = 0;
			currentSearchTerm = null;
			searchbtn.classList.remove("show");
			searchbtn.firstChild.nodeValue = "Search"
			matchedtxt.classList.add("hide");
			matchedtxt.firstChild.nodeValue = ""
		}
	}
	function search(term) {
		if (term) currentSearchTerm = term;

		var re = new RegExp(currentSearchTerm, ignorecase ? 'i' : '');
		var el = document.getElementById("frames").children;
		var matches = new Object();
		var maxwidth = 0;
		for (var i = 0; i < el.length; i++) {
			var e = el[i];
			var func = g_to_func(e);
			var rect = find_child(e, "rect");
			if (func == null || rect == null)
				continue;

			// Save max width. Only works as we have a root frame
			var w = parseFloat(rect.attributes.width.value);
			if (w > maxwidth)
				maxwidth = w;

			if (func.match(re)) {
				// highlight
				var x = parseFloat(rect.attributes.x.value);
				orig_save(rect, "fill");
				rect.attributes.fill.value = "rgb(230,0,230)";

				// remember matches
				if (matches[x] == undefined) {
					matches[x] = w;
				} else {
					if (w > matches[x]) {
						// overwrite with parent
						matches[x] = w;
					}
				}
				searching = 1;
			}
		}
		if (!searching)
			return;
		var params = get_params();
		params.s = currentSearchTerm;
		history.replaceState(null, null, parse_params(params));

		searchbtn.classList.add("show");
		searchbtn.firstChild.nodeValue = "Reset Search";

		// calculate percent matched, excluding vertical overlap
		var count = 0;
		var lastx = -1;
		var lastw = 0;
		var keys = Array();
		for (k in matches) {
			if (matches.hasOwnProperty(k))
				keys.push(k);
		}
		// sort the matched frames by their x location
		// ascending, then width descending
		keys.sort(function(a, b){
			return a - b;
		});
		// Step through frames saving only the biggest bottom-up frames
		// thanks to the sort order. This relies on the tree property
		// where children are always smaller than their parents.
		var fudge = 0.0001;	// JavaScript floating point
		for (var k in keys) {
			var x = parseFloat(keys[k]);
			var w = matches[keys[k]];
			if (x >= lastx + lastw - fudge) {
				count += w;
				lastx = x;
				lastw = w;
			}
		}
		// display matched percent
		matchedtxt.classList.remove("hide");
		var pct = 100 * count / maxwidth;
		if (pct != 100) pct = pct.toFixed(1)
		matchedtxt.firstChild.nodeValue = "Matched: " + pct + "%";
	}
]]>
</script>
<rect x="0.0" y="0" width="1200.0" height="390.0" fill="url(#background)"  />
<text id="title" x="600.00" y="24" >Flame Graph</text>
<text id="details" x="10.00" y="373" > </text>
<text id="unzoom" x="10.00" y="24" class="hide">Reset Zoom</text>
<text id="search" x="1090.00" y="24" >Search</text>
<text id="ignorecase" x="1174.00" y="24" >ic</text>
<text id="matched" x="1090.00" y="373" > </text>
<g id="frames">
<g >
<title>psub (212,121,210 samples, 1.66%)</title><rect x="451.3" y="293" width="19.7" height="15.0" fill="rgb(205,20,16)" rx="2" ry="2" />
<text  x="454.33" y="303.5" ></text>
</g>
<g >
<title>irq_exit_rcu (20,202,020 samples, 0.16%)</title><rect x="1187.2" y="101" width="1.9" height="15.0" fill="rgb(243,170,30)" rx="2" ry="2" />
<text  x="1190.19" y="111.5" ></text>
</g>
<g >
<title>tcmalloc::tcmalloc_internal::huge_page_allocator_internal::HugePageAwareAllocator&lt;tcmalloc::tcmalloc_internal::huge_page_allocator_internal::StaticForwarder&gt;::New (10,101,010 samples, 0.08%)</title><rect x="503.7" y="245" width="0.9" height="15.0" fill="rgb(223,207,17)" rx="2" ry="2" />
<text  x="506.69" y="255.5" ></text>
</g>
<g >
<title>__memset_avx2_unaligned_erms (30,303,030 samples, 0.24%)</title><rect x="28.7" y="293" width="2.8" height="15.0" fill="rgb(233,80,6)" rx="2" ry="2" />
<text  x="31.70" y="303.5" ></text>
</g>
<g >
<title>pidiv (272,727,270 samples, 2.14%)</title><rect x="201.7" y="293" width="25.2" height="15.0" fill="rgb(242,213,28)" rx="2" ry="2" />
<text  x="204.68" y="303.5" >p..</text>
</g>
<g >
<title>exc_page_fault (10,101,010 samples, 0.08%)</title><rect x="1189.1" y="229" width="0.9" height="15.0" fill="rgb(248,141,5)" rx="2" ry="2" />
<text  x="1192.06" y="239.5" ></text>
</g>
<g >
<title>__raw_callee_save___pv_queued_spin_unlock (10,101,010 samples, 0.08%)</title><rect x="1189.1" y="133" width="0.9" height="15.0" fill="rgb(215,66,20)" rx="2" ry="2" />
<text  x="1192.06" y="143.5" ></text>
</g>
<g >
<title>rest_init (2,696,969,670 samples, 21.16%)</title><rect x="939.4" y="229" width="249.7" height="15.0" fill="rgb(244,79,10)" rx="2" ry="2" />
<text  x="942.41" y="239.5" >rest_init</text>
</g>
<g >
<title>tcmalloc::tcmalloc_internal::cpu_cache_internal::CpuCache&lt;tcmalloc::tcmalloc_internal::cpu_cache_internal::StaticForwarder&gt;::Deallocate (10,101,010 samples, 0.08%)</title><rect x="84.8" y="261" width="0.9" height="15.0" fill="rgb(231,188,5)" rx="2" ry="2" />
<text  x="87.80" y="271.5" ></text>
</g>
<g >
<title>rebalance_domains (10,101,010 samples, 0.08%)</title><rect x="1188.1" y="53" width="1.0" height="15.0" fill="rgb(222,115,3)" rx="2" ry="2" />
<text  x="1191.13" y="63.5" ></text>
</g>
<g >
<title>filemap_map_pages (10,101,010 samples, 0.08%)</title><rect x="1189.1" y="149" width="0.9" height="15.0" fill="rgb(216,156,12)" rx="2" ry="2" />
<text  x="1192.06" y="159.5" ></text>
</g>
<g >
<title>TCMallocInternalDeleteArrayAlignedNothrow (30,303,030 samples, 0.24%)</title><rect x="10.0" y="309" width="2.8" height="15.0" fill="rgb(242,87,44)" rx="2" ry="2" />
<text  x="13.00" y="319.5" ></text>
</g>
<g >
<title>__handle_mm_fault (10,101,010 samples, 0.08%)</title><rect x="1189.1" y="181" width="0.9" height="15.0" fill="rgb(252,150,12)" rx="2" ry="2" />
<text  x="1192.06" y="191.5" ></text>
</g>
<g >
<title>cpu_startup_entry (3,666,666,630 samples, 28.76%)</title><rect x="600.0" y="277" width="339.4" height="15.0" fill="rgb(237,217,51)" rx="2" ry="2" />
<text  x="603.00" y="287.5" >cpu_startup_entry</text>
</g>
<g >
<title>rcu_do_batch (10,101,010 samples, 0.08%)</title><rect x="580.4" y="197" width="0.9" height="15.0" fill="rgb(212,66,17)" rx="2" ry="2" />
<text  x="583.36" y="207.5" ></text>
</g>
<g >
<title>pcmpz (40,404,040 samples, 0.32%)</title><rect x="116.6" y="293" width="3.7" height="15.0" fill="rgb(208,152,16)" rx="2" ry="2" />
<text  x="119.59" y="303.5" ></text>
</g>
<g >
<title>vm_mmap_pgoff (10,101,010 samples, 0.08%)</title><rect x="596.3" y="229" width="0.9" height="15.0" fill="rgb(240,114,18)" rx="2" ry="2" />
<text  x="599.26" y="239.5" ></text>
</g>
<g >
<title>entry_SYSCALL_64_after_hwframe (10,101,010 samples, 0.08%)</title><rect x="596.3" y="293" width="0.9" height="15.0" fill="rgb(244,26,40)" rx="2" ry="2" />
<text  x="599.26" y="303.5" ></text>
</g>
<g >
<title>pcfrac (141,414,140 samples, 1.11%)</title><rect x="72.6" y="293" width="13.1" height="15.0" fill="rgb(253,36,17)" rx="2" ry="2" />
<text  x="75.65" y="303.5" ></text>
</g>
<g >
<title>[unknown] (4,888,888,840 samples, 38.35%)</title><rect x="18.4" y="309" width="452.6" height="15.0" fill="rgb(232,154,18)" rx="2" ry="2" />
<text  x="21.42" y="319.5" >[unknown]</text>
</g>
<g >
<title>start_secondary (3,666,666,630 samples, 28.76%)</title><rect x="600.0" y="293" width="339.4" height="15.0" fill="rgb(238,38,18)" rx="2" ry="2" />
<text  x="603.00" y="303.5" >start_secondary</text>
</g>
<g >
<title>mmap_region (10,101,010 samples, 0.08%)</title><rect x="596.3" y="197" width="0.9" height="15.0" fill="rgb(243,133,53)" rx="2" ry="2" />
<text  x="599.26" y="207.5" ></text>
</g>
<g >
<title>x86_64_start_reservations (2,696,969,670 samples, 21.16%)</title><rect x="939.4" y="277" width="249.7" height="15.0" fill="rgb(223,30,11)" rx="2" ry="2" />
<text  x="942.41" y="287.5" >x86_64_start_reservations</text>
</g>
<g >
<title>TCMallocInternalDeleteArrayAlignedNothrow (141,414,140 samples, 1.11%)</title><rect x="583.2" y="293" width="13.1" height="15.0" fill="rgb(221,134,13)" rx="2" ry="2" />
<text  x="586.17" y="303.5" ></text>
</g>
<g >
<title>asm_sysvec_hyperv_stimer0 (20,202,020 samples, 0.16%)</title><rect x="1187.2" y="133" width="1.9" height="15.0" fill="rgb(253,180,43)" rx="2" ry="2" />
<text  x="1190.19" y="143.5" ></text>
</g>
<g >
<title>palloc (383,838,380 samples, 3.01%)</title><rect x="37.1" y="293" width="35.5" height="15.0" fill="rgb(214,133,19)" rx="2" ry="2" />
<text  x="40.12" y="303.5" >pal..</text>
</g>
<g >
<title>__cpuidle_text_start (2,696,969,670 samples, 21.16%)</title><rect x="939.4" y="149" width="249.7" height="15.0" fill="rgb(253,153,46)" rx="2" ry="2" />
<text  x="942.41" y="159.5" >__cpuidle_text_start</text>
</g>
<g >
<title>all (12,747,474,620 samples, 100%)</title><rect x="10.0" y="341" width="1180.0" height="15.0" fill="rgb(214,122,16)" rx="2" ry="2" />
<text  x="13.00" y="351.5" ></text>
</g>
<g >
<title>rcu_core_si (10,101,010 samples, 0.08%)</title><rect x="580.4" y="229" width="0.9" height="15.0" fill="rgb(215,155,24)" rx="2" ry="2" />
<text  x="583.36" y="239.5" ></text>
</g>
<g >
<title>__cpuidle_text_start (3,666,666,630 samples, 28.76%)</title><rect x="600.0" y="213" width="339.4" height="15.0" fill="rgb(237,163,1)" rx="2" ry="2" />
<text  x="603.00" y="223.5" >__cpuidle_text_start</text>
</g>
<g >
<title>pfree (161,616,160 samples, 1.27%)</title><rect x="581.3" y="309" width="15.0" height="15.0" fill="rgb(226,179,30)" rx="2" ry="2" />
<text  x="584.30" y="319.5" ></text>
</g>
<g >
<title>pfree (313,131,310 samples, 2.46%)</title><rect x="170.8" y="293" width="29.0" height="15.0" fill="rgb(230,184,22)" rx="2" ry="2" />
<text  x="173.82" y="303.5" >pf..</text>
</g>
<g >
<title>TCMallocInternalDeleteArrayAlignedNothrow (40,404,040 samples, 0.32%)</title><rect x="18.4" y="293" width="3.8" height="15.0" fill="rgb(238,60,29)" rx="2" ry="2" />
<text  x="21.42" y="303.5" ></text>
</g>
<g >
<title>asm_exc_page_fault (10,101,010 samples, 0.08%)</title><rect x="1189.1" y="245" width="0.9" height="15.0" fill="rgb(205,55,46)" rx="2" ry="2" />
<text  x="1192.06" y="255.5" ></text>
</g>
<g >
<title>sysvec_hyperv_stimer0 (20,202,020 samples, 0.16%)</title><rect x="1187.2" y="117" width="1.9" height="15.0" fill="rgb(222,33,5)" rx="2" ry="2" />
<text  x="1190.19" y="127.5" ></text>
</g>
<g >
<title>tcmalloc::tcmalloc_internal::SampleifyAllocation&lt;tcmalloc::tcmalloc_internal::Static, tcmalloc::tcmalloc_internal::TCMallocPolicy&lt;tcmalloc::tcmalloc_internal::MallocOomPolicy, tcmalloc::tcmalloc_internal::MallocAlignPolicy, tcmalloc::tcmalloc_internal::AllocationAccessHotPolicy, tcmalloc::tcmalloc_internal::InvokeHooksPolicy, tcmalloc::tcmalloc_internal::NonSizeReturningPolicy, tcmalloc::tcmalloc_internal::LocalNumaPartitionPolicy&gt; &gt; (10,101,010 samples, 0.08%)</title><rect x="503.7" y="261" width="0.9" height="15.0" fill="rgb(243,136,0)" rx="2" ry="2" />
<text  x="506.69" y="271.5" ></text>
</g>
<g >
<title>__mmap (10,101,010 samples, 0.08%)</title><rect x="596.3" y="309" width="0.9" height="15.0" fill="rgb(232,113,12)" rx="2" ry="2" />
<text  x="599.26" y="319.5" ></text>
</g>
<g >
<title>pmul (212,121,210 samples, 1.66%)</title><rect x="429.8" y="293" width="19.7" height="15.0" fill="rgb(208,49,14)" rx="2" ry="2" />
<text  x="432.83" y="303.5" ></text>
</g>
<g >
<title>podd (20,202,020 samples, 0.16%)</title><rect x="449.5" y="293" width="1.8" height="15.0" fill="rgb(229,89,54)" rx="2" ry="2" />
<text  x="452.46" y="303.5" ></text>
</g>
<g >
<title>pthread_cond_broadcast@@GLIBC_2.3.2 (10,101,010 samples, 0.08%)</title><rect x="598.1" y="309" width="1.0" height="15.0" fill="rgb(208,200,51)" rx="2" ry="2" />
<text  x="601.13" y="319.5" ></text>
</g>
<g >
<title>__softirqentry_text_start (20,202,020 samples, 0.16%)</title><rect x="1187.2" y="85" width="1.9" height="15.0" fill="rgb(254,28,49)" rx="2" ry="2" />
<text  x="1190.19" y="95.5" ></text>
</g>
<g >
<title>__x64_sys_futex (10,101,010 samples, 0.08%)</title><rect x="598.1" y="261" width="1.0" height="15.0" fill="rgb(233,149,39)" rx="2" ry="2" />
<text  x="601.13" y="271.5" ></text>
</g>
<g >
<title>cpu_startup_entry (2,696,969,670 samples, 21.16%)</title><rect x="939.4" y="213" width="249.7" height="15.0" fill="rgb(254,219,34)" rx="2" ry="2" />
<text  x="942.41" y="223.5" >cpu_startup_entry</text>
</g>
<g >
<title>__softirqentry_text_start (10,101,010 samples, 0.08%)</title><rect x="580.4" y="245" width="0.9" height="15.0" fill="rgb(240,124,44)" rx="2" ry="2" />
<text  x="583.36" y="255.5" ></text>
</g>
<g >
<title>ret_from_fork (10,101,010 samples, 0.08%)</title><rect x="597.2" y="309" width="0.9" height="15.0" fill="rgb(217,7,47)" rx="2" ry="2" />
<text  x="600.19" y="319.5" ></text>
</g>
<g >
<title>arch_cpu_idle (3,666,666,630 samples, 28.76%)</title><rect x="600.0" y="229" width="339.4" height="15.0" fill="rgb(229,103,2)" rx="2" ry="2" />
<text  x="603.00" y="239.5" >arch_cpu_idle</text>
</g>
<g >
<title>pfactorQ (252,525,250 samples, 1.98%)</title><rect x="147.4" y="293" width="23.4" height="15.0" fill="rgb(226,113,8)" rx="2" ry="2" />
<text  x="150.45" y="303.5" >p..</text>
</g>
<g >
<title>pdivmod (828,282,820 samples, 6.50%)</title><rect x="504.6" y="309" width="76.7" height="15.0" fill="rgb(213,113,14)" rx="2" ry="2" />
<text  x="507.63" y="319.5" >pdivmod</text>
</g>
<g >
<title>process_one_work (10,101,010 samples, 0.08%)</title><rect x="597.2" y="261" width="0.9" height="15.0" fill="rgb(253,6,18)" rx="2" ry="2" />
<text  x="600.19" y="271.5" ></text>
</g>
<g >
<title>[cfrac] (70,707,070 samples, 0.55%)</title><rect x="22.2" y="293" width="6.5" height="15.0" fill="rgb(214,115,11)" rx="2" ry="2" />
<text  x="25.16" y="303.5" ></text>
</g>
<g >
<title>tcmalloc::tcmalloc_internal::central_freelist_internal::CentralFreeList&lt;tcmalloc::tcmalloc_internal::central_freelist_internal::StaticForwarder&gt;::InsertRange (10,101,010 samples, 0.08%)</title><rect x="84.8" y="229" width="0.9" height="15.0" fill="rgb(240,222,23)" rx="2" ry="2" />
<text  x="87.80" y="239.5" ></text>
</g>
<g >
<title>do_syscall_64 (10,101,010 samples, 0.08%)</title><rect x="598.1" y="277" width="1.0" height="15.0" fill="rgb(227,98,51)" rx="2" ry="2" />
<text  x="601.13" y="287.5" ></text>
</g>
<g >
<title>memmove (10,101,010 samples, 0.08%)</title><rect x="1189.1" y="261" width="0.9" height="15.0" fill="rgb(224,146,54)" rx="2" ry="2" />
<text  x="1192.06" y="271.5" ></text>
</g>
<g >
<title>arch_cpu_idle (2,696,969,670 samples, 21.16%)</title><rect x="939.4" y="165" width="249.7" height="15.0" fill="rgb(241,34,48)" rx="2" ry="2" />
<text  x="942.41" y="175.5" >arch_cpu_idle</text>
</g>
<g >
<title>sysvec_hyperv_stimer0 (10,101,010 samples, 0.08%)</title><rect x="580.4" y="277" width="0.9" height="15.0" fill="rgb(248,83,14)" rx="2" ry="2" />
<text  x="583.36" y="287.5" ></text>
</g>
<g >
<title>secondary_startup_64_no_verify (6,363,636,300 samples, 49.92%)</title><rect x="600.0" y="309" width="589.1" height="15.0" fill="rgb(207,38,43)" rx="2" ry="2" />
<text  x="603.00" y="319.5" >secondary_startup_64_no_verify</text>
</g>
<g >
<title>pimod (2,191,919,170 samples, 17.19%)</title><rect x="226.9" y="293" width="202.9" height="15.0" fill="rgb(207,181,41)" rx="2" ry="2" />
<text  x="229.93" y="303.5" >pimod</text>
</g>
<g >
<title>PyObject_GetAttr (10,101,010 samples, 0.08%)</title><rect x="599.1" y="293" width="0.9" height="15.0" fill="rgb(208,70,39)" rx="2" ry="2" />
<text  x="602.06" y="303.5" ></text>
</g>
<g >
<title>dirname (10,101,010 samples, 0.08%)</title><rect x="596.3" y="325" width="0.9" height="15.0" fill="rgb(226,20,48)" rx="2" ry="2" />
<text  x="599.26" y="335.5" ></text>
</g>
<g >
<title>run_rebalance_domains (10,101,010 samples, 0.08%)</title><rect x="1188.1" y="69" width="1.0" height="15.0" fill="rgb(253,226,17)" rx="2" ry="2" />
<text  x="1191.13" y="79.5" ></text>
</g>
<g >
<title>_dl_sysdep_start (10,101,010 samples, 0.08%)</title><rect x="1189.1" y="293" width="0.9" height="15.0" fill="rgb(227,163,19)" rx="2" ry="2" />
<text  x="1192.06" y="303.5" ></text>
</g>
<g >
<title>[unknown] (10,101,010 samples, 0.08%)</title><rect x="599.1" y="309" width="0.9" height="15.0" fill="rgb(229,219,30)" rx="2" ry="2" />
<text  x="602.06" y="319.5" ></text>
</g>
<g >
<title>default_idle_call (2,696,969,670 samples, 21.16%)</title><rect x="939.4" y="181" width="249.7" height="15.0" fill="rgb(222,39,9)" rx="2" ry="2" />
<text  x="942.41" y="191.5" >default_idle_call</text>
</g>
<g >
<title>kworker/0:0-eve (10,101,010 samples, 0.08%)</title><rect x="597.2" y="325" width="0.9" height="15.0" fill="rgb(246,43,37)" rx="2" ry="2" />
<text  x="600.19" y="335.5" ></text>
</g>
<g >
<title>tcmalloc::tcmalloc_internal::cpu_cache_internal::CpuCache&lt;tcmalloc::tcmalloc_internal::cpu_cache_internal::StaticForwarder&gt;::Overflow (10,101,010 samples, 0.08%)</title><rect x="84.8" y="245" width="0.9" height="15.0" fill="rgb(245,66,3)" rx="2" ry="2" />
<text  x="87.80" y="255.5" ></text>
</g>
<g >
<title>padd (50,505,050 samples, 0.40%)</title><rect x="32.4" y="293" width="4.7" height="15.0" fill="rgb(241,150,21)" rx="2" ry="2" />
<text  x="35.44" y="303.5" ></text>
</g>
<g >
<title>dl_main (10,101,010 samples, 0.08%)</title><rect x="1189.1" y="277" width="0.9" height="15.0" fill="rgb(250,205,31)" rx="2" ry="2" />
<text  x="1192.06" y="287.5" ></text>
</g>
<g >
<title>kthread (10,101,010 samples, 0.08%)</title><rect x="597.2" y="293" width="0.9" height="15.0" fill="rgb(214,151,31)" rx="2" ry="2" />
<text  x="600.19" y="303.5" ></text>
</g>
<g >
<title>entry_SYSCALL_64_after_hwframe (10,101,010 samples, 0.08%)</title><rect x="598.1" y="293" width="1.0" height="15.0" fill="rgb(211,22,23)" rx="2" ry="2" />
<text  x="601.13" y="303.5" ></text>
</g>
<g >
<title>slow_alloc&lt;tcmalloc::tcmalloc_internal::TCMallocPolicy&lt;tcmalloc::tcmalloc_internal::MallocOomPolicy, tcmalloc::tcmalloc_internal::MallocAlignPolicy, tcmalloc::tcmalloc_internal::AllocationAccessHotPolicy, tcmalloc::tcmalloc_internal::InvokeHooksPolicy, tcmalloc::tcmalloc_internal::NonSizeReturningPolicy, tcmalloc::tcmalloc_internal::LocalNumaPartitionPolicy&gt;, decltype (10,101,010 samples, 0.08%)</title><rect x="503.7" y="277" width="0.9" height="15.0" fill="rgb(234,30,32)" rx="2" ry="2" />
<text  x="506.69" y="287.5" ></text>
</g>
<g >
<title>picmp (10,101,010 samples, 0.08%)</title><rect x="200.7" y="293" width="1.0" height="15.0" fill="rgb(225,148,2)" rx="2" ry="2" />
<text  x="203.74" y="303.5" ></text>
</g>
<g >
<title>irq_exit_rcu (10,101,010 samples, 0.08%)</title><rect x="580.4" y="261" width="0.9" height="15.0" fill="rgb(208,125,25)" rx="2" ry="2" />
<text  x="583.36" y="271.5" ></text>
</g>
<g >
<title>newSoln (10,101,010 samples, 0.08%)</title><rect x="31.5" y="293" width="0.9" height="15.0" fill="rgb(214,30,54)" rx="2" ry="2" />
<text  x="34.51" y="303.5" ></text>
</g>
<g >
<title>palloc (363,636,360 samples, 2.85%)</title><rect x="471.0" y="309" width="33.6" height="15.0" fill="rgb(249,129,18)" rx="2" ry="2" />
<text  x="473.97" y="319.5" >pa..</text>
</g>
<g >
<title>__x64_sys_mmap (10,101,010 samples, 0.08%)</title><rect x="596.3" y="261" width="0.9" height="15.0" fill="rgb(208,192,51)" rx="2" ry="2" />
<text  x="599.26" y="271.5" ></text>
</g>
<g >
<title>rcu_core (10,101,010 samples, 0.08%)</title><rect x="1187.2" y="53" width="0.9" height="15.0" fill="rgb(244,221,3)" rx="2" ry="2" />
<text  x="1190.19" y="63.5" ></text>
</g>
<g >
<title>python3 (10,101,010 samples, 0.08%)</title><rect x="599.1" y="325" width="0.9" height="15.0" fill="rgb(243,119,51)" rx="2" ry="2" />
<text  x="602.06" y="335.5" ></text>
</g>
<g >
<title>do_fault (10,101,010 samples, 0.08%)</title><rect x="1189.1" y="165" width="0.9" height="15.0" fill="rgb(217,156,50)" rx="2" ry="2" />
<text  x="1192.06" y="175.5" ></text>
</g>
<g >
<title>load_balance (10,101,010 samples, 0.08%)</title><rect x="1188.1" y="37" width="1.0" height="15.0" fill="rgb(213,206,51)" rx="2" ry="2" />
<text  x="1191.13" y="47.5" ></text>
</g>
<g >
<title>phalf (10,101,010 samples, 0.08%)</title><rect x="199.8" y="293" width="0.9" height="15.0" fill="rgb(214,213,35)" rx="2" ry="2" />
<text  x="202.81" y="303.5" ></text>
</g>
<g >
<title>[unknown] (10,101,010 samples, 0.08%)</title><rect x="1189.1" y="309" width="0.9" height="15.0" fill="rgb(229,161,49)" rx="2" ry="2" />
<text  x="1192.06" y="319.5" ></text>
</g>
<g >
<title>handle_mm_fault (10,101,010 samples, 0.08%)</title><rect x="1189.1" y="197" width="0.9" height="15.0" fill="rgb(221,192,40)" rx="2" ry="2" />
<text  x="1192.06" y="207.5" ></text>
</g>
<g >
<title>up_write (10,101,010 samples, 0.08%)</title><rect x="596.3" y="181" width="0.9" height="15.0" fill="rgb(228,189,20)" rx="2" ry="2" />
<text  x="599.26" y="191.5" ></text>
</g>
<g >
<title>pdivmod (292,929,290 samples, 2.30%)</title><rect x="120.3" y="293" width="27.1" height="15.0" fill="rgb(245,161,0)" rx="2" ry="2" />
<text  x="123.33" y="303.5" >p..</text>
</g>
<g >
<title>start_kernel (2,696,969,670 samples, 21.16%)</title><rect x="939.4" y="261" width="249.7" height="15.0" fill="rgb(216,156,45)" rx="2" ry="2" />
<text  x="942.41" y="271.5" >start_kernel</text>
</g>
<g >
<title>x86_64_start_kernel (2,696,969,670 samples, 21.16%)</title><rect x="939.4" y="293" width="249.7" height="15.0" fill="rgb(233,34,19)" rx="2" ry="2" />
<text  x="942.41" y="303.5" >x86_64_start_kernel</text>
</g>
<g >
<title>ksys_mmap_pgoff (10,101,010 samples, 0.08%)</title><rect x="596.3" y="245" width="0.9" height="15.0" fill="rgb(253,210,5)" rx="2" ry="2" />
<text  x="599.26" y="255.5" ></text>
</g>
<g >
<title>do_user_addr_fault (10,101,010 samples, 0.08%)</title><rect x="1189.1" y="213" width="0.9" height="15.0" fill="rgb(248,89,36)" rx="2" ry="2" />
<text  x="1192.06" y="223.5" ></text>
</g>
<g >
<title>do_idle (2,696,969,670 samples, 21.16%)</title><rect x="939.4" y="197" width="249.7" height="15.0" fill="rgb(246,180,0)" rx="2" ry="2" />
<text  x="942.41" y="207.5" >do_idle</text>
</g>
<g >
<title>do_syscall_64 (10,101,010 samples, 0.08%)</title><rect x="596.3" y="277" width="0.9" height="15.0" fill="rgb(225,22,41)" rx="2" ry="2" />
<text  x="599.26" y="287.5" ></text>
</g>
<g >
<title>worker_thread (10,101,010 samples, 0.08%)</title><rect x="597.2" y="277" width="0.9" height="15.0" fill="rgb(205,167,34)" rx="2" ry="2" />
<text  x="600.19" y="287.5" ></text>
</g>
<g >
<title>TCMallocInternalDeleteArrayAlignedNothrow (10,101,010 samples, 0.08%)</title><rect x="84.8" y="277" width="0.9" height="15.0" fill="rgb(243,70,52)" rx="2" ry="2" />
<text  x="87.80" y="287.5" ></text>
</g>
<g >
<title>TCMallocInternalMalloc (292,929,290 samples, 2.30%)</title><rect x="477.5" y="293" width="27.1" height="15.0" fill="rgb(236,8,50)" rx="2" ry="2" />
<text  x="480.51" y="303.5" >T..</text>
</g>
<g >
<title>TCMallocInternalMalloc (10,101,010 samples, 0.08%)</title><rect x="12.8" y="309" width="0.9" height="15.0" fill="rgb(231,123,20)" rx="2" ry="2" />
<text  x="15.81" y="319.5" ></text>
</g>
<g >
<title>swapper (6,363,636,300 samples, 49.92%)</title><rect x="600.0" y="325" width="589.1" height="15.0" fill="rgb(211,72,15)" rx="2" ry="2" />
<text  x="603.00" y="335.5" >swapper</text>
</g>
<g >
<title>multipathd (10,101,010 samples, 0.08%)</title><rect x="598.1" y="325" width="1.0" height="15.0" fill="rgb(233,125,15)" rx="2" ry="2" />
<text  x="601.13" y="335.5" ></text>
</g>
<g >
<title>rcu_core (10,101,010 samples, 0.08%)</title><rect x="580.4" y="213" width="0.9" height="15.0" fill="rgb(245,137,25)" rx="2" ry="2" />
<text  x="583.36" y="223.5" ></text>
</g>
<g >
<title>do_mmap (10,101,010 samples, 0.08%)</title><rect x="596.3" y="213" width="0.9" height="15.0" fill="rgb(253,174,34)" rx="2" ry="2" />
<text  x="599.26" y="223.5" ></text>
</g>
<g >
<title>do_idle (3,666,666,630 samples, 28.76%)</title><rect x="600.0" y="261" width="339.4" height="15.0" fill="rgb(252,177,33)" rx="2" ry="2" />
<text  x="603.00" y="271.5" >do_idle</text>
</g>
<g >
<title>TCMallocInternalDeleteArrayAlignedNothrow (262,626,260 samples, 2.06%)</title><rect x="175.5" y="277" width="24.3" height="15.0" fill="rgb(249,5,8)" rx="2" ry="2" />
<text  x="178.50" y="287.5" >T..</text>
</g>
<g >
<title>rcu_segcblist_ready_cbs (10,101,010 samples, 0.08%)</title><rect x="580.4" y="181" width="0.9" height="15.0" fill="rgb(244,118,19)" rx="2" ry="2" />
<text  x="583.36" y="191.5" ></text>
</g>
<g >
<title>rcu_core_si (10,101,010 samples, 0.08%)</title><rect x="1187.2" y="69" width="0.9" height="15.0" fill="rgb(248,168,27)" rx="2" ry="2" />
<text  x="1190.19" y="79.5" ></text>
</g>
<g >
<title>do_futex (10,101,010 samples, 0.08%)</title><rect x="598.1" y="245" width="1.0" height="15.0" fill="rgb(213,132,11)" rx="2" ry="2" />
<text  x="601.13" y="255.5" ></text>
</g>
<g >
<title>arch_call_rest_init (2,696,969,670 samples, 21.16%)</title><rect x="939.4" y="245" width="249.7" height="15.0" fill="rgb(246,36,16)" rx="2" ry="2" />
<text  x="942.41" y="255.5" >arch_call_rest_init</text>
</g>
<g >
<title>pcmp (333,333,330 samples, 2.61%)</title><rect x="85.7" y="293" width="30.9" height="15.0" fill="rgb(251,217,43)" rx="2" ry="2" />
<text  x="88.74" y="303.5" >pcmp</text>
</g>
<g >
<title>asm_sysvec_hyperv_stimer0 (10,101,010 samples, 0.08%)</title><rect x="580.4" y="293" width="0.9" height="15.0" fill="rgb(206,69,48)" rx="2" ry="2" />
<text  x="583.36" y="303.5" ></text>
</g>
<g >
<title>default_idle_call (3,666,666,630 samples, 28.76%)</title><rect x="600.0" y="245" width="339.4" height="15.0" fill="rgb(219,54,24)" rx="2" ry="2" />
<text  x="603.00" y="255.5" >default_idle_call</text>
</g>
<g >
<title>cpumask_next (10,101,010 samples, 0.08%)</title><rect x="597.2" y="245" width="0.9" height="15.0" fill="rgb(206,25,26)" rx="2" ry="2" />
<text  x="600.19" y="255.5" ></text>
</g>
<g >
<title>time (10,101,010 samples, 0.08%)</title><rect x="1189.1" y="325" width="0.9" height="15.0" fill="rgb(251,19,48)" rx="2" ry="2" />
<text  x="1192.06" y="335.5" ></text>
</g>
<g >
<title>cfrac (6,333,333,270 samples, 49.68%)</title><rect x="10.0" y="325" width="586.3" height="15.0" fill="rgb(220,88,46)" rx="2" ry="2" />
<text  x="13.00" y="335.5" >cfrac</text>
</g>
<g >
<title>[cfrac] (50,505,050 samples, 0.40%)</title><rect x="13.7" y="309" width="4.7" height="15.0" fill="rgb(219,12,43)" rx="2" ry="2" />
<text  x="16.74" y="319.5" ></text>
</g>
<g >
<title>TCMallocInternalMalloc (343,434,340 samples, 2.69%)</title><rect x="40.9" y="277" width="31.7" height="15.0" fill="rgb(241,20,8)" rx="2" ry="2" />
<text  x="43.86" y="287.5" >TC..</text>
</g>
</g>
</svg>
