<?xml version="1.0" standalone="no"?>
<!DOCTYPE svg PUBLIC "-//W3C//DTD SVG 1.1//EN" "http://www.w3.org/Graphics/SVG/1.1/DTD/svg11.dtd">
<svg version="1.1" width="1200" height="342" onload="init(evt)" viewBox="0 0 1200 342" xmlns="http://www.w3.org/2000/svg" xmlns:xlink="http://www.w3.org/1999/xlink">
<!-- Flame graph stack visualization. See https://github.com/brendangregg/FlameGraph for latest version, and http://www.brendangregg.com/flamegraphs.html for examples. -->
<!-- NOTES:  -->
<defs>
	<linearGradient id="background" y1="0" y2="1" x1="0" x2="0" >
		<stop stop-color="#eeeeee" offset="5%" />
		<stop stop-color="#eeeeb0" offset="95%" />
	</linearGradient>
</defs>
<style type="text/css">
	text { font-family:Verdana; font-size:12px; fill:rgb(0,0,0); }
	#search, #ignorecase { opacity:0.1; cursor:pointer; }
	#search:hover, #search.show, #ignorecase:hover, #ignorecase.show { opacity:1; }
	#subtitle { text-anchor:middle; font-color:rgb(160,160,160); }
	#title { text-anchor:middle; font-size:17px}
	#unzoom { cursor:pointer; }
	#frames > *:hover { stroke:black; stroke-width:0.5; cursor:pointer; }
	.hide { display:none; }
	.parent { opacity:0.5; }
</style>
<script type="text/ecmascript">
<![CDATA[
	"use strict";
	var details, searchbtn, unzoombtn, matchedtxt, svg, searching, currentSearchTerm, ignorecase, ignorecaseBtn;
	function init(evt) {
		details = document.getElementById("details").firstChild;
		searchbtn = document.getElementById("search");
		ignorecaseBtn = document.getElementById("ignorecase");
		unzoombtn = document.getElementById("unzoom");
		matchedtxt = document.getElementById("matched");
		svg = document.getElementsByTagName("svg")[0];
		searching = 0;
		currentSearchTerm = null;

		// use GET parameters to restore a flamegraphs state.
		var params = get_params();
		if (params.x && params.y)
			zoom(find_group(document.querySelector('[x="' + params.x + '"][y="' + params.y + '"]')));
                if (params.s) search(params.s);
	}

	// event listeners
	window.addEventListener("click", function(e) {
		var target = find_group(e.target);
		if (target) {
			if (target.nodeName == "a") {
				if (e.ctrlKey === false) return;
				e.preventDefault();
			}
			if (target.classList.contains("parent")) unzoom(true);
			zoom(target);
			if (!document.querySelector('.parent')) {
				// we have basically done a clearzoom so clear the url
				var params = get_params();
				if (params.x) delete params.x;
				if (params.y) delete params.y;
				history.replaceState(null, null, parse_params(params));
				unzoombtn.classList.add("hide");
				return;
			}

			// set parameters for zoom state
			var el = target.querySelector("rect");
			if (el && el.attributes && el.attributes.y && el.attributes._orig_x) {
				var params = get_params()
				params.x = el.attributes._orig_x.value;
				params.y = el.attributes.y.value;
				history.replaceState(null, null, parse_params(params));
			}
		}
		else if (e.target.id == "unzoom") clearzoom();
		else if (e.target.id == "search") search_prompt();
		else if (e.target.id == "ignorecase") toggle_ignorecase();
	}, false)

	// mouse-over for info
	// show
	window.addEventListener("mouseover", function(e) {
		var target = find_group(e.target);
		if (target) details.nodeValue = "Function: " + g_to_text(target);
	}, false)

	// clear
	window.addEventListener("mouseout", function(e) {
		var target = find_group(e.target);
		if (target) details.nodeValue = ' ';
	}, false)

	// ctrl-F for search
	// ctrl-I to toggle case-sensitive search
	window.addEventListener("keydown",function (e) {
		if (e.keyCode === 114 || (e.ctrlKey && e.keyCode === 70)) {
			e.preventDefault();
			search_prompt();
		}
		else if (e.ctrlKey && e.keyCode === 73) {
			e.preventDefault();
			toggle_ignorecase();
		}
	}, false)

	// functions
	function get_params() {
		var params = {};
		var paramsarr = window.location.search.substr(1).split('&');
		for (var i = 0; i < paramsarr.length; ++i) {
			var tmp = paramsarr[i].split("=");
			if (!tmp[0] || !tmp[1]) continue;
			params[tmp[0]]  = decodeURIComponent(tmp[1]);
		}
		return params;
	}
	function parse_params(params) {
		var uri = "?";
		for (var key in params) {
			uri += key + '=' + encodeURIComponent(params[key]) + '&';
		}
		if (uri.slice(-1) == "&")
			uri = uri.substring(0, uri.length - 1);
		if (uri == '?')
			uri = window.location.href.split('?')[0];
		return uri;
	}
	function find_child(node, selector) {
		var children = node.querySelectorAll(selector);
		if (children.length) return children[0];
	}
	function find_group(node) {
		var parent = node.parentElement;
		if (!parent) return;
		if (parent.id == "frames") return node;
		return find_group(parent);
	}
	function orig_save(e, attr, val) {
		if (e.attributes["_orig_" + attr] != undefined) return;
		if (e.attributes[attr] == undefined) return;
		if (val == undefined) val = e.attributes[attr].value;
		e.setAttribute("_orig_" + attr, val);
	}
	function orig_load(e, attr) {
		if (e.attributes["_orig_"+attr] == undefined) return;
		e.attributes[attr].value = e.attributes["_orig_" + attr].value;
		e.removeAttribute("_orig_"+attr);
	}
	function g_to_text(e) {
		var text = find_child(e, "title").firstChild.nodeValue;
		return (text)
	}
	function g_to_func(e) {
		var func = g_to_text(e);
		// if there's any manipulation we want to do to the function
		// name before it's searched, do it here before returning.
		return (func);
	}
	function update_text(e) {
		var r = find_child(e, "rect");
		var t = find_child(e, "text");
		var w = parseFloat(r.attributes.width.value) -3;
		var txt = find_child(e, "title").textContent.replace(/\([^(]*\)$/,"");
		t.attributes.x.value = parseFloat(r.attributes.x.value) + 3;

		// Smaller than this size won't fit anything
		if (w < 2 * 12 * 0.59) {
			t.textContent = "";
			return;
		}

		t.textContent = txt;
		var sl = t.getSubStringLength(0, txt.length);
		// check if only whitespace or if we can fit the entire string into width w
		if (/^ *$/.test(txt) || sl < w)
			return;

		// this isn't perfect, but gives a good starting point
		// and avoids calling getSubStringLength too often
		var start = Math.floor((w/sl) * txt.length);
		for (var x = start; x > 0; x = x-2) {
			if (t.getSubStringLength(0, x + 2) <= w) {
				t.textContent = txt.substring(0, x) + "..";
				return;
			}
		}
		t.textContent = "";
	}

	// zoom
	function zoom_reset(e) {
		if (e.attributes != undefined) {
			orig_load(e, "x");
			orig_load(e, "width");
		}
		if (e.childNodes == undefined) return;
		for (var i = 0, c = e.childNodes; i < c.length; i++) {
			zoom_reset(c[i]);
		}
	}
	function zoom_child(e, x, ratio) {
		if (e.attributes != undefined) {
			if (e.attributes.x != undefined) {
				orig_save(e, "x");
				e.attributes.x.value = (parseFloat(e.attributes.x.value) - x - 10) * ratio + 10;
				if (e.tagName == "text")
					e.attributes.x.value = find_child(e.parentNode, "rect[x]").attributes.x.value + 3;
			}
			if (e.attributes.width != undefined) {
				orig_save(e, "width");
				e.attributes.width.value = parseFloat(e.attributes.width.value) * ratio;
			}
		}

		if (e.childNodes == undefined) return;
		for (var i = 0, c = e.childNodes; i < c.length; i++) {
			zoom_child(c[i], x - 10, ratio);
		}
	}
	function zoom_parent(e) {
		if (e.attributes) {
			if (e.attributes.x != undefined) {
				orig_save(e, "x");
				e.attributes.x.value = 10;
			}
			if (e.attributes.width != undefined) {
				orig_save(e, "width");
				e.attributes.width.value = parseInt(svg.width.baseVal.value) - (10 * 2);
			}
		}
		if (e.childNodes == undefined) return;
		for (var i = 0, c = e.childNodes; i < c.length; i++) {
			zoom_parent(c[i]);
		}
	}
	function zoom(node) {
		var attr = find_child(node, "rect").attributes;
		var width = parseFloat(attr.width.value);
		var xmin = parseFloat(attr.x.value);
		var xmax = parseFloat(xmin + width);
		var ymin = parseFloat(attr.y.value);
		var ratio = (svg.width.baseVal.value - 2 * 10) / width;

		// XXX: Workaround for JavaScript float issues (fix me)
		var fudge = 0.0001;

		unzoombtn.classList.remove("hide");

		var el = document.getElementById("frames").children;
		for (var i = 0; i < el.length; i++) {
			var e = el[i];
			var a = find_child(e, "rect").attributes;
			var ex = parseFloat(a.x.value);
			var ew = parseFloat(a.width.value);
			var upstack;
			// Is it an ancestor
			if (0 == 0) {
				upstack = parseFloat(a.y.value) > ymin;
			} else {
				upstack = parseFloat(a.y.value) < ymin;
			}
			if (upstack) {
				// Direct ancestor
				if (ex <= xmin && (ex+ew+fudge) >= xmax) {
					e.classList.add("parent");
					zoom_parent(e);
					update_text(e);
				}
				// not in current path
				else
					e.classList.add("hide");
			}
			// Children maybe
			else {
				// no common path
				if (ex < xmin || ex + fudge >= xmax) {
					e.classList.add("hide");
				}
				else {
					zoom_child(e, xmin, ratio);
					update_text(e);
				}
			}
		}
		search();
	}
	function unzoom(dont_update_text) {
		unzoombtn.classList.add("hide");
		var el = document.getElementById("frames").children;
		for(var i = 0; i < el.length; i++) {
			el[i].classList.remove("parent");
			el[i].classList.remove("hide");
			zoom_reset(el[i]);
			if(!dont_update_text) update_text(el[i]);
		}
		search();
	}
	function clearzoom() {
		unzoom();

		// remove zoom state
		var params = get_params();
		if (params.x) delete params.x;
		if (params.y) delete params.y;
		history.replaceState(null, null, parse_params(params));
	}

	// search
	function toggle_ignorecase() {
		ignorecase = !ignorecase;
		if (ignorecase) {
			ignorecaseBtn.classList.add("show");
		} else {
			ignorecaseBtn.classList.remove("show");
		}
		reset_search();
		search();
	}
	function reset_search() {
		var el = document.querySelectorAll("#frames rect");
		for (var i = 0; i < el.length; i++) {
			orig_load(el[i], "fill")
		}
		var params = get_params();
		delete params.s;
		history.replaceState(null, null, parse_params(params));
	}
	function search_prompt() {
		if (!searching) {
			var term = prompt("Enter a search term (regexp " +
			    "allowed, eg: ^ext4_)"
			    + (ignorecase ? ", ignoring case" : "")
			    + "\nPress Ctrl-i to toggle case sensitivity", "");
			if (term != null) search(term);
		} else {
			reset_search();
			searching = 0;
			currentSearchTerm = null;
			searchbtn.classList.remove("show");
			searchbtn.firstChild.nodeValue = "Search"
			matchedtxt.classList.add("hide");
			matchedtxt.firstChild.nodeValue = ""
		}
	}
	function search(term) {
		if (term) currentSearchTerm = term;

		var re = new RegExp(currentSearchTerm, ignorecase ? 'i' : '');
		var el = document.getElementById("frames").children;
		var matches = new Object();
		var maxwidth = 0;
		for (var i = 0; i < el.length; i++) {
			var e = el[i];
			var func = g_to_func(e);
			var rect = find_child(e, "rect");
			if (func == null || rect == null)
				continue;

			// Save max width. Only works as we have a root frame
			var w = parseFloat(rect.attributes.width.value);
			if (w > maxwidth)
				maxwidth = w;

			if (func.match(re)) {
				// highlight
				var x = parseFloat(rect.attributes.x.value);
				orig_save(rect, "fill");
				rect.attributes.fill.value = "rgb(230,0,230)";

				// remember matches
				if (matches[x] == undefined) {
					matches[x] = w;
				} else {
					if (w > matches[x]) {
						// overwrite with parent
						matches[x] = w;
					}
				}
				searching = 1;
			}
		}
		if (!searching)
			return;
		var params = get_params();
		params.s = currentSearchTerm;
		history.replaceState(null, null, parse_params(params));

		searchbtn.classList.add("show");
		searchbtn.firstChild.nodeValue = "Reset Search";

		// calculate percent matched, excluding vertical overlap
		var count = 0;
		var lastx = -1;
		var lastw = 0;
		var keys = Array();
		for (k in matches) {
			if (matches.hasOwnProperty(k))
				keys.push(k);
		}
		// sort the matched frames by their x location
		// ascending, then width descending
		keys.sort(function(a, b){
			return a - b;
		});
		// Step through frames saving only the biggest bottom-up frames
		// thanks to the sort order. This relies on the tree property
		// where children are always smaller than their parents.
		var fudge = 0.0001;	// JavaScript floating point
		for (var k in keys) {
			var x = parseFloat(keys[k]);
			var w = matches[keys[k]];
			if (x >= lastx + lastw - fudge) {
				count += w;
				lastx = x;
				lastw = w;
			}
		}
		// display matched percent
		matchedtxt.classList.remove("hide");
		var pct = 100 * count / maxwidth;
		if (pct != 100) pct = pct.toFixed(1)
		matchedtxt.firstChild.nodeValue = "Matched: " + pct + "%";
	}
]]>
</script>
<rect x="0.0" y="0" width="1200.0" height="342.0" fill="url(#background)"  />
<text id="title" x="600.00" y="24" >Flame Graph</text>
<text id="details" x="10.00" y="325" > </text>
<text id="unzoom" x="10.00" y="24" class="hide">Reset Zoom</text>
<text id="search" x="1090.00" y="24" >Search</text>
<text id="ignorecase" x="1174.00" y="24" >ic</text>
<text id="matched" x="1090.00" y="325" > </text>
<g id="frames">
<g >
<title>[[kernel.kallsyms]] (10,101,010 samples, 0.07%)</title><rect x="10.0" y="37" width="0.8" height="15.0" fill="rgb(238,117,37)" rx="2" ry="2" />
<text  x="13.00" y="47.5" ></text>
</g>
<g >
<title>sm_row_contains (20,202,020 samples, 0.14%)</title><rect x="585.7" y="261" width="1.7" height="15.0" fill="rgb(207,145,28)" rx="2" ry="2" />
<text  x="588.69" y="271.5" ></text>
</g>
<g >
<title>[[kernel.kallsyms]] (10,101,010 samples, 0.07%)</title><rect x="10.0" y="245" width="0.8" height="15.0" fill="rgb(211,152,40)" rx="2" ry="2" />
<text  x="13.00" y="255.5" ></text>
</g>
<g >
<title>swapper (7,060,605,990 samples, 49.86%)</title><rect x="600.8" y="277" width="588.4" height="15.0" fill="rgb(225,91,50)" rx="2" ry="2" />
<text  x="603.84" y="287.5" >swapper</text>
</g>
<g >
<title>unlink_chunk.isra.0 (50,505,050 samples, 0.36%)</title><rect x="589.9" y="261" width="4.2" height="15.0" fill="rgb(243,137,21)" rx="2" ry="2" />
<text  x="592.90" y="271.5" ></text>
</g>
<g >
<title>[[kernel.kallsyms]] (10,101,010 samples, 0.07%)</title><rect x="10.0" y="101" width="0.8" height="15.0" fill="rgb(216,59,45)" rx="2" ry="2" />
<text  x="13.00" y="111.5" ></text>
</g>
<g >
<title>[[kernel.kallsyms]] (1,020,202,010 samples, 7.20%)</title><rect x="1104.2" y="165" width="85.0" height="15.0" fill="rgb(229,176,43)" rx="2" ry="2" />
<text  x="1107.15" y="175.5" >[[kernel.k..</text>
</g>
<g >
<title>essen_parts (171,717,170 samples, 1.21%)</title><rect x="311.3" y="245" width="14.3" height="15.0" fill="rgb(254,132,17)" rx="2" ry="2" />
<text  x="314.31" y="255.5" ></text>
</g>
<g >
<title>[unknown] (20,202,020 samples, 0.14%)</title><rect x="13.4" y="213" width="1.6" height="15.0" fill="rgb(250,118,44)" rx="2" ry="2" />
<text  x="16.37" y="223.5" ></text>
</g>
<g >
<title>scofactor (10,101,010 samples, 0.07%)</title><rect x="211.2" y="229" width="0.8" height="15.0" fill="rgb(226,159,12)" rx="2" ry="2" />
<text  x="214.16" y="239.5" ></text>
</g>
<g >
<title>[[kernel.kallsyms]] (10,101,010 samples, 0.07%)</title><rect x="1189.2" y="37" width="0.8" height="15.0" fill="rgb(231,21,21)" rx="2" ry="2" />
<text  x="1192.16" y="47.5" ></text>
</g>
<g >
<title>sm_delrow.part.0 (20,202,020 samples, 0.14%)</title><rect x="16.7" y="213" width="1.7" height="15.0" fill="rgb(211,138,7)" rx="2" ry="2" />
<text  x="19.73" y="223.5" ></text>
</g>
<g >
<title>[[kernel.kallsyms]] (1,020,202,010 samples, 7.20%)</title><rect x="1104.2" y="181" width="85.0" height="15.0" fill="rgb(215,168,34)" rx="2" ry="2" />
<text  x="1107.15" y="191.5" >[[kernel.k..</text>
</g>
<g >
<title>cfree@GLIBC_2.2.5 (20,202,020 samples, 0.14%)</title><rect x="404.7" y="261" width="1.7" height="15.0" fill="rgb(206,69,42)" rx="2" ry="2" />
<text  x="407.74" y="271.5" ></text>
</g>
<g >
<title>sf_new (30,303,030 samples, 0.21%)</title><rect x="565.5" y="261" width="2.5" height="15.0" fill="rgb(205,155,48)" rx="2" ry="2" />
<text  x="568.49" y="271.5" ></text>
</g>
<g >
<title>[[kernel.kallsyms]] (6,040,403,980 samples, 42.65%)</title><rect x="600.8" y="229" width="503.4" height="15.0" fill="rgb(217,197,41)" rx="2" ry="2" />
<text  x="603.84" y="239.5" >[[kernel.kallsyms]]</text>
</g>
<g >
<title>[unknown] (1,020,202,010 samples, 7.20%)</title><rect x="1104.2" y="245" width="85.0" height="15.0" fill="rgb(205,154,24)" rx="2" ry="2" />
<text  x="1107.15" y="255.5" >[unknown]</text>
</g>
<g >
<title>[[kernel.kallsyms]] (10,101,010 samples, 0.07%)</title><rect x="262.5" y="149" width="0.8" height="15.0" fill="rgb(237,8,9)" rx="2" ry="2" />
<text  x="265.50" y="159.5" ></text>
</g>
<g >
<title>malloc_consolidate (131,313,130 samples, 0.93%)</title><rect x="447.7" y="261" width="10.9" height="15.0" fill="rgb(207,36,30)" rx="2" ry="2" />
<text  x="450.66" y="271.5" ></text>
</g>
<g >
<title>[[kernel.kallsyms]] (10,101,010 samples, 0.07%)</title><rect x="599.2" y="149" width="0.8" height="15.0" fill="rgb(226,210,49)" rx="2" ry="2" />
<text  x="602.16" y="159.5" ></text>
</g>
<g >
<title>essen_raising (50,505,050 samples, 0.36%)</title><rect x="325.6" y="245" width="4.2" height="15.0" fill="rgb(253,190,20)" rx="2" ry="2" />
<text  x="328.62" y="255.5" ></text>
</g>
<g >
<title>[[kernel.kallsyms]] (10,101,010 samples, 0.07%)</title><rect x="10.0" y="133" width="0.8" height="15.0" fill="rgb(231,162,7)" rx="2" ry="2" />
<text  x="13.00" y="143.5" ></text>
</g>
<g >
<title>_int_realloc (10,101,010 samples, 0.07%)</title><rect x="262.5" y="245" width="0.8" height="15.0" fill="rgb(238,26,33)" rx="2" ry="2" />
<text  x="265.50" y="255.5" ></text>
</g>
<g >
<title>[[kernel.kallsyms]] (20,202,020 samples, 0.14%)</title><rect x="369.4" y="245" width="1.7" height="15.0" fill="rgb(221,105,12)" rx="2" ry="2" />
<text  x="372.39" y="255.5" ></text>
</g>
<g >
<title>[[kernel.kallsyms]] (10,101,010 samples, 0.07%)</title><rect x="599.2" y="213" width="0.8" height="15.0" fill="rgb(231,10,0)" rx="2" ry="2" />
<text  x="602.16" y="223.5" ></text>
</g>
<g >
<title>[[kernel.kallsyms]] (10,101,010 samples, 0.07%)</title><rect x="10.0" y="213" width="0.8" height="15.0" fill="rgb(210,21,3)" rx="2" ry="2" />
<text  x="13.00" y="223.5" ></text>
</g>
<g >
<title>setlocale (10,101,010 samples, 0.07%)</title><rect x="10.8" y="261" width="0.9" height="15.0" fill="rgb(220,180,16)" rx="2" ry="2" />
<text  x="13.84" y="271.5" ></text>
</g>
<g >
<title>[[kernel.kallsyms]] (10,101,010 samples, 0.07%)</title><rect x="600.0" y="149" width="0.8" height="15.0" fill="rgb(252,115,21)" rx="2" ry="2" />
<text  x="603.00" y="159.5" ></text>
</g>
<g >
<title>sf_count (30,303,030 samples, 0.21%)</title><rect x="563.0" y="261" width="2.5" height="15.0" fill="rgb(215,155,49)" rx="2" ry="2" />
<text  x="565.97" y="271.5" ></text>
</g>
<g >
<title>[[kernel.kallsyms]] (10,101,010 samples, 0.07%)</title><rect x="10.0" y="85" width="0.8" height="15.0" fill="rgb(219,168,45)" rx="2" ry="2" />
<text  x="13.00" y="95.5" ></text>
</g>
<g >
<title>full_row (303,030,300 samples, 2.14%)</title><rect x="22.6" y="229" width="25.3" height="15.0" fill="rgb(210,2,13)" rx="2" ry="2" />
<text  x="25.62" y="239.5" >f..</text>
</g>
<g >
<title>__memset_avx2_unaligned_erms (20,202,020 samples, 0.14%)</title><rect x="365.2" y="261" width="1.7" height="15.0" fill="rgb(237,227,47)" rx="2" ry="2" />
<text  x="368.18" y="271.5" ></text>
</g>
<g >
<title>[espresso] (20,202,020 samples, 0.14%)</title><rect x="11.7" y="261" width="1.7" height="15.0" fill="rgb(232,171,40)" rx="2" ry="2" />
<text  x="14.68" y="271.5" ></text>
</g>
<g >
<title>[[kernel.kallsyms]] (10,101,010 samples, 0.07%)</title><rect x="600.0" y="133" width="0.8" height="15.0" fill="rgb(244,97,32)" rx="2" ry="2" />
<text  x="603.00" y="143.5" ></text>
</g>
<g >
<title>sm_col_remove_element (10,101,010 samples, 0.07%)</title><rect x="361.8" y="245" width="0.9" height="15.0" fill="rgb(224,155,35)" rx="2" ry="2" />
<text  x="364.81" y="255.5" ></text>
</g>
<g >
<title>__memmove_avx_unaligned_erms (10,101,010 samples, 0.07%)</title><rect x="244.8" y="245" width="0.9" height="15.0" fill="rgb(248,59,20)" rx="2" ry="2" />
<text  x="247.82" y="255.5" ></text>
</g>
<g >
<title>setup_BB_CC (111,111,110 samples, 0.78%)</title><rect x="347.5" y="245" width="9.3" height="15.0" fill="rgb(224,211,44)" rx="2" ry="2" />
<text  x="350.50" y="255.5" ></text>
</g>
<g >
<title>[[kernel.kallsyms]] (1,020,202,010 samples, 7.20%)</title><rect x="1104.2" y="133" width="85.0" height="15.0" fill="rgb(208,111,54)" rx="2" ry="2" />
<text  x="1107.15" y="143.5" >[[kernel.k..</text>
</g>
<g >
<title>malloc (141,414,140 samples, 1.00%)</title><rect x="435.9" y="261" width="11.8" height="15.0" fill="rgb(238,25,26)" rx="2" ry="2" />
<text  x="438.88" y="271.5" ></text>
</g>
<g >
<title>[[kernel.kallsyms]] (10,101,010 samples, 0.07%)</title><rect x="1189.2" y="149" width="0.8" height="15.0" fill="rgb(211,171,10)" rx="2" ry="2" />
<text  x="1192.16" y="159.5" ></text>
</g>
<g >
<title>setp_equal (10,101,010 samples, 0.07%)</title><rect x="212.8" y="229" width="0.9" height="15.0" fill="rgb(253,8,41)" rx="2" ry="2" />
<text  x="215.84" y="239.5" ></text>
</g>
<g >
<title>[[kernel.kallsyms]] (10,101,010 samples, 0.07%)</title><rect x="10.0" y="69" width="0.8" height="15.0" fill="rgb(226,223,8)" rx="2" ry="2" />
<text  x="13.00" y="79.5" ></text>
</g>
<g >
<title>[unknown] (10,101,010 samples, 0.07%)</title><rect x="600.0" y="261" width="0.8" height="15.0" fill="rgb(248,42,1)" rx="2" ry="2" />
<text  x="603.00" y="271.5" ></text>
</g>
<g >
<title>[[kernel.kallsyms]] (10,101,010 samples, 0.07%)</title><rect x="262.5" y="213" width="0.8" height="15.0" fill="rgb(222,9,15)" rx="2" ry="2" />
<text  x="265.50" y="223.5" ></text>
</g>
<g >
<title>sm_col_remove_element (10,101,010 samples, 0.07%)</title><rect x="568.0" y="261" width="0.9" height="15.0" fill="rgb(244,173,40)" rx="2" ry="2" />
<text  x="571.02" y="271.5" ></text>
</g>
<g >
<title>[[kernel.kallsyms]] (10,101,010 samples, 0.07%)</title><rect x="600.0" y="181" width="0.8" height="15.0" fill="rgb(206,75,20)" rx="2" ry="2" />
<text  x="603.00" y="191.5" ></text>
</g>
<g >
<title>massive_count (1,959,595,940 samples, 13.84%)</title><rect x="47.9" y="229" width="163.3" height="15.0" fill="rgb(240,108,28)" rx="2" ry="2" />
<text  x="50.87" y="239.5" >massive_count</text>
</g>
<g >
<title>force_lower (50,505,050 samples, 0.36%)</title><rect x="331.5" y="245" width="4.2" height="15.0" fill="rgb(221,171,44)" rx="2" ry="2" />
<text  x="334.51" y="255.5" ></text>
</g>
<g >
<title>taut_special_cases (313,131,310 samples, 2.21%)</title><rect x="217.9" y="229" width="26.1" height="15.0" fill="rgb(210,25,14)" rx="2" ry="2" />
<text  x="220.89" y="239.5" >t..</text>
</g>
<g >
<title>__fxstat64 (10,101,010 samples, 0.07%)</title><rect x="10.8" y="229" width="0.9" height="15.0" fill="rgb(247,190,26)" rx="2" ry="2" />
<text  x="13.84" y="239.5" ></text>
</g>
<g >
<title>compl_merge (10,101,010 samples, 0.07%)</title><rect x="20.9" y="229" width="0.9" height="15.0" fill="rgb(224,218,53)" rx="2" ry="2" />
<text  x="23.94" y="239.5" ></text>
</g>
<g >
<title>sm_row_insert (10,101,010 samples, 0.07%)</title><rect x="215.4" y="229" width="0.8" height="15.0" fill="rgb(234,209,27)" rx="2" ry="2" />
<text  x="218.36" y="239.5" ></text>
</g>
<g >
<title>[[kernel.kallsyms]] (10,101,010 samples, 0.07%)</title><rect x="262.5" y="165" width="0.8" height="15.0" fill="rgb(233,209,52)" rx="2" ry="2" />
<text  x="265.50" y="175.5" ></text>
</g>
<g >
<title>_int_free (10,101,010 samples, 0.07%)</title><rect x="15.0" y="213" width="0.9" height="15.0" fill="rgb(246,202,1)" rx="2" ry="2" />
<text  x="18.05" y="223.5" ></text>
</g>
<g >
<title>[[kernel.kallsyms]] (10,101,010 samples, 0.07%)</title><rect x="599.2" y="181" width="0.8" height="15.0" fill="rgb(227,143,31)" rx="2" ry="2" />
<text  x="602.16" y="191.5" ></text>
</g>
<g >
<title>cofactor (333,333,330 samples, 2.35%)</title><rect x="406.4" y="261" width="27.8" height="15.0" fill="rgb(229,137,33)" rx="2" ry="2" />
<text  x="409.42" y="271.5" >c..</text>
</g>
<g >
<title>massive_count (373,737,370 samples, 2.64%)</title><rect x="458.6" y="261" width="31.1" height="15.0" fill="rgb(244,43,54)" rx="2" ry="2" />
<text  x="461.60" y="271.5" >ma..</text>
</g>
<g >
<title>[[kernel.kallsyms]] (10,101,010 samples, 0.07%)</title><rect x="600.0" y="165" width="0.8" height="15.0" fill="rgb(242,66,24)" rx="2" ry="2" />
<text  x="603.00" y="175.5" ></text>
</g>
<g >
<title>[unknown] (1,020,202,010 samples, 7.20%)</title><rect x="1104.2" y="197" width="85.0" height="15.0" fill="rgb(235,102,8)" rx="2" ry="2" />
<text  x="1107.15" y="207.5" >[unknown]</text>
</g>
<g >
<title>espresso (7,050,504,980 samples, 49.79%)</title><rect x="11.7" y="277" width="587.5" height="15.0" fill="rgb(208,0,42)" rx="2" ry="2" />
<text  x="14.68" y="287.5" >espresso</text>
</g>
<g >
<title>[[kernel.kallsyms]] (7,060,605,990 samples, 49.86%)</title><rect x="600.8" y="261" width="588.4" height="15.0" fill="rgb(254,104,18)" rx="2" ry="2" />
<text  x="603.84" y="271.5" >[[kernel.kallsyms]]</text>
</g>
<g >
<title>[[kernel.kallsyms]] (10,101,010 samples, 0.07%)</title><rect x="1189.2" y="53" width="0.8" height="15.0" fill="rgb(217,38,52)" rx="2" ry="2" />
<text  x="1192.16" y="63.5" ></text>
</g>
<g >
<title>rcu_sched (10,101,010 samples, 0.07%)</title><rect x="599.2" y="277" width="0.8" height="15.0" fill="rgb(206,6,16)" rx="2" ry="2" />
<text  x="602.16" y="287.5" ></text>
</g>
<g >
<title>elim_lowering (292,929,290 samples, 2.07%)</title><rect x="286.9" y="245" width="24.4" height="15.0" fill="rgb(223,58,31)" rx="2" ry="2" />
<text  x="289.90" y="255.5" >e..</text>
</g>
<g >
<title>[[kernel.kallsyms]] (10,101,010 samples, 0.07%)</title><rect x="262.5" y="229" width="0.8" height="15.0" fill="rgb(240,84,13)" rx="2" ry="2" />
<text  x="265.50" y="239.5" ></text>
</g>
<g >
<title>[unknown] (2,767,676,740 samples, 19.54%)</title><rect x="13.4" y="245" width="230.6" height="15.0" fill="rgb(213,218,10)" rx="2" ry="2" />
<text  x="16.37" y="255.5" >[unknown]</text>
</g>
<g >
<title>[[kernel.kallsyms]] (6,040,403,980 samples, 42.65%)</title><rect x="600.8" y="245" width="503.4" height="15.0" fill="rgb(232,45,48)" rx="2" ry="2" />
<text  x="603.84" y="255.5" >[[kernel.kallsyms]]</text>
</g>
<g >
<title>sm_dup (80,808,080 samples, 0.57%)</title><rect x="568.9" y="261" width="6.7" height="15.0" fill="rgb(226,110,35)" rx="2" ry="2" />
<text  x="571.86" y="271.5" ></text>
</g>
<g >
<title>_int_malloc (10,101,010 samples, 0.07%)</title><rect x="261.7" y="245" width="0.8" height="15.0" fill="rgb(233,83,36)" rx="2" ry="2" />
<text  x="264.65" y="255.5" ></text>
</g>
<g >
<title>__select (10,101,010 samples, 0.07%)</title><rect x="600.0" y="229" width="0.8" height="15.0" fill="rgb(246,103,30)" rx="2" ry="2" />
<text  x="603.00" y="239.5" ></text>
</g>
<g >
<title>[[kernel.kallsyms]] (10,101,010 samples, 0.07%)</title><rect x="1189.2" y="181" width="0.8" height="15.0" fill="rgb(233,120,15)" rx="2" ry="2" />
<text  x="1192.16" y="191.5" ></text>
</g>
<g >
<title>select_feasible (50,505,050 samples, 0.36%)</title><rect x="536.0" y="261" width="4.2" height="15.0" fill="rgb(232,30,50)" rx="2" ry="2" />
<text  x="539.03" y="271.5" ></text>
</g>
<g >
<title>sm_row_intersects (20,202,020 samples, 0.14%)</title><rect x="216.2" y="229" width="1.7" height="15.0" fill="rgb(208,162,29)" rx="2" ry="2" />
<text  x="219.21" y="239.5" ></text>
</g>
<g >
<title>set_copy (10,101,010 samples, 0.07%)</title><rect x="547.8" y="261" width="0.9" height="15.0" fill="rgb(216,104,33)" rx="2" ry="2" />
<text  x="550.82" y="271.5" ></text>
</g>
<g >
<title>sm_resize (10,101,010 samples, 0.07%)</title><rect x="584.9" y="261" width="0.8" height="15.0" fill="rgb(243,2,46)" rx="2" ry="2" />
<text  x="587.85" y="271.5" ></text>
</g>
<g >
<title>cfree@GLIBC_2.2.5 (20,202,020 samples, 0.14%)</title><rect x="19.3" y="229" width="1.6" height="15.0" fill="rgb(212,95,14)" rx="2" ry="2" />
<text  x="22.26" y="239.5" ></text>
</g>
<g >
<title>[unknown] (10,101,010 samples, 0.07%)</title><rect x="1189.2" y="261" width="0.8" height="15.0" fill="rgb(244,137,22)" rx="2" ry="2" />
<text  x="1192.16" y="271.5" ></text>
</g>
<g >
<title>[unknown] (4,222,222,180 samples, 29.81%)</title><rect x="13.4" y="261" width="351.8" height="15.0" fill="rgb(213,211,29)" rx="2" ry="2" />
<text  x="16.37" y="271.5" >[unknown]</text>
</g>
<g >
<title>cfree@GLIBC_2.2.5 (10,101,010 samples, 0.07%)</title><rect x="14.2" y="181" width="0.8" height="15.0" fill="rgb(241,102,0)" rx="2" ry="2" />
<text  x="17.21" y="191.5" ></text>
</g>
<g >
<title>[[kernel.kallsyms]] (10,101,010 samples, 0.07%)</title><rect x="262.5" y="181" width="0.8" height="15.0" fill="rgb(248,195,43)" rx="2" ry="2" />
<text  x="265.50" y="191.5" ></text>
</g>
<g >
<title>setp_implies (10,101,010 samples, 0.07%)</title><rect x="213.7" y="229" width="0.8" height="15.0" fill="rgb(217,40,3)" rx="2" ry="2" />
<text  x="216.68" y="239.5" ></text>
</g>
<g >
<title>sm_insert (10,101,010 samples, 0.07%)</title><rect x="363.5" y="245" width="0.8" height="15.0" fill="rgb(214,153,52)" rx="2" ry="2" />
<text  x="366.50" y="255.5" ></text>
</g>
<g >
<title>[unknown] (10,101,010 samples, 0.07%)</title><rect x="600.0" y="245" width="0.8" height="15.0" fill="rgb(216,22,41)" rx="2" ry="2" />
<text  x="603.00" y="255.5" ></text>
</g>
<g >
<title>[[kernel.kallsyms]] (10,101,010 samples, 0.07%)</title><rect x="1189.2" y="229" width="0.8" height="15.0" fill="rgb(228,227,40)" rx="2" ry="2" />
<text  x="1192.16" y="239.5" ></text>
</g>
<g >
<title>[[kernel.kallsyms]] (10,101,010 samples, 0.07%)</title><rect x="599.2" y="229" width="0.8" height="15.0" fill="rgb(211,93,22)" rx="2" ry="2" />
<text  x="602.16" y="239.5" ></text>
</g>
<g >
<title>cb_consensus_dist0 (10,101,010 samples, 0.07%)</title><rect x="403.9" y="261" width="0.8" height="15.0" fill="rgb(249,152,27)" rx="2" ry="2" />
<text  x="406.89" y="271.5" ></text>
</g>
<g >
<title>compl_cube (10,101,010 samples, 0.07%)</title><rect x="269.2" y="245" width="0.9" height="15.0" fill="rgb(209,216,1)" rx="2" ry="2" />
<text  x="272.23" y="255.5" ></text>
</g>
<g >
<title>do_sm_minimum_cover (101,010,100 samples, 0.71%)</title><rect x="278.5" y="245" width="8.4" height="15.0" fill="rgb(225,31,44)" rx="2" ry="2" />
<text  x="281.49" y="255.5" ></text>
</g>
<g >
<title>unravel_range (60,606,060 samples, 0.43%)</title><rect x="594.1" y="261" width="5.1" height="15.0" fill="rgb(238,167,46)" rx="2" ry="2" />
<text  x="597.11" y="271.5" ></text>
</g>
<g >
<title>mincov (50,505,050 samples, 0.36%)</title><rect x="335.7" y="245" width="4.2" height="15.0" fill="rgb(242,21,9)" rx="2" ry="2" />
<text  x="338.72" y="255.5" ></text>
</g>
<g >
<title>set_and (90,909,090 samples, 0.64%)</title><rect x="540.2" y="261" width="7.6" height="15.0" fill="rgb(250,151,53)" rx="2" ry="2" />
<text  x="543.24" y="271.5" ></text>
</g>
<g >
<title>sm_col_dominance (30,303,030 samples, 0.21%)</title><rect x="359.3" y="245" width="2.5" height="15.0" fill="rgb(222,66,27)" rx="2" ry="2" />
<text  x="362.29" y="255.5" ></text>
</g>
<g >
<title>descend (10,101,010 samples, 0.07%)</title><rect x="435.0" y="261" width="0.9" height="15.0" fill="rgb(225,178,41)" rx="2" ry="2" />
<text  x="438.04" y="271.5" ></text>
</g>
<g >
<title>compl_lift (40,404,040 samples, 0.29%)</title><rect x="270.1" y="245" width="3.3" height="15.0" fill="rgb(237,27,1)" rx="2" ry="2" />
<text  x="273.07" y="255.5" ></text>
</g>
<g >
<title>__memset_avx2_unaligned_erms (10,101,010 samples, 0.07%)</title><rect x="18.4" y="229" width="0.9" height="15.0" fill="rgb(209,227,31)" rx="2" ry="2" />
<text  x="21.42" y="239.5" ></text>
</g>
<g >
<title>[[kernel.kallsyms]] (10,101,010 samples, 0.07%)</title><rect x="600.0" y="117" width="0.8" height="15.0" fill="rgb(216,173,22)" rx="2" ry="2" />
<text  x="603.00" y="127.5" ></text>
</g>
<g >
<title>[[kernel.kallsyms]] (10,101,010 samples, 0.07%)</title><rect x="599.2" y="261" width="0.8" height="15.0" fill="rgb(218,55,13)" rx="2" ry="2" />
<text  x="602.16" y="271.5" ></text>
</g>
<g >
<title>all (14,161,616,020 samples, 100%)</title><rect x="10.0" y="293" width="1180.0" height="15.0" fill="rgb(207,162,26)" rx="2" ry="2" />
<text  x="13.00" y="303.5" ></text>
</g>
<g >
<title>read_cube (10,101,010 samples, 0.07%)</title><rect x="492.3" y="261" width="0.8" height="15.0" fill="rgb(222,175,44)" rx="2" ry="2" />
<text  x="495.27" y="271.5" ></text>
</g>
<g >
<title>[[kernel.kallsyms]] (10,101,010 samples, 0.07%)</title><rect x="600.0" y="101" width="0.8" height="15.0" fill="rgb(210,114,51)" rx="2" ry="2" />
<text  x="603.00" y="111.5" ></text>
</g>
<g >
<title>[[kernel.kallsyms]] (1,020,202,010 samples, 7.20%)</title><rect x="1104.2" y="149" width="85.0" height="15.0" fill="rgb(212,62,3)" rx="2" ry="2" />
<text  x="1107.15" y="159.5" >[[kernel.k..</text>
</g>
<g >
<title>[unknown] (1,020,202,010 samples, 7.20%)</title><rect x="1104.2" y="229" width="85.0" height="15.0" fill="rgb(223,158,2)" rx="2" ry="2" />
<text  x="1107.15" y="239.5" >[unknown]</text>
</g>
<g >
<title>[[kernel.kallsyms]] (10,101,010 samples, 0.07%)</title><rect x="600.0" y="53" width="0.8" height="15.0" fill="rgb(246,103,1)" rx="2" ry="2" />
<text  x="603.00" y="63.5" ></text>
</g>
<g >
<title>[[kernel.kallsyms]] (20,202,020 samples, 0.14%)</title><rect x="369.4" y="229" width="1.7" height="15.0" fill="rgb(213,74,6)" rx="2" ry="2" />
<text  x="372.39" y="239.5" ></text>
</g>
<g >
<title>[[kernel.kallsyms]] (6,040,403,980 samples, 42.65%)</title><rect x="600.8" y="181" width="503.4" height="15.0" fill="rgb(205,19,27)" rx="2" ry="2" />
<text  x="603.84" y="191.5" >[[kernel.kallsyms]]</text>
</g>
<g >
<title>complement (40,404,040 samples, 0.29%)</title><rect x="274.3" y="245" width="3.3" height="15.0" fill="rgb(221,132,43)" rx="2" ry="2" />
<text  x="277.28" y="255.5" ></text>
</g>
<g >
<title>set_or (121,212,120 samples, 0.86%)</title><rect x="552.9" y="261" width="10.1" height="15.0" fill="rgb(247,40,40)" rx="2" ry="2" />
<text  x="555.87" y="271.5" ></text>
</g>
<g >
<title>_int_free (191,919,190 samples, 1.36%)</title><rect x="245.7" y="245" width="16.0" height="15.0" fill="rgb(211,136,4)" rx="2" ry="2" />
<text  x="248.66" y="255.5" ></text>
</g>
<g >
<title>sm_minimum_cover (10,101,010 samples, 0.07%)</title><rect x="584.0" y="261" width="0.9" height="15.0" fill="rgb(249,77,45)" rx="2" ry="2" />
<text  x="587.01" y="271.5" ></text>
</g>
<g >
<title>__times (50,505,050 samples, 0.36%)</title><rect x="366.9" y="261" width="4.2" height="15.0" fill="rgb(239,37,40)" rx="2" ry="2" />
<text  x="369.86" y="271.5" ></text>
</g>
<g >
<title>[[kernel.kallsyms]] (10,101,010 samples, 0.07%)</title><rect x="600.0" y="85" width="0.8" height="15.0" fill="rgb(249,84,14)" rx="2" ry="2" />
<text  x="603.00" y="95.5" ></text>
</g>
<g >
<title>sccc_special_cases (20,202,020 samples, 0.14%)</title><rect x="342.5" y="245" width="1.6" height="15.0" fill="rgb(228,1,15)" rx="2" ry="2" />
<text  x="345.45" y="255.5" ></text>
</g>
<g >
<title>[unknown] (1,020,202,010 samples, 7.20%)</title><rect x="1104.2" y="213" width="85.0" height="15.0" fill="rgb(240,43,32)" rx="2" ry="2" />
<text  x="1107.15" y="223.5" >[unknown]</text>
</g>
<g >
<title>[[kernel.kallsyms]] (10,101,010 samples, 0.07%)</title><rect x="599.2" y="197" width="0.8" height="15.0" fill="rgb(249,56,33)" rx="2" ry="2" />
<text  x="602.16" y="207.5" ></text>
</g>
<g >
<title>sm_insert (101,010,100 samples, 0.71%)</title><rect x="575.6" y="261" width="8.4" height="15.0" fill="rgb(247,192,17)" rx="2" ry="2" />
<text  x="578.59" y="271.5" ></text>
</g>
<g >
<title>[unknown] (10,101,010 samples, 0.07%)</title><rect x="13.4" y="181" width="0.8" height="15.0" fill="rgb(224,224,17)" rx="2" ry="2" />
<text  x="16.37" y="191.5" ></text>
</g>
<g >
<title>msort_with_tmp.part.0 (30,303,030 samples, 0.21%)</title><rect x="489.7" y="261" width="2.6" height="15.0" fill="rgb(251,169,11)" rx="2" ry="2" />
<text  x="492.74" y="271.5" ></text>
</g>
<g >
<title>sf_join (10,101,010 samples, 0.07%)</title><rect x="356.8" y="245" width="0.8" height="15.0" fill="rgb(232,32,24)" rx="2" ry="2" />
<text  x="359.76" y="255.5" ></text>
</g>
<g >
<title>[[kernel.kallsyms]] (10,101,010 samples, 0.07%)</title><rect x="1189.2" y="69" width="0.8" height="15.0" fill="rgb(217,118,12)" rx="2" ry="2" />
<text  x="1192.16" y="79.5" ></text>
</g>
<g >
<title>[[kernel.kallsyms]] (10,101,010 samples, 0.07%)</title><rect x="10.0" y="117" width="0.8" height="15.0" fill="rgb(231,131,49)" rx="2" ry="2" />
<text  x="13.00" y="127.5" ></text>
</g>
<g >
<title>tee (10,101,010 samples, 0.07%)</title><rect x="1189.2" y="277" width="0.8" height="15.0" fill="rgb(253,167,7)" rx="2" ry="2" />
<text  x="1192.16" y="287.5" ></text>
</g>
<g >
<title>[[kernel.kallsyms]] (10,101,010 samples, 0.07%)</title><rect x="600.0" y="213" width="0.8" height="15.0" fill="rgb(205,40,38)" rx="2" ry="2" />
<text  x="603.00" y="223.5" ></text>
</g>
<g >
<title>cfree@GLIBC_2.2.5 (20,202,020 samples, 0.14%)</title><rect x="267.5" y="245" width="1.7" height="15.0" fill="rgb(232,120,10)" rx="2" ry="2" />
<text  x="270.55" y="255.5" ></text>
</g>
<g >
<title>[[kernel.kallsyms]] (10,101,010 samples, 0.07%)</title><rect x="1189.2" y="133" width="0.8" height="15.0" fill="rgb(244,123,49)" rx="2" ry="2" />
<text  x="1192.16" y="143.5" ></text>
</g>
<g >
<title>[unknown] (60,606,060 samples, 0.43%)</title><rect x="13.4" y="229" width="5.0" height="15.0" fill="rgb(237,11,45)" rx="2" ry="2" />
<text  x="16.37" y="239.5" ></text>
</g>
<g >
<title>bench.sh (10,101,010 samples, 0.07%)</title><rect x="10.0" y="277" width="0.8" height="15.0" fill="rgb(254,11,33)" rx="2" ry="2" />
<text  x="13.00" y="287.5" ></text>
</g>
<g >
<title>sm_delcol.part.0 (10,101,010 samples, 0.07%)</title><rect x="15.9" y="213" width="0.8" height="15.0" fill="rgb(222,218,33)" rx="2" ry="2" />
<text  x="18.89" y="223.5" ></text>
</g>
<g >
<title>set_diff (30,303,030 samples, 0.21%)</title><rect x="548.7" y="261" width="2.5" height="15.0" fill="rgb(248,52,25)" rx="2" ry="2" />
<text  x="551.66" y="271.5" ></text>
</g>
<g >
<title>[[kernel.kallsyms]] (1,010,101,000 samples, 7.13%)</title><rect x="1105.0" y="101" width="84.2" height="15.0" fill="rgb(236,45,0)" rx="2" ry="2" />
<text  x="1107.99" y="111.5" >[[kernel...</text>
</g>
<g >
<title>feasibly_covered (10,101,010 samples, 0.07%)</title><rect x="330.7" y="245" width="0.8" height="15.0" fill="rgb(214,91,48)" rx="2" ry="2" />
<text  x="333.67" y="255.5" ></text>
</g>
<g >
<title>[[kernel.kallsyms]] (10,101,010 samples, 0.07%)</title><rect x="1189.2" y="197" width="0.8" height="15.0" fill="rgb(226,55,6)" rx="2" ry="2" />
<text  x="1192.16" y="207.5" ></text>
</g>
<g >
<title>sccc_merge (10,101,010 samples, 0.07%)</title><rect x="341.6" y="245" width="0.9" height="15.0" fill="rgb(239,119,24)" rx="2" ry="2" />
<text  x="344.61" y="255.5" ></text>
</g>
<g >
<title>unlink_chunk.isra.0 (10,101,010 samples, 0.07%)</title><rect x="364.3" y="245" width="0.9" height="15.0" fill="rgb(224,83,35)" rx="2" ry="2" />
<text  x="367.34" y="255.5" ></text>
</g>
<g >
<title>[[kernel.kallsyms]] (10,101,010 samples, 0.07%)</title><rect x="1189.2" y="165" width="0.8" height="15.0" fill="rgb(250,184,53)" rx="2" ry="2" />
<text  x="1192.16" y="175.5" ></text>
</g>
<g >
<title>sshd (10,101,010 samples, 0.07%)</title><rect x="600.0" y="277" width="0.8" height="15.0" fill="rgb(243,29,22)" rx="2" ry="2" />
<text  x="603.00" y="287.5" ></text>
</g>
<g >
<title>_int_malloc (393,939,390 samples, 2.78%)</title><rect x="371.1" y="261" width="32.8" height="15.0" fill="rgb(216,207,12)" rx="2" ry="2" />
<text  x="374.07" y="271.5" >_i..</text>
</g>
<g >
<title>[[kernel.kallsyms]] (10,101,010 samples, 0.07%)</title><rect x="370.2" y="197" width="0.9" height="15.0" fill="rgb(228,86,25)" rx="2" ry="2" />
<text  x="373.23" y="207.5" ></text>
</g>
<g >
<title>[[kernel.kallsyms]] (1,010,101,000 samples, 7.13%)</title><rect x="1105.0" y="117" width="84.2" height="15.0" fill="rgb(210,218,8)" rx="2" ry="2" />
<text  x="1107.99" y="127.5" >[[kernel...</text>
</g>
<g >
<title>[[kernel.kallsyms]] (10,101,010 samples, 0.07%)</title><rect x="262.5" y="197" width="0.8" height="15.0" fill="rgb(227,135,41)" rx="2" ry="2" />
<text  x="265.50" y="207.5" ></text>
</g>
<g >
<title>[[kernel.kallsyms]] (10,101,010 samples, 0.07%)</title><rect x="370.2" y="181" width="0.9" height="15.0" fill="rgb(248,86,23)" rx="2" ry="2" />
<text  x="373.23" y="191.5" ></text>
</g>
<g >
<title>cfree@GLIBC_2.2.5 (10,101,010 samples, 0.07%)</title><rect x="13.4" y="165" width="0.8" height="15.0" fill="rgb(237,190,17)" rx="2" ry="2" />
<text  x="16.37" y="175.5" ></text>
</g>
<g >
<title>cube3list (10,101,010 samples, 0.07%)</title><rect x="277.6" y="245" width="0.9" height="15.0" fill="rgb(238,216,49)" rx="2" ry="2" />
<text  x="280.65" y="255.5" ></text>
</g>
<g >
<title>[[kernel.kallsyms]] (6,040,403,980 samples, 42.65%)</title><rect x="600.8" y="165" width="503.4" height="15.0" fill="rgb(253,181,42)" rx="2" ry="2" />
<text  x="603.84" y="175.5" >[[kernel.kallsyms]]</text>
</g>
<g >
<title>[[kernel.kallsyms]] (10,101,010 samples, 0.07%)</title><rect x="262.5" y="133" width="0.8" height="15.0" fill="rgb(237,5,45)" rx="2" ry="2" />
<text  x="265.50" y="143.5" ></text>
</g>
<g >
<title>[[kernel.kallsyms]] (10,101,010 samples, 0.07%)</title><rect x="10.0" y="149" width="0.8" height="15.0" fill="rgb(206,139,11)" rx="2" ry="2" />
<text  x="13.00" y="159.5" ></text>
</g>
<g >
<title>[[kernel.kallsyms]] (6,040,403,980 samples, 42.65%)</title><rect x="600.8" y="197" width="503.4" height="15.0" fill="rgb(208,189,3)" rx="2" ry="2" />
<text  x="603.84" y="207.5" >[[kernel.kallsyms]]</text>
</g>
<g >
<title>[[kernel.kallsyms]] (10,101,010 samples, 0.07%)</title><rect x="1189.2" y="85" width="0.8" height="15.0" fill="rgb(250,68,2)" rx="2" ry="2" />
<text  x="1192.16" y="95.5" ></text>
</g>
<g >
<title>[[kernel.kallsyms]] (10,101,010 samples, 0.07%)</title><rect x="599.2" y="245" width="0.8" height="15.0" fill="rgb(232,89,53)" rx="2" ry="2" />
<text  x="602.16" y="255.5" ></text>
</g>
<g >
<title>[[kernel.kallsyms]] (10,101,010 samples, 0.07%)</title><rect x="1189.2" y="213" width="0.8" height="15.0" fill="rgb(244,90,14)" rx="2" ry="2" />
<text  x="1192.16" y="223.5" ></text>
</g>
<g >
<title>sm_delcol.part.0 (10,101,010 samples, 0.07%)</title><rect x="214.5" y="229" width="0.9" height="15.0" fill="rgb(231,147,29)" rx="2" ry="2" />
<text  x="217.52" y="239.5" ></text>
</g>
<g >
<title>d1_order (10,101,010 samples, 0.07%)</title><rect x="434.2" y="261" width="0.8" height="15.0" fill="rgb(224,133,14)" rx="2" ry="2" />
<text  x="437.19" y="271.5" ></text>
</g>
<g >
<title>[[kernel.kallsyms]] (10,101,010 samples, 0.07%)</title><rect x="10.0" y="53" width="0.8" height="15.0" fill="rgb(210,16,5)" rx="2" ry="2" />
<text  x="13.00" y="63.5" ></text>
</g>
<g >
<title>scofactor (515,151,510 samples, 3.64%)</title><rect x="493.1" y="261" width="42.9" height="15.0" fill="rgb(230,44,46)" rx="2" ry="2" />
<text  x="496.11" y="271.5" >scof..</text>
</g>
<g >
<title>[[kernel.kallsyms]] (10,101,010 samples, 0.07%)</title><rect x="10.0" y="181" width="0.8" height="15.0" fill="rgb(218,157,10)" rx="2" ry="2" />
<text  x="13.00" y="191.5" ></text>
</g>
<g >
<title>_nl_find_locale (10,101,010 samples, 0.07%)</title><rect x="10.8" y="245" width="0.9" height="15.0" fill="rgb(237,200,31)" rx="2" ry="2" />
<text  x="13.84" y="255.5" ></text>
</g>
<g >
<title>[[kernel.kallsyms]] (10,101,010 samples, 0.07%)</title><rect x="10.0" y="165" width="0.8" height="15.0" fill="rgb(205,64,53)" rx="2" ry="2" />
<text  x="13.00" y="175.5" ></text>
</g>
<g >
<title>sm_row_dominance (30,303,030 samples, 0.21%)</title><rect x="587.4" y="261" width="2.5" height="15.0" fill="rgb(249,33,26)" rx="2" ry="2" />
<text  x="590.38" y="271.5" ></text>
</g>
<g >
<title>set_diff (10,101,010 samples, 0.07%)</title><rect x="344.1" y="245" width="0.9" height="15.0" fill="rgb(221,227,24)" rx="2" ry="2" />
<text  x="347.14" y="255.5" ></text>
</g>
<g >
<title>mini_sort (20,202,020 samples, 0.14%)</title><rect x="339.9" y="245" width="1.7" height="15.0" fill="rgb(219,223,9)" rx="2" ry="2" />
<text  x="342.93" y="255.5" ></text>
</g>
<g >
<title>[[kernel.kallsyms]] (10,101,010 samples, 0.07%)</title><rect x="600.0" y="69" width="0.8" height="15.0" fill="rgb(219,16,20)" rx="2" ry="2" />
<text  x="603.00" y="79.5" ></text>
</g>
<g >
<title>[[kernel.kallsyms]] (6,040,403,980 samples, 42.65%)</title><rect x="600.8" y="213" width="503.4" height="15.0" fill="rgb(235,211,19)" rx="2" ry="2" />
<text  x="603.84" y="223.5" >[[kernel.kallsyms]]</text>
</g>
<g >
<title>__GI___execve (10,101,010 samples, 0.07%)</title><rect x="10.0" y="261" width="0.8" height="15.0" fill="rgb(219,216,2)" rx="2" ry="2" />
<text  x="13.00" y="271.5" ></text>
</g>
<g >
<title>set_clear (10,101,010 samples, 0.07%)</title><rect x="212.0" y="229" width="0.8" height="15.0" fill="rgb(222,18,36)" rx="2" ry="2" />
<text  x="215.00" y="239.5" ></text>
</g>
<g >
<title>dirname (10,101,010 samples, 0.07%)</title><rect x="10.8" y="277" width="0.9" height="15.0" fill="rgb(213,88,36)" rx="2" ry="2" />
<text  x="13.84" y="287.5" ></text>
</g>
<g >
<title>[[kernel.kallsyms]] (20,202,020 samples, 0.14%)</title><rect x="369.4" y="213" width="1.7" height="15.0" fill="rgb(249,139,30)" rx="2" ry="2" />
<text  x="372.39" y="223.5" ></text>
</g>
<g >
<title>binate_split_select (50,505,050 samples, 0.36%)</title><rect x="263.3" y="245" width="4.2" height="15.0" fill="rgb(242,147,26)" rx="2" ry="2" />
<text  x="266.34" y="255.5" ></text>
</g>
<g >
<title>[[kernel.kallsyms]] (10,101,010 samples, 0.07%)</title><rect x="10.0" y="229" width="0.8" height="15.0" fill="rgb(225,152,39)" rx="2" ry="2" />
<text  x="13.00" y="239.5" ></text>
</g>
<g >
<title>[[kernel.kallsyms]] (10,101,010 samples, 0.07%)</title><rect x="370.2" y="165" width="0.9" height="15.0" fill="rgb(231,9,3)" rx="2" ry="2" />
<text  x="373.23" y="175.5" ></text>
</g>
<g >
<title>[unknown] (20,202,020 samples, 0.14%)</title><rect x="13.4" y="197" width="1.6" height="15.0" fill="rgb(217,127,32)" rx="2" ry="2" />
<text  x="16.37" y="207.5" ></text>
</g>
<g >
<title>compl_merge (10,101,010 samples, 0.07%)</title><rect x="273.4" y="245" width="0.9" height="15.0" fill="rgb(249,130,2)" rx="2" ry="2" />
<text  x="276.44" y="255.5" ></text>
</g>
<g >
<title>setp_disjoint (30,303,030 samples, 0.21%)</title><rect x="345.0" y="245" width="2.5" height="15.0" fill="rgb(209,149,54)" rx="2" ry="2" />
<text  x="347.98" y="255.5" ></text>
</g>
<g >
<title>sm_col_contains (20,202,020 samples, 0.14%)</title><rect x="357.6" y="245" width="1.7" height="15.0" fill="rgb(238,228,36)" rx="2" ry="2" />
<text  x="360.60" y="255.5" ></text>
</g>
<g >
<title>_IO_getc (10,101,010 samples, 0.07%)</title><rect x="244.0" y="245" width="0.8" height="15.0" fill="rgb(220,223,40)" rx="2" ry="2" />
<text  x="246.98" y="255.5" ></text>
</g>
<g >
<title>[[kernel.kallsyms]] (10,101,010 samples, 0.07%)</title><rect x="599.2" y="165" width="0.8" height="15.0" fill="rgb(231,33,38)" rx="2" ry="2" />
<text  x="602.16" y="175.5" ></text>
</g>
<g >
<title>[[kernel.kallsyms]] (10,101,010 samples, 0.07%)</title><rect x="600.0" y="197" width="0.8" height="15.0" fill="rgb(243,68,54)" rx="2" ry="2" />
<text  x="603.00" y="207.5" ></text>
</g>
<g >
<title>[[kernel.kallsyms]] (10,101,010 samples, 0.07%)</title><rect x="1189.2" y="101" width="0.8" height="15.0" fill="rgb(242,69,12)" rx="2" ry="2" />
<text  x="1192.16" y="111.5" ></text>
</g>
<g >
<title>expand1 (10,101,010 samples, 0.07%)</title><rect x="329.8" y="245" width="0.9" height="15.0" fill="rgb(248,208,23)" rx="2" ry="2" />
<text  x="332.83" y="255.5" ></text>
</g>
<g >
<title>sm_delcol.part.0 (10,101,010 samples, 0.07%)</title><rect x="362.7" y="245" width="0.8" height="15.0" fill="rgb(219,112,46)" rx="2" ry="2" />
<text  x="365.65" y="255.5" ></text>
</g>
<g >
<title>__GI___libc_write (10,101,010 samples, 0.07%)</title><rect x="1189.2" y="245" width="0.8" height="15.0" fill="rgb(234,91,42)" rx="2" ry="2" />
<text  x="1192.16" y="255.5" ></text>
</g>
<g >
<title>[[kernel.kallsyms]] (10,101,010 samples, 0.07%)</title><rect x="1189.2" y="117" width="0.8" height="15.0" fill="rgb(217,130,31)" rx="2" ry="2" />
<text  x="1192.16" y="127.5" ></text>
</g>
<g >
<title>set_dist (20,202,020 samples, 0.14%)</title><rect x="551.2" y="261" width="1.7" height="15.0" fill="rgb(233,147,21)" rx="2" ry="2" />
<text  x="554.18" y="271.5" ></text>
</g>
<g >
<title>complement (10,101,010 samples, 0.07%)</title><rect x="21.8" y="229" width="0.8" height="15.0" fill="rgb(233,60,41)" rx="2" ry="2" />
<text  x="24.78" y="239.5" ></text>
</g>
<g >
<title>[[kernel.kallsyms]] (10,101,010 samples, 0.07%)</title><rect x="10.0" y="197" width="0.8" height="15.0" fill="rgb(210,191,4)" rx="2" ry="2" />
<text  x="13.00" y="207.5" ></text>
</g>
</g>
</svg>
