<?xml version="1.0" standalone="no"?>
<!DOCTYPE svg PUBLIC "-//W3C//DTD SVG 1.1//EN" "http://www.w3.org/Graphics/SVG/1.1/DTD/svg11.dtd">
<svg version="1.1" width="1200" height="358" onload="init(evt)" viewBox="0 0 1200 358" xmlns="http://www.w3.org/2000/svg" xmlns:xlink="http://www.w3.org/1999/xlink">
<!-- Flame graph stack visualization. See https://github.com/brendangregg/FlameGraph for latest version, and http://www.brendangregg.com/flamegraphs.html for examples. -->
<!-- NOTES:  -->
<defs>
	<linearGradient id="background" y1="0" y2="1" x1="0" x2="0" >
		<stop stop-color="#eeeeee" offset="5%" />
		<stop stop-color="#eeeeb0" offset="95%" />
	</linearGradient>
</defs>
<style type="text/css">
	text { font-family:Verdana; font-size:12px; fill:rgb(0,0,0); }
	#search, #ignorecase { opacity:0.1; cursor:pointer; }
	#search:hover, #search.show, #ignorecase:hover, #ignorecase.show { opacity:1; }
	#subtitle { text-anchor:middle; font-color:rgb(160,160,160); }
	#title { text-anchor:middle; font-size:17px}
	#unzoom { cursor:pointer; }
	#frames > *:hover { stroke:black; stroke-width:0.5; cursor:pointer; }
	.hide { display:none; }
	.parent { opacity:0.5; }
</style>
<script type="text/ecmascript">
<![CDATA[
	"use strict";
	var details, searchbtn, unzoombtn, matchedtxt, svg, searching, currentSearchTerm, ignorecase, ignorecaseBtn;
	function init(evt) {
		details = document.getElementById("details").firstChild;
		searchbtn = document.getElementById("search");
		ignorecaseBtn = document.getElementById("ignorecase");
		unzoombtn = document.getElementById("unzoom");
		matchedtxt = document.getElementById("matched");
		svg = document.getElementsByTagName("svg")[0];
		searching = 0;
		currentSearchTerm = null;

		// use GET parameters to restore a flamegraphs state.
		var params = get_params();
		if (params.x && params.y)
			zoom(find_group(document.querySelector('[x="' + params.x + '"][y="' + params.y + '"]')));
                if (params.s) search(params.s);
	}

	// event listeners
	window.addEventListener("click", function(e) {
		var target = find_group(e.target);
		if (target) {
			if (target.nodeName == "a") {
				if (e.ctrlKey === false) return;
				e.preventDefault();
			}
			if (target.classList.contains("parent")) unzoom(true);
			zoom(target);
			if (!document.querySelector('.parent')) {
				// we have basically done a clearzoom so clear the url
				var params = get_params();
				if (params.x) delete params.x;
				if (params.y) delete params.y;
				history.replaceState(null, null, parse_params(params));
				unzoombtn.classList.add("hide");
				return;
			}

			// set parameters for zoom state
			var el = target.querySelector("rect");
			if (el && el.attributes && el.attributes.y && el.attributes._orig_x) {
				var params = get_params()
				params.x = el.attributes._orig_x.value;
				params.y = el.attributes.y.value;
				history.replaceState(null, null, parse_params(params));
			}
		}
		else if (e.target.id == "unzoom") clearzoom();
		else if (e.target.id == "search") search_prompt();
		else if (e.target.id == "ignorecase") toggle_ignorecase();
	}, false)

	// mouse-over for info
	// show
	window.addEventListener("mouseover", function(e) {
		var target = find_group(e.target);
		if (target) details.nodeValue = "Function: " + g_to_text(target);
	}, false)

	// clear
	window.addEventListener("mouseout", function(e) {
		var target = find_group(e.target);
		if (target) details.nodeValue = ' ';
	}, false)

	// ctrl-F for search
	// ctrl-I to toggle case-sensitive search
	window.addEventListener("keydown",function (e) {
		if (e.keyCode === 114 || (e.ctrlKey && e.keyCode === 70)) {
			e.preventDefault();
			search_prompt();
		}
		else if (e.ctrlKey && e.keyCode === 73) {
			e.preventDefault();
			toggle_ignorecase();
		}
	}, false)

	// functions
	function get_params() {
		var params = {};
		var paramsarr = window.location.search.substr(1).split('&');
		for (var i = 0; i < paramsarr.length; ++i) {
			var tmp = paramsarr[i].split("=");
			if (!tmp[0] || !tmp[1]) continue;
			params[tmp[0]]  = decodeURIComponent(tmp[1]);
		}
		return params;
	}
	function parse_params(params) {
		var uri = "?";
		for (var key in params) {
			uri += key + '=' + encodeURIComponent(params[key]) + '&';
		}
		if (uri.slice(-1) == "&")
			uri = uri.substring(0, uri.length - 1);
		if (uri == '?')
			uri = window.location.href.split('?')[0];
		return uri;
	}
	function find_child(node, selector) {
		var children = node.querySelectorAll(selector);
		if (children.length) return children[0];
	}
	function find_group(node) {
		var parent = node.parentElement;
		if (!parent) return;
		if (parent.id == "frames") return node;
		return find_group(parent);
	}
	function orig_save(e, attr, val) {
		if (e.attributes["_orig_" + attr] != undefined) return;
		if (e.attributes[attr] == undefined) return;
		if (val == undefined) val = e.attributes[attr].value;
		e.setAttribute("_orig_" + attr, val);
	}
	function orig_load(e, attr) {
		if (e.attributes["_orig_"+attr] == undefined) return;
		e.attributes[attr].value = e.attributes["_orig_" + attr].value;
		e.removeAttribute("_orig_"+attr);
	}
	function g_to_text(e) {
		var text = find_child(e, "title").firstChild.nodeValue;
		return (text)
	}
	function g_to_func(e) {
		var func = g_to_text(e);
		// if there's any manipulation we want to do to the function
		// name before it's searched, do it here before returning.
		return (func);
	}
	function update_text(e) {
		var r = find_child(e, "rect");
		var t = find_child(e, "text");
		var w = parseFloat(r.attributes.width.value) -3;
		var txt = find_child(e, "title").textContent.replace(/\([^(]*\)$/,"");
		t.attributes.x.value = parseFloat(r.attributes.x.value) + 3;

		// Smaller than this size won't fit anything
		if (w < 2 * 12 * 0.59) {
			t.textContent = "";
			return;
		}

		t.textContent = txt;
		var sl = t.getSubStringLength(0, txt.length);
		// check if only whitespace or if we can fit the entire string into width w
		if (/^ *$/.test(txt) || sl < w)
			return;

		// this isn't perfect, but gives a good starting point
		// and avoids calling getSubStringLength too often
		var start = Math.floor((w/sl) * txt.length);
		for (var x = start; x > 0; x = x-2) {
			if (t.getSubStringLength(0, x + 2) <= w) {
				t.textContent = txt.substring(0, x) + "..";
				return;
			}
		}
		t.textContent = "";
	}

	// zoom
	function zoom_reset(e) {
		if (e.attributes != undefined) {
			orig_load(e, "x");
			orig_load(e, "width");
		}
		if (e.childNodes == undefined) return;
		for (var i = 0, c = e.childNodes; i < c.length; i++) {
			zoom_reset(c[i]);
		}
	}
	function zoom_child(e, x, ratio) {
		if (e.attributes != undefined) {
			if (e.attributes.x != undefined) {
				orig_save(e, "x");
				e.attributes.x.value = (parseFloat(e.attributes.x.value) - x - 10) * ratio + 10;
				if (e.tagName == "text")
					e.attributes.x.value = find_child(e.parentNode, "rect[x]").attributes.x.value + 3;
			}
			if (e.attributes.width != undefined) {
				orig_save(e, "width");
				e.attributes.width.value = parseFloat(e.attributes.width.value) * ratio;
			}
		}

		if (e.childNodes == undefined) return;
		for (var i = 0, c = e.childNodes; i < c.length; i++) {
			zoom_child(c[i], x - 10, ratio);
		}
	}
	function zoom_parent(e) {
		if (e.attributes) {
			if (e.attributes.x != undefined) {
				orig_save(e, "x");
				e.attributes.x.value = 10;
			}
			if (e.attributes.width != undefined) {
				orig_save(e, "width");
				e.attributes.width.value = parseInt(svg.width.baseVal.value) - (10 * 2);
			}
		}
		if (e.childNodes == undefined) return;
		for (var i = 0, c = e.childNodes; i < c.length; i++) {
			zoom_parent(c[i]);
		}
	}
	function zoom(node) {
		var attr = find_child(node, "rect").attributes;
		var width = parseFloat(attr.width.value);
		var xmin = parseFloat(attr.x.value);
		var xmax = parseFloat(xmin + width);
		var ymin = parseFloat(attr.y.value);
		var ratio = (svg.width.baseVal.value - 2 * 10) / width;

		// XXX: Workaround for JavaScript float issues (fix me)
		var fudge = 0.0001;

		unzoombtn.classList.remove("hide");

		var el = document.getElementById("frames").children;
		for (var i = 0; i < el.length; i++) {
			var e = el[i];
			var a = find_child(e, "rect").attributes;
			var ex = parseFloat(a.x.value);
			var ew = parseFloat(a.width.value);
			var upstack;
			// Is it an ancestor
			if (0 == 0) {
				upstack = parseFloat(a.y.value) > ymin;
			} else {
				upstack = parseFloat(a.y.value) < ymin;
			}
			if (upstack) {
				// Direct ancestor
				if (ex <= xmin && (ex+ew+fudge) >= xmax) {
					e.classList.add("parent");
					zoom_parent(e);
					update_text(e);
				}
				// not in current path
				else
					e.classList.add("hide");
			}
			// Children maybe
			else {
				// no common path
				if (ex < xmin || ex + fudge >= xmax) {
					e.classList.add("hide");
				}
				else {
					zoom_child(e, xmin, ratio);
					update_text(e);
				}
			}
		}
		search();
	}
	function unzoom(dont_update_text) {
		unzoombtn.classList.add("hide");
		var el = document.getElementById("frames").children;
		for(var i = 0; i < el.length; i++) {
			el[i].classList.remove("parent");
			el[i].classList.remove("hide");
			zoom_reset(el[i]);
			if(!dont_update_text) update_text(el[i]);
		}
		search();
	}
	function clearzoom() {
		unzoom();

		// remove zoom state
		var params = get_params();
		if (params.x) delete params.x;
		if (params.y) delete params.y;
		history.replaceState(null, null, parse_params(params));
	}

	// search
	function toggle_ignorecase() {
		ignorecase = !ignorecase;
		if (ignorecase) {
			ignorecaseBtn.classList.add("show");
		} else {
			ignorecaseBtn.classList.remove("show");
		}
		reset_search();
		search();
	}
	function reset_search() {
		var el = document.querySelectorAll("#frames rect");
		for (var i = 0; i < el.length; i++) {
			orig_load(el[i], "fill")
		}
		var params = get_params();
		delete params.s;
		history.replaceState(null, null, parse_params(params));
	}
	function search_prompt() {
		if (!searching) {
			var term = prompt("Enter a search term (regexp " +
			    "allowed, eg: ^ext4_)"
			    + (ignorecase ? ", ignoring case" : "")
			    + "\nPress Ctrl-i to toggle case sensitivity", "");
			if (term != null) search(term);
		} else {
			reset_search();
			searching = 0;
			currentSearchTerm = null;
			searchbtn.classList.remove("show");
			searchbtn.firstChild.nodeValue = "Search"
			matchedtxt.classList.add("hide");
			matchedtxt.firstChild.nodeValue = ""
		}
	}
	function search(term) {
		if (term) currentSearchTerm = term;

		var re = new RegExp(currentSearchTerm, ignorecase ? 'i' : '');
		var el = document.getElementById("frames").children;
		var matches = new Object();
		var maxwidth = 0;
		for (var i = 0; i < el.length; i++) {
			var e = el[i];
			var func = g_to_func(e);
			var rect = find_child(e, "rect");
			if (func == null || rect == null)
				continue;

			// Save max width. Only works as we have a root frame
			var w = parseFloat(rect.attributes.width.value);
			if (w > maxwidth)
				maxwidth = w;

			if (func.match(re)) {
				// highlight
				var x = parseFloat(rect.attributes.x.value);
				orig_save(rect, "fill");
				rect.attributes.fill.value = "rgb(230,0,230)";

				// remember matches
				if (matches[x] == undefined) {
					matches[x] = w;
				} else {
					if (w > matches[x]) {
						// overwrite with parent
						matches[x] = w;
					}
				}
				searching = 1;
			}
		}
		if (!searching)
			return;
		var params = get_params();
		params.s = currentSearchTerm;
		history.replaceState(null, null, parse_params(params));

		searchbtn.classList.add("show");
		searchbtn.firstChild.nodeValue = "Reset Search";

		// calculate percent matched, excluding vertical overlap
		var count = 0;
		var lastx = -1;
		var lastw = 0;
		var keys = Array();
		for (k in matches) {
			if (matches.hasOwnProperty(k))
				keys.push(k);
		}
		// sort the matched frames by their x location
		// ascending, then width descending
		keys.sort(function(a, b){
			return a - b;
		});
		// Step through frames saving only the biggest bottom-up frames
		// thanks to the sort order. This relies on the tree property
		// where children are always smaller than their parents.
		var fudge = 0.0001;	// JavaScript floating point
		for (var k in keys) {
			var x = parseFloat(keys[k]);
			var w = matches[keys[k]];
			if (x >= lastx + lastw - fudge) {
				count += w;
				lastx = x;
				lastw = w;
			}
		}
		// display matched percent
		matchedtxt.classList.remove("hide");
		var pct = 100 * count / maxwidth;
		if (pct != 100) pct = pct.toFixed(1)
		matchedtxt.firstChild.nodeValue = "Matched: " + pct + "%";
	}
]]>
</script>
<rect x="0.0" y="0" width="1200.0" height="358.0" fill="url(#background)"  />
<text id="title" x="600.00" y="24" >Flame Graph</text>
<text id="details" x="10.00" y="341" > </text>
<text id="unzoom" x="10.00" y="24" class="hide">Reset Zoom</text>
<text id="search" x="1090.00" y="24" >Search</text>
<text id="ignorecase" x="1174.00" y="24" >ic</text>
<text id="matched" x="1090.00" y="341" > </text>
<g id="frames">
<g >
<title>[[kernel.kallsyms]] (454,545,450 samples, 3.21%)</title><rect x="1152.1" y="149" width="37.9" height="15.0" fill="rgb(218,48,32)" rx="2" ry="2" />
<text  x="1155.13" y="159.5" >[[k..</text>
</g>
<g >
<title>complement (20,202,020 samples, 0.14%)</title><rect x="20.9" y="245" width="1.7" height="15.0" fill="rgb(232,122,24)" rx="2" ry="2" />
<text  x="23.94" y="255.5" ></text>
</g>
<g >
<title>essen_parts (272,727,270 samples, 1.93%)</title><rect x="339.9" y="261" width="22.8" height="15.0" fill="rgb(226,80,37)" rx="2" ry="2" />
<text  x="342.93" y="271.5" >e..</text>
</g>
<g >
<title>sm_mincov (20,202,020 samples, 0.14%)</title><rect x="241.5" y="245" width="1.6" height="15.0" fill="rgb(225,86,36)" rx="2" ry="2" />
<text  x="244.46" y="255.5" ></text>
</g>
<g >
<title>set_or (101,010,100 samples, 0.71%)</title><rect x="574.8" y="277" width="8.4" height="15.0" fill="rgb(237,82,14)" rx="2" ry="2" />
<text  x="577.75" y="287.5" ></text>
</g>
<g >
<title>dirname (10,101,010 samples, 0.07%)</title><rect x="11.7" y="293" width="0.8" height="15.0" fill="rgb(227,214,52)" rx="2" ry="2" />
<text  x="14.68" y="303.5" ></text>
</g>
<g >
<title>[[kernel.kallsyms]] (50,505,050 samples, 0.36%)</title><rect x="1147.9" y="149" width="4.2" height="15.0" fill="rgb(240,186,13)" rx="2" ry="2" />
<text  x="1150.92" y="159.5" ></text>
</g>
<g >
<title>compl_merge (10,101,010 samples, 0.07%)</title><rect x="20.1" y="245" width="0.8" height="15.0" fill="rgb(205,158,35)" rx="2" ry="2" />
<text  x="23.10" y="255.5" ></text>
</g>
<g >
<title>[unknown] (20,202,020 samples, 0.14%)</title><rect x="600.0" y="277" width="1.7" height="15.0" fill="rgb(247,93,45)" rx="2" ry="2" />
<text  x="603.00" y="287.5" ></text>
</g>
<g >
<title>setup_BB_CC (181,818,180 samples, 1.28%)</title><rect x="387.1" y="261" width="15.1" height="15.0" fill="rgb(211,46,46)" rx="2" ry="2" />
<text  x="390.06" y="271.5" ></text>
</g>
<g >
<title>[[kernel.kallsyms]] (454,545,450 samples, 3.21%)</title><rect x="1152.1" y="165" width="37.9" height="15.0" fill="rgb(206,164,35)" rx="2" ry="2" />
<text  x="1155.13" y="175.5" >[[k..</text>
</g>
<g >
<title>[[kernel.kallsyms]] (50,505,050 samples, 0.36%)</title><rect x="1147.9" y="165" width="4.2" height="15.0" fill="rgb(209,84,7)" rx="2" ry="2" />
<text  x="1150.92" y="175.5" ></text>
</g>
<g >
<title>do_sm_minimum_cover (90,909,090 samples, 0.64%)</title><rect x="307.9" y="261" width="7.6" height="15.0" fill="rgb(220,43,54)" rx="2" ry="2" />
<text  x="310.95" y="271.5" ></text>
</g>
<g >
<title>cofactor (333,333,330 samples, 2.35%)</title><rect x="450.2" y="277" width="27.8" height="15.0" fill="rgb(228,142,8)" rx="2" ry="2" />
<text  x="453.19" y="287.5" >c..</text>
</g>
<g >
<title>sm_col_remove_element (10,101,010 samples, 0.07%)</title><rect x="588.2" y="277" width="0.9" height="15.0" fill="rgb(219,87,0)" rx="2" ry="2" />
<text  x="591.22" y="287.5" ></text>
</g>
<g >
<title>set_and (40,404,040 samples, 0.29%)</title><rect x="565.5" y="277" width="3.4" height="15.0" fill="rgb(224,199,47)" rx="2" ry="2" />
<text  x="568.49" y="287.5" ></text>
</g>
<g >
<title>bench.sh (10,101,010 samples, 0.07%)</title><rect x="10.0" y="293" width="0.8" height="15.0" fill="rgb(232,133,4)" rx="2" ry="2" />
<text  x="13.00" y="303.5" ></text>
</g>
<g >
<title>set_or (30,303,030 samples, 0.21%)</title><rect x="235.6" y="245" width="2.5" height="15.0" fill="rgb(220,63,3)" rx="2" ry="2" />
<text  x="238.56" y="255.5" ></text>
</g>
<g >
<title>[[kernel.kallsyms]] (10,101,010 samples, 0.07%)</title><rect x="1151.3" y="37" width="0.8" height="15.0" fill="rgb(216,195,24)" rx="2" ry="2" />
<text  x="1154.28" y="47.5" ></text>
</g>
<g >
<title>[[kernel.kallsyms]] (10,101,010 samples, 0.07%)</title><rect x="11.7" y="149" width="0.8" height="15.0" fill="rgb(213,158,8)" rx="2" ry="2" />
<text  x="14.68" y="159.5" ></text>
</g>
<g >
<title>sm_row_intersects (20,202,020 samples, 0.14%)</title><rect x="243.1" y="245" width="1.7" height="15.0" fill="rgb(229,85,8)" rx="2" ry="2" />
<text  x="246.14" y="255.5" ></text>
</g>
<g >
<title>[[kernel.kallsyms]] (10,101,010 samples, 0.07%)</title><rect x="11.7" y="165" width="0.8" height="15.0" fill="rgb(207,87,3)" rx="2" ry="2" />
<text  x="14.68" y="175.5" ></text>
</g>
<g >
<title>sm_insert (10,101,010 samples, 0.07%)</title><rect x="595.0" y="277" width="0.8" height="15.0" fill="rgb(220,110,45)" rx="2" ry="2" />
<text  x="597.95" y="287.5" ></text>
</g>
<g >
<title>complement (20,202,020 samples, 0.14%)</title><rect x="306.3" y="261" width="1.6" height="15.0" fill="rgb(242,115,14)" rx="2" ry="2" />
<text  x="309.26" y="271.5" ></text>
</g>
<g >
<title>sf_new (10,101,010 samples, 0.07%)</title><rect x="584.9" y="277" width="0.8" height="15.0" fill="rgb(231,205,24)" rx="2" ry="2" />
<text  x="587.85" y="287.5" ></text>
</g>
<g >
<title>__memset_avx2_unaligned_erms (10,101,010 samples, 0.07%)</title><rect x="18.4" y="245" width="0.9" height="15.0" fill="rgb(252,95,37)" rx="2" ry="2" />
<text  x="21.42" y="255.5" ></text>
</g>
<g >
<title>sccc_special_cases (30,303,030 samples, 0.21%)</title><rect x="380.3" y="261" width="2.6" height="15.0" fill="rgb(217,169,13)" rx="2" ry="2" />
<text  x="383.33" y="271.5" ></text>
</g>
<g >
<title>sf_count (20,202,020 samples, 0.14%)</title><rect x="583.2" y="277" width="1.7" height="15.0" fill="rgb(205,118,15)" rx="2" ry="2" />
<text  x="586.17" y="287.5" ></text>
</g>
<g >
<title>strcmp (10,101,010 samples, 0.07%)</title><rect x="10.8" y="277" width="0.9" height="15.0" fill="rgb(253,134,26)" rx="2" ry="2" />
<text  x="13.84" y="287.5" ></text>
</g>
<g >
<title>set_diff (60,606,060 samples, 0.43%)</title><rect x="568.9" y="277" width="5.0" height="15.0" fill="rgb(208,44,9)" rx="2" ry="2" />
<text  x="571.86" y="287.5" ></text>
</g>
<g >
<title>unravel_range (20,202,020 samples, 0.14%)</title><rect x="598.3" y="277" width="1.7" height="15.0" fill="rgb(233,170,29)" rx="2" ry="2" />
<text  x="601.32" y="287.5" ></text>
</g>
<g >
<title>[[kernel.kallsyms]] (6,606,060,540 samples, 46.65%)</title><rect x="601.7" y="181" width="550.4" height="15.0" fill="rgb(239,219,36)" rx="2" ry="2" />
<text  x="604.68" y="191.5" >[[kernel.kallsyms]]</text>
</g>
<g >
<title>[espresso] (20,202,020 samples, 0.14%)</title><rect x="12.5" y="277" width="1.7" height="15.0" fill="rgb(214,13,31)" rx="2" ry="2" />
<text  x="15.52" y="287.5" ></text>
</g>
<g >
<title>essen_raising (40,404,040 samples, 0.29%)</title><rect x="362.7" y="261" width="3.3" height="15.0" fill="rgb(219,213,43)" rx="2" ry="2" />
<text  x="365.65" y="271.5" ></text>
</g>
<g >
<title>set_dist (10,101,010 samples, 0.07%)</title><rect x="573.9" y="277" width="0.9" height="15.0" fill="rgb(240,227,16)" rx="2" ry="2" />
<text  x="576.91" y="287.5" ></text>
</g>
<g >
<title>[[kernel.kallsyms]] (10,101,010 samples, 0.07%)</title><rect x="11.7" y="133" width="0.8" height="15.0" fill="rgb(236,159,18)" rx="2" ry="2" />
<text  x="14.68" y="143.5" ></text>
</g>
<g >
<title>swapper (7,060,605,990 samples, 49.86%)</title><rect x="601.7" y="293" width="588.3" height="15.0" fill="rgb(220,201,8)" rx="2" ry="2" />
<text  x="604.68" y="303.5" >swapper</text>
</g>
<g >
<title>elim_lowering (292,929,290 samples, 2.07%)</title><rect x="315.5" y="261" width="24.4" height="15.0" fill="rgb(211,161,37)" rx="2" ry="2" />
<text  x="318.52" y="271.5" >e..</text>
</g>
<g >
<title>set_or (10,101,010 samples, 0.07%)</title><rect x="386.2" y="261" width="0.9" height="15.0" fill="rgb(217,113,27)" rx="2" ry="2" />
<text  x="389.22" y="271.5" ></text>
</g>
<g >
<title>_dl_sysdep_start (10,101,010 samples, 0.07%)</title><rect x="11.7" y="261" width="0.8" height="15.0" fill="rgb(211,40,25)" rx="2" ry="2" />
<text  x="14.68" y="271.5" ></text>
</g>
<g >
<title>set_copy (10,101,010 samples, 0.07%)</title><rect x="382.9" y="261" width="0.8" height="15.0" fill="rgb(209,63,14)" rx="2" ry="2" />
<text  x="385.85" y="271.5" ></text>
</g>
<g >
<title>[[kernel.kallsyms]] (454,545,450 samples, 3.21%)</title><rect x="1152.1" y="197" width="37.9" height="15.0" fill="rgb(212,145,21)" rx="2" ry="2" />
<text  x="1155.13" y="207.5" >[[k..</text>
</g>
<g >
<title>sm_col_free (10,101,010 samples, 0.07%)</title><rect x="411.5" y="261" width="0.8" height="15.0" fill="rgb(211,24,14)" rx="2" ry="2" />
<text  x="414.47" y="271.5" ></text>
</g>
<g >
<title>mprotect (10,101,010 samples, 0.07%)</title><rect x="11.7" y="229" width="0.8" height="15.0" fill="rgb(231,102,44)" rx="2" ry="2" />
<text  x="14.68" y="239.5" ></text>
</g>
<g >
<title>[espresso] (10,101,010 samples, 0.07%)</title><rect x="14.2" y="261" width="0.8" height="15.0" fill="rgb(222,182,26)" rx="2" ry="2" />
<text  x="17.21" y="271.5" ></text>
</g>
<g >
<title>[[kernel.kallsyms]] (20,202,020 samples, 0.14%)</title><rect x="419.0" y="261" width="1.7" height="15.0" fill="rgb(250,86,7)" rx="2" ry="2" />
<text  x="422.04" y="271.5" ></text>
</g>
<g >
<title>[[kernel.kallsyms]] (454,545,450 samples, 3.21%)</title><rect x="1152.1" y="117" width="37.9" height="15.0" fill="rgb(234,61,37)" rx="2" ry="2" />
<text  x="1155.13" y="127.5" >[[k..</text>
</g>
<g >
<title>[[kernel.kallsyms]] (50,505,050 samples, 0.36%)</title><rect x="1147.9" y="117" width="4.2" height="15.0" fill="rgb(249,77,10)" rx="2" ry="2" />
<text  x="1150.92" y="127.5" ></text>
</g>
<g >
<title>_int_free (171,717,170 samples, 1.21%)</title><rect x="276.0" y="261" width="14.3" height="15.0" fill="rgb(218,12,41)" rx="2" ry="2" />
<text  x="278.96" y="271.5" ></text>
</g>
<g >
<title>[unknown] (454,545,450 samples, 3.21%)</title><rect x="1152.1" y="261" width="37.9" height="15.0" fill="rgb(235,132,2)" rx="2" ry="2" />
<text  x="1155.13" y="271.5" >[un..</text>
</g>
<g >
<title>sm_row_dominance (10,101,010 samples, 0.07%)</title><rect x="596.6" y="277" width="0.9" height="15.0" fill="rgb(220,158,12)" rx="2" ry="2" />
<text  x="599.63" y="287.5" ></text>
</g>
<g >
<title>[[kernel.kallsyms]] (6,606,060,540 samples, 46.65%)</title><rect x="601.7" y="261" width="550.4" height="15.0" fill="rgb(226,82,27)" rx="2" ry="2" />
<text  x="604.68" y="271.5" >[[kernel.kallsyms]]</text>
</g>
<g >
<title>sm_delrow.part.0 (10,101,010 samples, 0.07%)</title><rect x="15.9" y="229" width="0.8" height="15.0" fill="rgb(238,9,30)" rx="2" ry="2" />
<text  x="18.89" y="239.5" ></text>
</g>
<g >
<title>scofactor (363,636,360 samples, 2.57%)</title><rect x="533.5" y="277" width="30.3" height="15.0" fill="rgb(248,119,39)" rx="2" ry="2" />
<text  x="536.51" y="287.5" >sc..</text>
</g>
<g >
<title>[unknown] (454,545,450 samples, 3.21%)</title><rect x="1152.1" y="213" width="37.9" height="15.0" fill="rgb(251,37,38)" rx="2" ry="2" />
<text  x="1155.13" y="223.5" >[un..</text>
</g>
<g >
<title>[[kernel.kallsyms]] (30,303,030 samples, 0.21%)</title><rect x="1149.6" y="101" width="2.5" height="15.0" fill="rgb(235,119,46)" rx="2" ry="2" />
<text  x="1152.60" y="111.5" ></text>
</g>
<g >
<title>mincov (40,404,040 samples, 0.29%)</title><rect x="375.3" y="261" width="3.3" height="15.0" fill="rgb(217,139,18)" rx="2" ry="2" />
<text  x="378.28" y="271.5" ></text>
</g>
<g >
<title>[[kernel.kallsyms]] (30,303,030 samples, 0.21%)</title><rect x="1149.6" y="85" width="2.5" height="15.0" fill="rgb(226,44,37)" rx="2" ry="2" />
<text  x="1152.60" y="95.5" ></text>
</g>
<g >
<title>sf_list (10,101,010 samples, 0.07%)</title><rect x="403.1" y="261" width="0.8" height="15.0" fill="rgb(224,206,16)" rx="2" ry="2" />
<text  x="406.05" y="271.5" ></text>
</g>
<g >
<title>read_cube (20,202,020 samples, 0.14%)</title><rect x="531.8" y="277" width="1.7" height="15.0" fill="rgb(230,34,50)" rx="2" ry="2" />
<text  x="534.83" y="287.5" ></text>
</g>
<g >
<title>[[kernel.kallsyms]] (7,060,605,990 samples, 49.86%)</title><rect x="601.7" y="277" width="588.3" height="15.0" fill="rgb(231,52,28)" rx="2" ry="2" />
<text  x="604.68" y="287.5" >[[kernel.kallsyms]]</text>
</g>
<g >
<title>force_lower (101,010,100 samples, 0.71%)</title><rect x="366.9" y="261" width="8.4" height="15.0" fill="rgb(226,168,43)" rx="2" ry="2" />
<text  x="369.86" y="271.5" ></text>
</g>
<g >
<title>scofactor (10,101,010 samples, 0.07%)</title><rect x="233.9" y="245" width="0.8" height="15.0" fill="rgb(238,189,42)" rx="2" ry="2" />
<text  x="236.88" y="255.5" ></text>
</g>
<g >
<title>setp_equal (10,101,010 samples, 0.07%)</title><rect x="238.1" y="245" width="0.8" height="15.0" fill="rgb(235,131,0)" rx="2" ry="2" />
<text  x="241.09" y="255.5" ></text>
</g>
<g >
<title>__memset_avx2_unaligned_erms (10,101,010 samples, 0.07%)</title><rect x="417.4" y="277" width="0.8" height="15.0" fill="rgb(243,63,43)" rx="2" ry="2" />
<text  x="420.36" y="287.5" ></text>
</g>
<g >
<title>sm_col_contains (20,202,020 samples, 0.14%)</title><rect x="585.7" y="277" width="1.7" height="15.0" fill="rgb(221,190,19)" rx="2" ry="2" />
<text  x="588.69" y="287.5" ></text>
</g>
<g >
<title>_int_malloc (353,535,350 samples, 2.50%)</title><rect x="420.7" y="277" width="29.5" height="15.0" fill="rgb(226,175,50)" rx="2" ry="2" />
<text  x="423.73" y="287.5" >_i..</text>
</g>
<g >
<title>taut_special_cases (363,636,360 samples, 2.57%)</title><rect x="244.8" y="245" width="30.3" height="15.0" fill="rgb(217,202,24)" rx="2" ry="2" />
<text  x="247.82" y="255.5" >ta..</text>
</g>
<g >
<title>sm_dup (70,707,070 samples, 0.50%)</title><rect x="589.1" y="277" width="5.9" height="15.0" fill="rgb(239,135,26)" rx="2" ry="2" />
<text  x="592.06" y="287.5" ></text>
</g>
<g >
<title>full_row (242,424,240 samples, 1.71%)</title><rect x="22.6" y="245" width="20.2" height="15.0" fill="rgb(240,53,8)" rx="2" ry="2" />
<text  x="25.62" y="255.5" ></text>
</g>
<g >
<title>cat (10,101,010 samples, 0.07%)</title><rect x="10.8" y="293" width="0.9" height="15.0" fill="rgb(207,146,8)" rx="2" ry="2" />
<text  x="13.84" y="303.5" ></text>
</g>
<g >
<title>[[kernel.kallsyms]] (6,606,060,540 samples, 46.65%)</title><rect x="601.7" y="197" width="550.4" height="15.0" fill="rgb(224,124,40)" rx="2" ry="2" />
<text  x="604.68" y="207.5" >[[kernel.kallsyms]]</text>
</g>
<g >
<title>feasibly_covered (10,101,010 samples, 0.07%)</title><rect x="366.0" y="261" width="0.9" height="15.0" fill="rgb(242,90,49)" rx="2" ry="2" />
<text  x="369.02" y="271.5" ></text>
</g>
<g >
<title>malloc (181,818,180 samples, 1.28%)</title><rect x="482.2" y="277" width="15.1" height="15.0" fill="rgb(243,25,11)" rx="2" ry="2" />
<text  x="485.17" y="287.5" ></text>
</g>
<g >
<title>set_merge (10,101,010 samples, 0.07%)</title><rect x="385.4" y="261" width="0.8" height="15.0" fill="rgb(214,180,24)" rx="2" ry="2" />
<text  x="388.38" y="271.5" ></text>
</g>
<g >
<title>d1_order (50,505,050 samples, 0.36%)</title><rect x="478.0" y="277" width="4.2" height="15.0" fill="rgb(235,65,26)" rx="2" ry="2" />
<text  x="480.96" y="287.5" ></text>
</g>
<g >
<title>sm_col_dominance (10,101,010 samples, 0.07%)</title><rect x="587.4" y="277" width="0.8" height="15.0" fill="rgb(228,121,5)" rx="2" ry="2" />
<text  x="590.38" y="287.5" ></text>
</g>
<g >
<title>set_diff (10,101,010 samples, 0.07%)</title><rect x="383.7" y="261" width="0.8" height="15.0" fill="rgb(250,78,31)" rx="2" ry="2" />
<text  x="386.69" y="271.5" ></text>
</g>
<g >
<title>sf_addset (10,101,010 samples, 0.07%)</title><rect x="402.2" y="261" width="0.9" height="15.0" fill="rgb(207,187,18)" rx="2" ry="2" />
<text  x="405.21" y="271.5" ></text>
</g>
<g >
<title>[[kernel.kallsyms]] (50,505,050 samples, 0.36%)</title><rect x="1147.9" y="133" width="4.2" height="15.0" fill="rgb(235,9,52)" rx="2" ry="2" />
<text  x="1150.92" y="143.5" ></text>
</g>
<g >
<title>sm_col_dominance (30,303,030 samples, 0.21%)</title><rect x="408.9" y="261" width="2.6" height="15.0" fill="rgb(248,74,38)" rx="2" ry="2" />
<text  x="411.94" y="271.5" ></text>
</g>
<g >
<title>[[kernel.kallsyms]] (20,202,020 samples, 0.14%)</title><rect x="1150.4" y="69" width="1.7" height="15.0" fill="rgb(224,11,11)" rx="2" ry="2" />
<text  x="1153.44" y="79.5" ></text>
</g>
<g >
<title>[unknown] (10,101,010 samples, 0.07%)</title><rect x="11.7" y="277" width="0.8" height="15.0" fill="rgb(243,155,16)" rx="2" ry="2" />
<text  x="14.68" y="287.5" ></text>
</g>
<g >
<title>[unknown] (4,818,181,770 samples, 34.02%)</title><rect x="14.2" y="277" width="401.5" height="15.0" fill="rgb(235,153,23)" rx="2" ry="2" />
<text  x="17.21" y="287.5" >[unknown]</text>
</g>
<g >
<title>[[kernel.kallsyms]] (6,606,060,540 samples, 46.65%)</title><rect x="601.7" y="213" width="550.4" height="15.0" fill="rgb(251,130,24)" rx="2" ry="2" />
<text  x="604.68" y="223.5" >[[kernel.kallsyms]]</text>
</g>
<g >
<title>set_clear (10,101,010 samples, 0.07%)</title><rect x="234.7" y="245" width="0.9" height="15.0" fill="rgb(246,104,34)" rx="2" ry="2" />
<text  x="237.72" y="255.5" ></text>
</g>
<g >
<title>compl_cube (30,303,030 samples, 0.21%)</title><rect x="297.0" y="261" width="2.5" height="15.0" fill="rgb(212,223,27)" rx="2" ry="2" />
<text  x="300.00" y="271.5" ></text>
</g>
<g >
<title>_int_free (10,101,010 samples, 0.07%)</title><rect x="15.0" y="213" width="0.9" height="15.0" fill="rgb(253,215,11)" rx="2" ry="2" />
<text  x="18.05" y="223.5" ></text>
</g>
<g >
<title>sm_col_contains (60,606,060 samples, 0.43%)</title><rect x="403.9" y="261" width="5.0" height="15.0" fill="rgb(220,183,51)" rx="2" ry="2" />
<text  x="406.89" y="271.5" ></text>
</g>
<g >
<title>[unknown] (3,131,313,100 samples, 22.11%)</title><rect x="15.0" y="261" width="261.0" height="15.0" fill="rgb(249,134,27)" rx="2" ry="2" />
<text  x="18.05" y="271.5" >[unknown]</text>
</g>
<g >
<title>[[kernel.kallsyms]] (454,545,450 samples, 3.21%)</title><rect x="1152.1" y="133" width="37.9" height="15.0" fill="rgb(222,186,51)" rx="2" ry="2" />
<text  x="1155.13" y="143.5" >[[k..</text>
</g>
<g >
<title>qsort (10,101,010 samples, 0.07%)</title><rect x="378.6" y="261" width="0.9" height="15.0" fill="rgb(214,159,29)" rx="2" ry="2" />
<text  x="381.64" y="271.5" ></text>
</g>
<g >
<title>[[kernel.kallsyms]] (20,202,020 samples, 0.14%)</title><rect x="419.0" y="229" width="1.7" height="15.0" fill="rgb(254,172,4)" rx="2" ry="2" />
<text  x="422.04" y="239.5" ></text>
</g>
<g >
<title>[[kernel.kallsyms]] (10,101,010 samples, 0.07%)</title><rect x="11.7" y="117" width="0.8" height="15.0" fill="rgb(231,183,44)" rx="2" ry="2" />
<text  x="14.68" y="127.5" ></text>
</g>
<g >
<title>sccc_special_cases (10,101,010 samples, 0.07%)</title><rect x="233.0" y="245" width="0.9" height="15.0" fill="rgb(248,143,43)" rx="2" ry="2" />
<text  x="236.04" y="255.5" ></text>
</g>
<g >
<title>[unknown] (454,545,450 samples, 3.21%)</title><rect x="1152.1" y="245" width="37.9" height="15.0" fill="rgb(241,91,21)" rx="2" ry="2" />
<text  x="1155.13" y="255.5" >[un..</text>
</g>
<g >
<title>dl_main (10,101,010 samples, 0.07%)</title><rect x="11.7" y="245" width="0.8" height="15.0" fill="rgb(229,99,2)" rx="2" ry="2" />
<text  x="14.68" y="255.5" ></text>
</g>
<g >
<title>[[kernel.kallsyms]] (10,101,010 samples, 0.07%)</title><rect x="11.7" y="197" width="0.8" height="15.0" fill="rgb(249,188,28)" rx="2" ry="2" />
<text  x="14.68" y="207.5" ></text>
</g>
<g >
<title>massive_count (313,131,310 samples, 2.21%)</title><rect x="505.7" y="277" width="26.1" height="15.0" fill="rgb(248,54,1)" rx="2" ry="2" />
<text  x="508.73" y="287.5" >m..</text>
</g>
<g >
<title>set_dist (10,101,010 samples, 0.07%)</title><rect x="384.5" y="261" width="0.9" height="15.0" fill="rgb(251,170,40)" rx="2" ry="2" />
<text  x="387.54" y="271.5" ></text>
</g>
<g >
<title>all (14,161,616,020 samples, 100%)</title><rect x="10.0" y="309" width="1180.0" height="15.0" fill="rgb(237,149,4)" rx="2" ry="2" />
<text  x="13.00" y="319.5" ></text>
</g>
<g >
<title>_PyEval_EvalFrameDefault (20,202,020 samples, 0.14%)</title><rect x="600.0" y="261" width="1.7" height="15.0" fill="rgb(235,121,45)" rx="2" ry="2" />
<text  x="603.00" y="271.5" ></text>
</g>
<g >
<title>[bash] (10,101,010 samples, 0.07%)</title><rect x="10.0" y="261" width="0.8" height="15.0" fill="rgb(238,229,40)" rx="2" ry="2" />
<text  x="13.00" y="271.5" ></text>
</g>
<g >
<title>malloc_consolidate (101,010,100 samples, 0.71%)</title><rect x="497.3" y="277" width="8.4" height="15.0" fill="rgb(205,13,32)" rx="2" ry="2" />
<text  x="500.32" y="287.5" ></text>
</g>
<g >
<title>sm_maximal_independent_set (20,202,020 samples, 0.14%)</title><rect x="16.7" y="229" width="1.7" height="15.0" fill="rgb(214,25,17)" rx="2" ry="2" />
<text  x="19.73" y="239.5" ></text>
</g>
<g >
<title>[unknown] (454,545,450 samples, 3.21%)</title><rect x="1152.1" y="229" width="37.9" height="15.0" fill="rgb(234,66,0)" rx="2" ry="2" />
<text  x="1155.13" y="239.5" >[un..</text>
</g>
<g >
<title>binate_split_select (50,505,050 samples, 0.36%)</title><rect x="290.3" y="261" width="4.2" height="15.0" fill="rgb(254,192,36)" rx="2" ry="2" />
<text  x="293.27" y="271.5" ></text>
</g>
<g >
<title>unlink_chunk.isra.0 (10,101,010 samples, 0.07%)</title><rect x="597.5" y="277" width="0.8" height="15.0" fill="rgb(216,25,28)" rx="2" ry="2" />
<text  x="600.48" y="287.5" ></text>
</g>
<g >
<title>[unknown] (10,101,010 samples, 0.07%)</title><rect x="10.0" y="277" width="0.8" height="15.0" fill="rgb(219,24,2)" rx="2" ry="2" />
<text  x="13.00" y="287.5" ></text>
</g>
<g >
<title>compl_lift (60,606,060 samples, 0.43%)</title><rect x="299.5" y="261" width="5.1" height="15.0" fill="rgb(241,222,51)" rx="2" ry="2" />
<text  x="302.53" y="271.5" ></text>
</g>
<g >
<title>[[kernel.kallsyms]] (10,101,010 samples, 0.07%)</title><rect x="11.7" y="213" width="0.8" height="15.0" fill="rgb(243,72,40)" rx="2" ry="2" />
<text  x="14.68" y="223.5" ></text>
</g>
<g >
<title>[[kernel.kallsyms]] (6,606,060,540 samples, 46.65%)</title><rect x="601.7" y="245" width="550.4" height="15.0" fill="rgb(248,58,38)" rx="2" ry="2" />
<text  x="604.68" y="255.5" >[[kernel.kallsyms]]</text>
</g>
<g >
<title>tautology (10,101,010 samples, 0.07%)</title><rect x="275.1" y="245" width="0.9" height="15.0" fill="rgb(249,19,47)" rx="2" ry="2" />
<text  x="278.12" y="255.5" ></text>
</g>
<g >
<title>[[kernel.kallsyms]] (20,202,020 samples, 0.14%)</title><rect x="419.0" y="245" width="1.7" height="15.0" fill="rgb(216,58,52)" rx="2" ry="2" />
<text  x="422.04" y="255.5" ></text>
</g>
<g >
<title>[unknown] (40,404,040 samples, 0.29%)</title><rect x="15.0" y="245" width="3.4" height="15.0" fill="rgb(212,107,28)" rx="2" ry="2" />
<text  x="18.05" y="255.5" ></text>
</g>
<g >
<title>sm_insert (40,404,040 samples, 0.29%)</title><rect x="412.3" y="261" width="3.4" height="15.0" fill="rgb(226,77,4)" rx="2" ry="2" />
<text  x="415.31" y="271.5" ></text>
</g>
<g >
<title>select_feasible (20,202,020 samples, 0.14%)</title><rect x="563.8" y="277" width="1.7" height="15.0" fill="rgb(248,75,3)" rx="2" ry="2" />
<text  x="566.81" y="287.5" ></text>
</g>
<g >
<title>__times (30,303,030 samples, 0.21%)</title><rect x="418.2" y="277" width="2.5" height="15.0" fill="rgb(246,6,11)" rx="2" ry="2" />
<text  x="421.20" y="287.5" ></text>
</g>
<g >
<title>compl_merge (20,202,020 samples, 0.14%)</title><rect x="304.6" y="261" width="1.7" height="15.0" fill="rgb(236,132,52)" rx="2" ry="2" />
<text  x="307.58" y="271.5" ></text>
</g>
<g >
<title>[[kernel.kallsyms]] (454,545,450 samples, 3.21%)</title><rect x="1152.1" y="181" width="37.9" height="15.0" fill="rgb(242,219,20)" rx="2" ry="2" />
<text  x="1155.13" y="191.5" >[[k..</text>
</g>
<g >
<title>cfree@GLIBC_2.2.5 (30,303,030 samples, 0.21%)</title><rect x="294.5" y="261" width="2.5" height="15.0" fill="rgb(250,223,31)" rx="2" ry="2" />
<text  x="297.48" y="271.5" ></text>
</g>
<g >
<title>cfree@GLIBC_2.2.5 (10,101,010 samples, 0.07%)</title><rect x="19.3" y="245" width="0.8" height="15.0" fill="rgb(221,62,15)" rx="2" ry="2" />
<text  x="22.26" y="255.5" ></text>
</g>
<g >
<title>setp_implies (30,303,030 samples, 0.21%)</title><rect x="238.9" y="245" width="2.6" height="15.0" fill="rgb(217,104,22)" rx="2" ry="2" />
<text  x="241.93" y="255.5" ></text>
</g>
<g >
<title>[[kernel.kallsyms]] (10,101,010 samples, 0.07%)</title><rect x="11.7" y="181" width="0.8" height="15.0" fill="rgb(209,50,34)" rx="2" ry="2" />
<text  x="14.68" y="191.5" ></text>
</g>
<g >
<title>massive_count (2,282,828,260 samples, 16.12%)</title><rect x="42.8" y="245" width="190.2" height="15.0" fill="rgb(252,82,51)" rx="2" ry="2" />
<text  x="45.82" y="255.5" >massive_count</text>
</g>
<g >
<title>[unknown] (10,101,010 samples, 0.07%)</title><rect x="15.0" y="229" width="0.9" height="15.0" fill="rgb(227,113,26)" rx="2" ry="2" />
<text  x="18.05" y="239.5" ></text>
</g>
<g >
<title>[[kernel.kallsyms]] (6,606,060,540 samples, 46.65%)</title><rect x="601.7" y="229" width="550.4" height="15.0" fill="rgb(235,141,43)" rx="2" ry="2" />
<text  x="604.68" y="239.5" >[[kernel.kallsyms]]</text>
</g>
<g >
<title>sm_row_contains (10,101,010 samples, 0.07%)</title><rect x="595.8" y="277" width="0.8" height="15.0" fill="rgb(234,153,13)" rx="2" ry="2" />
<text  x="598.79" y="287.5" ></text>
</g>
<g >
<title>espresso (7,050,504,980 samples, 49.79%)</title><rect x="12.5" y="293" width="587.5" height="15.0" fill="rgb(252,91,16)" rx="2" ry="2" />
<text  x="15.52" y="303.5" >espresso</text>
</g>
<g >
<title>sccc_merge (10,101,010 samples, 0.07%)</title><rect x="379.5" y="261" width="0.8" height="15.0" fill="rgb(209,59,13)" rx="2" ry="2" />
<text  x="382.49" y="271.5" ></text>
</g>
<g >
<title>[[kernel.kallsyms]] (10,101,010 samples, 0.07%)</title><rect x="1151.3" y="53" width="0.8" height="15.0" fill="rgb(232,25,5)" rx="2" ry="2" />
<text  x="1154.28" y="63.5" ></text>
</g>
<g >
<title>python3 (20,202,020 samples, 0.14%)</title><rect x="600.0" y="293" width="1.7" height="15.0" fill="rgb(238,206,46)" rx="2" ry="2" />
<text  x="603.00" y="303.5" ></text>
</g>
<g >
<title>__memmove_avx_unaligned_erms (20,202,020 samples, 0.14%)</title><rect x="415.7" y="277" width="1.7" height="15.0" fill="rgb(218,207,24)" rx="2" ry="2" />
<text  x="418.68" y="287.5" ></text>
</g>
</g>
</svg>
