<?xml version="1.0" standalone="no"?>
<!DOCTYPE svg PUBLIC "-//W3C//DTD SVG 1.1//EN" "http://www.w3.org/Graphics/SVG/1.1/DTD/svg11.dtd">
<svg version="1.1" width="1200" height="406" onload="init(evt)" viewBox="0 0 1200 406" xmlns="http://www.w3.org/2000/svg" xmlns:xlink="http://www.w3.org/1999/xlink">
<!-- Flame graph stack visualization. See https://github.com/brendangregg/FlameGraph for latest version, and http://www.brendangregg.com/flamegraphs.html for examples. -->
<!-- NOTES:  -->
<defs>
	<linearGradient id="background" y1="0" y2="1" x1="0" x2="0" >
		<stop stop-color="#eeeeee" offset="5%" />
		<stop stop-color="#eeeeb0" offset="95%" />
	</linearGradient>
</defs>
<style type="text/css">
	text { font-family:Verdana; font-size:12px; fill:rgb(0,0,0); }
	#search, #ignorecase { opacity:0.1; cursor:pointer; }
	#search:hover, #search.show, #ignorecase:hover, #ignorecase.show { opacity:1; }
	#subtitle { text-anchor:middle; font-color:rgb(160,160,160); }
	#title { text-anchor:middle; font-size:17px}
	#unzoom { cursor:pointer; }
	#frames > *:hover { stroke:black; stroke-width:0.5; cursor:pointer; }
	.hide { display:none; }
	.parent { opacity:0.5; }
</style>
<script type="text/ecmascript">
<![CDATA[
	"use strict";
	var details, searchbtn, unzoombtn, matchedtxt, svg, searching, currentSearchTerm, ignorecase, ignorecaseBtn;
	function init(evt) {
		details = document.getElementById("details").firstChild;
		searchbtn = document.getElementById("search");
		ignorecaseBtn = document.getElementById("ignorecase");
		unzoombtn = document.getElementById("unzoom");
		matchedtxt = document.getElementById("matched");
		svg = document.getElementsByTagName("svg")[0];
		searching = 0;
		currentSearchTerm = null;

		// use GET parameters to restore a flamegraphs state.
		var params = get_params();
		if (params.x && params.y)
			zoom(find_group(document.querySelector('[x="' + params.x + '"][y="' + params.y + '"]')));
                if (params.s) search(params.s);
	}

	// event listeners
	window.addEventListener("click", function(e) {
		var target = find_group(e.target);
		if (target) {
			if (target.nodeName == "a") {
				if (e.ctrlKey === false) return;
				e.preventDefault();
			}
			if (target.classList.contains("parent")) unzoom(true);
			zoom(target);
			if (!document.querySelector('.parent')) {
				// we have basically done a clearzoom so clear the url
				var params = get_params();
				if (params.x) delete params.x;
				if (params.y) delete params.y;
				history.replaceState(null, null, parse_params(params));
				unzoombtn.classList.add("hide");
				return;
			}

			// set parameters for zoom state
			var el = target.querySelector("rect");
			if (el && el.attributes && el.attributes.y && el.attributes._orig_x) {
				var params = get_params()
				params.x = el.attributes._orig_x.value;
				params.y = el.attributes.y.value;
				history.replaceState(null, null, parse_params(params));
			}
		}
		else if (e.target.id == "unzoom") clearzoom();
		else if (e.target.id == "search") search_prompt();
		else if (e.target.id == "ignorecase") toggle_ignorecase();
	}, false)

	// mouse-over for info
	// show
	window.addEventListener("mouseover", function(e) {
		var target = find_group(e.target);
		if (target) details.nodeValue = "Function: " + g_to_text(target);
	}, false)

	// clear
	window.addEventListener("mouseout", function(e) {
		var target = find_group(e.target);
		if (target) details.nodeValue = ' ';
	}, false)

	// ctrl-F for search
	// ctrl-I to toggle case-sensitive search
	window.addEventListener("keydown",function (e) {
		if (e.keyCode === 114 || (e.ctrlKey && e.keyCode === 70)) {
			e.preventDefault();
			search_prompt();
		}
		else if (e.ctrlKey && e.keyCode === 73) {
			e.preventDefault();
			toggle_ignorecase();
		}
	}, false)

	// functions
	function get_params() {
		var params = {};
		var paramsarr = window.location.search.substr(1).split('&');
		for (var i = 0; i < paramsarr.length; ++i) {
			var tmp = paramsarr[i].split("=");
			if (!tmp[0] || !tmp[1]) continue;
			params[tmp[0]]  = decodeURIComponent(tmp[1]);
		}
		return params;
	}
	function parse_params(params) {
		var uri = "?";
		for (var key in params) {
			uri += key + '=' + encodeURIComponent(params[key]) + '&';
		}
		if (uri.slice(-1) == "&")
			uri = uri.substring(0, uri.length - 1);
		if (uri == '?')
			uri = window.location.href.split('?')[0];
		return uri;
	}
	function find_child(node, selector) {
		var children = node.querySelectorAll(selector);
		if (children.length) return children[0];
	}
	function find_group(node) {
		var parent = node.parentElement;
		if (!parent) return;
		if (parent.id == "frames") return node;
		return find_group(parent);
	}
	function orig_save(e, attr, val) {
		if (e.attributes["_orig_" + attr] != undefined) return;
		if (e.attributes[attr] == undefined) return;
		if (val == undefined) val = e.attributes[attr].value;
		e.setAttribute("_orig_" + attr, val);
	}
	function orig_load(e, attr) {
		if (e.attributes["_orig_"+attr] == undefined) return;
		e.attributes[attr].value = e.attributes["_orig_" + attr].value;
		e.removeAttribute("_orig_"+attr);
	}
	function g_to_text(e) {
		var text = find_child(e, "title").firstChild.nodeValue;
		return (text)
	}
	function g_to_func(e) {
		var func = g_to_text(e);
		// if there's any manipulation we want to do to the function
		// name before it's searched, do it here before returning.
		return (func);
	}
	function update_text(e) {
		var r = find_child(e, "rect");
		var t = find_child(e, "text");
		var w = parseFloat(r.attributes.width.value) -3;
		var txt = find_child(e, "title").textContent.replace(/\([^(]*\)$/,"");
		t.attributes.x.value = parseFloat(r.attributes.x.value) + 3;

		// Smaller than this size won't fit anything
		if (w < 2 * 12 * 0.59) {
			t.textContent = "";
			return;
		}

		t.textContent = txt;
		var sl = t.getSubStringLength(0, txt.length);
		// check if only whitespace or if we can fit the entire string into width w
		if (/^ *$/.test(txt) || sl < w)
			return;

		// this isn't perfect, but gives a good starting point
		// and avoids calling getSubStringLength too often
		var start = Math.floor((w/sl) * txt.length);
		for (var x = start; x > 0; x = x-2) {
			if (t.getSubStringLength(0, x + 2) <= w) {
				t.textContent = txt.substring(0, x) + "..";
				return;
			}
		}
		t.textContent = "";
	}

	// zoom
	function zoom_reset(e) {
		if (e.attributes != undefined) {
			orig_load(e, "x");
			orig_load(e, "width");
		}
		if (e.childNodes == undefined) return;
		for (var i = 0, c = e.childNodes; i < c.length; i++) {
			zoom_reset(c[i]);
		}
	}
	function zoom_child(e, x, ratio) {
		if (e.attributes != undefined) {
			if (e.attributes.x != undefined) {
				orig_save(e, "x");
				e.attributes.x.value = (parseFloat(e.attributes.x.value) - x - 10) * ratio + 10;
				if (e.tagName == "text")
					e.attributes.x.value = find_child(e.parentNode, "rect[x]").attributes.x.value + 3;
			}
			if (e.attributes.width != undefined) {
				orig_save(e, "width");
				e.attributes.width.value = parseFloat(e.attributes.width.value) * ratio;
			}
		}

		if (e.childNodes == undefined) return;
		for (var i = 0, c = e.childNodes; i < c.length; i++) {
			zoom_child(c[i], x - 10, ratio);
		}
	}
	function zoom_parent(e) {
		if (e.attributes) {
			if (e.attributes.x != undefined) {
				orig_save(e, "x");
				e.attributes.x.value = 10;
			}
			if (e.attributes.width != undefined) {
				orig_save(e, "width");
				e.attributes.width.value = parseInt(svg.width.baseVal.value) - (10 * 2);
			}
		}
		if (e.childNodes == undefined) return;
		for (var i = 0, c = e.childNodes; i < c.length; i++) {
			zoom_parent(c[i]);
		}
	}
	function zoom(node) {
		var attr = find_child(node, "rect").attributes;
		var width = parseFloat(attr.width.value);
		var xmin = parseFloat(attr.x.value);
		var xmax = parseFloat(xmin + width);
		var ymin = parseFloat(attr.y.value);
		var ratio = (svg.width.baseVal.value - 2 * 10) / width;

		// XXX: Workaround for JavaScript float issues (fix me)
		var fudge = 0.0001;

		unzoombtn.classList.remove("hide");

		var el = document.getElementById("frames").children;
		for (var i = 0; i < el.length; i++) {
			var e = el[i];
			var a = find_child(e, "rect").attributes;
			var ex = parseFloat(a.x.value);
			var ew = parseFloat(a.width.value);
			var upstack;
			// Is it an ancestor
			if (0 == 0) {
				upstack = parseFloat(a.y.value) > ymin;
			} else {
				upstack = parseFloat(a.y.value) < ymin;
			}
			if (upstack) {
				// Direct ancestor
				if (ex <= xmin && (ex+ew+fudge) >= xmax) {
					e.classList.add("parent");
					zoom_parent(e);
					update_text(e);
				}
				// not in current path
				else
					e.classList.add("hide");
			}
			// Children maybe
			else {
				// no common path
				if (ex < xmin || ex + fudge >= xmax) {
					e.classList.add("hide");
				}
				else {
					zoom_child(e, xmin, ratio);
					update_text(e);
				}
			}
		}
		search();
	}
	function unzoom(dont_update_text) {
		unzoombtn.classList.add("hide");
		var el = document.getElementById("frames").children;
		for(var i = 0; i < el.length; i++) {
			el[i].classList.remove("parent");
			el[i].classList.remove("hide");
			zoom_reset(el[i]);
			if(!dont_update_text) update_text(el[i]);
		}
		search();
	}
	function clearzoom() {
		unzoom();

		// remove zoom state
		var params = get_params();
		if (params.x) delete params.x;
		if (params.y) delete params.y;
		history.replaceState(null, null, parse_params(params));
	}

	// search
	function toggle_ignorecase() {
		ignorecase = !ignorecase;
		if (ignorecase) {
			ignorecaseBtn.classList.add("show");
		} else {
			ignorecaseBtn.classList.remove("show");
		}
		reset_search();
		search();
	}
	function reset_search() {
		var el = document.querySelectorAll("#frames rect");
		for (var i = 0; i < el.length; i++) {
			orig_load(el[i], "fill")
		}
		var params = get_params();
		delete params.s;
		history.replaceState(null, null, parse_params(params));
	}
	function search_prompt() {
		if (!searching) {
			var term = prompt("Enter a search term (regexp " +
			    "allowed, eg: ^ext4_)"
			    + (ignorecase ? ", ignoring case" : "")
			    + "\nPress Ctrl-i to toggle case sensitivity", "");
			if (term != null) search(term);
		} else {
			reset_search();
			searching = 0;
			currentSearchTerm = null;
			searchbtn.classList.remove("show");
			searchbtn.firstChild.nodeValue = "Search"
			matchedtxt.classList.add("hide");
			matchedtxt.firstChild.nodeValue = ""
		}
	}
	function search(term) {
		if (term) currentSearchTerm = term;

		var re = new RegExp(currentSearchTerm, ignorecase ? 'i' : '');
		var el = document.getElementById("frames").children;
		var matches = new Object();
		var maxwidth = 0;
		for (var i = 0; i < el.length; i++) {
			var e = el[i];
			var func = g_to_func(e);
			var rect = find_child(e, "rect");
			if (func == null || rect == null)
				continue;

			// Save max width. Only works as we have a root frame
			var w = parseFloat(rect.attributes.width.value);
			if (w > maxwidth)
				maxwidth = w;

			if (func.match(re)) {
				// highlight
				var x = parseFloat(rect.attributes.x.value);
				orig_save(rect, "fill");
				rect.attributes.fill.value = "rgb(230,0,230)";

				// remember matches
				if (matches[x] == undefined) {
					matches[x] = w;
				} else {
					if (w > matches[x]) {
						// overwrite with parent
						matches[x] = w;
					}
				}
				searching = 1;
			}
		}
		if (!searching)
			return;
		var params = get_params();
		params.s = currentSearchTerm;
		history.replaceState(null, null, parse_params(params));

		searchbtn.classList.add("show");
		searchbtn.firstChild.nodeValue = "Reset Search";

		// calculate percent matched, excluding vertical overlap
		var count = 0;
		var lastx = -1;
		var lastw = 0;
		var keys = Array();
		for (k in matches) {
			if (matches.hasOwnProperty(k))
				keys.push(k);
		}
		// sort the matched frames by their x location
		// ascending, then width descending
		keys.sort(function(a, b){
			return a - b;
		});
		// Step through frames saving only the biggest bottom-up frames
		// thanks to the sort order. This relies on the tree property
		// where children are always smaller than their parents.
		var fudge = 0.0001;	// JavaScript floating point
		for (var k in keys) {
			var x = parseFloat(keys[k]);
			var w = matches[keys[k]];
			if (x >= lastx + lastw - fudge) {
				count += w;
				lastx = x;
				lastw = w;
			}
		}
		// display matched percent
		matchedtxt.classList.remove("hide");
		var pct = 100 * count / maxwidth;
		if (pct != 100) pct = pct.toFixed(1)
		matchedtxt.firstChild.nodeValue = "Matched: " + pct + "%";
	}
]]>
</script>
<rect x="0.0" y="0" width="1200.0" height="406.0" fill="url(#background)"  />
<text id="title" x="600.00" y="24" >Flame Graph</text>
<text id="details" x="10.00" y="389" > </text>
<text id="unzoom" x="10.00" y="24" class="hide">Reset Zoom</text>
<text id="search" x="1090.00" y="24" >Search</text>
<text id="ignorecase" x="1174.00" y="24" >ic</text>
<text id="matched" x="1090.00" y="389" > </text>
<g id="frames">
<g >
<title>[unknown] (2,979,797,950 samples, 23.08%)</title><rect x="15.5" y="309" width="272.4" height="15.0" fill="rgb(212,136,16)" rx="2" ry="2" />
<text  x="18.54" y="319.5" >[unknown]</text>
</g>
<g >
<title>bench.sh (30,303,030 samples, 0.23%)</title><rect x="10.0" y="341" width="2.8" height="15.0" fill="rgb(232,41,21)" rx="2" ry="2" />
<text  x="13.00" y="351.5" ></text>
</g>
<g >
<title>tcache_bin_flush_edatas_lookup.isra.0 (30,303,030 samples, 0.23%)</title><rect x="421.8" y="309" width="2.8" height="15.0" fill="rgb(252,213,47)" rx="2" ry="2" />
<text  x="424.80" y="319.5" ></text>
</g>
<g >
<title>ext4_reserve_inode_write (10,101,010 samples, 0.08%)</title><rect x="10.0" y="85" width="0.9" height="15.0" fill="rgb(246,45,27)" rx="2" ry="2" />
<text  x="13.00" y="95.5" ></text>
</g>
<g >
<title>commit_tail (10,101,010 samples, 0.08%)</title><rect x="600.9" y="197" width="0.9" height="15.0" fill="rgb(215,43,33)" rx="2" ry="2" />
<text  x="603.92" y="207.5" ></text>
</g>
<g >
<title>seq_put_decimal_ull (10,101,010 samples, 0.08%)</title><rect x="602.8" y="165" width="0.9" height="15.0" fill="rgb(216,66,30)" rx="2" ry="2" />
<text  x="605.77" y="175.5" ></text>
</g>
<g >
<title>sm_row_intersects (30,303,030 samples, 0.23%)</title><rect x="257.4" y="293" width="2.8" height="15.0" fill="rgb(242,31,6)" rx="2" ry="2" />
<text  x="260.45" y="303.5" ></text>
</g>
<g >
<title>ascend (10,101,010 samples, 0.08%)</title><rect x="425.5" y="325" width="0.9" height="15.0" fill="rgb(250,202,32)" rx="2" ry="2" />
<text  x="428.49" y="335.5" ></text>
</g>
<g >
<title>default_idle_call (40,404,040 samples, 0.31%)</title><rect x="1186.3" y="197" width="3.7" height="15.0" fill="rgb(226,83,14)" rx="2" ry="2" />
<text  x="1189.31" y="207.5" ></text>
</g>
<g >
<title>read_cube (10,101,010 samples, 0.08%)</title><rect x="542.8" y="325" width="0.9" height="15.0" fill="rgb(237,49,8)" rx="2" ry="2" />
<text  x="545.75" y="335.5" ></text>
</g>
<g >
<title>thread_group_cputime (10,101,010 samples, 0.08%)</title><rect x="424.6" y="229" width="0.9" height="15.0" fill="rgb(217,47,29)" rx="2" ry="2" />
<text  x="427.57" y="239.5" ></text>
</g>
<g >
<title>je_emap_update_edata_state (10,101,010 samples, 0.08%)</title><rect x="365.5" y="309" width="0.9" height="15.0" fill="rgb(224,169,22)" rx="2" ry="2" />
<text  x="368.48" y="319.5" ></text>
</g>
<g >
<title>vmbus_sendpacket_getid (10,101,010 samples, 0.08%)</title><rect x="600.9" y="85" width="0.9" height="15.0" fill="rgb(234,89,41)" rx="2" ry="2" />
<text  x="603.92" y="95.5" ></text>
</g>
<g >
<title>sccc_special_cases (40,404,040 samples, 0.31%)</title><rect x="387.6" y="309" width="3.7" height="15.0" fill="rgb(227,180,23)" rx="2" ry="2" />
<text  x="390.64" y="319.5" ></text>
</g>
<g >
<title>sm_dup (30,303,030 samples, 0.23%)</title><rect x="590.8" y="325" width="2.7" height="15.0" fill="rgb(215,46,15)" rx="2" ry="2" />
<text  x="593.77" y="335.5" ></text>
</g>
<g >
<title>default_idle_call (6,363,636,300 samples, 49.30%)</title><rect x="603.7" y="261" width="581.7" height="15.0" fill="rgb(228,161,29)" rx="2" ry="2" />
<text  x="606.69" y="271.5" >default_idle_call</text>
</g>
<g >
<title>setp_equal (10,101,010 samples, 0.08%)</title><rect x="253.8" y="293" width="0.9" height="15.0" fill="rgb(219,70,28)" rx="2" ry="2" />
<text  x="256.76" y="303.5" ></text>
</g>
<g >
<title>_int_free (10,101,010 samples, 0.08%)</title><rect x="10.9" y="309" width="0.9" height="15.0" fill="rgb(241,178,21)" rx="2" ry="2" />
<text  x="13.92" y="319.5" ></text>
</g>
<g >
<title>compl_lift (40,404,040 samples, 0.31%)</title><rect x="292.5" y="309" width="3.7" height="15.0" fill="rgb(247,70,3)" rx="2" ry="2" />
<text  x="295.54" y="319.5" ></text>
</g>
<g >
<title>tautology (10,101,010 samples, 0.08%)</title><rect x="287.0" y="293" width="0.9" height="15.0" fill="rgb(253,200,32)" rx="2" ry="2" />
<text  x="290.00" y="303.5" ></text>
</g>
<g >
<title>malloc (20,202,020 samples, 0.16%)</title><rect x="52.5" y="293" width="1.8" height="15.0" fill="rgb(232,130,36)" rx="2" ry="2" />
<text  x="55.47" y="303.5" ></text>
</g>
<g >
<title>taut_special_cases (272,727,270 samples, 2.11%)</title><rect x="262.1" y="293" width="24.9" height="15.0" fill="rgb(230,10,20)" rx="2" ry="2" />
<text  x="265.07" y="303.5" >t..</text>
</g>
<g >
<title>expand1_gasp (10,101,010 samples, 0.08%)</title><rect x="359.9" y="309" width="1.0" height="15.0" fill="rgb(213,151,25)" rx="2" ry="2" />
<text  x="362.94" y="319.5" ></text>
</g>
<g >
<title>set_or (80,808,080 samples, 0.63%)</title><rect x="578.8" y="325" width="7.4" height="15.0" fill="rgb(222,109,30)" rx="2" ry="2" />
<text  x="581.76" y="335.5" ></text>
</g>
<g >
<title>sm_delcol.part.0 (10,101,010 samples, 0.08%)</title><rect x="419.0" y="309" width="1.0" height="15.0" fill="rgb(249,108,42)" rx="2" ry="2" />
<text  x="422.03" y="319.5" ></text>
</g>
<g >
<title>je_tcache_bin_flush_small (30,303,030 samples, 0.23%)</title><rect x="369.2" y="309" width="2.7" height="15.0" fill="rgb(245,80,27)" rx="2" ry="2" />
<text  x="372.17" y="319.5" ></text>
</g>
<g >
<title>essen_parts (181,818,180 samples, 1.41%)</title><rect x="340.5" y="309" width="16.7" height="15.0" fill="rgb(224,184,20)" rx="2" ry="2" />
<text  x="343.55" y="319.5" ></text>
</g>
<g >
<title>__GI___libc_open (10,101,010 samples, 0.08%)</title><rect x="10.0" y="309" width="0.9" height="15.0" fill="rgb(247,40,10)" rx="2" ry="2" />
<text  x="13.00" y="319.5" ></text>
</g>
<g >
<title>drm_simple_kms_plane_atomic_update (10,101,010 samples, 0.08%)</title><rect x="600.9" y="149" width="0.9" height="15.0" fill="rgb(234,139,49)" rx="2" ry="2" />
<text  x="603.92" y="159.5" ></text>
</g>
<g >
<title>scofactor (303,030,300 samples, 2.35%)</title><rect x="544.6" y="325" width="27.7" height="15.0" fill="rgb(238,126,24)" rx="2" ry="2" />
<text  x="547.60" y="335.5" >s..</text>
</g>
<g >
<title>proc_tgid_stat (10,101,010 samples, 0.08%)</title><rect x="602.8" y="181" width="0.9" height="15.0" fill="rgb(229,180,31)" rx="2" ry="2" />
<text  x="605.77" y="191.5" ></text>
</g>
<g >
<title>set_clear (10,101,010 samples, 0.08%)</title><rect x="252.8" y="293" width="1.0" height="15.0" fill="rgb(242,151,25)" rx="2" ry="2" />
<text  x="255.83" y="303.5" ></text>
</g>
<g >
<title>asm_exc_page_fault (10,101,010 samples, 0.08%)</title><rect x="10.9" y="293" width="0.9" height="15.0" fill="rgb(226,163,40)" rx="2" ry="2" />
<text  x="13.92" y="303.5" ></text>
</g>
<g >
<title>exc_page_fault (10,101,010 samples, 0.08%)</title><rect x="10.9" y="277" width="0.9" height="15.0" fill="rgb(236,33,51)" rx="2" ry="2" />
<text  x="13.92" y="287.5" ></text>
</g>
<g >
<title>redis-server (10,101,010 samples, 0.08%)</title><rect x="602.8" y="341" width="0.9" height="15.0" fill="rgb(224,149,35)" rx="2" ry="2" />
<text  x="605.77" y="351.5" ></text>
</g>
<g >
<title>__sched_text_start (10,101,010 samples, 0.08%)</title><rect x="1185.4" y="245" width="0.9" height="15.0" fill="rgb(221,205,44)" rx="2" ry="2" />
<text  x="1188.38" y="255.5" ></text>
</g>
<g >
<title>sm_row_alloc (10,101,010 samples, 0.08%)</title><rect x="595.4" y="325" width="0.9" height="15.0" fill="rgb(238,37,34)" rx="2" ry="2" />
<text  x="598.38" y="335.5" ></text>
</g>
<g >
<title>espresso (6,424,242,360 samples, 49.77%)</title><rect x="13.7" y="341" width="587.2" height="15.0" fill="rgb(231,12,23)" rx="2" ry="2" />
<text  x="16.69" y="351.5" >espresso</text>
</g>
<g >
<title>mincov (80,808,080 samples, 0.63%)</title><rect x="373.8" y="309" width="7.4" height="15.0" fill="rgb(209,49,50)" rx="2" ry="2" />
<text  x="376.79" y="319.5" ></text>
</g>
<g >
<title>__libc_read (10,101,010 samples, 0.08%)</title><rect x="602.8" y="325" width="0.9" height="15.0" fill="rgb(234,61,34)" rx="2" ry="2" />
<text  x="605.77" y="335.5" ></text>
</g>
<g >
<title>process_one_work (10,101,010 samples, 0.08%)</title><rect x="600.9" y="277" width="0.9" height="15.0" fill="rgb(239,53,0)" rx="2" ry="2" />
<text  x="603.92" y="287.5" ></text>
</g>
<g >
<title>je_eset_remove (20,202,020 samples, 0.16%)</title><rect x="475.4" y="325" width="1.8" height="15.0" fill="rgb(236,157,1)" rx="2" ry="2" />
<text  x="478.35" y="335.5" ></text>
</g>
<g >
<title>__ext4_journal_get_write_access (10,101,010 samples, 0.08%)</title><rect x="10.0" y="69" width="0.9" height="15.0" fill="rgb(214,18,39)" rx="2" ry="2" />
<text  x="13.00" y="79.5" ></text>
</g>
<g >
<title>sccc_special_cases (10,101,010 samples, 0.08%)</title><rect x="251.9" y="293" width="0.9" height="15.0" fill="rgb(210,147,14)" rx="2" ry="2" />
<text  x="254.91" y="303.5" ></text>
</g>
<g >
<title>complement (10,101,010 samples, 0.08%)</title><rect x="20.2" y="293" width="0.9" height="15.0" fill="rgb(209,7,30)" rx="2" ry="2" />
<text  x="23.16" y="303.5" ></text>
</g>
<g >
<title>proc_single_show (10,101,010 samples, 0.08%)</title><rect x="602.8" y="197" width="0.9" height="15.0" fill="rgb(222,150,38)" rx="2" ry="2" />
<text  x="605.77" y="207.5" ></text>
</g>
<g >
<title>ret_from_fork (10,101,010 samples, 0.08%)</title><rect x="601.8" y="325" width="1.0" height="15.0" fill="rgb(227,175,34)" rx="2" ry="2" />
<text  x="604.85" y="335.5" ></text>
</g>
<g >
<title>[[kernel.kallsyms]] (10,101,010 samples, 0.08%)</title><rect x="600.9" y="37" width="0.9" height="15.0" fill="rgb(233,143,34)" rx="2" ry="2" />
<text  x="603.92" y="47.5" ></text>
</g>
<g >
<title>drm_atomic_helper_dirtyfb (10,101,010 samples, 0.08%)</title><rect x="600.9" y="245" width="0.9" height="15.0" fill="rgb(234,66,49)" rx="2" ry="2" />
<text  x="603.92" y="255.5" ></text>
</g>
<g >
<title>execute_command_internal (10,101,010 samples, 0.08%)</title><rect x="11.8" y="325" width="1.0" height="15.0" fill="rgb(233,101,18)" rx="2" ry="2" />
<text  x="14.85" y="335.5" ></text>
</g>
<g >
<title>sccc (10,101,010 samples, 0.08%)</title><rect x="251.0" y="293" width="0.9" height="15.0" fill="rgb(252,177,32)" rx="2" ry="2" />
<text  x="253.99" y="303.5" ></text>
</g>
<g >
<title>sf_list (10,101,010 samples, 0.08%)</title><rect x="412.6" y="309" width="0.9" height="15.0" fill="rgb(238,153,6)" rx="2" ry="2" />
<text  x="415.57" y="319.5" ></text>
</g>
<g >
<title>notify_change (10,101,010 samples, 0.08%)</title><rect x="10.0" y="149" width="0.9" height="15.0" fill="rgb(247,71,17)" rx="2" ry="2" />
<text  x="13.00" y="159.5" ></text>
</g>
<g >
<title>x86_64_start_reservations (40,404,040 samples, 0.31%)</title><rect x="1186.3" y="293" width="3.7" height="15.0" fill="rgb(240,193,47)" rx="2" ry="2" />
<text  x="1189.31" y="303.5" ></text>
</g>
<g >
<title>jbd2_journal_put_journal_head (10,101,010 samples, 0.08%)</title><rect x="10.0" y="53" width="0.9" height="15.0" fill="rgb(251,74,7)" rx="2" ry="2" />
<text  x="13.00" y="63.5" ></text>
</g>
<g >
<title>start_secondary (6,373,737,310 samples, 49.37%)</title><rect x="603.7" y="309" width="582.6" height="15.0" fill="rgb(206,114,2)" rx="2" ry="2" />
<text  x="606.69" y="319.5" >start_secondary</text>
</g>
<g >
<title>do_sm_minimum_cover (60,606,060 samples, 0.47%)</title><rect x="302.7" y="309" width="5.5" height="15.0" fill="rgb(220,159,45)" rx="2" ry="2" />
<text  x="305.69" y="319.5" ></text>
</g>
<g >
<title>seq_read_iter (10,101,010 samples, 0.08%)</title><rect x="602.8" y="213" width="0.9" height="15.0" fill="rgb(252,58,30)" rx="2" ry="2" />
<text  x="605.77" y="223.5" ></text>
</g>
<g >
<title>unravel_range (50,505,050 samples, 0.39%)</title><rect x="596.3" y="325" width="4.6" height="15.0" fill="rgb(231,110,21)" rx="2" ry="2" />
<text  x="599.31" y="335.5" ></text>
</g>
<g >
<title>secondary_startup_64_no_verify (6,414,141,350 samples, 49.69%)</title><rect x="603.7" y="325" width="586.3" height="15.0" fill="rgb(225,35,3)" rx="2" ry="2" />
<text  x="606.69" y="335.5" >secondary_startup_64_no_verify</text>
</g>
<g >
<title>hyperv_pipe_update (10,101,010 samples, 0.08%)</title><rect x="600.9" y="133" width="0.9" height="15.0" fill="rgb(216,203,35)" rx="2" ry="2" />
<text  x="603.92" y="143.5" ></text>
</g>
<g >
<title>free (40,404,040 samples, 0.31%)</title><rect x="361.8" y="309" width="3.7" height="15.0" fill="rgb(250,72,44)" rx="2" ry="2" />
<text  x="364.78" y="319.5" ></text>
</g>
<g >
<title>select_feasible (10,101,010 samples, 0.08%)</title><rect x="572.3" y="325" width="0.9" height="15.0" fill="rgb(218,151,44)" rx="2" ry="2" />
<text  x="575.30" y="335.5" ></text>
</g>
<g >
<title>kthread (10,101,010 samples, 0.08%)</title><rect x="600.9" y="309" width="0.9" height="15.0" fill="rgb(244,129,16)" rx="2" ry="2" />
<text  x="603.92" y="319.5" ></text>
</g>
<g >
<title>cpu_startup_entry (6,373,737,310 samples, 49.37%)</title><rect x="603.7" y="293" width="582.6" height="15.0" fill="rgb(241,142,40)" rx="2" ry="2" />
<text  x="606.69" y="303.5" >cpu_startup_entry</text>
</g>
<g >
<title>sm_delrow.part.0 (10,101,010 samples, 0.08%)</title><rect x="420.0" y="309" width="0.9" height="15.0" fill="rgb(242,63,26)" rx="2" ry="2" />
<text  x="422.95" y="319.5" ></text>
</g>
<g >
<title>do_open.isra.0 (10,101,010 samples, 0.08%)</title><rect x="10.0" y="181" width="0.9" height="15.0" fill="rgb(219,176,36)" rx="2" ry="2" />
<text  x="13.00" y="191.5" ></text>
</g>
<g >
<title>gc_worker (10,101,010 samples, 0.08%)</title><rect x="601.8" y="261" width="1.0" height="15.0" fill="rgb(245,48,29)" rx="2" ry="2" />
<text  x="604.85" y="271.5" ></text>
</g>
<g >
<title>sccc_cube (10,101,010 samples, 0.08%)</title><rect x="386.7" y="309" width="0.9" height="15.0" fill="rgb(206,31,19)" rx="2" ry="2" />
<text  x="389.71" y="319.5" ></text>
</g>
<g >
<title>__cpuidle_text_start (6,363,636,300 samples, 49.30%)</title><rect x="603.7" y="229" width="581.7" height="15.0" fill="rgb(219,199,53)" rx="2" ry="2" />
<text  x="606.69" y="239.5" >__cpuidle_text_start</text>
</g>
<g >
<title>sm_col_free (10,101,010 samples, 0.08%)</title><rect x="418.1" y="309" width="0.9" height="15.0" fill="rgb(211,150,20)" rx="2" ry="2" />
<text  x="421.11" y="319.5" ></text>
</g>
<g >
<title>most_frequent (20,202,020 samples, 0.16%)</title><rect x="540.9" y="325" width="1.9" height="15.0" fill="rgb(209,172,20)" rx="2" ry="2" />
<text  x="543.91" y="335.5" ></text>
</g>
<g >
<title>ext4_truncate (10,101,010 samples, 0.08%)</title><rect x="10.0" y="117" width="0.9" height="15.0" fill="rgb(212,11,50)" rx="2" ry="2" />
<text  x="13.00" y="127.5" ></text>
</g>
<g >
<title>sm_row_free (10,101,010 samples, 0.08%)</title><rect x="420.9" y="309" width="0.9" height="15.0" fill="rgb(253,18,23)" rx="2" ry="2" />
<text  x="423.88" y="319.5" ></text>
</g>
<g >
<title>essen_raising (30,303,030 samples, 0.23%)</title><rect x="357.2" y="309" width="2.7" height="15.0" fill="rgb(209,70,1)" rx="2" ry="2" />
<text  x="360.17" y="319.5" ></text>
</g>
<g >
<title>[unknown] (10,101,010 samples, 0.08%)</title><rect x="12.8" y="325" width="0.9" height="15.0" fill="rgb(206,46,15)" rx="2" ry="2" />
<text  x="15.77" y="335.5" ></text>
</g>
<g >
<title>start_kernel (40,404,040 samples, 0.31%)</title><rect x="1186.3" y="277" width="3.7" height="15.0" fill="rgb(250,171,23)" rx="2" ry="2" />
<text  x="1189.31" y="287.5" ></text>
</g>
<g >
<title>massive_count (585,858,580 samples, 4.54%)</title><rect x="487.4" y="325" width="53.5" height="15.0" fill="rgb(227,170,49)" rx="2" ry="2" />
<text  x="490.36" y="335.5" >massi..</text>
</g>
<g >
<title>__times (10,101,010 samples, 0.08%)</title><rect x="424.6" y="325" width="0.9" height="15.0" fill="rgb(250,164,15)" rx="2" ry="2" />
<text  x="427.57" y="335.5" ></text>
</g>
<g >
<title>je_te_event_trigger (20,202,020 samples, 0.16%)</title><rect x="371.9" y="309" width="1.9" height="15.0" fill="rgb(207,170,28)" rx="2" ry="2" />
<text  x="374.94" y="319.5" ></text>
</g>
<g >
<title>__cpuidle_text_start (40,404,040 samples, 0.31%)</title><rect x="1186.3" y="165" width="3.7" height="15.0" fill="rgb(248,165,43)" rx="2" ry="2" />
<text  x="1189.31" y="175.5" ></text>
</g>
<g >
<title>__x64_sys_times (10,101,010 samples, 0.08%)</title><rect x="424.6" y="277" width="0.9" height="15.0" fill="rgb(245,164,40)" rx="2" ry="2" />
<text  x="427.57" y="287.5" ></text>
</g>
<g >
<title>__memmove_avx_unaligned_erms (10,101,010 samples, 0.08%)</title><rect x="366.4" y="293" width="0.9" height="15.0" fill="rgb(238,120,33)" rx="2" ry="2" />
<text  x="369.40" y="303.5" ></text>
</g>
<g >
<title>full_row (282,828,280 samples, 2.19%)</title><rect x="25.7" y="293" width="25.8" height="15.0" fill="rgb(216,214,7)" rx="2" ry="2" />
<text  x="28.70" y="303.5" >f..</text>
</g>
<g >
<title>do_truncate (10,101,010 samples, 0.08%)</title><rect x="10.0" y="165" width="0.9" height="15.0" fill="rgb(221,22,23)" rx="2" ry="2" />
<text  x="13.00" y="175.5" ></text>
</g>
<g >
<title>hyperv_update_dirt (10,101,010 samples, 0.08%)</title><rect x="600.9" y="117" width="0.9" height="15.0" fill="rgb(234,151,27)" rx="2" ry="2" />
<text  x="603.92" y="127.5" ></text>
</g>
<g >
<title>hv_ringbuffer_write (10,101,010 samples, 0.08%)</title><rect x="600.9" y="69" width="0.9" height="15.0" fill="rgb(240,202,37)" rx="2" ry="2" />
<text  x="603.92" y="79.5" ></text>
</g>
<g >
<title>setp_disjoint (10,101,010 samples, 0.08%)</title><rect x="394.1" y="309" width="0.9" height="15.0" fill="rgb(229,22,18)" rx="2" ry="2" />
<text  x="397.10" y="319.5" ></text>
</g>
<g >
<title>do_syscall_64 (10,101,010 samples, 0.08%)</title><rect x="602.8" y="293" width="0.9" height="15.0" fill="rgb(221,127,6)" rx="2" ry="2" />
<text  x="605.77" y="303.5" ></text>
</g>
<g >
<title>sm_row_remove_element (10,101,010 samples, 0.08%)</title><rect x="260.2" y="293" width="0.9" height="15.0" fill="rgb(242,101,4)" rx="2" ry="2" />
<text  x="263.22" y="303.5" ></text>
</g>
<g >
<title>cpu_startup_entry (40,404,040 samples, 0.31%)</title><rect x="1186.3" y="229" width="3.7" height="15.0" fill="rgb(214,59,34)" rx="2" ry="2" />
<text  x="1189.31" y="239.5" ></text>
</g>
<g >
<title>sm_col_dominance (10,101,010 samples, 0.08%)</title><rect x="589.8" y="325" width="1.0" height="15.0" fill="rgb(219,222,3)" rx="2" ry="2" />
<text  x="592.84" y="335.5" ></text>
</g>
<g >
<title>set_and (20,202,020 samples, 0.16%)</title><rect x="573.2" y="325" width="1.9" height="15.0" fill="rgb(234,106,33)" rx="2" ry="2" />
<text  x="576.22" y="335.5" ></text>
</g>
<g >
<title>set_clear (10,101,010 samples, 0.08%)</title><rect x="575.1" y="325" width="0.9" height="15.0" fill="rgb(238,212,39)" rx="2" ry="2" />
<text  x="578.07" y="335.5" ></text>
</g>
<g >
<title>seq_read (10,101,010 samples, 0.08%)</title><rect x="602.8" y="229" width="0.9" height="15.0" fill="rgb(233,30,20)" rx="2" ry="2" />
<text  x="605.77" y="239.5" ></text>
</g>
<g >
<title>drm_atomic_helper_commit_planes (10,101,010 samples, 0.08%)</title><rect x="600.9" y="165" width="0.9" height="15.0" fill="rgb(228,211,9)" rx="2" ry="2" />
<text  x="603.92" y="175.5" ></text>
</g>
<g >
<title>je_tcache_gc_dalloc_event_handler (10,101,010 samples, 0.08%)</title><rect x="17.4" y="277" width="0.9" height="15.0" fill="rgb(223,126,1)" rx="2" ry="2" />
<text  x="20.39" y="287.5" ></text>
</g>
<g >
<title>thread_group_cputime_adjusted (10,101,010 samples, 0.08%)</title><rect x="424.6" y="245" width="0.9" height="15.0" fill="rgb(248,107,47)" rx="2" ry="2" />
<text  x="427.57" y="255.5" ></text>
</g>
<g >
<title>ret_from_fork (10,101,010 samples, 0.08%)</title><rect x="600.9" y="325" width="0.9" height="15.0" fill="rgb(209,40,21)" rx="2" ry="2" />
<text  x="603.92" y="335.5" ></text>
</g>
<g >
<title>[unknown] (4,474,747,430 samples, 34.66%)</title><rect x="15.5" y="325" width="409.1" height="15.0" fill="rgb(248,173,7)" rx="2" ry="2" />
<text  x="18.54" y="335.5" >[unknown]</text>
</g>
<g >
<title>[unknown] (20,202,020 samples, 0.16%)</title><rect x="10.0" y="325" width="1.8" height="15.0" fill="rgb(211,225,49)" rx="2" ry="2" />
<text  x="13.00" y="335.5" ></text>
</g>
<g >
<title>do_idle (6,373,737,310 samples, 49.37%)</title><rect x="603.7" y="277" width="582.6" height="15.0" fill="rgb(208,26,42)" rx="2" ry="2" />
<text  x="606.69" y="287.5" >do_idle</text>
</g>
<g >
<title>__memset_avx2_unaligned_erms (10,101,010 samples, 0.08%)</title><rect x="18.3" y="293" width="0.9" height="15.0" fill="rgb(249,62,10)" rx="2" ry="2" />
<text  x="21.31" y="303.5" ></text>
</g>
<g >
<title>solution_free (10,101,010 samples, 0.08%)</title><rect x="261.1" y="293" width="1.0" height="15.0" fill="rgb(251,209,0)" rx="2" ry="2" />
<text  x="264.14" y="303.5" ></text>
</g>
<g >
<title>sm_insert (20,202,020 samples, 0.16%)</title><rect x="593.5" y="325" width="1.9" height="15.0" fill="rgb(206,180,22)" rx="2" ry="2" />
<text  x="596.54" y="335.5" ></text>
</g>
<g >
<title>malloc (111,111,110 samples, 0.86%)</title><rect x="477.2" y="325" width="10.2" height="15.0" fill="rgb(210,207,43)" rx="2" ry="2" />
<text  x="480.20" y="335.5" ></text>
</g>
<g >
<title>__x64_sys_read (10,101,010 samples, 0.08%)</title><rect x="602.8" y="277" width="0.9" height="15.0" fill="rgb(220,143,34)" rx="2" ry="2" />
<text  x="605.77" y="287.5" ></text>
</g>
<g >
<title>free (50,505,050 samples, 0.39%)</title><rect x="464.3" y="325" width="4.6" height="15.0" fill="rgb(205,192,3)" rx="2" ry="2" />
<text  x="467.27" y="335.5" ></text>
</g>
<g >
<title>do_filp_open (10,101,010 samples, 0.08%)</title><rect x="10.0" y="213" width="0.9" height="15.0" fill="rgb(225,150,25)" rx="2" ry="2" />
<text  x="13.00" y="223.5" ></text>
</g>
<g >
<title>realloc (10,101,010 samples, 0.08%)</title><rect x="543.7" y="325" width="0.9" height="15.0" fill="rgb(253,31,29)" rx="2" ry="2" />
<text  x="546.68" y="335.5" ></text>
</g>
<g >
<title>je_free_default (10,101,010 samples, 0.08%)</title><rect x="51.5" y="293" width="1.0" height="15.0" fill="rgb(221,111,38)" rx="2" ry="2" />
<text  x="54.55" y="303.5" ></text>
</g>
<g >
<title>entry_SYSCALL_64_after_hwframe (10,101,010 samples, 0.08%)</title><rect x="424.6" y="309" width="0.9" height="15.0" fill="rgb(222,179,8)" rx="2" ry="2" />
<text  x="427.57" y="319.5" ></text>
</g>
<g >
<title>finish_task_switch (10,101,010 samples, 0.08%)</title><rect x="1185.4" y="229" width="0.9" height="15.0" fill="rgb(214,84,22)" rx="2" ry="2" />
<text  x="1188.38" y="239.5" ></text>
</g>
<g >
<title>d1_order (10,101,010 samples, 0.08%)</title><rect x="462.4" y="325" width="0.9" height="15.0" fill="rgb(230,228,19)" rx="2" ry="2" />
<text  x="465.43" y="335.5" ></text>
</g>
<g >
<title>d1_order (10,101,010 samples, 0.08%)</title><rect x="21.1" y="293" width="0.9" height="15.0" fill="rgb(211,161,54)" rx="2" ry="2" />
<text  x="24.08" y="303.5" ></text>
</g>
<g >
<title>free (10,101,010 samples, 0.08%)</title><rect x="16.5" y="277" width="0.9" height="15.0" fill="rgb(247,109,8)" rx="2" ry="2" />
<text  x="19.46" y="287.5" ></text>
</g>
<g >
<title>do_rallocx (10,101,010 samples, 0.08%)</title><rect x="463.3" y="325" width="1.0" height="15.0" fill="rgb(242,210,15)" rx="2" ry="2" />
<text  x="466.35" y="335.5" ></text>
</g>
<g >
<title>dirname (10,101,010 samples, 0.08%)</title><rect x="12.8" y="341" width="0.9" height="15.0" fill="rgb(227,171,12)" rx="2" ry="2" />
<text  x="15.77" y="351.5" ></text>
</g>
<g >
<title>kthread (10,101,010 samples, 0.08%)</title><rect x="601.8" y="309" width="1.0" height="15.0" fill="rgb(233,162,30)" rx="2" ry="2" />
<text  x="604.85" y="319.5" ></text>
</g>
<g >
<title>complement (40,404,040 samples, 0.31%)</title><rect x="298.1" y="309" width="3.7" height="15.0" fill="rgb(208,130,33)" rx="2" ry="2" />
<text  x="301.08" y="319.5" ></text>
</g>
<g >
<title>je_free_default (30,303,030 samples, 0.23%)</title><rect x="366.4" y="309" width="2.8" height="15.0" fill="rgb(244,133,11)" rx="2" ry="2" />
<text  x="369.40" y="319.5" ></text>
</g>
<g >
<title>ext4_orphan_add (10,101,010 samples, 0.08%)</title><rect x="10.0" y="101" width="0.9" height="15.0" fill="rgb(250,220,42)" rx="2" ry="2" />
<text  x="13.00" y="111.5" ></text>
</g>
<g >
<title>entry_SYSCALL_64_after_hwframe (10,101,010 samples, 0.08%)</title><rect x="10.0" y="293" width="0.9" height="15.0" fill="rgb(230,214,4)" rx="2" ry="2" />
<text  x="13.00" y="303.5" ></text>
</g>
<g >
<title>do_sys_open (10,101,010 samples, 0.08%)</title><rect x="10.0" y="245" width="0.9" height="15.0" fill="rgb(209,37,30)" rx="2" ry="2" />
<text  x="13.00" y="255.5" ></text>
</g>
<g >
<title>drm_atomic_commit (10,101,010 samples, 0.08%)</title><rect x="600.9" y="229" width="0.9" height="15.0" fill="rgb(213,197,13)" rx="2" ry="2" />
<text  x="603.92" y="239.5" ></text>
</g>
<g >
<title>[unknown] (10,101,010 samples, 0.08%)</title><rect x="12.8" y="309" width="0.9" height="15.0" fill="rgb(221,38,49)" rx="2" ry="2" />
<text  x="15.77" y="319.5" ></text>
</g>
<g >
<title>[espresso] (10,101,010 samples, 0.08%)</title><rect x="15.5" y="293" width="1.0" height="15.0" fill="rgb(223,107,37)" rx="2" ry="2" />
<text  x="18.54" y="303.5" ></text>
</g>
<g >
<title>vfs_read (10,101,010 samples, 0.08%)</title><rect x="602.8" y="245" width="0.9" height="15.0" fill="rgb(228,43,3)" rx="2" ry="2" />
<text  x="605.77" y="255.5" ></text>
</g>
<g >
<title>mv_reduce (10,101,010 samples, 0.08%)</title><rect x="384.9" y="309" width="0.9" height="15.0" fill="rgb(208,197,11)" rx="2" ry="2" />
<text  x="387.87" y="319.5" ></text>
</g>
<g >
<title>elim_lowering (353,535,350 samples, 2.74%)</title><rect x="308.2" y="309" width="32.3" height="15.0" fill="rgb(225,105,19)" rx="2" ry="2" />
<text  x="311.23" y="319.5" >el..</text>
</g>
<g >
<title>vmbus_sendpacket (10,101,010 samples, 0.08%)</title><rect x="600.9" y="101" width="0.9" height="15.0" fill="rgb(219,47,16)" rx="2" ry="2" />
<text  x="603.92" y="111.5" ></text>
</g>
<g >
<title>set_copy (10,101,010 samples, 0.08%)</title><rect x="391.3" y="309" width="1.0" height="15.0" fill="rgb(236,117,11)" rx="2" ry="2" />
<text  x="394.33" y="319.5" ></text>
</g>
<g >
<title>do_idle (40,404,040 samples, 0.31%)</title><rect x="1186.3" y="213" width="3.7" height="15.0" fill="rgb(218,12,30)" rx="2" ry="2" />
<text  x="1189.31" y="223.5" ></text>
</g>
<g >
<title>__lock_text_start (10,101,010 samples, 0.08%)</title><rect x="424.6" y="213" width="0.9" height="15.0" fill="rgb(221,204,29)" rx="2" ry="2" />
<text  x="427.57" y="223.5" ></text>
</g>
<g >
<title>path_openat (10,101,010 samples, 0.08%)</title><rect x="10.0" y="197" width="0.9" height="15.0" fill="rgb(211,181,29)" rx="2" ry="2" />
<text  x="13.00" y="207.5" ></text>
</g>
<g >
<title>do_user_addr_fault (10,101,010 samples, 0.08%)</title><rect x="10.9" y="261" width="0.9" height="15.0" fill="rgb(233,217,34)" rx="2" ry="2" />
<text  x="13.92" y="271.5" ></text>
</g>
<g >
<title>drm_fb_helper_damage_work (10,101,010 samples, 0.08%)</title><rect x="600.9" y="261" width="0.9" height="15.0" fill="rgb(235,39,2)" rx="2" ry="2" />
<text  x="603.92" y="271.5" ></text>
</g>
<g >
<title>x86_64_start_kernel (40,404,040 samples, 0.31%)</title><rect x="1186.3" y="309" width="3.7" height="15.0" fill="rgb(254,100,49)" rx="2" ry="2" />
<text  x="1189.31" y="319.5" ></text>
</g>
<g >
<title>do_syscall_64 (10,101,010 samples, 0.08%)</title><rect x="424.6" y="293" width="0.9" height="15.0" fill="rgb(211,47,28)" rx="2" ry="2" />
<text  x="427.57" y="303.5" ></text>
</g>
<g >
<title>kworker/1:2-eve (10,101,010 samples, 0.08%)</title><rect x="600.9" y="341" width="0.9" height="15.0" fill="rgb(231,129,53)" rx="2" ry="2" />
<text  x="603.92" y="351.5" ></text>
</g>
<g >
<title>je_arena_cache_bin_fill_small (70,707,070 samples, 0.55%)</title><rect x="468.9" y="325" width="6.5" height="15.0" fill="rgb(207,180,28)" rx="2" ry="2" />
<text  x="471.89" y="335.5" ></text>
</g>
<g >
<title>vmbus_setevent (10,101,010 samples, 0.08%)</title><rect x="600.9" y="53" width="0.9" height="15.0" fill="rgb(239,86,43)" rx="2" ry="2" />
<text  x="603.92" y="63.5" ></text>
</g>
<g >
<title>compl_merge (20,202,020 samples, 0.16%)</title><rect x="296.2" y="309" width="1.9" height="15.0" fill="rgb(230,90,23)" rx="2" ry="2" />
<text  x="299.23" y="319.5" ></text>
</g>
<g >
<title>[espresso] (20,202,020 samples, 0.16%)</title><rect x="13.7" y="325" width="1.8" height="15.0" fill="rgb(217,18,27)" rx="2" ry="2" />
<text  x="16.69" y="335.5" ></text>
</g>
<g >
<title>process_one_work (10,101,010 samples, 0.08%)</title><rect x="601.8" y="277" width="1.0" height="15.0" fill="rgb(251,58,13)" rx="2" ry="2" />
<text  x="604.85" y="287.5" ></text>
</g>
<g >
<title>kworker/u4:1-ev (10,101,010 samples, 0.08%)</title><rect x="601.8" y="341" width="1.0" height="15.0" fill="rgb(220,203,38)" rx="2" ry="2" />
<text  x="604.85" y="351.5" ></text>
</g>
<g >
<title>binate_split_select (10,101,010 samples, 0.08%)</title><rect x="19.2" y="293" width="1.0" height="15.0" fill="rgb(246,111,10)" rx="2" ry="2" />
<text  x="22.23" y="303.5" ></text>
</g>
<g >
<title>mini_sort (40,404,040 samples, 0.31%)</title><rect x="381.2" y="309" width="3.7" height="15.0" fill="rgb(222,93,47)" rx="2" ry="2" />
<text  x="384.17" y="319.5" ></text>
</g>
<g >
<title>arch_cpu_idle (6,363,636,300 samples, 49.30%)</title><rect x="603.7" y="245" width="581.7" height="15.0" fill="rgb(234,225,14)" rx="2" ry="2" />
<text  x="606.69" y="255.5" >arch_cpu_idle</text>
</g>
<g >
<title>ksys_read (10,101,010 samples, 0.08%)</title><rect x="602.8" y="261" width="0.9" height="15.0" fill="rgb(210,52,1)" rx="2" ry="2" />
<text  x="605.77" y="271.5" ></text>
</g>
<g >
<title>arch_call_rest_init (40,404,040 samples, 0.31%)</title><rect x="1186.3" y="261" width="3.7" height="15.0" fill="rgb(230,24,32)" rx="2" ry="2" />
<text  x="1189.31" y="271.5" ></text>
</g>
<g >
<title>tcache_bin_flush_edatas_lookup.isra.0 (30,303,030 samples, 0.23%)</title><rect x="369.2" y="293" width="2.7" height="15.0" fill="rgb(232,117,18)" rx="2" ry="2" />
<text  x="372.17" y="303.5" ></text>
</g>
<g >
<title>schedule_idle (10,101,010 samples, 0.08%)</title><rect x="1185.4" y="261" width="0.9" height="15.0" fill="rgb(235,86,31)" rx="2" ry="2" />
<text  x="1188.38" y="271.5" ></text>
</g>
<g >
<title>cube2list (10,101,010 samples, 0.08%)</title><rect x="301.8" y="309" width="0.9" height="15.0" fill="rgb(233,216,9)" rx="2" ry="2" />
<text  x="304.77" y="319.5" ></text>
</g>
<g >
<title>do_sys_openat2 (10,101,010 samples, 0.08%)</title><rect x="10.0" y="229" width="0.9" height="15.0" fill="rgb(233,35,45)" rx="2" ry="2" />
<text  x="13.00" y="239.5" ></text>
</g>
<g >
<title>ext4_setattr (10,101,010 samples, 0.08%)</title><rect x="10.0" y="133" width="0.9" height="15.0" fill="rgb(237,67,47)" rx="2" ry="2" />
<text  x="13.00" y="143.5" ></text>
</g>
<g >
<title>cactive (10,101,010 samples, 0.08%)</title><rect x="290.7" y="309" width="0.9" height="15.0" fill="rgb(233,43,43)" rx="2" ry="2" />
<text  x="293.69" y="319.5" ></text>
</g>
<g >
<title>sm_col_contains (40,404,040 samples, 0.31%)</title><rect x="413.5" y="309" width="3.7" height="15.0" fill="rgb(225,7,22)" rx="2" ry="2" />
<text  x="416.49" y="319.5" ></text>
</g>
<g >
<title>swapper (6,414,141,350 samples, 49.69%)</title><rect x="603.7" y="341" width="586.3" height="15.0" fill="rgb(218,14,48)" rx="2" ry="2" />
<text  x="606.69" y="351.5" >swapper</text>
</g>
<g >
<title>do_sys_times (10,101,010 samples, 0.08%)</title><rect x="424.6" y="261" width="0.9" height="15.0" fill="rgb(229,20,34)" rx="2" ry="2" />
<text  x="427.57" y="271.5" ></text>
</g>
<g >
<title>je_tcache_bin_flush_small (20,202,020 samples, 0.16%)</title><rect x="367.3" y="293" width="1.9" height="15.0" fill="rgb(207,192,1)" rx="2" ry="2" />
<text  x="370.32" y="303.5" ></text>
</g>
<g >
<title>drm_atomic_helper_commit_tail (10,101,010 samples, 0.08%)</title><rect x="600.9" y="181" width="0.9" height="15.0" fill="rgb(224,189,24)" rx="2" ry="2" />
<text  x="603.92" y="191.5" ></text>
</g>
<g >
<title>cofactor (393,939,390 samples, 3.05%)</title><rect x="426.4" y="325" width="36.0" height="15.0" fill="rgb(225,213,35)" rx="2" ry="2" />
<text  x="429.42" y="335.5" >cof..</text>
</g>
<g >
<title>worker_thread (10,101,010 samples, 0.08%)</title><rect x="601.8" y="293" width="1.0" height="15.0" fill="rgb(250,170,42)" rx="2" ry="2" />
<text  x="604.85" y="303.5" ></text>
</g>
<g >
<title>rest_init (40,404,040 samples, 0.31%)</title><rect x="1186.3" y="245" width="3.7" height="15.0" fill="rgb(218,19,40)" rx="2" ry="2" />
<text  x="1189.31" y="255.5" ></text>
</g>
<g >
<title>set_diff (30,303,030 samples, 0.23%)</title><rect x="576.0" y="325" width="2.8" height="15.0" fill="rgb(216,31,40)" rx="2" ry="2" />
<text  x="578.99" y="335.5" ></text>
</g>
<g >
<title>free (30,303,030 samples, 0.23%)</title><rect x="22.0" y="293" width="2.8" height="15.0" fill="rgb(229,216,41)" rx="2" ry="2" />
<text  x="25.00" y="303.5" ></text>
</g>
<g >
<title>read_cube (10,101,010 samples, 0.08%)</title><rect x="385.8" y="309" width="0.9" height="15.0" fill="rgb(236,63,46)" rx="2" ry="2" />
<text  x="388.79" y="319.5" ></text>
</g>
<g >
<title>do_syscall_64 (10,101,010 samples, 0.08%)</title><rect x="10.0" y="277" width="0.9" height="15.0" fill="rgb(226,194,18)" rx="2" ry="2" />
<text  x="13.00" y="287.5" ></text>
</g>
<g >
<title>compl_cube (10,101,010 samples, 0.08%)</title><rect x="291.6" y="309" width="0.9" height="15.0" fill="rgb(215,0,28)" rx="2" ry="2" />
<text  x="294.61" y="319.5" ></text>
</g>
<g >
<title>setup_BB_CC (191,919,190 samples, 1.49%)</title><rect x="395.0" y="309" width="17.6" height="15.0" fill="rgb(254,192,17)" rx="2" ry="2" />
<text  x="398.02" y="319.5" ></text>
</g>
<g >
<title>[unknown] (20,202,020 samples, 0.16%)</title><rect x="16.5" y="293" width="1.8" height="15.0" fill="rgb(227,95,10)" rx="2" ry="2" />
<text  x="19.46" y="303.5" ></text>
</g>
<g >
<title>set_dist (20,202,020 samples, 0.16%)</title><rect x="392.3" y="309" width="1.8" height="15.0" fill="rgb(205,79,37)" rx="2" ry="2" />
<text  x="395.25" y="319.5" ></text>
</g>
<g >
<title>binate_split_select (30,303,030 samples, 0.23%)</title><rect x="287.9" y="309" width="2.8" height="15.0" fill="rgb(219,139,37)" rx="2" ry="2" />
<text  x="290.92" y="319.5" ></text>
</g>
<g >
<title>__strcmp_avx2 (10,101,010 samples, 0.08%)</title><rect x="12.8" y="293" width="0.9" height="15.0" fill="rgb(225,215,38)" rx="2" ry="2" />
<text  x="15.77" y="303.5" ></text>
</g>
<g >
<title>sm_col_dominance (10,101,010 samples, 0.08%)</title><rect x="417.2" y="309" width="0.9" height="15.0" fill="rgb(211,42,51)" rx="2" ry="2" />
<text  x="420.18" y="319.5" ></text>
</g>
<g >
<title>drm_atomic_helper_commit (10,101,010 samples, 0.08%)</title><rect x="600.9" y="213" width="0.9" height="15.0" fill="rgb(242,124,32)" rx="2" ry="2" />
<text  x="603.92" y="223.5" ></text>
</g>
<g >
<title>sf_count (20,202,020 samples, 0.16%)</title><rect x="586.2" y="325" width="1.8" height="15.0" fill="rgb(249,102,13)" rx="2" ry="2" />
<text  x="589.15" y="335.5" ></text>
</g>
<g >
<title>massive_count (2,151,515,130 samples, 16.67%)</title><rect x="54.3" y="293" width="196.7" height="15.0" fill="rgb(207,219,43)" rx="2" ry="2" />
<text  x="57.32" y="303.5" >massive_count</text>
</g>
<g >
<title>arch_cpu_idle (40,404,040 samples, 0.31%)</title><rect x="1186.3" y="181" width="3.7" height="15.0" fill="rgb(215,70,14)" rx="2" ry="2" />
<text  x="1189.31" y="191.5" ></text>
</g>
<g >
<title>ftautology (10,101,010 samples, 0.08%)</title><rect x="24.8" y="293" width="0.9" height="15.0" fill="rgb(228,85,13)" rx="2" ry="2" />
<text  x="27.77" y="303.5" ></text>
</g>
<g >
<title>worker_thread (10,101,010 samples, 0.08%)</title><rect x="600.9" y="293" width="0.9" height="15.0" fill="rgb(253,143,12)" rx="2" ry="2" />
<text  x="603.92" y="303.5" ></text>
</g>
<g >
<title>setp_implies (30,303,030 samples, 0.23%)</title><rect x="254.7" y="293" width="2.7" height="15.0" fill="rgb(246,217,9)" rx="2" ry="2" />
<text  x="257.68" y="303.5" ></text>
</g>
<g >
<title>entry_SYSCALL_64_after_hwframe (10,101,010 samples, 0.08%)</title><rect x="602.8" y="309" width="0.9" height="15.0" fill="rgb(226,10,4)" rx="2" ry="2" />
<text  x="605.77" y="319.5" ></text>
</g>
<g >
<title>all (12,909,090,780 samples, 100%)</title><rect x="10.0" y="357" width="1180.0" height="15.0" fill="rgb(239,171,0)" rx="2" ry="2" />
<text  x="13.00" y="367.5" ></text>
</g>
<g >
<title>je_tcache_bin_flush_stashed (10,101,010 samples, 0.08%)</title><rect x="17.4" y="261" width="0.9" height="15.0" fill="rgb(252,180,33)" rx="2" ry="2" />
<text  x="20.39" y="271.5" ></text>
</g>
<g >
<title>sm_col_alloc (20,202,020 samples, 0.16%)</title><rect x="588.0" y="325" width="1.8" height="15.0" fill="rgb(209,162,17)" rx="2" ry="2" />
<text  x="591.00" y="335.5" ></text>
</g>
<g >
<title>feasibly_covered (10,101,010 samples, 0.08%)</title><rect x="360.9" y="309" width="0.9" height="15.0" fill="rgb(225,182,17)" rx="2" ry="2" />
<text  x="363.86" y="319.5" ></text>
</g>
<g >
<title>__x64_sys_openat (10,101,010 samples, 0.08%)</title><rect x="10.0" y="261" width="0.9" height="15.0" fill="rgb(208,33,29)" rx="2" ry="2" />
<text  x="13.00" y="271.5" ></text>
</g>
</g>
</svg>
