<?xml version="1.0" standalone="no"?>
<!DOCTYPE svg PUBLIC "-//W3C//DTD SVG 1.1//EN" "http://www.w3.org/Graphics/SVG/1.1/DTD/svg11.dtd">
<svg version="1.1" width="1200" height="358" onload="init(evt)" viewBox="0 0 1200 358" xmlns="http://www.w3.org/2000/svg" xmlns:xlink="http://www.w3.org/1999/xlink">
<!-- Flame graph stack visualization. See https://github.com/brendangregg/FlameGraph for latest version, and http://www.brendangregg.com/flamegraphs.html for examples. -->
<!-- NOTES:  -->
<defs>
	<linearGradient id="background" y1="0" y2="1" x1="0" x2="0" >
		<stop stop-color="#eeeeee" offset="5%" />
		<stop stop-color="#eeeeb0" offset="95%" />
	</linearGradient>
</defs>
<style type="text/css">
	text { font-family:Verdana; font-size:12px; fill:rgb(0,0,0); }
	#search, #ignorecase { opacity:0.1; cursor:pointer; }
	#search:hover, #search.show, #ignorecase:hover, #ignorecase.show { opacity:1; }
	#subtitle { text-anchor:middle; font-color:rgb(160,160,160); }
	#title { text-anchor:middle; font-size:17px}
	#unzoom { cursor:pointer; }
	#frames > *:hover { stroke:black; stroke-width:0.5; cursor:pointer; }
	.hide { display:none; }
	.parent { opacity:0.5; }
</style>
<script type="text/ecmascript">
<![CDATA[
	"use strict";
	var details, searchbtn, unzoombtn, matchedtxt, svg, searching, currentSearchTerm, ignorecase, ignorecaseBtn;
	function init(evt) {
		details = document.getElementById("details").firstChild;
		searchbtn = document.getElementById("search");
		ignorecaseBtn = document.getElementById("ignorecase");
		unzoombtn = document.getElementById("unzoom");
		matchedtxt = document.getElementById("matched");
		svg = document.getElementsByTagName("svg")[0];
		searching = 0;
		currentSearchTerm = null;

		// use GET parameters to restore a flamegraphs state.
		var params = get_params();
		if (params.x && params.y)
			zoom(find_group(document.querySelector('[x="' + params.x + '"][y="' + params.y + '"]')));
                if (params.s) search(params.s);
	}

	// event listeners
	window.addEventListener("click", function(e) {
		var target = find_group(e.target);
		if (target) {
			if (target.nodeName == "a") {
				if (e.ctrlKey === false) return;
				e.preventDefault();
			}
			if (target.classList.contains("parent")) unzoom(true);
			zoom(target);
			if (!document.querySelector('.parent')) {
				// we have basically done a clearzoom so clear the url
				var params = get_params();
				if (params.x) delete params.x;
				if (params.y) delete params.y;
				history.replaceState(null, null, parse_params(params));
				unzoombtn.classList.add("hide");
				return;
			}

			// set parameters for zoom state
			var el = target.querySelector("rect");
			if (el && el.attributes && el.attributes.y && el.attributes._orig_x) {
				var params = get_params()
				params.x = el.attributes._orig_x.value;
				params.y = el.attributes.y.value;
				history.replaceState(null, null, parse_params(params));
			}
		}
		else if (e.target.id == "unzoom") clearzoom();
		else if (e.target.id == "search") search_prompt();
		else if (e.target.id == "ignorecase") toggle_ignorecase();
	}, false)

	// mouse-over for info
	// show
	window.addEventListener("mouseover", function(e) {
		var target = find_group(e.target);
		if (target) details.nodeValue = "Function: " + g_to_text(target);
	}, false)

	// clear
	window.addEventListener("mouseout", function(e) {
		var target = find_group(e.target);
		if (target) details.nodeValue = ' ';
	}, false)

	// ctrl-F for search
	// ctrl-I to toggle case-sensitive search
	window.addEventListener("keydown",function (e) {
		if (e.keyCode === 114 || (e.ctrlKey && e.keyCode === 70)) {
			e.preventDefault();
			search_prompt();
		}
		else if (e.ctrlKey && e.keyCode === 73) {
			e.preventDefault();
			toggle_ignorecase();
		}
	}, false)

	// functions
	function get_params() {
		var params = {};
		var paramsarr = window.location.search.substr(1).split('&');
		for (var i = 0; i < paramsarr.length; ++i) {
			var tmp = paramsarr[i].split("=");
			if (!tmp[0] || !tmp[1]) continue;
			params[tmp[0]]  = decodeURIComponent(tmp[1]);
		}
		return params;
	}
	function parse_params(params) {
		var uri = "?";
		for (var key in params) {
			uri += key + '=' + encodeURIComponent(params[key]) + '&';
		}
		if (uri.slice(-1) == "&")
			uri = uri.substring(0, uri.length - 1);
		if (uri == '?')
			uri = window.location.href.split('?')[0];
		return uri;
	}
	function find_child(node, selector) {
		var children = node.querySelectorAll(selector);
		if (children.length) return children[0];
	}
	function find_group(node) {
		var parent = node.parentElement;
		if (!parent) return;
		if (parent.id == "frames") return node;
		return find_group(parent);
	}
	function orig_save(e, attr, val) {
		if (e.attributes["_orig_" + attr] != undefined) return;
		if (e.attributes[attr] == undefined) return;
		if (val == undefined) val = e.attributes[attr].value;
		e.setAttribute("_orig_" + attr, val);
	}
	function orig_load(e, attr) {
		if (e.attributes["_orig_"+attr] == undefined) return;
		e.attributes[attr].value = e.attributes["_orig_" + attr].value;
		e.removeAttribute("_orig_"+attr);
	}
	function g_to_text(e) {
		var text = find_child(e, "title").firstChild.nodeValue;
		return (text)
	}
	function g_to_func(e) {
		var func = g_to_text(e);
		// if there's any manipulation we want to do to the function
		// name before it's searched, do it here before returning.
		return (func);
	}
	function update_text(e) {
		var r = find_child(e, "rect");
		var t = find_child(e, "text");
		var w = parseFloat(r.attributes.width.value) -3;
		var txt = find_child(e, "title").textContent.replace(/\([^(]*\)$/,"");
		t.attributes.x.value = parseFloat(r.attributes.x.value) + 3;

		// Smaller than this size won't fit anything
		if (w < 2 * 12 * 0.59) {
			t.textContent = "";
			return;
		}

		t.textContent = txt;
		var sl = t.getSubStringLength(0, txt.length);
		// check if only whitespace or if we can fit the entire string into width w
		if (/^ *$/.test(txt) || sl < w)
			return;

		// this isn't perfect, but gives a good starting point
		// and avoids calling getSubStringLength too often
		var start = Math.floor((w/sl) * txt.length);
		for (var x = start; x > 0; x = x-2) {
			if (t.getSubStringLength(0, x + 2) <= w) {
				t.textContent = txt.substring(0, x) + "..";
				return;
			}
		}
		t.textContent = "";
	}

	// zoom
	function zoom_reset(e) {
		if (e.attributes != undefined) {
			orig_load(e, "x");
			orig_load(e, "width");
		}
		if (e.childNodes == undefined) return;
		for (var i = 0, c = e.childNodes; i < c.length; i++) {
			zoom_reset(c[i]);
		}
	}
	function zoom_child(e, x, ratio) {
		if (e.attributes != undefined) {
			if (e.attributes.x != undefined) {
				orig_save(e, "x");
				e.attributes.x.value = (parseFloat(e.attributes.x.value) - x - 10) * ratio + 10;
				if (e.tagName == "text")
					e.attributes.x.value = find_child(e.parentNode, "rect[x]").attributes.x.value + 3;
			}
			if (e.attributes.width != undefined) {
				orig_save(e, "width");
				e.attributes.width.value = parseFloat(e.attributes.width.value) * ratio;
			}
		}

		if (e.childNodes == undefined) return;
		for (var i = 0, c = e.childNodes; i < c.length; i++) {
			zoom_child(c[i], x - 10, ratio);
		}
	}
	function zoom_parent(e) {
		if (e.attributes) {
			if (e.attributes.x != undefined) {
				orig_save(e, "x");
				e.attributes.x.value = 10;
			}
			if (e.attributes.width != undefined) {
				orig_save(e, "width");
				e.attributes.width.value = parseInt(svg.width.baseVal.value) - (10 * 2);
			}
		}
		if (e.childNodes == undefined) return;
		for (var i = 0, c = e.childNodes; i < c.length; i++) {
			zoom_parent(c[i]);
		}
	}
	function zoom(node) {
		var attr = find_child(node, "rect").attributes;
		var width = parseFloat(attr.width.value);
		var xmin = parseFloat(attr.x.value);
		var xmax = parseFloat(xmin + width);
		var ymin = parseFloat(attr.y.value);
		var ratio = (svg.width.baseVal.value - 2 * 10) / width;

		// XXX: Workaround for JavaScript float issues (fix me)
		var fudge = 0.0001;

		unzoombtn.classList.remove("hide");

		var el = document.getElementById("frames").children;
		for (var i = 0; i < el.length; i++) {
			var e = el[i];
			var a = find_child(e, "rect").attributes;
			var ex = parseFloat(a.x.value);
			var ew = parseFloat(a.width.value);
			var upstack;
			// Is it an ancestor
			if (0 == 0) {
				upstack = parseFloat(a.y.value) > ymin;
			} else {
				upstack = parseFloat(a.y.value) < ymin;
			}
			if (upstack) {
				// Direct ancestor
				if (ex <= xmin && (ex+ew+fudge) >= xmax) {
					e.classList.add("parent");
					zoom_parent(e);
					update_text(e);
				}
				// not in current path
				else
					e.classList.add("hide");
			}
			// Children maybe
			else {
				// no common path
				if (ex < xmin || ex + fudge >= xmax) {
					e.classList.add("hide");
				}
				else {
					zoom_child(e, xmin, ratio);
					update_text(e);
				}
			}
		}
		search();
	}
	function unzoom(dont_update_text) {
		unzoombtn.classList.add("hide");
		var el = document.getElementById("frames").children;
		for(var i = 0; i < el.length; i++) {
			el[i].classList.remove("parent");
			el[i].classList.remove("hide");
			zoom_reset(el[i]);
			if(!dont_update_text) update_text(el[i]);
		}
		search();
	}
	function clearzoom() {
		unzoom();

		// remove zoom state
		var params = get_params();
		if (params.x) delete params.x;
		if (params.y) delete params.y;
		history.replaceState(null, null, parse_params(params));
	}

	// search
	function toggle_ignorecase() {
		ignorecase = !ignorecase;
		if (ignorecase) {
			ignorecaseBtn.classList.add("show");
		} else {
			ignorecaseBtn.classList.remove("show");
		}
		reset_search();
		search();
	}
	function reset_search() {
		var el = document.querySelectorAll("#frames rect");
		for (var i = 0; i < el.length; i++) {
			orig_load(el[i], "fill")
		}
		var params = get_params();
		delete params.s;
		history.replaceState(null, null, parse_params(params));
	}
	function search_prompt() {
		if (!searching) {
			var term = prompt("Enter a search term (regexp " +
			    "allowed, eg: ^ext4_)"
			    + (ignorecase ? ", ignoring case" : "")
			    + "\nPress Ctrl-i to toggle case sensitivity", "");
			if (term != null) search(term);
		} else {
			reset_search();
			searching = 0;
			currentSearchTerm = null;
			searchbtn.classList.remove("show");
			searchbtn.firstChild.nodeValue = "Search"
			matchedtxt.classList.add("hide");
			matchedtxt.firstChild.nodeValue = ""
		}
	}
	function search(term) {
		if (term) currentSearchTerm = term;

		var re = new RegExp(currentSearchTerm, ignorecase ? 'i' : '');
		var el = document.getElementById("frames").children;
		var matches = new Object();
		var maxwidth = 0;
		for (var i = 0; i < el.length; i++) {
			var e = el[i];
			var func = g_to_func(e);
			var rect = find_child(e, "rect");
			if (func == null || rect == null)
				continue;

			// Save max width. Only works as we have a root frame
			var w = parseFloat(rect.attributes.width.value);
			if (w > maxwidth)
				maxwidth = w;

			if (func.match(re)) {
				// highlight
				var x = parseFloat(rect.attributes.x.value);
				orig_save(rect, "fill");
				rect.attributes.fill.value = "rgb(230,0,230)";

				// remember matches
				if (matches[x] == undefined) {
					matches[x] = w;
				} else {
					if (w > matches[x]) {
						// overwrite with parent
						matches[x] = w;
					}
				}
				searching = 1;
			}
		}
		if (!searching)
			return;
		var params = get_params();
		params.s = currentSearchTerm;
		history.replaceState(null, null, parse_params(params));

		searchbtn.classList.add("show");
		searchbtn.firstChild.nodeValue = "Reset Search";

		// calculate percent matched, excluding vertical overlap
		var count = 0;
		var lastx = -1;
		var lastw = 0;
		var keys = Array();
		for (k in matches) {
			if (matches.hasOwnProperty(k))
				keys.push(k);
		}
		// sort the matched frames by their x location
		// ascending, then width descending
		keys.sort(function(a, b){
			return a - b;
		});
		// Step through frames saving only the biggest bottom-up frames
		// thanks to the sort order. This relies on the tree property
		// where children are always smaller than their parents.
		var fudge = 0.0001;	// JavaScript floating point
		for (var k in keys) {
			var x = parseFloat(keys[k]);
			var w = matches[keys[k]];
			if (x >= lastx + lastw - fudge) {
				count += w;
				lastx = x;
				lastw = w;
			}
		}
		// display matched percent
		matchedtxt.classList.remove("hide");
		var pct = 100 * count / maxwidth;
		if (pct != 100) pct = pct.toFixed(1)
		matchedtxt.firstChild.nodeValue = "Matched: " + pct + "%";
	}
]]>
</script>
<rect x="0.0" y="0" width="1200.0" height="358.0" fill="url(#background)"  />
<text id="title" x="600.00" y="24" >Flame Graph</text>
<text id="details" x="10.00" y="341" > </text>
<text id="unzoom" x="10.00" y="24" class="hide">Reset Zoom</text>
<text id="search" x="1090.00" y="24" >Search</text>
<text id="ignorecase" x="1174.00" y="24" >ic</text>
<text id="matched" x="1090.00" y="341" > </text>
<g id="frames">
<g >
<title>operator delete (60,606,060 samples, 0.43%)</title><rect x="807.3" y="277" width="5.0" height="15.0" fill="rgb(234,194,51)" rx="2" ry="2" />
<text  x="810.30" y="287.5" ></text>
</g>
<g >
<title>[[kernel.kallsyms]] (10,101,010 samples, 0.07%)</title><rect x="330.6" y="245" width="0.8" height="15.0" fill="rgb(233,13,29)" rx="2" ry="2" />
<text  x="333.60" y="255.5" ></text>
</g>
<g >
<title>[[kernel.kallsyms]] (20,202,020 samples, 0.14%)</title><rect x="840.0" y="165" width="1.7" height="15.0" fill="rgb(208,208,22)" rx="2" ry="2" />
<text  x="843.03" y="175.5" ></text>
</g>
<g >
<title>[unknown] (1,565,656,550 samples, 11.02%)</title><rect x="65.4" y="277" width="130.1" height="15.0" fill="rgb(224,226,47)" rx="2" ry="2" />
<text  x="68.39" y="287.5" >[unknown]</text>
</g>
<g >
<title>[[kernel.kallsyms]] (2,080,808,060 samples, 14.65%)</title><rect x="849.3" y="229" width="172.8" height="15.0" fill="rgb(226,197,10)" rx="2" ry="2" />
<text  x="852.26" y="239.5" >[[kernel.kallsyms]]</text>
</g>
<g >
<title>[[kernel.kallsyms]] (10,101,010 samples, 0.07%)</title><rect x="848.4" y="53" width="0.9" height="15.0" fill="rgb(232,66,42)" rx="2" ry="2" />
<text  x="851.42" y="63.5" ></text>
</g>
<g >
<title>malloc (1,464,646,450 samples, 10.31%)</title><rect x="684.8" y="277" width="121.7" height="15.0" fill="rgb(234,113,54)" rx="2" ry="2" />
<text  x="687.77" y="287.5" >malloc</text>
</g>
<g >
<title>moduleCount (10,101,010 samples, 0.07%)</title><rect x="847.6" y="277" width="0.8" height="15.0" fill="rgb(241,123,36)" rx="2" ry="2" />
<text  x="850.58" y="287.5" ></text>
</g>
<g >
<title>_int_malloc (10,101,010 samples, 0.07%)</title><rect x="10.8" y="277" width="0.9" height="15.0" fill="rgb(233,88,0)" rx="2" ry="2" />
<text  x="13.84" y="287.5" ></text>
</g>
<g >
<title>[[kernel.kallsyms]] (2,020,202,000 samples, 14.22%)</title><rect x="1022.1" y="165" width="167.9" height="15.0" fill="rgb(247,225,10)" rx="2" ry="2" />
<text  x="1025.15" y="175.5" >[[kernel.kallsyms]]</text>
</g>
<g >
<title>[[kernel.kallsyms]] (10,101,010 samples, 0.07%)</title><rect x="11.7" y="277" width="0.8" height="15.0" fill="rgb(220,211,22)" rx="2" ry="2" />
<text  x="14.68" y="287.5" ></text>
</g>
<g >
<title>[[kernel.kallsyms]] (2,080,808,060 samples, 14.65%)</title><rect x="849.3" y="261" width="172.8" height="15.0" fill="rgb(206,124,14)" rx="2" ry="2" />
<text  x="852.26" y="271.5" >[[kernel.kallsyms]]</text>
</g>
<g >
<title>[[kernel.kallsyms]] (10,101,010 samples, 0.07%)</title><rect x="64.6" y="165" width="0.8" height="15.0" fill="rgb(227,14,38)" rx="2" ry="2" />
<text  x="67.55" y="175.5" ></text>
</g>
<g >
<title>[libstdc++.so.6.0.28] (434,343,430 samples, 3.06%)</title><rect x="29.3" y="277" width="36.1" height="15.0" fill="rgb(230,89,33)" rx="2" ry="2" />
<text  x="32.30" y="287.5" >[li..</text>
</g>
<g >
<title>larson-sized (10,050,504,950 samples, 70.77%)</title><rect x="11.7" y="293" width="835.0" height="15.0" fill="rgb(220,94,53)" rx="2" ry="2" />
<text  x="14.68" y="303.5" >larson-sized</text>
</g>
<g >
<title>operator new (151,515,150 samples, 1.07%)</title><rect x="819.9" y="277" width="12.6" height="15.0" fill="rgb(254,17,25)" rx="2" ry="2" />
<text  x="822.89" y="287.5" ></text>
</g>
<g >
<title>[[kernel.kallsyms]] (10,101,010 samples, 0.07%)</title><rect x="848.4" y="245" width="0.9" height="15.0" fill="rgb(250,144,7)" rx="2" ry="2" />
<text  x="851.42" y="255.5" ></text>
</g>
<g >
<title>unlink_chunk.isra.0 (60,606,060 samples, 0.43%)</title><rect x="841.7" y="277" width="5.0" height="15.0" fill="rgb(229,110,42)" rx="2" ry="2" />
<text  x="844.71" y="287.5" ></text>
</g>
<g >
<title>find_shell_builtin (10,101,010 samples, 0.07%)</title><rect x="10.0" y="277" width="0.8" height="15.0" fill="rgb(207,42,33)" rx="2" ry="2" />
<text  x="13.00" y="287.5" ></text>
</g>
<g >
<title>runthreads (10,101,010 samples, 0.07%)</title><rect x="184.6" y="261" width="0.8" height="15.0" fill="rgb(250,2,31)" rx="2" ry="2" />
<text  x="187.57" y="271.5" ></text>
</g>
<g >
<title>[[kernel.kallsyms]] (10,101,010 samples, 0.07%)</title><rect x="835.0" y="149" width="0.8" height="15.0" fill="rgb(233,86,19)" rx="2" ry="2" />
<text  x="837.99" y="159.5" ></text>
</g>
<g >
<title>[[kernel.kallsyms]] (10,101,010 samples, 0.07%)</title><rect x="11.7" y="261" width="0.8" height="15.0" fill="rgb(238,57,52)" rx="2" ry="2" />
<text  x="14.68" y="271.5" ></text>
</g>
<g >
<title>[[kernel.kallsyms]] (10,101,010 samples, 0.07%)</title><rect x="846.7" y="197" width="0.9" height="15.0" fill="rgb(218,201,52)" rx="2" ry="2" />
<text  x="849.74" y="207.5" ></text>
</g>
<g >
<title>exercise_heap (2,646,464,620 samples, 18.63%)</title><rect x="464.9" y="277" width="219.9" height="15.0" fill="rgb(240,26,51)" rx="2" ry="2" />
<text  x="467.88" y="287.5" >exercise_heap</text>
</g>
<g >
<title>cfree@GLIBC_2.2.5 (1,606,060,590 samples, 11.31%)</title><rect x="331.4" y="277" width="133.5" height="15.0" fill="rgb(229,2,23)" rx="2" ry="2" />
<text  x="334.44" y="287.5" >cfree@GLIBC_2.2.5</text>
</g>
<g >
<title>swapper (4,101,010,060 samples, 28.88%)</title><rect x="849.3" y="293" width="340.7" height="15.0" fill="rgb(239,194,54)" rx="2" ry="2" />
<text  x="852.26" y="303.5" >swapper</text>
</g>
<g >
<title>[[kernel.kallsyms]] (10,101,010 samples, 0.07%)</title><rect x="848.4" y="165" width="0.9" height="15.0" fill="rgb(234,155,10)" rx="2" ry="2" />
<text  x="851.42" y="175.5" ></text>
</g>
<g >
<title>[[kernel.kallsyms]] (20,202,020 samples, 0.14%)</title><rect x="840.0" y="213" width="1.7" height="15.0" fill="rgb(254,186,0)" rx="2" ry="2" />
<text  x="843.03" y="223.5" ></text>
</g>
<g >
<title>__lll_lock_wait_private (10,101,010 samples, 0.07%)</title><rect x="66.2" y="261" width="0.9" height="15.0" fill="rgb(247,204,26)" rx="2" ry="2" />
<text  x="69.23" y="271.5" ></text>
</g>
<g >
<title>[[kernel.kallsyms]] (10,101,010 samples, 0.07%)</title><rect x="835.0" y="229" width="0.8" height="15.0" fill="rgb(210,54,46)" rx="2" ry="2" />
<text  x="837.99" y="239.5" ></text>
</g>
<g >
<title>[[kernel.kallsyms]] (4,101,010,060 samples, 28.88%)</title><rect x="849.3" y="277" width="340.7" height="15.0" fill="rgb(206,114,52)" rx="2" ry="2" />
<text  x="852.26" y="287.5" >[[kernel.kallsyms]]</text>
</g>
<g >
<title>sysmalloc (70,707,070 samples, 0.50%)</title><rect x="835.8" y="277" width="5.9" height="15.0" fill="rgb(215,6,12)" rx="2" ry="2" />
<text  x="838.83" y="287.5" ></text>
</g>
<g >
<title>[[kernel.kallsyms]] (10,101,010 samples, 0.07%)</title><rect x="846.7" y="229" width="0.9" height="15.0" fill="rgb(223,179,24)" rx="2" ry="2" />
<text  x="849.74" y="239.5" ></text>
</g>
<g >
<title>[[kernel.kallsyms]] (10,101,010 samples, 0.07%)</title><rect x="11.7" y="133" width="0.8" height="15.0" fill="rgb(222,101,9)" rx="2" ry="2" />
<text  x="14.68" y="143.5" ></text>
</g>
<g >
<title>__mprotect (10,101,010 samples, 0.07%)</title><rect x="196.3" y="277" width="0.9" height="15.0" fill="rgb(240,61,24)" rx="2" ry="2" />
<text  x="199.32" y="287.5" ></text>
</g>
<g >
<title>[[kernel.kallsyms]] (10,101,010 samples, 0.07%)</title><rect x="848.4" y="101" width="0.9" height="15.0" fill="rgb(243,18,0)" rx="2" ry="2" />
<text  x="851.42" y="111.5" ></text>
</g>
<g >
<title>[[kernel.kallsyms]] (10,101,010 samples, 0.07%)</title><rect x="65.4" y="245" width="0.8" height="15.0" fill="rgb(245,85,44)" rx="2" ry="2" />
<text  x="68.39" y="255.5" ></text>
</g>
<g >
<title>_int_free (1,404,040,390 samples, 9.89%)</title><rect x="67.1" y="261" width="116.6" height="15.0" fill="rgb(243,63,43)" rx="2" ry="2" />
<text  x="70.07" y="271.5" >_int_free</text>
</g>
<g >
<title>[[kernel.kallsyms]] (10,101,010 samples, 0.07%)</title><rect x="835.0" y="197" width="0.8" height="15.0" fill="rgb(211,116,34)" rx="2" ry="2" />
<text  x="837.99" y="207.5" ></text>
</g>
<g >
<title>_int_malloc (1,141,414,130 samples, 8.04%)</title><rect x="236.6" y="277" width="94.8" height="15.0" fill="rgb(251,94,18)" rx="2" ry="2" />
<text  x="239.60" y="287.5" >_int_malloc</text>
</g>
<g >
<title>[[kernel.kallsyms]] (10,101,010 samples, 0.07%)</title><rect x="848.4" y="37" width="0.9" height="15.0" fill="rgb(237,58,10)" rx="2" ry="2" />
<text  x="851.42" y="47.5" ></text>
</g>
<g >
<title>[[kernel.kallsyms]] (10,101,010 samples, 0.07%)</title><rect x="848.4" y="213" width="0.9" height="15.0" fill="rgb(217,183,19)" rx="2" ry="2" />
<text  x="851.42" y="223.5" ></text>
</g>
<g >
<title>[[kernel.kallsyms]] (10,101,010 samples, 0.07%)</title><rect x="846.7" y="261" width="0.9" height="15.0" fill="rgb(226,121,39)" rx="2" ry="2" />
<text  x="849.74" y="271.5" ></text>
</g>
<g >
<title>[[kernel.kallsyms]] (10,101,010 samples, 0.07%)</title><rect x="848.4" y="229" width="0.9" height="15.0" fill="rgb(219,179,35)" rx="2" ry="2" />
<text  x="851.42" y="239.5" ></text>
</g>
<g >
<title>[[kernel.kallsyms]] (10,101,010 samples, 0.07%)</title><rect x="835.0" y="261" width="0.8" height="15.0" fill="rgb(238,55,6)" rx="2" ry="2" />
<text  x="837.99" y="271.5" ></text>
</g>
<g >
<title>[[kernel.kallsyms]] (10,101,010 samples, 0.07%)</title><rect x="846.7" y="213" width="0.9" height="15.0" fill="rgb(224,175,44)" rx="2" ry="2" />
<text  x="849.74" y="223.5" ></text>
</g>
<g >
<title>[[kernel.kallsyms]] (10,101,010 samples, 0.07%)</title><rect x="65.4" y="165" width="0.8" height="15.0" fill="rgb(231,79,42)" rx="2" ry="2" />
<text  x="68.39" y="175.5" ></text>
</g>
<g >
<title>[unknown] (2,020,202,000 samples, 14.22%)</title><rect x="1022.1" y="229" width="167.9" height="15.0" fill="rgb(242,152,20)" rx="2" ry="2" />
<text  x="1025.15" y="239.5" >[unknown]</text>
</g>
<g >
<title>[[kernel.kallsyms]] (2,080,808,060 samples, 14.65%)</title><rect x="849.3" y="181" width="172.8" height="15.0" fill="rgb(253,228,48)" rx="2" ry="2" />
<text  x="852.26" y="191.5" >[[kernel.kallsyms]]</text>
</g>
<g >
<title>[[kernel.kallsyms]] (10,101,010 samples, 0.07%)</title><rect x="64.6" y="213" width="0.8" height="15.0" fill="rgb(240,120,47)" rx="2" ry="2" />
<text  x="67.55" y="223.5" ></text>
</g>
<g >
<title>[[kernel.kallsyms]] (20,202,020 samples, 0.14%)</title><rect x="182.0" y="213" width="1.7" height="15.0" fill="rgb(243,132,19)" rx="2" ry="2" />
<text  x="185.05" y="223.5" ></text>
</g>
<g >
<title>[[kernel.kallsyms]] (10,101,010 samples, 0.07%)</title><rect x="11.7" y="117" width="0.8" height="15.0" fill="rgb(207,46,19)" rx="2" ry="2" />
<text  x="14.68" y="127.5" ></text>
</g>
<g >
<title>malloc_consolidate (10,101,010 samples, 0.07%)</title><rect x="806.5" y="277" width="0.8" height="15.0" fill="rgb(225,7,49)" rx="2" ry="2" />
<text  x="809.46" y="287.5" ></text>
</g>
<g >
<title>[[kernel.kallsyms]] (10,101,010 samples, 0.07%)</title><rect x="11.7" y="229" width="0.8" height="15.0" fill="rgb(232,62,6)" rx="2" ry="2" />
<text  x="14.68" y="239.5" ></text>
</g>
<g >
<title>_int_free (474,747,470 samples, 3.34%)</title><rect x="197.2" y="277" width="39.4" height="15.0" fill="rgb(236,31,27)" rx="2" ry="2" />
<text  x="200.16" y="287.5" >_in..</text>
</g>
<g >
<title>[[kernel.kallsyms]] (2,020,202,000 samples, 14.22%)</title><rect x="1022.1" y="181" width="167.9" height="15.0" fill="rgb(238,150,16)" rx="2" ry="2" />
<text  x="1025.15" y="191.5" >[[kernel.kallsyms]]</text>
</g>
<g >
<title>[[kernel.kallsyms]] (10,101,010 samples, 0.07%)</title><rect x="848.4" y="85" width="0.9" height="15.0" fill="rgb(234,130,4)" rx="2" ry="2" />
<text  x="851.42" y="95.5" ></text>
</g>
<g >
<title>[[kernel.kallsyms]] (10,101,010 samples, 0.07%)</title><rect x="64.6" y="181" width="0.8" height="15.0" fill="rgb(246,163,50)" rx="2" ry="2" />
<text  x="67.55" y="191.5" ></text>
</g>
<g >
<title>[[kernel.kallsyms]] (10,101,010 samples, 0.07%)</title><rect x="11.7" y="149" width="0.8" height="15.0" fill="rgb(213,25,42)" rx="2" ry="2" />
<text  x="14.68" y="159.5" ></text>
</g>
<g >
<title>unlink_chunk.isra.0 (121,212,120 samples, 0.85%)</title><rect x="185.4" y="261" width="10.1" height="15.0" fill="rgb(231,42,22)" rx="2" ry="2" />
<text  x="188.41" y="271.5" ></text>
</g>
<g >
<title>dirname (10,101,010 samples, 0.07%)</title><rect x="10.8" y="293" width="0.9" height="15.0" fill="rgb(212,9,28)" rx="2" ry="2" />
<text  x="13.84" y="303.5" ></text>
</g>
<g >
<title>all (14,202,020,060 samples, 100%)</title><rect x="10.0" y="309" width="1180.0" height="15.0" fill="rgb(221,170,47)" rx="2" ry="2" />
<text  x="13.00" y="319.5" ></text>
</g>
<g >
<title>[[kernel.kallsyms]] (20,202,020 samples, 0.14%)</title><rect x="840.0" y="149" width="1.7" height="15.0" fill="rgb(252,167,22)" rx="2" ry="2" />
<text  x="843.03" y="159.5" ></text>
</g>
<g >
<title>[[kernel.kallsyms]] (10,101,010 samples, 0.07%)</title><rect x="848.4" y="133" width="0.9" height="15.0" fill="rgb(218,127,46)" rx="2" ry="2" />
<text  x="851.42" y="143.5" ></text>
</g>
<g >
<title>[[kernel.kallsyms]] (10,101,010 samples, 0.07%)</title><rect x="846.7" y="277" width="0.9" height="15.0" fill="rgb(214,64,32)" rx="2" ry="2" />
<text  x="849.74" y="287.5" ></text>
</g>
<g >
<title>[[kernel.kallsyms]] (10,101,010 samples, 0.07%)</title><rect x="840.9" y="133" width="0.8" height="15.0" fill="rgb(253,150,15)" rx="2" ry="2" />
<text  x="843.87" y="143.5" ></text>
</g>
<g >
<title>[[kernel.kallsyms]] (10,101,010 samples, 0.07%)</title><rect x="182.9" y="165" width="0.8" height="15.0" fill="rgb(224,72,34)" rx="2" ry="2" />
<text  x="185.89" y="175.5" ></text>
</g>
<g >
<title>[[kernel.kallsyms]] (20,202,020 samples, 0.14%)</title><rect x="182.0" y="197" width="1.7" height="15.0" fill="rgb(213,183,14)" rx="2" ry="2" />
<text  x="185.05" y="207.5" ></text>
</g>
<g >
<title>[[kernel.kallsyms]] (10,101,010 samples, 0.07%)</title><rect x="848.4" y="69" width="0.9" height="15.0" fill="rgb(240,195,12)" rx="2" ry="2" />
<text  x="851.42" y="79.5" ></text>
</g>
<g >
<title>bench.sh (10,101,010 samples, 0.07%)</title><rect x="10.0" y="293" width="0.8" height="15.0" fill="rgb(235,119,49)" rx="2" ry="2" />
<text  x="13.00" y="303.5" ></text>
</g>
<g >
<title>[[kernel.kallsyms]] (10,101,010 samples, 0.07%)</title><rect x="835.0" y="165" width="0.8" height="15.0" fill="rgb(247,229,14)" rx="2" ry="2" />
<text  x="837.99" y="175.5" ></text>
</g>
<g >
<title>rcu_sched (10,101,010 samples, 0.07%)</title><rect x="846.7" y="293" width="0.9" height="15.0" fill="rgb(207,53,45)" rx="2" ry="2" />
<text  x="849.74" y="303.5" ></text>
</g>
<g >
<title>[[kernel.kallsyms]] (10,101,010 samples, 0.07%)</title><rect x="65.4" y="197" width="0.8" height="15.0" fill="rgb(205,93,18)" rx="2" ry="2" />
<text  x="68.39" y="207.5" ></text>
</g>
<g >
<title>[[kernel.kallsyms]] (10,101,010 samples, 0.07%)</title><rect x="848.4" y="149" width="0.9" height="15.0" fill="rgb(222,106,1)" rx="2" ry="2" />
<text  x="851.42" y="159.5" ></text>
</g>
<g >
<title>[[kernel.kallsyms]] (10,101,010 samples, 0.07%)</title><rect x="835.0" y="213" width="0.8" height="15.0" fill="rgb(235,13,6)" rx="2" ry="2" />
<text  x="837.99" y="223.5" ></text>
</g>
<g >
<title>[[kernel.kallsyms]] (10,101,010 samples, 0.07%)</title><rect x="64.6" y="245" width="0.8" height="15.0" fill="rgb(248,33,42)" rx="2" ry="2" />
<text  x="67.55" y="255.5" ></text>
</g>
<g >
<title>[unknown] (2,020,202,000 samples, 14.22%)</title><rect x="1022.1" y="261" width="167.9" height="15.0" fill="rgb(213,167,32)" rx="2" ry="2" />
<text  x="1025.15" y="271.5" >[unknown]</text>
</g>
<g >
<title>__GI___libc_write (10,101,010 samples, 0.07%)</title><rect x="848.4" y="261" width="0.9" height="15.0" fill="rgb(249,126,28)" rx="2" ry="2" />
<text  x="851.42" y="271.5" ></text>
</g>
<g >
<title>[[kernel.kallsyms]] (10,101,010 samples, 0.07%)</title><rect x="11.7" y="245" width="0.8" height="15.0" fill="rgb(214,12,20)" rx="2" ry="2" />
<text  x="14.68" y="255.5" ></text>
</g>
<g >
<title>[[kernel.kallsyms]] (20,202,020 samples, 0.14%)</title><rect x="840.0" y="229" width="1.7" height="15.0" fill="rgb(209,132,12)" rx="2" ry="2" />
<text  x="843.03" y="239.5" ></text>
</g>
<g >
<title>[[kernel.kallsyms]] (20,202,020 samples, 0.14%)</title><rect x="182.0" y="229" width="1.7" height="15.0" fill="rgb(225,128,13)" rx="2" ry="2" />
<text  x="185.05" y="239.5" ></text>
</g>
<g >
<title>[[kernel.kallsyms]] (10,101,010 samples, 0.07%)</title><rect x="848.4" y="117" width="0.9" height="15.0" fill="rgb(228,82,7)" rx="2" ry="2" />
<text  x="851.42" y="127.5" ></text>
</g>
<g >
<title>[[kernel.kallsyms]] (20,202,020 samples, 0.14%)</title><rect x="182.0" y="245" width="1.7" height="15.0" fill="rgb(230,52,45)" rx="2" ry="2" />
<text  x="185.05" y="255.5" ></text>
</g>
<g >
<title>cfree@GLIBC_2.2.5 (10,101,010 samples, 0.07%)</title><rect x="183.7" y="261" width="0.9" height="15.0" fill="rgb(242,165,6)" rx="2" ry="2" />
<text  x="186.73" y="271.5" ></text>
</g>
<g >
<title>[[kernel.kallsyms]] (10,101,010 samples, 0.07%)</title><rect x="11.7" y="197" width="0.8" height="15.0" fill="rgb(244,96,17)" rx="2" ry="2" />
<text  x="14.68" y="207.5" ></text>
</g>
<g >
<title>[[kernel.kallsyms]] (10,101,010 samples, 0.07%)</title><rect x="64.6" y="229" width="0.8" height="15.0" fill="rgb(212,18,42)" rx="2" ry="2" />
<text  x="67.55" y="239.5" ></text>
</g>
<g >
<title>[unknown] (2,020,202,000 samples, 14.22%)</title><rect x="1022.1" y="245" width="167.9" height="15.0" fill="rgb(252,199,16)" rx="2" ry="2" />
<text  x="1025.15" y="255.5" >[unknown]</text>
</g>
<g >
<title>[[kernel.kallsyms]] (10,101,010 samples, 0.07%)</title><rect x="846.7" y="245" width="0.9" height="15.0" fill="rgb(234,38,30)" rx="2" ry="2" />
<text  x="849.74" y="255.5" ></text>
</g>
<g >
<title>[[kernel.kallsyms]] (20,202,020 samples, 0.14%)</title><rect x="182.0" y="181" width="1.7" height="15.0" fill="rgb(243,86,3)" rx="2" ry="2" />
<text  x="185.05" y="191.5" ></text>
</g>
<g >
<title>[[kernel.kallsyms]] (10,101,010 samples, 0.07%)</title><rect x="64.6" y="149" width="0.8" height="15.0" fill="rgb(254,102,38)" rx="2" ry="2" />
<text  x="67.55" y="159.5" ></text>
</g>
<g >
<title>[[kernel.kallsyms]] (10,101,010 samples, 0.07%)</title><rect x="330.6" y="213" width="0.8" height="15.0" fill="rgb(217,176,20)" rx="2" ry="2" />
<text  x="333.60" y="223.5" ></text>
</g>
<g >
<title>[[kernel.kallsyms]] (2,080,808,060 samples, 14.65%)</title><rect x="849.3" y="197" width="172.8" height="15.0" fill="rgb(210,152,1)" rx="2" ry="2" />
<text  x="852.26" y="207.5" >[[kernel.kallsyms]]</text>
</g>
<g >
<title>__lll_lock_wait_private (10,101,010 samples, 0.07%)</title><rect x="195.5" y="277" width="0.8" height="15.0" fill="rgb(229,90,26)" rx="2" ry="2" />
<text  x="198.48" y="287.5" ></text>
</g>
<g >
<title>[[kernel.kallsyms]] (10,101,010 samples, 0.07%)</title><rect x="848.4" y="197" width="0.9" height="15.0" fill="rgb(212,31,42)" rx="2" ry="2" />
<text  x="851.42" y="207.5" ></text>
</g>
<g >
<title>operator new[] (40,404,040 samples, 0.28%)</title><rect x="832.5" y="277" width="3.3" height="15.0" fill="rgb(240,204,20)" rx="2" ry="2" />
<text  x="835.48" y="287.5" ></text>
</g>
<g >
<title>[[kernel.kallsyms]] (2,080,808,060 samples, 14.65%)</title><rect x="849.3" y="245" width="172.8" height="15.0" fill="rgb(216,69,3)" rx="2" ry="2" />
<text  x="852.26" y="255.5" >[[kernel.kallsyms]]</text>
</g>
<g >
<title>[[kernel.kallsyms]] (2,020,202,000 samples, 14.22%)</title><rect x="1022.1" y="133" width="167.9" height="15.0" fill="rgb(222,89,45)" rx="2" ry="2" />
<text  x="1025.15" y="143.5" >[[kernel.kallsyms]]</text>
</g>
<g >
<title>[[kernel.kallsyms]] (2,020,202,000 samples, 14.22%)</title><rect x="1022.1" y="197" width="167.9" height="15.0" fill="rgb(234,43,44)" rx="2" ry="2" />
<text  x="1025.15" y="207.5" >[[kernel.kallsyms]]</text>
</g>
<g >
<title>[[kernel.kallsyms]] (10,101,010 samples, 0.07%)</title><rect x="64.6" y="197" width="0.8" height="15.0" fill="rgb(229,67,19)" rx="2" ry="2" />
<text  x="67.55" y="207.5" ></text>
</g>
<g >
<title>[[kernel.kallsyms]] (10,101,010 samples, 0.07%)</title><rect x="11.7" y="165" width="0.8" height="15.0" fill="rgb(233,142,23)" rx="2" ry="2" />
<text  x="14.68" y="175.5" ></text>
</g>
<g >
<title>[[kernel.kallsyms]] (2,020,202,000 samples, 14.22%)</title><rect x="1022.1" y="149" width="167.9" height="15.0" fill="rgb(248,162,11)" rx="2" ry="2" />
<text  x="1025.15" y="159.5" >[[kernel.kallsyms]]</text>
</g>
<g >
<title>__clone (10,101,010 samples, 0.07%)</title><rect x="65.4" y="261" width="0.8" height="15.0" fill="rgb(209,76,24)" rx="2" ry="2" />
<text  x="68.39" y="271.5" ></text>
</g>
<g >
<title>[[kernel.kallsyms]] (20,202,020 samples, 0.14%)</title><rect x="840.0" y="181" width="1.7" height="15.0" fill="rgb(218,215,11)" rx="2" ry="2" />
<text  x="843.03" y="191.5" ></text>
</g>
<g >
<title>[[kernel.kallsyms]] (20,202,020 samples, 0.14%)</title><rect x="840.0" y="245" width="1.7" height="15.0" fill="rgb(208,22,15)" rx="2" ry="2" />
<text  x="843.03" y="255.5" ></text>
</g>
<g >
<title>sed (10,101,010 samples, 0.07%)</title><rect x="848.4" y="293" width="0.9" height="15.0" fill="rgb(225,169,30)" rx="2" ry="2" />
<text  x="851.42" y="303.5" ></text>
</g>
<g >
<title>operator delete[] (90,909,090 samples, 0.64%)</title><rect x="812.3" y="277" width="7.6" height="15.0" fill="rgb(229,197,31)" rx="2" ry="2" />
<text  x="815.33" y="287.5" ></text>
</g>
<g >
<title>[[kernel.kallsyms]] (10,101,010 samples, 0.07%)</title><rect x="330.6" y="261" width="0.8" height="15.0" fill="rgb(247,193,14)" rx="2" ry="2" />
<text  x="333.60" y="271.5" ></text>
</g>
<g >
<title>[[kernel.kallsyms]] (10,101,010 samples, 0.07%)</title><rect x="330.6" y="229" width="0.8" height="15.0" fill="rgb(223,80,30)" rx="2" ry="2" />
<text  x="333.60" y="239.5" ></text>
</g>
<g >
<title>[[kernel.kallsyms]] (10,101,010 samples, 0.07%)</title><rect x="835.0" y="181" width="0.8" height="15.0" fill="rgb(205,129,0)" rx="2" ry="2" />
<text  x="837.99" y="191.5" ></text>
</g>
<g >
<title>[[kernel.kallsyms]] (10,101,010 samples, 0.07%)</title><rect x="65.4" y="181" width="0.8" height="15.0" fill="rgb(238,189,7)" rx="2" ry="2" />
<text  x="68.39" y="191.5" ></text>
</g>
<g >
<title>[unknown] (2,020,202,000 samples, 14.22%)</title><rect x="1022.1" y="213" width="167.9" height="15.0" fill="rgb(223,136,33)" rx="2" ry="2" />
<text  x="1025.15" y="223.5" >[unknown]</text>
</g>
<g >
<title>[[kernel.kallsyms]] (10,101,010 samples, 0.07%)</title><rect x="11.7" y="181" width="0.8" height="15.0" fill="rgb(223,167,12)" rx="2" ry="2" />
<text  x="14.68" y="191.5" ></text>
</g>
<g >
<title>[[kernel.kallsyms]] (20,202,020 samples, 0.14%)</title><rect x="840.0" y="197" width="1.7" height="15.0" fill="rgb(241,140,28)" rx="2" ry="2" />
<text  x="843.03" y="207.5" ></text>
</g>
<g >
<title>[[kernel.kallsyms]] (20,202,020 samples, 0.14%)</title><rect x="840.0" y="261" width="1.7" height="15.0" fill="rgb(253,16,37)" rx="2" ry="2" />
<text  x="843.03" y="271.5" ></text>
</g>
<g >
<title>[[kernel.kallsyms]] (10,101,010 samples, 0.07%)</title><rect x="11.7" y="213" width="0.8" height="15.0" fill="rgb(209,137,21)" rx="2" ry="2" />
<text  x="14.68" y="223.5" ></text>
</g>
<g >
<title>[[kernel.kallsyms]] (10,101,010 samples, 0.07%)</title><rect x="65.4" y="213" width="0.8" height="15.0" fill="rgb(237,131,10)" rx="2" ry="2" />
<text  x="68.39" y="223.5" ></text>
</g>
<g >
<title>redis-server (10,101,010 samples, 0.07%)</title><rect x="847.6" y="293" width="0.8" height="15.0" fill="rgb(220,65,23)" rx="2" ry="2" />
<text  x="850.58" y="303.5" ></text>
</g>
<g >
<title>[larson-sized] (202,020,200 samples, 1.42%)</title><rect x="12.5" y="277" width="16.8" height="15.0" fill="rgb(236,105,18)" rx="2" ry="2" />
<text  x="15.52" y="287.5" ></text>
</g>
<g >
<title>[[kernel.kallsyms]] (10,101,010 samples, 0.07%)</title><rect x="64.6" y="261" width="0.8" height="15.0" fill="rgb(254,15,28)" rx="2" ry="2" />
<text  x="67.55" y="271.5" ></text>
</g>
<g >
<title>[unknown] (10,101,010 samples, 0.07%)</title><rect x="848.4" y="277" width="0.9" height="15.0" fill="rgb(246,70,47)" rx="2" ry="2" />
<text  x="851.42" y="287.5" ></text>
</g>
<g >
<title>[[kernel.kallsyms]] (10,101,010 samples, 0.07%)</title><rect x="848.4" y="181" width="0.9" height="15.0" fill="rgb(245,139,47)" rx="2" ry="2" />
<text  x="851.42" y="191.5" ></text>
</g>
<g >
<title>[[kernel.kallsyms]] (10,101,010 samples, 0.07%)</title><rect x="835.0" y="245" width="0.8" height="15.0" fill="rgb(235,134,11)" rx="2" ry="2" />
<text  x="837.99" y="255.5" ></text>
</g>
<g >
<title>[[kernel.kallsyms]] (2,080,808,060 samples, 14.65%)</title><rect x="849.3" y="213" width="172.8" height="15.0" fill="rgb(219,229,3)" rx="2" ry="2" />
<text  x="852.26" y="223.5" >[[kernel.kallsyms]]</text>
</g>
<g >
<title>[[kernel.kallsyms]] (10,101,010 samples, 0.07%)</title><rect x="65.4" y="229" width="0.8" height="15.0" fill="rgb(208,101,3)" rx="2" ry="2" />
<text  x="68.39" y="239.5" ></text>
</g>
<g >
<title>[[kernel.kallsyms]] (2,020,202,000 samples, 14.22%)</title><rect x="1022.1" y="117" width="167.9" height="15.0" fill="rgb(205,134,21)" rx="2" ry="2" />
<text  x="1025.15" y="127.5" >[[kernel.kallsyms]]</text>
</g>
</g>
</svg>
