<?xml version="1.0" standalone="no"?>
<!DOCTYPE svg PUBLIC "-//W3C//DTD SVG 1.1//EN" "http://www.w3.org/Graphics/SVG/1.1/DTD/svg11.dtd">
<svg version="1.1" width="1200" height="310" onload="init(evt)" viewBox="0 0 1200 310" xmlns="http://www.w3.org/2000/svg" xmlns:xlink="http://www.w3.org/1999/xlink">
<!-- Flame graph stack visualization. See https://github.com/brendangregg/FlameGraph for latest version, and http://www.brendangregg.com/flamegraphs.html for examples. -->
<!-- NOTES:  -->
<defs>
	<linearGradient id="background" y1="0" y2="1" x1="0" x2="0" >
		<stop stop-color="#eeeeee" offset="5%" />
		<stop stop-color="#eeeeb0" offset="95%" />
	</linearGradient>
</defs>
<style type="text/css">
	text { font-family:Verdana; font-size:12px; fill:rgb(0,0,0); }
	#search, #ignorecase { opacity:0.1; cursor:pointer; }
	#search:hover, #search.show, #ignorecase:hover, #ignorecase.show { opacity:1; }
	#subtitle { text-anchor:middle; font-color:rgb(160,160,160); }
	#title { text-anchor:middle; font-size:17px}
	#unzoom { cursor:pointer; }
	#frames > *:hover { stroke:black; stroke-width:0.5; cursor:pointer; }
	.hide { display:none; }
	.parent { opacity:0.5; }
</style>
<script type="text/ecmascript">
<![CDATA[
	"use strict";
	var details, searchbtn, unzoombtn, matchedtxt, svg, searching, currentSearchTerm, ignorecase, ignorecaseBtn;
	function init(evt) {
		details = document.getElementById("details").firstChild;
		searchbtn = document.getElementById("search");
		ignorecaseBtn = document.getElementById("ignorecase");
		unzoombtn = document.getElementById("unzoom");
		matchedtxt = document.getElementById("matched");
		svg = document.getElementsByTagName("svg")[0];
		searching = 0;
		currentSearchTerm = null;

		// use GET parameters to restore a flamegraphs state.
		var params = get_params();
		if (params.x && params.y)
			zoom(find_group(document.querySelector('[x="' + params.x + '"][y="' + params.y + '"]')));
                if (params.s) search(params.s);
	}

	// event listeners
	window.addEventListener("click", function(e) {
		var target = find_group(e.target);
		if (target) {
			if (target.nodeName == "a") {
				if (e.ctrlKey === false) return;
				e.preventDefault();
			}
			if (target.classList.contains("parent")) unzoom(true);
			zoom(target);
			if (!document.querySelector('.parent')) {
				// we have basically done a clearzoom so clear the url
				var params = get_params();
				if (params.x) delete params.x;
				if (params.y) delete params.y;
				history.replaceState(null, null, parse_params(params));
				unzoombtn.classList.add("hide");
				return;
			}

			// set parameters for zoom state
			var el = target.querySelector("rect");
			if (el && el.attributes && el.attributes.y && el.attributes._orig_x) {
				var params = get_params()
				params.x = el.attributes._orig_x.value;
				params.y = el.attributes.y.value;
				history.replaceState(null, null, parse_params(params));
			}
		}
		else if (e.target.id == "unzoom") clearzoom();
		else if (e.target.id == "search") search_prompt();
		else if (e.target.id == "ignorecase") toggle_ignorecase();
	}, false)

	// mouse-over for info
	// show
	window.addEventListener("mouseover", function(e) {
		var target = find_group(e.target);
		if (target) details.nodeValue = "Function: " + g_to_text(target);
	}, false)

	// clear
	window.addEventListener("mouseout", function(e) {
		var target = find_group(e.target);
		if (target) details.nodeValue = ' ';
	}, false)

	// ctrl-F for search
	// ctrl-I to toggle case-sensitive search
	window.addEventListener("keydown",function (e) {
		if (e.keyCode === 114 || (e.ctrlKey && e.keyCode === 70)) {
			e.preventDefault();
			search_prompt();
		}
		else if (e.ctrlKey && e.keyCode === 73) {
			e.preventDefault();
			toggle_ignorecase();
		}
	}, false)

	// functions
	function get_params() {
		var params = {};
		var paramsarr = window.location.search.substr(1).split('&');
		for (var i = 0; i < paramsarr.length; ++i) {
			var tmp = paramsarr[i].split("=");
			if (!tmp[0] || !tmp[1]) continue;
			params[tmp[0]]  = decodeURIComponent(tmp[1]);
		}
		return params;
	}
	function parse_params(params) {
		var uri = "?";
		for (var key in params) {
			uri += key + '=' + encodeURIComponent(params[key]) + '&';
		}
		if (uri.slice(-1) == "&")
			uri = uri.substring(0, uri.length - 1);
		if (uri == '?')
			uri = window.location.href.split('?')[0];
		return uri;
	}
	function find_child(node, selector) {
		var children = node.querySelectorAll(selector);
		if (children.length) return children[0];
	}
	function find_group(node) {
		var parent = node.parentElement;
		if (!parent) return;
		if (parent.id == "frames") return node;
		return find_group(parent);
	}
	function orig_save(e, attr, val) {
		if (e.attributes["_orig_" + attr] != undefined) return;
		if (e.attributes[attr] == undefined) return;
		if (val == undefined) val = e.attributes[attr].value;
		e.setAttribute("_orig_" + attr, val);
	}
	function orig_load(e, attr) {
		if (e.attributes["_orig_"+attr] == undefined) return;
		e.attributes[attr].value = e.attributes["_orig_" + attr].value;
		e.removeAttribute("_orig_"+attr);
	}
	function g_to_text(e) {
		var text = find_child(e, "title").firstChild.nodeValue;
		return (text)
	}
	function g_to_func(e) {
		var func = g_to_text(e);
		// if there's any manipulation we want to do to the function
		// name before it's searched, do it here before returning.
		return (func);
	}
	function update_text(e) {
		var r = find_child(e, "rect");
		var t = find_child(e, "text");
		var w = parseFloat(r.attributes.width.value) -3;
		var txt = find_child(e, "title").textContent.replace(/\([^(]*\)$/,"");
		t.attributes.x.value = parseFloat(r.attributes.x.value) + 3;

		// Smaller than this size won't fit anything
		if (w < 2 * 12 * 0.59) {
			t.textContent = "";
			return;
		}

		t.textContent = txt;
		var sl = t.getSubStringLength(0, txt.length);
		// check if only whitespace or if we can fit the entire string into width w
		if (/^ *$/.test(txt) || sl < w)
			return;

		// this isn't perfect, but gives a good starting point
		// and avoids calling getSubStringLength too often
		var start = Math.floor((w/sl) * txt.length);
		for (var x = start; x > 0; x = x-2) {
			if (t.getSubStringLength(0, x + 2) <= w) {
				t.textContent = txt.substring(0, x) + "..";
				return;
			}
		}
		t.textContent = "";
	}

	// zoom
	function zoom_reset(e) {
		if (e.attributes != undefined) {
			orig_load(e, "x");
			orig_load(e, "width");
		}
		if (e.childNodes == undefined) return;
		for (var i = 0, c = e.childNodes; i < c.length; i++) {
			zoom_reset(c[i]);
		}
	}
	function zoom_child(e, x, ratio) {
		if (e.attributes != undefined) {
			if (e.attributes.x != undefined) {
				orig_save(e, "x");
				e.attributes.x.value = (parseFloat(e.attributes.x.value) - x - 10) * ratio + 10;
				if (e.tagName == "text")
					e.attributes.x.value = find_child(e.parentNode, "rect[x]").attributes.x.value + 3;
			}
			if (e.attributes.width != undefined) {
				orig_save(e, "width");
				e.attributes.width.value = parseFloat(e.attributes.width.value) * ratio;
			}
		}

		if (e.childNodes == undefined) return;
		for (var i = 0, c = e.childNodes; i < c.length; i++) {
			zoom_child(c[i], x - 10, ratio);
		}
	}
	function zoom_parent(e) {
		if (e.attributes) {
			if (e.attributes.x != undefined) {
				orig_save(e, "x");
				e.attributes.x.value = 10;
			}
			if (e.attributes.width != undefined) {
				orig_save(e, "width");
				e.attributes.width.value = parseInt(svg.width.baseVal.value) - (10 * 2);
			}
		}
		if (e.childNodes == undefined) return;
		for (var i = 0, c = e.childNodes; i < c.length; i++) {
			zoom_parent(c[i]);
		}
	}
	function zoom(node) {
		var attr = find_child(node, "rect").attributes;
		var width = parseFloat(attr.width.value);
		var xmin = parseFloat(attr.x.value);
		var xmax = parseFloat(xmin + width);
		var ymin = parseFloat(attr.y.value);
		var ratio = (svg.width.baseVal.value - 2 * 10) / width;

		// XXX: Workaround for JavaScript float issues (fix me)
		var fudge = 0.0001;

		unzoombtn.classList.remove("hide");

		var el = document.getElementById("frames").children;
		for (var i = 0; i < el.length; i++) {
			var e = el[i];
			var a = find_child(e, "rect").attributes;
			var ex = parseFloat(a.x.value);
			var ew = parseFloat(a.width.value);
			var upstack;
			// Is it an ancestor
			if (0 == 0) {
				upstack = parseFloat(a.y.value) > ymin;
			} else {
				upstack = parseFloat(a.y.value) < ymin;
			}
			if (upstack) {
				// Direct ancestor
				if (ex <= xmin && (ex+ew+fudge) >= xmax) {
					e.classList.add("parent");
					zoom_parent(e);
					update_text(e);
				}
				// not in current path
				else
					e.classList.add("hide");
			}
			// Children maybe
			else {
				// no common path
				if (ex < xmin || ex + fudge >= xmax) {
					e.classList.add("hide");
				}
				else {
					zoom_child(e, xmin, ratio);
					update_text(e);
				}
			}
		}
		search();
	}
	function unzoom(dont_update_text) {
		unzoombtn.classList.add("hide");
		var el = document.getElementById("frames").children;
		for(var i = 0; i < el.length; i++) {
			el[i].classList.remove("parent");
			el[i].classList.remove("hide");
			zoom_reset(el[i]);
			if(!dont_update_text) update_text(el[i]);
		}
		search();
	}
	function clearzoom() {
		unzoom();

		// remove zoom state
		var params = get_params();
		if (params.x) delete params.x;
		if (params.y) delete params.y;
		history.replaceState(null, null, parse_params(params));
	}

	// search
	function toggle_ignorecase() {
		ignorecase = !ignorecase;
		if (ignorecase) {
			ignorecaseBtn.classList.add("show");
		} else {
			ignorecaseBtn.classList.remove("show");
		}
		reset_search();
		search();
	}
	function reset_search() {
		var el = document.querySelectorAll("#frames rect");
		for (var i = 0; i < el.length; i++) {
			orig_load(el[i], "fill")
		}
		var params = get_params();
		delete params.s;
		history.replaceState(null, null, parse_params(params));
	}
	function search_prompt() {
		if (!searching) {
			var term = prompt("Enter a search term (regexp " +
			    "allowed, eg: ^ext4_)"
			    + (ignorecase ? ", ignoring case" : "")
			    + "\nPress Ctrl-i to toggle case sensitivity", "");
			if (term != null) search(term);
		} else {
			reset_search();
			searching = 0;
			currentSearchTerm = null;
			searchbtn.classList.remove("show");
			searchbtn.firstChild.nodeValue = "Search"
			matchedtxt.classList.add("hide");
			matchedtxt.firstChild.nodeValue = ""
		}
	}
	function search(term) {
		if (term) currentSearchTerm = term;

		var re = new RegExp(currentSearchTerm, ignorecase ? 'i' : '');
		var el = document.getElementById("frames").children;
		var matches = new Object();
		var maxwidth = 0;
		for (var i = 0; i < el.length; i++) {
			var e = el[i];
			var func = g_to_func(e);
			var rect = find_child(e, "rect");
			if (func == null || rect == null)
				continue;

			// Save max width. Only works as we have a root frame
			var w = parseFloat(rect.attributes.width.value);
			if (w > maxwidth)
				maxwidth = w;

			if (func.match(re)) {
				// highlight
				var x = parseFloat(rect.attributes.x.value);
				orig_save(rect, "fill");
				rect.attributes.fill.value = "rgb(230,0,230)";

				// remember matches
				if (matches[x] == undefined) {
					matches[x] = w;
				} else {
					if (w > matches[x]) {
						// overwrite with parent
						matches[x] = w;
					}
				}
				searching = 1;
			}
		}
		if (!searching)
			return;
		var params = get_params();
		params.s = currentSearchTerm;
		history.replaceState(null, null, parse_params(params));

		searchbtn.classList.add("show");
		searchbtn.firstChild.nodeValue = "Reset Search";

		// calculate percent matched, excluding vertical overlap
		var count = 0;
		var lastx = -1;
		var lastw = 0;
		var keys = Array();
		for (k in matches) {
			if (matches.hasOwnProperty(k))
				keys.push(k);
		}
		// sort the matched frames by their x location
		// ascending, then width descending
		keys.sort(function(a, b){
			return a - b;
		});
		// Step through frames saving only the biggest bottom-up frames
		// thanks to the sort order. This relies on the tree property
		// where children are always smaller than their parents.
		var fudge = 0.0001;	// JavaScript floating point
		for (var k in keys) {
			var x = parseFloat(keys[k]);
			var w = matches[keys[k]];
			if (x >= lastx + lastw - fudge) {
				count += w;
				lastx = x;
				lastw = w;
			}
		}
		// display matched percent
		matchedtxt.classList.remove("hide");
		var pct = 100 * count / maxwidth;
		if (pct != 100) pct = pct.toFixed(1)
		matchedtxt.firstChild.nodeValue = "Matched: " + pct + "%";
	}
]]>
</script>
<rect x="0.0" y="0" width="1200.0" height="310.0" fill="url(#background)"  />
<text id="title" x="600.00" y="24" >Flame Graph</text>
<text id="details" x="10.00" y="293" > </text>
<text id="unzoom" x="10.00" y="24" class="hide">Reset Zoom</text>
<text id="search" x="1090.00" y="24" >Search</text>
<text id="ignorecase" x="1174.00" y="24" >ic</text>
<text id="matched" x="1090.00" y="293" > </text>
<g id="frames">
<g >
<title>[[kernel.kallsyms]] (20,202,020 samples, 0.14%)</title><rect x="288.1" y="133" width="1.6" height="15.0" fill="rgb(221,140,24)" rx="2" ry="2" />
<text  x="291.07" y="143.5" ></text>
</g>
<g >
<title>_dl_map_object (10,101,010 samples, 0.07%)</title><rect x="525.8" y="229" width="0.9" height="15.0" fill="rgb(240,157,34)" rx="2" ry="2" />
<text  x="528.85" y="239.5" ></text>
</g>
<g >
<title>[[kernel.kallsyms]] (10,101,010 samples, 0.07%)</title><rect x="12.4" y="69" width="0.8" height="15.0" fill="rgb(254,225,30)" rx="2" ry="2" />
<text  x="15.42" y="79.5" ></text>
</g>
<g >
<title>all (14,787,878,640 samples, 100%)</title><rect x="10.0" y="261" width="1180.0" height="15.0" fill="rgb(228,104,13)" rx="2" ry="2" />
<text  x="13.00" y="271.5" ></text>
</g>
<g >
<title>[[kernel.kallsyms]] (4,757,575,710 samples, 32.17%)</title><rect x="810.4" y="133" width="379.6" height="15.0" fill="rgb(209,152,14)" rx="2" ry="2" />
<text  x="813.37" y="143.5" >[[kernel.kallsyms]]</text>
</g>
<g >
<title>[[kernel.kallsyms]] (696,969,690 samples, 4.71%)</title><rect x="449.3" y="149" width="55.6" height="15.0" fill="rgb(254,104,38)" rx="2" ry="2" />
<text  x="452.28" y="159.5" >[[ker..</text>
</g>
<g >
<title>__lll_lock_wait (585,858,580 samples, 3.96%)</title><rect x="363.0" y="229" width="46.8" height="15.0" fill="rgb(237,95,5)" rx="2" ry="2" />
<text  x="366.03" y="239.5" >__ll..</text>
</g>
<g >
<title>[[kernel.kallsyms]] (353,535,350 samples, 2.39%)</title><rect x="381.6" y="149" width="28.2" height="15.0" fill="rgb(222,162,2)" rx="2" ry="2" />
<text  x="384.57" y="159.5" >[..</text>
</g>
<g >
<title>[[kernel.kallsyms]] (20,202,020 samples, 0.14%)</title><rect x="276.0" y="149" width="1.6" height="15.0" fill="rgb(249,220,51)" rx="2" ry="2" />
<text  x="278.98" y="159.5" ></text>
</g>
<g >
<title>[[kernel.kallsyms]] (10,101,010 samples, 0.07%)</title><rect x="12.4" y="149" width="0.8" height="15.0" fill="rgb(251,108,16)" rx="2" ry="2" />
<text  x="15.42" y="159.5" ></text>
</g>
<g >
<title>sed (10,101,010 samples, 0.07%)</title><rect x="525.8" y="245" width="0.9" height="15.0" fill="rgb(237,132,8)" rx="2" ry="2" />
<text  x="528.85" y="255.5" ></text>
</g>
<g >
<title>[[kernel.kallsyms]] (707,070,700 samples, 4.78%)</title><rect x="448.5" y="165" width="56.4" height="15.0" fill="rgb(236,55,11)" rx="2" ry="2" />
<text  x="451.47" y="175.5" >[[ker..</text>
</g>
<g >
<title>[[kernel.kallsyms]] (353,535,350 samples, 2.39%)</title><rect x="381.6" y="165" width="28.2" height="15.0" fill="rgb(216,99,31)" rx="2" ry="2" />
<text  x="384.57" y="175.5" >[..</text>
</g>
<g >
<title>[[kernel.kallsyms]] (232,323,230 samples, 1.57%)</title><rect x="391.2" y="101" width="18.6" height="15.0" fill="rgb(253,172,5)" rx="2" ry="2" />
<text  x="394.24" y="111.5" ></text>
</g>
<g >
<title>[larson-sized] (10,101,010 samples, 0.07%)</title><rect x="13.2" y="229" width="0.8" height="15.0" fill="rgb(251,167,41)" rx="2" ry="2" />
<text  x="16.22" y="239.5" ></text>
</g>
<g >
<title>[[kernel.kallsyms]] (8,313,131,230 samples, 56.22%)</title><rect x="526.7" y="229" width="663.3" height="15.0" fill="rgb(209,111,34)" rx="2" ry="2" />
<text  x="529.65" y="239.5" >[[kernel.kallsyms]]</text>
</g>
<g >
<title>bench.sh (10,101,010 samples, 0.07%)</title><rect x="10.0" y="245" width="0.8" height="15.0" fill="rgb(252,111,51)" rx="2" ry="2" />
<text  x="13.00" y="255.5" ></text>
</g>
<g >
<title>[[kernel.kallsyms]] (3,525,252,490 samples, 23.84%)</title><rect x="529.1" y="165" width="281.3" height="15.0" fill="rgb(228,191,5)" rx="2" ry="2" />
<text  x="532.07" y="175.5" >[[kernel.kallsyms]]</text>
</g>
<g >
<title>[[kernel.kallsyms]] (20,202,020 samples, 0.14%)</title><rect x="288.1" y="181" width="1.6" height="15.0" fill="rgb(210,116,37)" rx="2" ry="2" />
<text  x="291.07" y="191.5" ></text>
</g>
<g >
<title>[[kernel.kallsyms]] (20,202,020 samples, 0.14%)</title><rect x="294.5" y="165" width="1.6" height="15.0" fill="rgb(249,204,4)" rx="2" ry="2" />
<text  x="297.52" y="175.5" ></text>
</g>
<g >
<title>[[kernel.kallsyms]] (10,101,010 samples, 0.07%)</title><rect x="12.4" y="197" width="0.8" height="15.0" fill="rgb(239,28,4)" rx="2" ry="2" />
<text  x="15.42" y="207.5" ></text>
</g>
<g >
<title>[[kernel.kallsyms]] (10,101,010 samples, 0.07%)</title><rect x="361.4" y="133" width="0.8" height="15.0" fill="rgb(254,45,15)" rx="2" ry="2" />
<text  x="364.42" y="143.5" ></text>
</g>
<g >
<title>[[kernel.kallsyms]] (20,202,020 samples, 0.14%)</title><rect x="288.1" y="117" width="1.6" height="15.0" fill="rgb(233,221,28)" rx="2" ry="2" />
<text  x="291.07" y="127.5" ></text>
</g>
<g >
<title>[[kernel.kallsyms]] (10,101,010 samples, 0.07%)</title><rect x="11.6" y="149" width="0.8" height="15.0" fill="rgb(227,126,34)" rx="2" ry="2" />
<text  x="14.61" y="159.5" ></text>
</g>
<g >
<title>[[kernel.kallsyms]] (10,101,010 samples, 0.07%)</title><rect x="521.8" y="181" width="0.8" height="15.0" fill="rgb(206,126,13)" rx="2" ry="2" />
<text  x="524.82" y="191.5" ></text>
</g>
<g >
<title>[[kernel.kallsyms]] (10,101,010 samples, 0.07%)</title><rect x="11.6" y="85" width="0.8" height="15.0" fill="rgb(227,138,31)" rx="2" ry="2" />
<text  x="14.61" y="95.5" ></text>
</g>
<g >
<title>[unknown] (4,757,575,710 samples, 32.17%)</title><rect x="810.4" y="165" width="379.6" height="15.0" fill="rgb(242,107,8)" rx="2" ry="2" />
<text  x="813.37" y="175.5" >[unknown]</text>
</g>
<g >
<title>[[kernel.kallsyms]] (4,757,575,710 samples, 32.17%)</title><rect x="810.4" y="117" width="379.6" height="15.0" fill="rgb(244,5,16)" rx="2" ry="2" />
<text  x="813.37" y="127.5" >[[kernel.kallsyms]]</text>
</g>
<g >
<title>[[kernel.kallsyms]] (4,696,969,650 samples, 31.76%)</title><rect x="815.2" y="69" width="374.8" height="15.0" fill="rgb(229,195,32)" rx="2" ry="2" />
<text  x="818.20" y="79.5" >[[kernel.kallsyms]]</text>
</g>
<g >
<title>[[kernel.kallsyms]] (10,101,010 samples, 0.07%)</title><rect x="288.9" y="53" width="0.8" height="15.0" fill="rgb(211,97,13)" rx="2" ry="2" />
<text  x="291.88" y="63.5" ></text>
</g>
<g >
<title>__tls_get_addr (10,101,010 samples, 0.07%)</title><rect x="504.9" y="229" width="0.8" height="15.0" fill="rgb(225,111,49)" rx="2" ry="2" />
<text  x="507.89" y="239.5" ></text>
</g>
<g >
<title>[[kernel.kallsyms]] (10,101,010 samples, 0.07%)</title><rect x="11.6" y="197" width="0.8" height="15.0" fill="rgb(234,204,31)" rx="2" ry="2" />
<text  x="14.61" y="207.5" ></text>
</g>
<g >
<title>[[kernel.kallsyms]] (10,101,010 samples, 0.07%)</title><rect x="12.4" y="213" width="0.8" height="15.0" fill="rgb(252,151,50)" rx="2" ry="2" />
<text  x="15.42" y="223.5" ></text>
</g>
<g >
<title>[[kernel.kallsyms]] (20,202,020 samples, 0.14%)</title><rect x="276.0" y="213" width="1.6" height="15.0" fill="rgb(232,213,9)" rx="2" ry="2" />
<text  x="278.98" y="223.5" ></text>
</g>
<g >
<title>[[kernel.kallsyms]] (10,101,010 samples, 0.07%)</title><rect x="12.4" y="117" width="0.8" height="15.0" fill="rgb(239,204,47)" rx="2" ry="2" />
<text  x="15.42" y="127.5" ></text>
</g>
<g >
<title>[[kernel.kallsyms]] (20,202,020 samples, 0.14%)</title><rect x="294.5" y="197" width="1.6" height="15.0" fill="rgb(245,23,54)" rx="2" ry="2" />
<text  x="297.52" y="207.5" ></text>
</g>
<g >
<title>__GI___getrandom (787,878,780 samples, 5.33%)</title><rect x="299.4" y="229" width="62.8" height="15.0" fill="rgb(210,108,12)" rx="2" ry="2" />
<text  x="302.36" y="239.5" >__GI__..</text>
</g>
<g >
<title>[[kernel.kallsyms]] (383,838,380 samples, 2.60%)</title><rect x="331.6" y="181" width="30.6" height="15.0" fill="rgb(218,161,14)" rx="2" ry="2" />
<text  x="334.60" y="191.5" >[[..</text>
</g>
<g >
<title>iso_alloc (10,101,010 samples, 0.07%)</title><rect x="522.6" y="229" width="0.8" height="15.0" fill="rgb(238,139,8)" rx="2" ry="2" />
<text  x="525.62" y="239.5" ></text>
</g>
<g >
<title>[[kernel.kallsyms]] (20,202,020 samples, 0.14%)</title><rect x="288.1" y="165" width="1.6" height="15.0" fill="rgb(215,27,24)" rx="2" ry="2" />
<text  x="291.07" y="175.5" ></text>
</g>
<g >
<title>[[kernel.kallsyms]] (848,484,840 samples, 5.74%)</title><rect x="437.2" y="181" width="67.7" height="15.0" fill="rgb(215,28,38)" rx="2" ry="2" />
<text  x="440.19" y="191.5" >[[kerne..</text>
</g>
<g >
<title>_dl_addr (10,101,010 samples, 0.07%)</title><rect x="10.8" y="229" width="0.8" height="15.0" fill="rgb(239,98,10)" rx="2" ry="2" />
<text  x="13.81" y="239.5" ></text>
</g>
<g >
<title>[[kernel.kallsyms]] (3,474,747,440 samples, 23.50%)</title><rect x="533.1" y="149" width="277.3" height="15.0" fill="rgb(229,132,33)" rx="2" ry="2" />
<text  x="536.10" y="159.5" >[[kernel.kallsyms]]</text>
</g>
<g >
<title>[[kernel.kallsyms]] (3,555,555,520 samples, 24.04%)</title><rect x="526.7" y="197" width="283.7" height="15.0" fill="rgb(252,104,22)" rx="2" ry="2" />
<text  x="529.65" y="207.5" >[[kernel.kallsyms]]</text>
</g>
<g >
<title>[[kernel.kallsyms]] (20,202,020 samples, 0.14%)</title><rect x="294.5" y="181" width="1.6" height="15.0" fill="rgb(251,185,6)" rx="2" ry="2" />
<text  x="297.52" y="191.5" ></text>
</g>
<g >
<title>[[kernel.kallsyms]] (3,464,646,430 samples, 23.43%)</title><rect x="533.9" y="133" width="276.5" height="15.0" fill="rgb(222,140,18)" rx="2" ry="2" />
<text  x="536.91" y="143.5" >[[kernel.kallsyms]]</text>
</g>
<g >
<title>__tls_get_addr@plt (10,101,010 samples, 0.07%)</title><rect x="505.7" y="229" width="0.8" height="15.0" fill="rgb(251,169,43)" rx="2" ry="2" />
<text  x="508.70" y="239.5" ></text>
</g>
<g >
<title>[[kernel.kallsyms]] (10,101,010 samples, 0.07%)</title><rect x="11.6" y="229" width="0.8" height="15.0" fill="rgb(221,153,39)" rx="2" ry="2" />
<text  x="14.61" y="239.5" ></text>
</g>
<g >
<title>iptables (10,101,010 samples, 0.07%)</title><rect x="11.6" y="245" width="0.8" height="15.0" fill="rgb(238,56,39)" rx="2" ry="2" />
<text  x="14.61" y="255.5" ></text>
</g>
<g >
<title>python3 (10,101,010 samples, 0.07%)</title><rect x="525.0" y="245" width="0.8" height="15.0" fill="rgb(251,135,22)" rx="2" ry="2" />
<text  x="528.04" y="255.5" ></text>
</g>
<g >
<title>[[kernel.kallsyms]] (10,101,010 samples, 0.07%)</title><rect x="12.4" y="133" width="0.8" height="15.0" fill="rgb(229,202,19)" rx="2" ry="2" />
<text  x="15.42" y="143.5" ></text>
</g>
<g >
<title>swapper (8,313,131,230 samples, 56.22%)</title><rect x="526.7" y="245" width="663.3" height="15.0" fill="rgb(238,27,19)" rx="2" ry="2" />
<text  x="529.65" y="255.5" >swapper</text>
</g>
<g >
<title>[[kernel.kallsyms]] (10,101,010 samples, 0.07%)</title><rect x="295.3" y="149" width="0.8" height="15.0" fill="rgb(216,183,37)" rx="2" ry="2" />
<text  x="298.33" y="159.5" ></text>
</g>
<g >
<title>[unknown] (272,727,270 samples, 1.84%)</title><rect x="277.6" y="229" width="21.8" height="15.0" fill="rgb(222,11,48)" rx="2" ry="2" />
<text  x="280.60" y="239.5" >[..</text>
</g>
<g >
<title>runthreads (20,202,020 samples, 0.14%)</title><rect x="297.7" y="213" width="1.7" height="15.0" fill="rgb(229,218,15)" rx="2" ry="2" />
<text  x="300.75" y="223.5" ></text>
</g>
<g >
<title>__memset_avx2_unaligned_erms (10,101,010 samples, 0.07%)</title><rect x="409.8" y="229" width="0.8" height="15.0" fill="rgb(232,144,24)" rx="2" ry="2" />
<text  x="412.78" y="239.5" ></text>
</g>
<g >
<title>__pthread_mutex_lock (20,202,020 samples, 0.14%)</title><rect x="296.1" y="213" width="1.6" height="15.0" fill="rgb(207,107,47)" rx="2" ry="2" />
<text  x="299.13" y="223.5" ></text>
</g>
<g >
<title>[[kernel.kallsyms]] (10,101,010 samples, 0.07%)</title><rect x="521.8" y="197" width="0.8" height="15.0" fill="rgb(224,42,28)" rx="2" ry="2" />
<text  x="524.82" y="207.5" ></text>
</g>
<g >
<title>[[kernel.kallsyms]] (10,101,010 samples, 0.07%)</title><rect x="11.6" y="181" width="0.8" height="15.0" fill="rgb(206,129,34)" rx="2" ry="2" />
<text  x="14.61" y="191.5" ></text>
</g>
<g >
<title>[[kernel.kallsyms]] (414,141,410 samples, 2.80%)</title><rect x="329.2" y="197" width="33.0" height="15.0" fill="rgb(244,2,34)" rx="2" ry="2" />
<text  x="332.18" y="207.5" >[[..</text>
</g>
<g >
<title>[[kernel.kallsyms]] (10,101,010 samples, 0.07%)</title><rect x="12.4" y="181" width="0.8" height="15.0" fill="rgb(249,81,5)" rx="2" ry="2" />
<text  x="15.42" y="191.5" ></text>
</g>
<g >
<title>[[kernel.kallsyms]] (10,101,010 samples, 0.07%)</title><rect x="11.6" y="117" width="0.8" height="15.0" fill="rgb(227,36,45)" rx="2" ry="2" />
<text  x="14.61" y="127.5" ></text>
</g>
<g >
<title>[[kernel.kallsyms]] (20,202,020 samples, 0.14%)</title><rect x="276.0" y="197" width="1.6" height="15.0" fill="rgb(239,135,13)" rx="2" ry="2" />
<text  x="278.98" y="207.5" ></text>
</g>
<g >
<title>[[kernel.kallsyms]] (10,101,010 samples, 0.07%)</title><rect x="525.8" y="165" width="0.9" height="15.0" fill="rgb(251,41,52)" rx="2" ry="2" />
<text  x="528.85" y="175.5" ></text>
</g>
<g >
<title>[unknown] (10,101,010 samples, 0.07%)</title><rect x="10.0" y="229" width="0.8" height="15.0" fill="rgb(205,24,38)" rx="2" ry="2" />
<text  x="13.00" y="239.5" ></text>
</g>
<g >
<title>[unknown] (4,757,575,710 samples, 32.17%)</title><rect x="810.4" y="181" width="379.6" height="15.0" fill="rgb(238,125,51)" rx="2" ry="2" />
<text  x="813.37" y="191.5" >[unknown]</text>
</g>
<g >
<title>[[kernel.kallsyms]] (414,141,410 samples, 2.80%)</title><rect x="329.2" y="213" width="33.0" height="15.0" fill="rgb(251,4,21)" rx="2" ry="2" />
<text  x="332.18" y="223.5" >[[..</text>
</g>
<g >
<title>[[kernel.kallsyms]] (666,666,660 samples, 4.51%)</title><rect x="451.7" y="133" width="53.2" height="15.0" fill="rgb(241,220,0)" rx="2" ry="2" />
<text  x="454.69" y="143.5" >[[ker..</text>
</g>
<g >
<title>__pthread_mutex_lock (60,606,060 samples, 0.41%)</title><rect x="410.6" y="229" width="4.8" height="15.0" fill="rgb(241,130,37)" rx="2" ry="2" />
<text  x="413.59" y="239.5" ></text>
</g>
<g >
<title>[[kernel.kallsyms]] (626,262,620 samples, 4.23%)</title><rect x="454.9" y="117" width="50.0" height="15.0" fill="rgb(205,141,23)" rx="2" ry="2" />
<text  x="457.92" y="127.5" >[[ker..</text>
</g>
<g >
<title>[[kernel.kallsyms]] (10,101,010 samples, 0.07%)</title><rect x="11.6" y="101" width="0.8" height="15.0" fill="rgb(249,157,35)" rx="2" ry="2" />
<text  x="14.61" y="111.5" ></text>
</g>
<g >
<title>[[kernel.kallsyms]] (404,040,400 samples, 2.73%)</title><rect x="377.5" y="197" width="32.3" height="15.0" fill="rgb(253,38,32)" rx="2" ry="2" />
<text  x="380.54" y="207.5" >[[..</text>
</g>
<g >
<title>[[kernel.kallsyms]] (20,202,020 samples, 0.14%)</title><rect x="288.1" y="149" width="1.6" height="15.0" fill="rgb(237,4,40)" rx="2" ry="2" />
<text  x="291.07" y="159.5" ></text>
</g>
<g >
<title>[[kernel.kallsyms]] (10,101,010 samples, 0.07%)</title><rect x="12.4" y="85" width="0.8" height="15.0" fill="rgb(223,30,13)" rx="2" ry="2" />
<text  x="15.42" y="95.5" ></text>
</g>
<g >
<title>[[kernel.kallsyms]] (252,525,250 samples, 1.71%)</title><rect x="389.6" y="117" width="20.2" height="15.0" fill="rgb(230,72,37)" rx="2" ry="2" />
<text  x="392.63" y="127.5" ></text>
</g>
<g >
<title>[unknown] (4,757,575,710 samples, 32.17%)</title><rect x="810.4" y="213" width="379.6" height="15.0" fill="rgb(220,91,25)" rx="2" ry="2" />
<text  x="813.37" y="223.5" >[unknown]</text>
</g>
<g >
<title>_dl_setup_hash (10,101,010 samples, 0.07%)</title><rect x="525.8" y="213" width="0.9" height="15.0" fill="rgb(226,80,38)" rx="2" ry="2" />
<text  x="528.85" y="223.5" ></text>
</g>
<g >
<title>[[kernel.kallsyms]] (292,929,290 samples, 1.98%)</title><rect x="386.4" y="133" width="23.4" height="15.0" fill="rgb(250,148,23)" rx="2" ry="2" />
<text  x="389.41" y="143.5" >[..</text>
</g>
<g >
<title>[[kernel.kallsyms]] (868,686,860 samples, 5.87%)</title><rect x="435.6" y="213" width="69.3" height="15.0" fill="rgb(244,154,10)" rx="2" ry="2" />
<text  x="438.57" y="223.5" >[[kerne..</text>
</g>
<g >
<title>[[kernel.kallsyms]] (10,101,010 samples, 0.07%)</title><rect x="361.4" y="117" width="0.8" height="15.0" fill="rgb(234,6,29)" rx="2" ry="2" />
<text  x="364.42" y="127.5" ></text>
</g>
<g >
<title>[[kernel.kallsyms]] (10,101,010 samples, 0.07%)</title><rect x="12.4" y="229" width="0.8" height="15.0" fill="rgb(223,214,3)" rx="2" ry="2" />
<text  x="15.42" y="239.5" ></text>
</g>
<g >
<title>[libisoalloc.so] (3,303,030,270 samples, 22.34%)</title><rect x="14.0" y="229" width="263.6" height="15.0" fill="rgb(225,93,1)" rx="2" ry="2" />
<text  x="17.03" y="239.5" >[libisoalloc.so]</text>
</g>
<g >
<title>dirname (10,101,010 samples, 0.07%)</title><rect x="10.8" y="245" width="0.8" height="15.0" fill="rgb(254,196,7)" rx="2" ry="2" />
<text  x="13.81" y="255.5" ></text>
</g>
<g >
<title>[[kernel.kallsyms]] (4,757,575,710 samples, 32.17%)</title><rect x="810.4" y="149" width="379.6" height="15.0" fill="rgb(232,33,45)" rx="2" ry="2" />
<text  x="813.37" y="159.5" >[[kernel.kallsyms]]</text>
</g>
<g >
<title>[[kernel.kallsyms]] (868,686,860 samples, 5.87%)</title><rect x="435.6" y="197" width="69.3" height="15.0" fill="rgb(218,206,41)" rx="2" ry="2" />
<text  x="438.57" y="207.5" >[[kerne..</text>
</g>
<g >
<title>[[kernel.kallsyms]] (10,101,010 samples, 0.07%)</title><rect x="12.4" y="165" width="0.8" height="15.0" fill="rgb(221,214,15)" rx="2" ry="2" />
<text  x="15.42" y="175.5" ></text>
</g>
<g >
<title>__GI___sigprocmask (10,101,010 samples, 0.07%)</title><rect x="10.0" y="213" width="0.8" height="15.0" fill="rgb(217,38,27)" rx="2" ry="2" />
<text  x="13.00" y="223.5" ></text>
</g>
<g >
<title>exercise_heap (202,020,200 samples, 1.37%)</title><rect x="506.5" y="229" width="16.1" height="15.0" fill="rgb(227,150,28)" rx="2" ry="2" />
<text  x="509.50" y="239.5" ></text>
</g>
<g >
<title>[[kernel.kallsyms]] (20,202,020 samples, 0.14%)</title><rect x="288.1" y="69" width="1.6" height="15.0" fill="rgb(213,131,42)" rx="2" ry="2" />
<text  x="291.07" y="79.5" ></text>
</g>
<g >
<title>[[kernel.kallsyms]] (4,717,171,670 samples, 31.90%)</title><rect x="813.6" y="101" width="376.4" height="15.0" fill="rgb(241,130,40)" rx="2" ry="2" />
<text  x="816.59" y="111.5" >[[kernel.kallsyms]]</text>
</g>
<g >
<title>[[kernel.kallsyms]] (222,222,220 samples, 1.50%)</title><rect x="392.0" y="85" width="17.8" height="15.0" fill="rgb(235,54,54)" rx="2" ry="2" />
<text  x="395.05" y="95.5" ></text>
</g>
<g >
<title>[[kernel.kallsyms]] (20,202,020 samples, 0.14%)</title><rect x="288.1" y="197" width="1.6" height="15.0" fill="rgb(221,119,46)" rx="2" ry="2" />
<text  x="291.07" y="207.5" ></text>
</g>
<g >
<title>[[kernel.kallsyms]] (20,202,020 samples, 0.14%)</title><rect x="276.0" y="133" width="1.6" height="15.0" fill="rgb(252,33,4)" rx="2" ry="2" />
<text  x="278.98" y="143.5" ></text>
</g>
<g >
<title>__pthread_mutex_unlock (1,121,212,110 samples, 7.58%)</title><rect x="415.4" y="229" width="89.5" height="15.0" fill="rgb(223,205,0)" rx="2" ry="2" />
<text  x="418.42" y="239.5" >__pthread_..</text>
</g>
<g >
<title>[[kernel.kallsyms]] (20,202,020 samples, 0.14%)</title><rect x="276.0" y="117" width="1.6" height="15.0" fill="rgb(227,27,39)" rx="2" ry="2" />
<text  x="278.98" y="127.5" ></text>
</g>
<g >
<title>[[kernel.kallsyms]] (10,101,010 samples, 0.07%)</title><rect x="288.9" y="37" width="0.8" height="15.0" fill="rgb(231,229,49)" rx="2" ry="2" />
<text  x="291.88" y="47.5" ></text>
</g>
<g >
<title>[[kernel.kallsyms]] (3,555,555,520 samples, 24.04%)</title><rect x="526.7" y="213" width="283.7" height="15.0" fill="rgb(238,113,8)" rx="2" ry="2" />
<text  x="529.65" y="223.5" >[[kernel.kallsyms]]</text>
</g>
<g >
<title>[[kernel.kallsyms]] (404,040,400 samples, 2.73%)</title><rect x="377.5" y="181" width="32.3" height="15.0" fill="rgb(209,132,48)" rx="2" ry="2" />
<text  x="380.54" y="191.5" >[[..</text>
</g>
<g >
<title>[[kernel.kallsyms]] (10,101,010 samples, 0.07%)</title><rect x="11.6" y="133" width="0.8" height="15.0" fill="rgb(209,42,39)" rx="2" ry="2" />
<text  x="14.61" y="143.5" ></text>
</g>
<g >
<title>operator new[] (10,101,010 samples, 0.07%)</title><rect x="524.2" y="229" width="0.8" height="15.0" fill="rgb(221,138,35)" rx="2" ry="2" />
<text  x="527.23" y="239.5" ></text>
</g>
<g >
<title>__GI___getrandom (80,808,080 samples, 0.55%)</title><rect x="289.7" y="213" width="6.4" height="15.0" fill="rgb(225,77,54)" rx="2" ry="2" />
<text  x="292.69" y="223.5" ></text>
</g>
<g >
<title>[[kernel.kallsyms]] (4,696,969,650 samples, 31.76%)</title><rect x="815.2" y="85" width="374.8" height="15.0" fill="rgb(236,172,45)" rx="2" ry="2" />
<text  x="818.20" y="95.5" >[[kernel.kallsyms]]</text>
</g>
<g >
<title>[[kernel.kallsyms]] (10,101,010 samples, 0.07%)</title><rect x="525.8" y="181" width="0.9" height="15.0" fill="rgb(244,183,28)" rx="2" ry="2" />
<text  x="528.85" y="191.5" ></text>
</g>
<g >
<title>[[kernel.kallsyms]] (20,202,020 samples, 0.14%)</title><rect x="288.1" y="85" width="1.6" height="15.0" fill="rgb(248,81,27)" rx="2" ry="2" />
<text  x="291.07" y="95.5" ></text>
</g>
<g >
<title>[libisoalloc.so] (151,515,150 samples, 1.02%)</title><rect x="277.6" y="213" width="12.1" height="15.0" fill="rgb(244,56,42)" rx="2" ry="2" />
<text  x="280.60" y="223.5" ></text>
</g>
<g >
<title>operator delete[] (10,101,010 samples, 0.07%)</title><rect x="523.4" y="229" width="0.8" height="15.0" fill="rgb(230,140,32)" rx="2" ry="2" />
<text  x="526.43" y="239.5" ></text>
</g>
<g >
<title>[[kernel.kallsyms]] (404,040,400 samples, 2.73%)</title><rect x="377.5" y="213" width="32.3" height="15.0" fill="rgb(245,38,16)" rx="2" ry="2" />
<text  x="380.54" y="223.5" >[[..</text>
</g>
<g >
<title>larson-sized (6,424,242,360 samples, 43.44%)</title><rect x="12.4" y="245" width="512.6" height="15.0" fill="rgb(251,169,45)" rx="2" ry="2" />
<text  x="15.42" y="255.5" >larson-sized</text>
</g>
<g >
<title>[[kernel.kallsyms]] (232,323,230 samples, 1.57%)</title><rect x="343.7" y="165" width="18.5" height="15.0" fill="rgb(254,184,12)" rx="2" ry="2" />
<text  x="346.69" y="175.5" ></text>
</g>
<g >
<title>[[kernel.kallsyms]] (20,202,020 samples, 0.14%)</title><rect x="288.1" y="101" width="1.6" height="15.0" fill="rgb(234,54,12)" rx="2" ry="2" />
<text  x="291.07" y="111.5" ></text>
</g>
<g >
<title>[unknown] (10,101,010 samples, 0.07%)</title><rect x="525.0" y="229" width="0.8" height="15.0" fill="rgb(217,171,54)" rx="2" ry="2" />
<text  x="528.04" y="239.5" ></text>
</g>
<g >
<title>[unknown] (4,757,575,710 samples, 32.17%)</title><rect x="810.4" y="197" width="379.6" height="15.0" fill="rgb(234,54,33)" rx="2" ry="2" />
<text  x="813.37" y="207.5" >[unknown]</text>
</g>
<g >
<title>[[kernel.kallsyms]] (10,101,010 samples, 0.07%)</title><rect x="525.8" y="197" width="0.9" height="15.0" fill="rgb(223,175,43)" rx="2" ry="2" />
<text  x="528.85" y="207.5" ></text>
</g>
<g >
<title>[[kernel.kallsyms]] (191,919,190 samples, 1.30%)</title><rect x="346.9" y="149" width="15.3" height="15.0" fill="rgb(235,26,30)" rx="2" ry="2" />
<text  x="349.91" y="159.5" ></text>
</g>
<g >
<title>[[kernel.kallsyms]] (10,101,010 samples, 0.07%)</title><rect x="525.8" y="149" width="0.9" height="15.0" fill="rgb(244,91,41)" rx="2" ry="2" />
<text  x="528.85" y="159.5" ></text>
</g>
<g >
<title>[[kernel.kallsyms]] (10,101,010 samples, 0.07%)</title><rect x="11.6" y="165" width="0.8" height="15.0" fill="rgb(230,176,14)" rx="2" ry="2" />
<text  x="14.61" y="175.5" ></text>
</g>
<g >
<title>[[kernel.kallsyms]] (10,101,010 samples, 0.07%)</title><rect x="295.3" y="133" width="0.8" height="15.0" fill="rgb(208,136,22)" rx="2" ry="2" />
<text  x="298.33" y="143.5" ></text>
</g>
<g >
<title>[[kernel.kallsyms]] (20,202,020 samples, 0.14%)</title><rect x="276.0" y="101" width="1.6" height="15.0" fill="rgb(212,6,34)" rx="2" ry="2" />
<text  x="278.98" y="111.5" ></text>
</g>
<g >
<title>__libc_enable_asynccancel (10,101,010 samples, 0.07%)</title><rect x="362.2" y="229" width="0.8" height="15.0" fill="rgb(251,171,7)" rx="2" ry="2" />
<text  x="365.23" y="239.5" ></text>
</g>
<g >
<title>[[kernel.kallsyms]] (10,101,010 samples, 0.07%)</title><rect x="11.6" y="213" width="0.8" height="15.0" fill="rgb(249,86,47)" rx="2" ry="2" />
<text  x="14.61" y="223.5" ></text>
</g>
<g >
<title>[[kernel.kallsyms]] (10,101,010 samples, 0.07%)</title><rect x="12.4" y="101" width="0.8" height="15.0" fill="rgb(250,42,45)" rx="2" ry="2" />
<text  x="15.42" y="111.5" ></text>
</g>
<g >
<title>[[kernel.kallsyms]] (3,545,454,510 samples, 23.98%)</title><rect x="527.5" y="181" width="282.9" height="15.0" fill="rgb(244,140,19)" rx="2" ry="2" />
<text  x="530.46" y="191.5" >[[kernel.kallsyms]]</text>
</g>
<g >
<title>[[kernel.kallsyms]] (20,202,020 samples, 0.14%)</title><rect x="276.0" y="181" width="1.6" height="15.0" fill="rgb(232,186,42)" rx="2" ry="2" />
<text  x="278.98" y="191.5" ></text>
</g>
<g >
<title>sem_post@@GLIBC_2.2.5 (10,101,010 samples, 0.07%)</title><rect x="525.0" y="213" width="0.8" height="15.0" fill="rgb(235,86,30)" rx="2" ry="2" />
<text  x="528.04" y="223.5" ></text>
</g>
<g >
<title>[[kernel.kallsyms]] (20,202,020 samples, 0.14%)</title><rect x="276.0" y="165" width="1.6" height="15.0" fill="rgb(252,2,15)" rx="2" ry="2" />
<text  x="278.98" y="175.5" ></text>
</g>
<g >
<title>[[kernel.kallsyms]] (10,101,010 samples, 0.07%)</title><rect x="521.8" y="213" width="0.8" height="15.0" fill="rgb(254,113,1)" rx="2" ry="2" />
<text  x="524.82" y="223.5" ></text>
</g>
</g>
</svg>
