<?xml version="1.0" standalone="no"?>
<!DOCTYPE svg PUBLIC "-//W3C//DTD SVG 1.1//EN" "http://www.w3.org/Graphics/SVG/1.1/DTD/svg11.dtd">
<svg version="1.1" width="1200" height="390" onload="init(evt)" viewBox="0 0 1200 390" xmlns="http://www.w3.org/2000/svg" xmlns:xlink="http://www.w3.org/1999/xlink">
<!-- Flame graph stack visualization. See https://github.com/brendangregg/FlameGraph for latest version, and http://www.brendangregg.com/flamegraphs.html for examples. -->
<!-- NOTES:  -->
<defs>
	<linearGradient id="background" y1="0" y2="1" x1="0" x2="0" >
		<stop stop-color="#eeeeee" offset="5%" />
		<stop stop-color="#eeeeb0" offset="95%" />
	</linearGradient>
</defs>
<style type="text/css">
	text { font-family:Verdana; font-size:12px; fill:rgb(0,0,0); }
	#search, #ignorecase { opacity:0.1; cursor:pointer; }
	#search:hover, #search.show, #ignorecase:hover, #ignorecase.show { opacity:1; }
	#subtitle { text-anchor:middle; font-color:rgb(160,160,160); }
	#title { text-anchor:middle; font-size:17px}
	#unzoom { cursor:pointer; }
	#frames > *:hover { stroke:black; stroke-width:0.5; cursor:pointer; }
	.hide { display:none; }
	.parent { opacity:0.5; }
</style>
<script type="text/ecmascript">
<![CDATA[
	"use strict";
	var details, searchbtn, unzoombtn, matchedtxt, svg, searching, currentSearchTerm, ignorecase, ignorecaseBtn;
	function init(evt) {
		details = document.getElementById("details").firstChild;
		searchbtn = document.getElementById("search");
		ignorecaseBtn = document.getElementById("ignorecase");
		unzoombtn = document.getElementById("unzoom");
		matchedtxt = document.getElementById("matched");
		svg = document.getElementsByTagName("svg")[0];
		searching = 0;
		currentSearchTerm = null;

		// use GET parameters to restore a flamegraphs state.
		var params = get_params();
		if (params.x && params.y)
			zoom(find_group(document.querySelector('[x="' + params.x + '"][y="' + params.y + '"]')));
                if (params.s) search(params.s);
	}

	// event listeners
	window.addEventListener("click", function(e) {
		var target = find_group(e.target);
		if (target) {
			if (target.nodeName == "a") {
				if (e.ctrlKey === false) return;
				e.preventDefault();
			}
			if (target.classList.contains("parent")) unzoom(true);
			zoom(target);
			if (!document.querySelector('.parent')) {
				// we have basically done a clearzoom so clear the url
				var params = get_params();
				if (params.x) delete params.x;
				if (params.y) delete params.y;
				history.replaceState(null, null, parse_params(params));
				unzoombtn.classList.add("hide");
				return;
			}

			// set parameters for zoom state
			var el = target.querySelector("rect");
			if (el && el.attributes && el.attributes.y && el.attributes._orig_x) {
				var params = get_params()
				params.x = el.attributes._orig_x.value;
				params.y = el.attributes.y.value;
				history.replaceState(null, null, parse_params(params));
			}
		}
		else if (e.target.id == "unzoom") clearzoom();
		else if (e.target.id == "search") search_prompt();
		else if (e.target.id == "ignorecase") toggle_ignorecase();
	}, false)

	// mouse-over for info
	// show
	window.addEventListener("mouseover", function(e) {
		var target = find_group(e.target);
		if (target) details.nodeValue = "Function: " + g_to_text(target);
	}, false)

	// clear
	window.addEventListener("mouseout", function(e) {
		var target = find_group(e.target);
		if (target) details.nodeValue = ' ';
	}, false)

	// ctrl-F for search
	// ctrl-I to toggle case-sensitive search
	window.addEventListener("keydown",function (e) {
		if (e.keyCode === 114 || (e.ctrlKey && e.keyCode === 70)) {
			e.preventDefault();
			search_prompt();
		}
		else if (e.ctrlKey && e.keyCode === 73) {
			e.preventDefault();
			toggle_ignorecase();
		}
	}, false)

	// functions
	function get_params() {
		var params = {};
		var paramsarr = window.location.search.substr(1).split('&');
		for (var i = 0; i < paramsarr.length; ++i) {
			var tmp = paramsarr[i].split("=");
			if (!tmp[0] || !tmp[1]) continue;
			params[tmp[0]]  = decodeURIComponent(tmp[1]);
		}
		return params;
	}
	function parse_params(params) {
		var uri = "?";
		for (var key in params) {
			uri += key + '=' + encodeURIComponent(params[key]) + '&';
		}
		if (uri.slice(-1) == "&")
			uri = uri.substring(0, uri.length - 1);
		if (uri == '?')
			uri = window.location.href.split('?')[0];
		return uri;
	}
	function find_child(node, selector) {
		var children = node.querySelectorAll(selector);
		if (children.length) return children[0];
	}
	function find_group(node) {
		var parent = node.parentElement;
		if (!parent) return;
		if (parent.id == "frames") return node;
		return find_group(parent);
	}
	function orig_save(e, attr, val) {
		if (e.attributes["_orig_" + attr] != undefined) return;
		if (e.attributes[attr] == undefined) return;
		if (val == undefined) val = e.attributes[attr].value;
		e.setAttribute("_orig_" + attr, val);
	}
	function orig_load(e, attr) {
		if (e.attributes["_orig_"+attr] == undefined) return;
		e.attributes[attr].value = e.attributes["_orig_" + attr].value;
		e.removeAttribute("_orig_"+attr);
	}
	function g_to_text(e) {
		var text = find_child(e, "title").firstChild.nodeValue;
		return (text)
	}
	function g_to_func(e) {
		var func = g_to_text(e);
		// if there's any manipulation we want to do to the function
		// name before it's searched, do it here before returning.
		return (func);
	}
	function update_text(e) {
		var r = find_child(e, "rect");
		var t = find_child(e, "text");
		var w = parseFloat(r.attributes.width.value) -3;
		var txt = find_child(e, "title").textContent.replace(/\([^(]*\)$/,"");
		t.attributes.x.value = parseFloat(r.attributes.x.value) + 3;

		// Smaller than this size won't fit anything
		if (w < 2 * 12 * 0.59) {
			t.textContent = "";
			return;
		}

		t.textContent = txt;
		var sl = t.getSubStringLength(0, txt.length);
		// check if only whitespace or if we can fit the entire string into width w
		if (/^ *$/.test(txt) || sl < w)
			return;

		// this isn't perfect, but gives a good starting point
		// and avoids calling getSubStringLength too often
		var start = Math.floor((w/sl) * txt.length);
		for (var x = start; x > 0; x = x-2) {
			if (t.getSubStringLength(0, x + 2) <= w) {
				t.textContent = txt.substring(0, x) + "..";
				return;
			}
		}
		t.textContent = "";
	}

	// zoom
	function zoom_reset(e) {
		if (e.attributes != undefined) {
			orig_load(e, "x");
			orig_load(e, "width");
		}
		if (e.childNodes == undefined) return;
		for (var i = 0, c = e.childNodes; i < c.length; i++) {
			zoom_reset(c[i]);
		}
	}
	function zoom_child(e, x, ratio) {
		if (e.attributes != undefined) {
			if (e.attributes.x != undefined) {
				orig_save(e, "x");
				e.attributes.x.value = (parseFloat(e.attributes.x.value) - x - 10) * ratio + 10;
				if (e.tagName == "text")
					e.attributes.x.value = find_child(e.parentNode, "rect[x]").attributes.x.value + 3;
			}
			if (e.attributes.width != undefined) {
				orig_save(e, "width");
				e.attributes.width.value = parseFloat(e.attributes.width.value) * ratio;
			}
		}

		if (e.childNodes == undefined) return;
		for (var i = 0, c = e.childNodes; i < c.length; i++) {
			zoom_child(c[i], x - 10, ratio);
		}
	}
	function zoom_parent(e) {
		if (e.attributes) {
			if (e.attributes.x != undefined) {
				orig_save(e, "x");
				e.attributes.x.value = 10;
			}
			if (e.attributes.width != undefined) {
				orig_save(e, "width");
				e.attributes.width.value = parseInt(svg.width.baseVal.value) - (10 * 2);
			}
		}
		if (e.childNodes == undefined) return;
		for (var i = 0, c = e.childNodes; i < c.length; i++) {
			zoom_parent(c[i]);
		}
	}
	function zoom(node) {
		var attr = find_child(node, "rect").attributes;
		var width = parseFloat(attr.width.value);
		var xmin = parseFloat(attr.x.value);
		var xmax = parseFloat(xmin + width);
		var ymin = parseFloat(attr.y.value);
		var ratio = (svg.width.baseVal.value - 2 * 10) / width;

		// XXX: Workaround for JavaScript float issues (fix me)
		var fudge = 0.0001;

		unzoombtn.classList.remove("hide");

		var el = document.getElementById("frames").children;
		for (var i = 0; i < el.length; i++) {
			var e = el[i];
			var a = find_child(e, "rect").attributes;
			var ex = parseFloat(a.x.value);
			var ew = parseFloat(a.width.value);
			var upstack;
			// Is it an ancestor
			if (0 == 0) {
				upstack = parseFloat(a.y.value) > ymin;
			} else {
				upstack = parseFloat(a.y.value) < ymin;
			}
			if (upstack) {
				// Direct ancestor
				if (ex <= xmin && (ex+ew+fudge) >= xmax) {
					e.classList.add("parent");
					zoom_parent(e);
					update_text(e);
				}
				// not in current path
				else
					e.classList.add("hide");
			}
			// Children maybe
			else {
				// no common path
				if (ex < xmin || ex + fudge >= xmax) {
					e.classList.add("hide");
				}
				else {
					zoom_child(e, xmin, ratio);
					update_text(e);
				}
			}
		}
		search();
	}
	function unzoom(dont_update_text) {
		unzoombtn.classList.add("hide");
		var el = document.getElementById("frames").children;
		for(var i = 0; i < el.length; i++) {
			el[i].classList.remove("parent");
			el[i].classList.remove("hide");
			zoom_reset(el[i]);
			if(!dont_update_text) update_text(el[i]);
		}
		search();
	}
	function clearzoom() {
		unzoom();

		// remove zoom state
		var params = get_params();
		if (params.x) delete params.x;
		if (params.y) delete params.y;
		history.replaceState(null, null, parse_params(params));
	}

	// search
	function toggle_ignorecase() {
		ignorecase = !ignorecase;
		if (ignorecase) {
			ignorecaseBtn.classList.add("show");
		} else {
			ignorecaseBtn.classList.remove("show");
		}
		reset_search();
		search();
	}
	function reset_search() {
		var el = document.querySelectorAll("#frames rect");
		for (var i = 0; i < el.length; i++) {
			orig_load(el[i], "fill")
		}
		var params = get_params();
		delete params.s;
		history.replaceState(null, null, parse_params(params));
	}
	function search_prompt() {
		if (!searching) {
			var term = prompt("Enter a search term (regexp " +
			    "allowed, eg: ^ext4_)"
			    + (ignorecase ? ", ignoring case" : "")
			    + "\nPress Ctrl-i to toggle case sensitivity", "");
			if (term != null) search(term);
		} else {
			reset_search();
			searching = 0;
			currentSearchTerm = null;
			searchbtn.classList.remove("show");
			searchbtn.firstChild.nodeValue = "Search"
			matchedtxt.classList.add("hide");
			matchedtxt.firstChild.nodeValue = ""
		}
	}
	function search(term) {
		if (term) currentSearchTerm = term;

		var re = new RegExp(currentSearchTerm, ignorecase ? 'i' : '');
		var el = document.getElementById("frames").children;
		var matches = new Object();
		var maxwidth = 0;
		for (var i = 0; i < el.length; i++) {
			var e = el[i];
			var func = g_to_func(e);
			var rect = find_child(e, "rect");
			if (func == null || rect == null)
				continue;

			// Save max width. Only works as we have a root frame
			var w = parseFloat(rect.attributes.width.value);
			if (w > maxwidth)
				maxwidth = w;

			if (func.match(re)) {
				// highlight
				var x = parseFloat(rect.attributes.x.value);
				orig_save(rect, "fill");
				rect.attributes.fill.value = "rgb(230,0,230)";

				// remember matches
				if (matches[x] == undefined) {
					matches[x] = w;
				} else {
					if (w > matches[x]) {
						// overwrite with parent
						matches[x] = w;
					}
				}
				searching = 1;
			}
		}
		if (!searching)
			return;
		var params = get_params();
		params.s = currentSearchTerm;
		history.replaceState(null, null, parse_params(params));

		searchbtn.classList.add("show");
		searchbtn.firstChild.nodeValue = "Reset Search";

		// calculate percent matched, excluding vertical overlap
		var count = 0;
		var lastx = -1;
		var lastw = 0;
		var keys = Array();
		for (k in matches) {
			if (matches.hasOwnProperty(k))
				keys.push(k);
		}
		// sort the matched frames by their x location
		// ascending, then width descending
		keys.sort(function(a, b){
			return a - b;
		});
		// Step through frames saving only the biggest bottom-up frames
		// thanks to the sort order. This relies on the tree property
		// where children are always smaller than their parents.
		var fudge = 0.0001;	// JavaScript floating point
		for (var k in keys) {
			var x = parseFloat(keys[k]);
			var w = matches[keys[k]];
			if (x >= lastx + lastw - fudge) {
				count += w;
				lastx = x;
				lastw = w;
			}
		}
		// display matched percent
		matchedtxt.classList.remove("hide");
		var pct = 100 * count / maxwidth;
		if (pct != 100) pct = pct.toFixed(1)
		matchedtxt.firstChild.nodeValue = "Matched: " + pct + "%";
	}
]]>
</script>
<rect x="0.0" y="0" width="1200.0" height="390.0" fill="url(#background)"  />
<text id="title" x="600.00" y="24" >Flame Graph</text>
<text id="details" x="10.00" y="373" > </text>
<text id="unzoom" x="10.00" y="24" class="hide">Reset Zoom</text>
<text id="search" x="1090.00" y="24" >Search</text>
<text id="ignorecase" x="1174.00" y="24" >ic</text>
<text id="matched" x="1090.00" y="373" > </text>
<g id="frames">
<g >
<title>[[kernel.kallsyms]] (10,101,010 samples, 0.07%)</title><rect x="848.6" y="133" width="0.9" height="15.0" fill="rgb(222,142,32)" rx="2" ry="2" />
<text  x="851.64" y="143.5" ></text>
</g>
<g >
<title>[[kernel.kallsyms]] (10,101,010 samples, 0.07%)</title><rect x="849.5" y="245" width="0.8" height="15.0" fill="rgb(232,176,12)" rx="2" ry="2" />
<text  x="852.49" y="255.5" ></text>
</g>
<g >
<title>[[kernel.kallsyms]] (10,101,010 samples, 0.07%)</title><rect x="31.1" y="197" width="0.8" height="15.0" fill="rgb(244,55,43)" rx="2" ry="2" />
<text  x="34.07" y="207.5" ></text>
</g>
<g >
<title>[[kernel.kallsyms]] (10,101,010 samples, 0.07%)</title><rect x="438.2" y="293" width="0.8" height="15.0" fill="rgb(226,89,46)" rx="2" ry="2" />
<text  x="441.17" y="303.5" ></text>
</g>
<g >
<title>[[kernel.kallsyms]] (2,050,505,030 samples, 14.50%)</title><rect x="850.3" y="245" width="171.1" height="15.0" fill="rgb(239,74,21)" rx="2" ry="2" />
<text  x="853.33" y="255.5" >[[kernel.kallsyms]]</text>
</g>
<g >
<title>[[kernel.kallsyms]] (2,020,202,000 samples, 14.29%)</title><rect x="1021.4" y="213" width="168.6" height="15.0" fill="rgb(247,54,6)" rx="2" ry="2" />
<text  x="1024.43" y="223.5" >[[kernel.kallsyms]]</text>
</g>
<g >
<title>tcmalloc::CentralFreeList::ReleaseToSpans (101,010,100 samples, 0.71%)</title><rect x="43.7" y="293" width="8.4" height="15.0" fill="rgb(231,211,51)" rx="2" ry="2" />
<text  x="46.71" y="303.5" ></text>
</g>
<g >
<title>dirname (10,101,010 samples, 0.07%)</title><rect x="10.8" y="325" width="0.9" height="15.0" fill="rgb(248,66,44)" rx="2" ry="2" />
<text  x="13.84" y="335.5" ></text>
</g>
<g >
<title>[[kernel.kallsyms]] (2,050,505,030 samples, 14.50%)</title><rect x="850.3" y="213" width="171.1" height="15.0" fill="rgb(236,80,4)" rx="2" ry="2" />
<text  x="853.33" y="223.5" >[[kernel.kallsyms]]</text>
</g>
<g >
<title>[[kernel.kallsyms]] (10,101,010 samples, 0.07%)</title><rect x="10.8" y="277" width="0.9" height="15.0" fill="rgb(231,121,37)" rx="2" ry="2" />
<text  x="13.84" y="287.5" ></text>
</g>
<g >
<title>__GI___tunables_init (10,101,010 samples, 0.07%)</title><rect x="10.8" y="293" width="0.9" height="15.0" fill="rgb(225,81,26)" rx="2" ry="2" />
<text  x="13.84" y="303.5" ></text>
</g>
<g >
<title>operator new[] (1,848,484,830 samples, 13.07%)</title><rect x="439.0" y="309" width="154.3" height="15.0" fill="rgb(217,52,50)" rx="2" ry="2" />
<text  x="442.01" y="319.5" >operator new[]</text>
</g>
<g >
<title>[[kernel.kallsyms]] (2,020,202,000 samples, 14.29%)</title><rect x="1021.4" y="197" width="168.6" height="15.0" fill="rgb(224,117,6)" rx="2" ry="2" />
<text  x="1024.43" y="207.5" >[[kernel.kallsyms]]</text>
</g>
<g >
<title>[[kernel.kallsyms]] (10,101,010 samples, 0.07%)</title><rect x="848.6" y="261" width="0.9" height="15.0" fill="rgb(232,38,19)" rx="2" ry="2" />
<text  x="851.64" y="271.5" ></text>
</g>
<g >
<title>[[kernel.kallsyms]] (10,101,010 samples, 0.07%)</title><rect x="11.7" y="261" width="0.8" height="15.0" fill="rgb(211,99,42)" rx="2" ry="2" />
<text  x="14.69" y="271.5" ></text>
</g>
<g >
<title>[[kernel.kallsyms]] (4,070,707,030 samples, 28.79%)</title><rect x="850.3" y="309" width="339.7" height="15.0" fill="rgb(214,73,36)" rx="2" ry="2" />
<text  x="853.33" y="319.5" >[[kernel.kallsyms]]</text>
</g>
<g >
<title>[unknown] (20,202,020 samples, 0.14%)</title><rect x="29.4" y="245" width="1.7" height="15.0" fill="rgb(224,182,4)" rx="2" ry="2" />
<text  x="32.39" y="255.5" ></text>
</g>
<g >
<title>[[kernel.kallsyms]] (10,101,010 samples, 0.07%)</title><rect x="10.8" y="245" width="0.9" height="15.0" fill="rgb(215,163,35)" rx="2" ry="2" />
<text  x="13.84" y="255.5" ></text>
</g>
<g >
<title>[unknown] (10,101,010 samples, 0.07%)</title><rect x="29.4" y="149" width="0.8" height="15.0" fill="rgb(236,64,50)" rx="2" ry="2" />
<text  x="32.39" y="159.5" ></text>
</g>
<g >
<title>tcmalloc::ThreadCache::FetchFromCentralCache (10,101,010 samples, 0.07%)</title><rect x="847.0" y="309" width="0.8" height="15.0" fill="rgb(213,99,3)" rx="2" ry="2" />
<text  x="849.96" y="319.5" ></text>
</g>
<g >
<title>runthreads (20,202,020 samples, 0.14%)</title><rect x="31.9" y="293" width="1.7" height="15.0" fill="rgb(215,152,3)" rx="2" ry="2" />
<text  x="34.91" y="303.5" ></text>
</g>
<g >
<title>do_lookup_x (10,101,010 samples, 0.07%)</title><rect x="10.0" y="309" width="0.8" height="15.0" fill="rgb(240,181,23)" rx="2" ry="2" />
<text  x="13.00" y="319.5" ></text>
</g>
<g >
<title>[unknown] (20,202,020 samples, 0.14%)</title><rect x="29.4" y="277" width="1.7" height="15.0" fill="rgb(231,147,26)" rx="2" ry="2" />
<text  x="32.39" y="287.5" ></text>
</g>
<g >
<title>[unknown] (2,020,202,000 samples, 14.29%)</title><rect x="1021.4" y="245" width="168.6" height="15.0" fill="rgb(210,106,51)" rx="2" ry="2" />
<text  x="1024.43" y="255.5" >[unknown]</text>
</g>
<g >
<title>[[kernel.kallsyms]] (10,101,010 samples, 0.07%)</title><rect x="848.6" y="213" width="0.9" height="15.0" fill="rgb(239,196,10)" rx="2" ry="2" />
<text  x="851.64" y="223.5" ></text>
</g>
<g >
<title>[[kernel.kallsyms]] (10,101,010 samples, 0.07%)</title><rect x="438.2" y="245" width="0.8" height="15.0" fill="rgb(216,150,6)" rx="2" ry="2" />
<text  x="441.17" y="255.5" ></text>
</g>
<g >
<title>[[kernel.kallsyms]] (10,101,010 samples, 0.07%)</title><rect x="11.7" y="277" width="0.8" height="15.0" fill="rgb(229,128,39)" rx="2" ry="2" />
<text  x="14.69" y="287.5" ></text>
</g>
<g >
<title>drm_fb_helper_sys_imageblit (10,101,010 samples, 0.07%)</title><rect x="11.7" y="181" width="0.8" height="15.0" fill="rgb(236,158,30)" rx="2" ry="2" />
<text  x="14.69" y="191.5" ></text>
</g>
<g >
<title>[[kernel.kallsyms]] (10,101,010 samples, 0.07%)</title><rect x="848.6" y="181" width="0.9" height="15.0" fill="rgb(253,226,48)" rx="2" ry="2" />
<text  x="851.64" y="191.5" ></text>
</g>
<g >
<title>all (14,141,414,000 samples, 100%)</title><rect x="10.0" y="341" width="1180.0" height="15.0" fill="rgb(221,193,43)" rx="2" ry="2" />
<text  x="13.00" y="351.5" ></text>
</g>
<g >
<title>exercise_heap (4,454,545,410 samples, 31.50%)</title><rect x="67.3" y="309" width="371.7" height="15.0" fill="rgb(217,123,52)" rx="2" ry="2" />
<text  x="70.31" y="319.5" >exercise_heap</text>
</g>
<g >
<title>tcmalloc::CentralFreeList::RemoveRange (10,101,010 samples, 0.07%)</title><rect x="30.2" y="181" width="0.9" height="15.0" fill="rgb(218,60,36)" rx="2" ry="2" />
<text  x="33.23" y="191.5" ></text>
</g>
<g >
<title>kworker/u4:3-ev (10,101,010 samples, 0.07%)</title><rect x="11.7" y="325" width="0.8" height="15.0" fill="rgb(236,67,7)" rx="2" ry="2" />
<text  x="14.69" y="335.5" ></text>
</g>
<g >
<title>[unknown] (20,202,020 samples, 0.14%)</title><rect x="29.4" y="197" width="1.7" height="15.0" fill="rgb(250,205,48)" rx="2" ry="2" />
<text  x="32.39" y="207.5" ></text>
</g>
<g >
<title>[[kernel.kallsyms]] (2,010,100,990 samples, 14.21%)</title><rect x="1022.3" y="149" width="167.7" height="15.0" fill="rgb(226,176,52)" rx="2" ry="2" />
<text  x="1025.27" y="159.5" >[[kernel.kallsyms]]</text>
</g>
<g >
<title>[[kernel.kallsyms]] (10,101,010 samples, 0.07%)</title><rect x="10.8" y="213" width="0.9" height="15.0" fill="rgb(210,219,26)" rx="2" ry="2" />
<text  x="13.84" y="223.5" ></text>
</g>
<g >
<title>[[kernel.kallsyms]] (10,101,010 samples, 0.07%)</title><rect x="10.8" y="229" width="0.9" height="15.0" fill="rgb(211,175,14)" rx="2" ry="2" />
<text  x="13.84" y="239.5" ></text>
</g>
<g >
<title>[[kernel.kallsyms]] (10,101,010 samples, 0.07%)</title><rect x="42.9" y="261" width="0.8" height="15.0" fill="rgb(252,21,37)" rx="2" ry="2" />
<text  x="45.87" y="271.5" ></text>
</g>
<g >
<title>[unknown] (2,020,202,000 samples, 14.29%)</title><rect x="1021.4" y="277" width="168.6" height="15.0" fill="rgb(234,95,0)" rx="2" ry="2" />
<text  x="1024.43" y="287.5" >[unknown]</text>
</g>
<g >
<title>[unknown] (10,101,010 samples, 0.07%)</title><rect x="29.4" y="133" width="0.8" height="15.0" fill="rgb(208,159,6)" rx="2" ry="2" />
<text  x="32.39" y="143.5" ></text>
</g>
<g >
<title>[[kernel.kallsyms]] (2,010,100,990 samples, 14.21%)</title><rect x="1022.3" y="165" width="167.7" height="15.0" fill="rgb(219,178,6)" rx="2" ry="2" />
<text  x="1025.27" y="175.5" >[[kernel.kallsyms]]</text>
</g>
<g >
<title>tcmalloc::CentralFreeList::RemoveRange (30,303,030 samples, 0.21%)</title><rect x="52.1" y="293" width="2.6" height="15.0" fill="rgb(235,58,50)" rx="2" ry="2" />
<text  x="55.14" y="303.5" ></text>
</g>
<g >
<title>[[kernel.kallsyms]] (10,101,010 samples, 0.07%)</title><rect x="848.6" y="277" width="0.9" height="15.0" fill="rgb(242,213,9)" rx="2" ry="2" />
<text  x="851.64" y="287.5" ></text>
</g>
<g >
<title>runthreads (10,101,010 samples, 0.07%)</title><rect x="593.3" y="309" width="0.8" height="15.0" fill="rgb(250,152,2)" rx="2" ry="2" />
<text  x="596.26" y="319.5" ></text>
</g>
<g >
<title>[[kernel.kallsyms]] (10,101,010 samples, 0.07%)</title><rect x="10.8" y="149" width="0.9" height="15.0" fill="rgb(215,47,16)" rx="2" ry="2" />
<text  x="13.84" y="159.5" ></text>
</g>
<g >
<title>[[kernel.kallsyms]] (10,101,010 samples, 0.07%)</title><rect x="848.6" y="149" width="0.9" height="15.0" fill="rgb(223,202,24)" rx="2" ry="2" />
<text  x="851.64" y="159.5" ></text>
</g>
<g >
<title>[[kernel.kallsyms]] (10,101,010 samples, 0.07%)</title><rect x="42.9" y="277" width="0.8" height="15.0" fill="rgb(237,34,13)" rx="2" ry="2" />
<text  x="45.87" y="287.5" ></text>
</g>
<g >
<title>[[kernel.kallsyms]] (10,101,010 samples, 0.07%)</title><rect x="438.2" y="261" width="0.8" height="15.0" fill="rgb(235,92,52)" rx="2" ry="2" />
<text  x="441.17" y="271.5" ></text>
</g>
<g >
<title>swapper (4,070,707,030 samples, 28.79%)</title><rect x="850.3" y="325" width="339.7" height="15.0" fill="rgb(243,14,9)" rx="2" ry="2" />
<text  x="853.33" y="335.5" >swapper</text>
</g>
<g >
<title>[libgcc_s.so.1] (10,101,010 samples, 0.07%)</title><rect x="28.5" y="293" width="0.9" height="15.0" fill="rgb(247,3,13)" rx="2" ry="2" />
<text  x="31.54" y="303.5" ></text>
</g>
<g >
<title>[[kernel.kallsyms]] (10,101,010 samples, 0.07%)</title><rect x="438.2" y="197" width="0.8" height="15.0" fill="rgb(213,43,13)" rx="2" ry="2" />
<text  x="441.17" y="207.5" ></text>
</g>
<g >
<title>[[kernel.kallsyms]] (10,101,010 samples, 0.07%)</title><rect x="11.7" y="245" width="0.8" height="15.0" fill="rgb(212,114,39)" rx="2" ry="2" />
<text  x="14.69" y="255.5" ></text>
</g>
<g >
<title>tc_deletearray_sized (3,030,303,000 samples, 21.43%)</title><rect x="594.1" y="309" width="252.9" height="15.0" fill="rgb(232,29,17)" rx="2" ry="2" />
<text  x="597.10" y="319.5" >tc_deletearray_sized</text>
</g>
<g >
<title>[[kernel.kallsyms]] (10,101,010 samples, 0.07%)</title><rect x="31.1" y="277" width="0.8" height="15.0" fill="rgb(244,153,39)" rx="2" ry="2" />
<text  x="34.07" y="287.5" ></text>
</g>
<g >
<title>[[kernel.kallsyms]] (10,101,010 samples, 0.07%)</title><rect x="10.8" y="181" width="0.9" height="15.0" fill="rgb(221,145,0)" rx="2" ry="2" />
<text  x="13.84" y="191.5" ></text>
</g>
<g >
<title>tcmalloc::ThreadCache::FetchFromCentralCache (20,202,020 samples, 0.14%)</title><rect x="58.0" y="293" width="1.7" height="15.0" fill="rgb(242,74,29)" rx="2" ry="2" />
<text  x="61.04" y="303.5" ></text>
</g>
<g >
<title>__clone (10,101,010 samples, 0.07%)</title><rect x="31.1" y="293" width="0.8" height="15.0" fill="rgb(249,5,4)" rx="2" ry="2" />
<text  x="34.07" y="303.5" ></text>
</g>
<g >
<title>[[kernel.kallsyms]] (2,020,202,000 samples, 14.29%)</title><rect x="1021.4" y="181" width="168.6" height="15.0" fill="rgb(216,180,18)" rx="2" ry="2" />
<text  x="1024.43" y="191.5" >[[kernel.kallsyms]]</text>
</g>
<g >
<title>[[kernel.kallsyms]] (10,101,010 samples, 0.07%)</title><rect x="31.1" y="229" width="0.8" height="15.0" fill="rgb(208,219,52)" rx="2" ry="2" />
<text  x="34.07" y="239.5" ></text>
</g>
<g >
<title>tcmalloc::CentralFreeList::FetchFromOneSpans (80,808,080 samples, 0.57%)</title><rect x="33.6" y="293" width="6.7" height="15.0" fill="rgb(222,41,52)" rx="2" ry="2" />
<text  x="36.60" y="303.5" ></text>
</g>
<g >
<title>[[kernel.kallsyms]] (2,050,505,030 samples, 14.50%)</title><rect x="850.3" y="229" width="171.1" height="15.0" fill="rgb(229,212,33)" rx="2" ry="2" />
<text  x="853.33" y="239.5" >[[kernel.kallsyms]]</text>
</g>
<g >
<title>[unknown] (20,202,020 samples, 0.14%)</title><rect x="29.4" y="229" width="1.7" height="15.0" fill="rgb(241,82,54)" rx="2" ry="2" />
<text  x="32.39" y="239.5" ></text>
</g>
<g >
<title>[unknown] (10,101,010 samples, 0.07%)</title><rect x="29.4" y="69" width="0.8" height="15.0" fill="rgb(212,9,35)" rx="2" ry="2" />
<text  x="32.39" y="79.5" ></text>
</g>
<g >
<title>[[kernel.kallsyms]] (10,101,010 samples, 0.07%)</title><rect x="31.1" y="165" width="0.8" height="15.0" fill="rgb(235,153,10)" rx="2" ry="2" />
<text  x="34.07" y="175.5" ></text>
</g>
<g >
<title>__libc_read (10,101,010 samples, 0.07%)</title><rect x="848.6" y="309" width="0.9" height="15.0" fill="rgb(210,209,13)" rx="2" ry="2" />
<text  x="851.64" y="319.5" ></text>
</g>
<g >
<title>[[kernel.kallsyms]] (10,101,010 samples, 0.07%)</title><rect x="10.8" y="165" width="0.9" height="15.0" fill="rgb(243,227,26)" rx="2" ry="2" />
<text  x="13.84" y="175.5" ></text>
</g>
<g >
<title>[unknown] (10,101,010 samples, 0.07%)</title><rect x="29.4" y="165" width="0.8" height="15.0" fill="rgb(252,22,38)" rx="2" ry="2" />
<text  x="32.39" y="175.5" ></text>
</g>
<g >
<title>tcmalloc::CentralFreeList::RemoveRange (10,101,010 samples, 0.07%)</title><rect x="29.4" y="37" width="0.8" height="15.0" fill="rgb(207,223,20)" rx="2" ry="2" />
<text  x="32.39" y="47.5" ></text>
</g>
<g >
<title>[unknown] (10,101,010 samples, 0.07%)</title><rect x="29.4" y="101" width="0.8" height="15.0" fill="rgb(254,182,54)" rx="2" ry="2" />
<text  x="32.39" y="111.5" ></text>
</g>
<g >
<title>[[kernel.kallsyms]] (10,101,010 samples, 0.07%)</title><rect x="31.1" y="181" width="0.8" height="15.0" fill="rgb(251,161,18)" rx="2" ry="2" />
<text  x="34.07" y="191.5" ></text>
</g>
<g >
<title>[[kernel.kallsyms]] (10,101,010 samples, 0.07%)</title><rect x="31.1" y="213" width="0.8" height="15.0" fill="rgb(220,137,15)" rx="2" ry="2" />
<text  x="34.07" y="223.5" ></text>
</g>
<g >
<title>cat (10,101,010 samples, 0.07%)</title><rect x="10.0" y="325" width="0.8" height="15.0" fill="rgb(251,174,26)" rx="2" ry="2" />
<text  x="13.00" y="335.5" ></text>
</g>
<g >
<title>[[kernel.kallsyms]] (10,101,010 samples, 0.07%)</title><rect x="849.5" y="229" width="0.8" height="15.0" fill="rgb(238,86,53)" rx="2" ry="2" />
<text  x="852.49" y="239.5" ></text>
</g>
<g >
<title>[[kernel.kallsyms]] (10,101,010 samples, 0.07%)</title><rect x="11.7" y="149" width="0.8" height="15.0" fill="rgb(243,102,46)" rx="2" ry="2" />
<text  x="14.69" y="159.5" ></text>
</g>
<g >
<title>[[kernel.kallsyms]] (10,101,010 samples, 0.07%)</title><rect x="11.7" y="309" width="0.8" height="15.0" fill="rgb(246,176,37)" rx="2" ry="2" />
<text  x="14.69" y="319.5" ></text>
</g>
<g >
<title>tcmalloc::CentralFreeList::InsertRange (30,303,030 samples, 0.21%)</title><rect x="40.3" y="293" width="2.6" height="15.0" fill="rgb(207,114,46)" rx="2" ry="2" />
<text  x="43.34" y="303.5" ></text>
</g>
<g >
<title>[[kernel.kallsyms]] (10,101,010 samples, 0.07%)</title><rect x="31.1" y="245" width="0.8" height="15.0" fill="rgb(235,2,10)" rx="2" ry="2" />
<text  x="34.07" y="255.5" ></text>
</g>
<g >
<title>[unknown] (2,020,202,000 samples, 14.29%)</title><rect x="1021.4" y="293" width="168.6" height="15.0" fill="rgb(251,25,24)" rx="2" ry="2" />
<text  x="1024.43" y="303.5" >[unknown]</text>
</g>
<g >
<title>drm_fbdev_fb_imageblit (10,101,010 samples, 0.07%)</title><rect x="11.7" y="197" width="0.8" height="15.0" fill="rgb(209,106,43)" rx="2" ry="2" />
<text  x="14.69" y="207.5" ></text>
</g>
<g >
<title>[[kernel.kallsyms]] (10,101,010 samples, 0.07%)</title><rect x="848.6" y="293" width="0.9" height="15.0" fill="rgb(210,7,22)" rx="2" ry="2" />
<text  x="851.64" y="303.5" ></text>
</g>
<g >
<title>[[kernel.kallsyms]] (10,101,010 samples, 0.07%)</title><rect x="11.7" y="213" width="0.8" height="15.0" fill="rgb(244,190,48)" rx="2" ry="2" />
<text  x="14.69" y="223.5" ></text>
</g>
<g >
<title>[unknown] (10,101,010 samples, 0.07%)</title><rect x="29.4" y="117" width="0.8" height="15.0" fill="rgb(237,215,22)" rx="2" ry="2" />
<text  x="32.39" y="127.5" ></text>
</g>
<g >
<title>[[kernel.kallsyms]] (10,101,010 samples, 0.07%)</title><rect x="849.5" y="293" width="0.8" height="15.0" fill="rgb(211,129,48)" rx="2" ry="2" />
<text  x="852.49" y="303.5" ></text>
</g>
<g >
<title>tcmalloc::DLL_Remove (40,404,040 samples, 0.29%)</title><rect x="54.7" y="293" width="3.3" height="15.0" fill="rgb(254,99,40)" rx="2" ry="2" />
<text  x="57.67" y="303.5" ></text>
</g>
<g >
<title>[[kernel.kallsyms]] (10,101,010 samples, 0.07%)</title><rect x="849.5" y="213" width="0.8" height="15.0" fill="rgb(248,201,53)" rx="2" ry="2" />
<text  x="852.49" y="223.5" ></text>
</g>
<g >
<title>[[kernel.kallsyms]] (10,101,010 samples, 0.07%)</title><rect x="849.5" y="277" width="0.8" height="15.0" fill="rgb(254,50,26)" rx="2" ry="2" />
<text  x="852.49" y="287.5" ></text>
</g>
<g >
<title>larson-sized (10,020,201,920 samples, 70.86%)</title><rect x="12.5" y="325" width="836.1" height="15.0" fill="rgb(219,82,10)" rx="2" ry="2" />
<text  x="15.53" y="335.5" >larson-sized</text>
</g>
<g >
<title>[unknown] (464,646,460 samples, 3.29%)</title><rect x="28.5" y="309" width="38.8" height="15.0" fill="rgb(227,152,3)" rx="2" ry="2" />
<text  x="31.54" y="319.5" >[un..</text>
</g>
<g >
<title>[[kernel.kallsyms]] (10,101,010 samples, 0.07%)</title><rect x="438.2" y="229" width="0.8" height="15.0" fill="rgb(217,101,27)" rx="2" ry="2" />
<text  x="441.17" y="239.5" ></text>
</g>
<g >
<title>[[kernel.kallsyms]] (10,101,010 samples, 0.07%)</title><rect x="438.2" y="277" width="0.8" height="15.0" fill="rgb(229,101,43)" rx="2" ry="2" />
<text  x="441.17" y="287.5" ></text>
</g>
<g >
<title>[[kernel.kallsyms]] (10,101,010 samples, 0.07%)</title><rect x="42.9" y="229" width="0.8" height="15.0" fill="rgb(245,146,3)" rx="2" ry="2" />
<text  x="45.87" y="239.5" ></text>
</g>
<g >
<title>[unknown] (20,202,020 samples, 0.14%)</title><rect x="29.4" y="261" width="1.7" height="15.0" fill="rgb(248,73,26)" rx="2" ry="2" />
<text  x="32.39" y="271.5" ></text>
</g>
<g >
<title>[[kernel.kallsyms]] (10,101,010 samples, 0.07%)</title><rect x="848.6" y="229" width="0.9" height="15.0" fill="rgb(242,80,31)" rx="2" ry="2" />
<text  x="851.64" y="239.5" ></text>
</g>
<g >
<title>[[kernel.kallsyms]] (10,101,010 samples, 0.07%)</title><rect x="438.2" y="213" width="0.8" height="15.0" fill="rgb(243,111,8)" rx="2" ry="2" />
<text  x="441.17" y="223.5" ></text>
</g>
<g >
<title>[unknown] (10,101,010 samples, 0.07%)</title><rect x="29.4" y="53" width="0.8" height="15.0" fill="rgb(249,84,8)" rx="2" ry="2" />
<text  x="32.39" y="63.5" ></text>
</g>
<g >
<title>drm_fb_helper_damage.isra.0 (10,101,010 samples, 0.07%)</title><rect x="11.7" y="165" width="0.8" height="15.0" fill="rgb(216,164,20)" rx="2" ry="2" />
<text  x="14.69" y="175.5" ></text>
</g>
<g >
<title>[[kernel.kallsyms]] (10,101,010 samples, 0.07%)</title><rect x="593.3" y="261" width="0.8" height="15.0" fill="rgb(208,114,46)" rx="2" ry="2" />
<text  x="596.26" y="271.5" ></text>
</g>
<g >
<title>[[kernel.kallsyms]] (2,050,505,030 samples, 14.50%)</title><rect x="850.3" y="293" width="171.1" height="15.0" fill="rgb(242,84,7)" rx="2" ry="2" />
<text  x="853.33" y="303.5" >[[kernel.kallsyms]]</text>
</g>
<g >
<title>tcmalloc::CentralFreeList::Populate (10,101,010 samples, 0.07%)</title><rect x="42.9" y="293" width="0.8" height="15.0" fill="rgb(233,152,21)" rx="2" ry="2" />
<text  x="45.87" y="303.5" ></text>
</g>
<g >
<title>[[kernel.kallsyms]] (10,101,010 samples, 0.07%)</title><rect x="11.7" y="229" width="0.8" height="15.0" fill="rgb(221,45,2)" rx="2" ry="2" />
<text  x="14.69" y="239.5" ></text>
</g>
<g >
<title>tcmalloc::ThreadCache::ReleaseToCentralCache (90,909,090 samples, 0.64%)</title><rect x="59.7" y="293" width="7.6" height="15.0" fill="rgb(235,131,17)" rx="2" ry="2" />
<text  x="62.73" y="303.5" ></text>
</g>
<g >
<title>[[kernel.kallsyms]] (10,101,010 samples, 0.07%)</title><rect x="11.7" y="293" width="0.8" height="15.0" fill="rgb(227,82,27)" rx="2" ry="2" />
<text  x="14.69" y="303.5" ></text>
</g>
<g >
<title>[unknown] (20,202,020 samples, 0.14%)</title><rect x="29.4" y="293" width="1.7" height="15.0" fill="rgb(206,71,48)" rx="2" ry="2" />
<text  x="32.39" y="303.5" ></text>
</g>
<g >
<title>redis-server (10,101,010 samples, 0.07%)</title><rect x="848.6" y="325" width="0.9" height="15.0" fill="rgb(247,166,32)" rx="2" ry="2" />
<text  x="851.64" y="335.5" ></text>
</g>
<g >
<title>[[kernel.kallsyms]] (10,101,010 samples, 0.07%)</title><rect x="42.9" y="245" width="0.8" height="15.0" fill="rgb(206,206,15)" rx="2" ry="2" />
<text  x="45.87" y="255.5" ></text>
</g>
<g >
<title>[[kernel.kallsyms]] (2,050,505,030 samples, 14.50%)</title><rect x="850.3" y="277" width="171.1" height="15.0" fill="rgb(211,1,8)" rx="2" ry="2" />
<text  x="853.33" y="287.5" >[[kernel.kallsyms]]</text>
</g>
<g >
<title>[[kernel.kallsyms]] (10,101,010 samples, 0.07%)</title><rect x="10.8" y="197" width="0.9" height="15.0" fill="rgb(241,36,4)" rx="2" ry="2" />
<text  x="13.84" y="207.5" ></text>
</g>
<g >
<title>[[kernel.kallsyms]] (2,050,505,030 samples, 14.50%)</title><rect x="850.3" y="261" width="171.1" height="15.0" fill="rgb(251,70,51)" rx="2" ry="2" />
<text  x="853.33" y="271.5" >[[kernel.kallsyms]]</text>
</g>
<g >
<title>[unknown] (2,020,202,000 samples, 14.29%)</title><rect x="1021.4" y="261" width="168.6" height="15.0" fill="rgb(229,77,32)" rx="2" ry="2" />
<text  x="1024.43" y="271.5" >[unknown]</text>
</g>
<g >
<title>[[kernel.kallsyms]] (10,101,010 samples, 0.07%)</title><rect x="593.3" y="293" width="0.8" height="15.0" fill="rgb(234,199,39)" rx="2" ry="2" />
<text  x="596.26" y="303.5" ></text>
</g>
<g >
<title>[[kernel.kallsyms]] (10,101,010 samples, 0.07%)</title><rect x="10.8" y="261" width="0.9" height="15.0" fill="rgb(229,191,15)" rx="2" ry="2" />
<text  x="13.84" y="271.5" ></text>
</g>
<g >
<title>[larson-sized] (191,919,190 samples, 1.36%)</title><rect x="12.5" y="309" width="16.0" height="15.0" fill="rgb(254,138,26)" rx="2" ry="2" />
<text  x="15.53" y="319.5" ></text>
</g>
<g >
<title>[[kernel.kallsyms]] (10,101,010 samples, 0.07%)</title><rect x="848.6" y="245" width="0.9" height="15.0" fill="rgb(232,147,31)" rx="2" ry="2" />
<text  x="851.64" y="255.5" ></text>
</g>
<g >
<title>[[kernel.kallsyms]] (10,101,010 samples, 0.07%)</title><rect x="848.6" y="165" width="0.9" height="15.0" fill="rgb(224,65,9)" rx="2" ry="2" />
<text  x="851.64" y="175.5" ></text>
</g>
<g >
<title>tcmalloc::ThreadCache::Scavenge (10,101,010 samples, 0.07%)</title><rect x="847.8" y="309" width="0.8" height="15.0" fill="rgb(226,16,30)" rx="2" ry="2" />
<text  x="850.80" y="319.5" ></text>
</g>
<g >
<title>mmap64 (10,101,010 samples, 0.07%)</title><rect x="849.5" y="309" width="0.8" height="15.0" fill="rgb(221,47,36)" rx="2" ry="2" />
<text  x="852.49" y="319.5" ></text>
</g>
<g >
<title>sed (10,101,010 samples, 0.07%)</title><rect x="849.5" y="325" width="0.8" height="15.0" fill="rgb(225,39,0)" rx="2" ry="2" />
<text  x="852.49" y="335.5" ></text>
</g>
<g >
<title>[[kernel.kallsyms]] (10,101,010 samples, 0.07%)</title><rect x="42.9" y="197" width="0.8" height="15.0" fill="rgb(245,140,26)" rx="2" ry="2" />
<text  x="45.87" y="207.5" ></text>
</g>
<g >
<title>[[kernel.kallsyms]] (10,101,010 samples, 0.07%)</title><rect x="849.5" y="261" width="0.8" height="15.0" fill="rgb(241,51,45)" rx="2" ry="2" />
<text  x="852.49" y="271.5" ></text>
</g>
<g >
<title>[[kernel.kallsyms]] (10,101,010 samples, 0.07%)</title><rect x="848.6" y="197" width="0.9" height="15.0" fill="rgb(226,96,10)" rx="2" ry="2" />
<text  x="851.64" y="207.5" ></text>
</g>
<g >
<title>[unknown] (10,101,010 samples, 0.07%)</title><rect x="29.4" y="181" width="0.8" height="15.0" fill="rgb(235,98,6)" rx="2" ry="2" />
<text  x="32.39" y="191.5" ></text>
</g>
<g >
<title>[[kernel.kallsyms]] (2,020,202,000 samples, 14.29%)</title><rect x="1021.4" y="229" width="168.6" height="15.0" fill="rgb(221,15,27)" rx="2" ry="2" />
<text  x="1024.43" y="239.5" >[[kernel.kallsyms]]</text>
</g>
<g >
<title>[[kernel.kallsyms]] (10,101,010 samples, 0.07%)</title><rect x="593.3" y="277" width="0.8" height="15.0" fill="rgb(236,214,53)" rx="2" ry="2" />
<text  x="596.26" y="287.5" ></text>
</g>
<g >
<title>[[kernel.kallsyms]] (10,101,010 samples, 0.07%)</title><rect x="42.9" y="213" width="0.8" height="15.0" fill="rgb(214,188,31)" rx="2" ry="2" />
<text  x="45.87" y="223.5" ></text>
</g>
<g >
<title>[unknown] (10,101,010 samples, 0.07%)</title><rect x="29.4" y="85" width="0.8" height="15.0" fill="rgb(244,12,47)" rx="2" ry="2" />
<text  x="32.39" y="95.5" ></text>
</g>
<g >
<title>[[kernel.kallsyms]] (10,101,010 samples, 0.07%)</title><rect x="438.2" y="181" width="0.8" height="15.0" fill="rgb(205,208,43)" rx="2" ry="2" />
<text  x="441.17" y="191.5" ></text>
</g>
<g >
<title>[unknown] (10,101,010 samples, 0.07%)</title><rect x="10.8" y="309" width="0.9" height="15.0" fill="rgb(241,185,14)" rx="2" ry="2" />
<text  x="13.84" y="319.5" ></text>
</g>
<g >
<title>[[kernel.kallsyms]] (10,101,010 samples, 0.07%)</title><rect x="31.1" y="261" width="0.8" height="15.0" fill="rgb(239,117,39)" rx="2" ry="2" />
<text  x="34.07" y="271.5" ></text>
</g>
<g >
<title>[unknown] (20,202,020 samples, 0.14%)</title><rect x="29.4" y="213" width="1.7" height="15.0" fill="rgb(221,39,35)" rx="2" ry="2" />
<text  x="32.39" y="223.5" ></text>
</g>
</g>
</svg>
