<?xml version="1.0" standalone="no"?>
<!DOCTYPE svg PUBLIC "-//W3C//DTD SVG 1.1//EN" "http://www.w3.org/Graphics/SVG/1.1/DTD/svg11.dtd">
<svg version="1.1" width="1200" height="326" onload="init(evt)" viewBox="0 0 1200 326" xmlns="http://www.w3.org/2000/svg" xmlns:xlink="http://www.w3.org/1999/xlink">
<!-- Flame graph stack visualization. See https://github.com/brendangregg/FlameGraph for latest version, and http://www.brendangregg.com/flamegraphs.html for examples. -->
<!-- NOTES:  -->
<defs>
	<linearGradient id="background" y1="0" y2="1" x1="0" x2="0" >
		<stop stop-color="#eeeeee" offset="5%" />
		<stop stop-color="#eeeeb0" offset="95%" />
	</linearGradient>
</defs>
<style type="text/css">
	text { font-family:Verdana; font-size:12px; fill:rgb(0,0,0); }
	#search, #ignorecase { opacity:0.1; cursor:pointer; }
	#search:hover, #search.show, #ignorecase:hover, #ignorecase.show { opacity:1; }
	#subtitle { text-anchor:middle; font-color:rgb(160,160,160); }
	#title { text-anchor:middle; font-size:17px}
	#unzoom { cursor:pointer; }
	#frames > *:hover { stroke:black; stroke-width:0.5; cursor:pointer; }
	.hide { display:none; }
	.parent { opacity:0.5; }
</style>
<script type="text/ecmascript">
<![CDATA[
	"use strict";
	var details, searchbtn, unzoombtn, matchedtxt, svg, searching, currentSearchTerm, ignorecase, ignorecaseBtn;
	function init(evt) {
		details = document.getElementById("details").firstChild;
		searchbtn = document.getElementById("search");
		ignorecaseBtn = document.getElementById("ignorecase");
		unzoombtn = document.getElementById("unzoom");
		matchedtxt = document.getElementById("matched");
		svg = document.getElementsByTagName("svg")[0];
		searching = 0;
		currentSearchTerm = null;

		// use GET parameters to restore a flamegraphs state.
		var params = get_params();
		if (params.x && params.y)
			zoom(find_group(document.querySelector('[x="' + params.x + '"][y="' + params.y + '"]')));
                if (params.s) search(params.s);
	}

	// event listeners
	window.addEventListener("click", function(e) {
		var target = find_group(e.target);
		if (target) {
			if (target.nodeName == "a") {
				if (e.ctrlKey === false) return;
				e.preventDefault();
			}
			if (target.classList.contains("parent")) unzoom(true);
			zoom(target);
			if (!document.querySelector('.parent')) {
				// we have basically done a clearzoom so clear the url
				var params = get_params();
				if (params.x) delete params.x;
				if (params.y) delete params.y;
				history.replaceState(null, null, parse_params(params));
				unzoombtn.classList.add("hide");
				return;
			}

			// set parameters for zoom state
			var el = target.querySelector("rect");
			if (el && el.attributes && el.attributes.y && el.attributes._orig_x) {
				var params = get_params()
				params.x = el.attributes._orig_x.value;
				params.y = el.attributes.y.value;
				history.replaceState(null, null, parse_params(params));
			}
		}
		else if (e.target.id == "unzoom") clearzoom();
		else if (e.target.id == "search") search_prompt();
		else if (e.target.id == "ignorecase") toggle_ignorecase();
	}, false)

	// mouse-over for info
	// show
	window.addEventListener("mouseover", function(e) {
		var target = find_group(e.target);
		if (target) details.nodeValue = "Function: " + g_to_text(target);
	}, false)

	// clear
	window.addEventListener("mouseout", function(e) {
		var target = find_group(e.target);
		if (target) details.nodeValue = ' ';
	}, false)

	// ctrl-F for search
	// ctrl-I to toggle case-sensitive search
	window.addEventListener("keydown",function (e) {
		if (e.keyCode === 114 || (e.ctrlKey && e.keyCode === 70)) {
			e.preventDefault();
			search_prompt();
		}
		else if (e.ctrlKey && e.keyCode === 73) {
			e.preventDefault();
			toggle_ignorecase();
		}
	}, false)

	// functions
	function get_params() {
		var params = {};
		var paramsarr = window.location.search.substr(1).split('&');
		for (var i = 0; i < paramsarr.length; ++i) {
			var tmp = paramsarr[i].split("=");
			if (!tmp[0] || !tmp[1]) continue;
			params[tmp[0]]  = decodeURIComponent(tmp[1]);
		}
		return params;
	}
	function parse_params(params) {
		var uri = "?";
		for (var key in params) {
			uri += key + '=' + encodeURIComponent(params[key]) + '&';
		}
		if (uri.slice(-1) == "&")
			uri = uri.substring(0, uri.length - 1);
		if (uri == '?')
			uri = window.location.href.split('?')[0];
		return uri;
	}
	function find_child(node, selector) {
		var children = node.querySelectorAll(selector);
		if (children.length) return children[0];
	}
	function find_group(node) {
		var parent = node.parentElement;
		if (!parent) return;
		if (parent.id == "frames") return node;
		return find_group(parent);
	}
	function orig_save(e, attr, val) {
		if (e.attributes["_orig_" + attr] != undefined) return;
		if (e.attributes[attr] == undefined) return;
		if (val == undefined) val = e.attributes[attr].value;
		e.setAttribute("_orig_" + attr, val);
	}
	function orig_load(e, attr) {
		if (e.attributes["_orig_"+attr] == undefined) return;
		e.attributes[attr].value = e.attributes["_orig_" + attr].value;
		e.removeAttribute("_orig_"+attr);
	}
	function g_to_text(e) {
		var text = find_child(e, "title").firstChild.nodeValue;
		return (text)
	}
	function g_to_func(e) {
		var func = g_to_text(e);
		// if there's any manipulation we want to do to the function
		// name before it's searched, do it here before returning.
		return (func);
	}
	function update_text(e) {
		var r = find_child(e, "rect");
		var t = find_child(e, "text");
		var w = parseFloat(r.attributes.width.value) -3;
		var txt = find_child(e, "title").textContent.replace(/\([^(]*\)$/,"");
		t.attributes.x.value = parseFloat(r.attributes.x.value) + 3;

		// Smaller than this size won't fit anything
		if (w < 2 * 12 * 0.59) {
			t.textContent = "";
			return;
		}

		t.textContent = txt;
		var sl = t.getSubStringLength(0, txt.length);
		// check if only whitespace or if we can fit the entire string into width w
		if (/^ *$/.test(txt) || sl < w)
			return;

		// this isn't perfect, but gives a good starting point
		// and avoids calling getSubStringLength too often
		var start = Math.floor((w/sl) * txt.length);
		for (var x = start; x > 0; x = x-2) {
			if (t.getSubStringLength(0, x + 2) <= w) {
				t.textContent = txt.substring(0, x) + "..";
				return;
			}
		}
		t.textContent = "";
	}

	// zoom
	function zoom_reset(e) {
		if (e.attributes != undefined) {
			orig_load(e, "x");
			orig_load(e, "width");
		}
		if (e.childNodes == undefined) return;
		for (var i = 0, c = e.childNodes; i < c.length; i++) {
			zoom_reset(c[i]);
		}
	}
	function zoom_child(e, x, ratio) {
		if (e.attributes != undefined) {
			if (e.attributes.x != undefined) {
				orig_save(e, "x");
				e.attributes.x.value = (parseFloat(e.attributes.x.value) - x - 10) * ratio + 10;
				if (e.tagName == "text")
					e.attributes.x.value = find_child(e.parentNode, "rect[x]").attributes.x.value + 3;
			}
			if (e.attributes.width != undefined) {
				orig_save(e, "width");
				e.attributes.width.value = parseFloat(e.attributes.width.value) * ratio;
			}
		}

		if (e.childNodes == undefined) return;
		for (var i = 0, c = e.childNodes; i < c.length; i++) {
			zoom_child(c[i], x - 10, ratio);
		}
	}
	function zoom_parent(e) {
		if (e.attributes) {
			if (e.attributes.x != undefined) {
				orig_save(e, "x");
				e.attributes.x.value = 10;
			}
			if (e.attributes.width != undefined) {
				orig_save(e, "width");
				e.attributes.width.value = parseInt(svg.width.baseVal.value) - (10 * 2);
			}
		}
		if (e.childNodes == undefined) return;
		for (var i = 0, c = e.childNodes; i < c.length; i++) {
			zoom_parent(c[i]);
		}
	}
	function zoom(node) {
		var attr = find_child(node, "rect").attributes;
		var width = parseFloat(attr.width.value);
		var xmin = parseFloat(attr.x.value);
		var xmax = parseFloat(xmin + width);
		var ymin = parseFloat(attr.y.value);
		var ratio = (svg.width.baseVal.value - 2 * 10) / width;

		// XXX: Workaround for JavaScript float issues (fix me)
		var fudge = 0.0001;

		unzoombtn.classList.remove("hide");

		var el = document.getElementById("frames").children;
		for (var i = 0; i < el.length; i++) {
			var e = el[i];
			var a = find_child(e, "rect").attributes;
			var ex = parseFloat(a.x.value);
			var ew = parseFloat(a.width.value);
			var upstack;
			// Is it an ancestor
			if (0 == 0) {
				upstack = parseFloat(a.y.value) > ymin;
			} else {
				upstack = parseFloat(a.y.value) < ymin;
			}
			if (upstack) {
				// Direct ancestor
				if (ex <= xmin && (ex+ew+fudge) >= xmax) {
					e.classList.add("parent");
					zoom_parent(e);
					update_text(e);
				}
				// not in current path
				else
					e.classList.add("hide");
			}
			// Children maybe
			else {
				// no common path
				if (ex < xmin || ex + fudge >= xmax) {
					e.classList.add("hide");
				}
				else {
					zoom_child(e, xmin, ratio);
					update_text(e);
				}
			}
		}
		search();
	}
	function unzoom(dont_update_text) {
		unzoombtn.classList.add("hide");
		var el = document.getElementById("frames").children;
		for(var i = 0; i < el.length; i++) {
			el[i].classList.remove("parent");
			el[i].classList.remove("hide");
			zoom_reset(el[i]);
			if(!dont_update_text) update_text(el[i]);
		}
		search();
	}
	function clearzoom() {
		unzoom();

		// remove zoom state
		var params = get_params();
		if (params.x) delete params.x;
		if (params.y) delete params.y;
		history.replaceState(null, null, parse_params(params));
	}

	// search
	function toggle_ignorecase() {
		ignorecase = !ignorecase;
		if (ignorecase) {
			ignorecaseBtn.classList.add("show");
		} else {
			ignorecaseBtn.classList.remove("show");
		}
		reset_search();
		search();
	}
	function reset_search() {
		var el = document.querySelectorAll("#frames rect");
		for (var i = 0; i < el.length; i++) {
			orig_load(el[i], "fill")
		}
		var params = get_params();
		delete params.s;
		history.replaceState(null, null, parse_params(params));
	}
	function search_prompt() {
		if (!searching) {
			var term = prompt("Enter a search term (regexp " +
			    "allowed, eg: ^ext4_)"
			    + (ignorecase ? ", ignoring case" : "")
			    + "\nPress Ctrl-i to toggle case sensitivity", "");
			if (term != null) search(term);
		} else {
			reset_search();
			searching = 0;
			currentSearchTerm = null;
			searchbtn.classList.remove("show");
			searchbtn.firstChild.nodeValue = "Search"
			matchedtxt.classList.add("hide");
			matchedtxt.firstChild.nodeValue = ""
		}
	}
	function search(term) {
		if (term) currentSearchTerm = term;

		var re = new RegExp(currentSearchTerm, ignorecase ? 'i' : '');
		var el = document.getElementById("frames").children;
		var matches = new Object();
		var maxwidth = 0;
		for (var i = 0; i < el.length; i++) {
			var e = el[i];
			var func = g_to_func(e);
			var rect = find_child(e, "rect");
			if (func == null || rect == null)
				continue;

			// Save max width. Only works as we have a root frame
			var w = parseFloat(rect.attributes.width.value);
			if (w > maxwidth)
				maxwidth = w;

			if (func.match(re)) {
				// highlight
				var x = parseFloat(rect.attributes.x.value);
				orig_save(rect, "fill");
				rect.attributes.fill.value = "rgb(230,0,230)";

				// remember matches
				if (matches[x] == undefined) {
					matches[x] = w;
				} else {
					if (w > matches[x]) {
						// overwrite with parent
						matches[x] = w;
					}
				}
				searching = 1;
			}
		}
		if (!searching)
			return;
		var params = get_params();
		params.s = currentSearchTerm;
		history.replaceState(null, null, parse_params(params));

		searchbtn.classList.add("show");
		searchbtn.firstChild.nodeValue = "Reset Search";

		// calculate percent matched, excluding vertical overlap
		var count = 0;
		var lastx = -1;
		var lastw = 0;
		var keys = Array();
		for (k in matches) {
			if (matches.hasOwnProperty(k))
				keys.push(k);
		}
		// sort the matched frames by their x location
		// ascending, then width descending
		keys.sort(function(a, b){
			return a - b;
		});
		// Step through frames saving only the biggest bottom-up frames
		// thanks to the sort order. This relies on the tree property
		// where children are always smaller than their parents.
		var fudge = 0.0001;	// JavaScript floating point
		for (var k in keys) {
			var x = parseFloat(keys[k]);
			var w = matches[keys[k]];
			if (x >= lastx + lastw - fudge) {
				count += w;
				lastx = x;
				lastw = w;
			}
		}
		// display matched percent
		matchedtxt.classList.remove("hide");
		var pct = 100 * count / maxwidth;
		if (pct != 100) pct = pct.toFixed(1)
		matchedtxt.firstChild.nodeValue = "Matched: " + pct + "%";
	}
]]>
</script>
<rect x="0.0" y="0" width="1200.0" height="326.0" fill="url(#background)"  />
<text id="title" x="600.00" y="24" >Flame Graph</text>
<text id="details" x="10.00" y="309" > </text>
<text id="unzoom" x="10.00" y="24" class="hide">Reset Zoom</text>
<text id="search" x="1090.00" y="24" >Search</text>
<text id="ignorecase" x="1174.00" y="24" >ic</text>
<text id="matched" x="1090.00" y="309" > </text>
<g id="frames">
<g >
<title>[[kernel.kallsyms]] (10,101,010 samples, 0.07%)</title><rect x="206.1" y="165" width="0.8" height="15.0" fill="rgb(212,181,42)" rx="2" ry="2" />
<text  x="209.11" y="175.5" ></text>
</g>
<g >
<title>[[kernel.kallsyms]] (10,101,010 samples, 0.07%)</title><rect x="847.2" y="213" width="0.9" height="15.0" fill="rgb(240,125,46)" rx="2" ry="2" />
<text  x="850.23" y="223.5" ></text>
</g>
<g >
<title>[[kernel.kallsyms]] (10,101,010 samples, 0.07%)</title><rect x="327.6" y="117" width="0.9" height="15.0" fill="rgb(213,152,11)" rx="2" ry="2" />
<text  x="330.63" y="127.5" ></text>
</g>
<g >
<title>bench.sh (10,101,010 samples, 0.07%)</title><rect x="10.0" y="261" width="0.8" height="15.0" fill="rgb(248,117,33)" rx="2" ry="2" />
<text  x="13.00" y="271.5" ></text>
</g>
<g >
<title>[[kernel.kallsyms]] (2,060,606,040 samples, 14.49%)</title><rect x="1019.0" y="85" width="171.0" height="15.0" fill="rgb(239,147,6)" rx="2" ry="2" />
<text  x="1022.03" y="95.5" >[[kernel.kallsyms]]</text>
</g>
<g >
<title>[[kernel.kallsyms]] (10,101,010 samples, 0.07%)</title><rect x="846.4" y="213" width="0.8" height="15.0" fill="rgb(245,17,19)" rx="2" ry="2" />
<text  x="849.39" y="223.5" ></text>
</g>
<g >
<title>[[kernel.kallsyms]] (10,101,010 samples, 0.07%)</title><rect x="327.6" y="149" width="0.9" height="15.0" fill="rgb(209,129,54)" rx="2" ry="2" />
<text  x="330.63" y="159.5" ></text>
</g>
<g >
<title>[unknown] (2,060,606,040 samples, 14.49%)</title><rect x="1019.0" y="213" width="171.0" height="15.0" fill="rgb(250,170,51)" rx="2" ry="2" />
<text  x="1022.03" y="223.5" >[unknown]</text>
</g>
<g >
<title>[unknown] (10,101,010 samples, 0.07%)</title><rect x="845.6" y="245" width="0.8" height="15.0" fill="rgb(248,161,6)" rx="2" ry="2" />
<text  x="848.55" y="255.5" ></text>
</g>
<g >
<title>[[kernel.kallsyms]] (10,101,010 samples, 0.07%)</title><rect x="11.7" y="197" width="0.8" height="15.0" fill="rgb(253,24,33)" rx="2" ry="2" />
<text  x="14.68" y="207.5" ></text>
</g>
<g >
<title>[[kernel.kallsyms]] (10,101,010 samples, 0.07%)</title><rect x="327.6" y="197" width="0.9" height="15.0" fill="rgb(213,177,7)" rx="2" ry="2" />
<text  x="330.63" y="207.5" ></text>
</g>
<g >
<title>[unknown] (1,838,383,820 samples, 12.93%)</title><rect x="51.1" y="245" width="152.5" height="15.0" fill="rgb(223,121,4)" rx="2" ry="2" />
<text  x="54.07" y="255.5" >[unknown]</text>
</g>
<g >
<title>[[kernel.kallsyms]] (10,101,010 samples, 0.07%)</title><rect x="845.6" y="197" width="0.8" height="15.0" fill="rgb(234,101,13)" rx="2" ry="2" />
<text  x="848.55" y="207.5" ></text>
</g>
<g >
<title>[[kernel.kallsyms]] (10,101,010 samples, 0.07%)</title><rect x="846.4" y="133" width="0.8" height="15.0" fill="rgb(221,175,13)" rx="2" ry="2" />
<text  x="849.39" y="143.5" ></text>
</g>
<g >
<title>[[kernel.kallsyms]] (10,101,010 samples, 0.07%)</title><rect x="11.7" y="85" width="0.8" height="15.0" fill="rgb(252,39,5)" rx="2" ry="2" />
<text  x="14.68" y="95.5" ></text>
</g>
<g >
<title>pthread_create@@GLIBC_2.2.5 (10,101,010 samples, 0.07%)</title><rect x="186.0" y="213" width="0.8" height="15.0" fill="rgb(239,3,8)" rx="2" ry="2" />
<text  x="188.99" y="223.5" ></text>
</g>
<g >
<title>[[kernel.kallsyms]] (10,101,010 samples, 0.07%)</title><rect x="13.4" y="165" width="0.8" height="15.0" fill="rgb(215,27,53)" rx="2" ry="2" />
<text  x="16.35" y="175.5" ></text>
</g>
<g >
<title>[bash] (10,101,010 samples, 0.07%)</title><rect x="10.0" y="245" width="0.8" height="15.0" fill="rgb(236,83,10)" rx="2" ry="2" />
<text  x="13.00" y="255.5" ></text>
</g>
<g >
<title>[[kernel.kallsyms]] (10,101,010 samples, 0.07%)</title><rect x="13.4" y="181" width="0.8" height="15.0" fill="rgb(225,0,2)" rx="2" ry="2" />
<text  x="16.35" y="191.5" ></text>
</g>
<g >
<title>[[kernel.kallsyms]] (10,101,010 samples, 0.07%)</title><rect x="13.4" y="85" width="0.8" height="15.0" fill="rgb(208,66,43)" rx="2" ry="2" />
<text  x="16.35" y="95.5" ></text>
</g>
<g >
<title>[[kernel.kallsyms]] (10,101,010 samples, 0.07%)</title><rect x="327.6" y="229" width="0.9" height="15.0" fill="rgb(253,40,7)" rx="2" ry="2" />
<text  x="330.63" y="239.5" ></text>
</g>
<g >
<title>[[kernel.kallsyms]] (20,202,020 samples, 0.14%)</title><rect x="838.0" y="69" width="1.7" height="15.0" fill="rgb(245,83,18)" rx="2" ry="2" />
<text  x="841.01" y="79.5" ></text>
</g>
<g >
<title>[[kernel.kallsyms]] (10,101,010 samples, 0.07%)</title><rect x="845.6" y="85" width="0.8" height="15.0" fill="rgb(212,152,50)" rx="2" ry="2" />
<text  x="848.55" y="95.5" ></text>
</g>
<g >
<title>[[kernel.kallsyms]] (10,101,010 samples, 0.07%)</title><rect x="13.4" y="117" width="0.8" height="15.0" fill="rgb(254,173,33)" rx="2" ry="2" />
<text  x="16.35" y="127.5" ></text>
</g>
<g >
<title>[[kernel.kallsyms]] (10,101,010 samples, 0.07%)</title><rect x="12.5" y="229" width="0.9" height="15.0" fill="rgb(216,14,40)" rx="2" ry="2" />
<text  x="15.51" y="239.5" ></text>
</g>
<g >
<title>[[kernel.kallsyms]] (10,101,010 samples, 0.07%)</title><rect x="11.7" y="117" width="0.8" height="15.0" fill="rgb(211,86,3)" rx="2" ry="2" />
<text  x="14.68" y="127.5" ></text>
</g>
<g >
<title>[[kernel.kallsyms]] (10,101,010 samples, 0.07%)</title><rect x="206.1" y="117" width="0.8" height="15.0" fill="rgb(225,59,48)" rx="2" ry="2" />
<text  x="209.11" y="127.5" ></text>
</g>
<g >
<title>[[kernel.kallsyms]] (10,101,010 samples, 0.07%)</title><rect x="13.4" y="133" width="0.8" height="15.0" fill="rgb(212,168,36)" rx="2" ry="2" />
<text  x="16.35" y="143.5" ></text>
</g>
<g >
<title>[[kernel.kallsyms]] (10,101,010 samples, 0.07%)</title><rect x="11.7" y="149" width="0.8" height="15.0" fill="rgb(254,184,13)" rx="2" ry="2" />
<text  x="14.68" y="159.5" ></text>
</g>
<g >
<title>[[kernel.kallsyms]] (10,101,010 samples, 0.07%)</title><rect x="845.6" y="133" width="0.8" height="15.0" fill="rgb(208,23,36)" rx="2" ry="2" />
<text  x="848.55" y="143.5" ></text>
</g>
<g >
<title>[[kernel.kallsyms]] (10,101,010 samples, 0.07%)</title><rect x="790.2" y="181" width="0.9" height="15.0" fill="rgb(243,8,19)" rx="2" ry="2" />
<text  x="793.24" y="191.5" ></text>
</g>
<g >
<title>[[kernel.kallsyms]] (10,101,010 samples, 0.07%)</title><rect x="13.4" y="37" width="0.8" height="15.0" fill="rgb(210,83,21)" rx="2" ry="2" />
<text  x="16.35" y="47.5" ></text>
</g>
<g >
<title>[[kernel.kallsyms]] (10,101,010 samples, 0.07%)</title><rect x="13.4" y="149" width="0.8" height="15.0" fill="rgb(252,135,33)" rx="2" ry="2" />
<text  x="16.35" y="159.5" ></text>
</g>
<g >
<title>[[kernel.kallsyms]] (10,101,010 samples, 0.07%)</title><rect x="10.0" y="197" width="0.8" height="15.0" fill="rgb(246,219,8)" rx="2" ry="2" />
<text  x="13.00" y="207.5" ></text>
</g>
<g >
<title>[[kernel.kallsyms]] (30,303,030 samples, 0.21%)</title><rect x="837.2" y="149" width="2.5" height="15.0" fill="rgb(217,91,49)" rx="2" ry="2" />
<text  x="840.17" y="159.5" ></text>
</g>
<g >
<title>[[kernel.kallsyms]] (10,101,010 samples, 0.07%)</title><rect x="12.5" y="181" width="0.9" height="15.0" fill="rgb(246,9,17)" rx="2" ry="2" />
<text  x="15.51" y="191.5" ></text>
</g>
<g >
<title>[[kernel.kallsyms]] (10,101,010 samples, 0.07%)</title><rect x="11.7" y="181" width="0.8" height="15.0" fill="rgb(220,186,34)" rx="2" ry="2" />
<text  x="14.68" y="191.5" ></text>
</g>
<g >
<title>malloc (1,565,656,550 samples, 11.01%)</title><rect x="661.2" y="245" width="129.9" height="15.0" fill="rgb(245,87,53)" rx="2" ry="2" />
<text  x="664.18" y="255.5" >malloc</text>
</g>
<g >
<title>[[kernel.kallsyms]] (10,101,010 samples, 0.07%)</title><rect x="13.4" y="245" width="0.8" height="15.0" fill="rgb(209,74,26)" rx="2" ry="2" />
<text  x="16.35" y="255.5" ></text>
</g>
<g >
<title>[[kernel.kallsyms]] (10,101,010 samples, 0.07%)</title><rect x="206.1" y="149" width="0.8" height="15.0" fill="rgb(243,163,24)" rx="2" ry="2" />
<text  x="209.11" y="159.5" ></text>
</g>
<g >
<title>[[kernel.kallsyms]] (2,060,606,040 samples, 14.49%)</title><rect x="1019.0" y="117" width="171.0" height="15.0" fill="rgb(207,95,53)" rx="2" ry="2" />
<text  x="1022.03" y="127.5" >[[kernel.kallsyms]]</text>
</g>
<g >
<title>[[kernel.kallsyms]] (10,101,010 samples, 0.07%)</title><rect x="13.4" y="229" width="0.8" height="15.0" fill="rgb(236,213,39)" rx="2" ry="2" />
<text  x="16.35" y="239.5" ></text>
</g>
<g >
<title>[[kernel.kallsyms]] (10,101,010 samples, 0.07%)</title><rect x="10.0" y="229" width="0.8" height="15.0" fill="rgb(228,69,32)" rx="2" ry="2" />
<text  x="13.00" y="239.5" ></text>
</g>
<g >
<title>[unknown] (10,101,010 samples, 0.07%)</title><rect x="11.7" y="245" width="0.8" height="15.0" fill="rgb(216,229,2)" rx="2" ry="2" />
<text  x="14.68" y="255.5" ></text>
</g>
<g >
<title>_int_malloc (989,898,980 samples, 6.96%)</title><rect x="246.3" y="245" width="82.2" height="15.0" fill="rgb(209,166,33)" rx="2" ry="2" />
<text  x="249.34" y="255.5" >_int_malloc</text>
</g>
<g >
<title>[[kernel.kallsyms]] (10,101,010 samples, 0.07%)</title><rect x="790.2" y="213" width="0.9" height="15.0" fill="rgb(226,92,37)" rx="2" ry="2" />
<text  x="793.24" y="223.5" ></text>
</g>
<g >
<title>[[kernel.kallsyms]] (10,101,010 samples, 0.07%)</title><rect x="11.7" y="213" width="0.8" height="15.0" fill="rgb(212,117,35)" rx="2" ry="2" />
<text  x="14.68" y="223.5" ></text>
</g>
<g >
<title>[[kernel.kallsyms]] (10,101,010 samples, 0.07%)</title><rect x="206.1" y="133" width="0.8" height="15.0" fill="rgb(250,114,26)" rx="2" ry="2" />
<text  x="209.11" y="143.5" ></text>
</g>
<g >
<title>_int_free (464,646,460 samples, 3.27%)</title><rect x="207.8" y="245" width="38.5" height="15.0" fill="rgb(227,173,50)" rx="2" ry="2" />
<text  x="210.78" y="255.5" >_in..</text>
</g>
<g >
<title>[[kernel.kallsyms]] (10,101,010 samples, 0.07%)</title><rect x="790.2" y="165" width="0.9" height="15.0" fill="rgb(206,85,54)" rx="2" ry="2" />
<text  x="793.24" y="175.5" ></text>
</g>
<g >
<title>malloc_consolidate (10,101,010 samples, 0.07%)</title><rect x="791.1" y="245" width="0.8" height="15.0" fill="rgb(216,35,47)" rx="2" ry="2" />
<text  x="794.08" y="255.5" ></text>
</g>
<g >
<title>_exit (10,101,010 samples, 0.07%)</title><rect x="847.2" y="245" width="0.9" height="15.0" fill="rgb(228,194,22)" rx="2" ry="2" />
<text  x="850.23" y="255.5" ></text>
</g>
<g >
<title>rm (10,101,010 samples, 0.07%)</title><rect x="847.2" y="261" width="0.9" height="15.0" fill="rgb(221,86,35)" rx="2" ry="2" />
<text  x="850.23" y="271.5" ></text>
</g>
<g >
<title>[[kernel.kallsyms]] (10,101,010 samples, 0.07%)</title><rect x="465.1" y="197" width="0.8" height="15.0" fill="rgb(222,210,33)" rx="2" ry="2" />
<text  x="468.07" y="207.5" ></text>
</g>
<g >
<title>[[kernel.kallsyms]] (10,101,010 samples, 0.07%)</title><rect x="186.0" y="181" width="0.8" height="15.0" fill="rgb(221,137,30)" rx="2" ry="2" />
<text  x="188.99" y="191.5" ></text>
</g>
<g >
<title>[[kernel.kallsyms]] (50,505,050 samples, 0.36%)</title><rect x="835.5" y="229" width="4.2" height="15.0" fill="rgb(209,5,41)" rx="2" ry="2" />
<text  x="838.50" y="239.5" ></text>
</g>
<g >
<title>[[kernel.kallsyms]] (10,101,010 samples, 0.07%)</title><rect x="846.4" y="181" width="0.8" height="15.0" fill="rgb(236,221,10)" rx="2" ry="2" />
<text  x="849.39" y="191.5" ></text>
</g>
<g >
<title>[larson-sized] (20,202,020 samples, 0.14%)</title><rect x="14.2" y="245" width="1.7" height="15.0" fill="rgb(223,153,54)" rx="2" ry="2" />
<text  x="17.19" y="255.5" ></text>
</g>
<g >
<title>[[kernel.kallsyms]] (10,101,010 samples, 0.07%)</title><rect x="845.6" y="117" width="0.8" height="15.0" fill="rgb(224,42,36)" rx="2" ry="2" />
<text  x="848.55" y="127.5" ></text>
</g>
<g >
<title>[[kernel.kallsyms]] (10,101,010 samples, 0.07%)</title><rect x="206.1" y="181" width="0.8" height="15.0" fill="rgb(222,54,43)" rx="2" ry="2" />
<text  x="209.11" y="191.5" ></text>
</g>
<g >
<title>[[kernel.kallsyms]] (10,101,010 samples, 0.07%)</title><rect x="12.5" y="149" width="0.9" height="15.0" fill="rgb(240,120,12)" rx="2" ry="2" />
<text  x="15.51" y="159.5" ></text>
</g>
<g >
<title>[[kernel.kallsyms]] (2,060,606,040 samples, 14.49%)</title><rect x="848.1" y="213" width="170.9" height="15.0" fill="rgb(209,139,8)" rx="2" ry="2" />
<text  x="851.07" y="223.5" >[[kernel.kallsyms]]</text>
</g>
<g >
<title>[[kernel.kallsyms]] (10,101,010 samples, 0.07%)</title><rect x="465.1" y="149" width="0.8" height="15.0" fill="rgb(248,114,28)" rx="2" ry="2" />
<text  x="468.07" y="159.5" ></text>
</g>
<g >
<title>[[kernel.kallsyms]] (10,101,010 samples, 0.07%)</title><rect x="11.7" y="101" width="0.8" height="15.0" fill="rgb(250,60,7)" rx="2" ry="2" />
<text  x="14.68" y="111.5" ></text>
</g>
<g >
<title>[[kernel.kallsyms]] (20,202,020 samples, 0.14%)</title><rect x="838.0" y="117" width="1.7" height="15.0" fill="rgb(218,102,17)" rx="2" ry="2" />
<text  x="841.01" y="127.5" ></text>
</g>
<g >
<title>[[kernel.kallsyms]] (10,101,010 samples, 0.07%)</title><rect x="12.5" y="165" width="0.9" height="15.0" fill="rgb(211,14,42)" rx="2" ry="2" />
<text  x="15.51" y="175.5" ></text>
</g>
<g >
<title>operator delete (60,606,060 samples, 0.43%)</title><rect x="791.9" y="245" width="5.0" height="15.0" fill="rgb(222,127,42)" rx="2" ry="2" />
<text  x="794.92" y="255.5" ></text>
</g>
<g >
<title>[[kernel.kallsyms]] (2,060,606,040 samples, 14.49%)</title><rect x="1019.0" y="101" width="171.0" height="15.0" fill="rgb(218,191,3)" rx="2" ry="2" />
<text  x="1022.03" y="111.5" >[[kernel.kallsyms]]</text>
</g>
<g >
<title>[[kernel.kallsyms]] (10,101,010 samples, 0.07%)</title><rect x="845.6" y="101" width="0.8" height="15.0" fill="rgb(249,157,26)" rx="2" ry="2" />
<text  x="848.55" y="111.5" ></text>
</g>
<g >
<title>_int_free (1,616,161,600 samples, 11.36%)</title><rect x="51.1" y="229" width="134.1" height="15.0" fill="rgb(213,144,43)" rx="2" ry="2" />
<text  x="54.07" y="239.5" >_int_free</text>
</g>
<g >
<title>[[kernel.kallsyms]] (10,101,010 samples, 0.07%)</title><rect x="790.2" y="133" width="0.9" height="15.0" fill="rgb(232,93,29)" rx="2" ry="2" />
<text  x="793.24" y="143.5" ></text>
</g>
<g >
<title>[[kernel.kallsyms]] (20,202,020 samples, 0.14%)</title><rect x="838.0" y="85" width="1.7" height="15.0" fill="rgb(240,198,47)" rx="2" ry="2" />
<text  x="841.01" y="95.5" ></text>
</g>
<g >
<title>[[kernel.kallsyms]] (10,101,010 samples, 0.07%)</title><rect x="465.1" y="117" width="0.8" height="15.0" fill="rgb(250,59,0)" rx="2" ry="2" />
<text  x="468.07" y="127.5" ></text>
</g>
<g >
<title>[[kernel.kallsyms]] (10,101,010 samples, 0.07%)</title><rect x="846.4" y="149" width="0.8" height="15.0" fill="rgb(209,97,50)" rx="2" ry="2" />
<text  x="849.39" y="159.5" ></text>
</g>
<g >
<title>_int_malloc (10,101,010 samples, 0.07%)</title><rect x="10.8" y="245" width="0.9" height="15.0" fill="rgb(217,170,13)" rx="2" ry="2" />
<text  x="13.84" y="255.5" ></text>
</g>
<g >
<title>[[kernel.kallsyms]] (2,060,606,040 samples, 14.49%)</title><rect x="1019.0" y="149" width="171.0" height="15.0" fill="rgb(219,61,20)" rx="2" ry="2" />
<text  x="1022.03" y="159.5" >[[kernel.kallsyms]]</text>
</g>
<g >
<title>[[kernel.kallsyms]] (10,101,010 samples, 0.07%)</title><rect x="186.0" y="197" width="0.8" height="15.0" fill="rgb(205,11,44)" rx="2" ry="2" />
<text  x="188.99" y="207.5" ></text>
</g>
<g >
<title>[[kernel.kallsyms]] (10,101,010 samples, 0.07%)</title><rect x="327.6" y="213" width="0.9" height="15.0" fill="rgb(250,135,33)" rx="2" ry="2" />
<text  x="330.63" y="223.5" ></text>
</g>
<g >
<title>[[kernel.kallsyms]] (2,060,606,040 samples, 14.49%)</title><rect x="848.1" y="181" width="170.9" height="15.0" fill="rgb(238,74,15)" rx="2" ry="2" />
<text  x="851.07" y="191.5" >[[kernel.kallsyms]]</text>
</g>
<g >
<title>[[kernel.kallsyms]] (4,121,212,080 samples, 28.98%)</title><rect x="848.1" y="245" width="341.9" height="15.0" fill="rgb(233,56,25)" rx="2" ry="2" />
<text  x="851.07" y="255.5" >[[kernel.kallsyms]]</text>
</g>
<g >
<title>[unknown] (2,060,606,040 samples, 14.49%)</title><rect x="1019.0" y="229" width="171.0" height="15.0" fill="rgb(245,31,29)" rx="2" ry="2" />
<text  x="1022.03" y="239.5" >[unknown]</text>
</g>
<g >
<title>[[kernel.kallsyms]] (10,101,010 samples, 0.07%)</title><rect x="11.7" y="69" width="0.8" height="15.0" fill="rgb(208,202,8)" rx="2" ry="2" />
<text  x="14.68" y="79.5" ></text>
</g>
<g >
<title>[[kernel.kallsyms]] (10,101,010 samples, 0.07%)</title><rect x="790.2" y="229" width="0.9" height="15.0" fill="rgb(224,83,18)" rx="2" ry="2" />
<text  x="793.24" y="239.5" ></text>
</g>
<g >
<title>[[kernel.kallsyms]] (10,101,010 samples, 0.07%)</title><rect x="327.6" y="133" width="0.9" height="15.0" fill="rgb(214,222,52)" rx="2" ry="2" />
<text  x="330.63" y="143.5" ></text>
</g>
<g >
<title>all (14,222,222,080 samples, 100%)</title><rect x="10.0" y="277" width="1180.0" height="15.0" fill="rgb(243,11,54)" rx="2" ry="2" />
<text  x="13.00" y="287.5" ></text>
</g>
<g >
<title>larson-sized (10,030,302,930 samples, 70.53%)</title><rect x="13.4" y="261" width="832.2" height="15.0" fill="rgb(231,43,44)" rx="2" ry="2" />
<text  x="16.35" y="271.5" >larson-sized</text>
</g>
<g >
<title>[[kernel.kallsyms]] (2,060,606,040 samples, 14.49%)</title><rect x="1019.0" y="133" width="171.0" height="15.0" fill="rgb(212,74,32)" rx="2" ry="2" />
<text  x="1022.03" y="143.5" >[[kernel.kallsyms]]</text>
</g>
<g >
<title>[[kernel.kallsyms]] (10,101,010 samples, 0.07%)</title><rect x="465.1" y="229" width="0.8" height="15.0" fill="rgb(238,81,50)" rx="2" ry="2" />
<text  x="468.07" y="239.5" ></text>
</g>
<g >
<title>[[kernel.kallsyms]] (10,101,010 samples, 0.07%)</title><rect x="10.0" y="181" width="0.8" height="15.0" fill="rgb(214,22,35)" rx="2" ry="2" />
<text  x="13.00" y="191.5" ></text>
</g>
<g >
<title>[[kernel.kallsyms]] (10,101,010 samples, 0.07%)</title><rect x="847.2" y="229" width="0.9" height="15.0" fill="rgb(243,51,47)" rx="2" ry="2" />
<text  x="850.23" y="239.5" ></text>
</g>
<g >
<title>[[kernel.kallsyms]] (2,060,606,040 samples, 14.49%)</title><rect x="848.1" y="149" width="170.9" height="15.0" fill="rgb(252,206,43)" rx="2" ry="2" />
<text  x="851.07" y="159.5" >[[kernel.kallsyms]]</text>
</g>
<g >
<title>exercise_heap (2,353,535,330 samples, 16.55%)</title><rect x="465.9" y="245" width="195.3" height="15.0" fill="rgb(243,12,22)" rx="2" ry="2" />
<text  x="468.91" y="255.5" >exercise_heap</text>
</g>
<g >
<title>[[kernel.kallsyms]] (10,101,010 samples, 0.07%)</title><rect x="11.7" y="133" width="0.8" height="15.0" fill="rgb(229,141,49)" rx="2" ry="2" />
<text  x="14.68" y="143.5" ></text>
</g>
<g >
<title>[[kernel.kallsyms]] (50,505,050 samples, 0.36%)</title><rect x="835.5" y="197" width="4.2" height="15.0" fill="rgb(243,219,23)" rx="2" ry="2" />
<text  x="838.50" y="207.5" ></text>
</g>
<g >
<title>read (10,101,010 samples, 0.07%)</title><rect x="11.7" y="229" width="0.8" height="15.0" fill="rgb(244,220,14)" rx="2" ry="2" />
<text  x="14.68" y="239.5" ></text>
</g>
<g >
<title>[[kernel.kallsyms]] (10,101,010 samples, 0.07%)</title><rect x="845.6" y="181" width="0.8" height="15.0" fill="rgb(239,219,8)" rx="2" ry="2" />
<text  x="848.55" y="191.5" ></text>
</g>
<g >
<title>[[kernel.kallsyms]] (10,101,010 samples, 0.07%)</title><rect x="13.4" y="69" width="0.8" height="15.0" fill="rgb(230,95,6)" rx="2" ry="2" />
<text  x="16.35" y="79.5" ></text>
</g>
<g >
<title>[[kernel.kallsyms]] (10,101,010 samples, 0.07%)</title><rect x="790.2" y="197" width="0.9" height="15.0" fill="rgb(235,56,27)" rx="2" ry="2" />
<text  x="793.24" y="207.5" ></text>
</g>
<g >
<title>[unknown] (2,060,606,040 samples, 14.49%)</title><rect x="1019.0" y="197" width="171.0" height="15.0" fill="rgb(253,63,24)" rx="2" ry="2" />
<text  x="1022.03" y="207.5" >[unknown]</text>
</g>
<g >
<title>[[kernel.kallsyms]] (10,101,010 samples, 0.07%)</title><rect x="845.6" y="165" width="0.8" height="15.0" fill="rgb(231,35,37)" rx="2" ry="2" />
<text  x="848.55" y="175.5" ></text>
</g>
<g >
<title>[[kernel.kallsyms]] (10,101,010 samples, 0.07%)</title><rect x="186.0" y="165" width="0.8" height="15.0" fill="rgb(239,74,4)" rx="2" ry="2" />
<text  x="188.99" y="175.5" ></text>
</g>
<g >
<title>[[kernel.kallsyms]] (10,101,010 samples, 0.07%)</title><rect x="327.6" y="165" width="0.9" height="15.0" fill="rgb(220,130,38)" rx="2" ry="2" />
<text  x="330.63" y="175.5" ></text>
</g>
<g >
<title>__mprotect (40,404,040 samples, 0.28%)</title><rect x="203.6" y="245" width="3.3" height="15.0" fill="rgb(251,56,46)" rx="2" ry="2" />
<text  x="206.59" y="255.5" ></text>
</g>
<g >
<title>[[kernel.kallsyms]] (10,101,010 samples, 0.07%)</title><rect x="845.6" y="213" width="0.8" height="15.0" fill="rgb(248,74,6)" rx="2" ry="2" />
<text  x="848.55" y="223.5" ></text>
</g>
<g >
<title>[[kernel.kallsyms]] (10,101,010 samples, 0.07%)</title><rect x="845.6" y="149" width="0.8" height="15.0" fill="rgb(232,179,46)" rx="2" ry="2" />
<text  x="848.55" y="159.5" ></text>
</g>
<g >
<title>[[kernel.kallsyms]] (2,060,606,040 samples, 14.49%)</title><rect x="848.1" y="165" width="170.9" height="15.0" fill="rgb(235,72,15)" rx="2" ry="2" />
<text  x="851.07" y="175.5" >[[kernel.kallsyms]]</text>
</g>
<g >
<title>[[kernel.kallsyms]] (10,101,010 samples, 0.07%)</title><rect x="12.5" y="213" width="0.9" height="15.0" fill="rgb(241,193,7)" rx="2" ry="2" />
<text  x="15.51" y="223.5" ></text>
</g>
<g >
<title>[[kernel.kallsyms]] (10,101,010 samples, 0.07%)</title><rect x="186.0" y="133" width="0.8" height="15.0" fill="rgb(251,42,42)" rx="2" ry="2" />
<text  x="188.99" y="143.5" ></text>
</g>
<g >
<title>[[kernel.kallsyms]] (40,404,040 samples, 0.28%)</title><rect x="836.3" y="181" width="3.4" height="15.0" fill="rgb(254,111,1)" rx="2" ry="2" />
<text  x="839.34" y="191.5" ></text>
</g>
<g >
<title>[[kernel.kallsyms]] (10,101,010 samples, 0.07%)</title><rect x="846.4" y="245" width="0.8" height="15.0" fill="rgb(238,119,34)" rx="2" ry="2" />
<text  x="849.39" y="255.5" ></text>
</g>
<g >
<title>operator new (242,424,240 samples, 1.70%)</title><rect x="809.5" y="245" width="20.1" height="15.0" fill="rgb(227,96,6)" rx="2" ry="2" />
<text  x="812.52" y="255.5" ></text>
</g>
<g >
<title>python3 (10,101,010 samples, 0.07%)</title><rect x="845.6" y="261" width="0.8" height="15.0" fill="rgb(223,62,30)" rx="2" ry="2" />
<text  x="848.55" y="271.5" ></text>
</g>
<g >
<title>[[kernel.kallsyms]] (10,101,010 samples, 0.07%)</title><rect x="10.0" y="213" width="0.8" height="15.0" fill="rgb(206,82,54)" rx="2" ry="2" />
<text  x="13.00" y="223.5" ></text>
</g>
<g >
<title>[[kernel.kallsyms]] (10,101,010 samples, 0.07%)</title><rect x="13.4" y="53" width="0.8" height="15.0" fill="rgb(225,61,51)" rx="2" ry="2" />
<text  x="16.35" y="63.5" ></text>
</g>
<g >
<title>[[kernel.kallsyms]] (10,101,010 samples, 0.07%)</title><rect x="11.7" y="53" width="0.8" height="15.0" fill="rgb(232,122,50)" rx="2" ry="2" />
<text  x="14.68" y="63.5" ></text>
</g>
<g >
<title>[[kernel.kallsyms]] (10,101,010 samples, 0.07%)</title><rect x="465.1" y="133" width="0.8" height="15.0" fill="rgb(240,142,45)" rx="2" ry="2" />
<text  x="468.07" y="143.5" ></text>
</g>
<g >
<title>rcu_sched (10,101,010 samples, 0.07%)</title><rect x="846.4" y="261" width="0.8" height="15.0" fill="rgb(207,201,16)" rx="2" ry="2" />
<text  x="849.39" y="271.5" ></text>
</g>
<g >
<title>[[kernel.kallsyms]] (2,060,606,040 samples, 14.49%)</title><rect x="848.1" y="197" width="170.9" height="15.0" fill="rgb(207,65,40)" rx="2" ry="2" />
<text  x="851.07" y="207.5" >[[kernel.kallsyms]]</text>
</g>
<g >
<title>[[kernel.kallsyms]] (10,101,010 samples, 0.07%)</title><rect x="790.2" y="149" width="0.9" height="15.0" fill="rgb(234,80,51)" rx="2" ry="2" />
<text  x="793.24" y="159.5" ></text>
</g>
<g >
<title>kworker/0:0-mm_ (10,101,010 samples, 0.07%)</title><rect x="12.5" y="261" width="0.9" height="15.0" fill="rgb(213,17,27)" rx="2" ry="2" />
<text  x="15.51" y="271.5" ></text>
</g>
<g >
<title>[[kernel.kallsyms]] (10,101,010 samples, 0.07%)</title><rect x="847.2" y="197" width="0.9" height="15.0" fill="rgb(209,14,16)" rx="2" ry="2" />
<text  x="850.23" y="207.5" ></text>
</g>
<g >
<title>[unknown] (2,060,606,040 samples, 14.49%)</title><rect x="1019.0" y="181" width="171.0" height="15.0" fill="rgb(221,189,34)" rx="2" ry="2" />
<text  x="1022.03" y="191.5" >[unknown]</text>
</g>
<g >
<title>[[kernel.kallsyms]] (10,101,010 samples, 0.07%)</title><rect x="11.7" y="165" width="0.8" height="15.0" fill="rgb(233,160,35)" rx="2" ry="2" />
<text  x="14.68" y="175.5" ></text>
</g>
<g >
<title>[[kernel.kallsyms]] (10,101,010 samples, 0.07%)</title><rect x="13.4" y="197" width="0.8" height="15.0" fill="rgb(253,149,30)" rx="2" ry="2" />
<text  x="16.35" y="207.5" ></text>
</g>
<g >
<title>__socket (10,101,010 samples, 0.07%)</title><rect x="845.6" y="229" width="0.8" height="15.0" fill="rgb(237,9,11)" rx="2" ry="2" />
<text  x="848.55" y="239.5" ></text>
</g>
<g >
<title>[[kernel.kallsyms]] (10,101,010 samples, 0.07%)</title><rect x="206.1" y="197" width="0.8" height="15.0" fill="rgb(238,126,42)" rx="2" ry="2" />
<text  x="209.11" y="207.5" ></text>
</g>
<g >
<title>[[kernel.kallsyms]] (10,101,010 samples, 0.07%)</title><rect x="206.1" y="229" width="0.8" height="15.0" fill="rgb(216,127,10)" rx="2" ry="2" />
<text  x="209.11" y="239.5" ></text>
</g>
<g >
<title>[[kernel.kallsyms]] (10,101,010 samples, 0.07%)</title><rect x="465.1" y="165" width="0.8" height="15.0" fill="rgb(253,157,24)" rx="2" ry="2" />
<text  x="468.07" y="175.5" ></text>
</g>
<g >
<title>_dl_allocate_tls_init (10,101,010 samples, 0.07%)</title><rect x="206.9" y="245" width="0.9" height="15.0" fill="rgb(232,152,52)" rx="2" ry="2" />
<text  x="209.95" y="255.5" ></text>
</g>
<g >
<title>[[kernel.kallsyms]] (10,101,010 samples, 0.07%)</title><rect x="12.5" y="197" width="0.9" height="15.0" fill="rgb(239,163,28)" rx="2" ry="2" />
<text  x="15.51" y="207.5" ></text>
</g>
<g >
<title>operator new[] (50,505,050 samples, 0.36%)</title><rect x="829.6" y="245" width="4.2" height="15.0" fill="rgb(239,39,25)" rx="2" ry="2" />
<text  x="832.63" y="255.5" ></text>
</g>
<g >
<title>unlink_chunk.isra.0 (70,707,070 samples, 0.50%)</title><rect x="839.7" y="245" width="5.9" height="15.0" fill="rgb(227,150,8)" rx="2" ry="2" />
<text  x="842.69" y="255.5" ></text>
</g>
<g >
<title>[[kernel.kallsyms]] (10,101,010 samples, 0.07%)</title><rect x="846.4" y="229" width="0.8" height="15.0" fill="rgb(234,65,0)" rx="2" ry="2" />
<text  x="849.39" y="239.5" ></text>
</g>
<g >
<title>[[kernel.kallsyms]] (30,303,030 samples, 0.21%)</title><rect x="837.2" y="133" width="2.5" height="15.0" fill="rgb(236,144,40)" rx="2" ry="2" />
<text  x="840.17" y="143.5" ></text>
</g>
<g >
<title>[[kernel.kallsyms]] (2,060,606,040 samples, 14.49%)</title><rect x="1019.0" y="165" width="171.0" height="15.0" fill="rgb(228,49,29)" rx="2" ry="2" />
<text  x="1022.03" y="175.5" >[[kernel.kallsyms]]</text>
</g>
<g >
<title>[[kernel.kallsyms]] (10,101,010 samples, 0.07%)</title><rect x="12.5" y="133" width="0.9" height="15.0" fill="rgb(220,190,3)" rx="2" ry="2" />
<text  x="15.51" y="143.5" ></text>
</g>
<g >
<title>[[kernel.kallsyms]] (10,101,010 samples, 0.07%)</title><rect x="13.4" y="101" width="0.8" height="15.0" fill="rgb(210,65,10)" rx="2" ry="2" />
<text  x="16.35" y="111.5" ></text>
</g>
<g >
<title>cfree@GLIBC_2.2.5 (10,101,010 samples, 0.07%)</title><rect x="185.2" y="229" width="0.8" height="15.0" fill="rgb(253,28,16)" rx="2" ry="2" />
<text  x="188.16" y="239.5" ></text>
</g>
<g >
<title>[[kernel.kallsyms]] (10,101,010 samples, 0.07%)</title><rect x="465.1" y="181" width="0.8" height="15.0" fill="rgb(252,179,5)" rx="2" ry="2" />
<text  x="468.07" y="191.5" ></text>
</g>
<g >
<title>[[kernel.kallsyms]] (10,101,010 samples, 0.07%)</title><rect x="327.6" y="181" width="0.9" height="15.0" fill="rgb(209,37,41)" rx="2" ry="2" />
<text  x="330.63" y="191.5" ></text>
</g>
<g >
<title>[[kernel.kallsyms]] (2,060,606,040 samples, 14.49%)</title><rect x="848.1" y="229" width="170.9" height="15.0" fill="rgb(240,1,8)" rx="2" ry="2" />
<text  x="851.07" y="239.5" >[[kernel.kallsyms]]</text>
</g>
<g >
<title>cfree@GLIBC_2.2.5 (1,656,565,640 samples, 11.65%)</title><rect x="328.5" y="245" width="137.4" height="15.0" fill="rgb(213,188,53)" rx="2" ry="2" />
<text  x="331.47" y="255.5" >cfree@GLIBC_2.2.5</text>
</g>
<g >
<title>[[kernel.kallsyms]] (20,202,020 samples, 0.14%)</title><rect x="838.0" y="101" width="1.7" height="15.0" fill="rgb(229,115,25)" rx="2" ry="2" />
<text  x="841.01" y="111.5" ></text>
</g>
<g >
<title>[[kernel.kallsyms]] (10,101,010 samples, 0.07%)</title><rect x="206.1" y="213" width="0.8" height="15.0" fill="rgb(230,46,11)" rx="2" ry="2" />
<text  x="209.11" y="223.5" ></text>
</g>
<g >
<title>[libstdc++.so.6.0.28] (424,242,420 samples, 2.98%)</title><rect x="15.9" y="245" width="35.2" height="15.0" fill="rgb(210,174,36)" rx="2" ry="2" />
<text  x="18.87" y="255.5" >[l..</text>
</g>
<g >
<title>[[kernel.kallsyms]] (10,101,010 samples, 0.07%)</title><rect x="186.0" y="149" width="0.8" height="15.0" fill="rgb(214,27,11)" rx="2" ry="2" />
<text  x="188.99" y="159.5" ></text>
</g>
<g >
<title>[[kernel.kallsyms]] (10,101,010 samples, 0.07%)</title><rect x="12.5" y="245" width="0.9" height="15.0" fill="rgb(247,139,35)" rx="2" ry="2" />
<text  x="15.51" y="255.5" ></text>
</g>
<g >
<title>hv_kvp_daemon (10,101,010 samples, 0.07%)</title><rect x="11.7" y="261" width="0.8" height="15.0" fill="rgb(207,21,33)" rx="2" ry="2" />
<text  x="14.68" y="271.5" ></text>
</g>
<g >
<title>exercise_heap (10,101,010 samples, 0.07%)</title><rect x="186.0" y="229" width="0.8" height="15.0" fill="rgb(238,174,38)" rx="2" ry="2" />
<text  x="188.99" y="239.5" ></text>
</g>
<g >
<title>dirname (10,101,010 samples, 0.07%)</title><rect x="10.8" y="261" width="0.9" height="15.0" fill="rgb(213,40,11)" rx="2" ry="2" />
<text  x="13.84" y="271.5" ></text>
</g>
<g >
<title>[[kernel.kallsyms]] (10,101,010 samples, 0.07%)</title><rect x="846.4" y="165" width="0.8" height="15.0" fill="rgb(237,24,51)" rx="2" ry="2" />
<text  x="849.39" y="175.5" ></text>
</g>
<g >
<title>[[kernel.kallsyms]] (40,404,040 samples, 0.28%)</title><rect x="836.3" y="165" width="3.4" height="15.0" fill="rgb(228,192,14)" rx="2" ry="2" />
<text  x="839.34" y="175.5" ></text>
</g>
<g >
<title>swapper (4,121,212,080 samples, 28.98%)</title><rect x="848.1" y="261" width="341.9" height="15.0" fill="rgb(239,124,16)" rx="2" ry="2" />
<text  x="851.07" y="271.5" >swapper</text>
</g>
<g >
<title>[[kernel.kallsyms]] (10,101,010 samples, 0.07%)</title><rect x="465.1" y="213" width="0.8" height="15.0" fill="rgb(227,75,53)" rx="2" ry="2" />
<text  x="468.07" y="223.5" ></text>
</g>
<g >
<title>[[kernel.kallsyms]] (50,505,050 samples, 0.36%)</title><rect x="835.5" y="213" width="4.2" height="15.0" fill="rgb(236,173,33)" rx="2" ry="2" />
<text  x="838.50" y="223.5" ></text>
</g>
<g >
<title>[[kernel.kallsyms]] (10,101,010 samples, 0.07%)</title><rect x="13.4" y="213" width="0.8" height="15.0" fill="rgb(243,112,7)" rx="2" ry="2" />
<text  x="16.35" y="223.5" ></text>
</g>
<g >
<title>[[kernel.kallsyms]] (10,101,010 samples, 0.07%)</title><rect x="846.4" y="197" width="0.8" height="15.0" fill="rgb(229,82,54)" rx="2" ry="2" />
<text  x="849.39" y="207.5" ></text>
</g>
<g >
<title>unlink_chunk.isra.0 (202,020,200 samples, 1.42%)</title><rect x="186.8" y="229" width="16.8" height="15.0" fill="rgb(228,222,44)" rx="2" ry="2" />
<text  x="189.83" y="239.5" ></text>
</g>
<g >
<title>operator delete[] (151,515,150 samples, 1.07%)</title><rect x="796.9" y="245" width="12.6" height="15.0" fill="rgb(229,133,38)" rx="2" ry="2" />
<text  x="799.95" y="255.5" ></text>
</g>
<g >
<title>sysmalloc (70,707,070 samples, 0.50%)</title><rect x="833.8" y="245" width="5.9" height="15.0" fill="rgb(218,221,34)" rx="2" ry="2" />
<text  x="836.82" y="255.5" ></text>
</g>
</g>
</svg>
