<?xml version="1.0" standalone="no"?>
<!DOCTYPE svg PUBLIC "-//W3C//DTD SVG 1.1//EN" "http://www.w3.org/Graphics/SVG/1.1/DTD/svg11.dtd">
<svg version="1.1" width="1200" height="374" onload="init(evt)" viewBox="0 0 1200 374" xmlns="http://www.w3.org/2000/svg" xmlns:xlink="http://www.w3.org/1999/xlink">
<!-- Flame graph stack visualization. See https://github.com/brendangregg/FlameGraph for latest version, and http://www.brendangregg.com/flamegraphs.html for examples. -->
<!-- NOTES:  -->
<defs>
	<linearGradient id="background" y1="0" y2="1" x1="0" x2="0" >
		<stop stop-color="#eeeeee" offset="5%" />
		<stop stop-color="#eeeeb0" offset="95%" />
	</linearGradient>
</defs>
<style type="text/css">
	text { font-family:Verdana; font-size:12px; fill:rgb(0,0,0); }
	#search, #ignorecase { opacity:0.1; cursor:pointer; }
	#search:hover, #search.show, #ignorecase:hover, #ignorecase.show { opacity:1; }
	#subtitle { text-anchor:middle; font-color:rgb(160,160,160); }
	#title { text-anchor:middle; font-size:17px}
	#unzoom { cursor:pointer; }
	#frames > *:hover { stroke:black; stroke-width:0.5; cursor:pointer; }
	.hide { display:none; }
	.parent { opacity:0.5; }
</style>
<script type="text/ecmascript">
<![CDATA[
	"use strict";
	var details, searchbtn, unzoombtn, matchedtxt, svg, searching, currentSearchTerm, ignorecase, ignorecaseBtn;
	function init(evt) {
		details = document.getElementById("details").firstChild;
		searchbtn = document.getElementById("search");
		ignorecaseBtn = document.getElementById("ignorecase");
		unzoombtn = document.getElementById("unzoom");
		matchedtxt = document.getElementById("matched");
		svg = document.getElementsByTagName("svg")[0];
		searching = 0;
		currentSearchTerm = null;

		// use GET parameters to restore a flamegraphs state.
		var params = get_params();
		if (params.x && params.y)
			zoom(find_group(document.querySelector('[x="' + params.x + '"][y="' + params.y + '"]')));
                if (params.s) search(params.s);
	}

	// event listeners
	window.addEventListener("click", function(e) {
		var target = find_group(e.target);
		if (target) {
			if (target.nodeName == "a") {
				if (e.ctrlKey === false) return;
				e.preventDefault();
			}
			if (target.classList.contains("parent")) unzoom(true);
			zoom(target);
			if (!document.querySelector('.parent')) {
				// we have basically done a clearzoom so clear the url
				var params = get_params();
				if (params.x) delete params.x;
				if (params.y) delete params.y;
				history.replaceState(null, null, parse_params(params));
				unzoombtn.classList.add("hide");
				return;
			}

			// set parameters for zoom state
			var el = target.querySelector("rect");
			if (el && el.attributes && el.attributes.y && el.attributes._orig_x) {
				var params = get_params()
				params.x = el.attributes._orig_x.value;
				params.y = el.attributes.y.value;
				history.replaceState(null, null, parse_params(params));
			}
		}
		else if (e.target.id == "unzoom") clearzoom();
		else if (e.target.id == "search") search_prompt();
		else if (e.target.id == "ignorecase") toggle_ignorecase();
	}, false)

	// mouse-over for info
	// show
	window.addEventListener("mouseover", function(e) {
		var target = find_group(e.target);
		if (target) details.nodeValue = "Function: " + g_to_text(target);
	}, false)

	// clear
	window.addEventListener("mouseout", function(e) {
		var target = find_group(e.target);
		if (target) details.nodeValue = ' ';
	}, false)

	// ctrl-F for search
	// ctrl-I to toggle case-sensitive search
	window.addEventListener("keydown",function (e) {
		if (e.keyCode === 114 || (e.ctrlKey && e.keyCode === 70)) {
			e.preventDefault();
			search_prompt();
		}
		else if (e.ctrlKey && e.keyCode === 73) {
			e.preventDefault();
			toggle_ignorecase();
		}
	}, false)

	// functions
	function get_params() {
		var params = {};
		var paramsarr = window.location.search.substr(1).split('&');
		for (var i = 0; i < paramsarr.length; ++i) {
			var tmp = paramsarr[i].split("=");
			if (!tmp[0] || !tmp[1]) continue;
			params[tmp[0]]  = decodeURIComponent(tmp[1]);
		}
		return params;
	}
	function parse_params(params) {
		var uri = "?";
		for (var key in params) {
			uri += key + '=' + encodeURIComponent(params[key]) + '&';
		}
		if (uri.slice(-1) == "&")
			uri = uri.substring(0, uri.length - 1);
		if (uri == '?')
			uri = window.location.href.split('?')[0];
		return uri;
	}
	function find_child(node, selector) {
		var children = node.querySelectorAll(selector);
		if (children.length) return children[0];
	}
	function find_group(node) {
		var parent = node.parentElement;
		if (!parent) return;
		if (parent.id == "frames") return node;
		return find_group(parent);
	}
	function orig_save(e, attr, val) {
		if (e.attributes["_orig_" + attr] != undefined) return;
		if (e.attributes[attr] == undefined) return;
		if (val == undefined) val = e.attributes[attr].value;
		e.setAttribute("_orig_" + attr, val);
	}
	function orig_load(e, attr) {
		if (e.attributes["_orig_"+attr] == undefined) return;
		e.attributes[attr].value = e.attributes["_orig_" + attr].value;
		e.removeAttribute("_orig_"+attr);
	}
	function g_to_text(e) {
		var text = find_child(e, "title").firstChild.nodeValue;
		return (text)
	}
	function g_to_func(e) {
		var func = g_to_text(e);
		// if there's any manipulation we want to do to the function
		// name before it's searched, do it here before returning.
		return (func);
	}
	function update_text(e) {
		var r = find_child(e, "rect");
		var t = find_child(e, "text");
		var w = parseFloat(r.attributes.width.value) -3;
		var txt = find_child(e, "title").textContent.replace(/\([^(]*\)$/,"");
		t.attributes.x.value = parseFloat(r.attributes.x.value) + 3;

		// Smaller than this size won't fit anything
		if (w < 2 * 12 * 0.59) {
			t.textContent = "";
			return;
		}

		t.textContent = txt;
		var sl = t.getSubStringLength(0, txt.length);
		// check if only whitespace or if we can fit the entire string into width w
		if (/^ *$/.test(txt) || sl < w)
			return;

		// this isn't perfect, but gives a good starting point
		// and avoids calling getSubStringLength too often
		var start = Math.floor((w/sl) * txt.length);
		for (var x = start; x > 0; x = x-2) {
			if (t.getSubStringLength(0, x + 2) <= w) {
				t.textContent = txt.substring(0, x) + "..";
				return;
			}
		}
		t.textContent = "";
	}

	// zoom
	function zoom_reset(e) {
		if (e.attributes != undefined) {
			orig_load(e, "x");
			orig_load(e, "width");
		}
		if (e.childNodes == undefined) return;
		for (var i = 0, c = e.childNodes; i < c.length; i++) {
			zoom_reset(c[i]);
		}
	}
	function zoom_child(e, x, ratio) {
		if (e.attributes != undefined) {
			if (e.attributes.x != undefined) {
				orig_save(e, "x");
				e.attributes.x.value = (parseFloat(e.attributes.x.value) - x - 10) * ratio + 10;
				if (e.tagName == "text")
					e.attributes.x.value = find_child(e.parentNode, "rect[x]").attributes.x.value + 3;
			}
			if (e.attributes.width != undefined) {
				orig_save(e, "width");
				e.attributes.width.value = parseFloat(e.attributes.width.value) * ratio;
			}
		}

		if (e.childNodes == undefined) return;
		for (var i = 0, c = e.childNodes; i < c.length; i++) {
			zoom_child(c[i], x - 10, ratio);
		}
	}
	function zoom_parent(e) {
		if (e.attributes) {
			if (e.attributes.x != undefined) {
				orig_save(e, "x");
				e.attributes.x.value = 10;
			}
			if (e.attributes.width != undefined) {
				orig_save(e, "width");
				e.attributes.width.value = parseInt(svg.width.baseVal.value) - (10 * 2);
			}
		}
		if (e.childNodes == undefined) return;
		for (var i = 0, c = e.childNodes; i < c.length; i++) {
			zoom_parent(c[i]);
		}
	}
	function zoom(node) {
		var attr = find_child(node, "rect").attributes;
		var width = parseFloat(attr.width.value);
		var xmin = parseFloat(attr.x.value);
		var xmax = parseFloat(xmin + width);
		var ymin = parseFloat(attr.y.value);
		var ratio = (svg.width.baseVal.value - 2 * 10) / width;

		// XXX: Workaround for JavaScript float issues (fix me)
		var fudge = 0.0001;

		unzoombtn.classList.remove("hide");

		var el = document.getElementById("frames").children;
		for (var i = 0; i < el.length; i++) {
			var e = el[i];
			var a = find_child(e, "rect").attributes;
			var ex = parseFloat(a.x.value);
			var ew = parseFloat(a.width.value);
			var upstack;
			// Is it an ancestor
			if (0 == 0) {
				upstack = parseFloat(a.y.value) > ymin;
			} else {
				upstack = parseFloat(a.y.value) < ymin;
			}
			if (upstack) {
				// Direct ancestor
				if (ex <= xmin && (ex+ew+fudge) >= xmax) {
					e.classList.add("parent");
					zoom_parent(e);
					update_text(e);
				}
				// not in current path
				else
					e.classList.add("hide");
			}
			// Children maybe
			else {
				// no common path
				if (ex < xmin || ex + fudge >= xmax) {
					e.classList.add("hide");
				}
				else {
					zoom_child(e, xmin, ratio);
					update_text(e);
				}
			}
		}
		search();
	}
	function unzoom(dont_update_text) {
		unzoombtn.classList.add("hide");
		var el = document.getElementById("frames").children;
		for(var i = 0; i < el.length; i++) {
			el[i].classList.remove("parent");
			el[i].classList.remove("hide");
			zoom_reset(el[i]);
			if(!dont_update_text) update_text(el[i]);
		}
		search();
	}
	function clearzoom() {
		unzoom();

		// remove zoom state
		var params = get_params();
		if (params.x) delete params.x;
		if (params.y) delete params.y;
		history.replaceState(null, null, parse_params(params));
	}

	// search
	function toggle_ignorecase() {
		ignorecase = !ignorecase;
		if (ignorecase) {
			ignorecaseBtn.classList.add("show");
		} else {
			ignorecaseBtn.classList.remove("show");
		}
		reset_search();
		search();
	}
	function reset_search() {
		var el = document.querySelectorAll("#frames rect");
		for (var i = 0; i < el.length; i++) {
			orig_load(el[i], "fill")
		}
		var params = get_params();
		delete params.s;
		history.replaceState(null, null, parse_params(params));
	}
	function search_prompt() {
		if (!searching) {
			var term = prompt("Enter a search term (regexp " +
			    "allowed, eg: ^ext4_)"
			    + (ignorecase ? ", ignoring case" : "")
			    + "\nPress Ctrl-i to toggle case sensitivity", "");
			if (term != null) search(term);
		} else {
			reset_search();
			searching = 0;
			currentSearchTerm = null;
			searchbtn.classList.remove("show");
			searchbtn.firstChild.nodeValue = "Search"
			matchedtxt.classList.add("hide");
			matchedtxt.firstChild.nodeValue = ""
		}
	}
	function search(term) {
		if (term) currentSearchTerm = term;

		var re = new RegExp(currentSearchTerm, ignorecase ? 'i' : '');
		var el = document.getElementById("frames").children;
		var matches = new Object();
		var maxwidth = 0;
		for (var i = 0; i < el.length; i++) {
			var e = el[i];
			var func = g_to_func(e);
			var rect = find_child(e, "rect");
			if (func == null || rect == null)
				continue;

			// Save max width. Only works as we have a root frame
			var w = parseFloat(rect.attributes.width.value);
			if (w > maxwidth)
				maxwidth = w;

			if (func.match(re)) {
				// highlight
				var x = parseFloat(rect.attributes.x.value);
				orig_save(rect, "fill");
				rect.attributes.fill.value = "rgb(230,0,230)";

				// remember matches
				if (matches[x] == undefined) {
					matches[x] = w;
				} else {
					if (w > matches[x]) {
						// overwrite with parent
						matches[x] = w;
					}
				}
				searching = 1;
			}
		}
		if (!searching)
			return;
		var params = get_params();
		params.s = currentSearchTerm;
		history.replaceState(null, null, parse_params(params));

		searchbtn.classList.add("show");
		searchbtn.firstChild.nodeValue = "Reset Search";

		// calculate percent matched, excluding vertical overlap
		var count = 0;
		var lastx = -1;
		var lastw = 0;
		var keys = Array();
		for (k in matches) {
			if (matches.hasOwnProperty(k))
				keys.push(k);
		}
		// sort the matched frames by their x location
		// ascending, then width descending
		keys.sort(function(a, b){
			return a - b;
		});
		// Step through frames saving only the biggest bottom-up frames
		// thanks to the sort order. This relies on the tree property
		// where children are always smaller than their parents.
		var fudge = 0.0001;	// JavaScript floating point
		for (var k in keys) {
			var x = parseFloat(keys[k]);
			var w = matches[keys[k]];
			if (x >= lastx + lastw - fudge) {
				count += w;
				lastx = x;
				lastw = w;
			}
		}
		// display matched percent
		matchedtxt.classList.remove("hide");
		var pct = 100 * count / maxwidth;
		if (pct != 100) pct = pct.toFixed(1)
		matchedtxt.firstChild.nodeValue = "Matched: " + pct + "%";
	}
]]>
</script>
<rect x="0.0" y="0" width="1200.0" height="374.0" fill="url(#background)"  />
<text id="title" x="600.00" y="24" >Flame Graph</text>
<text id="details" x="10.00" y="357" > </text>
<text id="unzoom" x="10.00" y="24" class="hide">Reset Zoom</text>
<text id="search" x="1090.00" y="24" >Search</text>
<text id="ignorecase" x="1174.00" y="24" >ic</text>
<text id="matched" x="1090.00" y="357" > </text>
<g id="frames">
<g >
<title>__pthread_mutex_lock (373,737,370 samples, 2.57%)</title><rect x="41.9" y="277" width="30.3" height="15.0" fill="rgb(220,182,12)" rx="2" ry="2" />
<text  x="44.91" y="287.5" >__..</text>
</g>
<g >
<title>[[kernel.kallsyms]] (20,202,020 samples, 0.14%)</title><rect x="609.0" y="181" width="1.6" height="15.0" fill="rgb(226,222,10)" rx="2" ry="2" />
<text  x="612.00" y="191.5" ></text>
</g>
<g >
<title>[[kernel.kallsyms]] (4,282,828,240 samples, 29.40%)</title><rect x="843.0" y="293" width="347.0" height="15.0" fill="rgb(250,141,45)" rx="2" ry="2" />
<text  x="846.04" y="303.5" >[[kernel.kallsyms]]</text>
</g>
<g >
<title>[[kernel.kallsyms]] (20,202,020 samples, 0.14%)</title><rect x="92.6" y="181" width="1.7" height="15.0" fill="rgb(222,185,5)" rx="2" ry="2" />
<text  x="95.65" y="191.5" ></text>
</g>
<g >
<title>[[kernel.kallsyms]] (10,101,010 samples, 0.07%)</title><rect x="41.1" y="133" width="0.8" height="15.0" fill="rgb(222,46,5)" rx="2" ry="2" />
<text  x="44.10" y="143.5" ></text>
</g>
<g >
<title>[[kernel.kallsyms]] (10,101,010 samples, 0.07%)</title><rect x="13.3" y="197" width="0.8" height="15.0" fill="rgb(254,174,20)" rx="2" ry="2" />
<text  x="16.27" y="207.5" ></text>
</g>
<g >
<title>[[kernel.kallsyms]] (20,202,020 samples, 0.14%)</title><rect x="10.8" y="245" width="1.7" height="15.0" fill="rgb(238,58,37)" rx="2" ry="2" />
<text  x="13.82" y="255.5" ></text>
</g>
<g >
<title>[unknown] (7,333,333,260 samples, 50.35%)</title><rect x="14.9" y="293" width="594.1" height="15.0" fill="rgb(229,191,52)" rx="2" ry="2" />
<text  x="17.91" y="303.5" >[unknown]</text>
</g>
<g >
<title>[[kernel.kallsyms]] (10,101,010 samples, 0.07%)</title><rect x="609.8" y="85" width="0.8" height="15.0" fill="rgb(208,193,51)" rx="2" ry="2" />
<text  x="612.82" y="95.5" ></text>
</g>
<g >
<title>[[kernel.kallsyms]] (30,303,030 samples, 0.21%)</title><rect x="91.8" y="245" width="2.5" height="15.0" fill="rgb(249,6,0)" rx="2" ry="2" />
<text  x="94.83" y="255.5" ></text>
</g>
<g >
<title>[[kernel.kallsyms]] (10,101,010 samples, 0.07%)</title><rect x="12.5" y="245" width="0.8" height="15.0" fill="rgb(253,114,4)" rx="2" ry="2" />
<text  x="15.45" y="255.5" ></text>
</g>
<g >
<title>[[kernel.kallsyms]] (70,707,070 samples, 0.49%)</title><rect x="752.2" y="245" width="5.7" height="15.0" fill="rgb(217,77,43)" rx="2" ry="2" />
<text  x="755.21" y="255.5" ></text>
</g>
<g >
<title>free_sized (70,707,070 samples, 0.49%)</title><rect x="833.2" y="293" width="5.7" height="15.0" fill="rgb(217,72,5)" rx="2" ry="2" />
<text  x="836.22" y="303.5" ></text>
</g>
<g >
<title>[[kernel.kallsyms]] (20,202,020 samples, 0.14%)</title><rect x="609.0" y="229" width="1.6" height="15.0" fill="rgb(219,39,12)" rx="2" ry="2" />
<text  x="612.00" y="239.5" ></text>
</g>
<g >
<title>[[kernel.kallsyms]] (70,707,070 samples, 0.49%)</title><rect x="395.4" y="133" width="5.8" height="15.0" fill="rgb(231,43,30)" rx="2" ry="2" />
<text  x="398.42" y="143.5" ></text>
</g>
<g >
<title>[[kernel.kallsyms]] (2,272,727,250 samples, 15.60%)</title><rect x="843.0" y="245" width="184.2" height="15.0" fill="rgb(239,52,50)" rx="2" ry="2" />
<text  x="846.04" y="255.5" >[[kernel.kallsyms]]</text>
</g>
<g >
<title>[[kernel.kallsyms]] (70,707,070 samples, 0.49%)</title><rect x="752.2" y="277" width="5.7" height="15.0" fill="rgb(211,213,38)" rx="2" ry="2" />
<text  x="755.21" y="287.5" ></text>
</g>
<g >
<title>[[kernel.kallsyms]] (20,202,020 samples, 0.14%)</title><rect x="10.8" y="229" width="1.7" height="15.0" fill="rgb(218,116,46)" rx="2" ry="2" />
<text  x="13.82" y="239.5" ></text>
</g>
<g >
<title>[[kernel.kallsyms]] (10,101,010 samples, 0.07%)</title><rect x="11.6" y="133" width="0.9" height="15.0" fill="rgb(246,213,27)" rx="2" ry="2" />
<text  x="14.64" y="143.5" ></text>
</g>
<g >
<title>[[kernel.kallsyms]] (50,505,050 samples, 0.35%)</title><rect x="37.8" y="181" width="4.1" height="15.0" fill="rgb(226,178,47)" rx="2" ry="2" />
<text  x="40.82" y="191.5" ></text>
</g>
<g >
<title>[[kernel.kallsyms]] (2,010,100,990 samples, 13.80%)</title><rect x="1027.2" y="165" width="162.8" height="15.0" fill="rgb(243,206,30)" rx="2" ry="2" />
<text  x="1030.16" y="175.5" >[[kernel.kallsyms]]</text>
</g>
<g >
<title>[[kernel.kallsyms]] (10,101,010 samples, 0.07%)</title><rect x="35.4" y="197" width="0.8" height="15.0" fill="rgb(245,25,11)" rx="2" ry="2" />
<text  x="38.37" y="207.5" ></text>
</g>
<g >
<title>[[kernel.kallsyms]] (60,606,060 samples, 0.42%)</title><rect x="753.0" y="197" width="4.9" height="15.0" fill="rgb(249,136,43)" rx="2" ry="2" />
<text  x="756.02" y="207.5" ></text>
</g>
<g >
<title>[[kernel.kallsyms]] (131,313,130 samples, 0.90%)</title><rect x="390.5" y="213" width="10.7" height="15.0" fill="rgb(218,138,22)" rx="2" ry="2" />
<text  x="393.51" y="223.5" ></text>
</g>
<g >
<title>[[kernel.kallsyms]] (2,272,727,250 samples, 15.60%)</title><rect x="843.0" y="277" width="184.2" height="15.0" fill="rgb(241,18,27)" rx="2" ry="2" />
<text  x="846.04" y="287.5" >[[kernel.kallsyms]]</text>
</g>
<g >
<title>[[kernel.kallsyms]] (2,010,100,990 samples, 13.80%)</title><rect x="1027.2" y="181" width="162.8" height="15.0" fill="rgb(246,110,53)" rx="2" ry="2" />
<text  x="1030.16" y="191.5" >[[kernel.kallsyms]]</text>
</g>
<g >
<title>[[kernel.kallsyms]] (10,101,010 samples, 0.07%)</title><rect x="11.6" y="149" width="0.9" height="15.0" fill="rgb(241,18,14)" rx="2" ry="2" />
<text  x="14.64" y="159.5" ></text>
</g>
<g >
<title>[[kernel.kallsyms]] (2,272,727,250 samples, 15.60%)</title><rect x="843.0" y="229" width="184.2" height="15.0" fill="rgb(242,23,54)" rx="2" ry="2" />
<text  x="846.04" y="239.5" >[[kernel.kallsyms]]</text>
</g>
<g >
<title>[[kernel.kallsyms]] (171,717,170 samples, 1.18%)</title><rect x="387.2" y="245" width="14.0" height="15.0" fill="rgb(216,56,41)" rx="2" ry="2" />
<text  x="390.24" y="255.5" ></text>
</g>
<g >
<title>[[kernel.kallsyms]] (20,202,020 samples, 0.14%)</title><rect x="19.8" y="149" width="1.7" height="15.0" fill="rgb(254,160,24)" rx="2" ry="2" />
<text  x="22.82" y="159.5" ></text>
</g>
<g >
<title>[[kernel.kallsyms]] (20,202,020 samples, 0.14%)</title><rect x="19.8" y="133" width="1.7" height="15.0" fill="rgb(223,80,38)" rx="2" ry="2" />
<text  x="22.82" y="143.5" ></text>
</g>
<g >
<title>[[kernel.kallsyms]] (70,707,070 samples, 0.49%)</title><rect x="36.2" y="229" width="5.7" height="15.0" fill="rgb(218,82,4)" rx="2" ry="2" />
<text  x="39.19" y="239.5" ></text>
</g>
<g >
<title>[[kernel.kallsyms]] (70,707,070 samples, 0.49%)</title><rect x="752.2" y="229" width="5.7" height="15.0" fill="rgb(233,100,49)" rx="2" ry="2" />
<text  x="755.21" y="239.5" ></text>
</g>
<g >
<title>exercise_heap (565,656,560 samples, 3.88%)</title><rect x="787.4" y="293" width="45.8" height="15.0" fill="rgb(215,13,33)" rx="2" ry="2" />
<text  x="790.39" y="303.5" >exer..</text>
</g>
<g >
<title>[[kernel.kallsyms]] (20,202,020 samples, 0.14%)</title><rect x="10.8" y="181" width="1.7" height="15.0" fill="rgb(227,106,11)" rx="2" ry="2" />
<text  x="13.82" y="191.5" ></text>
</g>
<g >
<title>[[kernel.kallsyms]] (10,101,010 samples, 0.07%)</title><rect x="595.9" y="261" width="0.8" height="15.0" fill="rgb(241,168,44)" rx="2" ry="2" />
<text  x="598.91" y="271.5" ></text>
</g>
<g >
<title>[[kernel.kallsyms]] (20,202,020 samples, 0.14%)</title><rect x="609.0" y="149" width="1.6" height="15.0" fill="rgb(233,135,26)" rx="2" ry="2" />
<text  x="612.00" y="159.5" ></text>
</g>
<g >
<title>[[kernel.kallsyms]] (101,010,100 samples, 0.69%)</title><rect x="393.0" y="165" width="8.2" height="15.0" fill="rgb(239,10,34)" rx="2" ry="2" />
<text  x="395.97" y="175.5" ></text>
</g>
<g >
<title>__mmap (20,202,020 samples, 0.14%)</title><rect x="609.0" y="293" width="1.6" height="15.0" fill="rgb(206,125,42)" rx="2" ry="2" />
<text  x="612.00" y="303.5" ></text>
</g>
<g >
<title>[[kernel.kallsyms]] (50,505,050 samples, 0.35%)</title><rect x="37.8" y="165" width="4.1" height="15.0" fill="rgb(221,134,30)" rx="2" ry="2" />
<text  x="40.82" y="175.5" ></text>
</g>
<g >
<title>[[kernel.kallsyms]] (20,202,020 samples, 0.14%)</title><rect x="609.0" y="245" width="1.6" height="15.0" fill="rgb(205,119,31)" rx="2" ry="2" />
<text  x="612.00" y="255.5" ></text>
</g>
<g >
<title>[larson-sized] (10,101,010 samples, 0.07%)</title><rect x="14.1" y="293" width="0.8" height="15.0" fill="rgb(214,170,28)" rx="2" ry="2" />
<text  x="17.09" y="303.5" ></text>
</g>
<g >
<title>deallocate_small (2,393,939,370 samples, 16.44%)</title><rect x="402.8" y="277" width="193.9" height="15.0" fill="rgb(244,137,7)" rx="2" ry="2" />
<text  x="405.79" y="287.5" >deallocate_small</text>
</g>
<g >
<title>get_random_u16_uniform (151,515,150 samples, 1.04%)</title><rect x="596.7" y="277" width="12.3" height="15.0" fill="rgb(231,218,32)" rx="2" ry="2" />
<text  x="599.73" y="287.5" ></text>
</g>
<g >
<title>[[kernel.kallsyms]] (70,707,070 samples, 0.49%)</title><rect x="752.2" y="261" width="5.7" height="15.0" fill="rgb(215,51,38)" rx="2" ry="2" />
<text  x="755.21" y="271.5" ></text>
</g>
<g >
<title>[[kernel.kallsyms]] (30,303,030 samples, 0.21%)</title><rect x="91.8" y="261" width="2.5" height="15.0" fill="rgb(215,7,30)" rx="2" ry="2" />
<text  x="94.83" y="271.5" ></text>
</g>
<g >
<title>[[kernel.kallsyms]] (60,606,060 samples, 0.42%)</title><rect x="753.0" y="181" width="4.9" height="15.0" fill="rgb(235,11,52)" rx="2" ry="2" />
<text  x="756.02" y="191.5" ></text>
</g>
<g >
<title>[[kernel.kallsyms]] (10,101,010 samples, 0.07%)</title><rect x="41.1" y="117" width="0.8" height="15.0" fill="rgb(236,131,53)" rx="2" ry="2" />
<text  x="44.10" y="127.5" ></text>
</g>
<g >
<title>[[kernel.kallsyms]] (20,202,020 samples, 0.14%)</title><rect x="10.8" y="165" width="1.7" height="15.0" fill="rgb(222,156,51)" rx="2" ry="2" />
<text  x="13.82" y="175.5" ></text>
</g>
<g >
<title>[[kernel.kallsyms]] (10,101,010 samples, 0.07%)</title><rect x="35.4" y="213" width="0.8" height="15.0" fill="rgb(249,184,7)" rx="2" ry="2" />
<text  x="38.37" y="223.5" ></text>
</g>
<g >
<title>[[kernel.kallsyms]] (10,101,010 samples, 0.07%)</title><rect x="595.9" y="213" width="0.8" height="15.0" fill="rgb(228,211,46)" rx="2" ry="2" />
<text  x="598.91" y="223.5" ></text>
</g>
<g >
<title>[[kernel.kallsyms]] (30,303,030 samples, 0.21%)</title><rect x="19.0" y="261" width="2.5" height="15.0" fill="rgb(215,214,25)" rx="2" ry="2" />
<text  x="22.00" y="271.5" ></text>
</g>
<g >
<title>[[kernel.kallsyms]] (2,272,727,250 samples, 15.60%)</title><rect x="843.0" y="261" width="184.2" height="15.0" fill="rgb(248,92,37)" rx="2" ry="2" />
<text  x="846.04" y="271.5" >[[kernel.kallsyms]]</text>
</g>
<g >
<title>bench.sh (30,303,030 samples, 0.21%)</title><rect x="10.0" y="309" width="2.5" height="15.0" fill="rgb(235,31,29)" rx="2" ry="2" />
<text  x="13.00" y="319.5" ></text>
</g>
<g >
<title>[[kernel.kallsyms]] (10,101,010 samples, 0.07%)</title><rect x="609.8" y="53" width="0.8" height="15.0" fill="rgb(239,37,40)" rx="2" ry="2" />
<text  x="612.82" y="63.5" ></text>
</g>
<g >
<title>[[kernel.kallsyms]] (10,101,010 samples, 0.07%)</title><rect x="609.8" y="37" width="0.8" height="15.0" fill="rgb(222,155,22)" rx="2" ry="2" />
<text  x="612.82" y="47.5" ></text>
</g>
<g >
<title>[[kernel.kallsyms]] (60,606,060 samples, 0.42%)</title><rect x="37.0" y="197" width="4.9" height="15.0" fill="rgb(246,89,13)" rx="2" ry="2" />
<text  x="40.00" y="207.5" ></text>
</g>
<g >
<title>[[kernel.kallsyms]] (10,101,010 samples, 0.07%)</title><rect x="12.5" y="277" width="0.8" height="15.0" fill="rgb(210,99,9)" rx="2" ry="2" />
<text  x="15.45" y="287.5" ></text>
</g>
<g >
<title>[[kernel.kallsyms]] (2,010,100,990 samples, 13.80%)</title><rect x="1027.2" y="149" width="162.8" height="15.0" fill="rgb(238,40,0)" rx="2" ry="2" />
<text  x="1030.16" y="159.5" >[[kernel.kallsyms]]</text>
</g>
<g >
<title>[[kernel.kallsyms]] (20,202,020 samples, 0.14%)</title><rect x="10.8" y="261" width="1.7" height="15.0" fill="rgb(232,185,27)" rx="2" ry="2" />
<text  x="13.82" y="271.5" ></text>
</g>
<g >
<title>dirname (10,101,010 samples, 0.07%)</title><rect x="12.5" y="309" width="0.8" height="15.0" fill="rgb(207,131,47)" rx="2" ry="2" />
<text  x="15.45" y="319.5" ></text>
</g>
<g >
<title>deallocate_small (131,313,130 samples, 0.90%)</title><rect x="776.8" y="293" width="10.6" height="15.0" fill="rgb(254,227,11)" rx="2" ry="2" />
<text  x="779.75" y="303.5" ></text>
</g>
<g >
<title>[[kernel.kallsyms]] (2,010,100,990 samples, 13.80%)</title><rect x="1027.2" y="213" width="162.8" height="15.0" fill="rgb(250,38,35)" rx="2" ry="2" />
<text  x="1030.16" y="223.5" >[[kernel.kallsyms]]</text>
</g>
<g >
<title>[[kernel.kallsyms]] (20,202,020 samples, 0.14%)</title><rect x="609.0" y="261" width="1.6" height="15.0" fill="rgb(226,123,27)" rx="2" ry="2" />
<text  x="612.00" y="271.5" ></text>
</g>
<g >
<title>[[kernel.kallsyms]] (30,303,030 samples, 0.21%)</title><rect x="19.0" y="245" width="2.5" height="15.0" fill="rgb(241,169,45)" rx="2" ry="2" />
<text  x="22.00" y="255.5" ></text>
</g>
<g >
<title>[[kernel.kallsyms]] (10,101,010 samples, 0.07%)</title><rect x="13.3" y="165" width="0.8" height="15.0" fill="rgb(246,111,17)" rx="2" ry="2" />
<text  x="16.27" y="175.5" ></text>
</g>
<g >
<title>[[kernel.kallsyms]] (10,101,010 samples, 0.07%)</title><rect x="12.5" y="261" width="0.8" height="15.0" fill="rgb(234,207,7)" rx="2" ry="2" />
<text  x="15.45" y="271.5" ></text>
</g>
<g >
<title>[[kernel.kallsyms]] (101,010,100 samples, 0.69%)</title><rect x="393.0" y="181" width="8.2" height="15.0" fill="rgb(206,84,5)" rx="2" ry="2" />
<text  x="395.97" y="191.5" ></text>
</g>
<g >
<title>[[kernel.kallsyms]] (20,202,020 samples, 0.14%)</title><rect x="10.8" y="197" width="1.7" height="15.0" fill="rgb(206,197,42)" rx="2" ry="2" />
<text  x="13.82" y="207.5" ></text>
</g>
<g >
<title>operator delete[] (10,101,010 samples, 0.07%)</title><rect x="842.2" y="293" width="0.8" height="15.0" fill="rgb(228,4,32)" rx="2" ry="2" />
<text  x="845.22" y="303.5" ></text>
</g>
<g >
<title>[[kernel.kallsyms]] (10,101,010 samples, 0.07%)</title><rect x="35.4" y="229" width="0.8" height="15.0" fill="rgb(213,68,21)" rx="2" ry="2" />
<text  x="38.37" y="239.5" ></text>
</g>
<g >
<title>__cxa_atexit (10,101,010 samples, 0.07%)</title><rect x="12.5" y="293" width="0.8" height="15.0" fill="rgb(210,45,51)" rx="2" ry="2" />
<text  x="15.45" y="303.5" ></text>
</g>
<g >
<title>malloc (10,101,010 samples, 0.07%)</title><rect x="841.4" y="293" width="0.8" height="15.0" fill="rgb(243,159,31)" rx="2" ry="2" />
<text  x="844.40" y="303.5" ></text>
</g>
<g >
<title>[[kernel.kallsyms]] (20,202,020 samples, 0.14%)</title><rect x="19.8" y="181" width="1.7" height="15.0" fill="rgb(219,65,27)" rx="2" ry="2" />
<text  x="22.82" y="191.5" ></text>
</g>
<g >
<title>chacha_keystream_bytes.constprop.0 (20,202,020 samples, 0.14%)</title><rect x="401.2" y="277" width="1.6" height="15.0" fill="rgb(218,104,1)" rx="2" ry="2" />
<text  x="404.15" y="287.5" ></text>
</g>
<g >
<title>__lll_lock_wait (80,808,080 samples, 0.55%)</title><rect x="14.9" y="277" width="6.6" height="15.0" fill="rgb(207,43,21)" rx="2" ry="2" />
<text  x="17.91" y="287.5" ></text>
</g>
<g >
<title>[[kernel.kallsyms]] (20,202,020 samples, 0.14%)</title><rect x="609.0" y="277" width="1.6" height="15.0" fill="rgb(249,133,35)" rx="2" ry="2" />
<text  x="612.00" y="287.5" ></text>
</g>
<g >
<title>allocate_small (141,414,140 samples, 0.97%)</title><rect x="757.9" y="293" width="11.5" height="15.0" fill="rgb(213,123,13)" rx="2" ry="2" />
<text  x="760.93" y="303.5" ></text>
</g>
<g >
<title>[[kernel.kallsyms]] (20,202,020 samples, 0.14%)</title><rect x="10.8" y="213" width="1.7" height="15.0" fill="rgb(223,213,1)" rx="2" ry="2" />
<text  x="13.82" y="223.5" ></text>
</g>
<g >
<title>[[kernel.kallsyms]] (121,212,120 samples, 0.83%)</title><rect x="391.3" y="197" width="9.9" height="15.0" fill="rgb(218,76,47)" rx="2" ry="2" />
<text  x="394.33" y="207.5" ></text>
</g>
<g >
<title>[[kernel.kallsyms]] (30,303,030 samples, 0.21%)</title><rect x="91.8" y="213" width="2.5" height="15.0" fill="rgb(235,171,29)" rx="2" ry="2" />
<text  x="94.83" y="223.5" ></text>
</g>
<g >
<title>[[kernel.kallsyms]] (10,101,010 samples, 0.07%)</title><rect x="35.4" y="245" width="0.8" height="15.0" fill="rgb(213,103,3)" rx="2" ry="2" />
<text  x="38.37" y="255.5" ></text>
</g>
<g >
<title>__pthread_mutex_unlock (272,727,270 samples, 1.87%)</title><rect x="72.2" y="277" width="22.1" height="15.0" fill="rgb(235,101,51)" rx="2" ry="2" />
<text  x="75.19" y="287.5" >_..</text>
</g>
<g >
<title>[[kernel.kallsyms]] (10,101,010 samples, 0.07%)</title><rect x="609.8" y="69" width="0.8" height="15.0" fill="rgb(211,125,35)" rx="2" ry="2" />
<text  x="612.82" y="79.5" ></text>
</g>
<g >
<title>chacha_keystream_bytes.constprop.0 (90,909,090 samples, 0.62%)</title><rect x="769.4" y="293" width="7.4" height="15.0" fill="rgb(218,101,39)" rx="2" ry="2" />
<text  x="772.39" y="303.5" ></text>
</g>
<g >
<title>[[kernel.kallsyms]] (20,202,020 samples, 0.14%)</title><rect x="19.8" y="165" width="1.7" height="15.0" fill="rgb(222,122,27)" rx="2" ry="2" />
<text  x="22.82" y="175.5" ></text>
</g>
<g >
<title>malloc (20,202,020 samples, 0.14%)</title><rect x="10.8" y="293" width="1.7" height="15.0" fill="rgb(253,93,27)" rx="2" ry="2" />
<text  x="13.82" y="303.5" ></text>
</g>
<g >
<title>[[kernel.kallsyms]] (10,101,010 samples, 0.07%)</title><rect x="595.9" y="197" width="0.8" height="15.0" fill="rgb(246,26,45)" rx="2" ry="2" />
<text  x="598.91" y="207.5" ></text>
</g>
<g >
<title>[[kernel.kallsyms]] (20,202,020 samples, 0.14%)</title><rect x="609.0" y="117" width="1.6" height="15.0" fill="rgb(237,28,47)" rx="2" ry="2" />
<text  x="612.00" y="127.5" ></text>
</g>
<g >
<title>__mprotect (70,707,070 samples, 0.49%)</title><rect x="36.2" y="277" width="5.7" height="15.0" fill="rgb(220,92,46)" rx="2" ry="2" />
<text  x="39.19" y="287.5" ></text>
</g>
<g >
<title>__pthread_mutex_unlock (1,818,181,800 samples, 12.48%)</title><rect x="610.6" y="293" width="147.3" height="15.0" fill="rgb(244,19,49)" rx="2" ry="2" />
<text  x="613.64" y="303.5" >__pthread_mutex_un..</text>
</g>
<g >
<title>[[kernel.kallsyms]] (10,101,010 samples, 0.07%)</title><rect x="595.9" y="245" width="0.8" height="15.0" fill="rgb(221,105,6)" rx="2" ry="2" />
<text  x="598.91" y="255.5" ></text>
</g>
<g >
<title>[unknown] (2,010,100,990 samples, 13.80%)</title><rect x="1027.2" y="245" width="162.8" height="15.0" fill="rgb(208,101,0)" rx="2" ry="2" />
<text  x="1030.16" y="255.5" >[unknown]</text>
</g>
<g >
<title>[[kernel.kallsyms]] (30,303,030 samples, 0.21%)</title><rect x="91.8" y="229" width="2.5" height="15.0" fill="rgb(218,120,39)" rx="2" ry="2" />
<text  x="94.83" y="239.5" ></text>
</g>
<g >
<title>[[kernel.kallsyms]] (10,101,010 samples, 0.07%)</title><rect x="13.3" y="213" width="0.8" height="15.0" fill="rgb(205,32,33)" rx="2" ry="2" />
<text  x="16.27" y="223.5" ></text>
</g>
<g >
<title>[[kernel.kallsyms]] (171,717,170 samples, 1.18%)</title><rect x="387.2" y="229" width="14.0" height="15.0" fill="rgb(217,151,43)" rx="2" ry="2" />
<text  x="390.24" y="239.5" ></text>
</g>
<g >
<title>[[kernel.kallsyms]] (10,101,010 samples, 0.07%)</title><rect x="13.3" y="181" width="0.8" height="15.0" fill="rgb(251,95,30)" rx="2" ry="2" />
<text  x="16.27" y="191.5" ></text>
</g>
<g >
<title>[[kernel.kallsyms]] (10,101,010 samples, 0.07%)</title><rect x="13.3" y="261" width="0.8" height="15.0" fill="rgb(241,185,21)" rx="2" ry="2" />
<text  x="16.27" y="271.5" ></text>
</g>
<g >
<title>[[kernel.kallsyms]] (70,707,070 samples, 0.49%)</title><rect x="752.2" y="213" width="5.7" height="15.0" fill="rgb(241,98,25)" rx="2" ry="2" />
<text  x="755.21" y="223.5" ></text>
</g>
<g >
<title>[[kernel.kallsyms]] (20,202,020 samples, 0.14%)</title><rect x="609.0" y="213" width="1.6" height="15.0" fill="rgb(207,141,43)" rx="2" ry="2" />
<text  x="612.00" y="223.5" ></text>
</g>
<g >
<title>[[kernel.kallsyms]] (20,202,020 samples, 0.14%)</title><rect x="92.6" y="165" width="1.7" height="15.0" fill="rgb(236,139,6)" rx="2" ry="2" />
<text  x="95.65" y="175.5" ></text>
</g>
<g >
<title>[bash] (10,101,010 samples, 0.07%)</title><rect x="10.0" y="293" width="0.8" height="15.0" fill="rgb(236,229,16)" rx="2" ry="2" />
<text  x="13.00" y="303.5" ></text>
</g>
<g >
<title>[[kernel.kallsyms]] (2,010,100,990 samples, 13.80%)</title><rect x="1027.2" y="133" width="162.8" height="15.0" fill="rgb(222,42,50)" rx="2" ry="2" />
<text  x="1030.16" y="143.5" >[[kernel.kallsyms]]</text>
</g>
<g >
<title>[[kernel.kallsyms]] (10,101,010 samples, 0.07%)</title><rect x="13.3" y="245" width="0.8" height="15.0" fill="rgb(243,183,46)" rx="2" ry="2" />
<text  x="16.27" y="255.5" ></text>
</g>
<g >
<title>[[kernel.kallsyms]] (30,303,030 samples, 0.21%)</title><rect x="19.0" y="229" width="2.5" height="15.0" fill="rgb(253,73,37)" rx="2" ry="2" />
<text  x="22.00" y="239.5" ></text>
</g>
<g >
<title>[[kernel.kallsyms]] (10,101,010 samples, 0.07%)</title><rect x="13.3" y="229" width="0.8" height="15.0" fill="rgb(239,72,3)" rx="2" ry="2" />
<text  x="16.27" y="239.5" ></text>
</g>
<g >
<title>[[kernel.kallsyms]] (20,202,020 samples, 0.14%)</title><rect x="609.0" y="197" width="1.6" height="15.0" fill="rgb(216,213,47)" rx="2" ry="2" />
<text  x="612.00" y="207.5" ></text>
</g>
<g >
<title>[[kernel.kallsyms]] (70,707,070 samples, 0.49%)</title><rect x="36.2" y="261" width="5.7" height="15.0" fill="rgb(223,65,35)" rx="2" ry="2" />
<text  x="39.19" y="271.5" ></text>
</g>
<g >
<title>[[kernel.kallsyms]] (2,272,727,250 samples, 15.60%)</title><rect x="843.0" y="213" width="184.2" height="15.0" fill="rgb(217,169,31)" rx="2" ry="2" />
<text  x="846.04" y="223.5" >[[kernel.kallsyms]]</text>
</g>
<g >
<title>[[kernel.kallsyms]] (20,202,020 samples, 0.14%)</title><rect x="19.8" y="197" width="1.7" height="15.0" fill="rgb(239,48,45)" rx="2" ry="2" />
<text  x="22.82" y="207.5" ></text>
</g>
<g >
<title>[[kernel.kallsyms]] (10,101,010 samples, 0.07%)</title><rect x="595.9" y="229" width="0.8" height="15.0" fill="rgb(219,140,18)" rx="2" ry="2" />
<text  x="598.91" y="239.5" ></text>
</g>
<g >
<title>[[kernel.kallsyms]] (30,303,030 samples, 0.21%)</title><rect x="91.8" y="197" width="2.5" height="15.0" fill="rgb(249,62,33)" rx="2" ry="2" />
<text  x="94.83" y="207.5" ></text>
</g>
<g >
<title>[unknown] (2,010,100,990 samples, 13.80%)</title><rect x="1027.2" y="277" width="162.8" height="15.0" fill="rgb(246,84,28)" rx="2" ry="2" />
<text  x="1030.16" y="287.5" >[unknown]</text>
</g>
<g >
<title>[[kernel.kallsyms]] (10,101,010 samples, 0.07%)</title><rect x="11.6" y="117" width="0.9" height="15.0" fill="rgb(243,122,33)" rx="2" ry="2" />
<text  x="14.64" y="127.5" ></text>
</g>
<g >
<title>larson-sized (10,242,424,140 samples, 70.32%)</title><rect x="13.3" y="309" width="829.7" height="15.0" fill="rgb(222,56,3)" rx="2" ry="2" />
<text  x="16.27" y="319.5" >larson-sized</text>
</g>
<g >
<title>[[kernel.kallsyms]] (20,202,020 samples, 0.14%)</title><rect x="10.8" y="277" width="1.7" height="15.0" fill="rgb(234,164,15)" rx="2" ry="2" />
<text  x="13.82" y="287.5" ></text>
</g>
<g >
<title>[[kernel.kallsyms]] (20,202,020 samples, 0.14%)</title><rect x="19.8" y="213" width="1.7" height="15.0" fill="rgb(245,172,0)" rx="2" ry="2" />
<text  x="22.82" y="223.5" ></text>
</g>
<g >
<title>[[kernel.kallsyms]] (10,101,010 samples, 0.07%)</title><rect x="13.3" y="277" width="0.8" height="15.0" fill="rgb(209,109,32)" rx="2" ry="2" />
<text  x="16.27" y="287.5" ></text>
</g>
<g >
<title>[[kernel.kallsyms]] (20,202,020 samples, 0.14%)</title><rect x="609.0" y="133" width="1.6" height="15.0" fill="rgb(253,128,11)" rx="2" ry="2" />
<text  x="612.00" y="143.5" ></text>
</g>
<g >
<title>[[kernel.kallsyms]] (80,808,080 samples, 0.55%)</title><rect x="394.6" y="149" width="6.6" height="15.0" fill="rgb(224,175,23)" rx="2" ry="2" />
<text  x="397.60" y="159.5" ></text>
</g>
<g >
<title>[[kernel.kallsyms]] (60,606,060 samples, 0.42%)</title><rect x="396.2" y="117" width="5.0" height="15.0" fill="rgb(219,183,9)" rx="2" ry="2" />
<text  x="399.24" y="127.5" ></text>
</g>
<g >
<title>[[kernel.kallsyms]] (60,606,060 samples, 0.42%)</title><rect x="37.0" y="213" width="4.9" height="15.0" fill="rgb(212,138,26)" rx="2" ry="2" />
<text  x="40.00" y="223.5" ></text>
</g>
<g >
<title>[[kernel.kallsyms]] (171,717,170 samples, 1.18%)</title><rect x="387.2" y="261" width="14.0" height="15.0" fill="rgb(242,163,47)" rx="2" ry="2" />
<text  x="390.24" y="271.5" ></text>
</g>
<g >
<title>[[kernel.kallsyms]] (10,101,010 samples, 0.07%)</title><rect x="13.3" y="293" width="0.8" height="15.0" fill="rgb(222,96,6)" rx="2" ry="2" />
<text  x="16.27" y="303.5" ></text>
</g>
<g >
<title>[[kernel.kallsyms]] (10,101,010 samples, 0.07%)</title><rect x="35.4" y="261" width="0.8" height="15.0" fill="rgb(223,139,7)" rx="2" ry="2" />
<text  x="38.37" y="271.5" ></text>
</g>
<g >
<title>[[kernel.kallsyms]] (10,101,010 samples, 0.07%)</title><rect x="11.6" y="101" width="0.9" height="15.0" fill="rgb(230,116,38)" rx="2" ry="2" />
<text  x="14.64" y="111.5" ></text>
</g>
<g >
<title>[unknown] (2,010,100,990 samples, 13.80%)</title><rect x="1027.2" y="261" width="162.8" height="15.0" fill="rgb(226,204,7)" rx="2" ry="2" />
<text  x="1030.16" y="271.5" >[unknown]</text>
</g>
<g >
<title>swapper (4,282,828,240 samples, 29.40%)</title><rect x="843.0" y="309" width="347.0" height="15.0" fill="rgb(219,51,1)" rx="2" ry="2" />
<text  x="846.04" y="319.5" >swapper</text>
</g>
<g >
<title>__memset_avx2_unaligned_erms (181,818,180 samples, 1.25%)</title><rect x="21.5" y="277" width="14.7" height="15.0" fill="rgb(245,68,26)" rx="2" ry="2" />
<text  x="24.46" y="287.5" ></text>
</g>
<g >
<title>allocate_small (3,787,878,750 samples, 26.01%)</title><rect x="94.3" y="277" width="306.9" height="15.0" fill="rgb(249,101,17)" rx="2" ry="2" />
<text  x="97.29" y="287.5" >allocate_small</text>
</g>
<g >
<title>[[kernel.kallsyms]] (70,707,070 samples, 0.49%)</title><rect x="36.2" y="245" width="5.7" height="15.0" fill="rgb(224,0,7)" rx="2" ry="2" />
<text  x="39.19" y="255.5" ></text>
</g>
<g >
<title>get_random_u16_uniform (30,303,030 samples, 0.21%)</title><rect x="838.9" y="293" width="2.5" height="15.0" fill="rgb(208,172,47)" rx="2" ry="2" />
<text  x="841.95" y="303.5" ></text>
</g>
<g >
<title>[[kernel.kallsyms]] (10,101,010 samples, 0.07%)</title><rect x="13.3" y="149" width="0.8" height="15.0" fill="rgb(244,213,48)" rx="2" ry="2" />
<text  x="16.27" y="159.5" ></text>
</g>
<g >
<title>[[kernel.kallsyms]] (2,010,100,990 samples, 13.80%)</title><rect x="1027.2" y="197" width="162.8" height="15.0" fill="rgb(228,225,53)" rx="2" ry="2" />
<text  x="1030.16" y="207.5" >[[kernel.kallsyms]]</text>
</g>
<g >
<title>[unknown] (2,010,100,990 samples, 13.80%)</title><rect x="1027.2" y="229" width="162.8" height="15.0" fill="rgb(233,183,8)" rx="2" ry="2" />
<text  x="1030.16" y="239.5" >[unknown]</text>
</g>
<g >
<title>[[kernel.kallsyms]] (40,404,040 samples, 0.28%)</title><rect x="38.6" y="149" width="3.3" height="15.0" fill="rgb(213,30,0)" rx="2" ry="2" />
<text  x="41.64" y="159.5" ></text>
</g>
<g >
<title>[[kernel.kallsyms]] (20,202,020 samples, 0.14%)</title><rect x="609.0" y="165" width="1.6" height="15.0" fill="rgb(216,25,40)" rx="2" ry="2" />
<text  x="612.00" y="175.5" ></text>
</g>
<g >
<title>all (14,565,656,420 samples, 100%)</title><rect x="10.0" y="325" width="1180.0" height="15.0" fill="rgb(225,69,43)" rx="2" ry="2" />
<text  x="13.00" y="335.5" ></text>
</g>
<g >
<title>[[kernel.kallsyms]] (2,272,727,250 samples, 15.60%)</title><rect x="843.0" y="197" width="184.2" height="15.0" fill="rgb(226,67,27)" rx="2" ry="2" />
<text  x="846.04" y="207.5" >[[kernel.kallsyms]]</text>
</g>
<g >
<title>[[kernel.kallsyms]] (10,101,010 samples, 0.07%)</title><rect x="609.8" y="101" width="0.8" height="15.0" fill="rgb(237,6,30)" rx="2" ry="2" />
<text  x="612.82" y="111.5" ></text>
</g>
</g>
</svg>
