<?xml version="1.0" standalone="no"?>
<!DOCTYPE svg PUBLIC "-//W3C//DTD SVG 1.1//EN" "http://www.w3.org/Graphics/SVG/1.1/DTD/svg11.dtd">
<svg version="1.1" width="1200" height="310" onload="init(evt)" viewBox="0 0 1200 310" xmlns="http://www.w3.org/2000/svg" xmlns:xlink="http://www.w3.org/1999/xlink">
<!-- Flame graph stack visualization. See https://github.com/brendangregg/FlameGraph for latest version, and http://www.brendangregg.com/flamegraphs.html for examples. -->
<!-- NOTES:  -->
<defs>
	<linearGradient id="background" y1="0" y2="1" x1="0" x2="0" >
		<stop stop-color="#eeeeee" offset="5%" />
		<stop stop-color="#eeeeb0" offset="95%" />
	</linearGradient>
</defs>
<style type="text/css">
	text { font-family:Verdana; font-size:12px; fill:rgb(0,0,0); }
	#search, #ignorecase { opacity:0.1; cursor:pointer; }
	#search:hover, #search.show, #ignorecase:hover, #ignorecase.show { opacity:1; }
	#subtitle { text-anchor:middle; font-color:rgb(160,160,160); }
	#title { text-anchor:middle; font-size:17px}
	#unzoom { cursor:pointer; }
	#frames > *:hover { stroke:black; stroke-width:0.5; cursor:pointer; }
	.hide { display:none; }
	.parent { opacity:0.5; }
</style>
<script type="text/ecmascript">
<![CDATA[
	"use strict";
	var details, searchbtn, unzoombtn, matchedtxt, svg, searching, currentSearchTerm, ignorecase, ignorecaseBtn;
	function init(evt) {
		details = document.getElementById("details").firstChild;
		searchbtn = document.getElementById("search");
		ignorecaseBtn = document.getElementById("ignorecase");
		unzoombtn = document.getElementById("unzoom");
		matchedtxt = document.getElementById("matched");
		svg = document.getElementsByTagName("svg")[0];
		searching = 0;
		currentSearchTerm = null;

		// use GET parameters to restore a flamegraphs state.
		var params = get_params();
		if (params.x && params.y)
			zoom(find_group(document.querySelector('[x="' + params.x + '"][y="' + params.y + '"]')));
                if (params.s) search(params.s);
	}

	// event listeners
	window.addEventListener("click", function(e) {
		var target = find_group(e.target);
		if (target) {
			if (target.nodeName == "a") {
				if (e.ctrlKey === false) return;
				e.preventDefault();
			}
			if (target.classList.contains("parent")) unzoom(true);
			zoom(target);
			if (!document.querySelector('.parent')) {
				// we have basically done a clearzoom so clear the url
				var params = get_params();
				if (params.x) delete params.x;
				if (params.y) delete params.y;
				history.replaceState(null, null, parse_params(params));
				unzoombtn.classList.add("hide");
				return;
			}

			// set parameters for zoom state
			var el = target.querySelector("rect");
			if (el && el.attributes && el.attributes.y && el.attributes._orig_x) {
				var params = get_params()
				params.x = el.attributes._orig_x.value;
				params.y = el.attributes.y.value;
				history.replaceState(null, null, parse_params(params));
			}
		}
		else if (e.target.id == "unzoom") clearzoom();
		else if (e.target.id == "search") search_prompt();
		else if (e.target.id == "ignorecase") toggle_ignorecase();
	}, false)

	// mouse-over for info
	// show
	window.addEventListener("mouseover", function(e) {
		var target = find_group(e.target);
		if (target) details.nodeValue = "Function: " + g_to_text(target);
	}, false)

	// clear
	window.addEventListener("mouseout", function(e) {
		var target = find_group(e.target);
		if (target) details.nodeValue = ' ';
	}, false)

	// ctrl-F for search
	// ctrl-I to toggle case-sensitive search
	window.addEventListener("keydown",function (e) {
		if (e.keyCode === 114 || (e.ctrlKey && e.keyCode === 70)) {
			e.preventDefault();
			search_prompt();
		}
		else if (e.ctrlKey && e.keyCode === 73) {
			e.preventDefault();
			toggle_ignorecase();
		}
	}, false)

	// functions
	function get_params() {
		var params = {};
		var paramsarr = window.location.search.substr(1).split('&');
		for (var i = 0; i < paramsarr.length; ++i) {
			var tmp = paramsarr[i].split("=");
			if (!tmp[0] || !tmp[1]) continue;
			params[tmp[0]]  = decodeURIComponent(tmp[1]);
		}
		return params;
	}
	function parse_params(params) {
		var uri = "?";
		for (var key in params) {
			uri += key + '=' + encodeURIComponent(params[key]) + '&';
		}
		if (uri.slice(-1) == "&")
			uri = uri.substring(0, uri.length - 1);
		if (uri == '?')
			uri = window.location.href.split('?')[0];
		return uri;
	}
	function find_child(node, selector) {
		var children = node.querySelectorAll(selector);
		if (children.length) return children[0];
	}
	function find_group(node) {
		var parent = node.parentElement;
		if (!parent) return;
		if (parent.id == "frames") return node;
		return find_group(parent);
	}
	function orig_save(e, attr, val) {
		if (e.attributes["_orig_" + attr] != undefined) return;
		if (e.attributes[attr] == undefined) return;
		if (val == undefined) val = e.attributes[attr].value;
		e.setAttribute("_orig_" + attr, val);
	}
	function orig_load(e, attr) {
		if (e.attributes["_orig_"+attr] == undefined) return;
		e.attributes[attr].value = e.attributes["_orig_" + attr].value;
		e.removeAttribute("_orig_"+attr);
	}
	function g_to_text(e) {
		var text = find_child(e, "title").firstChild.nodeValue;
		return (text)
	}
	function g_to_func(e) {
		var func = g_to_text(e);
		// if there's any manipulation we want to do to the function
		// name before it's searched, do it here before returning.
		return (func);
	}
	function update_text(e) {
		var r = find_child(e, "rect");
		var t = find_child(e, "text");
		var w = parseFloat(r.attributes.width.value) -3;
		var txt = find_child(e, "title").textContent.replace(/\([^(]*\)$/,"");
		t.attributes.x.value = parseFloat(r.attributes.x.value) + 3;

		// Smaller than this size won't fit anything
		if (w < 2 * 12 * 0.59) {
			t.textContent = "";
			return;
		}

		t.textContent = txt;
		var sl = t.getSubStringLength(0, txt.length);
		// check if only whitespace or if we can fit the entire string into width w
		if (/^ *$/.test(txt) || sl < w)
			return;

		// this isn't perfect, but gives a good starting point
		// and avoids calling getSubStringLength too often
		var start = Math.floor((w/sl) * txt.length);
		for (var x = start; x > 0; x = x-2) {
			if (t.getSubStringLength(0, x + 2) <= w) {
				t.textContent = txt.substring(0, x) + "..";
				return;
			}
		}
		t.textContent = "";
	}

	// zoom
	function zoom_reset(e) {
		if (e.attributes != undefined) {
			orig_load(e, "x");
			orig_load(e, "width");
		}
		if (e.childNodes == undefined) return;
		for (var i = 0, c = e.childNodes; i < c.length; i++) {
			zoom_reset(c[i]);
		}
	}
	function zoom_child(e, x, ratio) {
		if (e.attributes != undefined) {
			if (e.attributes.x != undefined) {
				orig_save(e, "x");
				e.attributes.x.value = (parseFloat(e.attributes.x.value) - x - 10) * ratio + 10;
				if (e.tagName == "text")
					e.attributes.x.value = find_child(e.parentNode, "rect[x]").attributes.x.value + 3;
			}
			if (e.attributes.width != undefined) {
				orig_save(e, "width");
				e.attributes.width.value = parseFloat(e.attributes.width.value) * ratio;
			}
		}

		if (e.childNodes == undefined) return;
		for (var i = 0, c = e.childNodes; i < c.length; i++) {
			zoom_child(c[i], x - 10, ratio);
		}
	}
	function zoom_parent(e) {
		if (e.attributes) {
			if (e.attributes.x != undefined) {
				orig_save(e, "x");
				e.attributes.x.value = 10;
			}
			if (e.attributes.width != undefined) {
				orig_save(e, "width");
				e.attributes.width.value = parseInt(svg.width.baseVal.value) - (10 * 2);
			}
		}
		if (e.childNodes == undefined) return;
		for (var i = 0, c = e.childNodes; i < c.length; i++) {
			zoom_parent(c[i]);
		}
	}
	function zoom(node) {
		var attr = find_child(node, "rect").attributes;
		var width = parseFloat(attr.width.value);
		var xmin = parseFloat(attr.x.value);
		var xmax = parseFloat(xmin + width);
		var ymin = parseFloat(attr.y.value);
		var ratio = (svg.width.baseVal.value - 2 * 10) / width;

		// XXX: Workaround for JavaScript float issues (fix me)
		var fudge = 0.0001;

		unzoombtn.classList.remove("hide");

		var el = document.getElementById("frames").children;
		for (var i = 0; i < el.length; i++) {
			var e = el[i];
			var a = find_child(e, "rect").attributes;
			var ex = parseFloat(a.x.value);
			var ew = parseFloat(a.width.value);
			var upstack;
			// Is it an ancestor
			if (0 == 0) {
				upstack = parseFloat(a.y.value) > ymin;
			} else {
				upstack = parseFloat(a.y.value) < ymin;
			}
			if (upstack) {
				// Direct ancestor
				if (ex <= xmin && (ex+ew+fudge) >= xmax) {
					e.classList.add("parent");
					zoom_parent(e);
					update_text(e);
				}
				// not in current path
				else
					e.classList.add("hide");
			}
			// Children maybe
			else {
				// no common path
				if (ex < xmin || ex + fudge >= xmax) {
					e.classList.add("hide");
				}
				else {
					zoom_child(e, xmin, ratio);
					update_text(e);
				}
			}
		}
		search();
	}
	function unzoom(dont_update_text) {
		unzoombtn.classList.add("hide");
		var el = document.getElementById("frames").children;
		for(var i = 0; i < el.length; i++) {
			el[i].classList.remove("parent");
			el[i].classList.remove("hide");
			zoom_reset(el[i]);
			if(!dont_update_text) update_text(el[i]);
		}
		search();
	}
	function clearzoom() {
		unzoom();

		// remove zoom state
		var params = get_params();
		if (params.x) delete params.x;
		if (params.y) delete params.y;
		history.replaceState(null, null, parse_params(params));
	}

	// search
	function toggle_ignorecase() {
		ignorecase = !ignorecase;
		if (ignorecase) {
			ignorecaseBtn.classList.add("show");
		} else {
			ignorecaseBtn.classList.remove("show");
		}
		reset_search();
		search();
	}
	function reset_search() {
		var el = document.querySelectorAll("#frames rect");
		for (var i = 0; i < el.length; i++) {
			orig_load(el[i], "fill")
		}
		var params = get_params();
		delete params.s;
		history.replaceState(null, null, parse_params(params));
	}
	function search_prompt() {
		if (!searching) {
			var term = prompt("Enter a search term (regexp " +
			    "allowed, eg: ^ext4_)"
			    + (ignorecase ? ", ignoring case" : "")
			    + "\nPress Ctrl-i to toggle case sensitivity", "");
			if (term != null) search(term);
		} else {
			reset_search();
			searching = 0;
			currentSearchTerm = null;
			searchbtn.classList.remove("show");
			searchbtn.firstChild.nodeValue = "Search"
			matchedtxt.classList.add("hide");
			matchedtxt.firstChild.nodeValue = ""
		}
	}
	function search(term) {
		if (term) currentSearchTerm = term;

		var re = new RegExp(currentSearchTerm, ignorecase ? 'i' : '');
		var el = document.getElementById("frames").children;
		var matches = new Object();
		var maxwidth = 0;
		for (var i = 0; i < el.length; i++) {
			var e = el[i];
			var func = g_to_func(e);
			var rect = find_child(e, "rect");
			if (func == null || rect == null)
				continue;

			// Save max width. Only works as we have a root frame
			var w = parseFloat(rect.attributes.width.value);
			if (w > maxwidth)
				maxwidth = w;

			if (func.match(re)) {
				// highlight
				var x = parseFloat(rect.attributes.x.value);
				orig_save(rect, "fill");
				rect.attributes.fill.value = "rgb(230,0,230)";

				// remember matches
				if (matches[x] == undefined) {
					matches[x] = w;
				} else {
					if (w > matches[x]) {
						// overwrite with parent
						matches[x] = w;
					}
				}
				searching = 1;
			}
		}
		if (!searching)
			return;
		var params = get_params();
		params.s = currentSearchTerm;
		history.replaceState(null, null, parse_params(params));

		searchbtn.classList.add("show");
		searchbtn.firstChild.nodeValue = "Reset Search";

		// calculate percent matched, excluding vertical overlap
		var count = 0;
		var lastx = -1;
		var lastw = 0;
		var keys = Array();
		for (k in matches) {
			if (matches.hasOwnProperty(k))
				keys.push(k);
		}
		// sort the matched frames by their x location
		// ascending, then width descending
		keys.sort(function(a, b){
			return a - b;
		});
		// Step through frames saving only the biggest bottom-up frames
		// thanks to the sort order. This relies on the tree property
		// where children are always smaller than their parents.
		var fudge = 0.0001;	// JavaScript floating point
		for (var k in keys) {
			var x = parseFloat(keys[k]);
			var w = matches[keys[k]];
			if (x >= lastx + lastw - fudge) {
				count += w;
				lastx = x;
				lastw = w;
			}
		}
		// display matched percent
		matchedtxt.classList.remove("hide");
		var pct = 100 * count / maxwidth;
		if (pct != 100) pct = pct.toFixed(1)
		matchedtxt.firstChild.nodeValue = "Matched: " + pct + "%";
	}
]]>
</script>
<rect x="0.0" y="0" width="1200.0" height="310.0" fill="url(#background)"  />
<text id="title" x="600.00" y="24" >Flame Graph</text>
<text id="details" x="10.00" y="293" > </text>
<text id="unzoom" x="10.00" y="24" class="hide">Reset Zoom</text>
<text id="search" x="1090.00" y="24" >Search</text>
<text id="ignorecase" x="1174.00" y="24" >ic</text>
<text id="matched" x="1090.00" y="293" > </text>
<g id="frames">
<g >
<title>[[kernel.kallsyms]] (10,101,010 samples, 0.07%)</title><rect x="11.7" y="149" width="0.8" height="15.0" fill="rgb(234,151,24)" rx="2" ry="2" />
<text  x="14.68" y="159.5" ></text>
</g>
<g >
<title>[[kernel.kallsyms]] (10,101,010 samples, 0.07%)</title><rect x="16.7" y="53" width="0.9" height="15.0" fill="rgb(235,117,35)" rx="2" ry="2" />
<text  x="19.72" y="63.5" ></text>
</g>
<g >
<title>[[kernel.kallsyms]] (10,101,010 samples, 0.07%)</title><rect x="16.7" y="165" width="0.9" height="15.0" fill="rgb(247,23,45)" rx="2" ry="2" />
<text  x="19.72" y="175.5" ></text>
</g>
<g >
<title>[[kernel.kallsyms]] (10,101,010 samples, 0.07%)</title><rect x="16.7" y="133" width="0.9" height="15.0" fill="rgb(235,192,45)" rx="2" ry="2" />
<text  x="19.72" y="143.5" ></text>
</g>
<g >
<title>[larson-sized] (191,919,190 samples, 1.35%)</title><rect x="17.6" y="229" width="15.9" height="15.0" fill="rgb(218,141,38)" rx="2" ry="2" />
<text  x="20.56" y="239.5" ></text>
</g>
<g >
<title>[[kernel.kallsyms]] (2,050,505,030 samples, 14.46%)</title><rect x="851.3" y="197" width="170.6" height="15.0" fill="rgb(216,91,28)" rx="2" ry="2" />
<text  x="854.30" y="207.5" >[[kernel.kallsyms]]</text>
</g>
<g >
<title>[[kernel.kallsyms]] (10,101,010 samples, 0.07%)</title><rect x="16.7" y="197" width="0.9" height="15.0" fill="rgb(241,37,46)" rx="2" ry="2" />
<text  x="19.72" y="207.5" ></text>
</g>
<g >
<title>ksoftirqd/0 (10,101,010 samples, 0.07%)</title><rect x="13.4" y="245" width="0.8" height="15.0" fill="rgb(225,24,18)" rx="2" ry="2" />
<text  x="16.36" y="255.5" ></text>
</g>
<g >
<title>[[kernel.kallsyms]] (2,020,202,000 samples, 14.25%)</title><rect x="1021.9" y="117" width="168.1" height="15.0" fill="rgb(240,153,12)" rx="2" ry="2" />
<text  x="1024.91" y="127.5" >[[kernel.kallsyms]]</text>
</g>
<g >
<title>[[kernel.kallsyms]] (20,202,020 samples, 0.14%)</title><rect x="42.8" y="181" width="1.7" height="15.0" fill="rgb(250,53,22)" rx="2" ry="2" />
<text  x="45.78" y="191.5" ></text>
</g>
<g >
<title>[[kernel.kallsyms]] (10,101,010 samples, 0.07%)</title><rect x="16.7" y="85" width="0.9" height="15.0" fill="rgb(225,185,6)" rx="2" ry="2" />
<text  x="19.72" y="95.5" ></text>
</g>
<g >
<title>[[kernel.kallsyms]] (20,202,020 samples, 0.14%)</title><rect x="42.8" y="165" width="1.7" height="15.0" fill="rgb(224,120,29)" rx="2" ry="2" />
<text  x="45.78" y="175.5" ></text>
</g>
<g >
<title>[[kernel.kallsyms]] (10,101,010 samples, 0.07%)</title><rect x="16.7" y="181" width="0.9" height="15.0" fill="rgb(238,48,43)" rx="2" ry="2" />
<text  x="19.72" y="191.5" ></text>
</g>
<g >
<title>[[kernel.kallsyms]] (10,101,010 samples, 0.07%)</title><rect x="16.7" y="69" width="0.9" height="15.0" fill="rgb(217,110,52)" rx="2" ry="2" />
<text  x="19.72" y="79.5" ></text>
</g>
<g >
<title>[[kernel.kallsyms]] (20,202,020 samples, 0.14%)</title><rect x="848.8" y="181" width="1.7" height="15.0" fill="rgb(213,27,3)" rx="2" ry="2" />
<text  x="851.77" y="191.5" ></text>
</g>
<g >
<title>[[kernel.kallsyms]] (10,101,010 samples, 0.07%)</title><rect x="40.3" y="133" width="0.8" height="15.0" fill="rgb(241,179,8)" rx="2" ry="2" />
<text  x="43.26" y="143.5" ></text>
</g>
<g >
<title>[[kernel.kallsyms]] (10,101,010 samples, 0.07%)</title><rect x="12.5" y="197" width="0.9" height="15.0" fill="rgb(226,200,38)" rx="2" ry="2" />
<text  x="15.52" y="207.5" ></text>
</g>
<g >
<title>[[kernel.kallsyms]] (20,202,020 samples, 0.14%)</title><rect x="348.7" y="197" width="1.7" height="15.0" fill="rgb(209,30,22)" rx="2" ry="2" />
<text  x="351.70" y="207.5" ></text>
</g>
<g >
<title>[[kernel.kallsyms]] (10,101,010 samples, 0.07%)</title><rect x="850.5" y="149" width="0.8" height="15.0" fill="rgb(247,199,0)" rx="2" ry="2" />
<text  x="853.46" y="159.5" ></text>
</g>
<g >
<title>redis-server (10,101,010 samples, 0.07%)</title><rect x="850.5" y="245" width="0.8" height="15.0" fill="rgb(249,107,3)" rx="2" ry="2" />
<text  x="853.46" y="255.5" ></text>
</g>
<g >
<title>[[kernel.kallsyms]] (10,101,010 samples, 0.07%)</title><rect x="11.7" y="165" width="0.8" height="15.0" fill="rgb(237,128,32)" rx="2" ry="2" />
<text  x="14.68" y="175.5" ></text>
</g>
<g >
<title>[[kernel.kallsyms]] (20,202,020 samples, 0.14%)</title><rect x="848.8" y="117" width="1.7" height="15.0" fill="rgb(227,219,53)" rx="2" ry="2" />
<text  x="851.77" y="127.5" ></text>
</g>
<g >
<title>[[kernel.kallsyms]] (2,050,505,030 samples, 14.46%)</title><rect x="851.3" y="165" width="170.6" height="15.0" fill="rgb(253,68,19)" rx="2" ry="2" />
<text  x="854.30" y="175.5" >[[kernel.kallsyms]]</text>
</g>
<g >
<title>[[kernel.kallsyms]] (10,101,010 samples, 0.07%)</title><rect x="12.5" y="149" width="0.9" height="15.0" fill="rgb(219,31,44)" rx="2" ry="2" />
<text  x="15.52" y="159.5" ></text>
</g>
<g >
<title>[unknown] (2,020,202,000 samples, 14.25%)</title><rect x="1021.9" y="181" width="168.1" height="15.0" fill="rgb(218,19,37)" rx="2" ry="2" />
<text  x="1024.91" y="191.5" >[unknown]</text>
</g>
<g >
<title>[[kernel.kallsyms]] (20,202,020 samples, 0.14%)</title><rect x="848.8" y="197" width="1.7" height="15.0" fill="rgb(238,122,18)" rx="2" ry="2" />
<text  x="851.77" y="207.5" ></text>
</g>
<g >
<title>[[kernel.kallsyms]] (10,101,010 samples, 0.07%)</title><rect x="349.5" y="53" width="0.9" height="15.0" fill="rgb(232,123,3)" rx="2" ry="2" />
<text  x="352.54" y="63.5" ></text>
</g>
<g >
<title>dispose_redirects (10,101,010 samples, 0.07%)</title><rect x="10.0" y="197" width="0.8" height="15.0" fill="rgb(220,11,33)" rx="2" ry="2" />
<text  x="13.00" y="207.5" ></text>
</g>
<g >
<title>[[kernel.kallsyms]] (10,101,010 samples, 0.07%)</title><rect x="12.5" y="181" width="0.9" height="15.0" fill="rgb(232,219,49)" rx="2" ry="2" />
<text  x="15.52" y="191.5" ></text>
</g>
<g >
<title>[[kernel.kallsyms]] (10,101,010 samples, 0.07%)</title><rect x="40.3" y="149" width="0.8" height="15.0" fill="rgb(207,70,10)" rx="2" ry="2" />
<text  x="43.26" y="159.5" ></text>
</g>
<g >
<title>__mmap (10,101,010 samples, 0.07%)</title><rect x="12.5" y="229" width="0.9" height="15.0" fill="rgb(224,26,40)" rx="2" ry="2" />
<text  x="15.52" y="239.5" ></text>
</g>
<g >
<title>[[kernel.kallsyms]] (10,101,010 samples, 0.07%)</title><rect x="16.7" y="37" width="0.9" height="15.0" fill="rgb(245,21,21)" rx="2" ry="2" />
<text  x="19.72" y="47.5" ></text>
</g>
<g >
<title>[[kernel.kallsyms]] (2,020,202,000 samples, 14.25%)</title><rect x="1021.9" y="133" width="168.1" height="15.0" fill="rgb(252,73,39)" rx="2" ry="2" />
<text  x="1024.91" y="143.5" >[[kernel.kallsyms]]</text>
</g>
<g >
<title>[[kernel.kallsyms]] (10,101,010 samples, 0.07%)</title><rect x="849.6" y="101" width="0.9" height="15.0" fill="rgb(237,229,42)" rx="2" ry="2" />
<text  x="852.62" y="111.5" ></text>
</g>
<g >
<title>[[kernel.kallsyms]] (20,202,020 samples, 0.14%)</title><rect x="848.8" y="165" width="1.7" height="15.0" fill="rgb(236,191,23)" rx="2" ry="2" />
<text  x="851.77" y="175.5" ></text>
</g>
<g >
<title>[[kernel.kallsyms]] (10,101,010 samples, 0.07%)</title><rect x="850.5" y="197" width="0.8" height="15.0" fill="rgb(235,151,54)" rx="2" ry="2" />
<text  x="853.46" y="207.5" ></text>
</g>
<g >
<title>[[kernel.kallsyms]] (20,202,020 samples, 0.14%)</title><rect x="348.7" y="181" width="1.7" height="15.0" fill="rgb(226,176,28)" rx="2" ry="2" />
<text  x="351.70" y="191.5" ></text>
</g>
<g >
<title>[[kernel.kallsyms]] (10,101,010 samples, 0.07%)</title><rect x="13.4" y="213" width="0.8" height="15.0" fill="rgb(243,203,10)" rx="2" ry="2" />
<text  x="16.36" y="223.5" ></text>
</g>
<g >
<title>swapper (4,070,707,030 samples, 28.70%)</title><rect x="851.3" y="245" width="338.7" height="15.0" fill="rgb(228,90,31)" rx="2" ry="2" />
<text  x="854.30" y="255.5" >swapper</text>
</g>
<g >
<title>[unknown] (2,020,202,000 samples, 14.25%)</title><rect x="1021.9" y="197" width="168.1" height="15.0" fill="rgb(222,62,43)" rx="2" ry="2" />
<text  x="1024.91" y="207.5" >[unknown]</text>
</g>
<g >
<title>[[kernel.kallsyms]] (2,020,202,000 samples, 14.25%)</title><rect x="1021.9" y="85" width="168.1" height="15.0" fill="rgb(241,142,49)" rx="2" ry="2" />
<text  x="1024.91" y="95.5" >[[kernel.kallsyms]]</text>
</g>
<g >
<title>all (14,181,818,040 samples, 100%)</title><rect x="10.0" y="261" width="1180.0" height="15.0" fill="rgb(236,110,17)" rx="2" ry="2" />
<text  x="13.00" y="271.5" ></text>
</g>
<g >
<title>[[kernel.kallsyms]] (2,020,202,000 samples, 14.25%)</title><rect x="1021.9" y="101" width="168.1" height="15.0" fill="rgb(209,54,50)" rx="2" ry="2" />
<text  x="1024.91" y="111.5" >[[kernel.kallsyms]]</text>
</g>
<g >
<title>[[kernel.kallsyms]] (10,101,010 samples, 0.07%)</title><rect x="349.5" y="101" width="0.9" height="15.0" fill="rgb(226,109,5)" rx="2" ry="2" />
<text  x="352.54" y="111.5" ></text>
</g>
<g >
<title>[[kernel.kallsyms]] (20,202,020 samples, 0.14%)</title><rect x="42.8" y="149" width="1.7" height="15.0" fill="rgb(252,21,17)" rx="2" ry="2" />
<text  x="45.78" y="159.5" ></text>
</g>
<g >
<title>__open64 (10,101,010 samples, 0.07%)</title><rect x="850.5" y="213" width="0.8" height="15.0" fill="rgb(205,105,37)" rx="2" ry="2" />
<text  x="853.46" y="223.5" ></text>
</g>
<g >
<title>dirname (10,101,010 samples, 0.07%)</title><rect x="12.5" y="245" width="0.9" height="15.0" fill="rgb(241,224,24)" rx="2" ry="2" />
<text  x="15.52" y="255.5" ></text>
</g>
<g >
<title>[[kernel.kallsyms]] (20,202,020 samples, 0.14%)</title><rect x="42.8" y="117" width="1.7" height="15.0" fill="rgb(215,180,13)" rx="2" ry="2" />
<text  x="45.78" y="127.5" ></text>
</g>
<g >
<title>[[kernel.kallsyms]] (10,101,010 samples, 0.07%)</title><rect x="13.4" y="229" width="0.8" height="15.0" fill="rgb(244,16,47)" rx="2" ry="2" />
<text  x="16.36" y="239.5" ></text>
</g>
<g >
<title>[[kernel.kallsyms]] (10,101,010 samples, 0.07%)</title><rect x="349.5" y="85" width="0.9" height="15.0" fill="rgb(220,125,16)" rx="2" ry="2" />
<text  x="352.54" y="95.5" ></text>
</g>
<g >
<title>[unknown] (10,101,010 samples, 0.07%)</title><rect x="39.4" y="197" width="0.9" height="15.0" fill="rgb(215,163,49)" rx="2" ry="2" />
<text  x="42.42" y="207.5" ></text>
</g>
<g >
<title>[[kernel.kallsyms]] (10,101,010 samples, 0.07%)</title><rect x="40.3" y="101" width="0.8" height="15.0" fill="rgb(254,181,20)" rx="2" ry="2" />
<text  x="43.26" y="111.5" ></text>
</g>
<g >
<title>[[kernel.kallsyms]] (10,101,010 samples, 0.07%)</title><rect x="349.5" y="133" width="0.9" height="15.0" fill="rgb(219,52,37)" rx="2" ry="2" />
<text  x="352.54" y="143.5" ></text>
</g>
<g >
<title>[[kernel.kallsyms]] (20,202,020 samples, 0.14%)</title><rect x="10.8" y="213" width="1.7" height="15.0" fill="rgb(237,205,29)" rx="2" ry="2" />
<text  x="13.84" y="223.5" ></text>
</g>
<g >
<title>[[kernel.kallsyms]] (2,020,202,000 samples, 14.25%)</title><rect x="1021.9" y="69" width="168.1" height="15.0" fill="rgb(208,110,15)" rx="2" ry="2" />
<text  x="1024.91" y="79.5" >[[kernel.kallsyms]]</text>
</g>
<g >
<title>larson-sized (10,050,504,950 samples, 70.87%)</title><rect x="14.2" y="245" width="836.3" height="15.0" fill="rgb(209,103,45)" rx="2" ry="2" />
<text  x="17.20" y="255.5" >larson-sized</text>
</g>
<g >
<title>operator new[] (1,363,636,350 samples, 9.62%)</title><rect x="737.0" y="229" width="113.5" height="15.0" fill="rgb(216,147,11)" rx="2" ry="2" />
<text  x="739.99" y="239.5" >operator new[]</text>
</g>
<g >
<title>[[kernel.kallsyms]] (2,020,202,000 samples, 14.25%)</title><rect x="1021.9" y="149" width="168.1" height="15.0" fill="rgb(210,73,54)" rx="2" ry="2" />
<text  x="1024.91" y="159.5" >[[kernel.kallsyms]]</text>
</g>
<g >
<title>[[kernel.kallsyms]] (10,101,010 samples, 0.07%)</title><rect x="349.5" y="69" width="0.9" height="15.0" fill="rgb(242,25,54)" rx="2" ry="2" />
<text  x="352.54" y="79.5" ></text>
</g>
<g >
<title>[[kernel.kallsyms]] (10,101,010 samples, 0.07%)</title><rect x="16.7" y="117" width="0.9" height="15.0" fill="rgb(246,80,48)" rx="2" ry="2" />
<text  x="19.72" y="127.5" ></text>
</g>
<g >
<title>[[kernel.kallsyms]] (10,101,010 samples, 0.07%)</title><rect x="13.4" y="197" width="0.8" height="15.0" fill="rgb(242,108,37)" rx="2" ry="2" />
<text  x="16.36" y="207.5" ></text>
</g>
<g >
<title>[[kernel.kallsyms]] (10,101,010 samples, 0.07%)</title><rect x="16.7" y="101" width="0.9" height="15.0" fill="rgb(232,114,0)" rx="2" ry="2" />
<text  x="19.72" y="111.5" ></text>
</g>
<g >
<title>bench.sh (30,303,030 samples, 0.21%)</title><rect x="10.0" y="245" width="2.5" height="15.0" fill="rgb(221,198,29)" rx="2" ry="2" />
<text  x="13.00" y="255.5" ></text>
</g>
<g >
<title>[[kernel.kallsyms]] (20,202,020 samples, 0.14%)</title><rect x="348.7" y="165" width="1.7" height="15.0" fill="rgb(235,69,10)" rx="2" ry="2" />
<text  x="351.70" y="175.5" ></text>
</g>
<g >
<title>[[kernel.kallsyms]] (20,202,020 samples, 0.14%)</title><rect x="10.8" y="181" width="1.7" height="15.0" fill="rgb(218,59,52)" rx="2" ry="2" />
<text  x="13.84" y="191.5" ></text>
</g>
<g >
<title>[[kernel.kallsyms]] (10,101,010 samples, 0.07%)</title><rect x="40.3" y="117" width="0.8" height="15.0" fill="rgb(253,4,40)" rx="2" ry="2" />
<text  x="43.26" y="127.5" ></text>
</g>
<g >
<title>[[kernel.kallsyms]] (10,101,010 samples, 0.07%)</title><rect x="12.5" y="213" width="0.9" height="15.0" fill="rgb(205,168,44)" rx="2" ry="2" />
<text  x="15.52" y="223.5" ></text>
</g>
<g >
<title>[[kernel.kallsyms]] (10,101,010 samples, 0.07%)</title><rect x="16.7" y="229" width="0.9" height="15.0" fill="rgb(233,101,44)" rx="2" ry="2" />
<text  x="19.72" y="239.5" ></text>
</g>
<g >
<title>[[kernel.kallsyms]] (10,101,010 samples, 0.07%)</title><rect x="40.3" y="165" width="0.8" height="15.0" fill="rgb(240,37,11)" rx="2" ry="2" />
<text  x="43.26" y="175.5" ></text>
</g>
<g >
<title>[[kernel.kallsyms]] (10,101,010 samples, 0.07%)</title><rect x="12.5" y="133" width="0.9" height="15.0" fill="rgb(250,109,28)" rx="2" ry="2" />
<text  x="15.52" y="143.5" ></text>
</g>
<g >
<title>Hoard::HoardManager&lt;Hoard::AlignedSuperblockHeap&lt;HL::SpinLockType, 262144ul, Hoard::MmapSource&gt;, Hoard::GlobalHeap&lt;262144ul, Hoard::HoardSuperblockHeader, 8, Hoard::MmapSource, HL::SpinLockType&gt;, Hoard::HoardSuperblock&lt;HL::SpinLockType, 262144, Hoard::SmallHeap, Hoard::HoardSuperblockHeader&gt;, 8, HL::SpinLockType, Hoard::hoardThresholdFunctionClass, Hoard::SmallHeap&gt;::free (10,101,010 samples, 0.07%)</title><rect x="15.9" y="229" width="0.8" height="15.0" fill="rgb(216,113,7)" rx="2" ry="2" />
<text  x="18.88" y="239.5" ></text>
</g>
<g >
<title>[unknown] (10,101,010 samples, 0.07%)</title><rect x="10.0" y="213" width="0.8" height="15.0" fill="rgb(245,5,2)" rx="2" ry="2" />
<text  x="13.00" y="223.5" ></text>
</g>
<g >
<title>[[kernel.kallsyms]] (10,101,010 samples, 0.07%)</title><rect x="13.4" y="181" width="0.8" height="15.0" fill="rgb(239,143,23)" rx="2" ry="2" />
<text  x="16.36" y="191.5" ></text>
</g>
<g >
<title>[unknown] (60,606,060 samples, 0.43%)</title><rect x="39.4" y="229" width="5.1" height="15.0" fill="rgb(247,143,51)" rx="2" ry="2" />
<text  x="42.42" y="239.5" ></text>
</g>
<g >
<title>[unknown] (10,101,010 samples, 0.07%)</title><rect x="850.5" y="229" width="0.8" height="15.0" fill="rgb(211,102,12)" rx="2" ry="2" />
<text  x="853.46" y="239.5" ></text>
</g>
<g >
<title>[[kernel.kallsyms]] (20,202,020 samples, 0.14%)</title><rect x="348.7" y="149" width="1.7" height="15.0" fill="rgb(205,60,43)" rx="2" ry="2" />
<text  x="351.70" y="159.5" ></text>
</g>
<g >
<title>[[kernel.kallsyms]] (10,101,010 samples, 0.07%)</title><rect x="13.4" y="149" width="0.8" height="15.0" fill="rgb(244,175,3)" rx="2" ry="2" />
<text  x="16.36" y="159.5" ></text>
</g>
<g >
<title>HL::SpinLockType::contendedLock (20,202,020 samples, 0.14%)</title><rect x="14.2" y="229" width="1.7" height="15.0" fill="rgb(226,195,15)" rx="2" ry="2" />
<text  x="17.20" y="239.5" ></text>
</g>
<g >
<title>[[kernel.kallsyms]] (2,050,505,030 samples, 14.46%)</title><rect x="851.3" y="149" width="170.6" height="15.0" fill="rgb(231,84,27)" rx="2" ry="2" />
<text  x="854.30" y="159.5" >[[kernel.kallsyms]]</text>
</g>
<g >
<title>[[kernel.kallsyms]] (10,101,010 samples, 0.07%)</title><rect x="40.3" y="197" width="0.8" height="15.0" fill="rgb(215,112,36)" rx="2" ry="2" />
<text  x="43.26" y="207.5" ></text>
</g>
<g >
<title>[[kernel.kallsyms]] (4,070,707,030 samples, 28.70%)</title><rect x="851.3" y="229" width="338.7" height="15.0" fill="rgb(226,97,8)" rx="2" ry="2" />
<text  x="854.30" y="239.5" >[[kernel.kallsyms]]</text>
</g>
<g >
<title>[[kernel.kallsyms]] (2,050,505,030 samples, 14.46%)</title><rect x="851.3" y="181" width="170.6" height="15.0" fill="rgb(210,107,35)" rx="2" ry="2" />
<text  x="854.30" y="191.5" >[[kernel.kallsyms]]</text>
</g>
<g >
<title>[[kernel.kallsyms]] (10,101,010 samples, 0.07%)</title><rect x="349.5" y="117" width="0.9" height="15.0" fill="rgb(248,30,20)" rx="2" ry="2" />
<text  x="352.54" y="127.5" ></text>
</g>
<g >
<title>[[kernel.kallsyms]] (20,202,020 samples, 0.14%)</title><rect x="42.8" y="197" width="1.7" height="15.0" fill="rgb(205,42,32)" rx="2" ry="2" />
<text  x="45.78" y="207.5" ></text>
</g>
<g >
<title>exercise_heap (3,676,767,640 samples, 25.93%)</title><rect x="44.5" y="229" width="305.9" height="15.0" fill="rgb(236,140,24)" rx="2" ry="2" />
<text  x="47.46" y="239.5" >exercise_heap</text>
</g>
<g >
<title>[[kernel.kallsyms]] (20,202,020 samples, 0.14%)</title><rect x="848.8" y="213" width="1.7" height="15.0" fill="rgb(254,9,3)" rx="2" ry="2" />
<text  x="851.77" y="223.5" ></text>
</g>
<g >
<title>[unknown] (10,101,010 samples, 0.07%)</title><rect x="10.0" y="229" width="0.8" height="15.0" fill="rgb(220,10,51)" rx="2" ry="2" />
<text  x="13.00" y="239.5" ></text>
</g>
<g >
<title>Hoard::HoardSuperblockHeader&lt;HL::SpinLockType, 262144, Hoard::SmallHeap&gt;::~HoardSuperblockHeader (10,101,010 samples, 0.07%)</title><rect x="39.4" y="213" width="0.9" height="15.0" fill="rgb(207,218,47)" rx="2" ry="2" />
<text  x="42.42" y="223.5" ></text>
</g>
<g >
<title>[[kernel.kallsyms]] (20,202,020 samples, 0.14%)</title><rect x="848.8" y="133" width="1.7" height="15.0" fill="rgb(222,20,5)" rx="2" ry="2" />
<text  x="851.77" y="143.5" ></text>
</g>
<g >
<title>operator delete[] (40,404,040 samples, 0.28%)</title><rect x="41.1" y="213" width="3.4" height="15.0" fill="rgb(232,131,17)" rx="2" ry="2" />
<text  x="44.10" y="223.5" ></text>
</g>
<g >
<title>[[kernel.kallsyms]] (20,202,020 samples, 0.14%)</title><rect x="348.7" y="213" width="1.7" height="15.0" fill="rgb(223,35,42)" rx="2" ry="2" />
<text  x="351.70" y="223.5" ></text>
</g>
<g >
<title>[[kernel.kallsyms]] (20,202,020 samples, 0.14%)</title><rect x="848.8" y="149" width="1.7" height="15.0" fill="rgb(246,26,46)" rx="2" ry="2" />
<text  x="851.77" y="159.5" ></text>
</g>
<g >
<title>[[kernel.kallsyms]] (10,101,010 samples, 0.07%)</title><rect x="16.7" y="213" width="0.9" height="15.0" fill="rgb(238,87,4)" rx="2" ry="2" />
<text  x="19.72" y="223.5" ></text>
</g>
<g >
<title>[[kernel.kallsyms]] (10,101,010 samples, 0.07%)</title><rect x="13.4" y="165" width="0.8" height="15.0" fill="rgb(233,126,6)" rx="2" ry="2" />
<text  x="16.36" y="175.5" ></text>
</g>
<g >
<title>[[kernel.kallsyms]] (2,050,505,030 samples, 14.46%)</title><rect x="851.3" y="213" width="170.6" height="15.0" fill="rgb(227,176,18)" rx="2" ry="2" />
<text  x="854.30" y="223.5" >[[kernel.kallsyms]]</text>
</g>
<g >
<title>[[kernel.kallsyms]] (10,101,010 samples, 0.07%)</title><rect x="850.5" y="165" width="0.8" height="15.0" fill="rgb(232,177,8)" rx="2" ry="2" />
<text  x="853.46" y="175.5" ></text>
</g>
<g >
<title>[[kernel.kallsyms]] (10,101,010 samples, 0.07%)</title><rect x="12.5" y="165" width="0.9" height="15.0" fill="rgb(225,2,38)" rx="2" ry="2" />
<text  x="15.52" y="175.5" ></text>
</g>
<g >
<title>[[kernel.kallsyms]] (10,101,010 samples, 0.07%)</title><rect x="850.5" y="181" width="0.8" height="15.0" fill="rgb(246,211,28)" rx="2" ry="2" />
<text  x="853.46" y="191.5" ></text>
</g>
<g >
<title>[[kernel.kallsyms]] (10,101,010 samples, 0.07%)</title><rect x="40.3" y="181" width="0.8" height="15.0" fill="rgb(222,137,50)" rx="2" ry="2" />
<text  x="43.26" y="191.5" ></text>
</g>
<g >
<title>[[kernel.kallsyms]] (10,101,010 samples, 0.07%)</title><rect x="43.6" y="85" width="0.9" height="15.0" fill="rgb(239,160,51)" rx="2" ry="2" />
<text  x="46.62" y="95.5" ></text>
</g>
<g >
<title>[libstdc++.so.6.0.28] (70,707,070 samples, 0.50%)</title><rect x="33.5" y="229" width="5.9" height="15.0" fill="rgb(226,93,21)" rx="2" ry="2" />
<text  x="36.53" y="239.5" ></text>
</g>
<g >
<title>[[kernel.kallsyms]] (10,101,010 samples, 0.07%)</title><rect x="40.3" y="85" width="0.8" height="15.0" fill="rgb(214,47,37)" rx="2" ry="2" />
<text  x="43.26" y="95.5" ></text>
</g>
<g >
<title>[unknown] (2,020,202,000 samples, 14.25%)</title><rect x="1021.9" y="165" width="168.1" height="15.0" fill="rgb(226,25,50)" rx="2" ry="2" />
<text  x="1024.91" y="175.5" >[unknown]</text>
</g>
<g >
<title>__libc_fork (20,202,020 samples, 0.14%)</title><rect x="10.8" y="229" width="1.7" height="15.0" fill="rgb(207,126,21)" rx="2" ry="2" />
<text  x="13.84" y="239.5" ></text>
</g>
<g >
<title>[unknown] (2,020,202,000 samples, 14.25%)</title><rect x="1021.9" y="213" width="168.1" height="15.0" fill="rgb(219,192,24)" rx="2" ry="2" />
<text  x="1024.91" y="223.5" >[unknown]</text>
</g>
<g >
<title>[[kernel.kallsyms]] (20,202,020 samples, 0.14%)</title><rect x="10.8" y="197" width="1.7" height="15.0" fill="rgb(242,222,36)" rx="2" ry="2" />
<text  x="13.84" y="207.5" ></text>
</g>
<g >
<title>[[kernel.kallsyms]] (20,202,020 samples, 0.14%)</title><rect x="42.8" y="133" width="1.7" height="15.0" fill="rgb(241,216,6)" rx="2" ry="2" />
<text  x="45.78" y="143.5" ></text>
</g>
<g >
<title>[[kernel.kallsyms]] (10,101,010 samples, 0.07%)</title><rect x="11.7" y="133" width="0.8" height="15.0" fill="rgb(252,135,16)" rx="2" ry="2" />
<text  x="14.68" y="143.5" ></text>
</g>
<g >
<title>[[kernel.kallsyms]] (20,202,020 samples, 0.14%)</title><rect x="42.8" y="101" width="1.7" height="15.0" fill="rgb(252,222,54)" rx="2" ry="2" />
<text  x="45.78" y="111.5" ></text>
</g>
<g >
<title>[[kernel.kallsyms]] (10,101,010 samples, 0.07%)</title><rect x="16.7" y="149" width="0.9" height="15.0" fill="rgb(213,176,38)" rx="2" ry="2" />
<text  x="19.72" y="159.5" ></text>
</g>
<g >
<title>__clone (10,101,010 samples, 0.07%)</title><rect x="40.3" y="213" width="0.8" height="15.0" fill="rgb(230,96,37)" rx="2" ry="2" />
<text  x="43.26" y="223.5" ></text>
</g>
<g >
<title>operator delete[] (4,646,464,600 samples, 32.76%)</title><rect x="350.4" y="229" width="386.6" height="15.0" fill="rgb(216,136,20)" rx="2" ry="2" />
<text  x="353.38" y="239.5" >operator delete[]</text>
</g>
<g >
<title>[[kernel.kallsyms]] (10,101,010 samples, 0.07%)</title><rect x="850.5" y="133" width="0.8" height="15.0" fill="rgb(240,170,18)" rx="2" ry="2" />
<text  x="853.46" y="143.5" ></text>
</g>
<g >
<title>[[kernel.kallsyms]] (2,050,505,030 samples, 14.46%)</title><rect x="851.3" y="133" width="170.6" height="15.0" fill="rgb(239,112,1)" rx="2" ry="2" />
<text  x="854.30" y="143.5" >[[kernel.kallsyms]]</text>
</g>
<g >
<title>HL::HybridHeap&lt;32768, Hoard::ThreadPoolHeap&lt;2048, 128, Hoard::PerThreadHoardHeap&gt;, Hoard::BigHeap&gt;::free (10,101,010 samples, 0.07%)</title><rect x="39.4" y="181" width="0.9" height="15.0" fill="rgb(234,208,31)" rx="2" ry="2" />
<text  x="42.42" y="191.5" ></text>
</g>
</g>
</svg>
