<?xml version="1.0" standalone="no"?>
<!DOCTYPE svg PUBLIC "-//W3C//DTD SVG 1.1//EN" "http://www.w3.org/Graphics/SVG/1.1/DTD/svg11.dtd">
<svg version="1.1" width="1200" height="422" onload="init(evt)" viewBox="0 0 1200 422" xmlns="http://www.w3.org/2000/svg" xmlns:xlink="http://www.w3.org/1999/xlink">
<!-- Flame graph stack visualization. See https://github.com/brendangregg/FlameGraph for latest version, and http://www.brendangregg.com/flamegraphs.html for examples. -->
<!-- NOTES:  -->
<defs>
	<linearGradient id="background" y1="0" y2="1" x1="0" x2="0" >
		<stop stop-color="#eeeeee" offset="5%" />
		<stop stop-color="#eeeeb0" offset="95%" />
	</linearGradient>
</defs>
<style type="text/css">
	text { font-family:Verdana; font-size:12px; fill:rgb(0,0,0); }
	#search, #ignorecase { opacity:0.1; cursor:pointer; }
	#search:hover, #search.show, #ignorecase:hover, #ignorecase.show { opacity:1; }
	#subtitle { text-anchor:middle; font-color:rgb(160,160,160); }
	#title { text-anchor:middle; font-size:17px}
	#unzoom { cursor:pointer; }
	#frames > *:hover { stroke:black; stroke-width:0.5; cursor:pointer; }
	.hide { display:none; }
	.parent { opacity:0.5; }
</style>
<script type="text/ecmascript">
<![CDATA[
	"use strict";
	var details, searchbtn, unzoombtn, matchedtxt, svg, searching, currentSearchTerm, ignorecase, ignorecaseBtn;
	function init(evt) {
		details = document.getElementById("details").firstChild;
		searchbtn = document.getElementById("search");
		ignorecaseBtn = document.getElementById("ignorecase");
		unzoombtn = document.getElementById("unzoom");
		matchedtxt = document.getElementById("matched");
		svg = document.getElementsByTagName("svg")[0];
		searching = 0;
		currentSearchTerm = null;

		// use GET parameters to restore a flamegraphs state.
		var params = get_params();
		if (params.x && params.y)
			zoom(find_group(document.querySelector('[x="' + params.x + '"][y="' + params.y + '"]')));
                if (params.s) search(params.s);
	}

	// event listeners
	window.addEventListener("click", function(e) {
		var target = find_group(e.target);
		if (target) {
			if (target.nodeName == "a") {
				if (e.ctrlKey === false) return;
				e.preventDefault();
			}
			if (target.classList.contains("parent")) unzoom(true);
			zoom(target);
			if (!document.querySelector('.parent')) {
				// we have basically done a clearzoom so clear the url
				var params = get_params();
				if (params.x) delete params.x;
				if (params.y) delete params.y;
				history.replaceState(null, null, parse_params(params));
				unzoombtn.classList.add("hide");
				return;
			}

			// set parameters for zoom state
			var el = target.querySelector("rect");
			if (el && el.attributes && el.attributes.y && el.attributes._orig_x) {
				var params = get_params()
				params.x = el.attributes._orig_x.value;
				params.y = el.attributes.y.value;
				history.replaceState(null, null, parse_params(params));
			}
		}
		else if (e.target.id == "unzoom") clearzoom();
		else if (e.target.id == "search") search_prompt();
		else if (e.target.id == "ignorecase") toggle_ignorecase();
	}, false)

	// mouse-over for info
	// show
	window.addEventListener("mouseover", function(e) {
		var target = find_group(e.target);
		if (target) details.nodeValue = "Function: " + g_to_text(target);
	}, false)

	// clear
	window.addEventListener("mouseout", function(e) {
		var target = find_group(e.target);
		if (target) details.nodeValue = ' ';
	}, false)

	// ctrl-F for search
	// ctrl-I to toggle case-sensitive search
	window.addEventListener("keydown",function (e) {
		if (e.keyCode === 114 || (e.ctrlKey && e.keyCode === 70)) {
			e.preventDefault();
			search_prompt();
		}
		else if (e.ctrlKey && e.keyCode === 73) {
			e.preventDefault();
			toggle_ignorecase();
		}
	}, false)

	// functions
	function get_params() {
		var params = {};
		var paramsarr = window.location.search.substr(1).split('&');
		for (var i = 0; i < paramsarr.length; ++i) {
			var tmp = paramsarr[i].split("=");
			if (!tmp[0] || !tmp[1]) continue;
			params[tmp[0]]  = decodeURIComponent(tmp[1]);
		}
		return params;
	}
	function parse_params(params) {
		var uri = "?";
		for (var key in params) {
			uri += key + '=' + encodeURIComponent(params[key]) + '&';
		}
		if (uri.slice(-1) == "&")
			uri = uri.substring(0, uri.length - 1);
		if (uri == '?')
			uri = window.location.href.split('?')[0];
		return uri;
	}
	function find_child(node, selector) {
		var children = node.querySelectorAll(selector);
		if (children.length) return children[0];
	}
	function find_group(node) {
		var parent = node.parentElement;
		if (!parent) return;
		if (parent.id == "frames") return node;
		return find_group(parent);
	}
	function orig_save(e, attr, val) {
		if (e.attributes["_orig_" + attr] != undefined) return;
		if (e.attributes[attr] == undefined) return;
		if (val == undefined) val = e.attributes[attr].value;
		e.setAttribute("_orig_" + attr, val);
	}
	function orig_load(e, attr) {
		if (e.attributes["_orig_"+attr] == undefined) return;
		e.attributes[attr].value = e.attributes["_orig_" + attr].value;
		e.removeAttribute("_orig_"+attr);
	}
	function g_to_text(e) {
		var text = find_child(e, "title").firstChild.nodeValue;
		return (text)
	}
	function g_to_func(e) {
		var func = g_to_text(e);
		// if there's any manipulation we want to do to the function
		// name before it's searched, do it here before returning.
		return (func);
	}
	function update_text(e) {
		var r = find_child(e, "rect");
		var t = find_child(e, "text");
		var w = parseFloat(r.attributes.width.value) -3;
		var txt = find_child(e, "title").textContent.replace(/\([^(]*\)$/,"");
		t.attributes.x.value = parseFloat(r.attributes.x.value) + 3;

		// Smaller than this size won't fit anything
		if (w < 2 * 12 * 0.59) {
			t.textContent = "";
			return;
		}

		t.textContent = txt;
		var sl = t.getSubStringLength(0, txt.length);
		// check if only whitespace or if we can fit the entire string into width w
		if (/^ *$/.test(txt) || sl < w)
			return;

		// this isn't perfect, but gives a good starting point
		// and avoids calling getSubStringLength too often
		var start = Math.floor((w/sl) * txt.length);
		for (var x = start; x > 0; x = x-2) {
			if (t.getSubStringLength(0, x + 2) <= w) {
				t.textContent = txt.substring(0, x) + "..";
				return;
			}
		}
		t.textContent = "";
	}

	// zoom
	function zoom_reset(e) {
		if (e.attributes != undefined) {
			orig_load(e, "x");
			orig_load(e, "width");
		}
		if (e.childNodes == undefined) return;
		for (var i = 0, c = e.childNodes; i < c.length; i++) {
			zoom_reset(c[i]);
		}
	}
	function zoom_child(e, x, ratio) {
		if (e.attributes != undefined) {
			if (e.attributes.x != undefined) {
				orig_save(e, "x");
				e.attributes.x.value = (parseFloat(e.attributes.x.value) - x - 10) * ratio + 10;
				if (e.tagName == "text")
					e.attributes.x.value = find_child(e.parentNode, "rect[x]").attributes.x.value + 3;
			}
			if (e.attributes.width != undefined) {
				orig_save(e, "width");
				e.attributes.width.value = parseFloat(e.attributes.width.value) * ratio;
			}
		}

		if (e.childNodes == undefined) return;
		for (var i = 0, c = e.childNodes; i < c.length; i++) {
			zoom_child(c[i], x - 10, ratio);
		}
	}
	function zoom_parent(e) {
		if (e.attributes) {
			if (e.attributes.x != undefined) {
				orig_save(e, "x");
				e.attributes.x.value = 10;
			}
			if (e.attributes.width != undefined) {
				orig_save(e, "width");
				e.attributes.width.value = parseInt(svg.width.baseVal.value) - (10 * 2);
			}
		}
		if (e.childNodes == undefined) return;
		for (var i = 0, c = e.childNodes; i < c.length; i++) {
			zoom_parent(c[i]);
		}
	}
	function zoom(node) {
		var attr = find_child(node, "rect").attributes;
		var width = parseFloat(attr.width.value);
		var xmin = parseFloat(attr.x.value);
		var xmax = parseFloat(xmin + width);
		var ymin = parseFloat(attr.y.value);
		var ratio = (svg.width.baseVal.value - 2 * 10) / width;

		// XXX: Workaround for JavaScript float issues (fix me)
		var fudge = 0.0001;

		unzoombtn.classList.remove("hide");

		var el = document.getElementById("frames").children;
		for (var i = 0; i < el.length; i++) {
			var e = el[i];
			var a = find_child(e, "rect").attributes;
			var ex = parseFloat(a.x.value);
			var ew = parseFloat(a.width.value);
			var upstack;
			// Is it an ancestor
			if (0 == 0) {
				upstack = parseFloat(a.y.value) > ymin;
			} else {
				upstack = parseFloat(a.y.value) < ymin;
			}
			if (upstack) {
				// Direct ancestor
				if (ex <= xmin && (ex+ew+fudge) >= xmax) {
					e.classList.add("parent");
					zoom_parent(e);
					update_text(e);
				}
				// not in current path
				else
					e.classList.add("hide");
			}
			// Children maybe
			else {
				// no common path
				if (ex < xmin || ex + fudge >= xmax) {
					e.classList.add("hide");
				}
				else {
					zoom_child(e, xmin, ratio);
					update_text(e);
				}
			}
		}
		search();
	}
	function unzoom(dont_update_text) {
		unzoombtn.classList.add("hide");
		var el = document.getElementById("frames").children;
		for(var i = 0; i < el.length; i++) {
			el[i].classList.remove("parent");
			el[i].classList.remove("hide");
			zoom_reset(el[i]);
			if(!dont_update_text) update_text(el[i]);
		}
		search();
	}
	function clearzoom() {
		unzoom();

		// remove zoom state
		var params = get_params();
		if (params.x) delete params.x;
		if (params.y) delete params.y;
		history.replaceState(null, null, parse_params(params));
	}

	// search
	function toggle_ignorecase() {
		ignorecase = !ignorecase;
		if (ignorecase) {
			ignorecaseBtn.classList.add("show");
		} else {
			ignorecaseBtn.classList.remove("show");
		}
		reset_search();
		search();
	}
	function reset_search() {
		var el = document.querySelectorAll("#frames rect");
		for (var i = 0; i < el.length; i++) {
			orig_load(el[i], "fill")
		}
		var params = get_params();
		delete params.s;
		history.replaceState(null, null, parse_params(params));
	}
	function search_prompt() {
		if (!searching) {
			var term = prompt("Enter a search term (regexp " +
			    "allowed, eg: ^ext4_)"
			    + (ignorecase ? ", ignoring case" : "")
			    + "\nPress Ctrl-i to toggle case sensitivity", "");
			if (term != null) search(term);
		} else {
			reset_search();
			searching = 0;
			currentSearchTerm = null;
			searchbtn.classList.remove("show");
			searchbtn.firstChild.nodeValue = "Search"
			matchedtxt.classList.add("hide");
			matchedtxt.firstChild.nodeValue = ""
		}
	}
	function search(term) {
		if (term) currentSearchTerm = term;

		var re = new RegExp(currentSearchTerm, ignorecase ? 'i' : '');
		var el = document.getElementById("frames").children;
		var matches = new Object();
		var maxwidth = 0;
		for (var i = 0; i < el.length; i++) {
			var e = el[i];
			var func = g_to_func(e);
			var rect = find_child(e, "rect");
			if (func == null || rect == null)
				continue;

			// Save max width. Only works as we have a root frame
			var w = parseFloat(rect.attributes.width.value);
			if (w > maxwidth)
				maxwidth = w;

			if (func.match(re)) {
				// highlight
				var x = parseFloat(rect.attributes.x.value);
				orig_save(rect, "fill");
				rect.attributes.fill.value = "rgb(230,0,230)";

				// remember matches
				if (matches[x] == undefined) {
					matches[x] = w;
				} else {
					if (w > matches[x]) {
						// overwrite with parent
						matches[x] = w;
					}
				}
				searching = 1;
			}
		}
		if (!searching)
			return;
		var params = get_params();
		params.s = currentSearchTerm;
		history.replaceState(null, null, parse_params(params));

		searchbtn.classList.add("show");
		searchbtn.firstChild.nodeValue = "Reset Search";

		// calculate percent matched, excluding vertical overlap
		var count = 0;
		var lastx = -1;
		var lastw = 0;
		var keys = Array();
		for (k in matches) {
			if (matches.hasOwnProperty(k))
				keys.push(k);
		}
		// sort the matched frames by their x location
		// ascending, then width descending
		keys.sort(function(a, b){
			return a - b;
		});
		// Step through frames saving only the biggest bottom-up frames
		// thanks to the sort order. This relies on the tree property
		// where children are always smaller than their parents.
		var fudge = 0.0001;	// JavaScript floating point
		for (var k in keys) {
			var x = parseFloat(keys[k]);
			var w = matches[keys[k]];
			if (x >= lastx + lastw - fudge) {
				count += w;
				lastx = x;
				lastw = w;
			}
		}
		// display matched percent
		matchedtxt.classList.remove("hide");
		var pct = 100 * count / maxwidth;
		if (pct != 100) pct = pct.toFixed(1)
		matchedtxt.firstChild.nodeValue = "Matched: " + pct + "%";
	}
]]>
</script>
<rect x="0.0" y="0" width="1200.0" height="422.0" fill="url(#background)"  />
<text id="title" x="600.00" y="24" >Flame Graph</text>
<text id="details" x="10.00" y="405" > </text>
<text id="unzoom" x="10.00" y="24" class="hide">Reset Zoom</text>
<text id="search" x="1090.00" y="24" >Search</text>
<text id="ignorecase" x="1174.00" y="24" >ic</text>
<text id="matched" x="1090.00" y="405" > </text>
<g id="frames">
<g >
<title>all (14,161,616,020 samples, 100%)</title><rect x="10.0" y="373" width="1180.0" height="15.0" fill="rgb(212,85,25)" rx="2" ry="2" />
<text  x="13.00" y="383.5" ></text>
</g>
<g >
<title>[[kernel.kallsyms]] (10,101,010 samples, 0.07%)</title><rect x="131.2" y="197" width="0.8" height="15.0" fill="rgb(227,109,49)" rx="2" ry="2" />
<text  x="134.20" y="207.5" ></text>
</g>
<g >
<title>[[kernel.kallsyms]] (10,101,010 samples, 0.07%)</title><rect x="11.7" y="229" width="0.8" height="15.0" fill="rgb(240,217,33)" rx="2" ry="2" />
<text  x="14.68" y="239.5" ></text>
</g>
<g >
<title>[[kernel.kallsyms]] (10,101,010 samples, 0.07%)</title><rect x="12.5" y="181" width="0.9" height="15.0" fill="rgb(229,112,11)" rx="2" ry="2" />
<text  x="15.52" y="191.5" ></text>
</g>
<g >
<title>[[kernel.kallsyms]] (10,101,010 samples, 0.07%)</title><rect x="10.8" y="309" width="0.9" height="15.0" fill="rgb(230,186,51)" rx="2" ry="2" />
<text  x="13.84" y="319.5" ></text>
</g>
<g >
<title>[[kernel.kallsyms]] (60,606,060 samples, 0.43%)</title><rect x="125.3" y="197" width="5.1" height="15.0" fill="rgb(207,129,12)" rx="2" ry="2" />
<text  x="128.31" y="207.5" ></text>
</g>
<g >
<title>[[kernel.kallsyms]] (60,606,060 samples, 0.43%)</title><rect x="125.3" y="309" width="5.1" height="15.0" fill="rgb(245,150,49)" rx="2" ry="2" />
<text  x="128.31" y="319.5" ></text>
</g>
<g >
<title>[[kernel.kallsyms]] (10,101,010 samples, 0.07%)</title><rect x="108.5" y="245" width="0.8" height="15.0" fill="rgb(217,157,5)" rx="2" ry="2" />
<text  x="111.47" y="255.5" ></text>
</g>
<g >
<title>[[kernel.kallsyms]] (10,101,010 samples, 0.07%)</title><rect x="12.5" y="133" width="0.9" height="15.0" fill="rgb(207,169,19)" rx="2" ry="2" />
<text  x="15.52" y="143.5" ></text>
</g>
<g >
<title>[[kernel.kallsyms]] (10,101,010 samples, 0.07%)</title><rect x="10.0" y="309" width="0.8" height="15.0" fill="rgb(212,64,12)" rx="2" ry="2" />
<text  x="13.00" y="319.5" ></text>
</g>
<g >
<title>[[kernel.kallsyms]] (10,101,010 samples, 0.07%)</title><rect x="10.0" y="277" width="0.8" height="15.0" fill="rgb(221,123,20)" rx="2" ry="2" />
<text  x="13.00" y="287.5" ></text>
</g>
<g >
<title>[[kernel.kallsyms]] (60,606,060 samples, 0.43%)</title><rect x="125.3" y="213" width="5.1" height="15.0" fill="rgb(239,98,49)" rx="2" ry="2" />
<text  x="128.31" y="223.5" ></text>
</g>
<g >
<title>[[kernel.kallsyms]] (10,101,010 samples, 0.07%)</title><rect x="850.8" y="149" width="0.9" height="15.0" fill="rgb(240,174,51)" rx="2" ry="2" />
<text  x="853.81" y="159.5" ></text>
</g>
<g >
<title>[[kernel.kallsyms]] (20,202,020 samples, 0.14%)</title><rect x="130.4" y="309" width="1.6" height="15.0" fill="rgb(211,22,38)" rx="2" ry="2" />
<text  x="133.36" y="319.5" ></text>
</g>
<g >
<title>[[kernel.kallsyms]] (60,606,060 samples, 0.43%)</title><rect x="125.3" y="293" width="5.1" height="15.0" fill="rgb(233,116,13)" rx="2" ry="2" />
<text  x="128.31" y="303.5" ></text>
</g>
<g >
<title>[[kernel.kallsyms]] (60,606,060 samples, 0.43%)</title><rect x="125.3" y="245" width="5.1" height="15.0" fill="rgb(209,131,18)" rx="2" ry="2" />
<text  x="128.31" y="255.5" ></text>
</g>
<g >
<title>[[kernel.kallsyms]] (10,101,010 samples, 0.07%)</title><rect x="850.8" y="229" width="0.9" height="15.0" fill="rgb(241,151,30)" rx="2" ry="2" />
<text  x="853.81" y="239.5" ></text>
</g>
<g >
<title>[[kernel.kallsyms]] (10,101,010 samples, 0.07%)</title><rect x="12.5" y="293" width="0.9" height="15.0" fill="rgb(230,203,38)" rx="2" ry="2" />
<text  x="15.52" y="303.5" ></text>
</g>
<g >
<title>[[kernel.kallsyms]] (10,101,010 samples, 0.07%)</title><rect x="850.8" y="293" width="0.9" height="15.0" fill="rgb(213,25,23)" rx="2" ry="2" />
<text  x="853.81" y="303.5" ></text>
</g>
<g >
<title>[[kernel.kallsyms]] (10,101,010 samples, 0.07%)</title><rect x="129.5" y="53" width="0.9" height="15.0" fill="rgb(236,186,29)" rx="2" ry="2" />
<text  x="132.51" y="63.5" ></text>
</g>
<g >
<title>[[kernel.kallsyms]] (4,050,505,010 samples, 28.60%)</title><rect x="852.5" y="341" width="337.5" height="15.0" fill="rgb(239,63,45)" rx="2" ry="2" />
<text  x="855.50" y="351.5" >[[kernel.kallsyms]]</text>
</g>
<g >
<title>clock_gettime@GLIBC_2.2.5 (20,202,020 samples, 0.14%)</title><rect x="149.7" y="341" width="1.7" height="15.0" fill="rgb(238,176,52)" rx="2" ry="2" />
<text  x="152.71" y="351.5" ></text>
</g>
<g >
<title>[[kernel.kallsyms]] (30,303,030 samples, 0.21%)</title><rect x="121.1" y="197" width="2.5" height="15.0" fill="rgb(227,154,43)" rx="2" ry="2" />
<text  x="124.10" y="207.5" ></text>
</g>
<g >
<title>[[kernel.kallsyms]] (10,101,010 samples, 0.07%)</title><rect x="87.4" y="165" width="0.9" height="15.0" fill="rgb(213,137,45)" rx="2" ry="2" />
<text  x="90.43" y="175.5" ></text>
</g>
<g >
<title>[[kernel.kallsyms]] (20,202,020 samples, 0.14%)</title><rect x="130.4" y="245" width="1.6" height="15.0" fill="rgb(218,16,6)" rx="2" ry="2" />
<text  x="133.36" y="255.5" ></text>
</g>
<g >
<title>[unknown] (2,020,202,000 samples, 14.27%)</title><rect x="1021.7" y="309" width="168.3" height="15.0" fill="rgb(218,47,49)" rx="2" ry="2" />
<text  x="1024.67" y="319.5" >[unknown]</text>
</g>
<g >
<title>[unknown] (10,101,010 samples, 0.07%)</title><rect x="11.7" y="341" width="0.8" height="15.0" fill="rgb(205,221,48)" rx="2" ry="2" />
<text  x="14.68" y="351.5" ></text>
</g>
<g >
<title>[[kernel.kallsyms]] (10,101,010 samples, 0.07%)</title><rect x="129.5" y="101" width="0.9" height="15.0" fill="rgb(248,133,6)" rx="2" ry="2" />
<text  x="132.51" y="111.5" ></text>
</g>
<g >
<title>[[kernel.kallsyms]] (60,606,060 samples, 0.43%)</title><rect x="125.3" y="277" width="5.1" height="15.0" fill="rgb(242,175,23)" rx="2" ry="2" />
<text  x="128.31" y="287.5" ></text>
</g>
<g >
<title>_mi_malloc_generic (90,909,090 samples, 0.64%)</title><rect x="51.2" y="309" width="7.6" height="15.0" fill="rgb(231,66,48)" rx="2" ry="2" />
<text  x="54.24" y="319.5" ></text>
</g>
<g >
<title>[[kernel.kallsyms]] (10,101,010 samples, 0.07%)</title><rect x="10.8" y="261" width="0.9" height="15.0" fill="rgb(212,185,17)" rx="2" ry="2" />
<text  x="13.84" y="271.5" ></text>
</g>
<g >
<title>[[kernel.kallsyms]] (10,101,010 samples, 0.07%)</title><rect x="10.8" y="213" width="0.9" height="15.0" fill="rgb(213,177,26)" rx="2" ry="2" />
<text  x="13.84" y="223.5" ></text>
</g>
<g >
<title>[[kernel.kallsyms]] (30,303,030 samples, 0.21%)</title><rect x="85.7" y="213" width="2.6" height="15.0" fill="rgb(228,177,51)" rx="2" ry="2" />
<text  x="88.75" y="223.5" ></text>
</g>
<g >
<title>[[kernel.kallsyms]] (2,020,202,000 samples, 14.27%)</title><rect x="1021.7" y="261" width="168.3" height="15.0" fill="rgb(244,80,11)" rx="2" ry="2" />
<text  x="1024.67" y="271.5" >[[kernel.kallsyms]]</text>
</g>
<g >
<title>[[kernel.kallsyms]] (40,404,040 samples, 0.29%)</title><rect x="84.9" y="245" width="3.4" height="15.0" fill="rgb(246,126,23)" rx="2" ry="2" />
<text  x="87.91" y="255.5" ></text>
</g>
<g >
<title>mi_page_free_list_extend.isra.0 (70,707,070 samples, 0.50%)</title><rect x="117.7" y="325" width="5.9" height="15.0" fill="rgb(216,228,38)" rx="2" ry="2" />
<text  x="120.73" y="335.5" ></text>
</g>
<g >
<title>[[kernel.kallsyms]] (40,404,040 samples, 0.29%)</title><rect x="84.9" y="293" width="3.4" height="15.0" fill="rgb(250,205,22)" rx="2" ry="2" />
<text  x="87.91" y="303.5" ></text>
</g>
<g >
<title>__clone (40,404,040 samples, 0.29%)</title><rect x="84.9" y="325" width="3.4" height="15.0" fill="rgb(229,39,34)" rx="2" ry="2" />
<text  x="87.91" y="335.5" ></text>
</g>
<g >
<title>_mi_page_free_collect (141,414,140 samples, 1.00%)</title><rect x="136.2" y="341" width="11.8" height="15.0" fill="rgb(233,123,38)" rx="2" ry="2" />
<text  x="139.25" y="351.5" ></text>
</g>
<g >
<title>[[kernel.kallsyms]] (10,101,010 samples, 0.07%)</title><rect x="10.8" y="181" width="0.9" height="15.0" fill="rgb(249,46,25)" rx="2" ry="2" />
<text  x="13.84" y="191.5" ></text>
</g>
<g >
<title>[[kernel.kallsyms]] (10,101,010 samples, 0.07%)</title><rect x="851.7" y="213" width="0.8" height="15.0" fill="rgb(219,136,6)" rx="2" ry="2" />
<text  x="854.65" y="223.5" ></text>
</g>
<g >
<title>[[kernel.kallsyms]] (10,101,010 samples, 0.07%)</title><rect x="108.5" y="277" width="0.8" height="15.0" fill="rgb(207,229,44)" rx="2" ry="2" />
<text  x="111.47" y="287.5" ></text>
</g>
<g >
<title>[[kernel.kallsyms]] (10,101,010 samples, 0.07%)</title><rect x="11.7" y="277" width="0.8" height="15.0" fill="rgb(217,186,8)" rx="2" ry="2" />
<text  x="14.68" y="287.5" ></text>
</g>
<g >
<title>[[kernel.kallsyms]] (10,101,010 samples, 0.07%)</title><rect x="10.8" y="229" width="0.9" height="15.0" fill="rgb(240,195,3)" rx="2" ry="2" />
<text  x="13.84" y="239.5" ></text>
</g>
<g >
<title>swapper (4,050,505,010 samples, 28.60%)</title><rect x="852.5" y="357" width="337.5" height="15.0" fill="rgb(218,25,7)" rx="2" ry="2" />
<text  x="855.50" y="367.5" >swapper</text>
</g>
<g >
<title>[[kernel.kallsyms]] (10,101,010 samples, 0.07%)</title><rect x="851.7" y="245" width="0.8" height="15.0" fill="rgb(250,6,53)" rx="2" ry="2" />
<text  x="854.65" y="255.5" ></text>
</g>
<g >
<title>[[kernel.kallsyms]] (10,101,010 samples, 0.07%)</title><rect x="851.7" y="197" width="0.8" height="15.0" fill="rgb(229,42,2)" rx="2" ry="2" />
<text  x="854.65" y="207.5" ></text>
</g>
<g >
<title>[[kernel.kallsyms]] (10,101,010 samples, 0.07%)</title><rect x="850.8" y="309" width="0.9" height="15.0" fill="rgb(251,202,17)" rx="2" ry="2" />
<text  x="853.81" y="319.5" ></text>
</g>
<g >
<title>[[kernel.kallsyms]] (10,101,010 samples, 0.07%)</title><rect x="12.5" y="149" width="0.9" height="15.0" fill="rgb(219,172,20)" rx="2" ry="2" />
<text  x="15.52" y="159.5" ></text>
</g>
<g >
<title>[unknown] (2,020,202,000 samples, 14.27%)</title><rect x="1021.7" y="277" width="168.3" height="15.0" fill="rgb(213,191,12)" rx="2" ry="2" />
<text  x="1024.67" y="287.5" >[unknown]</text>
</g>
<g >
<title>[[kernel.kallsyms]] (10,101,010 samples, 0.07%)</title><rect x="10.8" y="293" width="0.9" height="15.0" fill="rgb(223,166,14)" rx="2" ry="2" />
<text  x="13.84" y="303.5" ></text>
</g>
<g >
<title>_dl_sysdep_start (10,101,010 samples, 0.07%)</title><rect x="11.7" y="325" width="0.8" height="15.0" fill="rgb(240,64,17)" rx="2" ry="2" />
<text  x="14.68" y="335.5" ></text>
</g>
<g >
<title>redis-server (10,101,010 samples, 0.07%)</title><rect x="850.8" y="357" width="0.9" height="15.0" fill="rgb(235,220,10)" rx="2" ry="2" />
<text  x="853.81" y="367.5" ></text>
</g>
<g >
<title>__GI___sigprocmask (10,101,010 samples, 0.07%)</title><rect x="10.0" y="325" width="0.8" height="15.0" fill="rgb(207,214,42)" rx="2" ry="2" />
<text  x="13.00" y="335.5" ></text>
</g>
<g >
<title>[[kernel.kallsyms]] (10,101,010 samples, 0.07%)</title><rect x="129.5" y="149" width="0.9" height="15.0" fill="rgb(212,136,54)" rx="2" ry="2" />
<text  x="132.51" y="159.5" ></text>
</g>
<g >
<title>_mi_page_malloc (40,404,040 samples, 0.29%)</title><rect x="58.8" y="309" width="3.4" height="15.0" fill="rgb(235,189,5)" rx="2" ry="2" />
<text  x="61.82" y="319.5" ></text>
</g>
<g >
<title>[[kernel.kallsyms]] (20,202,020 samples, 0.14%)</title><rect x="121.9" y="165" width="1.7" height="15.0" fill="rgb(241,5,46)" rx="2" ry="2" />
<text  x="124.94" y="175.5" ></text>
</g>
<g >
<title>__open64 (10,101,010 samples, 0.07%)</title><rect x="850.8" y="325" width="0.9" height="15.0" fill="rgb(205,163,18)" rx="2" ry="2" />
<text  x="853.81" y="335.5" ></text>
</g>
<g >
<title>_mi_segment_page_alloc (10,101,010 samples, 0.07%)</title><rect x="108.5" y="325" width="0.8" height="15.0" fill="rgb(211,80,17)" rx="2" ry="2" />
<text  x="111.47" y="335.5" ></text>
</g>
<g >
<title>[[kernel.kallsyms]] (2,020,202,000 samples, 14.27%)</title><rect x="1021.7" y="213" width="168.3" height="15.0" fill="rgb(205,139,54)" rx="2" ry="2" />
<text  x="1024.67" y="223.5" >[[kernel.kallsyms]]</text>
</g>
<g >
<title>[[kernel.kallsyms]] (10,101,010 samples, 0.07%)</title><rect x="129.5" y="133" width="0.9" height="15.0" fill="rgb(230,165,28)" rx="2" ry="2" />
<text  x="132.51" y="143.5" ></text>
</g>
<g >
<title>[[kernel.kallsyms]] (10,101,010 samples, 0.07%)</title><rect x="851.7" y="293" width="0.8" height="15.0" fill="rgb(254,114,29)" rx="2" ry="2" />
<text  x="854.65" y="303.5" ></text>
</g>
<g >
<title>[[kernel.kallsyms]] (10,101,010 samples, 0.07%)</title><rect x="108.5" y="293" width="0.8" height="15.0" fill="rgb(247,184,9)" rx="2" ry="2" />
<text  x="111.47" y="303.5" ></text>
</g>
<g >
<title>[[kernel.kallsyms]] (2,030,303,010 samples, 14.34%)</title><rect x="852.5" y="277" width="169.2" height="15.0" fill="rgb(214,135,35)" rx="2" ry="2" />
<text  x="855.50" y="287.5" >[[kernel.kallsyms]]</text>
</g>
<g >
<title>[[kernel.kallsyms]] (60,606,060 samples, 0.43%)</title><rect x="125.3" y="229" width="5.1" height="15.0" fill="rgb(248,46,12)" rx="2" ry="2" />
<text  x="128.31" y="239.5" ></text>
</g>
<g >
<title>[[kernel.kallsyms]] (10,101,010 samples, 0.07%)</title><rect x="108.5" y="213" width="0.8" height="15.0" fill="rgb(250,97,25)" rx="2" ry="2" />
<text  x="111.47" y="223.5" ></text>
</g>
<g >
<title>[[kernel.kallsyms]] (10,101,010 samples, 0.07%)</title><rect x="129.5" y="37" width="0.9" height="15.0" fill="rgb(249,226,45)" rx="2" ry="2" />
<text  x="132.51" y="47.5" ></text>
</g>
<g >
<title>[[kernel.kallsyms]] (20,202,020 samples, 0.14%)</title><rect x="130.4" y="261" width="1.6" height="15.0" fill="rgb(237,190,31)" rx="2" ry="2" />
<text  x="133.36" y="271.5" ></text>
</g>
<g >
<title>[[kernel.kallsyms]] (20,202,020 samples, 0.14%)</title><rect x="121.9" y="149" width="1.7" height="15.0" fill="rgb(251,65,27)" rx="2" ry="2" />
<text  x="124.94" y="159.5" ></text>
</g>
<g >
<title>__vdso_clock_gettime (10,101,010 samples, 0.07%)</title><rect x="150.6" y="325" width="0.8" height="15.0" fill="rgb(228,13,28)" rx="2" ry="2" />
<text  x="153.56" y="335.5" ></text>
</g>
<g >
<title>python3 (10,101,010 samples, 0.07%)</title><rect x="850.0" y="357" width="0.8" height="15.0" fill="rgb(232,48,16)" rx="2" ry="2" />
<text  x="852.97" y="367.5" ></text>
</g>
<g >
<title>[[kernel.kallsyms]] (10,101,010 samples, 0.07%)</title><rect x="12.5" y="213" width="0.9" height="15.0" fill="rgb(205,148,41)" rx="2" ry="2" />
<text  x="15.52" y="223.5" ></text>
</g>
<g >
<title>[unknown] (414,141,410 samples, 2.92%)</title><rect x="50.4" y="325" width="34.5" height="15.0" fill="rgb(233,48,49)" rx="2" ry="2" />
<text  x="53.40" y="335.5" >[u..</text>
</g>
<g >
<title>[[kernel.kallsyms]] (10,101,010 samples, 0.07%)</title><rect x="131.2" y="213" width="0.8" height="15.0" fill="rgb(213,128,3)" rx="2" ry="2" />
<text  x="134.20" y="223.5" ></text>
</g>
<g >
<title>[unknown] (2,020,202,000 samples, 14.27%)</title><rect x="1021.7" y="293" width="168.3" height="15.0" fill="rgb(206,190,10)" rx="2" ry="2" />
<text  x="1024.67" y="303.5" >[unknown]</text>
</g>
<g >
<title>[[kernel.kallsyms]] (10,101,010 samples, 0.07%)</title><rect x="850.8" y="165" width="0.9" height="15.0" fill="rgb(222,116,9)" rx="2" ry="2" />
<text  x="853.81" y="175.5" ></text>
</g>
<g >
<title>[[kernel.kallsyms]] (10,101,010 samples, 0.07%)</title><rect x="12.5" y="309" width="0.9" height="15.0" fill="rgb(254,22,0)" rx="2" ry="2" />
<text  x="15.52" y="319.5" ></text>
</g>
<g >
<title>_int_free (10,101,010 samples, 0.07%)</title><rect x="10.8" y="325" width="0.9" height="15.0" fill="rgb(234,69,39)" rx="2" ry="2" />
<text  x="13.84" y="335.5" ></text>
</g>
<g >
<title>[[kernel.kallsyms]] (10,101,010 samples, 0.07%)</title><rect x="851.7" y="229" width="0.8" height="15.0" fill="rgb(205,205,25)" rx="2" ry="2" />
<text  x="854.65" y="239.5" ></text>
</g>
<g >
<title>[[kernel.kallsyms]] (20,202,020 samples, 0.14%)</title><rect x="86.6" y="197" width="1.7" height="15.0" fill="rgb(224,211,8)" rx="2" ry="2" />
<text  x="89.59" y="207.5" ></text>
</g>
<g >
<title>[larson-sized] (303,030,300 samples, 2.14%)</title><rect x="13.4" y="341" width="25.2" height="15.0" fill="rgb(246,154,25)" rx="2" ry="2" />
<text  x="16.37" y="351.5" >[..</text>
</g>
<g >
<title>[[kernel.kallsyms]] (40,404,040 samples, 0.29%)</title><rect x="84.9" y="229" width="3.4" height="15.0" fill="rgb(221,78,13)" rx="2" ry="2" />
<text  x="87.91" y="239.5" ></text>
</g>
<g >
<title>[[kernel.kallsyms]] (2,020,202,000 samples, 14.27%)</title><rect x="1021.7" y="197" width="168.3" height="15.0" fill="rgb(253,20,21)" rx="2" ry="2" />
<text  x="1024.67" y="207.5" >[[kernel.kallsyms]]</text>
</g>
<g >
<title>larson-sized (10,050,504,950 samples, 70.97%)</title><rect x="12.5" y="357" width="837.5" height="15.0" fill="rgb(232,109,52)" rx="2" ry="2" />
<text  x="15.52" y="367.5" >larson-sized</text>
</g>
<g >
<title>[[kernel.kallsyms]] (10,101,010 samples, 0.07%)</title><rect x="11.7" y="213" width="0.8" height="15.0" fill="rgb(222,171,47)" rx="2" ry="2" />
<text  x="14.68" y="223.5" ></text>
</g>
<g >
<title>[[kernel.kallsyms]] (20,202,020 samples, 0.14%)</title><rect x="130.4" y="293" width="1.6" height="15.0" fill="rgb(243,130,54)" rx="2" ry="2" />
<text  x="133.36" y="303.5" ></text>
</g>
<g >
<title>[[kernel.kallsyms]] (30,303,030 samples, 0.21%)</title><rect x="121.1" y="309" width="2.5" height="15.0" fill="rgb(246,139,39)" rx="2" ry="2" />
<text  x="124.10" y="319.5" ></text>
</g>
<g >
<title>[[kernel.kallsyms]] (10,101,010 samples, 0.07%)</title><rect x="12.5" y="229" width="0.9" height="15.0" fill="rgb(230,211,10)" rx="2" ry="2" />
<text  x="15.52" y="239.5" ></text>
</g>
<g >
<title>__sched_yield (10,101,010 samples, 0.07%)</title><rect x="50.4" y="309" width="0.8" height="15.0" fill="rgb(246,8,17)" rx="2" ry="2" />
<text  x="53.40" y="319.5" ></text>
</g>
<g >
<title>mi_find_page (222,222,220 samples, 1.57%)</title><rect x="62.2" y="309" width="18.5" height="15.0" fill="rgb(221,40,22)" rx="2" ry="2" />
<text  x="65.18" y="319.5" ></text>
</g>
<g >
<title>_mi_malloc_generic (50,505,050 samples, 0.36%)</title><rect x="132.0" y="341" width="4.2" height="15.0" fill="rgb(226,228,48)" rx="2" ry="2" />
<text  x="135.04" y="351.5" ></text>
</g>
<g >
<title>[unknown] (10,101,010 samples, 0.07%)</title><rect x="850.0" y="341" width="0.8" height="15.0" fill="rgb(254,157,15)" rx="2" ry="2" />
<text  x="852.97" y="351.5" ></text>
</g>
<g >
<title>[[kernel.kallsyms]] (10,101,010 samples, 0.07%)</title><rect x="10.0" y="293" width="0.8" height="15.0" fill="rgb(229,59,54)" rx="2" ry="2" />
<text  x="13.00" y="303.5" ></text>
</g>
<g >
<title>[[kernel.kallsyms]] (10,101,010 samples, 0.07%)</title><rect x="12.5" y="117" width="0.9" height="15.0" fill="rgb(222,56,13)" rx="2" ry="2" />
<text  x="15.52" y="127.5" ></text>
</g>
<g >
<title>[unknown] (898,989,890 samples, 6.35%)</title><rect x="50.4" y="341" width="74.9" height="15.0" fill="rgb(244,4,54)" rx="2" ry="2" />
<text  x="53.40" y="351.5" >[unknown]</text>
</g>
<g >
<title>[[kernel.kallsyms]] (10,101,010 samples, 0.07%)</title><rect x="108.5" y="261" width="0.8" height="15.0" fill="rgb(224,103,26)" rx="2" ry="2" />
<text  x="111.47" y="271.5" ></text>
</g>
<g >
<title>__mmap (20,202,020 samples, 0.14%)</title><rect x="130.4" y="341" width="1.6" height="15.0" fill="rgb(254,25,16)" rx="2" ry="2" />
<text  x="133.36" y="351.5" ></text>
</g>
<g >
<title>[[kernel.kallsyms]] (60,606,060 samples, 0.43%)</title><rect x="125.3" y="261" width="5.1" height="15.0" fill="rgb(242,29,34)" rx="2" ry="2" />
<text  x="128.31" y="271.5" ></text>
</g>
<g >
<title>[[kernel.kallsyms]] (10,101,010 samples, 0.07%)</title><rect x="851.7" y="325" width="0.8" height="15.0" fill="rgb(248,148,47)" rx="2" ry="2" />
<text  x="854.65" y="335.5" ></text>
</g>
<g >
<title>[[kernel.kallsyms]] (2,030,303,010 samples, 14.34%)</title><rect x="852.5" y="309" width="169.2" height="15.0" fill="rgb(229,200,27)" rx="2" ry="2" />
<text  x="855.50" y="319.5" >[[kernel.kallsyms]]</text>
</g>
<g >
<title>_mi_page_unfull (20,202,020 samples, 0.14%)</title><rect x="148.0" y="341" width="1.7" height="15.0" fill="rgb(238,65,22)" rx="2" ry="2" />
<text  x="151.03" y="351.5" ></text>
</g>
<g >
<title>[[kernel.kallsyms]] (10,101,010 samples, 0.07%)</title><rect x="851.7" y="309" width="0.8" height="15.0" fill="rgb(249,172,20)" rx="2" ry="2" />
<text  x="854.65" y="319.5" ></text>
</g>
<g >
<title>__madvise (60,606,060 samples, 0.43%)</title><rect x="125.3" y="341" width="5.1" height="15.0" fill="rgb(230,108,4)" rx="2" ry="2" />
<text  x="128.31" y="351.5" ></text>
</g>
<g >
<title>[[kernel.kallsyms]] (10,101,010 samples, 0.07%)</title><rect x="108.5" y="229" width="0.8" height="15.0" fill="rgb(246,163,12)" rx="2" ry="2" />
<text  x="111.47" y="239.5" ></text>
</g>
<g >
<title>runthreads (20,202,020 samples, 0.14%)</title><rect x="123.6" y="325" width="1.7" height="15.0" fill="rgb(250,162,30)" rx="2" ry="2" />
<text  x="126.62" y="335.5" ></text>
</g>
<g >
<title>[[kernel.kallsyms]] (10,101,010 samples, 0.07%)</title><rect x="850.8" y="277" width="0.9" height="15.0" fill="rgb(212,154,23)" rx="2" ry="2" />
<text  x="853.81" y="287.5" ></text>
</g>
<g >
<title>[[kernel.kallsyms]] (2,030,303,010 samples, 14.34%)</title><rect x="852.5" y="245" width="169.2" height="15.0" fill="rgb(229,65,49)" rx="2" ry="2" />
<text  x="855.50" y="255.5" >[[kernel.kallsyms]]</text>
</g>
<g >
<title>operator delete[] (1,202,020,190 samples, 8.49%)</title><rect x="510.8" y="341" width="100.1" height="15.0" fill="rgb(221,65,21)" rx="2" ry="2" />
<text  x="513.78" y="351.5" >operator del..</text>
</g>
<g >
<title>[[kernel.kallsyms]] (2,020,202,000 samples, 14.27%)</title><rect x="1021.7" y="229" width="168.3" height="15.0" fill="rgb(206,49,50)" rx="2" ry="2" />
<text  x="1024.67" y="239.5" >[[kernel.kallsyms]]</text>
</g>
<g >
<title>[[kernel.kallsyms]] (10,101,010 samples, 0.07%)</title><rect x="129.5" y="69" width="0.9" height="15.0" fill="rgb(251,192,15)" rx="2" ry="2" />
<text  x="132.51" y="79.5" ></text>
</g>
<g >
<title>[[kernel.kallsyms]] (30,303,030 samples, 0.21%)</title><rect x="121.1" y="277" width="2.5" height="15.0" fill="rgb(232,108,15)" rx="2" ry="2" />
<text  x="124.10" y="287.5" ></text>
</g>
<g >
<title>[[kernel.kallsyms]] (10,101,010 samples, 0.07%)</title><rect x="12.5" y="261" width="0.9" height="15.0" fill="rgb(215,165,19)" rx="2" ry="2" />
<text  x="15.52" y="271.5" ></text>
</g>
<g >
<title>[[kernel.kallsyms]] (10,101,010 samples, 0.07%)</title><rect x="850.8" y="261" width="0.9" height="15.0" fill="rgb(237,62,35)" rx="2" ry="2" />
<text  x="853.81" y="271.5" ></text>
</g>
<g >
<title>[[kernel.kallsyms]] (30,303,030 samples, 0.21%)</title><rect x="121.1" y="181" width="2.5" height="15.0" fill="rgb(227,167,29)" rx="2" ry="2" />
<text  x="124.10" y="191.5" ></text>
</g>
<g >
<title>[[kernel.kallsyms]] (10,101,010 samples, 0.07%)</title><rect x="850.8" y="245" width="0.9" height="15.0" fill="rgb(229,168,34)" rx="2" ry="2" />
<text  x="853.81" y="255.5" ></text>
</g>
<g >
<title>[[kernel.kallsyms]] (10,101,010 samples, 0.07%)</title><rect x="851.7" y="181" width="0.8" height="15.0" fill="rgb(247,193,54)" rx="2" ry="2" />
<text  x="854.65" y="191.5" ></text>
</g>
<g >
<title>[[kernel.kallsyms]] (10,101,010 samples, 0.07%)</title><rect x="12.5" y="101" width="0.9" height="15.0" fill="rgb(246,212,31)" rx="2" ry="2" />
<text  x="15.52" y="111.5" ></text>
</g>
<g >
<title>[[kernel.kallsyms]] (10,101,010 samples, 0.07%)</title><rect x="108.5" y="181" width="0.8" height="15.0" fill="rgb(246,99,18)" rx="2" ry="2" />
<text  x="111.47" y="191.5" ></text>
</g>
<g >
<title>[[kernel.kallsyms]] (10,101,010 samples, 0.07%)</title><rect x="12.5" y="197" width="0.9" height="15.0" fill="rgb(210,218,24)" rx="2" ry="2" />
<text  x="15.52" y="207.5" ></text>
</g>
<g >
<title>[[kernel.kallsyms]] (10,101,010 samples, 0.07%)</title><rect x="850.8" y="197" width="0.9" height="15.0" fill="rgb(215,152,16)" rx="2" ry="2" />
<text  x="853.81" y="207.5" ></text>
</g>
<g >
<title>[[kernel.kallsyms]] (10,101,010 samples, 0.07%)</title><rect x="11.7" y="261" width="0.8" height="15.0" fill="rgb(206,151,45)" rx="2" ry="2" />
<text  x="14.68" y="271.5" ></text>
</g>
<g >
<title>[[kernel.kallsyms]] (20,202,020 samples, 0.14%)</title><rect x="130.4" y="325" width="1.6" height="15.0" fill="rgb(226,56,42)" rx="2" ry="2" />
<text  x="133.36" y="335.5" ></text>
</g>
<g >
<title>[[kernel.kallsyms]] (10,101,010 samples, 0.07%)</title><rect x="12.5" y="341" width="0.9" height="15.0" fill="rgb(223,115,11)" rx="2" ry="2" />
<text  x="15.52" y="351.5" ></text>
</g>
<g >
<title>[[kernel.kallsyms]] (10,101,010 samples, 0.07%)</title><rect x="11.7" y="165" width="0.8" height="15.0" fill="rgb(232,44,50)" rx="2" ry="2" />
<text  x="14.68" y="175.5" ></text>
</g>
<g >
<title>mi_free_generic (40,404,040 samples, 0.29%)</title><rect x="499.0" y="341" width="3.4" height="15.0" fill="rgb(247,32,47)" rx="2" ry="2" />
<text  x="502.00" y="351.5" ></text>
</g>
<g >
<title>[[kernel.kallsyms]] (30,303,030 samples, 0.21%)</title><rect x="121.1" y="293" width="2.5" height="15.0" fill="rgb(249,119,19)" rx="2" ry="2" />
<text  x="124.10" y="303.5" ></text>
</g>
<g >
<title>sed (10,101,010 samples, 0.07%)</title><rect x="851.7" y="357" width="0.8" height="15.0" fill="rgb(231,4,49)" rx="2" ry="2" />
<text  x="854.65" y="367.5" ></text>
</g>
<g >
<title>[[kernel.kallsyms]] (2,030,303,010 samples, 14.34%)</title><rect x="852.5" y="261" width="169.2" height="15.0" fill="rgb(216,113,20)" rx="2" ry="2" />
<text  x="855.50" y="271.5" >[[kernel.kallsyms]]</text>
</g>
<g >
<title>_mi_page_unfull (111,111,110 samples, 0.78%)</title><rect x="99.2" y="325" width="9.3" height="15.0" fill="rgb(240,185,36)" rx="2" ry="2" />
<text  x="102.22" y="335.5" ></text>
</g>
<g >
<title>[[kernel.kallsyms]] (60,606,060 samples, 0.43%)</title><rect x="125.3" y="181" width="5.1" height="15.0" fill="rgb(226,111,44)" rx="2" ry="2" />
<text  x="128.31" y="191.5" ></text>
</g>
<g >
<title>[[kernel.kallsyms]] (60,606,060 samples, 0.43%)</title><rect x="125.3" y="325" width="5.1" height="15.0" fill="rgb(232,32,18)" rx="2" ry="2" />
<text  x="128.31" y="335.5" ></text>
</g>
<g >
<title>[python3.8] (10,101,010 samples, 0.07%)</title><rect x="850.0" y="325" width="0.8" height="15.0" fill="rgb(236,28,54)" rx="2" ry="2" />
<text  x="852.97" y="335.5" ></text>
</g>
<g >
<title>[[kernel.kallsyms]] (40,404,040 samples, 0.29%)</title><rect x="84.9" y="277" width="3.4" height="15.0" fill="rgb(232,100,11)" rx="2" ry="2" />
<text  x="87.91" y="287.5" ></text>
</g>
<g >
<title>[unknown] (20,202,020 samples, 0.14%)</title><rect x="10.0" y="341" width="1.7" height="15.0" fill="rgb(218,46,23)" rx="2" ry="2" />
<text  x="13.00" y="351.5" ></text>
</g>
<g >
<title>[[kernel.kallsyms]] (10,101,010 samples, 0.07%)</title><rect x="87.4" y="181" width="0.9" height="15.0" fill="rgb(242,178,34)" rx="2" ry="2" />
<text  x="90.43" y="191.5" ></text>
</g>
<g >
<title>[unknown] (2,020,202,000 samples, 14.27%)</title><rect x="1021.7" y="325" width="168.3" height="15.0" fill="rgb(216,104,47)" rx="2" ry="2" />
<text  x="1024.67" y="335.5" >[unknown]</text>
</g>
<g >
<title>[[kernel.kallsyms]] (10,101,010 samples, 0.07%)</title><rect x="129.5" y="117" width="0.9" height="15.0" fill="rgb(211,165,40)" rx="2" ry="2" />
<text  x="132.51" y="127.5" ></text>
</g>
<g >
<title>exercise_heap (4,171,717,130 samples, 29.46%)</title><rect x="151.4" y="341" width="347.6" height="15.0" fill="rgb(249,138,29)" rx="2" ry="2" />
<text  x="154.40" y="351.5" >exercise_heap</text>
</g>
<g >
<title>[[kernel.kallsyms]] (10,101,010 samples, 0.07%)</title><rect x="850.8" y="181" width="0.9" height="15.0" fill="rgb(209,10,13)" rx="2" ry="2" />
<text  x="853.81" y="191.5" ></text>
</g>
<g >
<title>[[kernel.kallsyms]] (10,101,010 samples, 0.07%)</title><rect x="108.5" y="309" width="0.8" height="15.0" fill="rgb(236,89,23)" rx="2" ry="2" />
<text  x="111.47" y="319.5" ></text>
</g>
<g >
<title>[[kernel.kallsyms]] (10,101,010 samples, 0.07%)</title><rect x="851.7" y="277" width="0.8" height="15.0" fill="rgb(219,140,39)" rx="2" ry="2" />
<text  x="854.65" y="287.5" ></text>
</g>
<g >
<title>[[kernel.kallsyms]] (10,101,010 samples, 0.07%)</title><rect x="11.7" y="245" width="0.8" height="15.0" fill="rgb(254,166,18)" rx="2" ry="2" />
<text  x="14.68" y="255.5" ></text>
</g>
<g >
<title>[[kernel.kallsyms]] (2,020,202,000 samples, 14.27%)</title><rect x="1021.7" y="181" width="168.3" height="15.0" fill="rgb(220,94,10)" rx="2" ry="2" />
<text  x="1024.67" y="191.5" >[[kernel.kallsyms]]</text>
</g>
<g >
<title>_mi_free_block_mt (131,313,130 samples, 0.93%)</title><rect x="88.3" y="325" width="10.9" height="15.0" fill="rgb(222,152,10)" rx="2" ry="2" />
<text  x="91.27" y="335.5" ></text>
</g>
<g >
<title>[[kernel.kallsyms]] (40,404,040 samples, 0.29%)</title><rect x="84.9" y="261" width="3.4" height="15.0" fill="rgb(210,93,40)" rx="2" ry="2" />
<text  x="87.91" y="271.5" ></text>
</g>
<g >
<title>[[kernel.kallsyms]] (10,101,010 samples, 0.07%)</title><rect x="11.7" y="197" width="0.8" height="15.0" fill="rgb(217,57,15)" rx="2" ry="2" />
<text  x="14.68" y="207.5" ></text>
</g>
<g >
<title>[[kernel.kallsyms]] (10,101,010 samples, 0.07%)</title><rect x="12.5" y="245" width="0.9" height="15.0" fill="rgb(234,223,5)" rx="2" ry="2" />
<text  x="15.52" y="255.5" ></text>
</g>
<g >
<title>bench.sh (20,202,020 samples, 0.14%)</title><rect x="10.0" y="357" width="1.7" height="15.0" fill="rgb(235,203,51)" rx="2" ry="2" />
<text  x="13.00" y="367.5" ></text>
</g>
<g >
<title>[[kernel.kallsyms]] (10,101,010 samples, 0.07%)</title><rect x="851.7" y="261" width="0.8" height="15.0" fill="rgb(231,176,47)" rx="2" ry="2" />
<text  x="854.65" y="271.5" ></text>
</g>
<g >
<title>[[kernel.kallsyms]] (2,030,303,010 samples, 14.34%)</title><rect x="852.5" y="325" width="169.2" height="15.0" fill="rgb(229,207,12)" rx="2" ry="2" />
<text  x="855.50" y="335.5" >[[kernel.kallsyms]]</text>
</g>
<g >
<title>[[kernel.kallsyms]] (10,101,010 samples, 0.07%)</title><rect x="10.8" y="197" width="0.9" height="15.0" fill="rgb(225,121,44)" rx="2" ry="2" />
<text  x="13.84" y="207.5" ></text>
</g>
<g >
<title>[[kernel.kallsyms]] (10,101,010 samples, 0.07%)</title><rect x="12.5" y="277" width="0.9" height="15.0" fill="rgb(223,206,36)" rx="2" ry="2" />
<text  x="15.52" y="287.5" ></text>
</g>
<g >
<title>[unknown] (10,101,010 samples, 0.07%)</title><rect x="850.8" y="341" width="0.9" height="15.0" fill="rgb(240,63,19)" rx="2" ry="2" />
<text  x="853.81" y="351.5" ></text>
</g>
<g >
<title>[[kernel.kallsyms]] (10,101,010 samples, 0.07%)</title><rect x="129.5" y="165" width="0.9" height="15.0" fill="rgb(242,92,34)" rx="2" ry="2" />
<text  x="132.51" y="175.5" ></text>
</g>
<g >
<title>[[kernel.kallsyms]] (20,202,020 samples, 0.14%)</title><rect x="130.4" y="277" width="1.6" height="15.0" fill="rgb(211,25,39)" rx="2" ry="2" />
<text  x="133.36" y="287.5" ></text>
</g>
<g >
<title>__memrchr_ifunc (10,101,010 samples, 0.07%)</title><rect x="11.7" y="293" width="0.8" height="15.0" fill="rgb(227,61,21)" rx="2" ry="2" />
<text  x="14.68" y="303.5" ></text>
</g>
<g >
<title>[[kernel.kallsyms]] (10,101,010 samples, 0.07%)</title><rect x="108.5" y="197" width="0.8" height="15.0" fill="rgb(233,109,44)" rx="2" ry="2" />
<text  x="111.47" y="207.5" ></text>
</g>
<g >
<title>[[kernel.kallsyms]] (2,030,303,010 samples, 14.34%)</title><rect x="852.5" y="293" width="169.2" height="15.0" fill="rgb(243,53,18)" rx="2" ry="2" />
<text  x="855.50" y="303.5" >[[kernel.kallsyms]]</text>
</g>
<g >
<title>dl_main (10,101,010 samples, 0.07%)</title><rect x="11.7" y="309" width="0.8" height="15.0" fill="rgb(253,55,30)" rx="2" ry="2" />
<text  x="14.68" y="319.5" ></text>
</g>
<g >
<title>[[kernel.kallsyms]] (10,101,010 samples, 0.07%)</title><rect x="10.8" y="245" width="0.9" height="15.0" fill="rgb(247,196,11)" rx="2" ry="2" />
<text  x="13.84" y="255.5" ></text>
</g>
<g >
<title>[[kernel.kallsyms]] (40,404,040 samples, 0.29%)</title><rect x="84.9" y="309" width="3.4" height="15.0" fill="rgb(207,67,44)" rx="2" ry="2" />
<text  x="87.91" y="319.5" ></text>
</g>
<g >
<title>[[kernel.kallsyms]] (2,020,202,000 samples, 14.27%)</title><rect x="1021.7" y="245" width="168.3" height="15.0" fill="rgb(228,22,8)" rx="2" ry="2" />
<text  x="1024.67" y="255.5" >[[kernel.kallsyms]]</text>
</g>
<g >
<title>mi_page_queue_find_free_ex (101,010,100 samples, 0.71%)</title><rect x="502.4" y="341" width="8.4" height="15.0" fill="rgb(227,123,29)" rx="2" ry="2" />
<text  x="505.37" y="351.5" ></text>
</g>
<g >
<title>mi_page_queue_find_free_ex (50,505,050 samples, 0.36%)</title><rect x="80.7" y="309" width="4.2" height="15.0" fill="rgb(231,141,39)" rx="2" ry="2" />
<text  x="83.70" y="319.5" ></text>
</g>
<g >
<title>mi_free_generic (101,010,100 samples, 0.71%)</title><rect x="109.3" y="325" width="8.4" height="15.0" fill="rgb(214,91,48)" rx="2" ry="2" />
<text  x="112.32" y="335.5" ></text>
</g>
<g >
<title>[[kernel.kallsyms]] (10,101,010 samples, 0.07%)</title><rect x="11.7" y="181" width="0.8" height="15.0" fill="rgb(235,228,29)" rx="2" ry="2" />
<text  x="14.68" y="191.5" ></text>
</g>
<g >
<title>[[kernel.kallsyms]] (30,303,030 samples, 0.21%)</title><rect x="121.1" y="245" width="2.5" height="15.0" fill="rgb(211,76,22)" rx="2" ry="2" />
<text  x="124.10" y="255.5" ></text>
</g>
<g >
<title>[[kernel.kallsyms]] (10,101,010 samples, 0.07%)</title><rect x="10.8" y="277" width="0.9" height="15.0" fill="rgb(205,207,51)" rx="2" ry="2" />
<text  x="13.84" y="287.5" ></text>
</g>
<g >
<title>[libmimalloc.so.1.7] (141,414,140 samples, 1.00%)</title><rect x="38.6" y="341" width="11.8" height="15.0" fill="rgb(209,123,49)" rx="2" ry="2" />
<text  x="41.62" y="351.5" ></text>
</g>
<g >
<title>[[kernel.kallsyms]] (10,101,010 samples, 0.07%)</title><rect x="12.5" y="325" width="0.9" height="15.0" fill="rgb(235,90,38)" rx="2" ry="2" />
<text  x="15.52" y="335.5" ></text>
</g>
<g >
<title>[[kernel.kallsyms]] (30,303,030 samples, 0.21%)</title><rect x="121.1" y="261" width="2.5" height="15.0" fill="rgb(218,79,35)" rx="2" ry="2" />
<text  x="124.10" y="271.5" ></text>
</g>
<g >
<title>[[kernel.kallsyms]] (10,101,010 samples, 0.07%)</title><rect x="129.5" y="85" width="0.9" height="15.0" fill="rgb(223,189,32)" rx="2" ry="2" />
<text  x="132.51" y="95.5" ></text>
</g>
<g >
<title>[[kernel.kallsyms]] (10,101,010 samples, 0.07%)</title><rect x="12.5" y="165" width="0.9" height="15.0" fill="rgb(219,80,10)" rx="2" ry="2" />
<text  x="15.52" y="175.5" ></text>
</g>
<g >
<title>[[kernel.kallsyms]] (10,101,010 samples, 0.07%)</title><rect x="131.2" y="229" width="0.8" height="15.0" fill="rgb(227,99,10)" rx="2" ry="2" />
<text  x="134.20" y="239.5" ></text>
</g>
<g >
<title>operator new[] (2,868,686,840 samples, 20.26%)</title><rect x="610.9" y="341" width="239.1" height="15.0" fill="rgb(228,28,14)" rx="2" ry="2" />
<text  x="613.94" y="351.5" >operator new[]</text>
</g>
<g >
<title>dirname (10,101,010 samples, 0.07%)</title><rect x="11.7" y="357" width="0.8" height="15.0" fill="rgb(206,21,8)" rx="2" ry="2" />
<text  x="14.68" y="367.5" ></text>
</g>
<g >
<title>[[kernel.kallsyms]] (10,101,010 samples, 0.07%)</title><rect x="850.8" y="213" width="0.9" height="15.0" fill="rgb(234,191,5)" rx="2" ry="2" />
<text  x="853.81" y="223.5" ></text>
</g>
<g >
<title>[[kernel.kallsyms]] (30,303,030 samples, 0.21%)</title><rect x="121.1" y="229" width="2.5" height="15.0" fill="rgb(217,86,27)" rx="2" ry="2" />
<text  x="124.10" y="239.5" ></text>
</g>
<g >
<title>_int_malloc (10,101,010 samples, 0.07%)</title><rect x="851.7" y="341" width="0.8" height="15.0" fill="rgb(226,178,46)" rx="2" ry="2" />
<text  x="854.65" y="351.5" ></text>
</g>
<g >
<title>[[kernel.kallsyms]] (30,303,030 samples, 0.21%)</title><rect x="121.1" y="213" width="2.5" height="15.0" fill="rgb(219,74,15)" rx="2" ry="2" />
<text  x="124.10" y="223.5" ></text>
</g>
</g>
</svg>
