<?xml version="1.0" standalone="no"?>
<!DOCTYPE svg PUBLIC "-//W3C//DTD SVG 1.1//EN" "http://www.w3.org/Graphics/SVG/1.1/DTD/svg11.dtd">
<svg version="1.1" width="1200" height="358" onload="init(evt)" viewBox="0 0 1200 358" xmlns="http://www.w3.org/2000/svg" xmlns:xlink="http://www.w3.org/1999/xlink">
<!-- Flame graph stack visualization. See https://github.com/brendangregg/FlameGraph for latest version, and http://www.brendangregg.com/flamegraphs.html for examples. -->
<!-- NOTES:  -->
<defs>
	<linearGradient id="background" y1="0" y2="1" x1="0" x2="0" >
		<stop stop-color="#eeeeee" offset="5%" />
		<stop stop-color="#eeeeb0" offset="95%" />
	</linearGradient>
</defs>
<style type="text/css">
	text { font-family:Verdana; font-size:12px; fill:rgb(0,0,0); }
	#search, #ignorecase { opacity:0.1; cursor:pointer; }
	#search:hover, #search.show, #ignorecase:hover, #ignorecase.show { opacity:1; }
	#subtitle { text-anchor:middle; font-color:rgb(160,160,160); }
	#title { text-anchor:middle; font-size:17px}
	#unzoom { cursor:pointer; }
	#frames > *:hover { stroke:black; stroke-width:0.5; cursor:pointer; }
	.hide { display:none; }
	.parent { opacity:0.5; }
</style>
<script type="text/ecmascript">
<![CDATA[
	"use strict";
	var details, searchbtn, unzoombtn, matchedtxt, svg, searching, currentSearchTerm, ignorecase, ignorecaseBtn;
	function init(evt) {
		details = document.getElementById("details").firstChild;
		searchbtn = document.getElementById("search");
		ignorecaseBtn = document.getElementById("ignorecase");
		unzoombtn = document.getElementById("unzoom");
		matchedtxt = document.getElementById("matched");
		svg = document.getElementsByTagName("svg")[0];
		searching = 0;
		currentSearchTerm = null;

		// use GET parameters to restore a flamegraphs state.
		var params = get_params();
		if (params.x && params.y)
			zoom(find_group(document.querySelector('[x="' + params.x + '"][y="' + params.y + '"]')));
                if (params.s) search(params.s);
	}

	// event listeners
	window.addEventListener("click", function(e) {
		var target = find_group(e.target);
		if (target) {
			if (target.nodeName == "a") {
				if (e.ctrlKey === false) return;
				e.preventDefault();
			}
			if (target.classList.contains("parent")) unzoom(true);
			zoom(target);
			if (!document.querySelector('.parent')) {
				// we have basically done a clearzoom so clear the url
				var params = get_params();
				if (params.x) delete params.x;
				if (params.y) delete params.y;
				history.replaceState(null, null, parse_params(params));
				unzoombtn.classList.add("hide");
				return;
			}

			// set parameters for zoom state
			var el = target.querySelector("rect");
			if (el && el.attributes && el.attributes.y && el.attributes._orig_x) {
				var params = get_params()
				params.x = el.attributes._orig_x.value;
				params.y = el.attributes.y.value;
				history.replaceState(null, null, parse_params(params));
			}
		}
		else if (e.target.id == "unzoom") clearzoom();
		else if (e.target.id == "search") search_prompt();
		else if (e.target.id == "ignorecase") toggle_ignorecase();
	}, false)

	// mouse-over for info
	// show
	window.addEventListener("mouseover", function(e) {
		var target = find_group(e.target);
		if (target) details.nodeValue = "Function: " + g_to_text(target);
	}, false)

	// clear
	window.addEventListener("mouseout", function(e) {
		var target = find_group(e.target);
		if (target) details.nodeValue = ' ';
	}, false)

	// ctrl-F for search
	// ctrl-I to toggle case-sensitive search
	window.addEventListener("keydown",function (e) {
		if (e.keyCode === 114 || (e.ctrlKey && e.keyCode === 70)) {
			e.preventDefault();
			search_prompt();
		}
		else if (e.ctrlKey && e.keyCode === 73) {
			e.preventDefault();
			toggle_ignorecase();
		}
	}, false)

	// functions
	function get_params() {
		var params = {};
		var paramsarr = window.location.search.substr(1).split('&');
		for (var i = 0; i < paramsarr.length; ++i) {
			var tmp = paramsarr[i].split("=");
			if (!tmp[0] || !tmp[1]) continue;
			params[tmp[0]]  = decodeURIComponent(tmp[1]);
		}
		return params;
	}
	function parse_params(params) {
		var uri = "?";
		for (var key in params) {
			uri += key + '=' + encodeURIComponent(params[key]) + '&';
		}
		if (uri.slice(-1) == "&")
			uri = uri.substring(0, uri.length - 1);
		if (uri == '?')
			uri = window.location.href.split('?')[0];
		return uri;
	}
	function find_child(node, selector) {
		var children = node.querySelectorAll(selector);
		if (children.length) return children[0];
	}
	function find_group(node) {
		var parent = node.parentElement;
		if (!parent) return;
		if (parent.id == "frames") return node;
		return find_group(parent);
	}
	function orig_save(e, attr, val) {
		if (e.attributes["_orig_" + attr] != undefined) return;
		if (e.attributes[attr] == undefined) return;
		if (val == undefined) val = e.attributes[attr].value;
		e.setAttribute("_orig_" + attr, val);
	}
	function orig_load(e, attr) {
		if (e.attributes["_orig_"+attr] == undefined) return;
		e.attributes[attr].value = e.attributes["_orig_" + attr].value;
		e.removeAttribute("_orig_"+attr);
	}
	function g_to_text(e) {
		var text = find_child(e, "title").firstChild.nodeValue;
		return (text)
	}
	function g_to_func(e) {
		var func = g_to_text(e);
		// if there's any manipulation we want to do to the function
		// name before it's searched, do it here before returning.
		return (func);
	}
	function update_text(e) {
		var r = find_child(e, "rect");
		var t = find_child(e, "text");
		var w = parseFloat(r.attributes.width.value) -3;
		var txt = find_child(e, "title").textContent.replace(/\([^(]*\)$/,"");
		t.attributes.x.value = parseFloat(r.attributes.x.value) + 3;

		// Smaller than this size won't fit anything
		if (w < 2 * 12 * 0.59) {
			t.textContent = "";
			return;
		}

		t.textContent = txt;
		var sl = t.getSubStringLength(0, txt.length);
		// check if only whitespace or if we can fit the entire string into width w
		if (/^ *$/.test(txt) || sl < w)
			return;

		// this isn't perfect, but gives a good starting point
		// and avoids calling getSubStringLength too often
		var start = Math.floor((w/sl) * txt.length);
		for (var x = start; x > 0; x = x-2) {
			if (t.getSubStringLength(0, x + 2) <= w) {
				t.textContent = txt.substring(0, x) + "..";
				return;
			}
		}
		t.textContent = "";
	}

	// zoom
	function zoom_reset(e) {
		if (e.attributes != undefined) {
			orig_load(e, "x");
			orig_load(e, "width");
		}
		if (e.childNodes == undefined) return;
		for (var i = 0, c = e.childNodes; i < c.length; i++) {
			zoom_reset(c[i]);
		}
	}
	function zoom_child(e, x, ratio) {
		if (e.attributes != undefined) {
			if (e.attributes.x != undefined) {
				orig_save(e, "x");
				e.attributes.x.value = (parseFloat(e.attributes.x.value) - x - 10) * ratio + 10;
				if (e.tagName == "text")
					e.attributes.x.value = find_child(e.parentNode, "rect[x]").attributes.x.value + 3;
			}
			if (e.attributes.width != undefined) {
				orig_save(e, "width");
				e.attributes.width.value = parseFloat(e.attributes.width.value) * ratio;
			}
		}

		if (e.childNodes == undefined) return;
		for (var i = 0, c = e.childNodes; i < c.length; i++) {
			zoom_child(c[i], x - 10, ratio);
		}
	}
	function zoom_parent(e) {
		if (e.attributes) {
			if (e.attributes.x != undefined) {
				orig_save(e, "x");
				e.attributes.x.value = 10;
			}
			if (e.attributes.width != undefined) {
				orig_save(e, "width");
				e.attributes.width.value = parseInt(svg.width.baseVal.value) - (10 * 2);
			}
		}
		if (e.childNodes == undefined) return;
		for (var i = 0, c = e.childNodes; i < c.length; i++) {
			zoom_parent(c[i]);
		}
	}
	function zoom(node) {
		var attr = find_child(node, "rect").attributes;
		var width = parseFloat(attr.width.value);
		var xmin = parseFloat(attr.x.value);
		var xmax = parseFloat(xmin + width);
		var ymin = parseFloat(attr.y.value);
		var ratio = (svg.width.baseVal.value - 2 * 10) / width;

		// XXX: Workaround for JavaScript float issues (fix me)
		var fudge = 0.0001;

		unzoombtn.classList.remove("hide");

		var el = document.getElementById("frames").children;
		for (var i = 0; i < el.length; i++) {
			var e = el[i];
			var a = find_child(e, "rect").attributes;
			var ex = parseFloat(a.x.value);
			var ew = parseFloat(a.width.value);
			var upstack;
			// Is it an ancestor
			if (0 == 0) {
				upstack = parseFloat(a.y.value) > ymin;
			} else {
				upstack = parseFloat(a.y.value) < ymin;
			}
			if (upstack) {
				// Direct ancestor
				if (ex <= xmin && (ex+ew+fudge) >= xmax) {
					e.classList.add("parent");
					zoom_parent(e);
					update_text(e);
				}
				// not in current path
				else
					e.classList.add("hide");
			}
			// Children maybe
			else {
				// no common path
				if (ex < xmin || ex + fudge >= xmax) {
					e.classList.add("hide");
				}
				else {
					zoom_child(e, xmin, ratio);
					update_text(e);
				}
			}
		}
		search();
	}
	function unzoom(dont_update_text) {
		unzoombtn.classList.add("hide");
		var el = document.getElementById("frames").children;
		for(var i = 0; i < el.length; i++) {
			el[i].classList.remove("parent");
			el[i].classList.remove("hide");
			zoom_reset(el[i]);
			if(!dont_update_text) update_text(el[i]);
		}
		search();
	}
	function clearzoom() {
		unzoom();

		// remove zoom state
		var params = get_params();
		if (params.x) delete params.x;
		if (params.y) delete params.y;
		history.replaceState(null, null, parse_params(params));
	}

	// search
	function toggle_ignorecase() {
		ignorecase = !ignorecase;
		if (ignorecase) {
			ignorecaseBtn.classList.add("show");
		} else {
			ignorecaseBtn.classList.remove("show");
		}
		reset_search();
		search();
	}
	function reset_search() {
		var el = document.querySelectorAll("#frames rect");
		for (var i = 0; i < el.length; i++) {
			orig_load(el[i], "fill")
		}
		var params = get_params();
		delete params.s;
		history.replaceState(null, null, parse_params(params));
	}
	function search_prompt() {
		if (!searching) {
			var term = prompt("Enter a search term (regexp " +
			    "allowed, eg: ^ext4_)"
			    + (ignorecase ? ", ignoring case" : "")
			    + "\nPress Ctrl-i to toggle case sensitivity", "");
			if (term != null) search(term);
		} else {
			reset_search();
			searching = 0;
			currentSearchTerm = null;
			searchbtn.classList.remove("show");
			searchbtn.firstChild.nodeValue = "Search"
			matchedtxt.classList.add("hide");
			matchedtxt.firstChild.nodeValue = ""
		}
	}
	function search(term) {
		if (term) currentSearchTerm = term;

		var re = new RegExp(currentSearchTerm, ignorecase ? 'i' : '');
		var el = document.getElementById("frames").children;
		var matches = new Object();
		var maxwidth = 0;
		for (var i = 0; i < el.length; i++) {
			var e = el[i];
			var func = g_to_func(e);
			var rect = find_child(e, "rect");
			if (func == null || rect == null)
				continue;

			// Save max width. Only works as we have a root frame
			var w = parseFloat(rect.attributes.width.value);
			if (w > maxwidth)
				maxwidth = w;

			if (func.match(re)) {
				// highlight
				var x = parseFloat(rect.attributes.x.value);
				orig_save(rect, "fill");
				rect.attributes.fill.value = "rgb(230,0,230)";

				// remember matches
				if (matches[x] == undefined) {
					matches[x] = w;
				} else {
					if (w > matches[x]) {
						// overwrite with parent
						matches[x] = w;
					}
				}
				searching = 1;
			}
		}
		if (!searching)
			return;
		var params = get_params();
		params.s = currentSearchTerm;
		history.replaceState(null, null, parse_params(params));

		searchbtn.classList.add("show");
		searchbtn.firstChild.nodeValue = "Reset Search";

		// calculate percent matched, excluding vertical overlap
		var count = 0;
		var lastx = -1;
		var lastw = 0;
		var keys = Array();
		for (k in matches) {
			if (matches.hasOwnProperty(k))
				keys.push(k);
		}
		// sort the matched frames by their x location
		// ascending, then width descending
		keys.sort(function(a, b){
			return a - b;
		});
		// Step through frames saving only the biggest bottom-up frames
		// thanks to the sort order. This relies on the tree property
		// where children are always smaller than their parents.
		var fudge = 0.0001;	// JavaScript floating point
		for (var k in keys) {
			var x = parseFloat(keys[k]);
			var w = matches[keys[k]];
			if (x >= lastx + lastw - fudge) {
				count += w;
				lastx = x;
				lastw = w;
			}
		}
		// display matched percent
		matchedtxt.classList.remove("hide");
		var pct = 100 * count / maxwidth;
		if (pct != 100) pct = pct.toFixed(1)
		matchedtxt.firstChild.nodeValue = "Matched: " + pct + "%";
	}
]]>
</script>
<rect x="0.0" y="0" width="1200.0" height="358.0" fill="url(#background)"  />
<text id="title" x="600.00" y="24" >Flame Graph</text>
<text id="details" x="10.00" y="341" > </text>
<text id="unzoom" x="10.00" y="24" class="hide">Reset Zoom</text>
<text id="search" x="1090.00" y="24" >Search</text>
<text id="ignorecase" x="1174.00" y="24" >ic</text>
<text id="matched" x="1090.00" y="341" > </text>
<g id="frames">
<g >
<title>[[kernel.kallsyms]] (20,202,020 samples, 0.14%)</title><rect x="207.5" y="229" width="1.7" height="15.0" fill="rgb(243,117,33)" rx="2" ry="2" />
<text  x="210.51" y="239.5" ></text>
</g>
<g >
<title>[[kernel.kallsyms]] (20,202,020 samples, 0.14%)</title><rect x="836.2" y="197" width="1.6" height="15.0" fill="rgb(252,64,36)" rx="2" ry="2" />
<text  x="839.17" y="207.5" ></text>
</g>
<g >
<title>all (14,181,818,040 samples, 100%)</title><rect x="10.0" y="309" width="1180.0" height="15.0" fill="rgb(221,9,43)" rx="2" ry="2" />
<text  x="13.00" y="319.5" ></text>
</g>
<g >
<title>[[kernel.kallsyms]] (10,101,010 samples, 0.07%)</title><rect x="245.3" y="229" width="0.9" height="15.0" fill="rgb(206,55,0)" rx="2" ry="2" />
<text  x="248.33" y="239.5" ></text>
</g>
<g >
<title>[[kernel.kallsyms]] (40,404,040 samples, 0.28%)</title><rect x="795.0" y="245" width="3.3" height="15.0" fill="rgb(232,191,31)" rx="2" ry="2" />
<text  x="797.99" y="255.5" ></text>
</g>
<g >
<title>do_redirections (10,101,010 samples, 0.07%)</title><rect x="10.0" y="245" width="0.8" height="15.0" fill="rgb(211,50,0)" rx="2" ry="2" />
<text  x="13.00" y="255.5" ></text>
</g>
<g >
<title>[libstdc++.so.6.0.28] (363,636,360 samples, 2.56%)</title><rect x="26.0" y="277" width="30.2" height="15.0" fill="rgb(245,175,35)" rx="2" ry="2" />
<text  x="28.97" y="287.5" >[l..</text>
</g>
<g >
<title>[[kernel.kallsyms]] (10,101,010 samples, 0.07%)</title><rect x="847.1" y="165" width="0.8" height="15.0" fill="rgb(205,155,19)" rx="2" ry="2" />
<text  x="850.09" y="175.5" ></text>
</g>
<g >
<title>[[kernel.kallsyms]] (2,050,505,030 samples, 14.46%)</title><rect x="1019.4" y="133" width="170.6" height="15.0" fill="rgb(246,30,3)" rx="2" ry="2" />
<text  x="1022.39" y="143.5" >[[kernel.kallsyms]]</text>
</g>
<g >
<title>[unknown] (2,050,505,030 samples, 14.46%)</title><rect x="1019.4" y="229" width="170.6" height="15.0" fill="rgb(207,81,9)" rx="2" ry="2" />
<text  x="1022.39" y="239.5" >[unknown]</text>
</g>
<g >
<title>[[kernel.kallsyms]] (10,101,010 samples, 0.07%)</title><rect x="847.1" y="85" width="0.8" height="15.0" fill="rgb(234,211,10)" rx="2" ry="2" />
<text  x="850.09" y="95.5" ></text>
</g>
<g >
<title>[[kernel.kallsyms]] (10,101,010 samples, 0.07%)</title><rect x="326.9" y="181" width="0.8" height="15.0" fill="rgb(244,176,51)" rx="2" ry="2" />
<text  x="329.85" y="191.5" ></text>
</g>
<g >
<title>[[kernel.kallsyms]] (2,050,505,030 samples, 14.46%)</title><rect x="1019.4" y="149" width="170.6" height="15.0" fill="rgb(214,124,18)" rx="2" ry="2" />
<text  x="1022.39" y="159.5" >[[kernel.kallsyms]]</text>
</g>
<g >
<title>[[kernel.kallsyms]] (10,101,010 samples, 0.07%)</title><rect x="191.5" y="101" width="0.9" height="15.0" fill="rgb(243,44,22)" rx="2" ry="2" />
<text  x="194.54" y="111.5" ></text>
</g>
<g >
<title>[[kernel.kallsyms]] (10,101,010 samples, 0.07%)</title><rect x="326.9" y="149" width="0.8" height="15.0" fill="rgb(235,169,22)" rx="2" ry="2" />
<text  x="329.85" y="159.5" ></text>
</g>
<g >
<title>[[kernel.kallsyms]] (10,101,010 samples, 0.07%)</title><rect x="847.1" y="133" width="0.8" height="15.0" fill="rgb(216,221,53)" rx="2" ry="2" />
<text  x="850.09" y="143.5" ></text>
</g>
<g >
<title>[[kernel.kallsyms]] (10,101,010 samples, 0.07%)</title><rect x="191.5" y="133" width="0.9" height="15.0" fill="rgb(226,95,9)" rx="2" ry="2" />
<text  x="194.54" y="143.5" ></text>
</g>
<g >
<title>[[kernel.kallsyms]] (10,101,010 samples, 0.07%)</title><rect x="847.1" y="53" width="0.8" height="15.0" fill="rgb(237,184,49)" rx="2" ry="2" />
<text  x="850.09" y="63.5" ></text>
</g>
<g >
<title>[[kernel.kallsyms]] (10,101,010 samples, 0.07%)</title><rect x="191.5" y="181" width="0.9" height="15.0" fill="rgb(254,24,47)" rx="2" ry="2" />
<text  x="194.54" y="191.5" ></text>
</g>
<g >
<title>[[kernel.kallsyms]] (20,202,020 samples, 0.14%)</title><rect x="189.0" y="197" width="1.7" height="15.0" fill="rgb(246,35,27)" rx="2" ry="2" />
<text  x="192.02" y="207.5" ></text>
</g>
<g >
<title>[[kernel.kallsyms]] (10,101,010 samples, 0.07%)</title><rect x="847.1" y="197" width="0.8" height="15.0" fill="rgb(249,195,11)" rx="2" ry="2" />
<text  x="850.09" y="207.5" ></text>
</g>
<g >
<title>[[kernel.kallsyms]] (10,101,010 samples, 0.07%)</title><rect x="245.3" y="197" width="0.9" height="15.0" fill="rgb(206,79,40)" rx="2" ry="2" />
<text  x="248.33" y="207.5" ></text>
</g>
<g >
<title>__mprotect (10,101,010 samples, 0.07%)</title><rect x="191.5" y="245" width="0.9" height="15.0" fill="rgb(217,49,20)" rx="2" ry="2" />
<text  x="194.54" y="255.5" ></text>
</g>
<g >
<title>[[kernel.kallsyms]] (10,101,010 samples, 0.07%)</title><rect x="191.5" y="117" width="0.9" height="15.0" fill="rgb(214,128,15)" rx="2" ry="2" />
<text  x="194.54" y="127.5" ></text>
</g>
<g >
<title>unwind_stop (10,101,010 samples, 0.07%)</title><rect x="845.4" y="277" width="0.9" height="15.0" fill="rgb(229,163,34)" rx="2" ry="2" />
<text  x="848.41" y="287.5" ></text>
</g>
<g >
<title>[unknown] (2,050,505,030 samples, 14.46%)</title><rect x="1019.4" y="213" width="170.6" height="15.0" fill="rgb(207,87,25)" rx="2" ry="2" />
<text  x="1022.39" y="223.5" >[unknown]</text>
</g>
<g >
<title>_int_malloc (979,797,970 samples, 6.91%)</title><rect x="246.2" y="277" width="81.5" height="15.0" fill="rgb(241,224,4)" rx="2" ry="2" />
<text  x="249.17" y="287.5" >_int_malloc</text>
</g>
<g >
<title>[[kernel.kallsyms]] (20,202,020 samples, 0.14%)</title><rect x="836.2" y="213" width="1.6" height="15.0" fill="rgb(210,185,49)" rx="2" ry="2" />
<text  x="839.17" y="223.5" ></text>
</g>
<g >
<title>[[kernel.kallsyms]] (10,101,010 samples, 0.07%)</title><rect x="191.5" y="197" width="0.9" height="15.0" fill="rgb(205,212,50)" rx="2" ry="2" />
<text  x="194.54" y="207.5" ></text>
</g>
<g >
<title>[[kernel.kallsyms]] (10,101,010 samples, 0.07%)</title><rect x="12.5" y="149" width="0.9" height="15.0" fill="rgb(250,158,5)" rx="2" ry="2" />
<text  x="15.52" y="159.5" ></text>
</g>
<g >
<title>[[kernel.kallsyms]] (10,101,010 samples, 0.07%)</title><rect x="797.5" y="149" width="0.8" height="15.0" fill="rgb(226,11,19)" rx="2" ry="2" />
<text  x="800.51" y="159.5" ></text>
</g>
<g >
<title>[[kernel.kallsyms]] (10,101,010 samples, 0.07%)</title><rect x="326.9" y="261" width="0.8" height="15.0" fill="rgb(252,63,32)" rx="2" ry="2" />
<text  x="329.85" y="271.5" ></text>
</g>
<g >
<title>malloc (1,383,838,370 samples, 9.76%)</title><rect x="683.2" y="277" width="115.1" height="15.0" fill="rgb(215,33,29)" rx="2" ry="2" />
<text  x="686.21" y="287.5" >malloc</text>
</g>
<g >
<title>[[kernel.kallsyms]] (2,060,606,040 samples, 14.53%)</title><rect x="847.9" y="229" width="171.5" height="15.0" fill="rgb(227,151,32)" rx="2" ry="2" />
<text  x="850.93" y="239.5" >[[kernel.kallsyms]]</text>
</g>
<g >
<title>[[kernel.kallsyms]] (10,101,010 samples, 0.07%)</title><rect x="846.3" y="277" width="0.8" height="15.0" fill="rgb(254,160,31)" rx="2" ry="2" />
<text  x="849.25" y="287.5" ></text>
</g>
<g >
<title>operator delete (40,404,040 samples, 0.28%)</title><rect x="798.3" y="277" width="3.4" height="15.0" fill="rgb(230,29,20)" rx="2" ry="2" />
<text  x="801.35" y="287.5" ></text>
</g>
<g >
<title>[unknown] (10,101,010 samples, 0.07%)</title><rect x="10.0" y="261" width="0.8" height="15.0" fill="rgb(254,140,31)" rx="2" ry="2" />
<text  x="13.00" y="271.5" ></text>
</g>
<g >
<title>[[kernel.kallsyms]] (20,202,020 samples, 0.14%)</title><rect x="207.5" y="245" width="1.7" height="15.0" fill="rgb(234,87,1)" rx="2" ry="2" />
<text  x="210.51" y="255.5" ></text>
</g>
<g >
<title>[[kernel.kallsyms]] (10,101,010 samples, 0.07%)</title><rect x="846.3" y="261" width="0.8" height="15.0" fill="rgb(211,13,39)" rx="2" ry="2" />
<text  x="849.25" y="271.5" ></text>
</g>
<g >
<title>operator delete[] (242,424,240 samples, 1.71%)</title><rect x="801.7" y="277" width="20.2" height="15.0" fill="rgb(209,114,10)" rx="2" ry="2" />
<text  x="804.71" y="287.5" ></text>
</g>
<g >
<title>[[kernel.kallsyms]] (10,101,010 samples, 0.07%)</title><rect x="847.1" y="149" width="0.8" height="15.0" fill="rgb(225,216,30)" rx="2" ry="2" />
<text  x="850.09" y="159.5" ></text>
</g>
<g >
<title>[[kernel.kallsyms]] (10,101,010 samples, 0.07%)</title><rect x="326.9" y="197" width="0.8" height="15.0" fill="rgb(228,114,0)" rx="2" ry="2" />
<text  x="329.85" y="207.5" ></text>
</g>
<g >
<title>swapper (4,111,111,070 samples, 28.99%)</title><rect x="847.9" y="293" width="342.1" height="15.0" fill="rgb(211,87,13)" rx="2" ry="2" />
<text  x="850.93" y="303.5" >swapper</text>
</g>
<g >
<title>[[kernel.kallsyms]] (20,202,020 samples, 0.14%)</title><rect x="189.0" y="245" width="1.7" height="15.0" fill="rgb(236,215,24)" rx="2" ry="2" />
<text  x="192.02" y="255.5" ></text>
</g>
<g >
<title>[[kernel.kallsyms]] (20,202,020 samples, 0.14%)</title><rect x="207.5" y="261" width="1.7" height="15.0" fill="rgb(209,90,38)" rx="2" ry="2" />
<text  x="210.51" y="271.5" ></text>
</g>
<g >
<title>setlocale (10,101,010 samples, 0.07%)</title><rect x="10.8" y="277" width="0.9" height="15.0" fill="rgb(247,94,6)" rx="2" ry="2" />
<text  x="13.84" y="287.5" ></text>
</g>
<g >
<title>rcu_sched (10,101,010 samples, 0.07%)</title><rect x="846.3" y="293" width="0.8" height="15.0" fill="rgb(216,180,45)" rx="2" ry="2" />
<text  x="849.25" y="303.5" ></text>
</g>
<g >
<title>[[kernel.kallsyms]] (10,101,010 samples, 0.07%)</title><rect x="847.1" y="69" width="0.8" height="15.0" fill="rgb(210,101,8)" rx="2" ry="2" />
<text  x="850.09" y="79.5" ></text>
</g>
<g >
<title>[[kernel.kallsyms]] (10,101,010 samples, 0.07%)</title><rect x="846.3" y="245" width="0.8" height="15.0" fill="rgb(231,106,26)" rx="2" ry="2" />
<text  x="849.25" y="255.5" ></text>
</g>
<g >
<title>larson-sized (10,030,302,930 samples, 70.73%)</title><rect x="11.7" y="293" width="834.6" height="15.0" fill="rgb(238,25,21)" rx="2" ry="2" />
<text  x="14.68" y="303.5" >larson-sized</text>
</g>
<g >
<title>[[kernel.kallsyms]] (10,101,010 samples, 0.07%)</title><rect x="847.1" y="101" width="0.8" height="15.0" fill="rgb(231,211,13)" rx="2" ry="2" />
<text  x="850.09" y="111.5" ></text>
</g>
<g >
<title>[[kernel.kallsyms]] (10,101,010 samples, 0.07%)</title><rect x="12.5" y="261" width="0.9" height="15.0" fill="rgb(253,8,25)" rx="2" ry="2" />
<text  x="15.52" y="271.5" ></text>
</g>
<g >
<title>[[kernel.kallsyms]] (10,101,010 samples, 0.07%)</title><rect x="245.3" y="213" width="0.9" height="15.0" fill="rgb(244,143,8)" rx="2" ry="2" />
<text  x="248.33" y="223.5" ></text>
</g>
<g >
<title>[[kernel.kallsyms]] (10,101,010 samples, 0.07%)</title><rect x="846.3" y="197" width="0.8" height="15.0" fill="rgb(230,185,0)" rx="2" ry="2" />
<text  x="849.25" y="207.5" ></text>
</g>
<g >
<title>[[kernel.kallsyms]] (20,202,020 samples, 0.14%)</title><rect x="836.2" y="165" width="1.6" height="15.0" fill="rgb(228,202,38)" rx="2" ry="2" />
<text  x="839.17" y="175.5" ></text>
</g>
<g >
<title>[[kernel.kallsyms]] (10,101,010 samples, 0.07%)</title><rect x="846.3" y="229" width="0.8" height="15.0" fill="rgb(245,63,52)" rx="2" ry="2" />
<text  x="849.25" y="239.5" ></text>
</g>
<g >
<title>dirname (10,101,010 samples, 0.07%)</title><rect x="10.8" y="293" width="0.9" height="15.0" fill="rgb(248,132,45)" rx="2" ry="2" />
<text  x="13.84" y="303.5" ></text>
</g>
<g >
<title>[[kernel.kallsyms]] (10,101,010 samples, 0.07%)</title><rect x="12.5" y="165" width="0.9" height="15.0" fill="rgb(235,75,19)" rx="2" ry="2" />
<text  x="15.52" y="175.5" ></text>
</g>
<g >
<title>[[kernel.kallsyms]] (20,202,020 samples, 0.14%)</title><rect x="207.5" y="197" width="1.7" height="15.0" fill="rgb(244,192,3)" rx="2" ry="2" />
<text  x="210.51" y="207.5" ></text>
</g>
<g >
<title>unlink_chunk.isra.0 (161,616,160 samples, 1.14%)</title><rect x="193.2" y="261" width="13.5" height="15.0" fill="rgb(233,61,18)" rx="2" ry="2" />
<text  x="196.22" y="271.5" ></text>
</g>
<g >
<title>[[kernel.kallsyms]] (4,111,111,070 samples, 28.99%)</title><rect x="847.9" y="277" width="342.1" height="15.0" fill="rgb(212,135,8)" rx="2" ry="2" />
<text  x="850.93" y="287.5" >[[kernel.kallsyms]]</text>
</g>
<g >
<title>[[kernel.kallsyms]] (2,060,606,040 samples, 14.53%)</title><rect x="847.9" y="213" width="171.5" height="15.0" fill="rgb(214,17,11)" rx="2" ry="2" />
<text  x="850.93" y="223.5" >[[kernel.kallsyms]]</text>
</g>
<g >
<title>[[kernel.kallsyms]] (10,101,010 samples, 0.07%)</title><rect x="326.9" y="213" width="0.8" height="15.0" fill="rgb(252,188,39)" rx="2" ry="2" />
<text  x="329.85" y="223.5" ></text>
</g>
<g >
<title>[[kernel.kallsyms]] (2,050,505,030 samples, 14.46%)</title><rect x="1019.4" y="197" width="170.6" height="15.0" fill="rgb(217,33,18)" rx="2" ry="2" />
<text  x="1022.39" y="207.5" >[[kernel.kallsyms]]</text>
</g>
<g >
<title>[[kernel.kallsyms]] (10,101,010 samples, 0.07%)</title><rect x="191.5" y="85" width="0.9" height="15.0" fill="rgb(222,166,10)" rx="2" ry="2" />
<text  x="194.54" y="95.5" ></text>
</g>
<g >
<title>[[kernel.kallsyms]] (10,101,010 samples, 0.07%)</title><rect x="12.5" y="181" width="0.9" height="15.0" fill="rgb(232,221,50)" rx="2" ry="2" />
<text  x="15.52" y="191.5" ></text>
</g>
<g >
<title>[[kernel.kallsyms]] (10,101,010 samples, 0.07%)</title><rect x="847.1" y="117" width="0.8" height="15.0" fill="rgb(223,165,27)" rx="2" ry="2" />
<text  x="850.09" y="127.5" ></text>
</g>
<g >
<title>[[kernel.kallsyms]] (2,050,505,030 samples, 14.46%)</title><rect x="1019.4" y="181" width="170.6" height="15.0" fill="rgb(254,176,8)" rx="2" ry="2" />
<text  x="1022.39" y="191.5" >[[kernel.kallsyms]]</text>
</g>
<g >
<title>__sched_yield (10,101,010 samples, 0.07%)</title><rect x="56.2" y="261" width="0.9" height="15.0" fill="rgb(215,69,1)" rx="2" ry="2" />
<text  x="59.23" y="271.5" ></text>
</g>
<g >
<title>[[kernel.kallsyms]] (10,101,010 samples, 0.07%)</title><rect x="191.5" y="37" width="0.9" height="15.0" fill="rgb(222,57,47)" rx="2" ry="2" />
<text  x="194.54" y="47.5" ></text>
</g>
<g >
<title>[[kernel.kallsyms]] (10,101,010 samples, 0.07%)</title><rect x="847.1" y="245" width="0.8" height="15.0" fill="rgb(217,142,22)" rx="2" ry="2" />
<text  x="850.09" y="255.5" ></text>
</g>
<g >
<title>bench.sh (10,101,010 samples, 0.07%)</title><rect x="10.0" y="293" width="0.8" height="15.0" fill="rgb(225,117,47)" rx="2" ry="2" />
<text  x="13.00" y="303.5" ></text>
</g>
<g >
<title>[larson-sized] (151,515,150 samples, 1.07%)</title><rect x="13.4" y="277" width="12.6" height="15.0" fill="rgb(213,61,8)" rx="2" ry="2" />
<text  x="16.36" y="287.5" ></text>
</g>
<g >
<title>[[kernel.kallsyms]] (2,060,606,040 samples, 14.53%)</title><rect x="847.9" y="245" width="171.5" height="15.0" fill="rgb(227,187,7)" rx="2" ry="2" />
<text  x="850.93" y="255.5" >[[kernel.kallsyms]]</text>
</g>
<g >
<title>[[kernel.kallsyms]] (20,202,020 samples, 0.14%)</title><rect x="189.0" y="229" width="1.7" height="15.0" fill="rgb(252,163,22)" rx="2" ry="2" />
<text  x="192.02" y="239.5" ></text>
</g>
<g >
<title>[[kernel.kallsyms]] (20,202,020 samples, 0.14%)</title><rect x="207.5" y="213" width="1.7" height="15.0" fill="rgb(222,12,12)" rx="2" ry="2" />
<text  x="210.51" y="223.5" ></text>
</g>
<g >
<title>[[kernel.kallsyms]] (10,101,010 samples, 0.07%)</title><rect x="846.3" y="181" width="0.8" height="15.0" fill="rgb(209,199,5)" rx="2" ry="2" />
<text  x="849.25" y="191.5" ></text>
</g>
<g >
<title>runthreads (10,101,010 samples, 0.07%)</title><rect x="192.4" y="261" width="0.8" height="15.0" fill="rgb(240,199,48)" rx="2" ry="2" />
<text  x="195.38" y="271.5" ></text>
</g>
<g >
<title>cfree@GLIBC_2.2.5 (1,797,979,780 samples, 12.68%)</title><rect x="327.7" y="277" width="149.6" height="15.0" fill="rgb(223,41,33)" rx="2" ry="2" />
<text  x="330.69" y="287.5" >cfree@GLIBC_2.2.5</text>
</g>
<g >
<title>sysmalloc (60,606,060 samples, 0.43%)</title><rect x="832.8" y="277" width="5.0" height="15.0" fill="rgb(243,36,43)" rx="2" ry="2" />
<text  x="835.81" y="287.5" ></text>
</g>
<g >
<title>[unknown] (10,101,010 samples, 0.07%)</title><rect x="10.0" y="277" width="0.8" height="15.0" fill="rgb(250,161,49)" rx="2" ry="2" />
<text  x="13.00" y="287.5" ></text>
</g>
<g >
<title>[[kernel.kallsyms]] (10,101,010 samples, 0.07%)</title><rect x="208.3" y="181" width="0.9" height="15.0" fill="rgb(219,17,3)" rx="2" ry="2" />
<text  x="211.35" y="191.5" ></text>
</g>
<g >
<title>[[kernel.kallsyms]] (10,101,010 samples, 0.07%)</title><rect x="191.5" y="229" width="0.9" height="15.0" fill="rgb(234,204,46)" rx="2" ry="2" />
<text  x="194.54" y="239.5" ></text>
</g>
<g >
<title>[[kernel.kallsyms]] (10,101,010 samples, 0.07%)</title><rect x="191.5" y="165" width="0.9" height="15.0" fill="rgb(225,114,42)" rx="2" ry="2" />
<text  x="194.54" y="175.5" ></text>
</g>
<g >
<title>[[kernel.kallsyms]] (50,505,050 samples, 0.36%)</title><rect x="833.6" y="261" width="4.2" height="15.0" fill="rgb(210,229,39)" rx="2" ry="2" />
<text  x="836.65" y="271.5" ></text>
</g>
<g >
<title>[[kernel.kallsyms]] (10,101,010 samples, 0.07%)</title><rect x="837.0" y="117" width="0.8" height="15.0" fill="rgb(228,30,42)" rx="2" ry="2" />
<text  x="840.01" y="127.5" ></text>
</g>
<g >
<title>[[kernel.kallsyms]] (10,101,010 samples, 0.07%)</title><rect x="326.9" y="165" width="0.8" height="15.0" fill="rgb(220,200,49)" rx="2" ry="2" />
<text  x="329.85" y="175.5" ></text>
</g>
<g >
<title>[unknown] (2,050,505,030 samples, 14.46%)</title><rect x="1019.4" y="245" width="170.6" height="15.0" fill="rgb(241,80,48)" rx="2" ry="2" />
<text  x="1022.39" y="255.5" >[unknown]</text>
</g>
<g >
<title>[[kernel.kallsyms]] (10,101,010 samples, 0.07%)</title><rect x="326.9" y="229" width="0.8" height="15.0" fill="rgb(235,222,41)" rx="2" ry="2" />
<text  x="329.85" y="239.5" ></text>
</g>
<g >
<title>[[kernel.kallsyms]] (10,101,010 samples, 0.07%)</title><rect x="191.5" y="149" width="0.9" height="15.0" fill="rgb(232,1,12)" rx="2" ry="2" />
<text  x="194.54" y="159.5" ></text>
</g>
<g >
<title>[[kernel.kallsyms]] (50,505,050 samples, 0.36%)</title><rect x="833.6" y="245" width="4.2" height="15.0" fill="rgb(233,18,39)" rx="2" ry="2" />
<text  x="836.65" y="255.5" ></text>
</g>
<g >
<title>[[kernel.kallsyms]] (10,101,010 samples, 0.07%)</title><rect x="847.1" y="37" width="0.8" height="15.0" fill="rgb(250,87,24)" rx="2" ry="2" />
<text  x="850.09" y="47.5" ></text>
</g>
<g >
<title>[[kernel.kallsyms]] (10,101,010 samples, 0.07%)</title><rect x="191.5" y="69" width="0.9" height="15.0" fill="rgb(230,167,17)" rx="2" ry="2" />
<text  x="194.54" y="79.5" ></text>
</g>
<g >
<title>[unknown] (10,101,010 samples, 0.07%)</title><rect x="847.1" y="277" width="0.8" height="15.0" fill="rgb(236,159,53)" rx="2" ry="2" />
<text  x="850.09" y="287.5" ></text>
</g>
<g >
<title>[[kernel.kallsyms]] (50,505,050 samples, 0.36%)</title><rect x="833.6" y="229" width="4.2" height="15.0" fill="rgb(216,179,26)" rx="2" ry="2" />
<text  x="836.65" y="239.5" ></text>
</g>
<g >
<title>[[kernel.kallsyms]] (20,202,020 samples, 0.14%)</title><rect x="796.7" y="165" width="1.6" height="15.0" fill="rgb(220,229,50)" rx="2" ry="2" />
<text  x="799.67" y="175.5" ></text>
</g>
<g >
<title>cfree@GLIBC_2.2.5 (10,101,010 samples, 0.07%)</title><rect x="190.7" y="261" width="0.8" height="15.0" fill="rgb(227,142,46)" rx="2" ry="2" />
<text  x="193.70" y="271.5" ></text>
</g>
<g >
<title>redis-server (10,101,010 samples, 0.07%)</title><rect x="847.1" y="293" width="0.8" height="15.0" fill="rgb(235,5,31)" rx="2" ry="2" />
<text  x="850.09" y="303.5" ></text>
</g>
<g >
<title>[[kernel.kallsyms]] (2,060,606,040 samples, 14.53%)</title><rect x="847.9" y="261" width="171.5" height="15.0" fill="rgb(213,5,27)" rx="2" ry="2" />
<text  x="850.93" y="271.5" >[[kernel.kallsyms]]</text>
</g>
<g >
<title>operator new[] (10,101,010 samples, 0.07%)</title><rect x="832.0" y="277" width="0.8" height="15.0" fill="rgb(220,71,12)" rx="2" ry="2" />
<text  x="834.97" y="287.5" ></text>
</g>
<g >
<title>[[kernel.kallsyms]] (10,101,010 samples, 0.07%)</title><rect x="191.5" y="213" width="0.9" height="15.0" fill="rgb(253,119,1)" rx="2" ry="2" />
<text  x="194.54" y="223.5" ></text>
</g>
<g >
<title>operator new (121,212,120 samples, 0.85%)</title><rect x="821.9" y="277" width="10.1" height="15.0" fill="rgb(229,102,28)" rx="2" ry="2" />
<text  x="824.88" y="287.5" ></text>
</g>
<g >
<title>[[kernel.kallsyms]] (40,404,040 samples, 0.28%)</title><rect x="795.0" y="261" width="3.3" height="15.0" fill="rgb(234,7,47)" rx="2" ry="2" />
<text  x="797.99" y="271.5" ></text>
</g>
<g >
<title>[[kernel.kallsyms]] (20,202,020 samples, 0.14%)</title><rect x="836.2" y="181" width="1.6" height="15.0" fill="rgb(229,172,22)" rx="2" ry="2" />
<text  x="839.17" y="191.5" ></text>
</g>
<g >
<title>[[kernel.kallsyms]] (20,202,020 samples, 0.14%)</title><rect x="836.2" y="149" width="1.6" height="15.0" fill="rgb(232,159,49)" rx="2" ry="2" />
<text  x="839.17" y="159.5" ></text>
</g>
<g >
<title>[[kernel.kallsyms]] (40,404,040 samples, 0.28%)</title><rect x="795.0" y="229" width="3.3" height="15.0" fill="rgb(228,128,0)" rx="2" ry="2" />
<text  x="797.99" y="239.5" ></text>
</g>
<g >
<title>[[kernel.kallsyms]] (10,101,010 samples, 0.07%)</title><rect x="837.0" y="133" width="0.8" height="15.0" fill="rgb(214,93,34)" rx="2" ry="2" />
<text  x="840.01" y="143.5" ></text>
</g>
<g >
<title>__mprotect (30,303,030 samples, 0.21%)</title><rect x="206.7" y="277" width="2.5" height="15.0" fill="rgb(248,42,26)" rx="2" ry="2" />
<text  x="209.67" y="287.5" ></text>
</g>
<g >
<title>[[kernel.kallsyms]] (10,101,010 samples, 0.07%)</title><rect x="847.1" y="213" width="0.8" height="15.0" fill="rgb(215,184,8)" rx="2" ry="2" />
<text  x="850.09" y="223.5" ></text>
</g>
<g >
<title>[unknown] (1,808,080,790 samples, 12.75%)</title><rect x="56.2" y="277" width="150.5" height="15.0" fill="rgb(217,51,7)" rx="2" ry="2" />
<text  x="59.23" y="287.5" >[unknown]</text>
</g>
<g >
<title>_int_free (1,606,060,590 samples, 11.32%)</title><rect x="57.1" y="261" width="133.6" height="15.0" fill="rgb(212,77,28)" rx="2" ry="2" />
<text  x="60.07" y="271.5" >_int_free</text>
</g>
<g >
<title>[[kernel.kallsyms]] (10,101,010 samples, 0.07%)</title><rect x="12.5" y="277" width="0.9" height="15.0" fill="rgb(251,206,20)" rx="2" ry="2" />
<text  x="15.52" y="287.5" ></text>
</g>
<g >
<title>[[kernel.kallsyms]] (30,303,030 samples, 0.21%)</title><rect x="795.8" y="197" width="2.5" height="15.0" fill="rgb(205,224,21)" rx="2" ry="2" />
<text  x="798.83" y="207.5" ></text>
</g>
<g >
<title>[[kernel.kallsyms]] (2,060,606,040 samples, 14.53%)</title><rect x="847.9" y="197" width="171.5" height="15.0" fill="rgb(213,163,37)" rx="2" ry="2" />
<text  x="850.93" y="207.5" >[[kernel.kallsyms]]</text>
</g>
<g >
<title>[[kernel.kallsyms]] (30,303,030 samples, 0.21%)</title><rect x="795.8" y="181" width="2.5" height="15.0" fill="rgb(230,145,35)" rx="2" ry="2" />
<text  x="798.83" y="191.5" ></text>
</g>
<g >
<title>[[kernel.kallsyms]] (10,101,010 samples, 0.07%)</title><rect x="245.3" y="261" width="0.9" height="15.0" fill="rgb(219,15,41)" rx="2" ry="2" />
<text  x="248.33" y="271.5" ></text>
</g>
<g >
<title>__errno_location (10,101,010 samples, 0.07%)</title><rect x="10.0" y="229" width="0.8" height="15.0" fill="rgb(253,146,18)" rx="2" ry="2" />
<text  x="13.00" y="239.5" ></text>
</g>
<g >
<title>[[kernel.kallsyms]] (2,060,606,040 samples, 14.53%)</title><rect x="847.9" y="181" width="171.5" height="15.0" fill="rgb(252,113,21)" rx="2" ry="2" />
<text  x="850.93" y="191.5" >[[kernel.kallsyms]]</text>
</g>
<g >
<title>[[kernel.kallsyms]] (10,101,010 samples, 0.07%)</title><rect x="326.9" y="133" width="0.8" height="15.0" fill="rgb(211,178,33)" rx="2" ry="2" />
<text  x="329.85" y="143.5" ></text>
</g>
<g >
<title>[[kernel.kallsyms]] (10,101,010 samples, 0.07%)</title><rect x="12.5" y="213" width="0.9" height="15.0" fill="rgb(251,163,28)" rx="2" ry="2" />
<text  x="15.52" y="223.5" ></text>
</g>
<g >
<title>[[kernel.kallsyms]] (20,202,020 samples, 0.14%)</title><rect x="189.0" y="213" width="1.7" height="15.0" fill="rgb(211,222,38)" rx="2" ry="2" />
<text  x="192.02" y="223.5" ></text>
</g>
<g >
<title>unlink_chunk.isra.0 (90,909,090 samples, 0.64%)</title><rect x="837.8" y="277" width="7.6" height="15.0" fill="rgb(240,211,45)" rx="2" ry="2" />
<text  x="840.85" y="287.5" ></text>
</g>
<g >
<title>[[kernel.kallsyms]] (10,101,010 samples, 0.07%)</title><rect x="846.3" y="213" width="0.8" height="15.0" fill="rgb(251,160,27)" rx="2" ry="2" />
<text  x="849.25" y="223.5" ></text>
</g>
<g >
<title>[[kernel.kallsyms]] (40,404,040 samples, 0.28%)</title><rect x="795.0" y="213" width="3.3" height="15.0" fill="rgb(228,117,34)" rx="2" ry="2" />
<text  x="797.99" y="223.5" ></text>
</g>
<g >
<title>[[kernel.kallsyms]] (10,101,010 samples, 0.07%)</title><rect x="245.3" y="245" width="0.9" height="15.0" fill="rgb(238,118,29)" rx="2" ry="2" />
<text  x="248.33" y="255.5" ></text>
</g>
<g >
<title>[[kernel.kallsyms]] (10,101,010 samples, 0.07%)</title><rect x="847.1" y="181" width="0.8" height="15.0" fill="rgb(227,135,54)" rx="2" ry="2" />
<text  x="850.09" y="191.5" ></text>
</g>
<g >
<title>[unknown] (2,050,505,030 samples, 14.46%)</title><rect x="1019.4" y="261" width="170.6" height="15.0" fill="rgb(232,142,1)" rx="2" ry="2" />
<text  x="1022.39" y="271.5" >[unknown]</text>
</g>
<g >
<title>_nl_find_locale (10,101,010 samples, 0.07%)</title><rect x="10.8" y="261" width="0.9" height="15.0" fill="rgb(247,121,19)" rx="2" ry="2" />
<text  x="13.84" y="271.5" ></text>
</g>
<g >
<title>[[kernel.kallsyms]] (2,050,505,030 samples, 14.46%)</title><rect x="1019.4" y="117" width="170.6" height="15.0" fill="rgb(208,45,51)" rx="2" ry="2" />
<text  x="1022.39" y="127.5" >[[kernel.kallsyms]]</text>
</g>
<g >
<title>[[kernel.kallsyms]] (10,101,010 samples, 0.07%)</title><rect x="326.9" y="245" width="0.8" height="15.0" fill="rgb(244,198,41)" rx="2" ry="2" />
<text  x="329.85" y="255.5" ></text>
</g>
<g >
<title>[[kernel.kallsyms]] (10,101,010 samples, 0.07%)</title><rect x="846.3" y="165" width="0.8" height="15.0" fill="rgb(209,201,47)" rx="2" ry="2" />
<text  x="849.25" y="175.5" ></text>
</g>
<g >
<title>[[kernel.kallsyms]] (10,101,010 samples, 0.07%)</title><rect x="191.5" y="53" width="0.9" height="15.0" fill="rgb(211,150,23)" rx="2" ry="2" />
<text  x="194.54" y="63.5" ></text>
</g>
<g >
<title>[[kernel.kallsyms]] (10,101,010 samples, 0.07%)</title><rect x="12.5" y="229" width="0.9" height="15.0" fill="rgb(224,57,8)" rx="2" ry="2" />
<text  x="15.52" y="239.5" ></text>
</g>
<g >
<title>[[kernel.kallsyms]] (10,101,010 samples, 0.07%)</title><rect x="12.5" y="245" width="0.9" height="15.0" fill="rgb(226,146,2)" rx="2" ry="2" />
<text  x="15.52" y="255.5" ></text>
</g>
<g >
<title>_int_free (444,444,440 samples, 3.13%)</title><rect x="209.2" y="277" width="37.0" height="15.0" fill="rgb(216,155,6)" rx="2" ry="2" />
<text  x="212.19" y="287.5" >_in..</text>
</g>
<g >
<title>__open64 (10,101,010 samples, 0.07%)</title><rect x="847.1" y="261" width="0.8" height="15.0" fill="rgb(214,57,35)" rx="2" ry="2" />
<text  x="850.09" y="271.5" ></text>
</g>
<g >
<title>[[kernel.kallsyms]] (10,101,010 samples, 0.07%)</title><rect x="847.1" y="229" width="0.8" height="15.0" fill="rgb(248,100,16)" rx="2" ry="2" />
<text  x="850.09" y="239.5" ></text>
</g>
<g >
<title>[[kernel.kallsyms]] (10,101,010 samples, 0.07%)</title><rect x="12.5" y="197" width="0.9" height="15.0" fill="rgb(248,39,20)" rx="2" ry="2" />
<text  x="15.52" y="207.5" ></text>
</g>
<g >
<title>[[kernel.kallsyms]] (2,050,505,030 samples, 14.46%)</title><rect x="1019.4" y="165" width="170.6" height="15.0" fill="rgb(241,62,0)" rx="2" ry="2" />
<text  x="1022.39" y="175.5" >[[kernel.kallsyms]]</text>
</g>
<g >
<title>exercise_heap (10,101,010 samples, 0.07%)</title><rect x="191.5" y="261" width="0.9" height="15.0" fill="rgb(210,77,0)" rx="2" ry="2" />
<text  x="194.54" y="271.5" ></text>
</g>
<g >
<title>exercise_heap (2,474,747,450 samples, 17.45%)</title><rect x="477.3" y="277" width="205.9" height="15.0" fill="rgb(224,187,35)" rx="2" ry="2" />
<text  x="480.29" y="287.5" >exercise_heap</text>
</g>
</g>
</svg>
