<?xml version="1.0" standalone="no"?>
<!DOCTYPE svg PUBLIC "-//W3C//DTD SVG 1.1//EN" "http://www.w3.org/Graphics/SVG/1.1/DTD/svg11.dtd">
<svg version="1.1" width="1200" height="390" onload="init(evt)" viewBox="0 0 1200 390" xmlns="http://www.w3.org/2000/svg" xmlns:xlink="http://www.w3.org/1999/xlink">
<!-- Flame graph stack visualization. See https://github.com/brendangregg/FlameGraph for latest version, and http://www.brendangregg.com/flamegraphs.html for examples. -->
<!-- NOTES:  -->
<defs>
	<linearGradient id="background" y1="0" y2="1" x1="0" x2="0" >
		<stop stop-color="#eeeeee" offset="5%" />
		<stop stop-color="#eeeeb0" offset="95%" />
	</linearGradient>
</defs>
<style type="text/css">
	text { font-family:Verdana; font-size:12px; fill:rgb(0,0,0); }
	#search, #ignorecase { opacity:0.1; cursor:pointer; }
	#search:hover, #search.show, #ignorecase:hover, #ignorecase.show { opacity:1; }
	#subtitle { text-anchor:middle; font-color:rgb(160,160,160); }
	#title { text-anchor:middle; font-size:17px}
	#unzoom { cursor:pointer; }
	#frames > *:hover { stroke:black; stroke-width:0.5; cursor:pointer; }
	.hide { display:none; }
	.parent { opacity:0.5; }
</style>
<script type="text/ecmascript">
<![CDATA[
	"use strict";
	var details, searchbtn, unzoombtn, matchedtxt, svg, searching, currentSearchTerm, ignorecase, ignorecaseBtn;
	function init(evt) {
		details = document.getElementById("details").firstChild;
		searchbtn = document.getElementById("search");
		ignorecaseBtn = document.getElementById("ignorecase");
		unzoombtn = document.getElementById("unzoom");
		matchedtxt = document.getElementById("matched");
		svg = document.getElementsByTagName("svg")[0];
		searching = 0;
		currentSearchTerm = null;

		// use GET parameters to restore a flamegraphs state.
		var params = get_params();
		if (params.x && params.y)
			zoom(find_group(document.querySelector('[x="' + params.x + '"][y="' + params.y + '"]')));
                if (params.s) search(params.s);
	}

	// event listeners
	window.addEventListener("click", function(e) {
		var target = find_group(e.target);
		if (target) {
			if (target.nodeName == "a") {
				if (e.ctrlKey === false) return;
				e.preventDefault();
			}
			if (target.classList.contains("parent")) unzoom(true);
			zoom(target);
			if (!document.querySelector('.parent')) {
				// we have basically done a clearzoom so clear the url
				var params = get_params();
				if (params.x) delete params.x;
				if (params.y) delete params.y;
				history.replaceState(null, null, parse_params(params));
				unzoombtn.classList.add("hide");
				return;
			}

			// set parameters for zoom state
			var el = target.querySelector("rect");
			if (el && el.attributes && el.attributes.y && el.attributes._orig_x) {
				var params = get_params()
				params.x = el.attributes._orig_x.value;
				params.y = el.attributes.y.value;
				history.replaceState(null, null, parse_params(params));
			}
		}
		else if (e.target.id == "unzoom") clearzoom();
		else if (e.target.id == "search") search_prompt();
		else if (e.target.id == "ignorecase") toggle_ignorecase();
	}, false)

	// mouse-over for info
	// show
	window.addEventListener("mouseover", function(e) {
		var target = find_group(e.target);
		if (target) details.nodeValue = "Function: " + g_to_text(target);
	}, false)

	// clear
	window.addEventListener("mouseout", function(e) {
		var target = find_group(e.target);
		if (target) details.nodeValue = ' ';
	}, false)

	// ctrl-F for search
	// ctrl-I to toggle case-sensitive search
	window.addEventListener("keydown",function (e) {
		if (e.keyCode === 114 || (e.ctrlKey && e.keyCode === 70)) {
			e.preventDefault();
			search_prompt();
		}
		else if (e.ctrlKey && e.keyCode === 73) {
			e.preventDefault();
			toggle_ignorecase();
		}
	}, false)

	// functions
	function get_params() {
		var params = {};
		var paramsarr = window.location.search.substr(1).split('&');
		for (var i = 0; i < paramsarr.length; ++i) {
			var tmp = paramsarr[i].split("=");
			if (!tmp[0] || !tmp[1]) continue;
			params[tmp[0]]  = decodeURIComponent(tmp[1]);
		}
		return params;
	}
	function parse_params(params) {
		var uri = "?";
		for (var key in params) {
			uri += key + '=' + encodeURIComponent(params[key]) + '&';
		}
		if (uri.slice(-1) == "&")
			uri = uri.substring(0, uri.length - 1);
		if (uri == '?')
			uri = window.location.href.split('?')[0];
		return uri;
	}
	function find_child(node, selector) {
		var children = node.querySelectorAll(selector);
		if (children.length) return children[0];
	}
	function find_group(node) {
		var parent = node.parentElement;
		if (!parent) return;
		if (parent.id == "frames") return node;
		return find_group(parent);
	}
	function orig_save(e, attr, val) {
		if (e.attributes["_orig_" + attr] != undefined) return;
		if (e.attributes[attr] == undefined) return;
		if (val == undefined) val = e.attributes[attr].value;
		e.setAttribute("_orig_" + attr, val);
	}
	function orig_load(e, attr) {
		if (e.attributes["_orig_"+attr] == undefined) return;
		e.attributes[attr].value = e.attributes["_orig_" + attr].value;
		e.removeAttribute("_orig_"+attr);
	}
	function g_to_text(e) {
		var text = find_child(e, "title").firstChild.nodeValue;
		return (text)
	}
	function g_to_func(e) {
		var func = g_to_text(e);
		// if there's any manipulation we want to do to the function
		// name before it's searched, do it here before returning.
		return (func);
	}
	function update_text(e) {
		var r = find_child(e, "rect");
		var t = find_child(e, "text");
		var w = parseFloat(r.attributes.width.value) -3;
		var txt = find_child(e, "title").textContent.replace(/\([^(]*\)$/,"");
		t.attributes.x.value = parseFloat(r.attributes.x.value) + 3;

		// Smaller than this size won't fit anything
		if (w < 2 * 12 * 0.59) {
			t.textContent = "";
			return;
		}

		t.textContent = txt;
		var sl = t.getSubStringLength(0, txt.length);
		// check if only whitespace or if we can fit the entire string into width w
		if (/^ *$/.test(txt) || sl < w)
			return;

		// this isn't perfect, but gives a good starting point
		// and avoids calling getSubStringLength too often
		var start = Math.floor((w/sl) * txt.length);
		for (var x = start; x > 0; x = x-2) {
			if (t.getSubStringLength(0, x + 2) <= w) {
				t.textContent = txt.substring(0, x) + "..";
				return;
			}
		}
		t.textContent = "";
	}

	// zoom
	function zoom_reset(e) {
		if (e.attributes != undefined) {
			orig_load(e, "x");
			orig_load(e, "width");
		}
		if (e.childNodes == undefined) return;
		for (var i = 0, c = e.childNodes; i < c.length; i++) {
			zoom_reset(c[i]);
		}
	}
	function zoom_child(e, x, ratio) {
		if (e.attributes != undefined) {
			if (e.attributes.x != undefined) {
				orig_save(e, "x");
				e.attributes.x.value = (parseFloat(e.attributes.x.value) - x - 10) * ratio + 10;
				if (e.tagName == "text")
					e.attributes.x.value = find_child(e.parentNode, "rect[x]").attributes.x.value + 3;
			}
			if (e.attributes.width != undefined) {
				orig_save(e, "width");
				e.attributes.width.value = parseFloat(e.attributes.width.value) * ratio;
			}
		}

		if (e.childNodes == undefined) return;
		for (var i = 0, c = e.childNodes; i < c.length; i++) {
			zoom_child(c[i], x - 10, ratio);
		}
	}
	function zoom_parent(e) {
		if (e.attributes) {
			if (e.attributes.x != undefined) {
				orig_save(e, "x");
				e.attributes.x.value = 10;
			}
			if (e.attributes.width != undefined) {
				orig_save(e, "width");
				e.attributes.width.value = parseInt(svg.width.baseVal.value) - (10 * 2);
			}
		}
		if (e.childNodes == undefined) return;
		for (var i = 0, c = e.childNodes; i < c.length; i++) {
			zoom_parent(c[i]);
		}
	}
	function zoom(node) {
		var attr = find_child(node, "rect").attributes;
		var width = parseFloat(attr.width.value);
		var xmin = parseFloat(attr.x.value);
		var xmax = parseFloat(xmin + width);
		var ymin = parseFloat(attr.y.value);
		var ratio = (svg.width.baseVal.value - 2 * 10) / width;

		// XXX: Workaround for JavaScript float issues (fix me)
		var fudge = 0.0001;

		unzoombtn.classList.remove("hide");

		var el = document.getElementById("frames").children;
		for (var i = 0; i < el.length; i++) {
			var e = el[i];
			var a = find_child(e, "rect").attributes;
			var ex = parseFloat(a.x.value);
			var ew = parseFloat(a.width.value);
			var upstack;
			// Is it an ancestor
			if (0 == 0) {
				upstack = parseFloat(a.y.value) > ymin;
			} else {
				upstack = parseFloat(a.y.value) < ymin;
			}
			if (upstack) {
				// Direct ancestor
				if (ex <= xmin && (ex+ew+fudge) >= xmax) {
					e.classList.add("parent");
					zoom_parent(e);
					update_text(e);
				}
				// not in current path
				else
					e.classList.add("hide");
			}
			// Children maybe
			else {
				// no common path
				if (ex < xmin || ex + fudge >= xmax) {
					e.classList.add("hide");
				}
				else {
					zoom_child(e, xmin, ratio);
					update_text(e);
				}
			}
		}
		search();
	}
	function unzoom(dont_update_text) {
		unzoombtn.classList.add("hide");
		var el = document.getElementById("frames").children;
		for(var i = 0; i < el.length; i++) {
			el[i].classList.remove("parent");
			el[i].classList.remove("hide");
			zoom_reset(el[i]);
			if(!dont_update_text) update_text(el[i]);
		}
		search();
	}
	function clearzoom() {
		unzoom();

		// remove zoom state
		var params = get_params();
		if (params.x) delete params.x;
		if (params.y) delete params.y;
		history.replaceState(null, null, parse_params(params));
	}

	// search
	function toggle_ignorecase() {
		ignorecase = !ignorecase;
		if (ignorecase) {
			ignorecaseBtn.classList.add("show");
		} else {
			ignorecaseBtn.classList.remove("show");
		}
		reset_search();
		search();
	}
	function reset_search() {
		var el = document.querySelectorAll("#frames rect");
		for (var i = 0; i < el.length; i++) {
			orig_load(el[i], "fill")
		}
		var params = get_params();
		delete params.s;
		history.replaceState(null, null, parse_params(params));
	}
	function search_prompt() {
		if (!searching) {
			var term = prompt("Enter a search term (regexp " +
			    "allowed, eg: ^ext4_)"
			    + (ignorecase ? ", ignoring case" : "")
			    + "\nPress Ctrl-i to toggle case sensitivity", "");
			if (term != null) search(term);
		} else {
			reset_search();
			searching = 0;
			currentSearchTerm = null;
			searchbtn.classList.remove("show");
			searchbtn.firstChild.nodeValue = "Search"
			matchedtxt.classList.add("hide");
			matchedtxt.firstChild.nodeValue = ""
		}
	}
	function search(term) {
		if (term) currentSearchTerm = term;

		var re = new RegExp(currentSearchTerm, ignorecase ? 'i' : '');
		var el = document.getElementById("frames").children;
		var matches = new Object();
		var maxwidth = 0;
		for (var i = 0; i < el.length; i++) {
			var e = el[i];
			var func = g_to_func(e);
			var rect = find_child(e, "rect");
			if (func == null || rect == null)
				continue;

			// Save max width. Only works as we have a root frame
			var w = parseFloat(rect.attributes.width.value);
			if (w > maxwidth)
				maxwidth = w;

			if (func.match(re)) {
				// highlight
				var x = parseFloat(rect.attributes.x.value);
				orig_save(rect, "fill");
				rect.attributes.fill.value = "rgb(230,0,230)";

				// remember matches
				if (matches[x] == undefined) {
					matches[x] = w;
				} else {
					if (w > matches[x]) {
						// overwrite with parent
						matches[x] = w;
					}
				}
				searching = 1;
			}
		}
		if (!searching)
			return;
		var params = get_params();
		params.s = currentSearchTerm;
		history.replaceState(null, null, parse_params(params));

		searchbtn.classList.add("show");
		searchbtn.firstChild.nodeValue = "Reset Search";

		// calculate percent matched, excluding vertical overlap
		var count = 0;
		var lastx = -1;
		var lastw = 0;
		var keys = Array();
		for (k in matches) {
			if (matches.hasOwnProperty(k))
				keys.push(k);
		}
		// sort the matched frames by their x location
		// ascending, then width descending
		keys.sort(function(a, b){
			return a - b;
		});
		// Step through frames saving only the biggest bottom-up frames
		// thanks to the sort order. This relies on the tree property
		// where children are always smaller than their parents.
		var fudge = 0.0001;	// JavaScript floating point
		for (var k in keys) {
			var x = parseFloat(keys[k]);
			var w = matches[keys[k]];
			if (x >= lastx + lastw - fudge) {
				count += w;
				lastx = x;
				lastw = w;
			}
		}
		// display matched percent
		matchedtxt.classList.remove("hide");
		var pct = 100 * count / maxwidth;
		if (pct != 100) pct = pct.toFixed(1)
		matchedtxt.firstChild.nodeValue = "Matched: " + pct + "%";
	}
]]>
</script>
<rect x="0.0" y="0" width="1200.0" height="390.0" fill="url(#background)"  />
<text id="title" x="600.00" y="24" >Flame Graph</text>
<text id="details" x="10.00" y="373" > </text>
<text id="unzoom" x="10.00" y="24" class="hide">Reset Zoom</text>
<text id="search" x="1090.00" y="24" >Search</text>
<text id="ignorecase" x="1174.00" y="24" >ic</text>
<text id="matched" x="1090.00" y="373" > </text>
<g id="frames">
<g >
<title>[[kernel.kallsyms]] (535,353,530 samples, 5.35%)</title><rect x="1126.8" y="309" width="63.2" height="15.0" fill="rgb(244,44,36)" rx="2" ry="2" />
<text  x="1129.83" y="319.5" >[[kern..</text>
</g>
<g >
<title>[[kernel.kallsyms]] (20,202,020 samples, 0.20%)</title><rect x="14.8" y="133" width="2.4" height="15.0" fill="rgb(247,132,11)" rx="2" ry="2" />
<text  x="17.77" y="143.5" ></text>
</g>
<g >
<title>[[kernel.kallsyms]] (10,101,010 samples, 0.10%)</title><rect x="10.0" y="69" width="1.2" height="15.0" fill="rgb(216,169,50)" rx="2" ry="2" />
<text  x="13.00" y="79.5" ></text>
</g>
<g >
<title>rcu_sched (10,101,010 samples, 0.10%)</title><rect x="1124.4" y="325" width="1.2" height="15.0" fill="rgb(240,23,46)" rx="2" ry="2" />
<text  x="1127.44" y="335.5" ></text>
</g>
<g >
<title>[[kernel.kallsyms]] (40,404,040 samples, 0.40%)</title><rect x="136.3" y="229" width="4.8" height="15.0" fill="rgb(226,1,7)" rx="2" ry="2" />
<text  x="139.34" y="239.5" ></text>
</g>
<g >
<title>[[kernel.kallsyms]] (202,020,200 samples, 2.02%)</title><rect x="1017.2" y="293" width="23.8" height="15.0" fill="rgb(232,135,14)" rx="2" ry="2" />
<text  x="1020.17" y="303.5" >[..</text>
</g>
<g >
<title>[[kernel.kallsyms]] (10,101,010 samples, 0.10%)</title><rect x="521.3" y="181" width="1.2" height="15.0" fill="rgb(221,68,23)" rx="2" ry="2" />
<text  x="524.33" y="191.5" ></text>
</g>
<g >
<title>_int_malloc (343,434,340 samples, 3.43%)</title><rect x="522.5" y="309" width="40.6" height="15.0" fill="rgb(206,183,11)" rx="2" ry="2" />
<text  x="525.53" y="319.5" >_in..</text>
</g>
<g >
<title>cfree@GLIBC_2.2.5 (30,303,030 samples, 0.30%)</title><rect x="33.8" y="277" width="3.6" height="15.0" fill="rgb(234,68,48)" rx="2" ry="2" />
<text  x="36.84" y="287.5" ></text>
</g>
<g >
<title>[[kernel.kallsyms]] (20,202,020 samples, 0.20%)</title><rect x="520.1" y="245" width="2.4" height="15.0" fill="rgb(249,123,43)" rx="2" ry="2" />
<text  x="523.14" y="255.5" ></text>
</g>
<g >
<title>[[kernel.kallsyms]] (242,424,240 samples, 2.42%)</title><rect x="1161.4" y="181" width="28.6" height="15.0" fill="rgb(221,229,1)" rx="2" ry="2" />
<text  x="1164.39" y="191.5" >[[..</text>
</g>
<g >
<title>[mstress] (50,505,050 samples, 0.51%)</title><rect x="20.7" y="293" width="6.0" height="15.0" fill="rgb(220,24,6)" rx="2" ry="2" />
<text  x="23.73" y="303.5" ></text>
</g>
<g >
<title>[[kernel.kallsyms]] (10,101,010 samples, 0.10%)</title><rect x="561.9" y="293" width="1.2" height="15.0" fill="rgb(241,167,28)" rx="2" ry="2" />
<text  x="564.86" y="303.5" ></text>
</g>
<g >
<title>python3 (10,101,010 samples, 0.10%)</title><rect x="1123.3" y="325" width="1.1" height="15.0" fill="rgb(221,19,39)" rx="2" ry="2" />
<text  x="1126.25" y="335.5" ></text>
</g>
<g >
<title>_int_free (282,828,280 samples, 2.83%)</title><rect x="164.9" y="293" width="33.4" height="15.0" fill="rgb(205,47,32)" rx="2" ry="2" />
<text  x="167.95" y="303.5" >_i..</text>
</g>
<g >
<title>[[kernel.kallsyms]] (1,323,232,310 samples, 13.23%)</title><rect x="784.7" y="277" width="156.2" height="15.0" fill="rgb(213,183,50)" rx="2" ry="2" />
<text  x="787.75" y="287.5" >[[kernel.kallsyms]]</text>
</g>
<g >
<title>[[kernel.kallsyms]] (50,505,050 samples, 0.51%)</title><rect x="135.2" y="261" width="5.9" height="15.0" fill="rgb(227,46,10)" rx="2" ry="2" />
<text  x="138.15" y="271.5" ></text>
</g>
<g >
<title>[[kernel.kallsyms]] (292,929,290 samples, 2.93%)</title><rect x="1126.8" y="277" width="34.6" height="15.0" fill="rgb(252,152,35)" rx="2" ry="2" />
<text  x="1129.83" y="287.5" >[[..</text>
</g>
<g >
<title>[[kernel.kallsyms]] (191,919,190 samples, 1.92%)</title><rect x="141.1" y="165" width="22.7" height="15.0" fill="rgb(234,216,47)" rx="2" ry="2" />
<text  x="144.11" y="175.5" >[..</text>
</g>
<g >
<title>[[kernel.kallsyms]] (10,101,010 samples, 0.10%)</title><rect x="10.0" y="133" width="1.2" height="15.0" fill="rgb(233,16,48)" rx="2" ry="2" />
<text  x="13.00" y="143.5" ></text>
</g>
<g >
<title>thread_entry (20,202,020 samples, 0.20%)</title><rect x="30.3" y="261" width="2.3" height="15.0" fill="rgb(221,3,31)" rx="2" ry="2" />
<text  x="33.26" y="271.5" ></text>
</g>
<g >
<title>[[kernel.kallsyms]] (10,101,010 samples, 0.10%)</title><rect x="10.0" y="165" width="1.2" height="15.0" fill="rgb(223,146,11)" rx="2" ry="2" />
<text  x="13.00" y="175.5" ></text>
</g>
<g >
<title>[[kernel.kallsyms]] (20,202,020 samples, 0.20%)</title><rect x="520.1" y="293" width="2.4" height="15.0" fill="rgb(238,163,49)" rx="2" ry="2" />
<text  x="523.14" y="303.5" ></text>
</g>
<g >
<title>[[kernel.kallsyms]] (868,686,860 samples, 8.69%)</title><rect x="838.4" y="245" width="102.5" height="15.0" fill="rgb(228,193,29)" rx="2" ry="2" />
<text  x="841.38" y="255.5" >[[kernel.kal..</text>
</g>
<g >
<title>[[kernel.kallsyms]] (10,101,010 samples, 0.10%)</title><rect x="10.0" y="101" width="1.2" height="15.0" fill="rgb(210,171,53)" rx="2" ry="2" />
<text  x="13.00" y="111.5" ></text>
</g>
<g >
<title>[[kernel.kallsyms]] (10,101,010 samples, 0.10%)</title><rect x="561.9" y="261" width="1.2" height="15.0" fill="rgb(244,122,22)" rx="2" ry="2" />
<text  x="564.86" y="271.5" ></text>
</g>
<g >
<title>[unknown] (10,101,010 samples, 0.10%)</title><rect x="10.0" y="309" width="1.2" height="15.0" fill="rgb(239,85,14)" rx="2" ry="2" />
<text  x="13.00" y="319.5" ></text>
</g>
<g >
<title>[[kernel.kallsyms]] (797,979,790 samples, 7.98%)</title><rect x="846.7" y="213" width="94.2" height="15.0" fill="rgb(225,126,53)" rx="2" ry="2" />
<text  x="849.73" y="223.5" >[[kernel.ka..</text>
</g>
<g >
<title>[[kernel.kallsyms]] (10,101,010 samples, 0.10%)</title><rect x="10.0" y="117" width="1.2" height="15.0" fill="rgb(236,55,21)" rx="2" ry="2" />
<text  x="13.00" y="127.5" ></text>
</g>
<g >
<title>[[kernel.kallsyms]] (10,101,010 samples, 0.10%)</title><rect x="10.0" y="181" width="1.2" height="15.0" fill="rgb(233,5,11)" rx="2" ry="2" />
<text  x="13.00" y="191.5" ></text>
</g>
<g >
<title>[[kernel.kallsyms]] (20,202,020 samples, 0.20%)</title><rect x="138.7" y="181" width="2.4" height="15.0" fill="rgb(223,172,54)" rx="2" ry="2" />
<text  x="141.73" y="191.5" ></text>
</g>
<g >
<title>[[kernel.kallsyms]] (10,101,010 samples, 0.10%)</title><rect x="10.0" y="277" width="1.2" height="15.0" fill="rgb(219,229,48)" rx="2" ry="2" />
<text  x="13.00" y="287.5" ></text>
</g>
<g >
<title>[[kernel.kallsyms]] (30,303,030 samples, 0.30%)</title><rect x="13.6" y="149" width="3.6" height="15.0" fill="rgb(218,87,21)" rx="2" ry="2" />
<text  x="16.58" y="159.5" ></text>
</g>
<g >
<title>[[kernel.kallsyms]] (10,101,010 samples, 0.10%)</title><rect x="1125.6" y="165" width="1.2" height="15.0" fill="rgb(246,110,31)" rx="2" ry="2" />
<text  x="1128.64" y="175.5" ></text>
</g>
<g >
<title>[[kernel.kallsyms]] (30,303,030 samples, 0.30%)</title><rect x="13.6" y="229" width="3.6" height="15.0" fill="rgb(231,105,27)" rx="2" ry="2" />
<text  x="16.58" y="239.5" ></text>
</g>
<g >
<title>[[kernel.kallsyms]] (50,505,050 samples, 0.51%)</title><rect x="135.2" y="245" width="5.9" height="15.0" fill="rgb(240,205,42)" rx="2" ry="2" />
<text  x="138.15" y="255.5" ></text>
</g>
<g >
<title>[[kernel.kallsyms]] (242,424,240 samples, 2.42%)</title><rect x="1161.4" y="213" width="28.6" height="15.0" fill="rgb(251,216,30)" rx="2" ry="2" />
<text  x="1164.39" y="223.5" >[[..</text>
</g>
<g >
<title>[[kernel.kallsyms]] (191,919,190 samples, 1.92%)</title><rect x="918.2" y="133" width="22.7" height="15.0" fill="rgb(250,223,52)" rx="2" ry="2" />
<text  x="921.24" y="143.5" >[..</text>
</g>
<g >
<title>[[kernel.kallsyms]] (1,323,232,310 samples, 13.23%)</title><rect x="784.7" y="293" width="156.2" height="15.0" fill="rgb(226,93,2)" rx="2" ry="2" />
<text  x="787.75" y="303.5" >[[kernel.kallsyms]]</text>
</g>
<g >
<title>[[kernel.kallsyms]] (292,929,290 samples, 2.93%)</title><rect x="1126.8" y="261" width="34.6" height="15.0" fill="rgb(254,203,22)" rx="2" ry="2" />
<text  x="1129.83" y="271.5" >[[..</text>
</g>
<g >
<title>[[kernel.kallsyms]] (10,101,010 samples, 0.10%)</title><rect x="10.0" y="261" width="1.2" height="15.0" fill="rgb(245,220,2)" rx="2" ry="2" />
<text  x="13.00" y="271.5" ></text>
</g>
<g >
<title>thread_entry (2,575,757,550 samples, 25.76%)</title><rect x="209.1" y="293" width="303.9" height="15.0" fill="rgb(233,164,51)" rx="2" ry="2" />
<text  x="212.05" y="303.5" >thread_entry</text>
</g>
<g >
<title>[[kernel.kallsyms]] (10,101,010 samples, 0.10%)</title><rect x="511.8" y="277" width="1.2" height="15.0" fill="rgb(210,178,52)" rx="2" ry="2" />
<text  x="514.80" y="287.5" ></text>
</g>
<g >
<title>[unknown] (10,101,010 samples, 0.10%)</title><rect x="1125.6" y="309" width="1.2" height="15.0" fill="rgb(254,112,31)" rx="2" ry="2" />
<text  x="1128.64" y="319.5" ></text>
</g>
<g >
<title>dirname (10,101,010 samples, 0.10%)</title><rect x="12.4" y="325" width="1.2" height="15.0" fill="rgb(217,135,17)" rx="2" ry="2" />
<text  x="15.38" y="335.5" ></text>
</g>
<g >
<title>[[kernel.kallsyms]] (20,202,020 samples, 0.20%)</title><rect x="138.7" y="149" width="2.4" height="15.0" fill="rgb(209,64,5)" rx="2" ry="2" />
<text  x="141.73" y="159.5" ></text>
</g>
<g >
<title>[[kernel.kallsyms]] (30,303,030 samples, 0.30%)</title><rect x="13.6" y="309" width="3.6" height="15.0" fill="rgb(212,210,9)" rx="2" ry="2" />
<text  x="16.58" y="319.5" ></text>
</g>
<g >
<title>[[kernel.kallsyms]] (1,323,232,310 samples, 13.23%)</title><rect x="784.7" y="261" width="156.2" height="15.0" fill="rgb(213,141,36)" rx="2" ry="2" />
<text  x="787.75" y="271.5" >[[kernel.kallsyms]]</text>
</g>
<g >
<title>thread_entry (828,282,820 samples, 8.28%)</title><rect x="37.4" y="277" width="97.8" height="15.0" fill="rgb(217,219,50)" rx="2" ry="2" />
<text  x="40.41" y="287.5" >thread_entry</text>
</g>
<g >
<title>[[kernel.kallsyms]] (353,535,350 samples, 3.54%)</title><rect x="899.2" y="149" width="41.7" height="15.0" fill="rgb(218,157,43)" rx="2" ry="2" />
<text  x="902.17" y="159.5" >[[k..</text>
</g>
<g >
<title>[[kernel.kallsyms]] (191,919,190 samples, 1.92%)</title><rect x="141.1" y="197" width="22.7" height="15.0" fill="rgb(247,174,11)" rx="2" ry="2" />
<text  x="144.11" y="207.5" >[..</text>
</g>
<g >
<title>[[kernel.kallsyms]] (10,101,010 samples, 0.10%)</title><rect x="521.3" y="197" width="1.2" height="15.0" fill="rgb(214,196,47)" rx="2" ry="2" />
<text  x="524.33" y="207.5" ></text>
</g>
<g >
<title>[[kernel.kallsyms]] (191,919,190 samples, 1.92%)</title><rect x="141.1" y="277" width="22.7" height="15.0" fill="rgb(233,85,41)" rx="2" ry="2" />
<text  x="144.11" y="287.5" >[..</text>
</g>
<g >
<title>[[kernel.kallsyms]] (30,303,030 samples, 0.30%)</title><rect x="13.6" y="293" width="3.6" height="15.0" fill="rgb(235,67,21)" rx="2" ry="2" />
<text  x="16.58" y="303.5" ></text>
</g>
<g >
<title>[[kernel.kallsyms]] (10,101,010 samples, 0.10%)</title><rect x="10.0" y="245" width="1.2" height="15.0" fill="rgb(236,12,9)" rx="2" ry="2" />
<text  x="13.00" y="255.5" ></text>
</g>
<g >
<title>[[kernel.kallsyms]] (10,101,010 samples, 0.10%)</title><rect x="10.0" y="149" width="1.2" height="15.0" fill="rgb(225,76,35)" rx="2" ry="2" />
<text  x="13.00" y="159.5" ></text>
</g>
<g >
<title>[[kernel.kallsyms]] (10,101,010 samples, 0.10%)</title><rect x="1125.6" y="213" width="1.2" height="15.0" fill="rgb(214,178,53)" rx="2" ry="2" />
<text  x="1128.64" y="223.5" ></text>
</g>
<g >
<title>[[kernel.kallsyms]] (757,575,750 samples, 7.58%)</title><rect x="851.5" y="197" width="89.4" height="15.0" fill="rgb(228,106,3)" rx="2" ry="2" />
<text  x="854.49" y="207.5" >[[kernel.k..</text>
</g>
<g >
<title>all (9,999,999,900 samples, 100%)</title><rect x="10.0" y="341" width="1180.0" height="15.0" fill="rgb(253,221,0)" rx="2" ry="2" />
<text  x="13.00" y="351.5" ></text>
</g>
<g >
<title>[[kernel.kallsyms]] (20,202,020 samples, 0.20%)</title><rect x="520.1" y="277" width="2.4" height="15.0" fill="rgb(241,221,29)" rx="2" ry="2" />
<text  x="523.14" y="287.5" ></text>
</g>
<g >
<title>[[kernel.kallsyms]] (101,010,100 samples, 1.01%)</title><rect x="1029.1" y="181" width="11.9" height="15.0" fill="rgb(253,143,44)" rx="2" ry="2" />
<text  x="1032.09" y="191.5" ></text>
</g>
<g >
<title>[[kernel.kallsyms]] (10,101,010 samples, 0.10%)</title><rect x="10.0" y="229" width="1.2" height="15.0" fill="rgb(214,68,51)" rx="2" ry="2" />
<text  x="13.00" y="239.5" ></text>
</g>
<g >
<title>__mprotect (20,202,020 samples, 0.20%)</title><rect x="520.1" y="309" width="2.4" height="15.0" fill="rgb(241,143,32)" rx="2" ry="2" />
<text  x="523.14" y="319.5" ></text>
</g>
<g >
<title>[[kernel.kallsyms]] (10,101,010 samples, 0.10%)</title><rect x="12.4" y="245" width="1.2" height="15.0" fill="rgb(231,86,51)" rx="2" ry="2" />
<text  x="15.38" y="255.5" ></text>
</g>
<g >
<title>[[kernel.kallsyms]] (242,424,240 samples, 2.42%)</title><rect x="1161.4" y="149" width="28.6" height="15.0" fill="rgb(212,123,15)" rx="2" ry="2" />
<text  x="1164.39" y="159.5" >[[..</text>
</g>
<g >
<title>[[kernel.kallsyms]] (10,101,010 samples, 0.10%)</title><rect x="16.0" y="85" width="1.2" height="15.0" fill="rgb(218,226,30)" rx="2" ry="2" />
<text  x="18.96" y="95.5" ></text>
</g>
<g >
<title>[[kernel.kallsyms]] (10,101,010 samples, 0.10%)</title><rect x="10.0" y="85" width="1.2" height="15.0" fill="rgb(210,139,30)" rx="2" ry="2" />
<text  x="13.00" y="95.5" ></text>
</g>
<g >
<title>[[kernel.kallsyms]] (191,919,190 samples, 1.92%)</title><rect x="141.1" y="229" width="22.7" height="15.0" fill="rgb(226,130,42)" rx="2" ry="2" />
<text  x="144.11" y="239.5" >[..</text>
</g>
<g >
<title>[[kernel.kallsyms]] (10,101,010 samples, 0.10%)</title><rect x="1125.6" y="149" width="1.2" height="15.0" fill="rgb(221,149,31)" rx="2" ry="2" />
<text  x="1128.64" y="159.5" ></text>
</g>
<g >
<title>unlink_chunk.isra.0 (50,505,050 samples, 0.51%)</title><rect x="513.0" y="293" width="5.9" height="15.0" fill="rgb(254,66,5)" rx="2" ry="2" />
<text  x="515.99" y="303.5" ></text>
</g>
<g >
<title>[unknown] (242,424,240 samples, 2.42%)</title><rect x="1161.4" y="261" width="28.6" height="15.0" fill="rgb(233,154,54)" rx="2" ry="2" />
<text  x="1164.39" y="271.5" >[u..</text>
</g>
<g >
<title>[mstress] (10,101,010 samples, 0.10%)</title><rect x="26.7" y="277" width="1.2" height="15.0" fill="rgb(216,126,34)" rx="2" ry="2" />
<text  x="29.69" y="287.5" ></text>
</g>
<g >
<title>[[kernel.kallsyms]] (10,101,010 samples, 0.10%)</title><rect x="1124.4" y="277" width="1.2" height="15.0" fill="rgb(206,194,25)" rx="2" ry="2" />
<text  x="1127.44" y="287.5" ></text>
</g>
<g >
<title>[[kernel.kallsyms]] (10,101,010 samples, 0.10%)</title><rect x="1125.6" y="261" width="1.2" height="15.0" fill="rgb(225,141,7)" rx="2" ry="2" />
<text  x="1128.64" y="271.5" ></text>
</g>
<g >
<title>[[kernel.kallsyms]] (50,505,050 samples, 0.51%)</title><rect x="135.2" y="277" width="5.9" height="15.0" fill="rgb(218,217,28)" rx="2" ry="2" />
<text  x="138.15" y="287.5" ></text>
</g>
<g >
<title>[[kernel.kallsyms]] (131,313,130 samples, 1.31%)</title><rect x="1025.5" y="213" width="15.5" height="15.0" fill="rgb(233,14,4)" rx="2" ry="2" />
<text  x="1028.52" y="223.5" ></text>
</g>
<g >
<title>[[kernel.kallsyms]] (20,202,020 samples, 0.20%)</title><rect x="138.7" y="197" width="2.4" height="15.0" fill="rgb(228,211,36)" rx="2" ry="2" />
<text  x="141.73" y="207.5" ></text>
</g>
<g >
<title>[[kernel.kallsyms]] (10,101,010 samples, 0.10%)</title><rect x="12.4" y="181" width="1.2" height="15.0" fill="rgb(213,102,37)" rx="2" ry="2" />
<text  x="15.38" y="191.5" ></text>
</g>
<g >
<title>[[kernel.kallsyms]] (292,929,290 samples, 2.93%)</title><rect x="1126.8" y="293" width="34.6" height="15.0" fill="rgb(235,21,13)" rx="2" ry="2" />
<text  x="1129.83" y="303.5" >[[..</text>
</g>
<g >
<title>[[kernel.kallsyms]] (292,929,290 samples, 2.93%)</title><rect x="1126.8" y="229" width="34.6" height="15.0" fill="rgb(221,186,38)" rx="2" ry="2" />
<text  x="1129.83" y="239.5" >[[..</text>
</g>
<g >
<title>swapper (535,353,530 samples, 5.35%)</title><rect x="1126.8" y="325" width="63.2" height="15.0" fill="rgb(234,48,37)" rx="2" ry="2" />
<text  x="1129.83" y="335.5" >swapper</text>
</g>
<g >
<title>[[kernel.kallsyms]] (10,101,010 samples, 0.10%)</title><rect x="16.0" y="101" width="1.2" height="15.0" fill="rgb(227,215,5)" rx="2" ry="2" />
<text  x="18.96" y="111.5" ></text>
</g>
<g >
<title>[unknown] (40,404,040 samples, 0.40%)</title><rect x="27.9" y="277" width="4.7" height="15.0" fill="rgb(232,69,11)" rx="2" ry="2" />
<text  x="30.88" y="287.5" ></text>
</g>
<g >
<title>[[kernel.kallsyms]] (80,808,080 samples, 0.81%)</title><rect x="1031.5" y="165" width="9.5" height="15.0" fill="rgb(230,113,45)" rx="2" ry="2" />
<text  x="1034.47" y="175.5" ></text>
</g>
<g >
<title>[[kernel.kallsyms]] (20,202,020 samples, 0.20%)</title><rect x="520.1" y="261" width="2.4" height="15.0" fill="rgb(222,37,20)" rx="2" ry="2" />
<text  x="523.14" y="271.5" ></text>
</g>
<g >
<title>[[kernel.kallsyms]] (202,020,200 samples, 2.02%)</title><rect x="1017.2" y="277" width="23.8" height="15.0" fill="rgb(245,118,21)" rx="2" ry="2" />
<text  x="1020.17" y="287.5" >[..</text>
</g>
<g >
<title>[[kernel.kallsyms]] (30,303,030 samples, 0.30%)</title><rect x="13.6" y="261" width="3.6" height="15.0" fill="rgb(248,49,37)" rx="2" ry="2" />
<text  x="16.58" y="271.5" ></text>
</g>
<g >
<title>[[kernel.kallsyms]] (10,101,010 samples, 0.10%)</title><rect x="511.8" y="245" width="1.2" height="15.0" fill="rgb(241,184,50)" rx="2" ry="2" />
<text  x="514.80" y="255.5" ></text>
</g>
<g >
<title>[unknown] (4,222,222,180 samples, 42.22%)</title><rect x="20.7" y="309" width="498.2" height="15.0" fill="rgb(249,66,3)" rx="2" ry="2" />
<text  x="23.73" y="319.5" >[unknown]</text>
</g>
<g >
<title>[[kernel.kallsyms]] (191,919,190 samples, 1.92%)</title><rect x="141.1" y="181" width="22.7" height="15.0" fill="rgb(210,118,34)" rx="2" ry="2" />
<text  x="144.11" y="191.5" >[..</text>
</g>
<g >
<title>[[kernel.kallsyms]] (10,101,010 samples, 0.10%)</title><rect x="12.4" y="213" width="1.2" height="15.0" fill="rgb(212,57,49)" rx="2" ry="2" />
<text  x="15.38" y="223.5" ></text>
</g>
<g >
<title>[[kernel.kallsyms]] (10,101,010 samples, 0.10%)</title><rect x="16.0" y="53" width="1.2" height="15.0" fill="rgb(219,208,7)" rx="2" ry="2" />
<text  x="18.96" y="63.5" ></text>
</g>
<g >
<title>[python3.8] (10,101,010 samples, 0.10%)</title><rect x="1123.3" y="293" width="1.1" height="15.0" fill="rgb(215,93,40)" rx="2" ry="2" />
<text  x="1126.25" y="303.5" ></text>
</g>
<g >
<title>[[kernel.kallsyms]] (191,919,190 samples, 1.92%)</title><rect x="141.1" y="149" width="22.7" height="15.0" fill="rgb(245,125,33)" rx="2" ry="2" />
<text  x="144.11" y="159.5" >[..</text>
</g>
<g >
<title>thread_entry (525,252,520 samples, 5.25%)</title><rect x="1041.0" y="309" width="62.0" height="15.0" fill="rgb(249,187,39)" rx="2" ry="2" />
<text  x="1044.01" y="319.5" >thread..</text>
</g>
<g >
<title>[[kernel.kallsyms]] (30,303,030 samples, 0.30%)</title><rect x="13.6" y="165" width="3.6" height="15.0" fill="rgb(220,51,13)" rx="2" ry="2" />
<text  x="16.58" y="175.5" ></text>
</g>
<g >
<title>[[kernel.kallsyms]] (171,717,170 samples, 1.72%)</title><rect x="1020.7" y="245" width="20.3" height="15.0" fill="rgb(250,179,16)" rx="2" ry="2" />
<text  x="1023.75" y="255.5" ></text>
</g>
<g >
<title>sysmalloc (282,828,280 samples, 2.83%)</title><rect x="1007.6" y="309" width="33.4" height="15.0" fill="rgb(246,192,30)" rx="2" ry="2" />
<text  x="1010.64" y="319.5" >sy..</text>
</g>
<g >
<title>[unknown] (919,191,910 samples, 9.19%)</title><rect x="26.7" y="293" width="108.5" height="15.0" fill="rgb(207,208,2)" rx="2" ry="2" />
<text  x="29.69" y="303.5" >[unknown]</text>
</g>
<g >
<title>[[kernel.kallsyms]] (292,929,290 samples, 2.93%)</title><rect x="1126.8" y="213" width="34.6" height="15.0" fill="rgb(236,185,10)" rx="2" ry="2" />
<text  x="1129.83" y="223.5" >[[..</text>
</g>
<g >
<title>_nl_load_locale_from_archive (10,101,010 samples, 0.10%)</title><rect x="12.4" y="277" width="1.2" height="15.0" fill="rgb(238,29,33)" rx="2" ry="2" />
<text  x="15.38" y="287.5" ></text>
</g>
<g >
<title>bench.sh (10,101,010 samples, 0.10%)</title><rect x="10.0" y="325" width="1.2" height="15.0" fill="rgb(241,102,13)" rx="2" ry="2" />
<text  x="13.00" y="335.5" ></text>
</g>
<g >
<title>[unknown] (242,424,240 samples, 2.42%)</title><rect x="1161.4" y="277" width="28.6" height="15.0" fill="rgb(254,216,44)" rx="2" ry="2" />
<text  x="1164.39" y="287.5" >[u..</text>
</g>
<g >
<title>[[kernel.kallsyms]] (535,353,530 samples, 5.35%)</title><rect x="877.7" y="165" width="63.2" height="15.0" fill="rgb(217,181,10)" rx="2" ry="2" />
<text  x="880.72" y="175.5" >[[kern..</text>
</g>
<g >
<title>[[kernel.kallsyms]] (10,101,010 samples, 0.10%)</title><rect x="511.8" y="229" width="1.2" height="15.0" fill="rgb(214,162,48)" rx="2" ry="2" />
<text  x="514.80" y="239.5" ></text>
</g>
<g >
<title>[[kernel.kallsyms]] (10,101,010 samples, 0.10%)</title><rect x="1125.6" y="245" width="1.2" height="15.0" fill="rgb(248,178,31)" rx="2" ry="2" />
<text  x="1128.64" y="255.5" ></text>
</g>
<g >
<title>[[kernel.kallsyms]] (202,020,200 samples, 2.02%)</title><rect x="1017.2" y="261" width="23.8" height="15.0" fill="rgb(216,198,49)" rx="2" ry="2" />
<text  x="1020.17" y="271.5" >[..</text>
</g>
<g >
<title>[[kernel.kallsyms]] (10,101,010 samples, 0.10%)</title><rect x="16.0" y="37" width="1.2" height="15.0" fill="rgb(242,207,5)" rx="2" ry="2" />
<text  x="18.96" y="47.5" ></text>
</g>
<g >
<title>[[kernel.kallsyms]] (20,202,020 samples, 0.20%)</title><rect x="520.1" y="213" width="2.4" height="15.0" fill="rgb(221,145,44)" rx="2" ry="2" />
<text  x="523.14" y="223.5" ></text>
</g>
<g >
<title>_nl_find_locale (10,101,010 samples, 0.10%)</title><rect x="12.4" y="293" width="1.2" height="15.0" fill="rgb(221,31,48)" rx="2" ry="2" />
<text  x="15.38" y="303.5" ></text>
</g>
<g >
<title>[[kernel.kallsyms]] (10,101,010 samples, 0.10%)</title><rect x="12.4" y="261" width="1.2" height="15.0" fill="rgb(226,164,11)" rx="2" ry="2" />
<text  x="15.38" y="271.5" ></text>
</g>
<g >
<title>[[kernel.kallsyms]] (10,101,010 samples, 0.10%)</title><rect x="1124.4" y="261" width="1.2" height="15.0" fill="rgb(229,196,52)" rx="2" ry="2" />
<text  x="1127.44" y="271.5" ></text>
</g>
<g >
<title>[[kernel.kallsyms]] (10,101,010 samples, 0.10%)</title><rect x="12.4" y="165" width="1.2" height="15.0" fill="rgb(218,205,34)" rx="2" ry="2" />
<text  x="15.38" y="175.5" ></text>
</g>
<g >
<title>__lll_lock_wait_private (50,505,050 samples, 0.51%)</title><rect x="135.2" y="293" width="5.9" height="15.0" fill="rgb(228,135,40)" rx="2" ry="2" />
<text  x="138.15" y="303.5" ></text>
</g>
<g >
<title>chronyd (10,101,010 samples, 0.10%)</title><rect x="11.2" y="325" width="1.2" height="15.0" fill="rgb(242,133,34)" rx="2" ry="2" />
<text  x="14.19" y="335.5" ></text>
</g>
<g >
<title>unlink_chunk.isra.0 (171,717,170 samples, 1.72%)</title><rect x="1103.0" y="309" width="20.3" height="15.0" fill="rgb(239,120,36)" rx="2" ry="2" />
<text  x="1105.99" y="319.5" ></text>
</g>
<g >
<title>[[kernel.kallsyms]] (10,101,010 samples, 0.10%)</title><rect x="1125.6" y="229" width="1.2" height="15.0" fill="rgb(240,68,12)" rx="2" ry="2" />
<text  x="1128.64" y="239.5" ></text>
</g>
<g >
<title>redis-server (10,101,010 samples, 0.10%)</title><rect x="1125.6" y="325" width="1.2" height="15.0" fill="rgb(221,107,24)" rx="2" ry="2" />
<text  x="1128.64" y="335.5" ></text>
</g>
<g >
<title>[[kernel.kallsyms]] (151,515,150 samples, 1.52%)</title><rect x="1023.1" y="229" width="17.9" height="15.0" fill="rgb(225,32,32)" rx="2" ry="2" />
<text  x="1026.13" y="239.5" ></text>
</g>
<g >
<title>[[kernel.kallsyms]] (20,202,020 samples, 0.20%)</title><rect x="161.4" y="85" width="2.4" height="15.0" fill="rgb(212,27,40)" rx="2" ry="2" />
<text  x="164.37" y="95.5" ></text>
</g>
<g >
<title>[[kernel.kallsyms]] (10,101,010 samples, 0.10%)</title><rect x="10.0" y="213" width="1.2" height="15.0" fill="rgb(219,200,39)" rx="2" ry="2" />
<text  x="13.00" y="223.5" ></text>
</g>
<g >
<title>[[kernel.kallsyms]] (10,101,010 samples, 0.10%)</title><rect x="1125.6" y="197" width="1.2" height="15.0" fill="rgb(233,159,19)" rx="2" ry="2" />
<text  x="1128.64" y="207.5" ></text>
</g>
<g >
<title>[[kernel.kallsyms]] (30,303,030 samples, 0.30%)</title><rect x="13.6" y="197" width="3.6" height="15.0" fill="rgb(240,149,17)" rx="2" ry="2" />
<text  x="16.58" y="207.5" ></text>
</g>
<g >
<title>__open64 (10,101,010 samples, 0.10%)</title><rect x="1125.6" y="293" width="1.2" height="15.0" fill="rgb(222,54,32)" rx="2" ry="2" />
<text  x="1128.64" y="303.5" ></text>
</g>
<g >
<title>setlocale (10,101,010 samples, 0.10%)</title><rect x="12.4" y="309" width="1.2" height="15.0" fill="rgb(224,154,48)" rx="2" ry="2" />
<text  x="15.38" y="319.5" ></text>
</g>
<g >
<title>__malloc_arena_thread_freeres (10,101,010 samples, 0.10%)</title><rect x="163.8" y="293" width="1.1" height="15.0" fill="rgb(254,100,6)" rx="2" ry="2" />
<text  x="166.76" y="303.5" ></text>
</g>
<g >
<title>[[kernel.kallsyms]] (10,101,010 samples, 0.10%)</title><rect x="511.8" y="213" width="1.2" height="15.0" fill="rgb(253,153,36)" rx="2" ry="2" />
<text  x="514.80" y="223.5" ></text>
</g>
<g >
<title>[[kernel.kallsyms]] (10,101,010 samples, 0.10%)</title><rect x="16.0" y="69" width="1.2" height="15.0" fill="rgb(211,206,43)" rx="2" ry="2" />
<text  x="18.96" y="79.5" ></text>
</g>
<g >
<title>[[kernel.kallsyms]] (242,424,240 samples, 2.42%)</title><rect x="1161.4" y="229" width="28.6" height="15.0" fill="rgb(232,207,30)" rx="2" ry="2" />
<text  x="1164.39" y="239.5" >[[..</text>
</g>
<g >
<title>[[kernel.kallsyms]] (191,919,190 samples, 1.92%)</title><rect x="141.1" y="261" width="22.7" height="15.0" fill="rgb(251,98,0)" rx="2" ry="2" />
<text  x="144.11" y="271.5" >[..</text>
</g>
<g >
<title>cfree@GLIBC_2.2.5 (10,101,010 samples, 0.10%)</title><rect x="29.1" y="261" width="1.2" height="15.0" fill="rgb(210,138,45)" rx="2" ry="2" />
<text  x="32.07" y="271.5" ></text>
</g>
<g >
<title>alloc_items (3,202,020,170 samples, 32.02%)</title><rect x="563.1" y="309" width="377.8" height="15.0" fill="rgb(216,225,30)" rx="2" ry="2" />
<text  x="566.05" y="319.5" >alloc_items</text>
</g>
<g >
<title>[[kernel.kallsyms]] (40,404,040 samples, 0.40%)</title><rect x="136.3" y="213" width="4.8" height="15.0" fill="rgb(236,101,32)" rx="2" ry="2" />
<text  x="139.34" y="223.5" ></text>
</g>
<g >
<title>[[kernel.kallsyms]] (868,686,860 samples, 8.69%)</title><rect x="838.4" y="229" width="102.5" height="15.0" fill="rgb(221,194,36)" rx="2" ry="2" />
<text  x="841.38" y="239.5" >[[kernel.kal..</text>
</g>
<g >
<title>[[kernel.kallsyms]] (10,101,010 samples, 0.10%)</title><rect x="561.9" y="277" width="1.2" height="15.0" fill="rgb(215,8,13)" rx="2" ry="2" />
<text  x="564.86" y="287.5" ></text>
</g>
<g >
<title>[[kernel.kallsyms]] (30,303,030 samples, 0.30%)</title><rect x="13.6" y="213" width="3.6" height="15.0" fill="rgb(221,123,23)" rx="2" ry="2" />
<text  x="16.58" y="223.5" ></text>
</g>
<g >
<title>__select (10,101,010 samples, 0.10%)</title><rect x="11.2" y="309" width="1.2" height="15.0" fill="rgb(221,140,23)" rx="2" ry="2" />
<text  x="14.19" y="319.5" ></text>
</g>
<g >
<title>[[kernel.kallsyms]] (242,424,240 samples, 2.42%)</title><rect x="1161.4" y="197" width="28.6" height="15.0" fill="rgb(219,82,17)" rx="2" ry="2" />
<text  x="1164.39" y="207.5" >[[..</text>
</g>
<g >
<title>__mmap (10,101,010 samples, 0.10%)</title><rect x="518.9" y="309" width="1.2" height="15.0" fill="rgb(248,81,46)" rx="2" ry="2" />
<text  x="521.95" y="319.5" ></text>
</g>
<g >
<title>[[kernel.kallsyms]] (10,101,010 samples, 0.10%)</title><rect x="1125.6" y="277" width="1.2" height="15.0" fill="rgb(235,222,50)" rx="2" ry="2" />
<text  x="1128.64" y="287.5" ></text>
</g>
<g >
<title>[[kernel.kallsyms]] (191,919,190 samples, 1.92%)</title><rect x="141.1" y="245" width="22.7" height="15.0" fill="rgb(247,21,4)" rx="2" ry="2" />
<text  x="144.11" y="255.5" >[..</text>
</g>
<g >
<title>cfree@GLIBC_2.2.5 (90,909,090 samples, 0.91%)</title><rect x="198.3" y="293" width="10.8" height="15.0" fill="rgb(213,37,14)" rx="2" ry="2" />
<text  x="201.32" y="303.5" ></text>
</g>
<g >
<title>[unknown] (10,101,010 samples, 0.10%)</title><rect x="1123.3" y="309" width="1.1" height="15.0" fill="rgb(220,164,26)" rx="2" ry="2" />
<text  x="1126.25" y="319.5" ></text>
</g>
<g >
<title>[[kernel.kallsyms]] (30,303,030 samples, 0.30%)</title><rect x="13.6" y="245" width="3.6" height="15.0" fill="rgb(240,33,19)" rx="2" ry="2" />
<text  x="16.58" y="255.5" ></text>
</g>
<g >
<title>[[kernel.kallsyms]] (242,424,240 samples, 2.42%)</title><rect x="1161.4" y="165" width="28.6" height="15.0" fill="rgb(228,171,20)" rx="2" ry="2" />
<text  x="1164.39" y="175.5" >[[..</text>
</g>
<g >
<title>[[kernel.kallsyms]] (60,606,060 samples, 0.61%)</title><rect x="1033.9" y="149" width="7.1" height="15.0" fill="rgb(207,184,3)" rx="2" ry="2" />
<text  x="1036.86" y="159.5" ></text>
</g>
<g >
<title>[[kernel.kallsyms]] (10,101,010 samples, 0.10%)</title><rect x="1125.6" y="181" width="1.2" height="15.0" fill="rgb(229,161,37)" rx="2" ry="2" />
<text  x="1128.64" y="191.5" ></text>
</g>
<g >
<title>malloc (393,939,390 samples, 3.94%)</title><rect x="940.9" y="309" width="46.5" height="15.0" fill="rgb(223,22,29)" rx="2" ry="2" />
<text  x="943.89" y="319.5" >malloc</text>
</g>
<g >
<title>[[kernel.kallsyms]] (70,707,070 samples, 0.71%)</title><rect x="155.4" y="117" width="8.4" height="15.0" fill="rgb(228,107,24)" rx="2" ry="2" />
<text  x="158.41" y="127.5" ></text>
</g>
<g >
<title>[unknown] (242,424,240 samples, 2.42%)</title><rect x="1161.4" y="293" width="28.6" height="15.0" fill="rgb(225,0,20)" rx="2" ry="2" />
<text  x="1164.39" y="303.5" >[u..</text>
</g>
<g >
<title>mstress (9,404,040,310 samples, 94.04%)</title><rect x="13.6" y="325" width="1109.7" height="15.0" fill="rgb(245,174,15)" rx="2" ry="2" />
<text  x="16.58" y="335.5" >mstress</text>
</g>
<g >
<title>_int_free (10,101,010 samples, 0.10%)</title><rect x="32.6" y="277" width="1.2" height="15.0" fill="rgb(239,178,47)" rx="2" ry="2" />
<text  x="35.65" y="287.5" ></text>
</g>
<g >
<title>__GI___libc_open (10,101,010 samples, 0.10%)</title><rect x="10.0" y="293" width="1.2" height="15.0" fill="rgb(236,170,38)" rx="2" ry="2" />
<text  x="13.00" y="303.5" ></text>
</g>
<g >
<title>[[kernel.kallsyms]] (10,101,010 samples, 0.10%)</title><rect x="10.0" y="197" width="1.2" height="15.0" fill="rgb(229,207,46)" rx="2" ry="2" />
<text  x="13.00" y="207.5" ></text>
</g>
<g >
<title>[[kernel.kallsyms]] (10,101,010 samples, 0.10%)</title><rect x="16.0" y="117" width="1.2" height="15.0" fill="rgb(236,120,29)" rx="2" ry="2" />
<text  x="18.96" y="127.5" ></text>
</g>
<g >
<title>malloc_consolidate (171,717,170 samples, 1.72%)</title><rect x="987.4" y="309" width="20.2" height="15.0" fill="rgb(218,26,34)" rx="2" ry="2" />
<text  x="990.37" y="319.5" ></text>
</g>
<g >
<title>[[kernel.kallsyms]] (121,212,120 samples, 1.21%)</title><rect x="1026.7" y="197" width="14.3" height="15.0" fill="rgb(241,148,8)" rx="2" ry="2" />
<text  x="1029.71" y="207.5" ></text>
</g>
<g >
<title>[[kernel.kallsyms]] (10,101,010 samples, 0.10%)</title><rect x="1124.4" y="293" width="1.2" height="15.0" fill="rgb(239,144,9)" rx="2" ry="2" />
<text  x="1127.44" y="303.5" ></text>
</g>
<g >
<title>_int_free (10,101,010 samples, 0.10%)</title><rect x="27.9" y="261" width="1.2" height="15.0" fill="rgb(215,165,20)" rx="2" ry="2" />
<text  x="30.88" y="271.5" ></text>
</g>
<g >
<title>[[kernel.kallsyms]] (191,919,190 samples, 1.92%)</title><rect x="141.1" y="213" width="22.7" height="15.0" fill="rgb(223,79,12)" rx="2" ry="2" />
<text  x="144.11" y="223.5" >[..</text>
</g>
<g >
<title>[[kernel.kallsyms]] (10,101,010 samples, 0.10%)</title><rect x="511.8" y="261" width="1.2" height="15.0" fill="rgb(233,46,34)" rx="2" ry="2" />
<text  x="514.80" y="271.5" ></text>
</g>
<g >
<title>[[kernel.kallsyms]] (292,929,290 samples, 2.93%)</title><rect x="1126.8" y="245" width="34.6" height="15.0" fill="rgb(251,186,7)" rx="2" ry="2" />
<text  x="1129.83" y="255.5" >[[..</text>
</g>
<g >
<title>[mstress] (30,303,030 samples, 0.30%)</title><rect x="17.2" y="309" width="3.5" height="15.0" fill="rgb(234,163,15)" rx="2" ry="2" />
<text  x="20.15" y="319.5" ></text>
</g>
<g >
<title>[[kernel.kallsyms]] (10,101,010 samples, 0.10%)</title><rect x="12.4" y="229" width="1.2" height="15.0" fill="rgb(244,9,48)" rx="2" ry="2" />
<text  x="15.38" y="239.5" ></text>
</g>
<g >
<title>[[kernel.kallsyms]] (171,717,170 samples, 1.72%)</title><rect x="143.5" y="133" width="20.3" height="15.0" fill="rgb(224,133,46)" rx="2" ry="2" />
<text  x="146.49" y="143.5" ></text>
</g>
<g >
<title>[[kernel.kallsyms]] (20,202,020 samples, 0.20%)</title><rect x="520.1" y="229" width="2.4" height="15.0" fill="rgb(206,134,49)" rx="2" ry="2" />
<text  x="523.14" y="239.5" ></text>
</g>
<g >
<title>[[kernel.kallsyms]] (20,202,020 samples, 0.20%)</title><rect x="161.4" y="101" width="2.4" height="15.0" fill="rgb(212,193,7)" rx="2" ry="2" />
<text  x="164.37" y="111.5" ></text>
</g>
<g >
<title>[[kernel.kallsyms]] (10,101,010 samples, 0.10%)</title><rect x="12.4" y="197" width="1.2" height="15.0" fill="rgb(239,59,14)" rx="2" ry="2" />
<text  x="15.38" y="207.5" ></text>
</g>
<g >
<title>[[kernel.kallsyms]] (60,606,060 samples, 0.61%)</title><rect x="1033.9" y="133" width="7.1" height="15.0" fill="rgb(246,19,30)" rx="2" ry="2" />
<text  x="1036.86" y="143.5" ></text>
</g>
<g >
<title>[[kernel.kallsyms]] (676,767,670 samples, 6.77%)</title><rect x="861.0" y="181" width="79.9" height="15.0" fill="rgb(247,81,1)" rx="2" ry="2" />
<text  x="864.03" y="191.5" >[[kernel...</text>
</g>
<g >
<title>[[kernel.kallsyms]] (20,202,020 samples, 0.20%)</title><rect x="138.7" y="165" width="2.4" height="15.0" fill="rgb(249,216,33)" rx="2" ry="2" />
<text  x="141.73" y="175.5" ></text>
</g>
<g >
<title>[[kernel.kallsyms]] (30,303,030 samples, 0.30%)</title><rect x="13.6" y="277" width="3.6" height="15.0" fill="rgb(223,133,39)" rx="2" ry="2" />
<text  x="16.58" y="287.5" ></text>
</g>
<g >
<title>[[kernel.kallsyms]] (10,101,010 samples, 0.10%)</title><rect x="1124.4" y="309" width="1.2" height="15.0" fill="rgb(248,94,16)" rx="2" ry="2" />
<text  x="1127.44" y="319.5" ></text>
</g>
<g >
<title>[[kernel.kallsyms]] (30,303,030 samples, 0.30%)</title><rect x="13.6" y="181" width="3.6" height="15.0" fill="rgb(229,176,47)" rx="2" ry="2" />
<text  x="16.58" y="191.5" ></text>
</g>
<g >
<title>__madvise (191,919,190 samples, 1.92%)</title><rect x="141.1" y="293" width="22.7" height="15.0" fill="rgb(236,59,53)" rx="2" ry="2" />
<text  x="144.11" y="303.5" >_..</text>
</g>
<g >
<title>[unknown] (242,424,240 samples, 2.42%)</title><rect x="1161.4" y="245" width="28.6" height="15.0" fill="rgb(226,140,21)" rx="2" ry="2" />
<text  x="1164.39" y="255.5" >[u..</text>
</g>
</g>
</svg>
