<?xml version="1.0" standalone="no"?>
<!DOCTYPE svg PUBLIC "-//W3C//DTD SVG 1.1//EN" "http://www.w3.org/Graphics/SVG/1.1/DTD/svg11.dtd">
<svg version="1.1" width="1200" height="294" onload="init(evt)" viewBox="0 0 1200 294" xmlns="http://www.w3.org/2000/svg" xmlns:xlink="http://www.w3.org/1999/xlink">
<!-- Flame graph stack visualization. See https://github.com/brendangregg/FlameGraph for latest version, and http://www.brendangregg.com/flamegraphs.html for examples. -->
<!-- NOTES:  -->
<defs>
	<linearGradient id="background" y1="0" y2="1" x1="0" x2="0" >
		<stop stop-color="#eeeeee" offset="5%" />
		<stop stop-color="#eeeeb0" offset="95%" />
	</linearGradient>
</defs>
<style type="text/css">
	text { font-family:Verdana; font-size:12px; fill:rgb(0,0,0); }
	#search, #ignorecase { opacity:0.1; cursor:pointer; }
	#search:hover, #search.show, #ignorecase:hover, #ignorecase.show { opacity:1; }
	#subtitle { text-anchor:middle; font-color:rgb(160,160,160); }
	#title { text-anchor:middle; font-size:17px}
	#unzoom { cursor:pointer; }
	#frames > *:hover { stroke:black; stroke-width:0.5; cursor:pointer; }
	.hide { display:none; }
	.parent { opacity:0.5; }
</style>
<script type="text/ecmascript">
<![CDATA[
	"use strict";
	var details, searchbtn, unzoombtn, matchedtxt, svg, searching, currentSearchTerm, ignorecase, ignorecaseBtn;
	function init(evt) {
		details = document.getElementById("details").firstChild;
		searchbtn = document.getElementById("search");
		ignorecaseBtn = document.getElementById("ignorecase");
		unzoombtn = document.getElementById("unzoom");
		matchedtxt = document.getElementById("matched");
		svg = document.getElementsByTagName("svg")[0];
		searching = 0;
		currentSearchTerm = null;

		// use GET parameters to restore a flamegraphs state.
		var params = get_params();
		if (params.x && params.y)
			zoom(find_group(document.querySelector('[x="' + params.x + '"][y="' + params.y + '"]')));
                if (params.s) search(params.s);
	}

	// event listeners
	window.addEventListener("click", function(e) {
		var target = find_group(e.target);
		if (target) {
			if (target.nodeName == "a") {
				if (e.ctrlKey === false) return;
				e.preventDefault();
			}
			if (target.classList.contains("parent")) unzoom(true);
			zoom(target);
			if (!document.querySelector('.parent')) {
				// we have basically done a clearzoom so clear the url
				var params = get_params();
				if (params.x) delete params.x;
				if (params.y) delete params.y;
				history.replaceState(null, null, parse_params(params));
				unzoombtn.classList.add("hide");
				return;
			}

			// set parameters for zoom state
			var el = target.querySelector("rect");
			if (el && el.attributes && el.attributes.y && el.attributes._orig_x) {
				var params = get_params()
				params.x = el.attributes._orig_x.value;
				params.y = el.attributes.y.value;
				history.replaceState(null, null, parse_params(params));
			}
		}
		else if (e.target.id == "unzoom") clearzoom();
		else if (e.target.id == "search") search_prompt();
		else if (e.target.id == "ignorecase") toggle_ignorecase();
	}, false)

	// mouse-over for info
	// show
	window.addEventListener("mouseover", function(e) {
		var target = find_group(e.target);
		if (target) details.nodeValue = "Function: " + g_to_text(target);
	}, false)

	// clear
	window.addEventListener("mouseout", function(e) {
		var target = find_group(e.target);
		if (target) details.nodeValue = ' ';
	}, false)

	// ctrl-F for search
	// ctrl-I to toggle case-sensitive search
	window.addEventListener("keydown",function (e) {
		if (e.keyCode === 114 || (e.ctrlKey && e.keyCode === 70)) {
			e.preventDefault();
			search_prompt();
		}
		else if (e.ctrlKey && e.keyCode === 73) {
			e.preventDefault();
			toggle_ignorecase();
		}
	}, false)

	// functions
	function get_params() {
		var params = {};
		var paramsarr = window.location.search.substr(1).split('&');
		for (var i = 0; i < paramsarr.length; ++i) {
			var tmp = paramsarr[i].split("=");
			if (!tmp[0] || !tmp[1]) continue;
			params[tmp[0]]  = decodeURIComponent(tmp[1]);
		}
		return params;
	}
	function parse_params(params) {
		var uri = "?";
		for (var key in params) {
			uri += key + '=' + encodeURIComponent(params[key]) + '&';
		}
		if (uri.slice(-1) == "&")
			uri = uri.substring(0, uri.length - 1);
		if (uri == '?')
			uri = window.location.href.split('?')[0];
		return uri;
	}
	function find_child(node, selector) {
		var children = node.querySelectorAll(selector);
		if (children.length) return children[0];
	}
	function find_group(node) {
		var parent = node.parentElement;
		if (!parent) return;
		if (parent.id == "frames") return node;
		return find_group(parent);
	}
	function orig_save(e, attr, val) {
		if (e.attributes["_orig_" + attr] != undefined) return;
		if (e.attributes[attr] == undefined) return;
		if (val == undefined) val = e.attributes[attr].value;
		e.setAttribute("_orig_" + attr, val);
	}
	function orig_load(e, attr) {
		if (e.attributes["_orig_"+attr] == undefined) return;
		e.attributes[attr].value = e.attributes["_orig_" + attr].value;
		e.removeAttribute("_orig_"+attr);
	}
	function g_to_text(e) {
		var text = find_child(e, "title").firstChild.nodeValue;
		return (text)
	}
	function g_to_func(e) {
		var func = g_to_text(e);
		// if there's any manipulation we want to do to the function
		// name before it's searched, do it here before returning.
		return (func);
	}
	function update_text(e) {
		var r = find_child(e, "rect");
		var t = find_child(e, "text");
		var w = parseFloat(r.attributes.width.value) -3;
		var txt = find_child(e, "title").textContent.replace(/\([^(]*\)$/,"");
		t.attributes.x.value = parseFloat(r.attributes.x.value) + 3;

		// Smaller than this size won't fit anything
		if (w < 2 * 12 * 0.59) {
			t.textContent = "";
			return;
		}

		t.textContent = txt;
		var sl = t.getSubStringLength(0, txt.length);
		// check if only whitespace or if we can fit the entire string into width w
		if (/^ *$/.test(txt) || sl < w)
			return;

		// this isn't perfect, but gives a good starting point
		// and avoids calling getSubStringLength too often
		var start = Math.floor((w/sl) * txt.length);
		for (var x = start; x > 0; x = x-2) {
			if (t.getSubStringLength(0, x + 2) <= w) {
				t.textContent = txt.substring(0, x) + "..";
				return;
			}
		}
		t.textContent = "";
	}

	// zoom
	function zoom_reset(e) {
		if (e.attributes != undefined) {
			orig_load(e, "x");
			orig_load(e, "width");
		}
		if (e.childNodes == undefined) return;
		for (var i = 0, c = e.childNodes; i < c.length; i++) {
			zoom_reset(c[i]);
		}
	}
	function zoom_child(e, x, ratio) {
		if (e.attributes != undefined) {
			if (e.attributes.x != undefined) {
				orig_save(e, "x");
				e.attributes.x.value = (parseFloat(e.attributes.x.value) - x - 10) * ratio + 10;
				if (e.tagName == "text")
					e.attributes.x.value = find_child(e.parentNode, "rect[x]").attributes.x.value + 3;
			}
			if (e.attributes.width != undefined) {
				orig_save(e, "width");
				e.attributes.width.value = parseFloat(e.attributes.width.value) * ratio;
			}
		}

		if (e.childNodes == undefined) return;
		for (var i = 0, c = e.childNodes; i < c.length; i++) {
			zoom_child(c[i], x - 10, ratio);
		}
	}
	function zoom_parent(e) {
		if (e.attributes) {
			if (e.attributes.x != undefined) {
				orig_save(e, "x");
				e.attributes.x.value = 10;
			}
			if (e.attributes.width != undefined) {
				orig_save(e, "width");
				e.attributes.width.value = parseInt(svg.width.baseVal.value) - (10 * 2);
			}
		}
		if (e.childNodes == undefined) return;
		for (var i = 0, c = e.childNodes; i < c.length; i++) {
			zoom_parent(c[i]);
		}
	}
	function zoom(node) {
		var attr = find_child(node, "rect").attributes;
		var width = parseFloat(attr.width.value);
		var xmin = parseFloat(attr.x.value);
		var xmax = parseFloat(xmin + width);
		var ymin = parseFloat(attr.y.value);
		var ratio = (svg.width.baseVal.value - 2 * 10) / width;

		// XXX: Workaround for JavaScript float issues (fix me)
		var fudge = 0.0001;

		unzoombtn.classList.remove("hide");

		var el = document.getElementById("frames").children;
		for (var i = 0; i < el.length; i++) {
			var e = el[i];
			var a = find_child(e, "rect").attributes;
			var ex = parseFloat(a.x.value);
			var ew = parseFloat(a.width.value);
			var upstack;
			// Is it an ancestor
			if (0 == 0) {
				upstack = parseFloat(a.y.value) > ymin;
			} else {
				upstack = parseFloat(a.y.value) < ymin;
			}
			if (upstack) {
				// Direct ancestor
				if (ex <= xmin && (ex+ew+fudge) >= xmax) {
					e.classList.add("parent");
					zoom_parent(e);
					update_text(e);
				}
				// not in current path
				else
					e.classList.add("hide");
			}
			// Children maybe
			else {
				// no common path
				if (ex < xmin || ex + fudge >= xmax) {
					e.classList.add("hide");
				}
				else {
					zoom_child(e, xmin, ratio);
					update_text(e);
				}
			}
		}
		search();
	}
	function unzoom(dont_update_text) {
		unzoombtn.classList.add("hide");
		var el = document.getElementById("frames").children;
		for(var i = 0; i < el.length; i++) {
			el[i].classList.remove("parent");
			el[i].classList.remove("hide");
			zoom_reset(el[i]);
			if(!dont_update_text) update_text(el[i]);
		}
		search();
	}
	function clearzoom() {
		unzoom();

		// remove zoom state
		var params = get_params();
		if (params.x) delete params.x;
		if (params.y) delete params.y;
		history.replaceState(null, null, parse_params(params));
	}

	// search
	function toggle_ignorecase() {
		ignorecase = !ignorecase;
		if (ignorecase) {
			ignorecaseBtn.classList.add("show");
		} else {
			ignorecaseBtn.classList.remove("show");
		}
		reset_search();
		search();
	}
	function reset_search() {
		var el = document.querySelectorAll("#frames rect");
		for (var i = 0; i < el.length; i++) {
			orig_load(el[i], "fill")
		}
		var params = get_params();
		delete params.s;
		history.replaceState(null, null, parse_params(params));
	}
	function search_prompt() {
		if (!searching) {
			var term = prompt("Enter a search term (regexp " +
			    "allowed, eg: ^ext4_)"
			    + (ignorecase ? ", ignoring case" : "")
			    + "\nPress Ctrl-i to toggle case sensitivity", "");
			if (term != null) search(term);
		} else {
			reset_search();
			searching = 0;
			currentSearchTerm = null;
			searchbtn.classList.remove("show");
			searchbtn.firstChild.nodeValue = "Search"
			matchedtxt.classList.add("hide");
			matchedtxt.firstChild.nodeValue = ""
		}
	}
	function search(term) {
		if (term) currentSearchTerm = term;

		var re = new RegExp(currentSearchTerm, ignorecase ? 'i' : '');
		var el = document.getElementById("frames").children;
		var matches = new Object();
		var maxwidth = 0;
		for (var i = 0; i < el.length; i++) {
			var e = el[i];
			var func = g_to_func(e);
			var rect = find_child(e, "rect");
			if (func == null || rect == null)
				continue;

			// Save max width. Only works as we have a root frame
			var w = parseFloat(rect.attributes.width.value);
			if (w > maxwidth)
				maxwidth = w;

			if (func.match(re)) {
				// highlight
				var x = parseFloat(rect.attributes.x.value);
				orig_save(rect, "fill");
				rect.attributes.fill.value = "rgb(230,0,230)";

				// remember matches
				if (matches[x] == undefined) {
					matches[x] = w;
				} else {
					if (w > matches[x]) {
						// overwrite with parent
						matches[x] = w;
					}
				}
				searching = 1;
			}
		}
		if (!searching)
			return;
		var params = get_params();
		params.s = currentSearchTerm;
		history.replaceState(null, null, parse_params(params));

		searchbtn.classList.add("show");
		searchbtn.firstChild.nodeValue = "Reset Search";

		// calculate percent matched, excluding vertical overlap
		var count = 0;
		var lastx = -1;
		var lastw = 0;
		var keys = Array();
		for (k in matches) {
			if (matches.hasOwnProperty(k))
				keys.push(k);
		}
		// sort the matched frames by their x location
		// ascending, then width descending
		keys.sort(function(a, b){
			return a - b;
		});
		// Step through frames saving only the biggest bottom-up frames
		// thanks to the sort order. This relies on the tree property
		// where children are always smaller than their parents.
		var fudge = 0.0001;	// JavaScript floating point
		for (var k in keys) {
			var x = parseFloat(keys[k]);
			var w = matches[keys[k]];
			if (x >= lastx + lastw - fudge) {
				count += w;
				lastx = x;
				lastw = w;
			}
		}
		// display matched percent
		matchedtxt.classList.remove("hide");
		var pct = 100 * count / maxwidth;
		if (pct != 100) pct = pct.toFixed(1)
		matchedtxt.firstChild.nodeValue = "Matched: " + pct + "%";
	}
]]>
</script>
<rect x="0.0" y="0" width="1200.0" height="294.0" fill="url(#background)"  />
<text id="title" x="600.00" y="24" >Flame Graph</text>
<text id="details" x="10.00" y="277" > </text>
<text id="unzoom" x="10.00" y="24" class="hide">Reset Zoom</text>
<text id="search" x="1090.00" y="24" >Search</text>
<text id="ignorecase" x="1174.00" y="24" >ic</text>
<text id="matched" x="1090.00" y="277" > </text>
<g id="frames">
<g >
<title>[[kernel.kallsyms]] (13,979,797,840 samples, 43.58%)</title><rect x="675.8" y="85" width="514.2" height="15.0" fill="rgb(208,63,52)" rx="2" ry="2" />
<text  x="678.79" y="95.5" >[[kernel.kallsyms]]</text>
</g>
<g >
<title>[[kernel.kallsyms]] (10,101,010 samples, 0.03%)</title><rect x="165.7" y="197" width="0.3" height="15.0" fill="rgb(251,94,21)" rx="2" ry="2" />
<text  x="168.67" y="207.5" ></text>
</g>
<g >
<title>[[kernel.kallsyms]] (20,202,020 samples, 0.06%)</title><rect x="41.6" y="197" width="0.7" height="15.0" fill="rgb(217,129,14)" rx="2" ry="2" />
<text  x="44.58" y="207.5" ></text>
</g>
<g >
<title>[[kernel.kallsyms]] (10,101,010 samples, 0.03%)</title><rect x="165.7" y="181" width="0.3" height="15.0" fill="rgb(205,171,40)" rx="2" ry="2" />
<text  x="168.67" y="191.5" ></text>
</g>
<g >
<title>[[kernel.kallsyms]] (10,101,010 samples, 0.03%)</title><rect x="10.7" y="181" width="0.4" height="15.0" fill="rgb(220,26,41)" rx="2" ry="2" />
<text  x="13.74" y="191.5" ></text>
</g>
<g >
<title>[[kernel.kallsyms]] (10,101,010 samples, 0.03%)</title><rect x="15.2" y="133" width="0.4" height="15.0" fill="rgb(208,103,18)" rx="2" ry="2" />
<text  x="18.20" y="143.5" ></text>
</g>
<g >
<title>[[kernel.kallsyms]] (10,101,010 samples, 0.03%)</title><rect x="165.7" y="133" width="0.3" height="15.0" fill="rgb(252,50,16)" rx="2" ry="2" />
<text  x="168.67" y="143.5" ></text>
</g>
<g >
<title>[[kernel.kallsyms]] (10,101,010 samples, 0.03%)</title><rect x="15.2" y="85" width="0.4" height="15.0" fill="rgb(235,187,13)" rx="2" ry="2" />
<text  x="18.20" y="95.5" ></text>
</g>
<g >
<title>[[kernel.kallsyms]] (10,101,010 samples, 0.03%)</title><rect x="42.0" y="53" width="0.3" height="15.0" fill="rgb(235,77,4)" rx="2" ry="2" />
<text  x="44.95" y="63.5" ></text>
</g>
<g >
<title>[[kernel.kallsyms]] (10,101,010 samples, 0.03%)</title><rect x="15.2" y="181" width="0.4" height="15.0" fill="rgb(245,128,53)" rx="2" ry="2" />
<text  x="18.20" y="191.5" ></text>
</g>
<g >
<title>[[kernel.kallsyms]] (10,101,010 samples, 0.03%)</title><rect x="165.7" y="149" width="0.3" height="15.0" fill="rgb(228,212,18)" rx="2" ry="2" />
<text  x="168.67" y="159.5" ></text>
</g>
<g >
<title>[[kernel.kallsyms]] (343,434,340 samples, 1.07%)</title><rect x="65.7" y="101" width="12.7" height="15.0" fill="rgb(246,200,43)" rx="2" ry="2" />
<text  x="68.73" y="111.5" ></text>
</g>
<g >
<title>[[kernel.kallsyms]] (353,535,350 samples, 1.10%)</title><rect x="65.4" y="133" width="13.0" height="15.0" fill="rgb(223,146,34)" rx="2" ry="2" />
<text  x="68.36" y="143.5" ></text>
</g>
<g >
<title>[[kernel.kallsyms]] (20,202,020 samples, 0.06%)</title><rect x="41.6" y="181" width="0.7" height="15.0" fill="rgb(254,129,44)" rx="2" ry="2" />
<text  x="44.58" y="191.5" ></text>
</g>
<g >
<title>rptest (4,191,919,150 samples, 13.07%)</title><rect x="11.5" y="229" width="154.2" height="15.0" fill="rgb(250,206,16)" rx="2" ry="2" />
<text  x="14.49" y="239.5" >rptest</text>
</g>
<g >
<title>__libc_disable_asynccancel (10,101,010 samples, 0.03%)</title><rect x="16.7" y="213" width="0.4" height="15.0" fill="rgb(234,164,30)" rx="2" ry="2" />
<text  x="19.69" y="223.5" ></text>
</g>
<g >
<title>[[kernel.kallsyms]] (10,101,010 samples, 0.03%)</title><rect x="164.9" y="149" width="0.4" height="15.0" fill="rgb(248,221,13)" rx="2" ry="2" />
<text  x="167.93" y="159.5" ></text>
</g>
<g >
<title>[[kernel.kallsyms]] (50,505,050 samples, 0.16%)</title><rect x="34.1" y="165" width="1.9" height="15.0" fill="rgb(225,24,0)" rx="2" ry="2" />
<text  x="37.15" y="175.5" ></text>
</g>
<g >
<title>[[kernel.kallsyms]] (20,202,020 samples, 0.06%)</title><rect x="105.1" y="133" width="0.8" height="15.0" fill="rgb(226,48,51)" rx="2" ry="2" />
<text  x="108.11" y="143.5" ></text>
</g>
<g >
<title>_init (10,101,010 samples, 0.03%)</title><rect x="165.7" y="213" width="0.3" height="15.0" fill="rgb(226,204,33)" rx="2" ry="2" />
<text  x="168.67" y="223.5" ></text>
</g>
<g >
<title>[[kernel.kallsyms]] (13,979,797,840 samples, 43.58%)</title><rect x="675.8" y="117" width="514.2" height="15.0" fill="rgb(230,146,3)" rx="2" ry="2" />
<text  x="678.79" y="127.5" >[[kernel.kallsyms]]</text>
</g>
<g >
<title>[[kernel.kallsyms]] (10,101,010 samples, 0.03%)</title><rect x="10.0" y="197" width="0.4" height="15.0" fill="rgb(244,100,11)" rx="2" ry="2" />
<text  x="13.00" y="207.5" ></text>
</g>
<g >
<title>sed (10,101,010 samples, 0.03%)</title><rect x="165.7" y="229" width="0.3" height="15.0" fill="rgb(218,83,41)" rx="2" ry="2" />
<text  x="168.67" y="239.5" ></text>
</g>
<g >
<title>calloc (30,303,030 samples, 0.09%)</title><rect x="56.1" y="213" width="1.1" height="15.0" fill="rgb(254,0,48)" rx="2" ry="2" />
<text  x="59.07" y="223.5" ></text>
</g>
<g >
<title>[[kernel.kallsyms]] (13,858,585,720 samples, 43.20%)</title><rect x="166.0" y="149" width="509.8" height="15.0" fill="rgb(206,157,19)" rx="2" ry="2" />
<text  x="169.05" y="159.5" >[[kernel.kallsyms]]</text>
</g>
<g >
<title>[[kernel.kallsyms]] (10,101,010 samples, 0.03%)</title><rect x="10.4" y="85" width="0.3" height="15.0" fill="rgb(212,210,41)" rx="2" ry="2" />
<text  x="13.37" y="95.5" ></text>
</g>
<g >
<title>[[kernel.kallsyms]] (10,101,010 samples, 0.03%)</title><rect x="10.4" y="165" width="0.3" height="15.0" fill="rgb(251,60,14)" rx="2" ry="2" />
<text  x="13.37" y="175.5" ></text>
</g>
<g >
<title>[[kernel.kallsyms]] (30,303,030 samples, 0.09%)</title><rect x="104.7" y="181" width="1.2" height="15.0" fill="rgb(242,47,5)" rx="2" ry="2" />
<text  x="107.74" y="191.5" ></text>
</g>
<g >
<title>[[kernel.kallsyms]] (13,858,585,720 samples, 43.20%)</title><rect x="166.0" y="165" width="509.8" height="15.0" fill="rgb(224,101,18)" rx="2" ry="2" />
<text  x="169.05" y="175.5" >[[kernel.kallsyms]]</text>
</g>
<g >
<title>[[kernel.kallsyms]] (13,979,797,840 samples, 43.58%)</title><rect x="675.8" y="133" width="514.2" height="15.0" fill="rgb(216,153,53)" rx="2" ry="2" />
<text  x="678.79" y="143.5" >[[kernel.kallsyms]]</text>
</g>
<g >
<title>[[kernel.kallsyms]] (10,101,010 samples, 0.03%)</title><rect x="10.4" y="37" width="0.3" height="15.0" fill="rgb(250,110,24)" rx="2" ry="2" />
<text  x="13.37" y="47.5" ></text>
</g>
<g >
<title>[[kernel.kallsyms]] (10,101,010 samples, 0.03%)</title><rect x="165.7" y="101" width="0.3" height="15.0" fill="rgb(226,163,46)" rx="2" ry="2" />
<text  x="168.67" y="111.5" ></text>
</g>
<g >
<title>[[kernel.kallsyms]] (10,101,010 samples, 0.03%)</title><rect x="35.6" y="53" width="0.4" height="15.0" fill="rgb(254,100,24)" rx="2" ry="2" />
<text  x="38.64" y="63.5" ></text>
</g>
<g >
<title>[[kernel.kallsyms]] (40,404,040 samples, 0.13%)</title><rect x="34.5" y="149" width="1.5" height="15.0" fill="rgb(245,20,9)" rx="2" ry="2" />
<text  x="37.52" y="159.5" ></text>
</g>
<g >
<title>[[kernel.kallsyms]] (20,202,020 samples, 0.06%)</title><rect x="41.6" y="133" width="0.7" height="15.0" fill="rgb(242,45,20)" rx="2" ry="2" />
<text  x="44.58" y="143.5" ></text>
</g>
<g >
<title>[[kernel.kallsyms]] (10,101,010 samples, 0.03%)</title><rect x="15.2" y="101" width="0.4" height="15.0" fill="rgb(250,52,47)" rx="2" ry="2" />
<text  x="18.20" y="111.5" ></text>
</g>
<g >
<title>[[kernel.kallsyms]] (30,303,030 samples, 0.09%)</title><rect x="104.7" y="165" width="1.2" height="15.0" fill="rgb(215,164,38)" rx="2" ry="2" />
<text  x="107.74" y="175.5" ></text>
</g>
<g >
<title>[[kernel.kallsyms]] (10,101,010 samples, 0.03%)</title><rect x="164.9" y="165" width="0.4" height="15.0" fill="rgb(207,192,41)" rx="2" ry="2" />
<text  x="167.93" y="175.5" ></text>
</g>
<g >
<title>__pthread_clockjoin_ex (10,101,010 samples, 0.03%)</title><rect x="11.9" y="197" width="0.3" height="15.0" fill="rgb(214,116,8)" rx="2" ry="2" />
<text  x="14.86" y="207.5" ></text>
</g>
<g >
<title>clock_nanosleep@@GLIBC_2.17 (575,757,570 samples, 1.79%)</title><rect x="57.2" y="213" width="21.2" height="15.0" fill="rgb(247,128,47)" rx="2" ry="2" />
<text  x="60.19" y="223.5" ></text>
</g>
<g >
<title>[[kernel.kallsyms]] (10,101,010 samples, 0.03%)</title><rect x="105.5" y="101" width="0.4" height="15.0" fill="rgb(252,67,15)" rx="2" ry="2" />
<text  x="108.48" y="111.5" ></text>
</g>
<g >
<title>[unknown] (10,101,010 samples, 0.03%)</title><rect x="11.1" y="213" width="0.4" height="15.0" fill="rgb(245,37,26)" rx="2" ry="2" />
<text  x="14.11" y="223.5" ></text>
</g>
<g >
<title>[[kernel.kallsyms]] (20,202,020 samples, 0.06%)</title><rect x="41.6" y="165" width="0.7" height="15.0" fill="rgb(235,184,43)" rx="2" ry="2" />
<text  x="44.58" y="175.5" ></text>
</g>
<g >
<title>[[kernel.kallsyms]] (13,818,181,680 samples, 43.07%)</title><rect x="167.5" y="117" width="508.3" height="15.0" fill="rgb(253,207,6)" rx="2" ry="2" />
<text  x="170.53" y="127.5" >[[kernel.kallsyms]]</text>
</g>
<g >
<title>[[kernel.kallsyms]] (10,101,010 samples, 0.03%)</title><rect x="35.6" y="37" width="0.4" height="15.0" fill="rgb(209,127,32)" rx="2" ry="2" />
<text  x="38.64" y="47.5" ></text>
</g>
<g >
<title>fetch_from_central_cache&lt;false&gt; (90,909,090 samples, 0.28%)</title><rect x="12.2" y="197" width="3.4" height="15.0" fill="rgb(209,147,17)" rx="2" ry="2" />
<text  x="15.23" y="207.5" ></text>
</g>
<g >
<title>__memset_avx2_erms (10,101,010 samples, 0.03%)</title><rect x="11.1" y="181" width="0.4" height="15.0" fill="rgb(217,196,37)" rx="2" ry="2" />
<text  x="14.11" y="191.5" ></text>
</g>
<g >
<title>[[kernel.kallsyms]] (20,202,020 samples, 0.06%)</title><rect x="41.6" y="101" width="0.7" height="15.0" fill="rgb(249,11,13)" rx="2" ry="2" />
<text  x="44.58" y="111.5" ></text>
</g>
<g >
<title>[[kernel.kallsyms]] (40,404,040 samples, 0.13%)</title><rect x="34.5" y="117" width="1.5" height="15.0" fill="rgb(247,94,4)" rx="2" ry="2" />
<text  x="37.52" y="127.5" ></text>
</g>
<g >
<title>[[kernel.kallsyms]] (10,101,010 samples, 0.03%)</title><rect x="164.9" y="133" width="0.4" height="15.0" fill="rgb(207,78,15)" rx="2" ry="2" />
<text  x="167.93" y="143.5" ></text>
</g>
<g >
<title>__memset_avx2_unaligned_erms (151,515,150 samples, 0.47%)</title><rect x="36.0" y="213" width="5.6" height="15.0" fill="rgb(230,38,1)" rx="2" ry="2" />
<text  x="39.01" y="223.5" ></text>
</g>
<g >
<title>[[kernel.kallsyms]] (13,818,181,680 samples, 43.07%)</title><rect x="167.5" y="133" width="508.3" height="15.0" fill="rgb(207,189,7)" rx="2" ry="2" />
<text  x="170.53" y="143.5" >[[kernel.kallsyms]]</text>
</g>
<g >
<title>ltfree (30,303,030 samples, 0.09%)</title><rect x="15.6" y="197" width="1.1" height="15.0" fill="rgb(244,82,24)" rx="2" ry="2" />
<text  x="18.57" y="207.5" ></text>
</g>
<g >
<title>bench.sh (10,101,010 samples, 0.03%)</title><rect x="10.0" y="229" width="0.4" height="15.0" fill="rgb(244,16,28)" rx="2" ry="2" />
<text  x="13.00" y="239.5" ></text>
</g>
<g >
<title>[[kernel.kallsyms]] (40,404,040 samples, 0.13%)</title><rect x="34.5" y="85" width="1.5" height="15.0" fill="rgb(207,2,45)" rx="2" ry="2" />
<text  x="37.52" y="95.5" ></text>
</g>
<g >
<title>[unknown] (13,979,797,840 samples, 43.58%)</title><rect x="675.8" y="181" width="514.2" height="15.0" fill="rgb(238,215,27)" rx="2" ry="2" />
<text  x="678.79" y="191.5" >[unknown]</text>
</g>
<g >
<title>benchmark_worker (373,737,370 samples, 1.16%)</title><rect x="42.3" y="213" width="13.8" height="15.0" fill="rgb(231,169,42)" rx="2" ry="2" />
<text  x="45.32" y="223.5" ></text>
</g>
<g >
<title>[unknown] (131,313,130 samples, 0.41%)</title><rect x="11.9" y="213" width="4.8" height="15.0" fill="rgb(245,112,2)" rx="2" ry="2" />
<text  x="14.86" y="223.5" ></text>
</g>
<g >
<title>[[kernel.kallsyms]] (40,404,040 samples, 0.13%)</title><rect x="34.5" y="101" width="1.5" height="15.0" fill="rgb(246,180,38)" rx="2" ry="2" />
<text  x="37.52" y="111.5" ></text>
</g>
<g >
<title>malloc (10,101,010 samples, 0.03%)</title><rect x="10.0" y="213" width="0.4" height="15.0" fill="rgb(208,89,34)" rx="2" ry="2" />
<text  x="13.00" y="223.5" ></text>
</g>
<g >
<title>[[kernel.kallsyms]] (10,101,010 samples, 0.03%)</title><rect x="10.0" y="181" width="0.4" height="15.0" fill="rgb(250,7,8)" rx="2" ry="2" />
<text  x="13.00" y="191.5" ></text>
</g>
<g >
<title>[[kernel.kallsyms]] (10,101,010 samples, 0.03%)</title><rect x="42.0" y="69" width="0.3" height="15.0" fill="rgb(227,66,29)" rx="2" ry="2" />
<text  x="44.95" y="79.5" ></text>
</g>
<g >
<title>thread_fence (10,101,010 samples, 0.03%)</title><rect x="165.3" y="213" width="0.4" height="15.0" fill="rgb(231,56,43)" rx="2" ry="2" />
<text  x="168.30" y="223.5" ></text>
</g>
<g >
<title>[[kernel.kallsyms]] (292,929,290 samples, 0.91%)</title><rect x="67.6" y="85" width="10.8" height="15.0" fill="rgb(247,7,31)" rx="2" ry="2" />
<text  x="70.59" y="95.5" ></text>
</g>
<g >
<title>[[kernel.kallsyms]] (30,303,030 samples, 0.09%)</title><rect x="104.7" y="197" width="1.2" height="15.0" fill="rgb(214,6,12)" rx="2" ry="2" />
<text  x="107.74" y="207.5" ></text>
</g>
<g >
<title>[[kernel.kallsyms]] (10,101,010 samples, 0.03%)</title><rect x="165.7" y="69" width="0.3" height="15.0" fill="rgb(244,160,50)" rx="2" ry="2" />
<text  x="168.67" y="79.5" ></text>
</g>
<g >
<title>[[kernel.kallsyms]] (13,858,585,720 samples, 43.20%)</title><rect x="166.0" y="181" width="509.8" height="15.0" fill="rgb(216,172,47)" rx="2" ry="2" />
<text  x="169.05" y="191.5" >[[kernel.kallsyms]]</text>
</g>
<g >
<title>[[kernel.kallsyms]] (50,505,050 samples, 0.16%)</title><rect x="34.1" y="181" width="1.9" height="15.0" fill="rgb(226,142,10)" rx="2" ry="2" />
<text  x="37.15" y="191.5" ></text>
</g>
<g >
<title>[[kernel.kallsyms]] (10,101,010 samples, 0.03%)</title><rect x="165.7" y="117" width="0.3" height="15.0" fill="rgb(228,99,23)" rx="2" ry="2" />
<text  x="168.67" y="127.5" ></text>
</g>
<g >
<title>fetch_from_central_cache&lt;false&gt; (747,474,740 samples, 2.33%)</title><rect x="78.4" y="213" width="27.5" height="15.0" fill="rgb(228,147,24)" rx="2" ry="2" />
<text  x="81.36" y="223.5" >f..</text>
</g>
<g >
<title>[[kernel.kallsyms]] (20,202,020 samples, 0.06%)</title><rect x="105.1" y="117" width="0.8" height="15.0" fill="rgb(248,197,1)" rx="2" ry="2" />
<text  x="108.11" y="127.5" ></text>
</g>
<g >
<title>[[kernel.kallsyms]] (20,202,020 samples, 0.06%)</title><rect x="105.1" y="149" width="0.8" height="15.0" fill="rgb(232,210,7)" rx="2" ry="2" />
<text  x="108.11" y="159.5" ></text>
</g>
<g >
<title>[[kernel.kallsyms]] (13,979,797,840 samples, 43.58%)</title><rect x="675.8" y="101" width="514.2" height="15.0" fill="rgb(249,128,49)" rx="2" ry="2" />
<text  x="678.79" y="111.5" >[[kernel.kallsyms]]</text>
</g>
<g >
<title>[[kernel.kallsyms]] (10,101,010 samples, 0.03%)</title><rect x="165.7" y="165" width="0.3" height="15.0" fill="rgb(205,221,46)" rx="2" ry="2" />
<text  x="168.67" y="175.5" ></text>
</g>
<g >
<title>swapper (27,838,383,560 samples, 86.78%)</title><rect x="166.0" y="229" width="1024.0" height="15.0" fill="rgb(207,121,40)" rx="2" ry="2" />
<text  x="169.05" y="239.5" >swapper</text>
</g>
<g >
<title>[[kernel.kallsyms]] (10,101,010 samples, 0.03%)</title><rect x="10.4" y="213" width="0.3" height="15.0" fill="rgb(217,78,4)" rx="2" ry="2" />
<text  x="13.37" y="223.5" ></text>
</g>
<g >
<title>[[kernel.kallsyms]] (20,202,020 samples, 0.06%)</title><rect x="35.3" y="69" width="0.7" height="15.0" fill="rgb(242,196,10)" rx="2" ry="2" />
<text  x="38.26" y="79.5" ></text>
</g>
<g >
<title>__memset_avx2_erms (515,151,510 samples, 1.61%)</title><rect x="17.1" y="213" width="18.9" height="15.0" fill="rgb(216,16,42)" rx="2" ry="2" />
<text  x="20.06" y="223.5" ></text>
</g>
<g >
<title>[[kernel.kallsyms]] (343,434,340 samples, 1.07%)</title><rect x="65.7" y="117" width="12.7" height="15.0" fill="rgb(210,125,16)" rx="2" ry="2" />
<text  x="68.73" y="127.5" ></text>
</g>
<g >
<title>[[kernel.kallsyms]] (13,858,585,720 samples, 43.20%)</title><rect x="166.0" y="197" width="509.8" height="15.0" fill="rgb(207,175,34)" rx="2" ry="2" />
<text  x="169.05" y="207.5" >[[kernel.kallsyms]]</text>
</g>
<g >
<title>[[kernel.kallsyms]] (10,101,010 samples, 0.03%)</title><rect x="165.7" y="85" width="0.3" height="15.0" fill="rgb(221,48,29)" rx="2" ry="2" />
<text  x="168.67" y="95.5" ></text>
</g>
<g >
<title>__strcmp_avx2 (10,101,010 samples, 0.03%)</title><rect x="10.7" y="213" width="0.4" height="15.0" fill="rgb(218,194,38)" rx="2" ry="2" />
<text  x="13.74" y="223.5" ></text>
</g>
<g >
<title>dirname (10,101,010 samples, 0.03%)</title><rect x="10.7" y="229" width="0.4" height="15.0" fill="rgb(241,17,19)" rx="2" ry="2" />
<text  x="13.74" y="239.5" ></text>
</g>
<g >
<title>[[kernel.kallsyms]] (10,101,010 samples, 0.03%)</title><rect x="10.4" y="69" width="0.3" height="15.0" fill="rgb(215,48,39)" rx="2" ry="2" />
<text  x="13.37" y="79.5" ></text>
</g>
<g >
<title>[[kernel.kallsyms]] (434,343,430 samples, 1.35%)</title><rect x="62.4" y="197" width="16.0" height="15.0" fill="rgb(245,47,19)" rx="2" ry="2" />
<text  x="65.39" y="207.5" ></text>
</g>
<g >
<title>move_to_central_cache (1,444,444,430 samples, 4.50%)</title><rect x="112.2" y="213" width="53.1" height="15.0" fill="rgb(228,61,14)" rx="2" ry="2" />
<text  x="115.17" y="223.5" >move_..</text>
</g>
<g >
<title>all (32,080,807,760 samples, 100%)</title><rect x="10.0" y="245" width="1180.0" height="15.0" fill="rgb(243,109,11)" rx="2" ry="2" />
<text  x="13.00" y="255.5" ></text>
</g>
<g >
<title>ltfree (10,101,010 samples, 0.03%)</title><rect x="105.9" y="213" width="0.3" height="15.0" fill="rgb(231,185,51)" rx="2" ry="2" />
<text  x="108.86" y="223.5" ></text>
</g>
<g >
<title>[[kernel.kallsyms]] (10,101,010 samples, 0.03%)</title><rect x="15.2" y="117" width="0.4" height="15.0" fill="rgb(243,46,6)" rx="2" ry="2" />
<text  x="18.20" y="127.5" ></text>
</g>
<g >
<title>[[kernel.kallsyms]] (10,101,010 samples, 0.03%)</title><rect x="164.9" y="181" width="0.4" height="15.0" fill="rgb(238,183,26)" rx="2" ry="2" />
<text  x="167.93" y="191.5" ></text>
</g>
<g >
<title>[[kernel.kallsyms]] (434,343,430 samples, 1.35%)</title><rect x="62.4" y="181" width="16.0" height="15.0" fill="rgb(240,219,5)" rx="2" ry="2" />
<text  x="65.39" y="191.5" ></text>
</g>
<g >
<title>[[kernel.kallsyms]] (10,101,010 samples, 0.03%)</title><rect x="10.4" y="197" width="0.3" height="15.0" fill="rgb(253,202,48)" rx="2" ry="2" />
<text  x="13.37" y="207.5" ></text>
</g>
<g >
<title>[libltalloc.so] (10,101,010 samples, 0.03%)</title><rect x="11.5" y="213" width="0.4" height="15.0" fill="rgb(245,197,15)" rx="2" ry="2" />
<text  x="14.49" y="223.5" ></text>
</g>
<g >
<title>[unknown] (13,979,797,840 samples, 43.58%)</title><rect x="675.8" y="197" width="514.2" height="15.0" fill="rgb(211,195,29)" rx="2" ry="2" />
<text  x="678.79" y="207.5" >[unknown]</text>
</g>
<g >
<title>__mmap (20,202,020 samples, 0.06%)</title><rect x="41.6" y="213" width="0.7" height="15.0" fill="rgb(243,132,42)" rx="2" ry="2" />
<text  x="44.58" y="223.5" ></text>
</g>
<g >
<title>[[kernel.kallsyms]] (434,343,430 samples, 1.35%)</title><rect x="62.4" y="165" width="16.0" height="15.0" fill="rgb(248,81,11)" rx="2" ry="2" />
<text  x="65.39" y="175.5" ></text>
</g>
<g >
<title>[[kernel.kallsyms]] (13,939,393,800 samples, 43.45%)</title><rect x="677.3" y="53" width="512.7" height="15.0" fill="rgb(222,31,45)" rx="2" ry="2" />
<text  x="680.28" y="63.5" >[[kernel.kallsyms]]</text>
</g>
<g >
<title>[[kernel.kallsyms]] (20,202,020 samples, 0.06%)</title><rect x="41.6" y="117" width="0.7" height="15.0" fill="rgb(213,115,15)" rx="2" ry="2" />
<text  x="44.58" y="127.5" ></text>
</g>
<g >
<title>[[kernel.kallsyms]] (292,929,290 samples, 0.91%)</title><rect x="67.6" y="69" width="10.8" height="15.0" fill="rgb(225,50,50)" rx="2" ry="2" />
<text  x="70.59" y="79.5" ></text>
</g>
<g >
<title>[[kernel.kallsyms]] (10,101,010 samples, 0.03%)</title><rect x="10.0" y="149" width="0.4" height="15.0" fill="rgb(245,223,30)" rx="2" ry="2" />
<text  x="13.00" y="159.5" ></text>
</g>
<g >
<title>ltmalloc (161,616,160 samples, 0.50%)</title><rect x="106.2" y="213" width="6.0" height="15.0" fill="rgb(250,87,4)" rx="2" ry="2" />
<text  x="109.23" y="223.5" ></text>
</g>
<g >
<title>[[kernel.kallsyms]] (10,101,010 samples, 0.03%)</title><rect x="10.7" y="197" width="0.4" height="15.0" fill="rgb(205,37,36)" rx="2" ry="2" />
<text  x="13.74" y="207.5" ></text>
</g>
<g >
<title>[[kernel.kallsyms]] (40,404,040 samples, 0.13%)</title><rect x="34.5" y="133" width="1.5" height="15.0" fill="rgb(238,81,17)" rx="2" ry="2" />
<text  x="37.52" y="143.5" ></text>
</g>
<g >
<title>[[kernel.kallsyms]] (10,101,010 samples, 0.03%)</title><rect x="10.4" y="101" width="0.3" height="15.0" fill="rgb(218,45,10)" rx="2" ry="2" />
<text  x="13.37" y="111.5" ></text>
</g>
<g >
<title>[[kernel.kallsyms]] (10,101,010 samples, 0.03%)</title><rect x="105.5" y="85" width="0.4" height="15.0" fill="rgb(249,59,13)" rx="2" ry="2" />
<text  x="108.48" y="95.5" ></text>
</g>
<g >
<title>[[kernel.kallsyms]] (10,101,010 samples, 0.03%)</title><rect x="10.4" y="117" width="0.3" height="15.0" fill="rgb(218,89,30)" rx="2" ry="2" />
<text  x="13.37" y="127.5" ></text>
</g>
<g >
<title>[[kernel.kallsyms]] (10,101,010 samples, 0.03%)</title><rect x="105.5" y="69" width="0.4" height="15.0" fill="rgb(241,175,34)" rx="2" ry="2" />
<text  x="108.48" y="79.5" ></text>
</g>
<g >
<title>[[kernel.kallsyms]] (20,202,020 samples, 0.06%)</title><rect x="41.6" y="149" width="0.7" height="15.0" fill="rgb(239,26,22)" rx="2" ry="2" />
<text  x="44.58" y="159.5" ></text>
</g>
<g >
<title>[[kernel.kallsyms]] (10,101,010 samples, 0.03%)</title><rect x="10.4" y="53" width="0.3" height="15.0" fill="rgb(235,51,33)" rx="2" ry="2" />
<text  x="13.37" y="63.5" ></text>
</g>
<g >
<title>redis-server (10,101,010 samples, 0.03%)</title><rect x="11.1" y="229" width="0.4" height="15.0" fill="rgb(246,95,39)" rx="2" ry="2" />
<text  x="14.11" y="239.5" ></text>
</g>
<g >
<title>[[kernel.kallsyms]] (10,101,010 samples, 0.03%)</title><rect x="10.4" y="149" width="0.3" height="15.0" fill="rgb(215,107,50)" rx="2" ry="2" />
<text  x="13.37" y="159.5" ></text>
</g>
<g >
<title>[[kernel.kallsyms]] (373,737,370 samples, 1.16%)</title><rect x="64.6" y="149" width="13.8" height="15.0" fill="rgb(207,83,21)" rx="2" ry="2" />
<text  x="67.62" y="159.5" ></text>
</g>
<g >
<title>[libjemalloc.so.2] (10,101,010 samples, 0.03%)</title><rect x="11.1" y="197" width="0.4" height="15.0" fill="rgb(225,140,37)" rx="2" ry="2" />
<text  x="14.11" y="207.5" ></text>
</g>
<g >
<title>[[kernel.kallsyms]] (10,101,010 samples, 0.03%)</title><rect x="164.9" y="197" width="0.4" height="15.0" fill="rgb(236,118,28)" rx="2" ry="2" />
<text  x="167.93" y="207.5" ></text>
</g>
<g >
<title>[[kernel.kallsyms]] (10,101,010 samples, 0.03%)</title><rect x="10.7" y="165" width="0.4" height="15.0" fill="rgb(208,186,32)" rx="2" ry="2" />
<text  x="13.74" y="175.5" ></text>
</g>
<g >
<title>[unknown] (13,979,797,840 samples, 43.58%)</title><rect x="675.8" y="165" width="514.2" height="15.0" fill="rgb(243,96,45)" rx="2" ry="2" />
<text  x="678.79" y="175.5" >[unknown]</text>
</g>
<g >
<title>[[kernel.kallsyms]] (10,101,010 samples, 0.03%)</title><rect x="10.0" y="165" width="0.4" height="15.0" fill="rgb(254,11,12)" rx="2" ry="2" />
<text  x="13.00" y="175.5" ></text>
</g>
<g >
<title>[[kernel.kallsyms]] (13,939,393,800 samples, 43.45%)</title><rect x="677.3" y="69" width="512.7" height="15.0" fill="rgb(223,69,39)" rx="2" ry="2" />
<text  x="680.28" y="79.5" >[[kernel.kallsyms]]</text>
</g>
<g >
<title>[[kernel.kallsyms]] (10,101,010 samples, 0.03%)</title><rect x="15.2" y="165" width="0.4" height="15.0" fill="rgb(243,7,11)" rx="2" ry="2" />
<text  x="18.20" y="175.5" ></text>
</g>
<g >
<title>[[kernel.kallsyms]] (10,101,010 samples, 0.03%)</title><rect x="15.2" y="149" width="0.4" height="15.0" fill="rgb(208,170,53)" rx="2" ry="2" />
<text  x="18.20" y="159.5" ></text>
</g>
<g >
<title>[[kernel.kallsyms]] (10,101,010 samples, 0.03%)</title><rect x="10.4" y="181" width="0.3" height="15.0" fill="rgb(222,91,46)" rx="2" ry="2" />
<text  x="13.37" y="191.5" ></text>
</g>
<g >
<title>cat (10,101,010 samples, 0.03%)</title><rect x="10.4" y="229" width="0.3" height="15.0" fill="rgb(251,217,30)" rx="2" ry="2" />
<text  x="13.37" y="239.5" ></text>
</g>
<g >
<title>[[kernel.kallsyms]] (10,101,010 samples, 0.03%)</title><rect x="10.4" y="133" width="0.3" height="15.0" fill="rgb(252,24,46)" rx="2" ry="2" />
<text  x="13.37" y="143.5" ></text>
</g>
<g >
<title>[[kernel.kallsyms]] (20,202,020 samples, 0.06%)</title><rect x="41.6" y="85" width="0.7" height="15.0" fill="rgb(218,198,3)" rx="2" ry="2" />
<text  x="44.58" y="95.5" ></text>
</g>
<g >
<title>[[kernel.kallsyms]] (50,505,050 samples, 0.16%)</title><rect x="34.1" y="197" width="1.9" height="15.0" fill="rgb(208,145,20)" rx="2" ry="2" />
<text  x="37.15" y="207.5" ></text>
</g>
<g >
<title>[[kernel.kallsyms]] (27,838,383,560 samples, 86.78%)</title><rect x="166.0" y="213" width="1024.0" height="15.0" fill="rgb(251,164,18)" rx="2" ry="2" />
<text  x="169.05" y="223.5" >[[kernel.kallsyms]]</text>
</g>
<g >
<title>[unknown] (13,979,797,840 samples, 43.58%)</title><rect x="675.8" y="149" width="514.2" height="15.0" fill="rgb(219,100,11)" rx="2" ry="2" />
<text  x="678.79" y="159.5" >[unknown]</text>
</g>
</g>
</svg>
