<?xml version="1.0" standalone="no"?>
<!DOCTYPE svg PUBLIC "-//W3C//DTD SVG 1.1//EN" "http://www.w3.org/Graphics/SVG/1.1/DTD/svg11.dtd">
<svg version="1.1" width="1200" height="406" onload="init(evt)" viewBox="0 0 1200 406" xmlns="http://www.w3.org/2000/svg" xmlns:xlink="http://www.w3.org/1999/xlink">
<!-- Flame graph stack visualization. See https://github.com/brendangregg/FlameGraph for latest version, and http://www.brendangregg.com/flamegraphs.html for examples. -->
<!-- NOTES:  -->
<defs>
	<linearGradient id="background" y1="0" y2="1" x1="0" x2="0" >
		<stop stop-color="#eeeeee" offset="5%" />
		<stop stop-color="#eeeeb0" offset="95%" />
	</linearGradient>
</defs>
<style type="text/css">
	text { font-family:Verdana; font-size:12px; fill:rgb(0,0,0); }
	#search, #ignorecase { opacity:0.1; cursor:pointer; }
	#search:hover, #search.show, #ignorecase:hover, #ignorecase.show { opacity:1; }
	#subtitle { text-anchor:middle; font-color:rgb(160,160,160); }
	#title { text-anchor:middle; font-size:17px}
	#unzoom { cursor:pointer; }
	#frames > *:hover { stroke:black; stroke-width:0.5; cursor:pointer; }
	.hide { display:none; }
	.parent { opacity:0.5; }
</style>
<script type="text/ecmascript">
<![CDATA[
	"use strict";
	var details, searchbtn, unzoombtn, matchedtxt, svg, searching, currentSearchTerm, ignorecase, ignorecaseBtn;
	function init(evt) {
		details = document.getElementById("details").firstChild;
		searchbtn = document.getElementById("search");
		ignorecaseBtn = document.getElementById("ignorecase");
		unzoombtn = document.getElementById("unzoom");
		matchedtxt = document.getElementById("matched");
		svg = document.getElementsByTagName("svg")[0];
		searching = 0;
		currentSearchTerm = null;

		// use GET parameters to restore a flamegraphs state.
		var params = get_params();
		if (params.x && params.y)
			zoom(find_group(document.querySelector('[x="' + params.x + '"][y="' + params.y + '"]')));
                if (params.s) search(params.s);
	}

	// event listeners
	window.addEventListener("click", function(e) {
		var target = find_group(e.target);
		if (target) {
			if (target.nodeName == "a") {
				if (e.ctrlKey === false) return;
				e.preventDefault();
			}
			if (target.classList.contains("parent")) unzoom(true);
			zoom(target);
			if (!document.querySelector('.parent')) {
				// we have basically done a clearzoom so clear the url
				var params = get_params();
				if (params.x) delete params.x;
				if (params.y) delete params.y;
				history.replaceState(null, null, parse_params(params));
				unzoombtn.classList.add("hide");
				return;
			}

			// set parameters for zoom state
			var el = target.querySelector("rect");
			if (el && el.attributes && el.attributes.y && el.attributes._orig_x) {
				var params = get_params()
				params.x = el.attributes._orig_x.value;
				params.y = el.attributes.y.value;
				history.replaceState(null, null, parse_params(params));
			}
		}
		else if (e.target.id == "unzoom") clearzoom();
		else if (e.target.id == "search") search_prompt();
		else if (e.target.id == "ignorecase") toggle_ignorecase();
	}, false)

	// mouse-over for info
	// show
	window.addEventListener("mouseover", function(e) {
		var target = find_group(e.target);
		if (target) details.nodeValue = "Function: " + g_to_text(target);
	}, false)

	// clear
	window.addEventListener("mouseout", function(e) {
		var target = find_group(e.target);
		if (target) details.nodeValue = ' ';
	}, false)

	// ctrl-F for search
	// ctrl-I to toggle case-sensitive search
	window.addEventListener("keydown",function (e) {
		if (e.keyCode === 114 || (e.ctrlKey && e.keyCode === 70)) {
			e.preventDefault();
			search_prompt();
		}
		else if (e.ctrlKey && e.keyCode === 73) {
			e.preventDefault();
			toggle_ignorecase();
		}
	}, false)

	// functions
	function get_params() {
		var params = {};
		var paramsarr = window.location.search.substr(1).split('&');
		for (var i = 0; i < paramsarr.length; ++i) {
			var tmp = paramsarr[i].split("=");
			if (!tmp[0] || !tmp[1]) continue;
			params[tmp[0]]  = decodeURIComponent(tmp[1]);
		}
		return params;
	}
	function parse_params(params) {
		var uri = "?";
		for (var key in params) {
			uri += key + '=' + encodeURIComponent(params[key]) + '&';
		}
		if (uri.slice(-1) == "&")
			uri = uri.substring(0, uri.length - 1);
		if (uri == '?')
			uri = window.location.href.split('?')[0];
		return uri;
	}
	function find_child(node, selector) {
		var children = node.querySelectorAll(selector);
		if (children.length) return children[0];
	}
	function find_group(node) {
		var parent = node.parentElement;
		if (!parent) return;
		if (parent.id == "frames") return node;
		return find_group(parent);
	}
	function orig_save(e, attr, val) {
		if (e.attributes["_orig_" + attr] != undefined) return;
		if (e.attributes[attr] == undefined) return;
		if (val == undefined) val = e.attributes[attr].value;
		e.setAttribute("_orig_" + attr, val);
	}
	function orig_load(e, attr) {
		if (e.attributes["_orig_"+attr] == undefined) return;
		e.attributes[attr].value = e.attributes["_orig_" + attr].value;
		e.removeAttribute("_orig_"+attr);
	}
	function g_to_text(e) {
		var text = find_child(e, "title").firstChild.nodeValue;
		return (text)
	}
	function g_to_func(e) {
		var func = g_to_text(e);
		// if there's any manipulation we want to do to the function
		// name before it's searched, do it here before returning.
		return (func);
	}
	function update_text(e) {
		var r = find_child(e, "rect");
		var t = find_child(e, "text");
		var w = parseFloat(r.attributes.width.value) -3;
		var txt = find_child(e, "title").textContent.replace(/\([^(]*\)$/,"");
		t.attributes.x.value = parseFloat(r.attributes.x.value) + 3;

		// Smaller than this size won't fit anything
		if (w < 2 * 12 * 0.59) {
			t.textContent = "";
			return;
		}

		t.textContent = txt;
		var sl = t.getSubStringLength(0, txt.length);
		// check if only whitespace or if we can fit the entire string into width w
		if (/^ *$/.test(txt) || sl < w)
			return;

		// this isn't perfect, but gives a good starting point
		// and avoids calling getSubStringLength too often
		var start = Math.floor((w/sl) * txt.length);
		for (var x = start; x > 0; x = x-2) {
			if (t.getSubStringLength(0, x + 2) <= w) {
				t.textContent = txt.substring(0, x) + "..";
				return;
			}
		}
		t.textContent = "";
	}

	// zoom
	function zoom_reset(e) {
		if (e.attributes != undefined) {
			orig_load(e, "x");
			orig_load(e, "width");
		}
		if (e.childNodes == undefined) return;
		for (var i = 0, c = e.childNodes; i < c.length; i++) {
			zoom_reset(c[i]);
		}
	}
	function zoom_child(e, x, ratio) {
		if (e.attributes != undefined) {
			if (e.attributes.x != undefined) {
				orig_save(e, "x");
				e.attributes.x.value = (parseFloat(e.attributes.x.value) - x - 10) * ratio + 10;
				if (e.tagName == "text")
					e.attributes.x.value = find_child(e.parentNode, "rect[x]").attributes.x.value + 3;
			}
			if (e.attributes.width != undefined) {
				orig_save(e, "width");
				e.attributes.width.value = parseFloat(e.attributes.width.value) * ratio;
			}
		}

		if (e.childNodes == undefined) return;
		for (var i = 0, c = e.childNodes; i < c.length; i++) {
			zoom_child(c[i], x - 10, ratio);
		}
	}
	function zoom_parent(e) {
		if (e.attributes) {
			if (e.attributes.x != undefined) {
				orig_save(e, "x");
				e.attributes.x.value = 10;
			}
			if (e.attributes.width != undefined) {
				orig_save(e, "width");
				e.attributes.width.value = parseInt(svg.width.baseVal.value) - (10 * 2);
			}
		}
		if (e.childNodes == undefined) return;
		for (var i = 0, c = e.childNodes; i < c.length; i++) {
			zoom_parent(c[i]);
		}
	}
	function zoom(node) {
		var attr = find_child(node, "rect").attributes;
		var width = parseFloat(attr.width.value);
		var xmin = parseFloat(attr.x.value);
		var xmax = parseFloat(xmin + width);
		var ymin = parseFloat(attr.y.value);
		var ratio = (svg.width.baseVal.value - 2 * 10) / width;

		// XXX: Workaround for JavaScript float issues (fix me)
		var fudge = 0.0001;

		unzoombtn.classList.remove("hide");

		var el = document.getElementById("frames").children;
		for (var i = 0; i < el.length; i++) {
			var e = el[i];
			var a = find_child(e, "rect").attributes;
			var ex = parseFloat(a.x.value);
			var ew = parseFloat(a.width.value);
			var upstack;
			// Is it an ancestor
			if (0 == 0) {
				upstack = parseFloat(a.y.value) > ymin;
			} else {
				upstack = parseFloat(a.y.value) < ymin;
			}
			if (upstack) {
				// Direct ancestor
				if (ex <= xmin && (ex+ew+fudge) >= xmax) {
					e.classList.add("parent");
					zoom_parent(e);
					update_text(e);
				}
				// not in current path
				else
					e.classList.add("hide");
			}
			// Children maybe
			else {
				// no common path
				if (ex < xmin || ex + fudge >= xmax) {
					e.classList.add("hide");
				}
				else {
					zoom_child(e, xmin, ratio);
					update_text(e);
				}
			}
		}
		search();
	}
	function unzoom(dont_update_text) {
		unzoombtn.classList.add("hide");
		var el = document.getElementById("frames").children;
		for(var i = 0; i < el.length; i++) {
			el[i].classList.remove("parent");
			el[i].classList.remove("hide");
			zoom_reset(el[i]);
			if(!dont_update_text) update_text(el[i]);
		}
		search();
	}
	function clearzoom() {
		unzoom();

		// remove zoom state
		var params = get_params();
		if (params.x) delete params.x;
		if (params.y) delete params.y;
		history.replaceState(null, null, parse_params(params));
	}

	// search
	function toggle_ignorecase() {
		ignorecase = !ignorecase;
		if (ignorecase) {
			ignorecaseBtn.classList.add("show");
		} else {
			ignorecaseBtn.classList.remove("show");
		}
		reset_search();
		search();
	}
	function reset_search() {
		var el = document.querySelectorAll("#frames rect");
		for (var i = 0; i < el.length; i++) {
			orig_load(el[i], "fill")
		}
		var params = get_params();
		delete params.s;
		history.replaceState(null, null, parse_params(params));
	}
	function search_prompt() {
		if (!searching) {
			var term = prompt("Enter a search term (regexp " +
			    "allowed, eg: ^ext4_)"
			    + (ignorecase ? ", ignoring case" : "")
			    + "\nPress Ctrl-i to toggle case sensitivity", "");
			if (term != null) search(term);
		} else {
			reset_search();
			searching = 0;
			currentSearchTerm = null;
			searchbtn.classList.remove("show");
			searchbtn.firstChild.nodeValue = "Search"
			matchedtxt.classList.add("hide");
			matchedtxt.firstChild.nodeValue = ""
		}
	}
	function search(term) {
		if (term) currentSearchTerm = term;

		var re = new RegExp(currentSearchTerm, ignorecase ? 'i' : '');
		var el = document.getElementById("frames").children;
		var matches = new Object();
		var maxwidth = 0;
		for (var i = 0; i < el.length; i++) {
			var e = el[i];
			var func = g_to_func(e);
			var rect = find_child(e, "rect");
			if (func == null || rect == null)
				continue;

			// Save max width. Only works as we have a root frame
			var w = parseFloat(rect.attributes.width.value);
			if (w > maxwidth)
				maxwidth = w;

			if (func.match(re)) {
				// highlight
				var x = parseFloat(rect.attributes.x.value);
				orig_save(rect, "fill");
				rect.attributes.fill.value = "rgb(230,0,230)";

				// remember matches
				if (matches[x] == undefined) {
					matches[x] = w;
				} else {
					if (w > matches[x]) {
						// overwrite with parent
						matches[x] = w;
					}
				}
				searching = 1;
			}
		}
		if (!searching)
			return;
		var params = get_params();
		params.s = currentSearchTerm;
		history.replaceState(null, null, parse_params(params));

		searchbtn.classList.add("show");
		searchbtn.firstChild.nodeValue = "Reset Search";

		// calculate percent matched, excluding vertical overlap
		var count = 0;
		var lastx = -1;
		var lastw = 0;
		var keys = Array();
		for (k in matches) {
			if (matches.hasOwnProperty(k))
				keys.push(k);
		}
		// sort the matched frames by their x location
		// ascending, then width descending
		keys.sort(function(a, b){
			return a - b;
		});
		// Step through frames saving only the biggest bottom-up frames
		// thanks to the sort order. This relies on the tree property
		// where children are always smaller than their parents.
		var fudge = 0.0001;	// JavaScript floating point
		for (var k in keys) {
			var x = parseFloat(keys[k]);
			var w = matches[keys[k]];
			if (x >= lastx + lastw - fudge) {
				count += w;
				lastx = x;
				lastw = w;
			}
		}
		// display matched percent
		matchedtxt.classList.remove("hide");
		var pct = 100 * count / maxwidth;
		if (pct != 100) pct = pct.toFixed(1)
		matchedtxt.firstChild.nodeValue = "Matched: " + pct + "%";
	}
]]>
</script>
<rect x="0.0" y="0" width="1200.0" height="406.0" fill="url(#background)"  />
<text id="title" x="600.00" y="24" >Flame Graph</text>
<text id="details" x="10.00" y="389" > </text>
<text id="unzoom" x="10.00" y="24" class="hide">Reset Zoom</text>
<text id="search" x="1090.00" y="24" >Search</text>
<text id="ignorecase" x="1174.00" y="24" >ic</text>
<text id="matched" x="1090.00" y="389" > </text>
<g id="frames">
<g >
<title>tee (10,101,010 samples, 0.03%)</title><rect x="1189.6" y="341" width="0.4" height="15.0" fill="rgb(205,164,51)" rx="2" ry="2" />
<text  x="1192.63" y="351.5" ></text>
</g>
<g >
<title>[[kernel.kallsyms]] (40,404,040 samples, 0.13%)</title><rect x="103.6" y="245" width="1.5" height="15.0" fill="rgb(251,149,5)" rx="2" ry="2" />
<text  x="106.57" y="255.5" ></text>
</g>
<g >
<title>[[kernel.kallsyms]] (29,414,141,120 samples, 91.63%)</title><rect x="108.4" y="325" width="1081.2" height="15.0" fill="rgb(214,49,16)" rx="2" ry="2" />
<text  x="111.40" y="335.5" >[[kernel.kallsyms]]</text>
</g>
<g >
<title>unlink_chunk.isra.0 (60,606,060 samples, 0.19%)</title><rect x="49.0" y="309" width="2.2" height="15.0" fill="rgb(241,166,9)" rx="2" ry="2" />
<text  x="51.99" y="319.5" ></text>
</g>
<g >
<title>drm_atomic_helper_commit_tail (10,101,010 samples, 0.03%)</title><rect x="11.5" y="181" width="0.4" height="15.0" fill="rgb(243,215,33)" rx="2" ry="2" />
<text  x="14.49" y="191.5" ></text>
</g>
<g >
<title>[[kernel.kallsyms]] (20,202,020 samples, 0.06%)</title><rect x="24.5" y="261" width="0.7" height="15.0" fill="rgb(221,151,24)" rx="2" ry="2" />
<text  x="27.48" y="271.5" ></text>
</g>
<g >
<title>[[kernel.kallsyms]] (10,101,010 samples, 0.03%)</title><rect x="10.4" y="197" width="0.3" height="15.0" fill="rgb(211,180,26)" rx="2" ry="2" />
<text  x="13.37" y="207.5" ></text>
</g>
<g >
<title>[[kernel.kallsyms]] (10,101,010 samples, 0.03%)</title><rect x="10.0" y="277" width="0.4" height="15.0" fill="rgb(227,34,37)" rx="2" ry="2" />
<text  x="13.00" y="287.5" ></text>
</g>
<g >
<title>__lll_lock_wait_private (20,202,020 samples, 0.06%)</title><rect x="23.7" y="309" width="0.8" height="15.0" fill="rgb(216,4,45)" rx="2" ry="2" />
<text  x="26.74" y="319.5" ></text>
</g>
<g >
<title>[[kernel.kallsyms]] (20,202,020 samples, 0.06%)</title><rect x="23.0" y="245" width="0.7" height="15.0" fill="rgb(237,161,4)" rx="2" ry="2" />
<text  x="26.00" y="255.5" ></text>
</g>
<g >
<title>[[kernel.kallsyms]] (10,101,010 samples, 0.03%)</title><rect x="11.5" y="325" width="0.4" height="15.0" fill="rgb(224,72,26)" rx="2" ry="2" />
<text  x="14.49" y="335.5" ></text>
</g>
<g >
<title>[[kernel.kallsyms]] (50,505,050 samples, 0.16%)</title><rect x="34.9" y="261" width="1.8" height="15.0" fill="rgb(237,222,38)" rx="2" ry="2" />
<text  x="37.88" y="271.5" ></text>
</g>
<g >
<title>[[kernel.kallsyms]] (10,101,010 samples, 0.03%)</title><rect x="36.4" y="213" width="0.3" height="15.0" fill="rgb(241,98,47)" rx="2" ry="2" />
<text  x="39.36" y="223.5" ></text>
</g>
<g >
<title>[[kernel.kallsyms]] (20,202,020 samples, 0.06%)</title><rect x="23.0" y="293" width="0.7" height="15.0" fill="rgb(241,220,17)" rx="2" ry="2" />
<text  x="26.00" y="303.5" ></text>
</g>
<g >
<title>[[kernel.kallsyms]] (242,424,240 samples, 0.76%)</title><rect x="85.4" y="197" width="8.9" height="15.0" fill="rgb(225,78,38)" rx="2" ry="2" />
<text  x="88.37" y="207.5" ></text>
</g>
<g >
<title>[[kernel.kallsyms]] (10,101,010 samples, 0.03%)</title><rect x="11.5" y="101" width="0.4" height="15.0" fill="rgb(252,209,0)" rx="2" ry="2" />
<text  x="14.49" y="111.5" ></text>
</g>
<g >
<title>[[kernel.kallsyms]] (20,202,020 samples, 0.06%)</title><rect x="67.2" y="261" width="0.7" height="15.0" fill="rgb(236,214,39)" rx="2" ry="2" />
<text  x="70.18" y="271.5" ></text>
</g>
<g >
<title>[[kernel.kallsyms]] (20,202,020 samples, 0.06%)</title><rect x="23.0" y="261" width="0.7" height="15.0" fill="rgb(221,183,10)" rx="2" ry="2" />
<text  x="26.00" y="271.5" ></text>
</g>
<g >
<title>[[kernel.kallsyms]] (70,707,070 samples, 0.22%)</title><rect x="102.5" y="293" width="2.6" height="15.0" fill="rgb(249,62,10)" rx="2" ry="2" />
<text  x="105.45" y="303.5" ></text>
</g>
<g >
<title>[[kernel.kallsyms]] (14,707,070,560 samples, 45.81%)</title><rect x="649.0" y="165" width="540.6" height="15.0" fill="rgb(246,97,7)" rx="2" ry="2" />
<text  x="652.01" y="175.5" >[[kernel.kallsyms]]</text>
</g>
<g >
<title>malloc_consolidate (10,101,010 samples, 0.03%)</title><rect x="101.0" y="325" width="0.3" height="15.0" fill="rgb(214,60,34)" rx="2" ry="2" />
<text  x="103.97" y="335.5" ></text>
</g>
<g >
<title>[[kernel.kallsyms]] (10,101,010 samples, 0.03%)</title><rect x="11.9" y="293" width="0.3" height="15.0" fill="rgb(254,128,29)" rx="2" ry="2" />
<text  x="14.86" y="303.5" ></text>
</g>
<g >
<title>[[kernel.kallsyms]] (10,101,010 samples, 0.03%)</title><rect x="11.9" y="309" width="0.3" height="15.0" fill="rgb(225,224,27)" rx="2" ry="2" />
<text  x="14.86" y="319.5" ></text>
</g>
<g >
<title>[[kernel.kallsyms]] (20,202,020 samples, 0.06%)</title><rect x="24.5" y="229" width="0.7" height="15.0" fill="rgb(251,4,1)" rx="2" ry="2" />
<text  x="27.48" y="239.5" ></text>
</g>
<g >
<title>[[kernel.kallsyms]] (10,101,010 samples, 0.03%)</title><rect x="10.4" y="261" width="0.3" height="15.0" fill="rgb(232,119,9)" rx="2" ry="2" />
<text  x="13.37" y="271.5" ></text>
</g>
<g >
<title>drm_atomic_helper_commit (10,101,010 samples, 0.03%)</title><rect x="11.5" y="213" width="0.4" height="15.0" fill="rgb(225,144,18)" rx="2" ry="2" />
<text  x="14.49" y="223.5" ></text>
</g>
<g >
<title>redis-server (10,101,010 samples, 0.03%)</title><rect x="11.9" y="341" width="0.3" height="15.0" fill="rgb(233,145,9)" rx="2" ry="2" />
<text  x="14.86" y="351.5" ></text>
</g>
<g >
<title>[[kernel.kallsyms]] (20,202,020 samples, 0.06%)</title><rect x="24.5" y="277" width="0.7" height="15.0" fill="rgb(232,144,27)" rx="2" ry="2" />
<text  x="27.48" y="287.5" ></text>
</g>
<g >
<title>[[kernel.kallsyms]] (14,717,171,570 samples, 45.85%)</title><rect x="648.6" y="213" width="541.0" height="15.0" fill="rgb(207,123,29)" rx="2" ry="2" />
<text  x="651.64" y="223.5" >[[kernel.kallsyms]]</text>
</g>
<g >
<title>[[kernel.kallsyms]] (30,303,030 samples, 0.09%)</title><rect x="37.8" y="245" width="1.2" height="15.0" fill="rgb(208,50,33)" rx="2" ry="2" />
<text  x="40.85" y="255.5" ></text>
</g>
<g >
<title>drm_atomic_helper_dirtyfb (10,101,010 samples, 0.03%)</title><rect x="11.5" y="245" width="0.4" height="15.0" fill="rgb(213,30,30)" rx="2" ry="2" />
<text  x="14.49" y="255.5" ></text>
</g>
<g >
<title>[[kernel.kallsyms]] (10,101,010 samples, 0.03%)</title><rect x="36.4" y="181" width="0.3" height="15.0" fill="rgb(229,138,16)" rx="2" ry="2" />
<text  x="39.36" y="191.5" ></text>
</g>
<g >
<title>thread_sleep (10,101,010 samples, 0.03%)</title><rect x="105.4" y="325" width="0.4" height="15.0" fill="rgb(246,203,34)" rx="2" ry="2" />
<text  x="108.42" y="335.5" ></text>
</g>
<g >
<title>[[kernel.kallsyms]] (232,323,230 samples, 0.72%)</title><rect x="85.7" y="181" width="8.6" height="15.0" fill="rgb(223,54,44)" rx="2" ry="2" />
<text  x="88.75" y="191.5" ></text>
</g>
<g >
<title>__memset_avx2_erms (40,404,040 samples, 0.13%)</title><rect x="52.7" y="325" width="1.5" height="15.0" fill="rgb(251,180,33)" rx="2" ry="2" />
<text  x="55.70" y="335.5" ></text>
</g>
<g >
<title>drm_fb_helper_damage_work (10,101,010 samples, 0.03%)</title><rect x="11.1" y="261" width="0.4" height="15.0" fill="rgb(249,51,5)" rx="2" ry="2" />
<text  x="14.11" y="271.5" ></text>
</g>
<g >
<title>__libc_calloc (30,303,030 samples, 0.09%)</title><rect x="51.2" y="325" width="1.1" height="15.0" fill="rgb(219,165,23)" rx="2" ry="2" />
<text  x="54.21" y="335.5" ></text>
</g>
<g >
<title>[[kernel.kallsyms]] (10,101,010 samples, 0.03%)</title><rect x="11.5" y="85" width="0.4" height="15.0" fill="rgb(248,220,37)" rx="2" ry="2" />
<text  x="14.49" y="95.5" ></text>
</g>
<g >
<title>[[kernel.kallsyms]] (70,707,070 samples, 0.22%)</title><rect x="102.5" y="309" width="2.6" height="15.0" fill="rgb(212,96,7)" rx="2" ry="2" />
<text  x="105.45" y="319.5" ></text>
</g>
<g >
<title>[[kernel.kallsyms]] (10,101,010 samples, 0.03%)</title><rect x="10.4" y="245" width="0.3" height="15.0" fill="rgb(232,173,12)" rx="2" ry="2" />
<text  x="13.37" y="255.5" ></text>
</g>
<g >
<title>_int_free (10,101,010 samples, 0.03%)</title><rect x="10.0" y="309" width="0.4" height="15.0" fill="rgb(209,192,30)" rx="2" ry="2" />
<text  x="13.00" y="319.5" ></text>
</g>
<g >
<title>[[kernel.kallsyms]] (10,101,010 samples, 0.03%)</title><rect x="10.0" y="165" width="0.4" height="15.0" fill="rgb(210,20,27)" rx="2" ry="2" />
<text  x="13.00" y="175.5" ></text>
</g>
<g >
<title>all (32,101,009,780 samples, 100%)</title><rect x="10.0" y="357" width="1180.0" height="15.0" fill="rgb(243,209,16)" rx="2" ry="2" />
<text  x="13.00" y="367.5" ></text>
</g>
<g >
<title>__memset_avx2_unaligned_erms (60,606,060 samples, 0.19%)</title><rect x="36.7" y="309" width="2.3" height="15.0" fill="rgb(246,113,34)" rx="2" ry="2" />
<text  x="39.73" y="319.5" ></text>
</g>
<g >
<title>[[kernel.kallsyms]] (10,101,010 samples, 0.03%)</title><rect x="36.4" y="245" width="0.3" height="15.0" fill="rgb(228,208,16)" rx="2" ry="2" />
<text  x="39.36" y="255.5" ></text>
</g>
<g >
<title>[[kernel.kallsyms]] (20,202,020 samples, 0.06%)</title><rect x="24.5" y="293" width="0.7" height="15.0" fill="rgb(247,56,18)" rx="2" ry="2" />
<text  x="27.48" y="303.5" ></text>
</g>
<g >
<title>[[kernel.kallsyms]] (262,626,260 samples, 0.82%)</title><rect x="84.6" y="213" width="9.7" height="15.0" fill="rgb(210,42,46)" rx="2" ry="2" />
<text  x="87.63" y="223.5" ></text>
</g>
<g >
<title>[[kernel.kallsyms]] (10,101,010 samples, 0.03%)</title><rect x="67.6" y="213" width="0.3" height="15.0" fill="rgb(244,204,44)" rx="2" ry="2" />
<text  x="70.55" y="223.5" ></text>
</g>
<g >
<title>[[kernel.kallsyms]] (50,505,050 samples, 0.16%)</title><rect x="34.9" y="293" width="1.8" height="15.0" fill="rgb(235,51,6)" rx="2" ry="2" />
<text  x="37.88" y="303.5" ></text>
</g>
<g >
<title>[[kernel.kallsyms]] (20,202,020 samples, 0.06%)</title><rect x="24.5" y="197" width="0.7" height="15.0" fill="rgb(238,153,5)" rx="2" ry="2" />
<text  x="27.48" y="207.5" ></text>
</g>
<g >
<title>kworker/0:0-eve (10,101,010 samples, 0.03%)</title><rect x="11.1" y="341" width="0.4" height="15.0" fill="rgb(214,146,14)" rx="2" ry="2" />
<text  x="14.11" y="351.5" ></text>
</g>
<g >
<title>[[kernel.kallsyms]] (10,101,010 samples, 0.03%)</title><rect x="11.5" y="293" width="0.4" height="15.0" fill="rgb(213,214,24)" rx="2" ry="2" />
<text  x="14.49" y="303.5" ></text>
</g>
<g >
<title>benchmark_worker (282,828,280 samples, 0.88%)</title><rect x="67.9" y="325" width="10.4" height="15.0" fill="rgb(254,87,15)" rx="2" ry="2" />
<text  x="70.92" y="335.5" ></text>
</g>
<g >
<title>[[kernel.kallsyms]] (10,101,010 samples, 0.03%)</title><rect x="10.0" y="133" width="0.4" height="15.0" fill="rgb(223,186,1)" rx="2" ry="2" />
<text  x="13.00" y="143.5" ></text>
</g>
<g >
<title>[[kernel.kallsyms]] (20,202,020 samples, 0.06%)</title><rect x="24.5" y="133" width="0.7" height="15.0" fill="rgb(229,164,6)" rx="2" ry="2" />
<text  x="27.48" y="143.5" ></text>
</g>
<g >
<title>__libc_calloc (313,131,310 samples, 0.98%)</title><rect x="12.2" y="309" width="11.5" height="15.0" fill="rgb(231,208,48)" rx="2" ry="2" />
<text  x="15.23" y="319.5" ></text>
</g>
<g >
<title>[[kernel.kallsyms]] (10,101,010 samples, 0.03%)</title><rect x="11.1" y="277" width="0.4" height="15.0" fill="rgb(213,139,49)" rx="2" ry="2" />
<text  x="14.11" y="287.5" ></text>
</g>
<g >
<title>[[kernel.kallsyms]] (14,717,171,570 samples, 45.85%)</title><rect x="648.6" y="229" width="541.0" height="15.0" fill="rgb(220,73,21)" rx="2" ry="2" />
<text  x="651.64" y="239.5" >[[kernel.kallsyms]]</text>
</g>
<g >
<title>[[kernel.kallsyms]] (14,696,969,550 samples, 45.78%)</title><rect x="108.4" y="261" width="540.2" height="15.0" fill="rgb(215,166,26)" rx="2" ry="2" />
<text  x="111.40" y="271.5" >[[kernel.kallsyms]]</text>
</g>
<g >
<title>[[kernel.kallsyms]] (10,101,010 samples, 0.03%)</title><rect x="10.0" y="197" width="0.4" height="15.0" fill="rgb(238,95,13)" rx="2" ry="2" />
<text  x="13.00" y="207.5" ></text>
</g>
<g >
<title>[[kernel.kallsyms]] (14,696,969,550 samples, 45.78%)</title><rect x="108.4" y="309" width="540.2" height="15.0" fill="rgb(217,224,50)" rx="2" ry="2" />
<text  x="111.40" y="319.5" >[[kernel.kallsyms]]</text>
</g>
<g >
<title>__libc_memalign (10,101,010 samples, 0.03%)</title><rect x="52.3" y="325" width="0.4" height="15.0" fill="rgb(238,144,11)" rx="2" ry="2" />
<text  x="55.33" y="335.5" ></text>
</g>
<g >
<title>[[kernel.kallsyms]] (10,101,010 samples, 0.03%)</title><rect x="10.4" y="181" width="0.3" height="15.0" fill="rgb(208,173,18)" rx="2" ry="2" />
<text  x="13.37" y="191.5" ></text>
</g>
<g >
<title>drm_atomic_commit (10,101,010 samples, 0.03%)</title><rect x="11.1" y="229" width="0.4" height="15.0" fill="rgb(224,64,54)" rx="2" ry="2" />
<text  x="14.11" y="239.5" ></text>
</g>
<g >
<title>__mprotect (20,202,020 samples, 0.06%)</title><rect x="57.5" y="325" width="0.8" height="15.0" fill="rgb(245,151,10)" rx="2" ry="2" />
<text  x="60.53" y="335.5" ></text>
</g>
<g >
<title>[[kernel.kallsyms]] (30,303,030 samples, 0.09%)</title><rect x="103.9" y="197" width="1.2" height="15.0" fill="rgb(218,40,6)" rx="2" ry="2" />
<text  x="106.94" y="207.5" ></text>
</g>
<g >
<title>[[kernel.kallsyms]] (20,202,020 samples, 0.06%)</title><rect x="24.5" y="165" width="0.7" height="15.0" fill="rgb(238,62,21)" rx="2" ry="2" />
<text  x="27.48" y="175.5" ></text>
</g>
<g >
<title>drm_atomic_helper_commit_planes (10,101,010 samples, 0.03%)</title><rect x="11.5" y="165" width="0.4" height="15.0" fill="rgb(235,106,18)" rx="2" ry="2" />
<text  x="14.49" y="175.5" ></text>
</g>
<g >
<title>[[kernel.kallsyms]] (20,202,020 samples, 0.06%)</title><rect x="24.5" y="149" width="0.7" height="15.0" fill="rgb(249,44,36)" rx="2" ry="2" />
<text  x="27.48" y="159.5" ></text>
</g>
<g >
<title>sysmalloc (101,010,100 samples, 0.31%)</title><rect x="101.3" y="325" width="3.8" height="15.0" fill="rgb(247,125,17)" rx="2" ry="2" />
<text  x="104.34" y="335.5" ></text>
</g>
<g >
<title>[[kernel.kallsyms]] (14,686,868,540 samples, 45.75%)</title><rect x="108.8" y="245" width="539.8" height="15.0" fill="rgb(232,9,7)" rx="2" ry="2" />
<text  x="111.77" y="255.5" >[[kernel.kallsyms]]</text>
</g>
<g >
<title>[[kernel.kallsyms]] (10,101,010 samples, 0.03%)</title><rect x="10.4" y="229" width="0.3" height="15.0" fill="rgb(223,104,35)" rx="2" ry="2" />
<text  x="13.37" y="239.5" ></text>
</g>
<g >
<title>[[kernel.kallsyms]] (30,303,030 samples, 0.09%)</title><rect x="103.9" y="213" width="1.2" height="15.0" fill="rgb(215,187,0)" rx="2" ry="2" />
<text  x="106.94" y="223.5" ></text>
</g>
<g >
<title>[[kernel.kallsyms]] (30,303,030 samples, 0.09%)</title><rect x="103.9" y="181" width="1.2" height="15.0" fill="rgb(247,164,44)" rx="2" ry="2" />
<text  x="106.94" y="191.5" ></text>
</g>
<g >
<title>hyperv_update_dirt (10,101,010 samples, 0.03%)</title><rect x="11.5" y="117" width="0.4" height="15.0" fill="rgb(247,13,9)" rx="2" ry="2" />
<text  x="14.49" y="127.5" ></text>
</g>
<g >
<title>__open64_nocancel (10,101,010 samples, 0.03%)</title><rect x="10.4" y="293" width="0.3" height="15.0" fill="rgb(222,105,35)" rx="2" ry="2" />
<text  x="13.37" y="303.5" ></text>
</g>
<g >
<title>[[kernel.kallsyms]] (20,202,020 samples, 0.06%)</title><rect x="24.5" y="181" width="0.7" height="15.0" fill="rgb(236,201,5)" rx="2" ry="2" />
<text  x="27.48" y="191.5" ></text>
</g>
<g >
<title>[[kernel.kallsyms]] (10,101,010 samples, 0.03%)</title><rect x="23.4" y="213" width="0.3" height="15.0" fill="rgb(226,180,15)" rx="2" ry="2" />
<text  x="26.37" y="223.5" ></text>
</g>
<g >
<title>[[kernel.kallsyms]] (30,303,030 samples, 0.09%)</title><rect x="37.8" y="293" width="1.2" height="15.0" fill="rgb(238,106,17)" rx="2" ry="2" />
<text  x="40.85" y="303.5" ></text>
</g>
<g >
<title>commit_tail (10,101,010 samples, 0.03%)</title><rect x="11.5" y="197" width="0.4" height="15.0" fill="rgb(209,217,1)" rx="2" ry="2" />
<text  x="14.49" y="207.5" ></text>
</g>
<g >
<title>[[kernel.kallsyms]] (10,101,010 samples, 0.03%)</title><rect x="11.5" y="309" width="0.4" height="15.0" fill="rgb(239,183,48)" rx="2" ry="2" />
<text  x="14.49" y="319.5" ></text>
</g>
<g >
<title>[[kernel.kallsyms]] (10,101,010 samples, 0.03%)</title><rect x="48.6" y="277" width="0.4" height="15.0" fill="rgb(243,170,10)" rx="2" ry="2" />
<text  x="51.62" y="287.5" ></text>
</g>
<g >
<title>_dl_addr (10,101,010 samples, 0.03%)</title><rect x="10.7" y="325" width="0.4" height="15.0" fill="rgb(206,160,27)" rx="2" ry="2" />
<text  x="13.74" y="335.5" ></text>
</g>
<g >
<title>hyperv_pipe_update (10,101,010 samples, 0.03%)</title><rect x="11.5" y="133" width="0.4" height="15.0" fill="rgb(207,26,5)" rx="2" ry="2" />
<text  x="14.49" y="143.5" ></text>
</g>
<g >
<title>[[kernel.kallsyms]] (14,696,969,550 samples, 45.78%)</title><rect x="108.4" y="293" width="540.2" height="15.0" fill="rgb(220,5,51)" rx="2" ry="2" />
<text  x="111.40" y="303.5" >[[kernel.kallsyms]]</text>
</g>
<g >
<title>[[kernel.kallsyms]] (10,101,010 samples, 0.03%)</title><rect x="10.0" y="181" width="0.4" height="15.0" fill="rgb(232,167,37)" rx="2" ry="2" />
<text  x="13.00" y="191.5" ></text>
</g>
<g >
<title>[[kernel.kallsyms]] (353,535,350 samples, 1.10%)</title><rect x="81.3" y="293" width="13.0" height="15.0" fill="rgb(216,103,35)" rx="2" ry="2" />
<text  x="84.29" y="303.5" ></text>
</g>
<g >
<title>[[kernel.kallsyms]] (353,535,350 samples, 1.10%)</title><rect x="81.3" y="277" width="13.0" height="15.0" fill="rgb(240,117,33)" rx="2" ry="2" />
<text  x="84.29" y="287.5" ></text>
</g>
<g >
<title>swapper (29,414,141,120 samples, 91.63%)</title><rect x="108.4" y="341" width="1081.2" height="15.0" fill="rgb(253,53,13)" rx="2" ry="2" />
<text  x="111.40" y="351.5" >swapper</text>
</g>
<g >
<title>[[kernel.kallsyms]] (10,101,010 samples, 0.03%)</title><rect x="11.1" y="309" width="0.4" height="15.0" fill="rgb(244,142,46)" rx="2" ry="2" />
<text  x="14.11" y="319.5" ></text>
</g>
<g >
<title>[[kernel.kallsyms]] (50,505,050 samples, 0.16%)</title><rect x="103.2" y="261" width="1.9" height="15.0" fill="rgb(240,70,40)" rx="2" ry="2" />
<text  x="106.20" y="271.5" ></text>
</g>
<g >
<title>[[kernel.kallsyms]] (30,303,030 samples, 0.09%)</title><rect x="37.8" y="261" width="1.2" height="15.0" fill="rgb(230,146,1)" rx="2" ry="2" />
<text  x="40.85" y="271.5" ></text>
</g>
<g >
<title>[[kernel.kallsyms]] (10,101,010 samples, 0.03%)</title><rect x="11.5" y="53" width="0.4" height="15.0" fill="rgb(216,194,7)" rx="2" ry="2" />
<text  x="14.49" y="63.5" ></text>
</g>
<g >
<title>setlocale (10,101,010 samples, 0.03%)</title><rect x="10.4" y="325" width="0.3" height="15.0" fill="rgb(229,44,19)" rx="2" ry="2" />
<text  x="13.37" y="335.5" ></text>
</g>
<g >
<title>epoll_wait (10,101,010 samples, 0.03%)</title><rect x="11.9" y="325" width="0.3" height="15.0" fill="rgb(228,9,21)" rx="2" ry="2" />
<text  x="14.86" y="335.5" ></text>
</g>
<g >
<title>dirname (10,101,010 samples, 0.03%)</title><rect x="10.7" y="341" width="0.4" height="15.0" fill="rgb(216,96,29)" rx="2" ry="2" />
<text  x="13.74" y="351.5" ></text>
</g>
<g >
<title>[[kernel.kallsyms]] (30,303,030 samples, 0.09%)</title><rect x="37.8" y="181" width="1.2" height="15.0" fill="rgb(242,35,20)" rx="2" ry="2" />
<text  x="40.85" y="191.5" ></text>
</g>
<g >
<title>drm_atomic_helper_dirtyfb (10,101,010 samples, 0.03%)</title><rect x="11.1" y="245" width="0.4" height="15.0" fill="rgb(254,210,26)" rx="2" ry="2" />
<text  x="14.11" y="255.5" ></text>
</g>
<g >
<title>bench.sh (10,101,010 samples, 0.03%)</title><rect x="10.0" y="341" width="0.4" height="15.0" fill="rgb(227,100,10)" rx="2" ry="2" />
<text  x="13.00" y="351.5" ></text>
</g>
<g >
<title>[[kernel.kallsyms]] (10,101,010 samples, 0.03%)</title><rect x="10.0" y="117" width="0.4" height="15.0" fill="rgb(227,42,48)" rx="2" ry="2" />
<text  x="13.00" y="127.5" ></text>
</g>
<g >
<title>[[kernel.kallsyms]] (20,202,020 samples, 0.06%)</title><rect x="67.2" y="277" width="0.7" height="15.0" fill="rgb(244,35,29)" rx="2" ry="2" />
<text  x="70.18" y="287.5" ></text>
</g>
<g >
<title>[unknown] (14,717,171,570 samples, 45.85%)</title><rect x="648.6" y="277" width="541.0" height="15.0" fill="rgb(209,194,19)" rx="2" ry="2" />
<text  x="651.64" y="287.5" >[unknown]</text>
</g>
<g >
<title>[[kernel.kallsyms]] (272,727,270 samples, 0.85%)</title><rect x="84.3" y="261" width="10.0" height="15.0" fill="rgb(233,1,30)" rx="2" ry="2" />
<text  x="87.26" y="271.5" ></text>
</g>
<g >
<title>[[kernel.kallsyms]] (14,686,868,540 samples, 45.75%)</title><rect x="108.8" y="229" width="539.8" height="15.0" fill="rgb(223,133,1)" rx="2" ry="2" />
<text  x="111.77" y="239.5" >[[kernel.kallsyms]]</text>
</g>
<g >
<title>[unknown] (14,717,171,570 samples, 45.85%)</title><rect x="648.6" y="261" width="541.0" height="15.0" fill="rgb(224,35,6)" rx="2" ry="2" />
<text  x="651.64" y="271.5" >[unknown]</text>
</g>
<g >
<title>[[kernel.kallsyms]] (10,101,010 samples, 0.03%)</title><rect x="11.1" y="325" width="0.4" height="15.0" fill="rgb(242,192,51)" rx="2" ry="2" />
<text  x="14.11" y="335.5" ></text>
</g>
<g >
<title>unlink_chunk.isra.0 (70,707,070 samples, 0.22%)</title><rect x="105.8" y="325" width="2.6" height="15.0" fill="rgb(253,222,5)" rx="2" ry="2" />
<text  x="108.80" y="335.5" ></text>
</g>
<g >
<title>[[kernel.kallsyms]] (14,696,969,550 samples, 45.78%)</title><rect x="108.4" y="277" width="540.2" height="15.0" fill="rgb(218,206,54)" rx="2" ry="2" />
<text  x="111.40" y="287.5" >[[kernel.kallsyms]]</text>
</g>
<g >
<title>_int_free (10,101,010 samples, 0.03%)</title><rect x="58.3" y="325" width="0.3" height="15.0" fill="rgb(234,52,25)" rx="2" ry="2" />
<text  x="61.27" y="335.5" ></text>
</g>
<g >
<title>drm_simple_kms_plane_atomic_update (10,101,010 samples, 0.03%)</title><rect x="11.5" y="149" width="0.4" height="15.0" fill="rgb(228,99,26)" rx="2" ry="2" />
<text  x="14.49" y="159.5" ></text>
</g>
<g >
<title>[[kernel.kallsyms]] (10,101,010 samples, 0.03%)</title><rect x="67.6" y="229" width="0.3" height="15.0" fill="rgb(249,53,7)" rx="2" ry="2" />
<text  x="70.55" y="239.5" ></text>
</g>
<g >
<title>[[kernel.kallsyms]] (10,101,010 samples, 0.03%)</title><rect x="11.5" y="277" width="0.4" height="15.0" fill="rgb(249,121,5)" rx="2" ry="2" />
<text  x="14.49" y="287.5" ></text>
</g>
<g >
<title>malloc (181,818,180 samples, 0.57%)</title><rect x="94.3" y="325" width="6.7" height="15.0" fill="rgb(232,227,6)" rx="2" ry="2" />
<text  x="97.29" y="335.5" ></text>
</g>
<g >
<title>[[kernel.kallsyms]] (20,202,020 samples, 0.06%)</title><rect x="23.0" y="277" width="0.7" height="15.0" fill="rgb(211,95,32)" rx="2" ry="2" />
<text  x="26.00" y="287.5" ></text>
</g>
<g >
<title>[[kernel.kallsyms]] (20,202,020 samples, 0.06%)</title><rect x="38.2" y="149" width="0.8" height="15.0" fill="rgb(248,149,18)" rx="2" ry="2" />
<text  x="41.22" y="159.5" ></text>
</g>
<g >
<title>[[kernel.kallsyms]] (30,303,030 samples, 0.09%)</title><rect x="37.8" y="197" width="1.2" height="15.0" fill="rgb(210,194,17)" rx="2" ry="2" />
<text  x="40.85" y="207.5" ></text>
</g>
<g >
<title>[[kernel.kallsyms]] (10,101,010 samples, 0.03%)</title><rect x="23.4" y="197" width="0.3" height="15.0" fill="rgb(227,182,49)" rx="2" ry="2" />
<text  x="26.37" y="207.5" ></text>
</g>
<g >
<title>[[kernel.kallsyms]] (20,202,020 samples, 0.06%)</title><rect x="24.5" y="213" width="0.7" height="15.0" fill="rgb(208,9,31)" rx="2" ry="2" />
<text  x="27.48" y="223.5" ></text>
</g>
<g >
<title>_nl_find_locale (10,101,010 samples, 0.03%)</title><rect x="10.4" y="309" width="0.3" height="15.0" fill="rgb(233,65,16)" rx="2" ry="2" />
<text  x="13.37" y="319.5" ></text>
</g>
<g >
<title>[[kernel.kallsyms]] (10,101,010 samples, 0.03%)</title><rect x="10.4" y="277" width="0.3" height="15.0" fill="rgb(209,185,27)" rx="2" ry="2" />
<text  x="13.37" y="287.5" ></text>
</g>
<g >
<title>[[kernel.kallsyms]] (10,101,010 samples, 0.03%)</title><rect x="11.1" y="293" width="0.4" height="15.0" fill="rgb(228,194,4)" rx="2" ry="2" />
<text  x="14.11" y="303.5" ></text>
</g>
<g >
<title>__madvise (20,202,020 samples, 0.06%)</title><rect x="24.5" y="309" width="0.7" height="15.0" fill="rgb(248,180,31)" rx="2" ry="2" />
<text  x="27.48" y="319.5" ></text>
</g>
<g >
<title>thread_fence (10,101,010 samples, 0.03%)</title><rect x="105.1" y="325" width="0.3" height="15.0" fill="rgb(247,188,13)" rx="2" ry="2" />
<text  x="108.05" y="335.5" ></text>
</g>
<g >
<title>[[kernel.kallsyms]] (10,101,010 samples, 0.03%)</title><rect x="10.4" y="213" width="0.3" height="15.0" fill="rgb(217,90,4)" rx="2" ry="2" />
<text  x="13.37" y="223.5" ></text>
</g>
<g >
<title>drm_fb_helper_damage_work (10,101,010 samples, 0.03%)</title><rect x="11.5" y="261" width="0.4" height="15.0" fill="rgb(238,28,35)" rx="2" ry="2" />
<text  x="14.49" y="271.5" ></text>
</g>
<g >
<title>[[kernel.kallsyms]] (20,202,020 samples, 0.06%)</title><rect x="67.2" y="309" width="0.7" height="15.0" fill="rgb(234,205,12)" rx="2" ry="2" />
<text  x="70.18" y="319.5" ></text>
</g>
<g >
<title>[[kernel.kallsyms]] (10,101,010 samples, 0.03%)</title><rect x="11.5" y="69" width="0.4" height="15.0" fill="rgb(209,14,7)" rx="2" ry="2" />
<text  x="14.49" y="79.5" ></text>
</g>
<g >
<title>[[kernel.kallsyms]] (30,303,030 samples, 0.09%)</title><rect x="37.8" y="277" width="1.2" height="15.0" fill="rgb(242,31,33)" rx="2" ry="2" />
<text  x="40.85" y="287.5" ></text>
</g>
<g >
<title>[[kernel.kallsyms]] (70,707,070 samples, 0.22%)</title><rect x="102.5" y="277" width="2.6" height="15.0" fill="rgb(218,222,34)" rx="2" ry="2" />
<text  x="105.45" y="287.5" ></text>
</g>
<g >
<title>__memset_avx2_erms (313,131,310 samples, 0.98%)</title><rect x="25.2" y="309" width="11.5" height="15.0" fill="rgb(217,141,9)" rx="2" ry="2" />
<text  x="28.22" y="319.5" ></text>
</g>
<g >
<title>[[kernel.kallsyms]] (10,101,010 samples, 0.03%)</title><rect x="10.0" y="293" width="0.4" height="15.0" fill="rgb(247,199,29)" rx="2" ry="2" />
<text  x="13.00" y="303.5" ></text>
</g>
<g >
<title>kworker/1:1-eve (10,101,010 samples, 0.03%)</title><rect x="11.5" y="341" width="0.4" height="15.0" fill="rgb(222,87,10)" rx="2" ry="2" />
<text  x="14.49" y="351.5" ></text>
</g>
<g >
<title>[[kernel.kallsyms]] (30,303,030 samples, 0.09%)</title><rect x="37.8" y="213" width="1.2" height="15.0" fill="rgb(208,59,16)" rx="2" ry="2" />
<text  x="40.85" y="223.5" ></text>
</g>
<g >
<title>[[kernel.kallsyms]] (50,505,050 samples, 0.16%)</title><rect x="34.9" y="277" width="1.8" height="15.0" fill="rgb(215,195,19)" rx="2" ry="2" />
<text  x="37.88" y="287.5" ></text>
</g>
<g >
<title>[[kernel.kallsyms]] (20,202,020 samples, 0.06%)</title><rect x="24.5" y="245" width="0.7" height="15.0" fill="rgb(233,220,43)" rx="2" ry="2" />
<text  x="27.48" y="255.5" ></text>
</g>
<g >
<title>[[kernel.kallsyms]] (353,535,350 samples, 1.10%)</title><rect x="81.3" y="309" width="13.0" height="15.0" fill="rgb(245,218,41)" rx="2" ry="2" />
<text  x="84.29" y="319.5" ></text>
</g>
<g >
<title>[[kernel.kallsyms]] (10,101,010 samples, 0.03%)</title><rect x="36.4" y="197" width="0.3" height="15.0" fill="rgb(246,40,39)" rx="2" ry="2" />
<text  x="39.36" y="207.5" ></text>
</g>
<g >
<title>[[kernel.kallsyms]] (10,101,010 samples, 0.03%)</title><rect x="10.0" y="213" width="0.4" height="15.0" fill="rgb(207,90,27)" rx="2" ry="2" />
<text  x="13.00" y="223.5" ></text>
</g>
<g >
<title>__memset_avx2_unaligned_erms (90,909,090 samples, 0.28%)</title><rect x="54.2" y="325" width="3.3" height="15.0" fill="rgb(244,149,42)" rx="2" ry="2" />
<text  x="57.19" y="335.5" ></text>
</g>
<g >
<title>[[kernel.kallsyms]] (10,101,010 samples, 0.03%)</title><rect x="10.0" y="245" width="0.4" height="15.0" fill="rgb(211,67,52)" rx="2" ry="2" />
<text  x="13.00" y="255.5" ></text>
</g>
<g >
<title>rptest (2,616,161,590 samples, 8.15%)</title><rect x="12.2" y="341" width="96.2" height="15.0" fill="rgb(211,30,9)" rx="2" ry="2" />
<text  x="15.23" y="351.5" >rptest</text>
</g>
<g >
<title>_dl_addr (10,101,010 samples, 0.03%)</title><rect x="1189.6" y="325" width="0.4" height="15.0" fill="rgb(226,79,14)" rx="2" ry="2" />
<text  x="1192.63" y="335.5" ></text>
</g>
<g >
<title>[[kernel.kallsyms]] (20,202,020 samples, 0.06%)</title><rect x="67.2" y="245" width="0.7" height="15.0" fill="rgb(251,188,17)" rx="2" ry="2" />
<text  x="70.18" y="255.5" ></text>
</g>
<g >
<title>[[kernel.kallsyms]] (30,303,030 samples, 0.09%)</title><rect x="37.8" y="229" width="1.2" height="15.0" fill="rgb(232,128,49)" rx="2" ry="2" />
<text  x="40.85" y="239.5" ></text>
</g>
<g >
<title>[[kernel.kallsyms]] (14,707,070,560 samples, 45.81%)</title><rect x="649.0" y="181" width="540.6" height="15.0" fill="rgb(238,171,7)" rx="2" ry="2" />
<text  x="652.01" y="191.5" >[[kernel.kallsyms]]</text>
</g>
<g >
<title>[[kernel.kallsyms]] (30,303,030 samples, 0.09%)</title><rect x="37.8" y="165" width="1.2" height="15.0" fill="rgb(232,36,24)" rx="2" ry="2" />
<text  x="40.85" y="175.5" ></text>
</g>
<g >
<title>[unknown] (14,717,171,570 samples, 45.85%)</title><rect x="648.6" y="293" width="541.0" height="15.0" fill="rgb(252,23,35)" rx="2" ry="2" />
<text  x="651.64" y="303.5" >[unknown]</text>
</g>
<g >
<title>[[kernel.kallsyms]] (10,101,010 samples, 0.03%)</title><rect x="10.0" y="229" width="0.4" height="15.0" fill="rgb(223,44,48)" rx="2" ry="2" />
<text  x="13.00" y="239.5" ></text>
</g>
<g >
<title>[[kernel.kallsyms]] (10,101,010 samples, 0.03%)</title><rect x="36.4" y="229" width="0.3" height="15.0" fill="rgb(248,203,25)" rx="2" ry="2" />
<text  x="39.36" y="239.5" ></text>
</g>
<g >
<title>[[kernel.kallsyms]] (20,202,020 samples, 0.06%)</title><rect x="67.2" y="293" width="0.7" height="15.0" fill="rgb(245,49,11)" rx="2" ry="2" />
<text  x="70.18" y="303.5" ></text>
</g>
<g >
<title>[unknown] (10,101,010 samples, 0.03%)</title><rect x="11.5" y="37" width="0.4" height="15.0" fill="rgb(244,141,34)" rx="2" ry="2" />
<text  x="14.49" y="47.5" ></text>
</g>
<g >
<title>[[kernel.kallsyms]] (20,202,020 samples, 0.06%)</title><rect x="38.2" y="133" width="0.8" height="15.0" fill="rgb(244,221,28)" rx="2" ry="2" />
<text  x="41.22" y="143.5" ></text>
</g>
<g >
<title>[unknown] (14,717,171,570 samples, 45.85%)</title><rect x="648.6" y="309" width="541.0" height="15.0" fill="rgb(244,73,9)" rx="2" ry="2" />
<text  x="651.64" y="319.5" >[unknown]</text>
</g>
<g >
<title>[[kernel.kallsyms]] (10,101,010 samples, 0.03%)</title><rect x="10.0" y="261" width="0.4" height="15.0" fill="rgb(251,10,36)" rx="2" ry="2" />
<text  x="13.00" y="271.5" ></text>
</g>
<g >
<title>[[kernel.kallsyms]] (272,727,270 samples, 0.85%)</title><rect x="84.3" y="245" width="10.0" height="15.0" fill="rgb(244,218,10)" rx="2" ry="2" />
<text  x="87.26" y="255.5" ></text>
</g>
<g >
<title>[unknown] (10,101,010 samples, 0.03%)</title><rect x="10.0" y="325" width="0.4" height="15.0" fill="rgb(218,149,44)" rx="2" ry="2" />
<text  x="13.00" y="335.5" ></text>
</g>
<g >
<title>[[kernel.kallsyms]] (30,303,030 samples, 0.09%)</title><rect x="103.9" y="229" width="1.2" height="15.0" fill="rgb(241,172,31)" rx="2" ry="2" />
<text  x="106.94" y="239.5" ></text>
</g>
<g >
<title>[unknown] (1,060,606,050 samples, 3.30%)</title><rect x="12.2" y="325" width="39.0" height="15.0" fill="rgb(207,179,39)" rx="2" ry="2" />
<text  x="15.23" y="335.5" >[un..</text>
</g>
<g >
<title>[[kernel.kallsyms]] (14,707,070,560 samples, 45.81%)</title><rect x="649.0" y="197" width="540.6" height="15.0" fill="rgb(236,98,35)" rx="2" ry="2" />
<text  x="652.01" y="207.5" >[[kernel.kallsyms]]</text>
</g>
<g >
<title>_int_free (272,727,270 samples, 0.85%)</title><rect x="39.0" y="309" width="10.0" height="15.0" fill="rgb(235,154,53)" rx="2" ry="2" />
<text  x="41.96" y="319.5" ></text>
</g>
<g >
<title>[[kernel.kallsyms]] (262,626,260 samples, 0.82%)</title><rect x="84.6" y="229" width="9.7" height="15.0" fill="rgb(243,3,22)" rx="2" ry="2" />
<text  x="87.63" y="239.5" ></text>
</g>
<g >
<title>[[kernel.kallsyms]] (10,101,010 samples, 0.03%)</title><rect x="36.4" y="165" width="0.3" height="15.0" fill="rgb(218,36,6)" rx="2" ry="2" />
<text  x="39.36" y="175.5" ></text>
</g>
<g >
<title>clock_nanosleep@@GLIBC_2.17 (434,343,430 samples, 1.35%)</title><rect x="78.3" y="325" width="16.0" height="15.0" fill="rgb(243,53,28)" rx="2" ry="2" />
<text  x="81.32" y="335.5" ></text>
</g>
<g >
<title>[[kernel.kallsyms]] (10,101,010 samples, 0.03%)</title><rect x="48.6" y="293" width="0.4" height="15.0" fill="rgb(245,47,31)" rx="2" ry="2" />
<text  x="51.62" y="303.5" ></text>
</g>
<g >
<title>[[kernel.kallsyms]] (20,202,020 samples, 0.06%)</title><rect x="23.0" y="229" width="0.7" height="15.0" fill="rgb(239,208,13)" rx="2" ry="2" />
<text  x="26.00" y="239.5" ></text>
</g>
<g >
<title>cat (10,101,010 samples, 0.03%)</title><rect x="10.4" y="341" width="0.3" height="15.0" fill="rgb(227,71,51)" rx="2" ry="2" />
<text  x="13.37" y="351.5" ></text>
</g>
<g >
<title>[[kernel.kallsyms]] (14,717,171,570 samples, 45.85%)</title><rect x="648.6" y="245" width="541.0" height="15.0" fill="rgb(211,211,17)" rx="2" ry="2" />
<text  x="651.64" y="255.5" >[[kernel.kallsyms]]</text>
</g>
<g >
<title>drm_atomic_helper_check (10,101,010 samples, 0.03%)</title><rect x="11.1" y="213" width="0.4" height="15.0" fill="rgb(206,109,8)" rx="2" ry="2" />
<text  x="14.11" y="223.5" ></text>
</g>
<g >
<title>drm_atomic_commit (10,101,010 samples, 0.03%)</title><rect x="11.5" y="229" width="0.4" height="15.0" fill="rgb(224,112,30)" rx="2" ry="2" />
<text  x="14.49" y="239.5" ></text>
</g>
<g >
<title>_int_malloc (252,525,250 samples, 0.79%)</title><rect x="58.6" y="325" width="9.3" height="15.0" fill="rgb(226,52,29)" rx="2" ry="2" />
<text  x="61.64" y="335.5" ></text>
</g>
<g >
<title>[[kernel.kallsyms]] (10,101,010 samples, 0.03%)</title><rect x="10.0" y="149" width="0.4" height="15.0" fill="rgb(231,21,23)" rx="2" ry="2" />
<text  x="13.00" y="159.5" ></text>
</g>
</g>
</svg>
