<?xml version="1.0" standalone="no"?>
<!DOCTYPE svg PUBLIC "-//W3C//DTD SVG 1.1//EN" "http://www.w3.org/Graphics/SVG/1.1/DTD/svg11.dtd">
<svg version="1.1" width="1200" height="358" onload="init(evt)" viewBox="0 0 1200 358" xmlns="http://www.w3.org/2000/svg" xmlns:xlink="http://www.w3.org/1999/xlink">
<!-- Flame graph stack visualization. See https://github.com/brendangregg/FlameGraph for latest version, and http://www.brendangregg.com/flamegraphs.html for examples. -->
<!-- NOTES:  -->
<defs>
	<linearGradient id="background" y1="0" y2="1" x1="0" x2="0" >
		<stop stop-color="#eeeeee" offset="5%" />
		<stop stop-color="#eeeeb0" offset="95%" />
	</linearGradient>
</defs>
<style type="text/css">
	text { font-family:Verdana; font-size:12px; fill:rgb(0,0,0); }
	#search, #ignorecase { opacity:0.1; cursor:pointer; }
	#search:hover, #search.show, #ignorecase:hover, #ignorecase.show { opacity:1; }
	#subtitle { text-anchor:middle; font-color:rgb(160,160,160); }
	#title { text-anchor:middle; font-size:17px}
	#unzoom { cursor:pointer; }
	#frames > *:hover { stroke:black; stroke-width:0.5; cursor:pointer; }
	.hide { display:none; }
	.parent { opacity:0.5; }
</style>
<script type="text/ecmascript">
<![CDATA[
	"use strict";
	var details, searchbtn, unzoombtn, matchedtxt, svg, searching, currentSearchTerm, ignorecase, ignorecaseBtn;
	function init(evt) {
		details = document.getElementById("details").firstChild;
		searchbtn = document.getElementById("search");
		ignorecaseBtn = document.getElementById("ignorecase");
		unzoombtn = document.getElementById("unzoom");
		matchedtxt = document.getElementById("matched");
		svg = document.getElementsByTagName("svg")[0];
		searching = 0;
		currentSearchTerm = null;

		// use GET parameters to restore a flamegraphs state.
		var params = get_params();
		if (params.x && params.y)
			zoom(find_group(document.querySelector('[x="' + params.x + '"][y="' + params.y + '"]')));
                if (params.s) search(params.s);
	}

	// event listeners
	window.addEventListener("click", function(e) {
		var target = find_group(e.target);
		if (target) {
			if (target.nodeName == "a") {
				if (e.ctrlKey === false) return;
				e.preventDefault();
			}
			if (target.classList.contains("parent")) unzoom(true);
			zoom(target);
			if (!document.querySelector('.parent')) {
				// we have basically done a clearzoom so clear the url
				var params = get_params();
				if (params.x) delete params.x;
				if (params.y) delete params.y;
				history.replaceState(null, null, parse_params(params));
				unzoombtn.classList.add("hide");
				return;
			}

			// set parameters for zoom state
			var el = target.querySelector("rect");
			if (el && el.attributes && el.attributes.y && el.attributes._orig_x) {
				var params = get_params()
				params.x = el.attributes._orig_x.value;
				params.y = el.attributes.y.value;
				history.replaceState(null, null, parse_params(params));
			}
		}
		else if (e.target.id == "unzoom") clearzoom();
		else if (e.target.id == "search") search_prompt();
		else if (e.target.id == "ignorecase") toggle_ignorecase();
	}, false)

	// mouse-over for info
	// show
	window.addEventListener("mouseover", function(e) {
		var target = find_group(e.target);
		if (target) details.nodeValue = "Function: " + g_to_text(target);
	}, false)

	// clear
	window.addEventListener("mouseout", function(e) {
		var target = find_group(e.target);
		if (target) details.nodeValue = ' ';
	}, false)

	// ctrl-F for search
	// ctrl-I to toggle case-sensitive search
	window.addEventListener("keydown",function (e) {
		if (e.keyCode === 114 || (e.ctrlKey && e.keyCode === 70)) {
			e.preventDefault();
			search_prompt();
		}
		else if (e.ctrlKey && e.keyCode === 73) {
			e.preventDefault();
			toggle_ignorecase();
		}
	}, false)

	// functions
	function get_params() {
		var params = {};
		var paramsarr = window.location.search.substr(1).split('&');
		for (var i = 0; i < paramsarr.length; ++i) {
			var tmp = paramsarr[i].split("=");
			if (!tmp[0] || !tmp[1]) continue;
			params[tmp[0]]  = decodeURIComponent(tmp[1]);
		}
		return params;
	}
	function parse_params(params) {
		var uri = "?";
		for (var key in params) {
			uri += key + '=' + encodeURIComponent(params[key]) + '&';
		}
		if (uri.slice(-1) == "&")
			uri = uri.substring(0, uri.length - 1);
		if (uri == '?')
			uri = window.location.href.split('?')[0];
		return uri;
	}
	function find_child(node, selector) {
		var children = node.querySelectorAll(selector);
		if (children.length) return children[0];
	}
	function find_group(node) {
		var parent = node.parentElement;
		if (!parent) return;
		if (parent.id == "frames") return node;
		return find_group(parent);
	}
	function orig_save(e, attr, val) {
		if (e.attributes["_orig_" + attr] != undefined) return;
		if (e.attributes[attr] == undefined) return;
		if (val == undefined) val = e.attributes[attr].value;
		e.setAttribute("_orig_" + attr, val);
	}
	function orig_load(e, attr) {
		if (e.attributes["_orig_"+attr] == undefined) return;
		e.attributes[attr].value = e.attributes["_orig_" + attr].value;
		e.removeAttribute("_orig_"+attr);
	}
	function g_to_text(e) {
		var text = find_child(e, "title").firstChild.nodeValue;
		return (text)
	}
	function g_to_func(e) {
		var func = g_to_text(e);
		// if there's any manipulation we want to do to the function
		// name before it's searched, do it here before returning.
		return (func);
	}
	function update_text(e) {
		var r = find_child(e, "rect");
		var t = find_child(e, "text");
		var w = parseFloat(r.attributes.width.value) -3;
		var txt = find_child(e, "title").textContent.replace(/\([^(]*\)$/,"");
		t.attributes.x.value = parseFloat(r.attributes.x.value) + 3;

		// Smaller than this size won't fit anything
		if (w < 2 * 12 * 0.59) {
			t.textContent = "";
			return;
		}

		t.textContent = txt;
		var sl = t.getSubStringLength(0, txt.length);
		// check if only whitespace or if we can fit the entire string into width w
		if (/^ *$/.test(txt) || sl < w)
			return;

		// this isn't perfect, but gives a good starting point
		// and avoids calling getSubStringLength too often
		var start = Math.floor((w/sl) * txt.length);
		for (var x = start; x > 0; x = x-2) {
			if (t.getSubStringLength(0, x + 2) <= w) {
				t.textContent = txt.substring(0, x) + "..";
				return;
			}
		}
		t.textContent = "";
	}

	// zoom
	function zoom_reset(e) {
		if (e.attributes != undefined) {
			orig_load(e, "x");
			orig_load(e, "width");
		}
		if (e.childNodes == undefined) return;
		for (var i = 0, c = e.childNodes; i < c.length; i++) {
			zoom_reset(c[i]);
		}
	}
	function zoom_child(e, x, ratio) {
		if (e.attributes != undefined) {
			if (e.attributes.x != undefined) {
				orig_save(e, "x");
				e.attributes.x.value = (parseFloat(e.attributes.x.value) - x - 10) * ratio + 10;
				if (e.tagName == "text")
					e.attributes.x.value = find_child(e.parentNode, "rect[x]").attributes.x.value + 3;
			}
			if (e.attributes.width != undefined) {
				orig_save(e, "width");
				e.attributes.width.value = parseFloat(e.attributes.width.value) * ratio;
			}
		}

		if (e.childNodes == undefined) return;
		for (var i = 0, c = e.childNodes; i < c.length; i++) {
			zoom_child(c[i], x - 10, ratio);
		}
	}
	function zoom_parent(e) {
		if (e.attributes) {
			if (e.attributes.x != undefined) {
				orig_save(e, "x");
				e.attributes.x.value = 10;
			}
			if (e.attributes.width != undefined) {
				orig_save(e, "width");
				e.attributes.width.value = parseInt(svg.width.baseVal.value) - (10 * 2);
			}
		}
		if (e.childNodes == undefined) return;
		for (var i = 0, c = e.childNodes; i < c.length; i++) {
			zoom_parent(c[i]);
		}
	}
	function zoom(node) {
		var attr = find_child(node, "rect").attributes;
		var width = parseFloat(attr.width.value);
		var xmin = parseFloat(attr.x.value);
		var xmax = parseFloat(xmin + width);
		var ymin = parseFloat(attr.y.value);
		var ratio = (svg.width.baseVal.value - 2 * 10) / width;

		// XXX: Workaround for JavaScript float issues (fix me)
		var fudge = 0.0001;

		unzoombtn.classList.remove("hide");

		var el = document.getElementById("frames").children;
		for (var i = 0; i < el.length; i++) {
			var e = el[i];
			var a = find_child(e, "rect").attributes;
			var ex = parseFloat(a.x.value);
			var ew = parseFloat(a.width.value);
			var upstack;
			// Is it an ancestor
			if (0 == 0) {
				upstack = parseFloat(a.y.value) > ymin;
			} else {
				upstack = parseFloat(a.y.value) < ymin;
			}
			if (upstack) {
				// Direct ancestor
				if (ex <= xmin && (ex+ew+fudge) >= xmax) {
					e.classList.add("parent");
					zoom_parent(e);
					update_text(e);
				}
				// not in current path
				else
					e.classList.add("hide");
			}
			// Children maybe
			else {
				// no common path
				if (ex < xmin || ex + fudge >= xmax) {
					e.classList.add("hide");
				}
				else {
					zoom_child(e, xmin, ratio);
					update_text(e);
				}
			}
		}
		search();
	}
	function unzoom(dont_update_text) {
		unzoombtn.classList.add("hide");
		var el = document.getElementById("frames").children;
		for(var i = 0; i < el.length; i++) {
			el[i].classList.remove("parent");
			el[i].classList.remove("hide");
			zoom_reset(el[i]);
			if(!dont_update_text) update_text(el[i]);
		}
		search();
	}
	function clearzoom() {
		unzoom();

		// remove zoom state
		var params = get_params();
		if (params.x) delete params.x;
		if (params.y) delete params.y;
		history.replaceState(null, null, parse_params(params));
	}

	// search
	function toggle_ignorecase() {
		ignorecase = !ignorecase;
		if (ignorecase) {
			ignorecaseBtn.classList.add("show");
		} else {
			ignorecaseBtn.classList.remove("show");
		}
		reset_search();
		search();
	}
	function reset_search() {
		var el = document.querySelectorAll("#frames rect");
		for (var i = 0; i < el.length; i++) {
			orig_load(el[i], "fill")
		}
		var params = get_params();
		delete params.s;
		history.replaceState(null, null, parse_params(params));
	}
	function search_prompt() {
		if (!searching) {
			var term = prompt("Enter a search term (regexp " +
			    "allowed, eg: ^ext4_)"
			    + (ignorecase ? ", ignoring case" : "")
			    + "\nPress Ctrl-i to toggle case sensitivity", "");
			if (term != null) search(term);
		} else {
			reset_search();
			searching = 0;
			currentSearchTerm = null;
			searchbtn.classList.remove("show");
			searchbtn.firstChild.nodeValue = "Search"
			matchedtxt.classList.add("hide");
			matchedtxt.firstChild.nodeValue = ""
		}
	}
	function search(term) {
		if (term) currentSearchTerm = term;

		var re = new RegExp(currentSearchTerm, ignorecase ? 'i' : '');
		var el = document.getElementById("frames").children;
		var matches = new Object();
		var maxwidth = 0;
		for (var i = 0; i < el.length; i++) {
			var e = el[i];
			var func = g_to_func(e);
			var rect = find_child(e, "rect");
			if (func == null || rect == null)
				continue;

			// Save max width. Only works as we have a root frame
			var w = parseFloat(rect.attributes.width.value);
			if (w > maxwidth)
				maxwidth = w;

			if (func.match(re)) {
				// highlight
				var x = parseFloat(rect.attributes.x.value);
				orig_save(rect, "fill");
				rect.attributes.fill.value = "rgb(230,0,230)";

				// remember matches
				if (matches[x] == undefined) {
					matches[x] = w;
				} else {
					if (w > matches[x]) {
						// overwrite with parent
						matches[x] = w;
					}
				}
				searching = 1;
			}
		}
		if (!searching)
			return;
		var params = get_params();
		params.s = currentSearchTerm;
		history.replaceState(null, null, parse_params(params));

		searchbtn.classList.add("show");
		searchbtn.firstChild.nodeValue = "Reset Search";

		// calculate percent matched, excluding vertical overlap
		var count = 0;
		var lastx = -1;
		var lastw = 0;
		var keys = Array();
		for (k in matches) {
			if (matches.hasOwnProperty(k))
				keys.push(k);
		}
		// sort the matched frames by their x location
		// ascending, then width descending
		keys.sort(function(a, b){
			return a - b;
		});
		// Step through frames saving only the biggest bottom-up frames
		// thanks to the sort order. This relies on the tree property
		// where children are always smaller than their parents.
		var fudge = 0.0001;	// JavaScript floating point
		for (var k in keys) {
			var x = parseFloat(keys[k]);
			var w = matches[keys[k]];
			if (x >= lastx + lastw - fudge) {
				count += w;
				lastx = x;
				lastw = w;
			}
		}
		// display matched percent
		matchedtxt.classList.remove("hide");
		var pct = 100 * count / maxwidth;
		if (pct != 100) pct = pct.toFixed(1)
		matchedtxt.firstChild.nodeValue = "Matched: " + pct + "%";
	}
]]>
</script>
<rect x="0.0" y="0" width="1200.0" height="358.0" fill="url(#background)"  />
<text id="title" x="600.00" y="24" >Flame Graph</text>
<text id="details" x="10.00" y="341" > </text>
<text id="unzoom" x="10.00" y="24" class="hide">Reset Zoom</text>
<text id="search" x="1090.00" y="24" >Search</text>
<text id="ignorecase" x="1174.00" y="24" >ic</text>
<text id="matched" x="1090.00" y="341" > </text>
<g id="frames">
<g >
<title>__sched_yield (1,777,777,760 samples, 5.54%)</title><rect x="77.9" y="229" width="65.4" height="15.0" fill="rgb(216,10,3)" rx="2" ry="2" />
<text  x="80.95" y="239.5" >__sched..</text>
</g>
<g >
<title>[[kernel.kallsyms]] (10,101,010 samples, 0.03%)</title><rect x="21.1" y="181" width="0.4" height="15.0" fill="rgb(234,15,48)" rx="2" ry="2" />
<text  x="24.14" y="191.5" ></text>
</g>
<g >
<title>pthread_self@plt (10,101,010 samples, 0.03%)</title><rect x="210.1" y="277" width="0.4" height="15.0" fill="rgb(244,15,34)" rx="2" ry="2" />
<text  x="213.13" y="287.5" ></text>
</g>
<g >
<title>Hoard::HoardManager&lt;Hoard::AlignedSuperblockHeap&lt;HL::SpinLockType, 262144ul, Hoard::MmapSource&gt;, Hoard::GlobalHeap&lt;262144ul, Hoard::HoardSuperblockHeader, 8, Hoard::MmapSource, HL::SpinLockType&gt;, Hoard::HoardSuperblock&lt;HL::SpinLockType, 262144, Hoard::SmallHeap, Hoard::HoardSuperblockHeader&gt;, 8, HL::SpinLockType, Hoard::hoardThresholdFunctionClass, Hoard::SmallHeap&gt;::lock (171,717,170 samples, 0.53%)</title><rect x="14.5" y="277" width="6.3" height="15.0" fill="rgb(223,221,50)" rx="2" ry="2" />
<text  x="17.46" y="287.5" ></text>
</g>
<g >
<title>[[kernel.kallsyms]] (60,606,060 samples, 0.19%)</title><rect x="170.4" y="213" width="2.2" height="15.0" fill="rgb(232,36,11)" rx="2" ry="2" />
<text  x="173.40" y="223.5" ></text>
</g>
<g >
<title>[unknown] (10,101,010 samples, 0.03%)</title><rect x="10.0" y="277" width="0.4" height="15.0" fill="rgb(247,155,45)" rx="2" ry="2" />
<text  x="13.00" y="287.5" ></text>
</g>
<g >
<title>thread_fence (10,101,010 samples, 0.03%)</title><rect x="144.0" y="261" width="0.4" height="15.0" fill="rgb(225,112,47)" rx="2" ry="2" />
<text  x="147.04" y="271.5" ></text>
</g>
<g >
<title>[[kernel.kallsyms]] (10,101,010 samples, 0.03%)</title><rect x="21.1" y="133" width="0.4" height="15.0" fill="rgb(206,46,12)" rx="2" ry="2" />
<text  x="24.14" y="143.5" ></text>
</g>
<g >
<title>[[kernel.kallsyms]] (10,101,010 samples, 0.03%)</title><rect x="10.0" y="229" width="0.4" height="15.0" fill="rgb(217,156,51)" rx="2" ry="2" />
<text  x="13.00" y="239.5" ></text>
</g>
<g >
<title>[[kernel.kallsyms]] (10,101,010 samples, 0.03%)</title><rect x="21.1" y="149" width="0.4" height="15.0" fill="rgb(210,17,10)" rx="2" ry="2" />
<text  x="24.14" y="159.5" ></text>
</g>
<g >
<title>[[kernel.kallsyms]] (1,020,202,010 samples, 3.18%)</title><rect x="105.8" y="197" width="37.5" height="15.0" fill="rgb(223,181,17)" rx="2" ry="2" />
<text  x="108.80" y="207.5" >[[k..</text>
</g>
<g >
<title>[[kernel.kallsyms]] (60,606,060 samples, 0.19%)</title><rect x="170.4" y="245" width="2.2" height="15.0" fill="rgb(239,55,8)" rx="2" ry="2" />
<text  x="173.40" y="255.5" ></text>
</g>
<g >
<title>[[kernel.kallsyms]] (20,202,020 samples, 0.06%)</title><rect x="169.3" y="181" width="0.7" height="15.0" fill="rgb(221,138,8)" rx="2" ry="2" />
<text  x="172.29" y="191.5" ></text>
</g>
<g >
<title>HL::HybridHeap&lt;32768, Hoard::ThreadPoolHeap&lt;2048, 128, Hoard::PerThreadHoardHeap&gt;, Hoard::BigHeap&gt;::free (50,505,050 samples, 0.16%)</title><rect x="22.3" y="229" width="1.8" height="15.0" fill="rgb(221,128,53)" rx="2" ry="2" />
<text  x="25.25" y="239.5" ></text>
</g>
<g >
<title>__getpid (10,101,010 samples, 0.03%)</title><rect x="10.7" y="261" width="0.4" height="15.0" fill="rgb(235,110,10)" rx="2" ry="2" />
<text  x="13.74" y="271.5" ></text>
</g>
<g >
<title>[[kernel.kallsyms]] (20,202,020 samples, 0.06%)</title><rect x="169.3" y="245" width="0.7" height="15.0" fill="rgb(223,185,4)" rx="2" ry="2" />
<text  x="172.29" y="255.5" ></text>
</g>
<g >
<title>[[kernel.kallsyms]] (10,101,010 samples, 0.03%)</title><rect x="163.0" y="101" width="0.3" height="15.0" fill="rgb(236,157,22)" rx="2" ry="2" />
<text  x="165.98" y="111.5" ></text>
</g>
<g >
<title>[[kernel.kallsyms]] (10,101,010 samples, 0.03%)</title><rect x="10.0" y="245" width="0.4" height="15.0" fill="rgb(225,209,2)" rx="2" ry="2" />
<text  x="13.00" y="255.5" ></text>
</g>
<g >
<title>[[kernel.kallsyms]] (10,101,010 samples, 0.03%)</title><rect x="21.1" y="117" width="0.4" height="15.0" fill="rgb(218,115,11)" rx="2" ry="2" />
<text  x="24.14" y="127.5" ></text>
</g>
<g >
<title>swapper (26,636,363,370 samples, 82.98%)</title><rect x="210.9" y="293" width="979.1" height="15.0" fill="rgb(227,153,27)" rx="2" ry="2" />
<text  x="213.87" y="303.5" >swapper</text>
</g>
<g >
<title>[[kernel.kallsyms]] (10,101,010 samples, 0.03%)</title><rect x="21.1" y="277" width="0.4" height="15.0" fill="rgb(212,39,31)" rx="2" ry="2" />
<text  x="24.14" y="287.5" ></text>
</g>
<g >
<title>[[kernel.kallsyms]] (40,404,040 samples, 0.13%)</title><rect x="161.9" y="213" width="1.4" height="15.0" fill="rgb(246,128,1)" rx="2" ry="2" />
<text  x="164.86" y="223.5" ></text>
</g>
<g >
<title>Hoard::HoardManager&lt;Hoard::AlignedSuperblockHeap&lt;HL::SpinLockType, 262144ul, Hoard::MmapSource&gt;, Hoard::GlobalHeap&lt;262144ul, Hoard::HoardSuperblockHeader, 8, Hoard::MmapSource, HL::SpinLockType&gt;, Hoard::HoardSuperblock&lt;HL::SpinLockType, 262144, Hoard::SmallHeap, Hoard::HoardSuperblockHeader&gt;, 8, HL::SpinLockType, Hoard::hoardThresholdFunctionClass, Hoard::SmallHeap&gt;::unlock (30,303,030 samples, 0.09%)</title><rect x="76.8" y="229" width="1.1" height="15.0" fill="rgb(209,48,4)" rx="2" ry="2" />
<text  x="79.83" y="239.5" ></text>
</g>
<g >
<title>Hoard::HoardManager&lt;Hoard::AlignedSuperblockHeap&lt;HL::SpinLockType, 262144ul, Hoard::MmapSource&gt;, Hoard::GlobalHeap&lt;262144ul, Hoard::HoardSuperblockHeader, 8, Hoard::MmapSource, HL::SpinLockType&gt;, Hoard::HoardSuperblock&lt;HL::SpinLockType, 262144, Hoard::SmallHeap, Hoard::HoardSuperblockHeader&gt;, 8, HL::SpinLockType, Hoard::hoardThresholdFunctionClass, Hoard::SmallHeap&gt;::lock (40,404,040 samples, 0.13%)</title><rect x="75.3" y="229" width="1.5" height="15.0" fill="rgb(207,79,45)" rx="2" ry="2" />
<text  x="78.35" y="239.5" ></text>
</g>
<g >
<title>[unknown] (13,353,535,220 samples, 41.60%)</title><rect x="699.1" y="245" width="490.9" height="15.0" fill="rgb(234,218,10)" rx="2" ry="2" />
<text  x="702.14" y="255.5" >[unknown]</text>
</g>
<g >
<title>[[kernel.kallsyms]] (13,282,828,150 samples, 41.38%)</title><rect x="210.9" y="213" width="488.2" height="15.0" fill="rgb(209,16,39)" rx="2" ry="2" />
<text  x="213.87" y="223.5" >[[kernel.kallsyms]]</text>
</g>
<g >
<title>[[kernel.kallsyms]] (13,353,535,220 samples, 41.60%)</title><rect x="699.1" y="165" width="490.9" height="15.0" fill="rgb(212,228,19)" rx="2" ry="2" />
<text  x="702.14" y="175.5" >[[kernel.kallsyms]]</text>
</g>
<g >
<title>thread_sleep (10,101,010 samples, 0.03%)</title><rect x="144.4" y="261" width="0.4" height="15.0" fill="rgb(238,159,18)" rx="2" ry="2" />
<text  x="147.41" y="271.5" ></text>
</g>
<g >
<title>[[kernel.kallsyms]] (10,101,010 samples, 0.03%)</title><rect x="21.1" y="85" width="0.4" height="15.0" fill="rgb(225,4,3)" rx="2" ry="2" />
<text  x="24.14" y="95.5" ></text>
</g>
<g >
<title>redis-server (10,101,010 samples, 0.03%)</title><rect x="10.7" y="293" width="0.4" height="15.0" fill="rgb(209,104,26)" rx="2" ry="2" />
<text  x="13.74" y="303.5" ></text>
</g>
<g >
<title>[[kernel.kallsyms]] (383,838,380 samples, 1.20%)</title><rect x="191.9" y="149" width="14.1" height="15.0" fill="rgb(213,43,32)" rx="2" ry="2" />
<text  x="194.94" y="159.5" ></text>
</g>
<g >
<title>[[kernel.kallsyms]] (13,262,626,130 samples, 41.32%)</title><rect x="211.6" y="197" width="487.5" height="15.0" fill="rgb(250,9,16)" rx="2" ry="2" />
<text  x="214.62" y="207.5" >[[kernel.kallsyms]]</text>
</g>
<g >
<title>clock_gettime@GLIBC_2.2.5 (20,202,020 samples, 0.06%)</title><rect x="182.7" y="277" width="0.7" height="15.0" fill="rgb(234,95,6)" rx="2" ry="2" />
<text  x="185.66" y="287.5" ></text>
</g>
<g >
<title>[[kernel.kallsyms]] (13,353,535,220 samples, 41.60%)</title><rect x="699.1" y="197" width="490.9" height="15.0" fill="rgb(241,194,48)" rx="2" ry="2" />
<text  x="702.14" y="207.5" >[[kernel.kallsyms]]</text>
</g>
<g >
<title>_IO_file_sync@@GLIBC_2.2.5 (10,101,010 samples, 0.03%)</title><rect x="143.3" y="261" width="0.4" height="15.0" fill="rgb(228,207,48)" rx="2" ry="2" />
<text  x="146.30" y="271.5" ></text>
</g>
<g >
<title>[[kernel.kallsyms]] (13,282,828,150 samples, 41.38%)</title><rect x="210.9" y="245" width="488.2" height="15.0" fill="rgb(220,228,25)" rx="2" ry="2" />
<text  x="213.87" y="255.5" >[[kernel.kallsyms]]</text>
</g>
<g >
<title>[[kernel.kallsyms]] (1,020,202,010 samples, 3.18%)</title><rect x="105.8" y="213" width="37.5" height="15.0" fill="rgb(245,152,0)" rx="2" ry="2" />
<text  x="108.80" y="223.5" >[[k..</text>
</g>
<g >
<title>[[kernel.kallsyms]] (989,898,980 samples, 3.08%)</title><rect x="106.9" y="181" width="36.4" height="15.0" fill="rgb(224,98,6)" rx="2" ry="2" />
<text  x="109.91" y="191.5" >[[k..</text>
</g>
<g >
<title>[[kernel.kallsyms]] (20,202,020 samples, 0.06%)</title><rect x="169.3" y="197" width="0.7" height="15.0" fill="rgb(250,58,42)" rx="2" ry="2" />
<text  x="172.29" y="207.5" ></text>
</g>
<g >
<title>[[kernel.kallsyms]] (10,101,010 samples, 0.03%)</title><rect x="210.5" y="245" width="0.4" height="15.0" fill="rgb(243,207,13)" rx="2" ry="2" />
<text  x="213.50" y="255.5" ></text>
</g>
<g >
<title>[[kernel.kallsyms]] (10,101,010 samples, 0.03%)</title><rect x="21.1" y="229" width="0.4" height="15.0" fill="rgb(233,122,23)" rx="2" ry="2" />
<text  x="24.14" y="239.5" ></text>
</g>
<g >
<title>[[kernel.kallsyms]] (464,646,460 samples, 1.45%)</title><rect x="189.0" y="181" width="17.0" height="15.0" fill="rgb(250,51,3)" rx="2" ry="2" />
<text  x="191.97" y="191.5" ></text>
</g>
<g >
<title>[[kernel.kallsyms]] (10,101,010 samples, 0.03%)</title><rect x="21.1" y="213" width="0.4" height="15.0" fill="rgb(221,197,14)" rx="2" ry="2" />
<text  x="24.14" y="223.5" ></text>
</g>
<g >
<title>[[kernel.kallsyms]] (60,606,060 samples, 0.19%)</title><rect x="170.4" y="229" width="2.2" height="15.0" fill="rgb(246,176,40)" rx="2" ry="2" />
<text  x="173.40" y="239.5" ></text>
</g>
<g >
<title>[[kernel.kallsyms]] (30,303,030 samples, 0.09%)</title><rect x="162.2" y="133" width="1.1" height="15.0" fill="rgb(235,184,36)" rx="2" ry="2" />
<text  x="165.23" y="143.5" ></text>
</g>
<g >
<title>[[kernel.kallsyms]] (26,636,363,370 samples, 82.98%)</title><rect x="210.9" y="277" width="979.1" height="15.0" fill="rgb(219,217,42)" rx="2" ry="2" />
<text  x="213.87" y="287.5" >[[kernel.kallsyms]]</text>
</g>
<g >
<title>[[kernel.kallsyms]] (50,505,050 samples, 0.16%)</title><rect x="170.8" y="165" width="1.8" height="15.0" fill="rgb(209,25,26)" rx="2" ry="2" />
<text  x="173.77" y="175.5" ></text>
</g>
<g >
<title>[[kernel.kallsyms]] (60,606,060 samples, 0.19%)</title><rect x="161.1" y="245" width="2.2" height="15.0" fill="rgb(236,133,7)" rx="2" ry="2" />
<text  x="164.12" y="255.5" ></text>
</g>
<g >
<title>[[kernel.kallsyms]] (383,838,380 samples, 1.20%)</title><rect x="191.9" y="133" width="14.1" height="15.0" fill="rgb(212,222,19)" rx="2" ry="2" />
<text  x="194.94" y="143.5" ></text>
</g>
<g >
<title>[[kernel.kallsyms]] (10,101,010 samples, 0.03%)</title><rect x="21.1" y="53" width="0.4" height="15.0" fill="rgb(243,210,19)" rx="2" ry="2" />
<text  x="24.14" y="63.5" ></text>
</g>
<g >
<title>[[kernel.kallsyms]] (10,101,010 samples, 0.03%)</title><rect x="210.5" y="229" width="0.4" height="15.0" fill="rgb(227,199,35)" rx="2" ry="2" />
<text  x="213.50" y="239.5" ></text>
</g>
<g >
<title>[unknown] (13,353,535,220 samples, 41.60%)</title><rect x="699.1" y="213" width="490.9" height="15.0" fill="rgb(208,133,15)" rx="2" ry="2" />
<text  x="702.14" y="223.5" >[unknown]</text>
</g>
<g >
<title>[unknown] (3,292,929,260 samples, 10.26%)</title><rect x="22.3" y="245" width="121.0" height="15.0" fill="rgb(205,215,30)" rx="2" ry="2" />
<text  x="25.25" y="255.5" >[unknown]</text>
</g>
<g >
<title>mmap64 (10,101,010 samples, 0.03%)</title><rect x="210.5" y="277" width="0.4" height="15.0" fill="rgb(253,155,54)" rx="2" ry="2" />
<text  x="213.50" y="287.5" ></text>
</g>
<g >
<title>[[kernel.kallsyms]] (10,101,010 samples, 0.03%)</title><rect x="21.1" y="37" width="0.4" height="15.0" fill="rgb(212,222,10)" rx="2" ry="2" />
<text  x="24.14" y="47.5" ></text>
</g>
<g >
<title>[[kernel.kallsyms]] (10,101,010 samples, 0.03%)</title><rect x="21.1" y="165" width="0.4" height="15.0" fill="rgb(208,128,8)" rx="2" ry="2" />
<text  x="24.14" y="175.5" ></text>
</g>
<g >
<title>[[kernel.kallsyms]] (585,858,580 samples, 1.83%)</title><rect x="121.8" y="133" width="21.5" height="15.0" fill="rgb(233,15,0)" rx="2" ry="2" />
<text  x="124.76" y="143.5" >[..</text>
</g>
<g >
<title>[unknown] (13,353,535,220 samples, 41.60%)</title><rect x="699.1" y="261" width="490.9" height="15.0" fill="rgb(241,18,44)" rx="2" ry="2" />
<text  x="702.14" y="271.5" >[unknown]</text>
</g>
<g >
<title>exitRoutine (10,101,010 samples, 0.03%)</title><rect x="207.9" y="277" width="0.4" height="15.0" fill="rgb(205,35,37)" rx="2" ry="2" />
<text  x="210.90" y="287.5" ></text>
</g>
<g >
<title>[[kernel.kallsyms]] (10,101,010 samples, 0.03%)</title><rect x="21.1" y="101" width="0.4" height="15.0" fill="rgb(235,65,29)" rx="2" ry="2" />
<text  x="24.14" y="111.5" ></text>
</g>
<g >
<title>[[kernel.kallsyms]] (10,101,010 samples, 0.03%)</title><rect x="21.1" y="261" width="0.4" height="15.0" fill="rgb(211,80,45)" rx="2" ry="2" />
<text  x="24.14" y="271.5" ></text>
</g>
<g >
<title>[[kernel.kallsyms]] (585,858,580 samples, 1.83%)</title><rect x="121.8" y="149" width="21.5" height="15.0" fill="rgb(214,28,0)" rx="2" ry="2" />
<text  x="124.76" y="159.5" >[..</text>
</g>
<g >
<title>[[kernel.kallsyms]] (10,101,010 samples, 0.03%)</title><rect x="21.1" y="245" width="0.4" height="15.0" fill="rgb(253,6,52)" rx="2" ry="2" />
<text  x="24.14" y="255.5" ></text>
</g>
<g >
<title>[unknown] (3,333,333,300 samples, 10.38%)</title><rect x="22.3" y="277" width="122.5" height="15.0" fill="rgb(212,174,16)" rx="2" ry="2" />
<text  x="25.25" y="287.5" >[unknown]</text>
</g>
<g >
<title>[[kernel.kallsyms]] (10,101,010 samples, 0.03%)</title><rect x="10.0" y="197" width="0.4" height="15.0" fill="rgb(244,141,25)" rx="2" ry="2" />
<text  x="13.00" y="207.5" ></text>
</g>
<g >
<title>[[kernel.kallsyms]] (10,101,010 samples, 0.03%)</title><rect x="169.7" y="165" width="0.3" height="15.0" fill="rgb(216,147,44)" rx="2" ry="2" />
<text  x="172.66" y="175.5" ></text>
</g>
<g >
<title>[[kernel.kallsyms]] (10,101,010 samples, 0.03%)</title><rect x="21.1" y="197" width="0.4" height="15.0" fill="rgb(229,27,32)" rx="2" ry="2" />
<text  x="24.14" y="207.5" ></text>
</g>
<g >
<title>Hoard::HoardSuperblockHeader&lt;HL::SpinLockType, 262144, Hoard::SmallHeap&gt;::~HoardSuperblockHeader (3,292,929,260 samples, 10.26%)</title><rect x="22.3" y="261" width="121.0" height="15.0" fill="rgb(224,131,34)" rx="2" ry="2" />
<text  x="25.25" y="271.5" >Hoard::HoardSup..</text>
</g>
<g >
<title>HL::HybridHeap&lt;32768, Hoard::ThreadPoolHeap&lt;2048, 128, Hoard::PerThreadHoardHeap&gt;, Hoard::BigHeap&gt;::free (10,101,010 samples, 0.03%)</title><rect x="11.1" y="277" width="0.4" height="15.0" fill="rgb(219,62,14)" rx="2" ry="2" />
<text  x="14.11" y="287.5" ></text>
</g>
<g >
<title>[[kernel.kallsyms]] (30,303,030 samples, 0.09%)</title><rect x="162.2" y="165" width="1.1" height="15.0" fill="rgb(216,90,4)" rx="2" ry="2" />
<text  x="165.23" y="175.5" ></text>
</g>
<g >
<title>[bash] (10,101,010 samples, 0.03%)</title><rect x="10.0" y="261" width="0.4" height="15.0" fill="rgb(252,105,9)" rx="2" ry="2" />
<text  x="13.00" y="271.5" ></text>
</g>
<g >
<title>[[kernel.kallsyms]] (20,202,020 samples, 0.06%)</title><rect x="169.3" y="213" width="0.7" height="15.0" fill="rgb(208,218,18)" rx="2" ry="2" />
<text  x="172.29" y="223.5" ></text>
</g>
<g >
<title>__memset_avx2_erms (505,050,500 samples, 1.57%)</title><rect x="144.8" y="277" width="18.5" height="15.0" fill="rgb(253,67,5)" rx="2" ry="2" />
<text  x="147.78" y="287.5" ></text>
</g>
<g >
<title>__vdso_clock_gettime (20,202,020 samples, 0.06%)</title><rect x="182.7" y="261" width="0.7" height="15.0" fill="rgb(218,164,6)" rx="2" ry="2" />
<text  x="185.66" y="271.5" ></text>
</g>
<g >
<title>HL::SpinLockType::contendedLock (1,393,939,380 samples, 4.34%)</title><rect x="24.1" y="229" width="51.2" height="15.0" fill="rgb(231,195,42)" rx="2" ry="2" />
<text  x="27.11" y="239.5" >HL::S..</text>
</g>
<g >
<title>clock_nanosleep@@GLIBC_2.17 (10,101,010 samples, 0.03%)</title><rect x="143.7" y="261" width="0.3" height="15.0" fill="rgb(232,212,36)" rx="2" ry="2" />
<text  x="146.67" y="271.5" ></text>
</g>
<g >
<title>[[kernel.kallsyms]] (13,282,828,150 samples, 41.38%)</title><rect x="210.9" y="229" width="488.2" height="15.0" fill="rgb(239,29,26)" rx="2" ry="2" />
<text  x="213.87" y="239.5" >[[kernel.kallsyms]]</text>
</g>
<g >
<title>rptest (5,424,242,370 samples, 16.90%)</title><rect x="11.1" y="293" width="199.4" height="15.0" fill="rgb(236,79,47)" rx="2" ry="2" />
<text  x="14.11" y="303.5" >rptest</text>
</g>
<g >
<title>[[kernel.kallsyms]] (13,313,131,180 samples, 41.47%)</title><rect x="700.6" y="117" width="489.4" height="15.0" fill="rgb(221,119,20)" rx="2" ry="2" />
<text  x="703.62" y="127.5" >[[kernel.kallsyms]]</text>
</g>
<g >
<title>[unknown] (10,101,010 samples, 0.03%)</title><rect x="10.7" y="277" width="0.4" height="15.0" fill="rgb(234,81,34)" rx="2" ry="2" />
<text  x="13.74" y="287.5" ></text>
</g>
<g >
<title>[[kernel.kallsyms]] (13,313,131,180 samples, 41.47%)</title><rect x="700.6" y="133" width="489.4" height="15.0" fill="rgb(240,122,54)" rx="2" ry="2" />
<text  x="703.62" y="143.5" >[[kernel.kallsyms]]</text>
</g>
<g >
<title>[[kernel.kallsyms]] (515,151,510 samples, 1.60%)</title><rect x="187.1" y="261" width="18.9" height="15.0" fill="rgb(249,4,38)" rx="2" ry="2" />
<text  x="190.11" y="271.5" ></text>
</g>
<g >
<title>[[kernel.kallsyms]] (10,101,010 samples, 0.03%)</title><rect x="21.1" y="69" width="0.4" height="15.0" fill="rgb(223,228,0)" rx="2" ry="2" />
<text  x="24.14" y="79.5" ></text>
</g>
<g >
<title>customfree (20,202,020 samples, 0.06%)</title><rect x="207.2" y="277" width="0.7" height="15.0" fill="rgb(213,89,12)" rx="2" ry="2" />
<text  x="210.16" y="287.5" ></text>
</g>
<g >
<title>[[kernel.kallsyms]] (50,505,050 samples, 0.16%)</title><rect x="170.8" y="197" width="1.8" height="15.0" fill="rgb(234,107,22)" rx="2" ry="2" />
<text  x="173.77" y="207.5" ></text>
</g>
<g >
<title>__sched_yield (70,707,070 samples, 0.22%)</title><rect x="170.0" y="277" width="2.6" height="15.0" fill="rgb(217,117,43)" rx="2" ry="2" />
<text  x="173.03" y="287.5" ></text>
</g>
<g >
<title>[rptest] (20,202,020 samples, 0.06%)</title><rect x="21.5" y="277" width="0.8" height="15.0" fill="rgb(237,89,20)" rx="2" ry="2" />
<text  x="24.51" y="287.5" ></text>
</g>
<g >
<title>[[kernel.kallsyms]] (454,545,450 samples, 1.42%)</title><rect x="189.3" y="165" width="16.7" height="15.0" fill="rgb(229,198,30)" rx="2" ry="2" />
<text  x="192.34" y="175.5" ></text>
</g>
<g >
<title>clock_nanosleep@@GLIBC_2.17 (616,161,610 samples, 1.92%)</title><rect x="183.4" y="277" width="22.6" height="15.0" fill="rgb(252,223,44)" rx="2" ry="2" />
<text  x="186.40" y="287.5" >c..</text>
</g>
<g >
<title>customcalloc (30,303,030 samples, 0.09%)</title><rect x="206.0" y="277" width="1.2" height="15.0" fill="rgb(213,222,31)" rx="2" ry="2" />
<text  x="209.05" y="287.5" ></text>
</g>
<g >
<title>benchmark_worker (272,727,270 samples, 0.85%)</title><rect x="172.6" y="277" width="10.1" height="15.0" fill="rgb(220,144,48)" rx="2" ry="2" />
<text  x="175.63" y="287.5" ></text>
</g>
<g >
<title>[unknown] (13,353,535,220 samples, 41.60%)</title><rect x="699.1" y="229" width="490.9" height="15.0" fill="rgb(218,106,7)" rx="2" ry="2" />
<text  x="702.14" y="239.5" >[unknown]</text>
</g>
<g >
<title>all (32,101,009,780 samples, 100%)</title><rect x="10.0" y="309" width="1180.0" height="15.0" fill="rgb(226,129,30)" rx="2" ry="2" />
<text  x="13.00" y="319.5" ></text>
</g>
<g >
<title>__memset_avx2_unaligned_erms (181,818,180 samples, 0.57%)</title><rect x="163.3" y="277" width="6.7" height="15.0" fill="rgb(250,1,32)" rx="2" ry="2" />
<text  x="166.35" y="287.5" ></text>
</g>
<g >
<title>[[kernel.kallsyms]] (30,303,030 samples, 0.09%)</title><rect x="162.2" y="181" width="1.1" height="15.0" fill="rgb(218,45,42)" rx="2" ry="2" />
<text  x="165.23" y="191.5" ></text>
</g>
<g >
<title>[[kernel.kallsyms]] (60,606,060 samples, 0.19%)</title><rect x="161.1" y="229" width="2.2" height="15.0" fill="rgb(217,179,4)" rx="2" ry="2" />
<text  x="164.12" y="239.5" ></text>
</g>
<g >
<title>[[kernel.kallsyms]] (30,303,030 samples, 0.09%)</title><rect x="162.2" y="197" width="1.1" height="15.0" fill="rgb(252,63,15)" rx="2" ry="2" />
<text  x="165.23" y="207.5" ></text>
</g>
<g >
<title>generic_xxmemalign (40,404,040 samples, 0.13%)</title><rect x="208.3" y="277" width="1.5" height="15.0" fill="rgb(240,162,34)" rx="2" ry="2" />
<text  x="211.28" y="287.5" ></text>
</g>
<g >
<title>[[kernel.kallsyms]] (60,606,060 samples, 0.19%)</title><rect x="170.4" y="261" width="2.2" height="15.0" fill="rgb(232,205,37)" rx="2" ry="2" />
<text  x="173.40" y="271.5" ></text>
</g>
<g >
<title>Hoard::HoardManager&lt;Hoard::AlignedSuperblockHeap&lt;HL::SpinLockType, 262144ul, Hoard::MmapSource&gt;, Hoard::GlobalHeap&lt;262144ul, Hoard::HoardSuperblockHeader, 8, Hoard::MmapSource, HL::SpinLockType&gt;, Hoard::HoardSuperblock&lt;HL::SpinLockType, 262144, Hoard::SmallHeap, Hoard::HoardSuperblockHeader&gt;, 8, HL::SpinLockType, Hoard::hoardThresholdFunctionClass, Hoard::SmallHeap&gt;::unlock (10,101,010 samples, 0.03%)</title><rect x="20.8" y="277" width="0.3" height="15.0" fill="rgb(217,197,6)" rx="2" ry="2" />
<text  x="23.77" y="287.5" ></text>
</g>
<g >
<title>[[kernel.kallsyms]] (50,505,050 samples, 0.16%)</title><rect x="170.8" y="181" width="1.8" height="15.0" fill="rgb(231,204,0)" rx="2" ry="2" />
<text  x="173.77" y="191.5" ></text>
</g>
<g >
<title>[[kernel.kallsyms]] (474,747,470 samples, 1.48%)</title><rect x="188.6" y="213" width="17.4" height="15.0" fill="rgb(239,21,30)" rx="2" ry="2" />
<text  x="191.60" y="223.5" ></text>
</g>
<g >
<title>[[kernel.kallsyms]] (585,858,580 samples, 1.83%)</title><rect x="121.8" y="117" width="21.5" height="15.0" fill="rgb(231,139,27)" rx="2" ry="2" />
<text  x="124.76" y="127.5" >[..</text>
</g>
<g >
<title>[[kernel.kallsyms]] (30,303,030 samples, 0.09%)</title><rect x="162.2" y="149" width="1.1" height="15.0" fill="rgb(218,0,44)" rx="2" ry="2" />
<text  x="165.23" y="159.5" ></text>
</g>
<g >
<title>strcmp (10,101,010 samples, 0.03%)</title><rect x="10.4" y="277" width="0.3" height="15.0" fill="rgb(245,30,17)" rx="2" ry="2" />
<text  x="13.37" y="287.5" ></text>
</g>
<g >
<title>[[kernel.kallsyms]] (10,101,010 samples, 0.03%)</title><rect x="169.7" y="133" width="0.3" height="15.0" fill="rgb(253,106,39)" rx="2" ry="2" />
<text  x="172.66" y="143.5" ></text>
</g>
<g >
<title>sed (10,101,010 samples, 0.03%)</title><rect x="210.5" y="293" width="0.4" height="15.0" fill="rgb(226,21,29)" rx="2" ry="2" />
<text  x="213.50" y="303.5" ></text>
</g>
<g >
<title>[[kernel.kallsyms]] (20,202,020 samples, 0.06%)</title><rect x="169.3" y="261" width="0.7" height="15.0" fill="rgb(246,59,4)" rx="2" ry="2" />
<text  x="172.29" y="271.5" ></text>
</g>
<g >
<title>[[kernel.kallsyms]] (10,101,010 samples, 0.03%)</title><rect x="210.5" y="261" width="0.4" height="15.0" fill="rgb(205,129,10)" rx="2" ry="2" />
<text  x="213.50" y="271.5" ></text>
</g>
<g >
<title>[[kernel.kallsyms]] (10,101,010 samples, 0.03%)</title><rect x="169.7" y="149" width="0.3" height="15.0" fill="rgb(249,11,47)" rx="2" ry="2" />
<text  x="172.66" y="159.5" ></text>
</g>
<g >
<title>HL::HybridHeap&lt;32768, Hoard::ThreadPoolHeap&lt;2048, 128, Hoard::PerThreadHoardHeap&gt;, Hoard::BigHeap&gt;::malloc (40,404,040 samples, 0.13%)</title><rect x="11.5" y="277" width="1.5" height="15.0" fill="rgb(248,28,1)" rx="2" ry="2" />
<text  x="14.49" y="287.5" ></text>
</g>
<g >
<title>[[kernel.kallsyms]] (13,353,535,220 samples, 41.60%)</title><rect x="699.1" y="149" width="490.9" height="15.0" fill="rgb(229,117,52)" rx="2" ry="2" />
<text  x="702.14" y="159.5" >[[kernel.kallsyms]]</text>
</g>
<g >
<title>[[kernel.kallsyms]] (13,262,626,130 samples, 41.32%)</title><rect x="211.6" y="181" width="487.5" height="15.0" fill="rgb(244,36,2)" rx="2" ry="2" />
<text  x="214.62" y="191.5" >[[kernel.kallsyms]]</text>
</g>
<g >
<title>[[kernel.kallsyms]] (10,101,010 samples, 0.03%)</title><rect x="210.5" y="213" width="0.4" height="15.0" fill="rgb(238,24,32)" rx="2" ry="2" />
<text  x="213.50" y="223.5" ></text>
</g>
<g >
<title>[[kernel.kallsyms]] (515,151,510 samples, 1.60%)</title><rect x="187.1" y="245" width="18.9" height="15.0" fill="rgb(208,211,39)" rx="2" ry="2" />
<text  x="190.11" y="255.5" ></text>
</g>
<g >
<title>[[kernel.kallsyms]] (474,747,470 samples, 1.48%)</title><rect x="188.6" y="197" width="17.4" height="15.0" fill="rgb(212,131,41)" rx="2" ry="2" />
<text  x="191.60" y="207.5" ></text>
</g>
<g >
<title>[[kernel.kallsyms]] (10,101,010 samples, 0.03%)</title><rect x="10.0" y="213" width="0.4" height="15.0" fill="rgb(252,95,24)" rx="2" ry="2" />
<text  x="13.00" y="223.5" ></text>
</g>
<g >
<title>HL::SpinLockType::contendedLock (40,404,040 samples, 0.13%)</title><rect x="13.0" y="277" width="1.5" height="15.0" fill="rgb(245,132,16)" rx="2" ry="2" />
<text  x="15.97" y="287.5" ></text>
</g>
<g >
<title>[[kernel.kallsyms]] (505,050,500 samples, 1.57%)</title><rect x="187.5" y="229" width="18.5" height="15.0" fill="rgb(216,35,48)" rx="2" ry="2" />
<text  x="190.48" y="239.5" ></text>
</g>
<g >
<title>dirname (10,101,010 samples, 0.03%)</title><rect x="10.4" y="293" width="0.3" height="15.0" fill="rgb(234,172,53)" rx="2" ry="2" />
<text  x="13.37" y="303.5" ></text>
</g>
<g >
<title>[[kernel.kallsyms]] (767,676,760 samples, 2.39%)</title><rect x="115.1" y="165" width="28.2" height="15.0" fill="rgb(220,4,8)" rx="2" ry="2" />
<text  x="118.08" y="175.5" >[..</text>
</g>
<g >
<title>bench.sh (10,101,010 samples, 0.03%)</title><rect x="10.0" y="293" width="0.4" height="15.0" fill="rgb(228,70,14)" rx="2" ry="2" />
<text  x="13.00" y="303.5" ></text>
</g>
<g >
<title>memset@plt (10,101,010 samples, 0.03%)</title><rect x="209.8" y="277" width="0.3" height="15.0" fill="rgb(252,95,34)" rx="2" ry="2" />
<text  x="212.76" y="287.5" ></text>
</g>
<g >
<title>[[kernel.kallsyms]] (30,303,030 samples, 0.09%)</title><rect x="162.2" y="117" width="1.1" height="15.0" fill="rgb(228,5,40)" rx="2" ry="2" />
<text  x="165.23" y="127.5" ></text>
</g>
<g >
<title>[[kernel.kallsyms]] (13,353,535,220 samples, 41.60%)</title><rect x="699.1" y="181" width="490.9" height="15.0" fill="rgb(229,151,12)" rx="2" ry="2" />
<text  x="702.14" y="191.5" >[[kernel.kallsyms]]</text>
</g>
<g >
<title>[[kernel.kallsyms]] (13,282,828,150 samples, 41.38%)</title><rect x="210.9" y="261" width="488.2" height="15.0" fill="rgb(205,47,35)" rx="2" ry="2" />
<text  x="213.87" y="271.5" >[[kernel.kallsyms]]</text>
</g>
<g >
<title>[[kernel.kallsyms]] (60,606,060 samples, 0.19%)</title><rect x="161.1" y="261" width="2.2" height="15.0" fill="rgb(232,132,18)" rx="2" ry="2" />
<text  x="164.12" y="271.5" ></text>
</g>
<g >
<title>[[kernel.kallsyms]] (20,202,020 samples, 0.06%)</title><rect x="169.3" y="229" width="0.7" height="15.0" fill="rgb(249,77,36)" rx="2" ry="2" />
<text  x="172.29" y="239.5" ></text>
</g>
</g>
</svg>
