<?xml version="1.0" standalone="no"?>
<!DOCTYPE svg PUBLIC "-//W3C//DTD SVG 1.1//EN" "http://www.w3.org/Graphics/SVG/1.1/DTD/svg11.dtd">
<svg version="1.1" width="1200" height="294" onload="init(evt)" viewBox="0 0 1200 294" xmlns="http://www.w3.org/2000/svg" xmlns:xlink="http://www.w3.org/1999/xlink">
<!-- Flame graph stack visualization. See https://github.com/brendangregg/FlameGraph for latest version, and http://www.brendangregg.com/flamegraphs.html for examples. -->
<!-- NOTES:  -->
<defs>
	<linearGradient id="background" y1="0" y2="1" x1="0" x2="0" >
		<stop stop-color="#eeeeee" offset="5%" />
		<stop stop-color="#eeeeb0" offset="95%" />
	</linearGradient>
</defs>
<style type="text/css">
	text { font-family:Verdana; font-size:12px; fill:rgb(0,0,0); }
	#search, #ignorecase { opacity:0.1; cursor:pointer; }
	#search:hover, #search.show, #ignorecase:hover, #ignorecase.show { opacity:1; }
	#subtitle { text-anchor:middle; font-color:rgb(160,160,160); }
	#title { text-anchor:middle; font-size:17px}
	#unzoom { cursor:pointer; }
	#frames > *:hover { stroke:black; stroke-width:0.5; cursor:pointer; }
	.hide { display:none; }
	.parent { opacity:0.5; }
</style>
<script type="text/ecmascript">
<![CDATA[
	"use strict";
	var details, searchbtn, unzoombtn, matchedtxt, svg, searching, currentSearchTerm, ignorecase, ignorecaseBtn;
	function init(evt) {
		details = document.getElementById("details").firstChild;
		searchbtn = document.getElementById("search");
		ignorecaseBtn = document.getElementById("ignorecase");
		unzoombtn = document.getElementById("unzoom");
		matchedtxt = document.getElementById("matched");
		svg = document.getElementsByTagName("svg")[0];
		searching = 0;
		currentSearchTerm = null;

		// use GET parameters to restore a flamegraphs state.
		var params = get_params();
		if (params.x && params.y)
			zoom(find_group(document.querySelector('[x="' + params.x + '"][y="' + params.y + '"]')));
                if (params.s) search(params.s);
	}

	// event listeners
	window.addEventListener("click", function(e) {
		var target = find_group(e.target);
		if (target) {
			if (target.nodeName == "a") {
				if (e.ctrlKey === false) return;
				e.preventDefault();
			}
			if (target.classList.contains("parent")) unzoom(true);
			zoom(target);
			if (!document.querySelector('.parent')) {
				// we have basically done a clearzoom so clear the url
				var params = get_params();
				if (params.x) delete params.x;
				if (params.y) delete params.y;
				history.replaceState(null, null, parse_params(params));
				unzoombtn.classList.add("hide");
				return;
			}

			// set parameters for zoom state
			var el = target.querySelector("rect");
			if (el && el.attributes && el.attributes.y && el.attributes._orig_x) {
				var params = get_params()
				params.x = el.attributes._orig_x.value;
				params.y = el.attributes.y.value;
				history.replaceState(null, null, parse_params(params));
			}
		}
		else if (e.target.id == "unzoom") clearzoom();
		else if (e.target.id == "search") search_prompt();
		else if (e.target.id == "ignorecase") toggle_ignorecase();
	}, false)

	// mouse-over for info
	// show
	window.addEventListener("mouseover", function(e) {
		var target = find_group(e.target);
		if (target) details.nodeValue = "Function: " + g_to_text(target);
	}, false)

	// clear
	window.addEventListener("mouseout", function(e) {
		var target = find_group(e.target);
		if (target) details.nodeValue = ' ';
	}, false)

	// ctrl-F for search
	// ctrl-I to toggle case-sensitive search
	window.addEventListener("keydown",function (e) {
		if (e.keyCode === 114 || (e.ctrlKey && e.keyCode === 70)) {
			e.preventDefault();
			search_prompt();
		}
		else if (e.ctrlKey && e.keyCode === 73) {
			e.preventDefault();
			toggle_ignorecase();
		}
	}, false)

	// functions
	function get_params() {
		var params = {};
		var paramsarr = window.location.search.substr(1).split('&');
		for (var i = 0; i < paramsarr.length; ++i) {
			var tmp = paramsarr[i].split("=");
			if (!tmp[0] || !tmp[1]) continue;
			params[tmp[0]]  = decodeURIComponent(tmp[1]);
		}
		return params;
	}
	function parse_params(params) {
		var uri = "?";
		for (var key in params) {
			uri += key + '=' + encodeURIComponent(params[key]) + '&';
		}
		if (uri.slice(-1) == "&")
			uri = uri.substring(0, uri.length - 1);
		if (uri == '?')
			uri = window.location.href.split('?')[0];
		return uri;
	}
	function find_child(node, selector) {
		var children = node.querySelectorAll(selector);
		if (children.length) return children[0];
	}
	function find_group(node) {
		var parent = node.parentElement;
		if (!parent) return;
		if (parent.id == "frames") return node;
		return find_group(parent);
	}
	function orig_save(e, attr, val) {
		if (e.attributes["_orig_" + attr] != undefined) return;
		if (e.attributes[attr] == undefined) return;
		if (val == undefined) val = e.attributes[attr].value;
		e.setAttribute("_orig_" + attr, val);
	}
	function orig_load(e, attr) {
		if (e.attributes["_orig_"+attr] == undefined) return;
		e.attributes[attr].value = e.attributes["_orig_" + attr].value;
		e.removeAttribute("_orig_"+attr);
	}
	function g_to_text(e) {
		var text = find_child(e, "title").firstChild.nodeValue;
		return (text)
	}
	function g_to_func(e) {
		var func = g_to_text(e);
		// if there's any manipulation we want to do to the function
		// name before it's searched, do it here before returning.
		return (func);
	}
	function update_text(e) {
		var r = find_child(e, "rect");
		var t = find_child(e, "text");
		var w = parseFloat(r.attributes.width.value) -3;
		var txt = find_child(e, "title").textContent.replace(/\([^(]*\)$/,"");
		t.attributes.x.value = parseFloat(r.attributes.x.value) + 3;

		// Smaller than this size won't fit anything
		if (w < 2 * 12 * 0.59) {
			t.textContent = "";
			return;
		}

		t.textContent = txt;
		var sl = t.getSubStringLength(0, txt.length);
		// check if only whitespace or if we can fit the entire string into width w
		if (/^ *$/.test(txt) || sl < w)
			return;

		// this isn't perfect, but gives a good starting point
		// and avoids calling getSubStringLength too often
		var start = Math.floor((w/sl) * txt.length);
		for (var x = start; x > 0; x = x-2) {
			if (t.getSubStringLength(0, x + 2) <= w) {
				t.textContent = txt.substring(0, x) + "..";
				return;
			}
		}
		t.textContent = "";
	}

	// zoom
	function zoom_reset(e) {
		if (e.attributes != undefined) {
			orig_load(e, "x");
			orig_load(e, "width");
		}
		if (e.childNodes == undefined) return;
		for (var i = 0, c = e.childNodes; i < c.length; i++) {
			zoom_reset(c[i]);
		}
	}
	function zoom_child(e, x, ratio) {
		if (e.attributes != undefined) {
			if (e.attributes.x != undefined) {
				orig_save(e, "x");
				e.attributes.x.value = (parseFloat(e.attributes.x.value) - x - 10) * ratio + 10;
				if (e.tagName == "text")
					e.attributes.x.value = find_child(e.parentNode, "rect[x]").attributes.x.value + 3;
			}
			if (e.attributes.width != undefined) {
				orig_save(e, "width");
				e.attributes.width.value = parseFloat(e.attributes.width.value) * ratio;
			}
		}

		if (e.childNodes == undefined) return;
		for (var i = 0, c = e.childNodes; i < c.length; i++) {
			zoom_child(c[i], x - 10, ratio);
		}
	}
	function zoom_parent(e) {
		if (e.attributes) {
			if (e.attributes.x != undefined) {
				orig_save(e, "x");
				e.attributes.x.value = 10;
			}
			if (e.attributes.width != undefined) {
				orig_save(e, "width");
				e.attributes.width.value = parseInt(svg.width.baseVal.value) - (10 * 2);
			}
		}
		if (e.childNodes == undefined) return;
		for (var i = 0, c = e.childNodes; i < c.length; i++) {
			zoom_parent(c[i]);
		}
	}
	function zoom(node) {
		var attr = find_child(node, "rect").attributes;
		var width = parseFloat(attr.width.value);
		var xmin = parseFloat(attr.x.value);
		var xmax = parseFloat(xmin + width);
		var ymin = parseFloat(attr.y.value);
		var ratio = (svg.width.baseVal.value - 2 * 10) / width;

		// XXX: Workaround for JavaScript float issues (fix me)
		var fudge = 0.0001;

		unzoombtn.classList.remove("hide");

		var el = document.getElementById("frames").children;
		for (var i = 0; i < el.length; i++) {
			var e = el[i];
			var a = find_child(e, "rect").attributes;
			var ex = parseFloat(a.x.value);
			var ew = parseFloat(a.width.value);
			var upstack;
			// Is it an ancestor
			if (0 == 0) {
				upstack = parseFloat(a.y.value) > ymin;
			} else {
				upstack = parseFloat(a.y.value) < ymin;
			}
			if (upstack) {
				// Direct ancestor
				if (ex <= xmin && (ex+ew+fudge) >= xmax) {
					e.classList.add("parent");
					zoom_parent(e);
					update_text(e);
				}
				// not in current path
				else
					e.classList.add("hide");
			}
			// Children maybe
			else {
				// no common path
				if (ex < xmin || ex + fudge >= xmax) {
					e.classList.add("hide");
				}
				else {
					zoom_child(e, xmin, ratio);
					update_text(e);
				}
			}
		}
		search();
	}
	function unzoom(dont_update_text) {
		unzoombtn.classList.add("hide");
		var el = document.getElementById("frames").children;
		for(var i = 0; i < el.length; i++) {
			el[i].classList.remove("parent");
			el[i].classList.remove("hide");
			zoom_reset(el[i]);
			if(!dont_update_text) update_text(el[i]);
		}
		search();
	}
	function clearzoom() {
		unzoom();

		// remove zoom state
		var params = get_params();
		if (params.x) delete params.x;
		if (params.y) delete params.y;
		history.replaceState(null, null, parse_params(params));
	}

	// search
	function toggle_ignorecase() {
		ignorecase = !ignorecase;
		if (ignorecase) {
			ignorecaseBtn.classList.add("show");
		} else {
			ignorecaseBtn.classList.remove("show");
		}
		reset_search();
		search();
	}
	function reset_search() {
		var el = document.querySelectorAll("#frames rect");
		for (var i = 0; i < el.length; i++) {
			orig_load(el[i], "fill")
		}
		var params = get_params();
		delete params.s;
		history.replaceState(null, null, parse_params(params));
	}
	function search_prompt() {
		if (!searching) {
			var term = prompt("Enter a search term (regexp " +
			    "allowed, eg: ^ext4_)"
			    + (ignorecase ? ", ignoring case" : "")
			    + "\nPress Ctrl-i to toggle case sensitivity", "");
			if (term != null) search(term);
		} else {
			reset_search();
			searching = 0;
			currentSearchTerm = null;
			searchbtn.classList.remove("show");
			searchbtn.firstChild.nodeValue = "Search"
			matchedtxt.classList.add("hide");
			matchedtxt.firstChild.nodeValue = ""
		}
	}
	function search(term) {
		if (term) currentSearchTerm = term;

		var re = new RegExp(currentSearchTerm, ignorecase ? 'i' : '');
		var el = document.getElementById("frames").children;
		var matches = new Object();
		var maxwidth = 0;
		for (var i = 0; i < el.length; i++) {
			var e = el[i];
			var func = g_to_func(e);
			var rect = find_child(e, "rect");
			if (func == null || rect == null)
				continue;

			// Save max width. Only works as we have a root frame
			var w = parseFloat(rect.attributes.width.value);
			if (w > maxwidth)
				maxwidth = w;

			if (func.match(re)) {
				// highlight
				var x = parseFloat(rect.attributes.x.value);
				orig_save(rect, "fill");
				rect.attributes.fill.value = "rgb(230,0,230)";

				// remember matches
				if (matches[x] == undefined) {
					matches[x] = w;
				} else {
					if (w > matches[x]) {
						// overwrite with parent
						matches[x] = w;
					}
				}
				searching = 1;
			}
		}
		if (!searching)
			return;
		var params = get_params();
		params.s = currentSearchTerm;
		history.replaceState(null, null, parse_params(params));

		searchbtn.classList.add("show");
		searchbtn.firstChild.nodeValue = "Reset Search";

		// calculate percent matched, excluding vertical overlap
		var count = 0;
		var lastx = -1;
		var lastw = 0;
		var keys = Array();
		for (k in matches) {
			if (matches.hasOwnProperty(k))
				keys.push(k);
		}
		// sort the matched frames by their x location
		// ascending, then width descending
		keys.sort(function(a, b){
			return a - b;
		});
		// Step through frames saving only the biggest bottom-up frames
		// thanks to the sort order. This relies on the tree property
		// where children are always smaller than their parents.
		var fudge = 0.0001;	// JavaScript floating point
		for (var k in keys) {
			var x = parseFloat(keys[k]);
			var w = matches[keys[k]];
			if (x >= lastx + lastw - fudge) {
				count += w;
				lastx = x;
				lastw = w;
			}
		}
		// display matched percent
		matchedtxt.classList.remove("hide");
		var pct = 100 * count / maxwidth;
		if (pct != 100) pct = pct.toFixed(1)
		matchedtxt.firstChild.nodeValue = "Matched: " + pct + "%";
	}
]]>
</script>
<rect x="0.0" y="0" width="1200.0" height="294.0" fill="url(#background)"  />
<text id="title" x="600.00" y="24" >Flame Graph</text>
<text id="details" x="10.00" y="277" > </text>
<text id="unzoom" x="10.00" y="24" class="hide">Reset Zoom</text>
<text id="search" x="1090.00" y="24" >Search</text>
<text id="ignorecase" x="1174.00" y="24" >ic</text>
<text id="matched" x="1090.00" y="277" > </text>
<g id="frames">
<g >
<title>thread_sleep (10,101,010 samples, 0.03%)</title><rect x="87.6" y="213" width="0.4" height="15.0" fill="rgb(218,58,27)" rx="2" ry="2" />
<text  x="90.60" y="223.5" ></text>
</g>
<g >
<title>[unknown] (10,101,010 samples, 0.03%)</title><rect x="10.0" y="213" width="0.4" height="15.0" fill="rgb(250,60,4)" rx="2" ry="2" />
<text  x="13.00" y="223.5" ></text>
</g>
<g >
<title>[[kernel.kallsyms]] (10,101,010 samples, 0.03%)</title><rect x="43.8" y="69" width="0.4" height="15.0" fill="rgb(236,190,44)" rx="2" ry="2" />
<text  x="46.79" y="79.5" ></text>
</g>
<g >
<title>[unknown] (10,101,010 samples, 0.03%)</title><rect x="88.0" y="213" width="0.3" height="15.0" fill="rgb(211,40,17)" rx="2" ry="2" />
<text  x="90.97" y="223.5" ></text>
</g>
<g >
<title>[[kernel.kallsyms]] (10,101,010 samples, 0.03%)</title><rect x="11.1" y="165" width="0.4" height="15.0" fill="rgb(240,77,17)" rx="2" ry="2" />
<text  x="14.11" y="175.5" ></text>
</g>
<g >
<title>[[kernel.kallsyms]] (10,101,010 samples, 0.03%)</title><rect x="10.4" y="197" width="0.3" height="15.0" fill="rgb(243,229,18)" rx="2" ry="2" />
<text  x="13.37" y="207.5" ></text>
</g>
<g >
<title>tcmalloc::ThreadCache::ListTooLong (10,101,010 samples, 0.03%)</title><rect x="16.3" y="197" width="0.4" height="15.0" fill="rgb(217,24,18)" rx="2" ry="2" />
<text  x="19.31" y="207.5" ></text>
</g>
<g >
<title>sed (10,101,010 samples, 0.03%)</title><rect x="88.0" y="229" width="0.3" height="15.0" fill="rgb(241,223,11)" rx="2" ry="2" />
<text  x="90.97" y="239.5" ></text>
</g>
<g >
<title>drm_gem_duplicate_shadow_plane_state (10,101,010 samples, 0.03%)</title><rect x="11.1" y="69" width="0.4" height="15.0" fill="rgb(206,124,46)" rx="2" ry="2" />
<text  x="14.11" y="79.5" ></text>
</g>
<g >
<title>[[kernel.kallsyms]] (10,101,010 samples, 0.03%)</title><rect x="15.2" y="53" width="0.4" height="15.0" fill="rgb(253,58,30)" rx="2" ry="2" />
<text  x="18.20" y="63.5" ></text>
</g>
<g >
<title>glob_filename (10,101,010 samples, 0.03%)</title><rect x="10.0" y="197" width="0.4" height="15.0" fill="rgb(252,153,43)" rx="2" ry="2" />
<text  x="13.00" y="207.5" ></text>
</g>
<g >
<title>[[kernel.kallsyms]] (10,101,010 samples, 0.03%)</title><rect x="11.1" y="181" width="0.4" height="15.0" fill="rgb(239,8,39)" rx="2" ry="2" />
<text  x="14.11" y="191.5" ></text>
</g>
<g >
<title>[[kernel.kallsyms]] (10,101,010 samples, 0.03%)</title><rect x="88.0" y="101" width="0.3" height="15.0" fill="rgb(232,227,23)" rx="2" ry="2" />
<text  x="90.97" y="111.5" ></text>
</g>
<g >
<title>[[kernel.kallsyms]] (10,101,010 samples, 0.03%)</title><rect x="88.0" y="181" width="0.3" height="15.0" fill="rgb(215,3,30)" rx="2" ry="2" />
<text  x="90.97" y="191.5" ></text>
</g>
<g >
<title>[[kernel.kallsyms]] (10,101,010 samples, 0.03%)</title><rect x="88.0" y="133" width="0.3" height="15.0" fill="rgb(216,187,3)" rx="2" ry="2" />
<text  x="90.97" y="143.5" ></text>
</g>
<g >
<title>[[kernel.kallsyms]] (414,141,410 samples, 1.29%)</title><rect x="69.8" y="101" width="15.2" height="15.0" fill="rgb(245,28,38)" rx="2" ry="2" />
<text  x="72.78" y="111.5" ></text>
</g>
<g >
<title>__statfs (10,101,010 samples, 0.03%)</title><rect x="88.0" y="197" width="0.3" height="15.0" fill="rgb(226,104,30)" rx="2" ry="2" />
<text  x="90.97" y="207.5" ></text>
</g>
<g >
<title>[[kernel.kallsyms]] (10,101,010 samples, 0.03%)</title><rect x="10.4" y="165" width="0.3" height="15.0" fill="rgb(216,172,2)" rx="2" ry="2" />
<text  x="13.37" y="175.5" ></text>
</g>
<g >
<title>[unknown] (10,101,010 samples, 0.03%)</title><rect x="11.5" y="213" width="0.4" height="15.0" fill="rgb(252,102,31)" rx="2" ry="2" />
<text  x="14.49" y="223.5" ></text>
</g>
<g >
<title>[[kernel.kallsyms]] (484,848,480 samples, 1.51%)</title><rect x="67.2" y="165" width="17.8" height="15.0" fill="rgb(234,222,9)" rx="2" ry="2" />
<text  x="70.18" y="175.5" ></text>
</g>
<g >
<title>[[kernel.kallsyms]] (14,949,494,800 samples, 46.57%)</title><rect x="88.3" y="181" width="549.6" height="15.0" fill="rgb(231,174,22)" rx="2" ry="2" />
<text  x="91.34" y="191.5" >[[kernel.kallsyms]]</text>
</g>
<g >
<title>[[kernel.kallsyms]] (424,242,420 samples, 1.32%)</title><rect x="69.4" y="149" width="15.6" height="15.0" fill="rgb(206,197,46)" rx="2" ry="2" />
<text  x="72.41" y="159.5" ></text>
</g>
<g >
<title>[[kernel.kallsyms]] (10,101,010 samples, 0.03%)</title><rect x="11.1" y="213" width="0.4" height="15.0" fill="rgb(230,4,4)" rx="2" ry="2" />
<text  x="14.11" y="223.5" ></text>
</g>
<g >
<title>[[kernel.kallsyms]] (10,101,010 samples, 0.03%)</title><rect x="43.8" y="85" width="0.4" height="15.0" fill="rgb(215,91,39)" rx="2" ry="2" />
<text  x="46.79" y="95.5" ></text>
</g>
<g >
<title>[[kernel.kallsyms]] (15,010,100,860 samples, 46.76%)</title><rect x="638.2" y="69" width="551.8" height="15.0" fill="rgb(251,134,32)" rx="2" ry="2" />
<text  x="641.24" y="79.5" >[[kernel.kallsyms]]</text>
</g>
<g >
<title>[[kernel.kallsyms]] (10,101,010 samples, 0.03%)</title><rect x="10.0" y="69" width="0.4" height="15.0" fill="rgb(218,56,29)" rx="2" ry="2" />
<text  x="13.00" y="79.5" ></text>
</g>
<g >
<title>__open64_nocancel (10,101,010 samples, 0.03%)</title><rect x="10.0" y="181" width="0.4" height="15.0" fill="rgb(240,189,20)" rx="2" ry="2" />
<text  x="13.00" y="191.5" ></text>
</g>
<g >
<title>[[kernel.kallsyms]] (494,949,490 samples, 1.54%)</title><rect x="66.8" y="197" width="18.2" height="15.0" fill="rgb(251,181,41)" rx="2" ry="2" />
<text  x="69.81" y="207.5" ></text>
</g>
<g >
<title>[[kernel.kallsyms]] (10,101,010 samples, 0.03%)</title><rect x="11.1" y="197" width="0.4" height="15.0" fill="rgb(219,177,51)" rx="2" ry="2" />
<text  x="14.11" y="207.5" ></text>
</g>
<g >
<title>[[kernel.kallsyms]] (20,202,020 samples, 0.06%)</title><rect x="14.8" y="165" width="0.8" height="15.0" fill="rgb(216,186,48)" rx="2" ry="2" />
<text  x="17.83" y="175.5" ></text>
</g>
<g >
<title>[[kernel.kallsyms]] (20,202,020 samples, 0.06%)</title><rect x="14.8" y="181" width="0.8" height="15.0" fill="rgb(245,198,18)" rx="2" ry="2" />
<text  x="17.83" y="191.5" ></text>
</g>
<g >
<title>[[kernel.kallsyms]] (10,101,010 samples, 0.03%)</title><rect x="10.0" y="117" width="0.4" height="15.0" fill="rgb(251,110,22)" rx="2" ry="2" />
<text  x="13.00" y="127.5" ></text>
</g>
<g >
<title>[unknown] (15,020,201,870 samples, 46.79%)</title><rect x="637.9" y="181" width="552.1" height="15.0" fill="rgb(213,41,38)" rx="2" ry="2" />
<text  x="640.87" y="191.5" >[unknown]</text>
</g>
<g >
<title>[[kernel.kallsyms]] (10,101,010 samples, 0.03%)</title><rect x="10.0" y="101" width="0.4" height="15.0" fill="rgb(208,164,1)" rx="2" ry="2" />
<text  x="13.00" y="111.5" ></text>
</g>
<g >
<title>[[kernel.kallsyms]] (15,020,201,870 samples, 46.79%)</title><rect x="637.9" y="133" width="552.1" height="15.0" fill="rgb(237,92,40)" rx="2" ry="2" />
<text  x="640.87" y="143.5" >[[kernel.kallsyms]]</text>
</g>
<g >
<title>[[kernel.kallsyms]] (10,101,010 samples, 0.03%)</title><rect x="11.9" y="165" width="0.3" height="15.0" fill="rgb(223,11,49)" rx="2" ry="2" />
<text  x="14.86" y="175.5" ></text>
</g>
<g >
<title>[[kernel.kallsyms]] (10,101,010 samples, 0.03%)</title><rect x="88.0" y="165" width="0.3" height="15.0" fill="rgb(217,84,29)" rx="2" ry="2" />
<text  x="90.97" y="175.5" ></text>
</g>
<g >
<title>tcmalloc::CentralFreeList::ReleaseToSpans (20,202,020 samples, 0.06%)</title><rect x="15.6" y="197" width="0.7" height="15.0" fill="rgb(217,133,53)" rx="2" ry="2" />
<text  x="18.57" y="207.5" ></text>
</g>
<g >
<title>[[kernel.kallsyms]] (10,101,010 samples, 0.03%)</title><rect x="15.2" y="101" width="0.4" height="15.0" fill="rgb(229,85,6)" rx="2" ry="2" />
<text  x="18.20" y="111.5" ></text>
</g>
<g >
<title>[[kernel.kallsyms]] (20,202,020 samples, 0.06%)</title><rect x="14.8" y="149" width="0.8" height="15.0" fill="rgb(232,51,6)" rx="2" ry="2" />
<text  x="17.83" y="159.5" ></text>
</g>
<g >
<title>drm_gem_simple_kms_duplicate_shadow_plane_state (10,101,010 samples, 0.03%)</title><rect x="11.1" y="85" width="0.4" height="15.0" fill="rgb(215,180,19)" rx="2" ry="2" />
<text  x="14.11" y="95.5" ></text>
</g>
<g >
<title>[[kernel.kallsyms]] (20,202,020 samples, 0.06%)</title><rect x="43.4" y="149" width="0.8" height="15.0" fill="rgb(209,139,2)" rx="2" ry="2" />
<text  x="46.42" y="159.5" ></text>
</g>
<g >
<title>[[kernel.kallsyms]] (14,919,191,770 samples, 46.48%)</title><rect x="89.5" y="117" width="548.4" height="15.0" fill="rgb(249,215,26)" rx="2" ry="2" />
<text  x="92.46" y="127.5" >[[kernel.kallsyms]]</text>
</g>
<g >
<title>[[kernel.kallsyms]] (10,101,010 samples, 0.03%)</title><rect x="15.2" y="117" width="0.4" height="15.0" fill="rgb(207,11,9)" rx="2" ry="2" />
<text  x="18.20" y="127.5" ></text>
</g>
<g >
<title>[[kernel.kallsyms]] (10,101,010 samples, 0.03%)</title><rect x="10.0" y="149" width="0.4" height="15.0" fill="rgb(207,98,49)" rx="2" ry="2" />
<text  x="13.00" y="159.5" ></text>
</g>
<g >
<title>[[kernel.kallsyms]] (10,101,010 samples, 0.03%)</title><rect x="10.0" y="85" width="0.4" height="15.0" fill="rgb(248,20,20)" rx="2" ry="2" />
<text  x="13.00" y="95.5" ></text>
</g>
<g >
<title>[[kernel.kallsyms]] (15,020,201,870 samples, 46.79%)</title><rect x="637.9" y="117" width="552.1" height="15.0" fill="rgb(226,92,20)" rx="2" ry="2" />
<text  x="640.87" y="127.5" >[[kernel.kallsyms]]</text>
</g>
<g >
<title>[[kernel.kallsyms]] (15,010,100,860 samples, 46.76%)</title><rect x="638.2" y="53" width="551.8" height="15.0" fill="rgb(230,27,52)" rx="2" ry="2" />
<text  x="641.24" y="63.5" >[[kernel.kallsyms]]</text>
</g>
<g >
<title>[unknown] (15,020,201,870 samples, 46.79%)</title><rect x="637.9" y="165" width="552.1" height="15.0" fill="rgb(225,180,22)" rx="2" ry="2" />
<text  x="640.87" y="175.5" >[unknown]</text>
</g>
<g >
<title>_PyObject_GetMethod (10,101,010 samples, 0.03%)</title><rect x="11.5" y="197" width="0.4" height="15.0" fill="rgb(241,144,27)" rx="2" ry="2" />
<text  x="14.49" y="207.5" ></text>
</g>
<g >
<title>tc_calloc (70,707,070 samples, 0.22%)</title><rect x="85.0" y="213" width="2.6" height="15.0" fill="rgb(214,126,16)" rx="2" ry="2" />
<text  x="88.00" y="223.5" ></text>
</g>
<g >
<title>[[kernel.kallsyms]] (10,101,010 samples, 0.03%)</title><rect x="11.9" y="133" width="0.3" height="15.0" fill="rgb(225,35,21)" rx="2" ry="2" />
<text  x="14.86" y="143.5" ></text>
</g>
<g >
<title>[[kernel.kallsyms]] (20,202,020 samples, 0.06%)</title><rect x="43.4" y="133" width="0.8" height="15.0" fill="rgb(254,60,29)" rx="2" ry="2" />
<text  x="46.42" y="143.5" ></text>
</g>
<g >
<title>[[kernel.kallsyms]] (10,101,010 samples, 0.03%)</title><rect x="11.9" y="117" width="0.3" height="15.0" fill="rgb(207,10,23)" rx="2" ry="2" />
<text  x="14.86" y="127.5" ></text>
</g>
<g >
<title>[[kernel.kallsyms]] (10,101,010 samples, 0.03%)</title><rect x="88.0" y="149" width="0.3" height="15.0" fill="rgb(216,114,43)" rx="2" ry="2" />
<text  x="90.97" y="159.5" ></text>
</g>
<g >
<title>tcmalloc::ThreadCache::ReleaseToCentralCache (50,505,050 samples, 0.16%)</title><rect x="16.7" y="197" width="1.8" height="15.0" fill="rgb(231,194,0)" rx="2" ry="2" />
<text  x="19.68" y="207.5" ></text>
</g>
<g >
<title>all (32,101,009,780 samples, 100%)</title><rect x="10.0" y="245" width="1180.0" height="15.0" fill="rgb(247,122,4)" rx="2" ry="2" />
<text  x="13.00" y="255.5" ></text>
</g>
<g >
<title>[[kernel.kallsyms]] (10,101,010 samples, 0.03%)</title><rect x="11.9" y="149" width="0.3" height="15.0" fill="rgb(234,3,43)" rx="2" ry="2" />
<text  x="14.86" y="159.5" ></text>
</g>
<g >
<title>[[kernel.kallsyms]] (14,949,494,800 samples, 46.57%)</title><rect x="88.3" y="165" width="549.6" height="15.0" fill="rgb(247,28,47)" rx="2" ry="2" />
<text  x="91.34" y="175.5" >[[kernel.kallsyms]]</text>
</g>
<g >
<title>[unknown] (181,818,180 samples, 0.57%)</title><rect x="11.9" y="213" width="6.6" height="15.0" fill="rgb(227,215,25)" rx="2" ry="2" />
<text  x="14.86" y="223.5" ></text>
</g>
<g >
<title>[[kernel.kallsyms]] (10,101,010 samples, 0.03%)</title><rect x="11.1" y="53" width="0.4" height="15.0" fill="rgb(248,133,45)" rx="2" ry="2" />
<text  x="14.11" y="63.5" ></text>
</g>
<g >
<title>[[kernel.kallsyms]] (494,949,490 samples, 1.54%)</title><rect x="66.8" y="181" width="18.2" height="15.0" fill="rgb(237,4,30)" rx="2" ry="2" />
<text  x="69.81" y="191.5" ></text>
</g>
<g >
<title>__memset_avx2_unaligned_erms (222,222,220 samples, 0.69%)</title><rect x="44.2" y="213" width="8.1" height="15.0" fill="rgb(230,71,47)" rx="2" ry="2" />
<text  x="47.16" y="223.5" ></text>
</g>
<g >
<title>rptest (2,070,707,050 samples, 6.45%)</title><rect x="11.9" y="229" width="76.1" height="15.0" fill="rgb(208,218,25)" rx="2" ry="2" />
<text  x="14.86" y="239.5" >rptest</text>
</g>
<g >
<title>python3 (10,101,010 samples, 0.03%)</title><rect x="11.5" y="229" width="0.4" height="15.0" fill="rgb(234,111,37)" rx="2" ry="2" />
<text  x="14.49" y="239.5" ></text>
</g>
<g >
<title>do_lookup_x (10,101,010 samples, 0.03%)</title><rect x="10.7" y="213" width="0.4" height="15.0" fill="rgb(237,30,41)" rx="2" ry="2" />
<text  x="13.74" y="223.5" ></text>
</g>
<g >
<title>[[kernel.kallsyms]] (10,101,010 samples, 0.03%)</title><rect x="15.2" y="85" width="0.4" height="15.0" fill="rgb(205,138,45)" rx="2" ry="2" />
<text  x="18.20" y="95.5" ></text>
</g>
<g >
<title>[[kernel.kallsyms]] (10,101,010 samples, 0.03%)</title><rect x="88.0" y="85" width="0.3" height="15.0" fill="rgb(245,166,6)" rx="2" ry="2" />
<text  x="90.97" y="95.5" ></text>
</g>
<g >
<title>[[kernel.kallsyms]] (10,101,010 samples, 0.03%)</title><rect x="10.0" y="165" width="0.4" height="15.0" fill="rgb(249,97,43)" rx="2" ry="2" />
<text  x="13.00" y="175.5" ></text>
</g>
<g >
<title>malloc (10,101,010 samples, 0.03%)</title><rect x="10.4" y="213" width="0.3" height="15.0" fill="rgb(222,76,30)" rx="2" ry="2" />
<text  x="13.37" y="223.5" ></text>
</g>
<g >
<title>[unknown] (15,020,201,870 samples, 46.79%)</title><rect x="637.9" y="197" width="552.1" height="15.0" fill="rgb(245,63,22)" rx="2" ry="2" />
<text  x="640.87" y="207.5" >[unknown]</text>
</g>
<g >
<title>__libc_enable_asynccancel (20,202,020 samples, 0.06%)</title><rect x="18.5" y="213" width="0.8" height="15.0" fill="rgb(229,31,29)" rx="2" ry="2" />
<text  x="21.54" y="223.5" ></text>
</g>
<g >
<title>[[kernel.kallsyms]] (10,101,010 samples, 0.03%)</title><rect x="11.9" y="181" width="0.3" height="15.0" fill="rgb(207,178,25)" rx="2" ry="2" />
<text  x="14.86" y="191.5" ></text>
</g>
<g >
<title>[[kernel.kallsyms]] (10,101,010 samples, 0.03%)</title><rect x="10.4" y="181" width="0.3" height="15.0" fill="rgb(249,221,44)" rx="2" ry="2" />
<text  x="13.37" y="191.5" ></text>
</g>
<g >
<title>[[kernel.kallsyms]] (29,969,696,670 samples, 93.36%)</title><rect x="88.3" y="213" width="1101.7" height="15.0" fill="rgb(206,125,54)" rx="2" ry="2" />
<text  x="91.34" y="223.5" >[[kernel.kallsyms]]</text>
</g>
<g >
<title>swapper (29,969,696,670 samples, 93.36%)</title><rect x="88.3" y="229" width="1101.7" height="15.0" fill="rgb(249,60,25)" rx="2" ry="2" />
<text  x="91.34" y="239.5" >swapper</text>
</g>
<g >
<title>[[kernel.kallsyms]] (10,101,010 samples, 0.03%)</title><rect x="10.0" y="133" width="0.4" height="15.0" fill="rgb(231,212,29)" rx="2" ry="2" />
<text  x="13.00" y="143.5" ></text>
</g>
<g >
<title>dirname (10,101,010 samples, 0.03%)</title><rect x="10.7" y="229" width="0.4" height="15.0" fill="rgb(228,37,32)" rx="2" ry="2" />
<text  x="13.74" y="239.5" ></text>
</g>
<g >
<title>[[kernel.kallsyms]] (15,020,201,870 samples, 46.79%)</title><rect x="637.9" y="85" width="552.1" height="15.0" fill="rgb(245,41,48)" rx="2" ry="2" />
<text  x="640.87" y="95.5" >[[kernel.kallsyms]]</text>
</g>
<g >
<title>[[kernel.kallsyms]] (30,303,030 samples, 0.09%)</title><rect x="43.0" y="197" width="1.2" height="15.0" fill="rgb(233,108,39)" rx="2" ry="2" />
<text  x="46.05" y="207.5" ></text>
</g>
<g >
<title>benchmark_worker (232,323,230 samples, 0.72%)</title><rect x="56.4" y="213" width="8.6" height="15.0" fill="rgb(208,224,16)" rx="2" ry="2" />
<text  x="59.41" y="223.5" ></text>
</g>
<g >
<title>bench.sh (20,202,020 samples, 0.06%)</title><rect x="10.0" y="229" width="0.7" height="15.0" fill="rgb(230,63,53)" rx="2" ry="2" />
<text  x="13.00" y="239.5" ></text>
</g>
<g >
<title>[[kernel.kallsyms]] (10,101,010 samples, 0.03%)</title><rect x="11.1" y="37" width="0.4" height="15.0" fill="rgb(253,198,1)" rx="2" ry="2" />
<text  x="14.11" y="47.5" ></text>
</g>
<g >
<title>kworker/0:2-eve (10,101,010 samples, 0.03%)</title><rect x="11.1" y="229" width="0.4" height="15.0" fill="rgb(238,220,18)" rx="2" ry="2" />
<text  x="14.11" y="239.5" ></text>
</g>
<g >
<title>[[kernel.kallsyms]] (15,020,201,870 samples, 46.79%)</title><rect x="637.9" y="101" width="552.1" height="15.0" fill="rgb(250,110,48)" rx="2" ry="2" />
<text  x="640.87" y="111.5" >[[kernel.kallsyms]]</text>
</g>
<g >
<title>drm_simple_kms_plane_duplicate_state (10,101,010 samples, 0.03%)</title><rect x="11.1" y="101" width="0.4" height="15.0" fill="rgb(245,22,52)" rx="2" ry="2" />
<text  x="14.11" y="111.5" ></text>
</g>
<g >
<title>[[kernel.kallsyms]] (10,101,010 samples, 0.03%)</title><rect x="15.2" y="133" width="0.4" height="15.0" fill="rgb(209,42,46)" rx="2" ry="2" />
<text  x="18.20" y="143.5" ></text>
</g>
<g >
<title>[[kernel.kallsyms]] (14,949,494,800 samples, 46.57%)</title><rect x="88.3" y="149" width="549.6" height="15.0" fill="rgb(205,209,34)" rx="2" ry="2" />
<text  x="91.34" y="159.5" >[[kernel.kallsyms]]</text>
</g>
<g >
<title>[unknown] (15,020,201,870 samples, 46.79%)</title><rect x="637.9" y="149" width="552.1" height="15.0" fill="rgb(213,39,22)" rx="2" ry="2" />
<text  x="640.87" y="159.5" >[unknown]</text>
</g>
<g >
<title>aligned_alloc (111,111,110 samples, 0.35%)</title><rect x="52.3" y="213" width="4.1" height="15.0" fill="rgb(240,63,19)" rx="2" ry="2" />
<text  x="55.33" y="223.5" ></text>
</g>
<g >
<title>[[kernel.kallsyms]] (10,101,010 samples, 0.03%)</title><rect x="88.0" y="117" width="0.3" height="15.0" fill="rgb(254,46,0)" rx="2" ry="2" />
<text  x="90.97" y="127.5" ></text>
</g>
<g >
<title>drm_atomic_get_plane_state (10,101,010 samples, 0.03%)</title><rect x="11.1" y="117" width="0.4" height="15.0" fill="rgb(229,4,45)" rx="2" ry="2" />
<text  x="14.11" y="127.5" ></text>
</g>
<g >
<title>[[kernel.kallsyms]] (30,303,030 samples, 0.09%)</title><rect x="43.0" y="165" width="1.2" height="15.0" fill="rgb(239,86,22)" rx="2" ry="2" />
<text  x="46.05" y="175.5" ></text>
</g>
<g >
<title>[[kernel.kallsyms]] (363,636,360 samples, 1.13%)</title><rect x="71.6" y="85" width="13.4" height="15.0" fill="rgb(236,111,39)" rx="2" ry="2" />
<text  x="74.64" y="95.5" ></text>
</g>
<g >
<title>[[kernel.kallsyms]] (14,919,191,770 samples, 46.48%)</title><rect x="89.5" y="133" width="548.4" height="15.0" fill="rgb(216,185,26)" rx="2" ry="2" />
<text  x="92.46" y="143.5" >[[kernel.kallsyms]]</text>
</g>
<g >
<title>[[kernel.kallsyms]] (424,242,420 samples, 1.32%)</title><rect x="69.4" y="133" width="15.6" height="15.0" fill="rgb(231,50,29)" rx="2" ry="2" />
<text  x="72.41" y="143.5" ></text>
</g>
<g >
<title>[[kernel.kallsyms]] (424,242,420 samples, 1.32%)</title><rect x="69.4" y="117" width="15.6" height="15.0" fill="rgb(240,38,38)" rx="2" ry="2" />
<text  x="72.41" y="127.5" ></text>
</g>
<g >
<title>[[kernel.kallsyms]] (353,535,350 samples, 1.10%)</title><rect x="72.0" y="69" width="13.0" height="15.0" fill="rgb(224,216,28)" rx="2" ry="2" />
<text  x="75.01" y="79.5" ></text>
</g>
<g >
<title>__memset_avx2_erms (676,767,670 samples, 2.11%)</title><rect x="19.3" y="213" width="24.9" height="15.0" fill="rgb(245,217,12)" rx="2" ry="2" />
<text  x="22.28" y="223.5" >_..</text>
</g>
<g >
<title>[[kernel.kallsyms]] (10,101,010 samples, 0.03%)</title><rect x="10.4" y="149" width="0.3" height="15.0" fill="rgb(209,37,23)" rx="2" ry="2" />
<text  x="13.37" y="159.5" ></text>
</g>
<g >
<title>clock_nanosleep@@GLIBC_2.17 (545,454,540 samples, 1.70%)</title><rect x="65.0" y="213" width="20.0" height="15.0" fill="rgb(220,1,11)" rx="2" ry="2" />
<text  x="67.95" y="223.5" ></text>
</g>
<g >
<title>syscall (10,101,010 samples, 0.03%)</title><rect x="11.9" y="197" width="0.3" height="15.0" fill="rgb(220,30,47)" rx="2" ry="2" />
<text  x="14.86" y="207.5" ></text>
</g>
<g >
<title>[[kernel.kallsyms]] (30,303,030 samples, 0.09%)</title><rect x="43.0" y="181" width="1.2" height="15.0" fill="rgb(234,43,52)" rx="2" ry="2" />
<text  x="46.05" y="191.5" ></text>
</g>
<g >
<title>drm_atomic_helper_dirtyfb (10,101,010 samples, 0.03%)</title><rect x="11.1" y="133" width="0.4" height="15.0" fill="rgb(242,212,21)" rx="2" ry="2" />
<text  x="14.11" y="143.5" ></text>
</g>
<g >
<title>drm_fb_helper_damage_work (10,101,010 samples, 0.03%)</title><rect x="11.1" y="149" width="0.4" height="15.0" fill="rgb(225,140,15)" rx="2" ry="2" />
<text  x="14.11" y="159.5" ></text>
</g>
<g >
<title>[[kernel.kallsyms]] (10,101,010 samples, 0.03%)</title><rect x="43.8" y="117" width="0.4" height="15.0" fill="rgb(235,87,45)" rx="2" ry="2" />
<text  x="46.79" y="127.5" ></text>
</g>
<g >
<title>[[kernel.kallsyms]] (10,101,010 samples, 0.03%)</title><rect x="15.2" y="69" width="0.4" height="15.0" fill="rgb(220,79,0)" rx="2" ry="2" />
<text  x="18.20" y="79.5" ></text>
</g>
<g >
<title>[[kernel.kallsyms]] (14,949,494,800 samples, 46.57%)</title><rect x="88.3" y="197" width="549.6" height="15.0" fill="rgb(238,30,22)" rx="2" ry="2" />
<text  x="91.34" y="207.5" >[[kernel.kallsyms]]</text>
</g>
<g >
<title>tcmalloc::CentralFreeList::Populate (50,505,050 samples, 0.16%)</title><rect x="13.7" y="197" width="1.9" height="15.0" fill="rgb(220,194,45)" rx="2" ry="2" />
<text  x="16.71" y="207.5" ></text>
</g>
<g >
<title>tcmalloc::CentralFreeList::FetchFromOneSpans (40,404,040 samples, 0.13%)</title><rect x="12.2" y="197" width="1.5" height="15.0" fill="rgb(215,27,15)" rx="2" ry="2" />
<text  x="15.23" y="207.5" ></text>
</g>
<g >
<title>[[kernel.kallsyms]] (10,101,010 samples, 0.03%)</title><rect x="43.8" y="101" width="0.4" height="15.0" fill="rgb(233,197,5)" rx="2" ry="2" />
<text  x="46.79" y="111.5" ></text>
</g>
</g>
</svg>
